<?xml version='1.0' encoding='utf-8'?>
<!DOCTYPE svg PUBLIC '-//W3C//DTD SVG 1.1//EN' 'http://www.w3.org/Graphics/SVG/1.1/DTD/svg11.dtd'>
<!-- Generator: Adobe Illustrator 15.0.0, SVG Export Plug-In . SVG Version: 6.00 Build 0)  -->
<svg width="0.556361in" x="0px" version="1.1" y="0px" xmlns="http://www.w3.org/2000/svg" height="0.528708in" viewBox="0 0 40.058 38.067" xmlns:xml="http://www.w3.org/XML/1998/namespace" id="Layer_1" enable-background="new 0 0 40.058 38.067" xml:space="preserve">
 <g id="breadboard">
  <polygon fill="#8C8C8C" points="33.009,33.54 33.009,23.563 31.951,23.563 30.893,23.563 30.893,33.54 31.25,33.906 31.25,35.307 30.893,35.977 30.893,37.599 31.447,38.067 31.951,38.067 32.455,38.067 33.009,37.599 33.009,35.977 32.652,35.307 32.652,33.906 "/>
  <polygon fill="#8C8C8C" points="19.2,33.54 19.2,23.563 18.142,23.563 17.084,23.563 17.084,33.54 17.441,33.906 17.441,35.307 17.084,35.977 17.084,37.599 17.638,38.067 18.142,38.067 18.646,38.067 19.2,37.599 19.2,35.977 18.843,35.307 18.843,33.906 "/>
  <path fill="#FBDFB8" d="M9.983,9.721H7.148V8.87c0-0.759,2.834-0.821,2.834,0V9.721z"/>
  <path fill="#999999" d="M4.667,8.567l0.001,0.005c-1.354,0.358-1.471,1.336-1.362,1.784l0.546-0.133C3.749,9.799,4.061,9.298,4.86,9.104l35.197-8.552L39.924,0L4.667,8.567z"/>
  <polygon fill="#8C8C8C" points="4.8,33.54 4.8,23.563 3.742,23.563 2.684,23.563 2.684,33.54 3.041,33.906 3.041,35.307 2.684,35.977 2.684,37.599 3.238,38.067 3.742,38.067 4.246,38.067 4.8,37.599 4.8,35.977 4.443,35.307 4.443,33.906 "/>
  <path d="M36.284,28.146H0V9.721h36.284V28.146z M8.929,21.06c-1.565,0-2.834,1.269-2.834,2.834c0,1.566,1.269,2.835,2.834,2.835c1.566,0,2.835-1.269,2.835-2.835C11.764,22.329,10.495,21.06,8.929,21.06z M27.354,21.06c-1.565,0-2.834,1.269-2.834,2.834c0,1.566,1.269,2.835,2.834,2.835c1.566,0,2.835-1.269,2.835-2.835C30.189,22.329,28.92,21.06,27.354,21.06z"/>
  <text fill="#FFFFFF" font-family="DroidSans" transform="matrix(1 0 0 1 9.5864 18.3667)" font-size="5">D2F-FL</text>
  <rect width="4.000000798841839" x="16.36199699243193" y="34.05075688073395" fill="none" height="4.000002521870925" id="connector1pad_1"/>
  <rect width="4.000000798841839" x="29.98229387768472" y="33.87613761467891" fill="none" height="4.000002521870925" id="connector1pad_2"/>
  <rect width="4.000000798841839" x="1.868604152996213" y="33.87613761467893" fill="none" height="4.000002521870925" id="connector1"/>
 </g>
</svg>
