G75*
%MOIN*%
%OFA0B0*%
%FSLAX25Y25*%
%IPPOS*%
%LPD*%
%AMOC8*
5,1,8,0,0,1.08239X$1,22.5*
%
%ADD10OC8,0.06000*%
%ADD11C,0.07887*%
%ADD12C,0.06800*%
%ADD13OC8,0.06800*%
%ADD14C,0.13398*%
%ADD15C,0.08674*%
%ADD16C,0.09400*%
%ADD17C,0.03778*%
D10*
X0100000Y0206300D03*
X0100000Y0231300D03*
X0100000Y0266300D03*
X0100000Y0291300D03*
X0115000Y0291300D03*
X0115000Y0266300D03*
X0135000Y0266300D03*
X0135000Y0291300D03*
X0150000Y0291300D03*
X0150000Y0266300D03*
X0170000Y0266300D03*
X0170000Y0291300D03*
X0130000Y0231300D03*
X0130000Y0206300D03*
X0080000Y0266300D03*
X0070000Y0266300D03*
X0070000Y0291300D03*
X0080000Y0291300D03*
X0055000Y0316300D03*
X0050000Y0291300D03*
X0050000Y0266300D03*
X0035000Y0316300D03*
X0035000Y0341300D03*
X0055000Y0341300D03*
D11*
X0080000Y0324843D02*
X0080000Y0317757D01*
X0090000Y0317757D02*
X0090000Y0324843D01*
X0085000Y0337757D02*
X0085000Y0344843D01*
X0095000Y0344843D02*
X0095000Y0337757D01*
X0100000Y0324843D02*
X0100000Y0317757D01*
X0110000Y0317757D02*
X0110000Y0324843D01*
X0105000Y0337757D02*
X0105000Y0344843D01*
X0115000Y0344843D02*
X0115000Y0337757D01*
X0125000Y0337757D02*
X0125000Y0344843D01*
X0135000Y0344843D02*
X0135000Y0337757D01*
X0130000Y0324843D02*
X0130000Y0317757D01*
X0140000Y0317757D02*
X0140000Y0324843D01*
X0145000Y0337757D02*
X0145000Y0344843D01*
X0150000Y0324843D02*
X0150000Y0317757D01*
X0120000Y0317757D02*
X0120000Y0324843D01*
D12*
X0080000Y0249300D02*
X0080000Y0243300D01*
X0070000Y0243300D02*
X0070000Y0249300D01*
X0060000Y0249300D02*
X0060000Y0243300D01*
X0050000Y0243300D02*
X0050000Y0249300D01*
X0050000Y0219300D02*
X0050000Y0213300D01*
X0060000Y0213300D02*
X0060000Y0219300D01*
X0070000Y0219300D02*
X0070000Y0213300D01*
X0080000Y0213300D02*
X0080000Y0219300D01*
X0080000Y0189300D02*
X0080000Y0183300D01*
X0070000Y0183300D02*
X0070000Y0189300D01*
X0060000Y0189300D02*
X0060000Y0183300D01*
X0050000Y0183300D02*
X0050000Y0189300D01*
X0050000Y0159300D02*
X0050000Y0153300D01*
X0060000Y0153300D02*
X0060000Y0159300D01*
X0070000Y0159300D02*
X0070000Y0153300D01*
X0080000Y0153300D02*
X0080000Y0159300D01*
X0080000Y0114300D02*
X0080000Y0108300D01*
X0070000Y0108300D02*
X0070000Y0114300D01*
X0060000Y0114300D02*
X0060000Y0108300D01*
X0060000Y0084300D02*
X0060000Y0078300D01*
X0070000Y0078300D02*
X0070000Y0084300D01*
X0080000Y0084300D02*
X0080000Y0078300D01*
X0100000Y0064300D02*
X0100000Y0058300D01*
X0110000Y0058300D02*
X0110000Y0064300D01*
X0120000Y0064300D02*
X0120000Y0058300D01*
X0130000Y0058300D02*
X0130000Y0064300D01*
X0150000Y0078300D02*
X0150000Y0084300D01*
X0160000Y0084300D02*
X0160000Y0078300D01*
X0160000Y0113300D02*
X0160000Y0119300D01*
X0150000Y0119300D02*
X0150000Y0113300D01*
X0145000Y0153300D02*
X0145000Y0159300D01*
X0155000Y0159300D02*
X0155000Y0153300D01*
X0165000Y0153300D02*
X0165000Y0159300D01*
X0165000Y0188300D02*
X0165000Y0194300D01*
X0155000Y0194300D02*
X0155000Y0188300D01*
X0145000Y0188300D02*
X0145000Y0194300D01*
X0145000Y0223300D02*
X0145000Y0229300D01*
X0155000Y0229300D02*
X0155000Y0223300D01*
X0165000Y0223300D02*
X0165000Y0229300D01*
X0202000Y0236300D02*
X0208000Y0236300D01*
X0208000Y0246300D02*
X0202000Y0246300D01*
X0202000Y0256300D02*
X0208000Y0256300D01*
X0208000Y0266300D02*
X0202000Y0266300D01*
X0202000Y0276300D02*
X0208000Y0276300D01*
X0208000Y0286300D02*
X0202000Y0286300D01*
X0202000Y0296300D02*
X0208000Y0296300D01*
X0208000Y0306300D02*
X0202000Y0306300D01*
X0180000Y0323300D02*
X0180000Y0329300D01*
X0170000Y0329300D02*
X0170000Y0323300D01*
X0170000Y0353300D02*
X0170000Y0359300D01*
X0180000Y0359300D02*
X0180000Y0353300D01*
X0202000Y0221300D02*
X0208000Y0221300D01*
X0208000Y0211300D02*
X0202000Y0211300D01*
X0202000Y0201300D02*
X0208000Y0201300D01*
X0208000Y0191300D02*
X0202000Y0191300D01*
X0202000Y0181300D02*
X0208000Y0181300D01*
X0208000Y0171300D02*
X0202000Y0171300D01*
X0202000Y0161300D02*
X0208000Y0161300D01*
X0208000Y0151300D02*
X0202000Y0151300D01*
X0202000Y0131300D02*
X0208000Y0131300D01*
X0208000Y0121300D02*
X0202000Y0121300D01*
X0202000Y0111300D02*
X0208000Y0111300D01*
X0208000Y0101300D02*
X0202000Y0101300D01*
X0202000Y0091300D02*
X0208000Y0091300D01*
X0208000Y0081300D02*
X0202000Y0081300D01*
X0202000Y0071300D02*
X0208000Y0071300D01*
X0208000Y0061300D02*
X0202000Y0061300D01*
X0018000Y0061300D02*
X0012000Y0061300D01*
X0012000Y0071300D02*
X0018000Y0071300D01*
X0018000Y0081300D02*
X0012000Y0081300D01*
X0012000Y0091300D02*
X0018000Y0091300D01*
X0018000Y0101300D02*
X0012000Y0101300D01*
X0012000Y0111300D02*
X0018000Y0111300D01*
X0018000Y0131300D02*
X0012000Y0131300D01*
X0012000Y0141300D02*
X0018000Y0141300D01*
X0018000Y0151300D02*
X0012000Y0151300D01*
X0012000Y0161300D02*
X0018000Y0161300D01*
X0018000Y0171300D02*
X0012000Y0171300D01*
X0012000Y0181300D02*
X0018000Y0181300D01*
X0018000Y0191300D02*
X0012000Y0191300D01*
X0012000Y0201300D02*
X0018000Y0201300D01*
X0018000Y0221300D02*
X0012000Y0221300D01*
X0012000Y0231300D02*
X0018000Y0231300D01*
X0018000Y0241300D02*
X0012000Y0241300D01*
X0012000Y0251300D02*
X0018000Y0251300D01*
X0018000Y0261300D02*
X0012000Y0261300D01*
X0012000Y0271300D02*
X0018000Y0271300D01*
X0018000Y0051300D02*
X0012000Y0051300D01*
X0012000Y0041300D02*
X0018000Y0041300D01*
D13*
X0035000Y0031300D03*
X0035000Y0021300D03*
X0045000Y0021300D03*
X0045000Y0031300D03*
X0055000Y0031300D03*
X0055000Y0021300D03*
X0065000Y0021300D03*
X0065000Y0031300D03*
X0075000Y0031300D03*
X0075000Y0021300D03*
X0085000Y0021300D03*
X0085000Y0031300D03*
X0095000Y0031300D03*
X0095000Y0021300D03*
X0105000Y0021300D03*
X0105000Y0031300D03*
X0115000Y0031300D03*
X0115000Y0021300D03*
X0125000Y0021300D03*
X0125000Y0031300D03*
X0135000Y0031300D03*
X0135000Y0021300D03*
X0145000Y0021300D03*
X0145000Y0031300D03*
X0155000Y0031300D03*
X0155000Y0021300D03*
X0165000Y0021300D03*
X0165000Y0031300D03*
X0175000Y0031300D03*
X0175000Y0021300D03*
X0185000Y0021300D03*
X0185000Y0031300D03*
X0195000Y0031300D03*
X0195000Y0021300D03*
X0205000Y0021300D03*
X0205000Y0031300D03*
X0130000Y0126300D03*
X0130000Y0136300D03*
X0120000Y0136300D03*
X0120000Y0126300D03*
X0110000Y0126300D03*
X0110000Y0136300D03*
X0100000Y0136300D03*
X0100000Y0126300D03*
X0100000Y0176300D03*
X0100000Y0186300D03*
X0110000Y0186300D03*
X0110000Y0176300D03*
X0120000Y0176300D03*
X0120000Y0186300D03*
X0130000Y0186300D03*
X0130000Y0176300D03*
D14*
X0015000Y0021300D03*
X0015000Y0341300D03*
X0205000Y0341300D03*
X0205000Y0046300D03*
D15*
X0115000Y0109300D03*
D16*
X0059300Y0357402D02*
X0050700Y0357402D01*
X0043189Y0372000D02*
X0043189Y0380600D01*
X0066811Y0380600D02*
X0066811Y0372000D01*
D17*
X0169800Y0261300D03*
X0192600Y0227700D03*
X0198000Y0218100D03*
X0178200Y0213300D03*
X0167400Y0148500D03*
X0171000Y0144900D03*
X0156000Y0142500D03*
X0136800Y0166500D03*
X0133200Y0132300D03*
X0184800Y0104100D03*
X0198000Y0095700D03*
M02*
