G75*
%MOIN*%
%OFA0B0*%
%FSLAX25Y25*%
%IPPOS*%
%LPD*%
%AMOC8*
5,1,8,0,0,1.08239X$1,22.5*
%
%ADD10C,0.00600*%
%ADD11OC8,0.05200*%
%ADD12C,0.07087*%
%ADD13C,0.06000*%
%ADD14OC8,0.06000*%
%ADD15C,0.00000*%
%ADD16C,0.08600*%
%ADD17C,0.02978*%
D10*
X0005000Y0011300D02*
X0005000Y0401300D01*
X0215000Y0401300D01*
X0215000Y0021300D01*
X0205000Y0011300D01*
X0165000Y0011300D01*
X0155000Y0001300D01*
X0020000Y0001300D01*
X0010000Y0011300D01*
X0005000Y0011300D01*
X0035000Y0021300D02*
X0035400Y0021300D01*
X0035400Y0030900D01*
X0035000Y0031300D01*
X0055000Y0031300D02*
X0055200Y0031500D01*
X0055200Y0115500D01*
X0075600Y0135900D01*
X0099600Y0135900D01*
X0100000Y0136300D01*
X0112200Y0156300D02*
X0126600Y0141900D01*
X0145200Y0141900D01*
X0182400Y0104700D01*
X0182400Y0044100D01*
X0195000Y0031500D01*
X0195000Y0031300D01*
X0196800Y0027300D02*
X0178800Y0027300D01*
X0175200Y0030900D01*
X0175000Y0031300D01*
X0165000Y0031300D02*
X0165000Y0120300D01*
X0162000Y0123300D01*
X0155400Y0123300D01*
X0138000Y0140700D01*
X0087000Y0140700D01*
X0075600Y0152100D01*
X0075600Y0220500D01*
X0079800Y0224700D01*
X0079800Y0246300D01*
X0080000Y0246300D01*
X0081600Y0262500D02*
X0076200Y0262500D01*
X0076200Y0267900D01*
X0099600Y0291300D01*
X0100000Y0291300D01*
X0088800Y0271500D02*
X0153600Y0271500D01*
X0153600Y0293100D01*
X0140400Y0306300D01*
X0140400Y0321300D01*
X0140000Y0321300D01*
X0144600Y0326700D02*
X0141600Y0329700D01*
X0138000Y0329700D01*
X0129600Y0321300D01*
X0130000Y0321300D01*
X0123000Y0333300D02*
X0115000Y0341300D01*
X0123000Y0333300D02*
X0139800Y0333300D01*
X0150000Y0323100D01*
X0150000Y0321300D01*
X0154800Y0326700D02*
X0148200Y0333300D01*
X0142800Y0333300D01*
X0135000Y0341100D01*
X0135000Y0341300D01*
X0144600Y0326700D02*
X0144600Y0309900D01*
X0195000Y0259500D01*
X0195000Y0212700D01*
X0204600Y0203100D01*
X0204600Y0201300D01*
X0205000Y0201300D01*
X0204600Y0191700D02*
X0205000Y0191300D01*
X0204600Y0191700D02*
X0184200Y0191700D01*
X0169800Y0206100D01*
X0169800Y0261300D01*
X0170000Y0266300D02*
X0169800Y0266700D01*
X0165000Y0271500D01*
X0153600Y0271500D01*
X0150000Y0266700D02*
X0150000Y0266300D01*
X0150000Y0266700D02*
X0139800Y0266700D01*
X0136200Y0270300D01*
X0118800Y0270300D01*
X0115200Y0266700D01*
X0115000Y0266300D01*
X0120000Y0291300D02*
X0135000Y0291300D01*
X0150000Y0291300D01*
X0154800Y0301500D02*
X0154800Y0326700D01*
X0163800Y0341100D02*
X0145200Y0341100D01*
X0145000Y0341300D01*
X0163800Y0341100D02*
X0178200Y0326700D01*
X0180000Y0326700D01*
X0180000Y0326300D01*
X0169800Y0356100D02*
X0170000Y0356300D01*
X0169800Y0356100D02*
X0099600Y0356100D01*
X0085200Y0341700D01*
X0085000Y0341300D01*
X0088200Y0329700D02*
X0084600Y0326100D01*
X0084600Y0315900D01*
X0081000Y0312300D01*
X0044400Y0312300D01*
X0034800Y0321900D01*
X0034800Y0341100D01*
X0035000Y0341300D01*
X0034800Y0321900D02*
X0034800Y0321300D01*
X0022200Y0308700D01*
X0022200Y0258900D01*
X0015000Y0251700D01*
X0015000Y0251300D01*
X0015000Y0241300D02*
X0015000Y0231300D01*
X0015000Y0221700D02*
X0015000Y0221300D01*
X0015000Y0221700D02*
X0046200Y0252900D01*
X0046200Y0287700D01*
X0049800Y0291300D01*
X0050000Y0291300D01*
X0049800Y0291300D02*
X0049800Y0301500D01*
X0035000Y0316300D01*
X0055000Y0316300D02*
X0055200Y0316500D01*
X0055200Y0321300D01*
X0080000Y0321300D01*
X0088200Y0329700D02*
X0111600Y0329700D01*
X0120000Y0321300D01*
X0120000Y0291300D02*
X0090000Y0321300D01*
X0080000Y0291300D02*
X0070000Y0291300D01*
X0070000Y0266300D02*
X0073800Y0262500D01*
X0076200Y0262500D01*
X0080000Y0266300D02*
X0080400Y0266700D01*
X0084000Y0266700D01*
X0088800Y0271500D01*
X0085200Y0266100D02*
X0081600Y0262500D01*
X0085200Y0266100D02*
X0099600Y0266100D01*
X0100000Y0266300D01*
X0100000Y0231300D02*
X0105000Y0231300D01*
X0130000Y0206300D01*
X0130200Y0206100D01*
X0130200Y0197100D01*
X0154800Y0172500D01*
X0154800Y0156300D01*
X0155000Y0156300D01*
X0155400Y0156300D01*
X0155400Y0153300D01*
X0195600Y0113100D01*
X0195600Y0092100D01*
X0204600Y0083100D01*
X0204600Y0081300D01*
X0205000Y0081300D01*
X0199200Y0095700D02*
X0198000Y0095700D01*
X0199200Y0095700D02*
X0204600Y0101100D01*
X0205000Y0101300D01*
X0198000Y0108300D01*
X0198000Y0112500D01*
X0159600Y0150900D01*
X0159600Y0169500D01*
X0155400Y0173700D01*
X0155400Y0191100D01*
X0155000Y0191300D01*
X0160800Y0194100D02*
X0155400Y0199500D01*
X0155400Y0225900D01*
X0155000Y0226300D01*
X0145200Y0225900D02*
X0145000Y0226300D01*
X0144600Y0226500D01*
X0139800Y0231300D01*
X0130000Y0231300D01*
X0145200Y0225900D02*
X0145200Y0191700D01*
X0145000Y0191300D01*
X0132000Y0180300D02*
X0150600Y0161700D01*
X0150600Y0151500D01*
X0194400Y0107700D01*
X0194400Y0037500D01*
X0199200Y0032700D01*
X0199200Y0029700D01*
X0196800Y0027300D01*
X0205200Y0026100D02*
X0205200Y0021300D01*
X0205000Y0021300D01*
X0205200Y0026100D02*
X0164400Y0026100D01*
X0159000Y0031500D01*
X0159000Y0033300D01*
X0131400Y0060900D01*
X0130200Y0060900D01*
X0130000Y0061300D01*
X0129600Y0060900D01*
X0128400Y0060900D01*
X0121800Y0054300D01*
X0098400Y0054300D01*
X0080400Y0072300D01*
X0080400Y0081300D01*
X0080000Y0081300D01*
X0080400Y0081300D02*
X0080400Y0111300D01*
X0080000Y0111300D01*
X0070200Y0111300D02*
X0070000Y0111300D01*
X0070200Y0111300D02*
X0070200Y0081300D01*
X0070000Y0081300D01*
X0061200Y0111300D02*
X0060000Y0111300D01*
X0061200Y0111300D02*
X0082200Y0132300D01*
X0133200Y0132300D01*
X0130200Y0135900D02*
X0130000Y0136300D01*
X0130200Y0135900D02*
X0140400Y0135900D01*
X0160000Y0116300D01*
X0160200Y0116100D01*
X0160200Y0081300D01*
X0160000Y0081300D01*
X0159600Y0081300D01*
X0152400Y0074100D01*
X0133800Y0074100D01*
X0121200Y0061500D01*
X0120000Y0061500D01*
X0120000Y0061300D01*
X0184800Y0104100D02*
X0143400Y0145500D01*
X0124800Y0145500D01*
X0084000Y0186300D01*
X0080000Y0186300D01*
X0074400Y0190500D02*
X0074400Y0182100D01*
X0070200Y0177900D01*
X0070200Y0156300D01*
X0070000Y0156300D01*
X0080000Y0156300D02*
X0112200Y0156300D01*
X0104400Y0176100D02*
X0100200Y0176100D01*
X0100000Y0176300D01*
X0104400Y0176100D02*
X0133800Y0146700D01*
X0151800Y0146700D01*
X0156000Y0142500D01*
X0160800Y0151500D02*
X0174600Y0137700D01*
X0188400Y0137700D01*
X0204600Y0121500D01*
X0205000Y0121300D01*
X0205000Y0131300D02*
X0198000Y0138300D01*
X0198000Y0167100D01*
X0165000Y0200100D01*
X0165000Y0226300D01*
X0178200Y0213300D02*
X0192600Y0227700D01*
X0198000Y0218100D02*
X0204600Y0211500D01*
X0205000Y0211300D01*
X0205000Y0266300D02*
X0204600Y0266700D01*
X0189600Y0266700D01*
X0154800Y0301500D01*
X0170000Y0291300D02*
X0199800Y0291300D01*
X0204600Y0296100D01*
X0205000Y0296300D01*
X0160800Y0194100D02*
X0160800Y0151500D01*
X0167400Y0149700D02*
X0169200Y0151500D01*
X0169200Y0186900D01*
X0165000Y0191100D01*
X0165000Y0191300D01*
X0145000Y0156300D02*
X0143400Y0156300D01*
X0124200Y0175500D01*
X0124200Y0182100D01*
X0120000Y0186300D01*
X0115800Y0190500D01*
X0108600Y0190500D01*
X0104400Y0186300D01*
X0100000Y0186300D01*
X0109200Y0191700D02*
X0120600Y0191700D01*
X0126000Y0186300D01*
X0126000Y0184500D01*
X0130200Y0180300D01*
X0132000Y0180300D01*
X0130000Y0176300D02*
X0136800Y0169500D01*
X0136800Y0166500D01*
X0130000Y0186300D02*
X0129600Y0186300D01*
X0109800Y0206100D01*
X0100200Y0206100D01*
X0100000Y0206300D01*
X0109200Y0191700D02*
X0084600Y0216300D01*
X0080000Y0216300D01*
X0063600Y0201300D02*
X0074400Y0190500D01*
X0070000Y0186300D02*
X0069600Y0186300D01*
X0062400Y0193500D01*
X0016800Y0193500D01*
X0015000Y0191700D01*
X0015000Y0191300D01*
X0015000Y0201300D02*
X0063600Y0201300D01*
X0060000Y0186300D02*
X0060000Y0156300D01*
X0050400Y0156300D02*
X0050000Y0156300D01*
X0050400Y0156300D02*
X0050400Y0186300D01*
X0050000Y0186300D01*
X0050000Y0216300D02*
X0050400Y0216300D01*
X0050400Y0246300D01*
X0050000Y0246300D01*
X0060000Y0246300D02*
X0060000Y0216300D01*
X0069600Y0261300D02*
X0130200Y0261300D01*
X0135000Y0266100D01*
X0135000Y0266300D01*
X0167400Y0149700D02*
X0167400Y0148500D01*
X0171000Y0144900D01*
X0205000Y0031300D02*
X0205200Y0030900D01*
X0205200Y0026100D01*
X0069600Y0261300D02*
X0064800Y0266100D01*
X0050400Y0266100D01*
X0050000Y0266300D01*
X0055200Y0321300D02*
X0055200Y0341100D01*
X0055000Y0341300D01*
X0055200Y0341700D01*
X0055200Y0357300D01*
X0055000Y0357402D01*
X0054600Y0357900D01*
X0043200Y0369300D01*
X0043200Y0375900D01*
X0043189Y0376300D01*
D11*
X0035000Y0341300D03*
X0035000Y0316300D03*
X0050000Y0291300D03*
X0050000Y0266300D03*
X0070000Y0266300D03*
X0080000Y0266300D03*
X0080000Y0291300D03*
X0070000Y0291300D03*
X0055000Y0316300D03*
X0055000Y0341300D03*
X0100000Y0291300D03*
X0100000Y0266300D03*
X0115000Y0266300D03*
X0115000Y0291300D03*
X0135000Y0291300D03*
X0135000Y0266300D03*
X0150000Y0266300D03*
X0150000Y0291300D03*
X0170000Y0291300D03*
X0170000Y0266300D03*
X0130000Y0231300D03*
X0130000Y0206300D03*
X0100000Y0206300D03*
X0100000Y0231300D03*
D12*
X0100000Y0317757D02*
X0100000Y0324843D01*
X0110000Y0324843D02*
X0110000Y0317757D01*
X0120000Y0317757D02*
X0120000Y0324843D01*
X0115000Y0337757D02*
X0115000Y0344843D01*
X0125000Y0344843D02*
X0125000Y0337757D01*
X0130000Y0324843D02*
X0130000Y0317757D01*
X0140000Y0317757D02*
X0140000Y0324843D01*
X0135000Y0337757D02*
X0135000Y0344843D01*
X0145000Y0344843D02*
X0145000Y0337757D01*
X0150000Y0324843D02*
X0150000Y0317757D01*
X0105000Y0337757D02*
X0105000Y0344843D01*
X0095000Y0344843D02*
X0095000Y0337757D01*
X0085000Y0337757D02*
X0085000Y0344843D01*
X0080000Y0324843D02*
X0080000Y0317757D01*
X0090000Y0317757D02*
X0090000Y0324843D01*
D13*
X0080000Y0249300D02*
X0080000Y0243300D01*
X0070000Y0243300D02*
X0070000Y0249300D01*
X0060000Y0249300D02*
X0060000Y0243300D01*
X0050000Y0243300D02*
X0050000Y0249300D01*
X0050000Y0219300D02*
X0050000Y0213300D01*
X0060000Y0213300D02*
X0060000Y0219300D01*
X0070000Y0219300D02*
X0070000Y0213300D01*
X0080000Y0213300D02*
X0080000Y0219300D01*
X0080000Y0189300D02*
X0080000Y0183300D01*
X0070000Y0183300D02*
X0070000Y0189300D01*
X0060000Y0189300D02*
X0060000Y0183300D01*
X0050000Y0183300D02*
X0050000Y0189300D01*
X0050000Y0159300D02*
X0050000Y0153300D01*
X0060000Y0153300D02*
X0060000Y0159300D01*
X0070000Y0159300D02*
X0070000Y0153300D01*
X0080000Y0153300D02*
X0080000Y0159300D01*
X0080000Y0114300D02*
X0080000Y0108300D01*
X0070000Y0108300D02*
X0070000Y0114300D01*
X0060000Y0114300D02*
X0060000Y0108300D01*
X0060000Y0084300D02*
X0060000Y0078300D01*
X0070000Y0078300D02*
X0070000Y0084300D01*
X0080000Y0084300D02*
X0080000Y0078300D01*
X0100000Y0064300D02*
X0100000Y0058300D01*
X0110000Y0058300D02*
X0110000Y0064300D01*
X0120000Y0064300D02*
X0120000Y0058300D01*
X0130000Y0058300D02*
X0130000Y0064300D01*
X0150000Y0078300D02*
X0150000Y0084300D01*
X0160000Y0084300D02*
X0160000Y0078300D01*
X0160000Y0113300D02*
X0160000Y0119300D01*
X0150000Y0119300D02*
X0150000Y0113300D01*
X0145000Y0153300D02*
X0145000Y0159300D01*
X0155000Y0159300D02*
X0155000Y0153300D01*
X0165000Y0153300D02*
X0165000Y0159300D01*
X0165000Y0188300D02*
X0165000Y0194300D01*
X0155000Y0194300D02*
X0155000Y0188300D01*
X0145000Y0188300D02*
X0145000Y0194300D01*
X0145000Y0223300D02*
X0145000Y0229300D01*
X0155000Y0229300D02*
X0155000Y0223300D01*
X0165000Y0223300D02*
X0165000Y0229300D01*
X0202000Y0236300D02*
X0208000Y0236300D01*
X0208000Y0246300D02*
X0202000Y0246300D01*
X0202000Y0256300D02*
X0208000Y0256300D01*
X0208000Y0266300D02*
X0202000Y0266300D01*
X0202000Y0276300D02*
X0208000Y0276300D01*
X0208000Y0286300D02*
X0202000Y0286300D01*
X0202000Y0296300D02*
X0208000Y0296300D01*
X0208000Y0306300D02*
X0202000Y0306300D01*
X0180000Y0323300D02*
X0180000Y0329300D01*
X0170000Y0329300D02*
X0170000Y0323300D01*
X0170000Y0353300D02*
X0170000Y0359300D01*
X0180000Y0359300D02*
X0180000Y0353300D01*
X0202000Y0221300D02*
X0208000Y0221300D01*
X0208000Y0211300D02*
X0202000Y0211300D01*
X0202000Y0201300D02*
X0208000Y0201300D01*
X0208000Y0191300D02*
X0202000Y0191300D01*
X0202000Y0181300D02*
X0208000Y0181300D01*
X0208000Y0171300D02*
X0202000Y0171300D01*
X0202000Y0161300D02*
X0208000Y0161300D01*
X0208000Y0151300D02*
X0202000Y0151300D01*
X0202000Y0131300D02*
X0208000Y0131300D01*
X0208000Y0121300D02*
X0202000Y0121300D01*
X0202000Y0111300D02*
X0208000Y0111300D01*
X0208000Y0101300D02*
X0202000Y0101300D01*
X0202000Y0091300D02*
X0208000Y0091300D01*
X0208000Y0081300D02*
X0202000Y0081300D01*
X0202000Y0071300D02*
X0208000Y0071300D01*
X0208000Y0061300D02*
X0202000Y0061300D01*
X0018000Y0061300D02*
X0012000Y0061300D01*
X0012000Y0071300D02*
X0018000Y0071300D01*
X0018000Y0081300D02*
X0012000Y0081300D01*
X0012000Y0091300D02*
X0018000Y0091300D01*
X0018000Y0101300D02*
X0012000Y0101300D01*
X0012000Y0111300D02*
X0018000Y0111300D01*
X0018000Y0131300D02*
X0012000Y0131300D01*
X0012000Y0141300D02*
X0018000Y0141300D01*
X0018000Y0151300D02*
X0012000Y0151300D01*
X0012000Y0161300D02*
X0018000Y0161300D01*
X0018000Y0171300D02*
X0012000Y0171300D01*
X0012000Y0181300D02*
X0018000Y0181300D01*
X0018000Y0191300D02*
X0012000Y0191300D01*
X0012000Y0201300D02*
X0018000Y0201300D01*
X0018000Y0221300D02*
X0012000Y0221300D01*
X0012000Y0231300D02*
X0018000Y0231300D01*
X0018000Y0241300D02*
X0012000Y0241300D01*
X0012000Y0251300D02*
X0018000Y0251300D01*
X0018000Y0261300D02*
X0012000Y0261300D01*
X0012000Y0271300D02*
X0018000Y0271300D01*
X0018000Y0051300D02*
X0012000Y0051300D01*
X0012000Y0041300D02*
X0018000Y0041300D01*
D14*
X0035000Y0031300D03*
X0035000Y0021300D03*
X0045000Y0021300D03*
X0045000Y0031300D03*
X0055000Y0031300D03*
X0055000Y0021300D03*
X0065000Y0021300D03*
X0065000Y0031300D03*
X0075000Y0031300D03*
X0075000Y0021300D03*
X0085000Y0021300D03*
X0085000Y0031300D03*
X0095000Y0031300D03*
X0095000Y0021300D03*
X0105000Y0021300D03*
X0105000Y0031300D03*
X0115000Y0031300D03*
X0115000Y0021300D03*
X0125000Y0021300D03*
X0125000Y0031300D03*
X0135000Y0031300D03*
X0135000Y0021300D03*
X0145000Y0021300D03*
X0145000Y0031300D03*
X0155000Y0031300D03*
X0155000Y0021300D03*
X0165000Y0021300D03*
X0165000Y0031300D03*
X0175000Y0031300D03*
X0175000Y0021300D03*
X0185000Y0021300D03*
X0185000Y0031300D03*
X0195000Y0031300D03*
X0195000Y0021300D03*
X0205000Y0021300D03*
X0205000Y0031300D03*
X0130000Y0126300D03*
X0130000Y0136300D03*
X0120000Y0136300D03*
X0120000Y0126300D03*
X0110000Y0126300D03*
X0110000Y0136300D03*
X0100000Y0136300D03*
X0100000Y0126300D03*
X0100000Y0176300D03*
X0100000Y0186300D03*
X0110000Y0186300D03*
X0110000Y0176300D03*
X0120000Y0176300D03*
X0120000Y0186300D03*
X0130000Y0186300D03*
X0130000Y0176300D03*
D15*
X0111063Y0109300D02*
X0111065Y0109425D01*
X0111071Y0109550D01*
X0111081Y0109674D01*
X0111095Y0109798D01*
X0111112Y0109922D01*
X0111134Y0110045D01*
X0111160Y0110167D01*
X0111189Y0110289D01*
X0111222Y0110409D01*
X0111260Y0110528D01*
X0111300Y0110647D01*
X0111345Y0110763D01*
X0111393Y0110878D01*
X0111445Y0110992D01*
X0111501Y0111104D01*
X0111560Y0111214D01*
X0111622Y0111322D01*
X0111688Y0111429D01*
X0111757Y0111533D01*
X0111830Y0111634D01*
X0111905Y0111734D01*
X0111984Y0111831D01*
X0112066Y0111925D01*
X0112151Y0112017D01*
X0112238Y0112106D01*
X0112329Y0112192D01*
X0112422Y0112275D01*
X0112518Y0112356D01*
X0112616Y0112433D01*
X0112716Y0112507D01*
X0112819Y0112578D01*
X0112924Y0112645D01*
X0113032Y0112710D01*
X0113141Y0112770D01*
X0113252Y0112828D01*
X0113365Y0112881D01*
X0113479Y0112931D01*
X0113595Y0112978D01*
X0113712Y0113020D01*
X0113831Y0113059D01*
X0113951Y0113095D01*
X0114072Y0113126D01*
X0114194Y0113154D01*
X0114316Y0113177D01*
X0114440Y0113197D01*
X0114564Y0113213D01*
X0114688Y0113225D01*
X0114813Y0113233D01*
X0114938Y0113237D01*
X0115062Y0113237D01*
X0115187Y0113233D01*
X0115312Y0113225D01*
X0115436Y0113213D01*
X0115560Y0113197D01*
X0115684Y0113177D01*
X0115806Y0113154D01*
X0115928Y0113126D01*
X0116049Y0113095D01*
X0116169Y0113059D01*
X0116288Y0113020D01*
X0116405Y0112978D01*
X0116521Y0112931D01*
X0116635Y0112881D01*
X0116748Y0112828D01*
X0116859Y0112770D01*
X0116969Y0112710D01*
X0117076Y0112645D01*
X0117181Y0112578D01*
X0117284Y0112507D01*
X0117384Y0112433D01*
X0117482Y0112356D01*
X0117578Y0112275D01*
X0117671Y0112192D01*
X0117762Y0112106D01*
X0117849Y0112017D01*
X0117934Y0111925D01*
X0118016Y0111831D01*
X0118095Y0111734D01*
X0118170Y0111634D01*
X0118243Y0111533D01*
X0118312Y0111429D01*
X0118378Y0111322D01*
X0118440Y0111214D01*
X0118499Y0111104D01*
X0118555Y0110992D01*
X0118607Y0110878D01*
X0118655Y0110763D01*
X0118700Y0110647D01*
X0118740Y0110528D01*
X0118778Y0110409D01*
X0118811Y0110289D01*
X0118840Y0110167D01*
X0118866Y0110045D01*
X0118888Y0109922D01*
X0118905Y0109798D01*
X0118919Y0109674D01*
X0118929Y0109550D01*
X0118935Y0109425D01*
X0118937Y0109300D01*
X0118935Y0109175D01*
X0118929Y0109050D01*
X0118919Y0108926D01*
X0118905Y0108802D01*
X0118888Y0108678D01*
X0118866Y0108555D01*
X0118840Y0108433D01*
X0118811Y0108311D01*
X0118778Y0108191D01*
X0118740Y0108072D01*
X0118700Y0107953D01*
X0118655Y0107837D01*
X0118607Y0107722D01*
X0118555Y0107608D01*
X0118499Y0107496D01*
X0118440Y0107386D01*
X0118378Y0107278D01*
X0118312Y0107171D01*
X0118243Y0107067D01*
X0118170Y0106966D01*
X0118095Y0106866D01*
X0118016Y0106769D01*
X0117934Y0106675D01*
X0117849Y0106583D01*
X0117762Y0106494D01*
X0117671Y0106408D01*
X0117578Y0106325D01*
X0117482Y0106244D01*
X0117384Y0106167D01*
X0117284Y0106093D01*
X0117181Y0106022D01*
X0117076Y0105955D01*
X0116968Y0105890D01*
X0116859Y0105830D01*
X0116748Y0105772D01*
X0116635Y0105719D01*
X0116521Y0105669D01*
X0116405Y0105622D01*
X0116288Y0105580D01*
X0116169Y0105541D01*
X0116049Y0105505D01*
X0115928Y0105474D01*
X0115806Y0105446D01*
X0115684Y0105423D01*
X0115560Y0105403D01*
X0115436Y0105387D01*
X0115312Y0105375D01*
X0115187Y0105367D01*
X0115062Y0105363D01*
X0114938Y0105363D01*
X0114813Y0105367D01*
X0114688Y0105375D01*
X0114564Y0105387D01*
X0114440Y0105403D01*
X0114316Y0105423D01*
X0114194Y0105446D01*
X0114072Y0105474D01*
X0113951Y0105505D01*
X0113831Y0105541D01*
X0113712Y0105580D01*
X0113595Y0105622D01*
X0113479Y0105669D01*
X0113365Y0105719D01*
X0113252Y0105772D01*
X0113141Y0105830D01*
X0113031Y0105890D01*
X0112924Y0105955D01*
X0112819Y0106022D01*
X0112716Y0106093D01*
X0112616Y0106167D01*
X0112518Y0106244D01*
X0112422Y0106325D01*
X0112329Y0106408D01*
X0112238Y0106494D01*
X0112151Y0106583D01*
X0112066Y0106675D01*
X0111984Y0106769D01*
X0111905Y0106866D01*
X0111830Y0106966D01*
X0111757Y0107067D01*
X0111688Y0107171D01*
X0111622Y0107278D01*
X0111560Y0107386D01*
X0111501Y0107496D01*
X0111445Y0107608D01*
X0111393Y0107722D01*
X0111345Y0107837D01*
X0111300Y0107953D01*
X0111260Y0108072D01*
X0111222Y0108191D01*
X0111189Y0108311D01*
X0111160Y0108433D01*
X0111134Y0108555D01*
X0111112Y0108678D01*
X0111095Y0108802D01*
X0111081Y0108926D01*
X0111071Y0109050D01*
X0111065Y0109175D01*
X0111063Y0109300D01*
X0198701Y0046300D02*
X0198703Y0046458D01*
X0198709Y0046616D01*
X0198719Y0046774D01*
X0198733Y0046932D01*
X0198751Y0047089D01*
X0198772Y0047246D01*
X0198798Y0047402D01*
X0198828Y0047558D01*
X0198861Y0047713D01*
X0198899Y0047866D01*
X0198940Y0048019D01*
X0198985Y0048171D01*
X0199034Y0048322D01*
X0199087Y0048471D01*
X0199143Y0048619D01*
X0199203Y0048765D01*
X0199267Y0048910D01*
X0199335Y0049053D01*
X0199406Y0049195D01*
X0199480Y0049335D01*
X0199558Y0049472D01*
X0199640Y0049608D01*
X0199724Y0049742D01*
X0199813Y0049873D01*
X0199904Y0050002D01*
X0199999Y0050129D01*
X0200096Y0050254D01*
X0200197Y0050376D01*
X0200301Y0050495D01*
X0200408Y0050612D01*
X0200518Y0050726D01*
X0200631Y0050837D01*
X0200746Y0050946D01*
X0200864Y0051051D01*
X0200985Y0051153D01*
X0201108Y0051253D01*
X0201234Y0051349D01*
X0201362Y0051442D01*
X0201492Y0051532D01*
X0201625Y0051618D01*
X0201760Y0051702D01*
X0201896Y0051781D01*
X0202035Y0051858D01*
X0202176Y0051930D01*
X0202318Y0052000D01*
X0202462Y0052065D01*
X0202608Y0052127D01*
X0202755Y0052185D01*
X0202904Y0052240D01*
X0203054Y0052291D01*
X0203205Y0052338D01*
X0203357Y0052381D01*
X0203510Y0052420D01*
X0203665Y0052456D01*
X0203820Y0052487D01*
X0203976Y0052515D01*
X0204132Y0052539D01*
X0204289Y0052559D01*
X0204447Y0052575D01*
X0204604Y0052587D01*
X0204763Y0052595D01*
X0204921Y0052599D01*
X0205079Y0052599D01*
X0205237Y0052595D01*
X0205396Y0052587D01*
X0205553Y0052575D01*
X0205711Y0052559D01*
X0205868Y0052539D01*
X0206024Y0052515D01*
X0206180Y0052487D01*
X0206335Y0052456D01*
X0206490Y0052420D01*
X0206643Y0052381D01*
X0206795Y0052338D01*
X0206946Y0052291D01*
X0207096Y0052240D01*
X0207245Y0052185D01*
X0207392Y0052127D01*
X0207538Y0052065D01*
X0207682Y0052000D01*
X0207824Y0051930D01*
X0207965Y0051858D01*
X0208104Y0051781D01*
X0208240Y0051702D01*
X0208375Y0051618D01*
X0208508Y0051532D01*
X0208638Y0051442D01*
X0208766Y0051349D01*
X0208892Y0051253D01*
X0209015Y0051153D01*
X0209136Y0051051D01*
X0209254Y0050946D01*
X0209369Y0050837D01*
X0209482Y0050726D01*
X0209592Y0050612D01*
X0209699Y0050495D01*
X0209803Y0050376D01*
X0209904Y0050254D01*
X0210001Y0050129D01*
X0210096Y0050002D01*
X0210187Y0049873D01*
X0210276Y0049742D01*
X0210360Y0049608D01*
X0210442Y0049472D01*
X0210520Y0049335D01*
X0210594Y0049195D01*
X0210665Y0049053D01*
X0210733Y0048910D01*
X0210797Y0048765D01*
X0210857Y0048619D01*
X0210913Y0048471D01*
X0210966Y0048322D01*
X0211015Y0048171D01*
X0211060Y0048019D01*
X0211101Y0047866D01*
X0211139Y0047713D01*
X0211172Y0047558D01*
X0211202Y0047402D01*
X0211228Y0047246D01*
X0211249Y0047089D01*
X0211267Y0046932D01*
X0211281Y0046774D01*
X0211291Y0046616D01*
X0211297Y0046458D01*
X0211299Y0046300D01*
X0211297Y0046142D01*
X0211291Y0045984D01*
X0211281Y0045826D01*
X0211267Y0045668D01*
X0211249Y0045511D01*
X0211228Y0045354D01*
X0211202Y0045198D01*
X0211172Y0045042D01*
X0211139Y0044887D01*
X0211101Y0044734D01*
X0211060Y0044581D01*
X0211015Y0044429D01*
X0210966Y0044278D01*
X0210913Y0044129D01*
X0210857Y0043981D01*
X0210797Y0043835D01*
X0210733Y0043690D01*
X0210665Y0043547D01*
X0210594Y0043405D01*
X0210520Y0043265D01*
X0210442Y0043128D01*
X0210360Y0042992D01*
X0210276Y0042858D01*
X0210187Y0042727D01*
X0210096Y0042598D01*
X0210001Y0042471D01*
X0209904Y0042346D01*
X0209803Y0042224D01*
X0209699Y0042105D01*
X0209592Y0041988D01*
X0209482Y0041874D01*
X0209369Y0041763D01*
X0209254Y0041654D01*
X0209136Y0041549D01*
X0209015Y0041447D01*
X0208892Y0041347D01*
X0208766Y0041251D01*
X0208638Y0041158D01*
X0208508Y0041068D01*
X0208375Y0040982D01*
X0208240Y0040898D01*
X0208104Y0040819D01*
X0207965Y0040742D01*
X0207824Y0040670D01*
X0207682Y0040600D01*
X0207538Y0040535D01*
X0207392Y0040473D01*
X0207245Y0040415D01*
X0207096Y0040360D01*
X0206946Y0040309D01*
X0206795Y0040262D01*
X0206643Y0040219D01*
X0206490Y0040180D01*
X0206335Y0040144D01*
X0206180Y0040113D01*
X0206024Y0040085D01*
X0205868Y0040061D01*
X0205711Y0040041D01*
X0205553Y0040025D01*
X0205396Y0040013D01*
X0205237Y0040005D01*
X0205079Y0040001D01*
X0204921Y0040001D01*
X0204763Y0040005D01*
X0204604Y0040013D01*
X0204447Y0040025D01*
X0204289Y0040041D01*
X0204132Y0040061D01*
X0203976Y0040085D01*
X0203820Y0040113D01*
X0203665Y0040144D01*
X0203510Y0040180D01*
X0203357Y0040219D01*
X0203205Y0040262D01*
X0203054Y0040309D01*
X0202904Y0040360D01*
X0202755Y0040415D01*
X0202608Y0040473D01*
X0202462Y0040535D01*
X0202318Y0040600D01*
X0202176Y0040670D01*
X0202035Y0040742D01*
X0201896Y0040819D01*
X0201760Y0040898D01*
X0201625Y0040982D01*
X0201492Y0041068D01*
X0201362Y0041158D01*
X0201234Y0041251D01*
X0201108Y0041347D01*
X0200985Y0041447D01*
X0200864Y0041549D01*
X0200746Y0041654D01*
X0200631Y0041763D01*
X0200518Y0041874D01*
X0200408Y0041988D01*
X0200301Y0042105D01*
X0200197Y0042224D01*
X0200096Y0042346D01*
X0199999Y0042471D01*
X0199904Y0042598D01*
X0199813Y0042727D01*
X0199724Y0042858D01*
X0199640Y0042992D01*
X0199558Y0043128D01*
X0199480Y0043265D01*
X0199406Y0043405D01*
X0199335Y0043547D01*
X0199267Y0043690D01*
X0199203Y0043835D01*
X0199143Y0043981D01*
X0199087Y0044129D01*
X0199034Y0044278D01*
X0198985Y0044429D01*
X0198940Y0044581D01*
X0198899Y0044734D01*
X0198861Y0044887D01*
X0198828Y0045042D01*
X0198798Y0045198D01*
X0198772Y0045354D01*
X0198751Y0045511D01*
X0198733Y0045668D01*
X0198719Y0045826D01*
X0198709Y0045984D01*
X0198703Y0046142D01*
X0198701Y0046300D01*
X0198701Y0341300D02*
X0198703Y0341458D01*
X0198709Y0341616D01*
X0198719Y0341774D01*
X0198733Y0341932D01*
X0198751Y0342089D01*
X0198772Y0342246D01*
X0198798Y0342402D01*
X0198828Y0342558D01*
X0198861Y0342713D01*
X0198899Y0342866D01*
X0198940Y0343019D01*
X0198985Y0343171D01*
X0199034Y0343322D01*
X0199087Y0343471D01*
X0199143Y0343619D01*
X0199203Y0343765D01*
X0199267Y0343910D01*
X0199335Y0344053D01*
X0199406Y0344195D01*
X0199480Y0344335D01*
X0199558Y0344472D01*
X0199640Y0344608D01*
X0199724Y0344742D01*
X0199813Y0344873D01*
X0199904Y0345002D01*
X0199999Y0345129D01*
X0200096Y0345254D01*
X0200197Y0345376D01*
X0200301Y0345495D01*
X0200408Y0345612D01*
X0200518Y0345726D01*
X0200631Y0345837D01*
X0200746Y0345946D01*
X0200864Y0346051D01*
X0200985Y0346153D01*
X0201108Y0346253D01*
X0201234Y0346349D01*
X0201362Y0346442D01*
X0201492Y0346532D01*
X0201625Y0346618D01*
X0201760Y0346702D01*
X0201896Y0346781D01*
X0202035Y0346858D01*
X0202176Y0346930D01*
X0202318Y0347000D01*
X0202462Y0347065D01*
X0202608Y0347127D01*
X0202755Y0347185D01*
X0202904Y0347240D01*
X0203054Y0347291D01*
X0203205Y0347338D01*
X0203357Y0347381D01*
X0203510Y0347420D01*
X0203665Y0347456D01*
X0203820Y0347487D01*
X0203976Y0347515D01*
X0204132Y0347539D01*
X0204289Y0347559D01*
X0204447Y0347575D01*
X0204604Y0347587D01*
X0204763Y0347595D01*
X0204921Y0347599D01*
X0205079Y0347599D01*
X0205237Y0347595D01*
X0205396Y0347587D01*
X0205553Y0347575D01*
X0205711Y0347559D01*
X0205868Y0347539D01*
X0206024Y0347515D01*
X0206180Y0347487D01*
X0206335Y0347456D01*
X0206490Y0347420D01*
X0206643Y0347381D01*
X0206795Y0347338D01*
X0206946Y0347291D01*
X0207096Y0347240D01*
X0207245Y0347185D01*
X0207392Y0347127D01*
X0207538Y0347065D01*
X0207682Y0347000D01*
X0207824Y0346930D01*
X0207965Y0346858D01*
X0208104Y0346781D01*
X0208240Y0346702D01*
X0208375Y0346618D01*
X0208508Y0346532D01*
X0208638Y0346442D01*
X0208766Y0346349D01*
X0208892Y0346253D01*
X0209015Y0346153D01*
X0209136Y0346051D01*
X0209254Y0345946D01*
X0209369Y0345837D01*
X0209482Y0345726D01*
X0209592Y0345612D01*
X0209699Y0345495D01*
X0209803Y0345376D01*
X0209904Y0345254D01*
X0210001Y0345129D01*
X0210096Y0345002D01*
X0210187Y0344873D01*
X0210276Y0344742D01*
X0210360Y0344608D01*
X0210442Y0344472D01*
X0210520Y0344335D01*
X0210594Y0344195D01*
X0210665Y0344053D01*
X0210733Y0343910D01*
X0210797Y0343765D01*
X0210857Y0343619D01*
X0210913Y0343471D01*
X0210966Y0343322D01*
X0211015Y0343171D01*
X0211060Y0343019D01*
X0211101Y0342866D01*
X0211139Y0342713D01*
X0211172Y0342558D01*
X0211202Y0342402D01*
X0211228Y0342246D01*
X0211249Y0342089D01*
X0211267Y0341932D01*
X0211281Y0341774D01*
X0211291Y0341616D01*
X0211297Y0341458D01*
X0211299Y0341300D01*
X0211297Y0341142D01*
X0211291Y0340984D01*
X0211281Y0340826D01*
X0211267Y0340668D01*
X0211249Y0340511D01*
X0211228Y0340354D01*
X0211202Y0340198D01*
X0211172Y0340042D01*
X0211139Y0339887D01*
X0211101Y0339734D01*
X0211060Y0339581D01*
X0211015Y0339429D01*
X0210966Y0339278D01*
X0210913Y0339129D01*
X0210857Y0338981D01*
X0210797Y0338835D01*
X0210733Y0338690D01*
X0210665Y0338547D01*
X0210594Y0338405D01*
X0210520Y0338265D01*
X0210442Y0338128D01*
X0210360Y0337992D01*
X0210276Y0337858D01*
X0210187Y0337727D01*
X0210096Y0337598D01*
X0210001Y0337471D01*
X0209904Y0337346D01*
X0209803Y0337224D01*
X0209699Y0337105D01*
X0209592Y0336988D01*
X0209482Y0336874D01*
X0209369Y0336763D01*
X0209254Y0336654D01*
X0209136Y0336549D01*
X0209015Y0336447D01*
X0208892Y0336347D01*
X0208766Y0336251D01*
X0208638Y0336158D01*
X0208508Y0336068D01*
X0208375Y0335982D01*
X0208240Y0335898D01*
X0208104Y0335819D01*
X0207965Y0335742D01*
X0207824Y0335670D01*
X0207682Y0335600D01*
X0207538Y0335535D01*
X0207392Y0335473D01*
X0207245Y0335415D01*
X0207096Y0335360D01*
X0206946Y0335309D01*
X0206795Y0335262D01*
X0206643Y0335219D01*
X0206490Y0335180D01*
X0206335Y0335144D01*
X0206180Y0335113D01*
X0206024Y0335085D01*
X0205868Y0335061D01*
X0205711Y0335041D01*
X0205553Y0335025D01*
X0205396Y0335013D01*
X0205237Y0335005D01*
X0205079Y0335001D01*
X0204921Y0335001D01*
X0204763Y0335005D01*
X0204604Y0335013D01*
X0204447Y0335025D01*
X0204289Y0335041D01*
X0204132Y0335061D01*
X0203976Y0335085D01*
X0203820Y0335113D01*
X0203665Y0335144D01*
X0203510Y0335180D01*
X0203357Y0335219D01*
X0203205Y0335262D01*
X0203054Y0335309D01*
X0202904Y0335360D01*
X0202755Y0335415D01*
X0202608Y0335473D01*
X0202462Y0335535D01*
X0202318Y0335600D01*
X0202176Y0335670D01*
X0202035Y0335742D01*
X0201896Y0335819D01*
X0201760Y0335898D01*
X0201625Y0335982D01*
X0201492Y0336068D01*
X0201362Y0336158D01*
X0201234Y0336251D01*
X0201108Y0336347D01*
X0200985Y0336447D01*
X0200864Y0336549D01*
X0200746Y0336654D01*
X0200631Y0336763D01*
X0200518Y0336874D01*
X0200408Y0336988D01*
X0200301Y0337105D01*
X0200197Y0337224D01*
X0200096Y0337346D01*
X0199999Y0337471D01*
X0199904Y0337598D01*
X0199813Y0337727D01*
X0199724Y0337858D01*
X0199640Y0337992D01*
X0199558Y0338128D01*
X0199480Y0338265D01*
X0199406Y0338405D01*
X0199335Y0338547D01*
X0199267Y0338690D01*
X0199203Y0338835D01*
X0199143Y0338981D01*
X0199087Y0339129D01*
X0199034Y0339278D01*
X0198985Y0339429D01*
X0198940Y0339581D01*
X0198899Y0339734D01*
X0198861Y0339887D01*
X0198828Y0340042D01*
X0198798Y0340198D01*
X0198772Y0340354D01*
X0198751Y0340511D01*
X0198733Y0340668D01*
X0198719Y0340826D01*
X0198709Y0340984D01*
X0198703Y0341142D01*
X0198701Y0341300D01*
X0008701Y0341300D02*
X0008703Y0341458D01*
X0008709Y0341616D01*
X0008719Y0341774D01*
X0008733Y0341932D01*
X0008751Y0342089D01*
X0008772Y0342246D01*
X0008798Y0342402D01*
X0008828Y0342558D01*
X0008861Y0342713D01*
X0008899Y0342866D01*
X0008940Y0343019D01*
X0008985Y0343171D01*
X0009034Y0343322D01*
X0009087Y0343471D01*
X0009143Y0343619D01*
X0009203Y0343765D01*
X0009267Y0343910D01*
X0009335Y0344053D01*
X0009406Y0344195D01*
X0009480Y0344335D01*
X0009558Y0344472D01*
X0009640Y0344608D01*
X0009724Y0344742D01*
X0009813Y0344873D01*
X0009904Y0345002D01*
X0009999Y0345129D01*
X0010096Y0345254D01*
X0010197Y0345376D01*
X0010301Y0345495D01*
X0010408Y0345612D01*
X0010518Y0345726D01*
X0010631Y0345837D01*
X0010746Y0345946D01*
X0010864Y0346051D01*
X0010985Y0346153D01*
X0011108Y0346253D01*
X0011234Y0346349D01*
X0011362Y0346442D01*
X0011492Y0346532D01*
X0011625Y0346618D01*
X0011760Y0346702D01*
X0011896Y0346781D01*
X0012035Y0346858D01*
X0012176Y0346930D01*
X0012318Y0347000D01*
X0012462Y0347065D01*
X0012608Y0347127D01*
X0012755Y0347185D01*
X0012904Y0347240D01*
X0013054Y0347291D01*
X0013205Y0347338D01*
X0013357Y0347381D01*
X0013510Y0347420D01*
X0013665Y0347456D01*
X0013820Y0347487D01*
X0013976Y0347515D01*
X0014132Y0347539D01*
X0014289Y0347559D01*
X0014447Y0347575D01*
X0014604Y0347587D01*
X0014763Y0347595D01*
X0014921Y0347599D01*
X0015079Y0347599D01*
X0015237Y0347595D01*
X0015396Y0347587D01*
X0015553Y0347575D01*
X0015711Y0347559D01*
X0015868Y0347539D01*
X0016024Y0347515D01*
X0016180Y0347487D01*
X0016335Y0347456D01*
X0016490Y0347420D01*
X0016643Y0347381D01*
X0016795Y0347338D01*
X0016946Y0347291D01*
X0017096Y0347240D01*
X0017245Y0347185D01*
X0017392Y0347127D01*
X0017538Y0347065D01*
X0017682Y0347000D01*
X0017824Y0346930D01*
X0017965Y0346858D01*
X0018104Y0346781D01*
X0018240Y0346702D01*
X0018375Y0346618D01*
X0018508Y0346532D01*
X0018638Y0346442D01*
X0018766Y0346349D01*
X0018892Y0346253D01*
X0019015Y0346153D01*
X0019136Y0346051D01*
X0019254Y0345946D01*
X0019369Y0345837D01*
X0019482Y0345726D01*
X0019592Y0345612D01*
X0019699Y0345495D01*
X0019803Y0345376D01*
X0019904Y0345254D01*
X0020001Y0345129D01*
X0020096Y0345002D01*
X0020187Y0344873D01*
X0020276Y0344742D01*
X0020360Y0344608D01*
X0020442Y0344472D01*
X0020520Y0344335D01*
X0020594Y0344195D01*
X0020665Y0344053D01*
X0020733Y0343910D01*
X0020797Y0343765D01*
X0020857Y0343619D01*
X0020913Y0343471D01*
X0020966Y0343322D01*
X0021015Y0343171D01*
X0021060Y0343019D01*
X0021101Y0342866D01*
X0021139Y0342713D01*
X0021172Y0342558D01*
X0021202Y0342402D01*
X0021228Y0342246D01*
X0021249Y0342089D01*
X0021267Y0341932D01*
X0021281Y0341774D01*
X0021291Y0341616D01*
X0021297Y0341458D01*
X0021299Y0341300D01*
X0021297Y0341142D01*
X0021291Y0340984D01*
X0021281Y0340826D01*
X0021267Y0340668D01*
X0021249Y0340511D01*
X0021228Y0340354D01*
X0021202Y0340198D01*
X0021172Y0340042D01*
X0021139Y0339887D01*
X0021101Y0339734D01*
X0021060Y0339581D01*
X0021015Y0339429D01*
X0020966Y0339278D01*
X0020913Y0339129D01*
X0020857Y0338981D01*
X0020797Y0338835D01*
X0020733Y0338690D01*
X0020665Y0338547D01*
X0020594Y0338405D01*
X0020520Y0338265D01*
X0020442Y0338128D01*
X0020360Y0337992D01*
X0020276Y0337858D01*
X0020187Y0337727D01*
X0020096Y0337598D01*
X0020001Y0337471D01*
X0019904Y0337346D01*
X0019803Y0337224D01*
X0019699Y0337105D01*
X0019592Y0336988D01*
X0019482Y0336874D01*
X0019369Y0336763D01*
X0019254Y0336654D01*
X0019136Y0336549D01*
X0019015Y0336447D01*
X0018892Y0336347D01*
X0018766Y0336251D01*
X0018638Y0336158D01*
X0018508Y0336068D01*
X0018375Y0335982D01*
X0018240Y0335898D01*
X0018104Y0335819D01*
X0017965Y0335742D01*
X0017824Y0335670D01*
X0017682Y0335600D01*
X0017538Y0335535D01*
X0017392Y0335473D01*
X0017245Y0335415D01*
X0017096Y0335360D01*
X0016946Y0335309D01*
X0016795Y0335262D01*
X0016643Y0335219D01*
X0016490Y0335180D01*
X0016335Y0335144D01*
X0016180Y0335113D01*
X0016024Y0335085D01*
X0015868Y0335061D01*
X0015711Y0335041D01*
X0015553Y0335025D01*
X0015396Y0335013D01*
X0015237Y0335005D01*
X0015079Y0335001D01*
X0014921Y0335001D01*
X0014763Y0335005D01*
X0014604Y0335013D01*
X0014447Y0335025D01*
X0014289Y0335041D01*
X0014132Y0335061D01*
X0013976Y0335085D01*
X0013820Y0335113D01*
X0013665Y0335144D01*
X0013510Y0335180D01*
X0013357Y0335219D01*
X0013205Y0335262D01*
X0013054Y0335309D01*
X0012904Y0335360D01*
X0012755Y0335415D01*
X0012608Y0335473D01*
X0012462Y0335535D01*
X0012318Y0335600D01*
X0012176Y0335670D01*
X0012035Y0335742D01*
X0011896Y0335819D01*
X0011760Y0335898D01*
X0011625Y0335982D01*
X0011492Y0336068D01*
X0011362Y0336158D01*
X0011234Y0336251D01*
X0011108Y0336347D01*
X0010985Y0336447D01*
X0010864Y0336549D01*
X0010746Y0336654D01*
X0010631Y0336763D01*
X0010518Y0336874D01*
X0010408Y0336988D01*
X0010301Y0337105D01*
X0010197Y0337224D01*
X0010096Y0337346D01*
X0009999Y0337471D01*
X0009904Y0337598D01*
X0009813Y0337727D01*
X0009724Y0337858D01*
X0009640Y0337992D01*
X0009558Y0338128D01*
X0009480Y0338265D01*
X0009406Y0338405D01*
X0009335Y0338547D01*
X0009267Y0338690D01*
X0009203Y0338835D01*
X0009143Y0338981D01*
X0009087Y0339129D01*
X0009034Y0339278D01*
X0008985Y0339429D01*
X0008940Y0339581D01*
X0008899Y0339734D01*
X0008861Y0339887D01*
X0008828Y0340042D01*
X0008798Y0340198D01*
X0008772Y0340354D01*
X0008751Y0340511D01*
X0008733Y0340668D01*
X0008719Y0340826D01*
X0008709Y0340984D01*
X0008703Y0341142D01*
X0008701Y0341300D01*
X0008701Y0021300D02*
X0008703Y0021458D01*
X0008709Y0021616D01*
X0008719Y0021774D01*
X0008733Y0021932D01*
X0008751Y0022089D01*
X0008772Y0022246D01*
X0008798Y0022402D01*
X0008828Y0022558D01*
X0008861Y0022713D01*
X0008899Y0022866D01*
X0008940Y0023019D01*
X0008985Y0023171D01*
X0009034Y0023322D01*
X0009087Y0023471D01*
X0009143Y0023619D01*
X0009203Y0023765D01*
X0009267Y0023910D01*
X0009335Y0024053D01*
X0009406Y0024195D01*
X0009480Y0024335D01*
X0009558Y0024472D01*
X0009640Y0024608D01*
X0009724Y0024742D01*
X0009813Y0024873D01*
X0009904Y0025002D01*
X0009999Y0025129D01*
X0010096Y0025254D01*
X0010197Y0025376D01*
X0010301Y0025495D01*
X0010408Y0025612D01*
X0010518Y0025726D01*
X0010631Y0025837D01*
X0010746Y0025946D01*
X0010864Y0026051D01*
X0010985Y0026153D01*
X0011108Y0026253D01*
X0011234Y0026349D01*
X0011362Y0026442D01*
X0011492Y0026532D01*
X0011625Y0026618D01*
X0011760Y0026702D01*
X0011896Y0026781D01*
X0012035Y0026858D01*
X0012176Y0026930D01*
X0012318Y0027000D01*
X0012462Y0027065D01*
X0012608Y0027127D01*
X0012755Y0027185D01*
X0012904Y0027240D01*
X0013054Y0027291D01*
X0013205Y0027338D01*
X0013357Y0027381D01*
X0013510Y0027420D01*
X0013665Y0027456D01*
X0013820Y0027487D01*
X0013976Y0027515D01*
X0014132Y0027539D01*
X0014289Y0027559D01*
X0014447Y0027575D01*
X0014604Y0027587D01*
X0014763Y0027595D01*
X0014921Y0027599D01*
X0015079Y0027599D01*
X0015237Y0027595D01*
X0015396Y0027587D01*
X0015553Y0027575D01*
X0015711Y0027559D01*
X0015868Y0027539D01*
X0016024Y0027515D01*
X0016180Y0027487D01*
X0016335Y0027456D01*
X0016490Y0027420D01*
X0016643Y0027381D01*
X0016795Y0027338D01*
X0016946Y0027291D01*
X0017096Y0027240D01*
X0017245Y0027185D01*
X0017392Y0027127D01*
X0017538Y0027065D01*
X0017682Y0027000D01*
X0017824Y0026930D01*
X0017965Y0026858D01*
X0018104Y0026781D01*
X0018240Y0026702D01*
X0018375Y0026618D01*
X0018508Y0026532D01*
X0018638Y0026442D01*
X0018766Y0026349D01*
X0018892Y0026253D01*
X0019015Y0026153D01*
X0019136Y0026051D01*
X0019254Y0025946D01*
X0019369Y0025837D01*
X0019482Y0025726D01*
X0019592Y0025612D01*
X0019699Y0025495D01*
X0019803Y0025376D01*
X0019904Y0025254D01*
X0020001Y0025129D01*
X0020096Y0025002D01*
X0020187Y0024873D01*
X0020276Y0024742D01*
X0020360Y0024608D01*
X0020442Y0024472D01*
X0020520Y0024335D01*
X0020594Y0024195D01*
X0020665Y0024053D01*
X0020733Y0023910D01*
X0020797Y0023765D01*
X0020857Y0023619D01*
X0020913Y0023471D01*
X0020966Y0023322D01*
X0021015Y0023171D01*
X0021060Y0023019D01*
X0021101Y0022866D01*
X0021139Y0022713D01*
X0021172Y0022558D01*
X0021202Y0022402D01*
X0021228Y0022246D01*
X0021249Y0022089D01*
X0021267Y0021932D01*
X0021281Y0021774D01*
X0021291Y0021616D01*
X0021297Y0021458D01*
X0021299Y0021300D01*
X0021297Y0021142D01*
X0021291Y0020984D01*
X0021281Y0020826D01*
X0021267Y0020668D01*
X0021249Y0020511D01*
X0021228Y0020354D01*
X0021202Y0020198D01*
X0021172Y0020042D01*
X0021139Y0019887D01*
X0021101Y0019734D01*
X0021060Y0019581D01*
X0021015Y0019429D01*
X0020966Y0019278D01*
X0020913Y0019129D01*
X0020857Y0018981D01*
X0020797Y0018835D01*
X0020733Y0018690D01*
X0020665Y0018547D01*
X0020594Y0018405D01*
X0020520Y0018265D01*
X0020442Y0018128D01*
X0020360Y0017992D01*
X0020276Y0017858D01*
X0020187Y0017727D01*
X0020096Y0017598D01*
X0020001Y0017471D01*
X0019904Y0017346D01*
X0019803Y0017224D01*
X0019699Y0017105D01*
X0019592Y0016988D01*
X0019482Y0016874D01*
X0019369Y0016763D01*
X0019254Y0016654D01*
X0019136Y0016549D01*
X0019015Y0016447D01*
X0018892Y0016347D01*
X0018766Y0016251D01*
X0018638Y0016158D01*
X0018508Y0016068D01*
X0018375Y0015982D01*
X0018240Y0015898D01*
X0018104Y0015819D01*
X0017965Y0015742D01*
X0017824Y0015670D01*
X0017682Y0015600D01*
X0017538Y0015535D01*
X0017392Y0015473D01*
X0017245Y0015415D01*
X0017096Y0015360D01*
X0016946Y0015309D01*
X0016795Y0015262D01*
X0016643Y0015219D01*
X0016490Y0015180D01*
X0016335Y0015144D01*
X0016180Y0015113D01*
X0016024Y0015085D01*
X0015868Y0015061D01*
X0015711Y0015041D01*
X0015553Y0015025D01*
X0015396Y0015013D01*
X0015237Y0015005D01*
X0015079Y0015001D01*
X0014921Y0015001D01*
X0014763Y0015005D01*
X0014604Y0015013D01*
X0014447Y0015025D01*
X0014289Y0015041D01*
X0014132Y0015061D01*
X0013976Y0015085D01*
X0013820Y0015113D01*
X0013665Y0015144D01*
X0013510Y0015180D01*
X0013357Y0015219D01*
X0013205Y0015262D01*
X0013054Y0015309D01*
X0012904Y0015360D01*
X0012755Y0015415D01*
X0012608Y0015473D01*
X0012462Y0015535D01*
X0012318Y0015600D01*
X0012176Y0015670D01*
X0012035Y0015742D01*
X0011896Y0015819D01*
X0011760Y0015898D01*
X0011625Y0015982D01*
X0011492Y0016068D01*
X0011362Y0016158D01*
X0011234Y0016251D01*
X0011108Y0016347D01*
X0010985Y0016447D01*
X0010864Y0016549D01*
X0010746Y0016654D01*
X0010631Y0016763D01*
X0010518Y0016874D01*
X0010408Y0016988D01*
X0010301Y0017105D01*
X0010197Y0017224D01*
X0010096Y0017346D01*
X0009999Y0017471D01*
X0009904Y0017598D01*
X0009813Y0017727D01*
X0009724Y0017858D01*
X0009640Y0017992D01*
X0009558Y0018128D01*
X0009480Y0018265D01*
X0009406Y0018405D01*
X0009335Y0018547D01*
X0009267Y0018690D01*
X0009203Y0018835D01*
X0009143Y0018981D01*
X0009087Y0019129D01*
X0009034Y0019278D01*
X0008985Y0019429D01*
X0008940Y0019581D01*
X0008899Y0019734D01*
X0008861Y0019887D01*
X0008828Y0020042D01*
X0008798Y0020198D01*
X0008772Y0020354D01*
X0008751Y0020511D01*
X0008733Y0020668D01*
X0008719Y0020826D01*
X0008709Y0020984D01*
X0008703Y0021142D01*
X0008701Y0021300D01*
D16*
X0050700Y0357402D02*
X0059300Y0357402D01*
X0066811Y0372000D02*
X0066811Y0380600D01*
X0043189Y0380600D02*
X0043189Y0372000D01*
D17*
X0136800Y0166500D03*
X0133200Y0132300D03*
X0156000Y0142500D03*
X0167400Y0148500D03*
X0171000Y0144900D03*
X0184800Y0104100D03*
X0198000Y0095700D03*
X0178200Y0213300D03*
X0192600Y0227700D03*
X0198000Y0218100D03*
X0169800Y0261300D03*
M02*
