%
M48
M72
T01C0.01378
T02C0.03150
T03C0.03200
T04C0.03937
T05C0.04000
T06C0.04724
T07C0.07874
T08C0.12598
%
T01
X133200Y132300
X136800Y166500
X156000Y142500
X167400Y148500
X171000Y144900
X184800Y104100
X198000Y95700
X178200Y213300
X192600Y227700
X198000Y218100
X169800Y261300
T02
X55000Y357402
X43189Y376300
T03
X35000Y341300
X35000Y316300
X50000Y291300
X50000Y266300
X70000Y266300
X80000Y266300
X80000Y291300
X70000Y291300
X55000Y316300
X55000Y341300
X100000Y291300
X100000Y266300
X115000Y266300
X115000Y291300
X135000Y291300
X135000Y266300
X150000Y266300
X150000Y291300
X170000Y291300
X170000Y266300
X130000Y231300
X130000Y206300
X100000Y206300
X100000Y231300
T04
X66811Y376300
T05
X15000Y271300
X15000Y261300
X15000Y251300
X15000Y241300
X15000Y231300
X15000Y221300
X15000Y201300
X15000Y191300
X15000Y181300
X15000Y171300
X15000Y161300
X15000Y151300
X15000Y141300
X15000Y131300
X15000Y111300
X15000Y101300
X15000Y91300
X15000Y81300
X15000Y71300
X15000Y61300
X15000Y51300
X15000Y41300
X35000Y31300
X35000Y21300
X45000Y21300
X45000Y31300
X55000Y31300
X55000Y21300
X65000Y21300
X65000Y31300
X75000Y31300
X75000Y21300
X85000Y21300
X85000Y31300
X95000Y31300
X95000Y21300
X105000Y21300
X105000Y31300
X115000Y31300
X115000Y21300
X125000Y21300
X125000Y31300
X135000Y31300
X135000Y21300
X145000Y21300
X145000Y31300
X155000Y31300
X155000Y21300
X165000Y21300
X165000Y31300
X175000Y31300
X175000Y21300
X185000Y21300
X185000Y31300
X195000Y31300
X195000Y21300
X205000Y21300
X205000Y31300
X205000Y61300
X205000Y71300
X205000Y81300
X205000Y91300
X205000Y101300
X205000Y111300
X205000Y121300
X205000Y131300
X205000Y151300
X205000Y161300
X205000Y171300
X205000Y181300
X205000Y191300
X205000Y201300
X205000Y211300
X205000Y221300
X205000Y236300
X205000Y246300
X205000Y256300
X205000Y266300
X205000Y276300
X205000Y286300
X205000Y296300
X205000Y306300
X180000Y326300
X170000Y326300
X170000Y356300
X180000Y356300
X165000Y226300
X155000Y226300
X145000Y226300
X145000Y191300
X155000Y191300
X165000Y191300
X165000Y156300
X155000Y156300
X145000Y156300
X130000Y136300
X130000Y126300
X120000Y126300
X120000Y136300
X110000Y136300
X110000Y126300
X100000Y126300
X100000Y136300
X80000Y156300
X70000Y156300
X60000Y156300
X50000Y156300
X50000Y186300
X60000Y186300
X70000Y186300
X80000Y186300
X80000Y216300
X70000Y216300
X60000Y216300
X50000Y216300
X50000Y246300
X60000Y246300
X70000Y246300
X80000Y246300
X100000Y186300
X100000Y176300
X110000Y176300
X110000Y186300
X120000Y186300
X120000Y176300
X130000Y176300
X130000Y186300
X150000Y116300
X160000Y116300
X160000Y81300
X150000Y81300
X130000Y61300
X120000Y61300
X110000Y61300
X100000Y61300
X80000Y81300
X70000Y81300
X60000Y81300
X60000Y111300
X70000Y111300
X80000Y111300
T06
X80000Y321300
X90000Y321300
X100000Y321300
X110000Y321300
X120000Y321300
X130000Y321300
X140000Y321300
X150000Y321300
X145000Y341300
X135000Y341300
X125000Y341300
X115000Y341300
X105000Y341300
X95000Y341300
X85000Y341300
T07
X115000Y109300
T08
X15000Y21300
X15000Y341300
X205000Y341300
X205000Y46300
M30
