G75*
%MOIN*%
%OFA0B0*%
%FSLAX25Y25*%
%IPPOS*%
%LPD*%
%AMOC8*
5,1,8,0,0,1.08239X$1,22.5*
%
%ADD10OC8,0.05200*%
%ADD11C,0.07087*%
%ADD12C,0.06000*%
%ADD13OC8,0.06000*%
%ADD14C,0.08600*%
%ADD15C,0.00600*%
%ADD16C,0.02978*%
D10*
X0100000Y0206300D03*
X0100000Y0231300D03*
X0100000Y0266300D03*
X0100000Y0291300D03*
X0115000Y0291300D03*
X0115000Y0266300D03*
X0135000Y0266300D03*
X0135000Y0291300D03*
X0150000Y0291300D03*
X0150000Y0266300D03*
X0170000Y0266300D03*
X0170000Y0291300D03*
X0130000Y0231300D03*
X0130000Y0206300D03*
X0080000Y0266300D03*
X0070000Y0266300D03*
X0070000Y0291300D03*
X0080000Y0291300D03*
X0055000Y0316300D03*
X0050000Y0291300D03*
X0050000Y0266300D03*
X0035000Y0316300D03*
X0035000Y0341300D03*
X0055000Y0341300D03*
D11*
X0080000Y0324843D02*
X0080000Y0317757D01*
X0090000Y0317757D02*
X0090000Y0324843D01*
X0085000Y0337757D02*
X0085000Y0344843D01*
X0095000Y0344843D02*
X0095000Y0337757D01*
X0100000Y0324843D02*
X0100000Y0317757D01*
X0110000Y0317757D02*
X0110000Y0324843D01*
X0105000Y0337757D02*
X0105000Y0344843D01*
X0115000Y0344843D02*
X0115000Y0337757D01*
X0125000Y0337757D02*
X0125000Y0344843D01*
X0135000Y0344843D02*
X0135000Y0337757D01*
X0130000Y0324843D02*
X0130000Y0317757D01*
X0140000Y0317757D02*
X0140000Y0324843D01*
X0145000Y0337757D02*
X0145000Y0344843D01*
X0150000Y0324843D02*
X0150000Y0317757D01*
X0120000Y0317757D02*
X0120000Y0324843D01*
D12*
X0018000Y0041300D02*
X0012000Y0041300D01*
X0012000Y0051300D02*
X0018000Y0051300D01*
X0018000Y0061300D02*
X0012000Y0061300D01*
X0012000Y0071300D02*
X0018000Y0071300D01*
X0018000Y0081300D02*
X0012000Y0081300D01*
X0012000Y0091300D02*
X0018000Y0091300D01*
X0018000Y0101300D02*
X0012000Y0101300D01*
X0012000Y0111300D02*
X0018000Y0111300D01*
X0018000Y0131300D02*
X0012000Y0131300D01*
X0012000Y0141300D02*
X0018000Y0141300D01*
X0018000Y0151300D02*
X0012000Y0151300D01*
X0012000Y0161300D02*
X0018000Y0161300D01*
X0018000Y0171300D02*
X0012000Y0171300D01*
X0012000Y0181300D02*
X0018000Y0181300D01*
X0018000Y0191300D02*
X0012000Y0191300D01*
X0012000Y0201300D02*
X0018000Y0201300D01*
X0018000Y0221300D02*
X0012000Y0221300D01*
X0012000Y0231300D02*
X0018000Y0231300D01*
X0018000Y0241300D02*
X0012000Y0241300D01*
X0012000Y0251300D02*
X0018000Y0251300D01*
X0018000Y0261300D02*
X0012000Y0261300D01*
X0012000Y0271300D02*
X0018000Y0271300D01*
X0050000Y0249300D02*
X0050000Y0243300D01*
X0060000Y0243300D02*
X0060000Y0249300D01*
X0070000Y0249300D02*
X0070000Y0243300D01*
X0080000Y0243300D02*
X0080000Y0249300D01*
X0080000Y0219300D02*
X0080000Y0213300D01*
X0070000Y0213300D02*
X0070000Y0219300D01*
X0060000Y0219300D02*
X0060000Y0213300D01*
X0050000Y0213300D02*
X0050000Y0219300D01*
X0050000Y0189300D02*
X0050000Y0183300D01*
X0060000Y0183300D02*
X0060000Y0189300D01*
X0070000Y0189300D02*
X0070000Y0183300D01*
X0080000Y0183300D02*
X0080000Y0189300D01*
X0080000Y0159300D02*
X0080000Y0153300D01*
X0070000Y0153300D02*
X0070000Y0159300D01*
X0060000Y0159300D02*
X0060000Y0153300D01*
X0050000Y0153300D02*
X0050000Y0159300D01*
X0060000Y0114300D02*
X0060000Y0108300D01*
X0070000Y0108300D02*
X0070000Y0114300D01*
X0080000Y0114300D02*
X0080000Y0108300D01*
X0080000Y0084300D02*
X0080000Y0078300D01*
X0070000Y0078300D02*
X0070000Y0084300D01*
X0060000Y0084300D02*
X0060000Y0078300D01*
X0100000Y0064300D02*
X0100000Y0058300D01*
X0110000Y0058300D02*
X0110000Y0064300D01*
X0120000Y0064300D02*
X0120000Y0058300D01*
X0130000Y0058300D02*
X0130000Y0064300D01*
X0150000Y0078300D02*
X0150000Y0084300D01*
X0160000Y0084300D02*
X0160000Y0078300D01*
X0160000Y0113300D02*
X0160000Y0119300D01*
X0150000Y0119300D02*
X0150000Y0113300D01*
X0145000Y0153300D02*
X0145000Y0159300D01*
X0155000Y0159300D02*
X0155000Y0153300D01*
X0165000Y0153300D02*
X0165000Y0159300D01*
X0165000Y0188300D02*
X0165000Y0194300D01*
X0155000Y0194300D02*
X0155000Y0188300D01*
X0145000Y0188300D02*
X0145000Y0194300D01*
X0145000Y0223300D02*
X0145000Y0229300D01*
X0155000Y0229300D02*
X0155000Y0223300D01*
X0165000Y0223300D02*
X0165000Y0229300D01*
X0202000Y0236300D02*
X0208000Y0236300D01*
X0208000Y0246300D02*
X0202000Y0246300D01*
X0202000Y0256300D02*
X0208000Y0256300D01*
X0208000Y0266300D02*
X0202000Y0266300D01*
X0202000Y0276300D02*
X0208000Y0276300D01*
X0208000Y0286300D02*
X0202000Y0286300D01*
X0202000Y0296300D02*
X0208000Y0296300D01*
X0208000Y0306300D02*
X0202000Y0306300D01*
X0180000Y0323300D02*
X0180000Y0329300D01*
X0170000Y0329300D02*
X0170000Y0323300D01*
X0170000Y0353300D02*
X0170000Y0359300D01*
X0180000Y0359300D02*
X0180000Y0353300D01*
X0202000Y0221300D02*
X0208000Y0221300D01*
X0208000Y0211300D02*
X0202000Y0211300D01*
X0202000Y0201300D02*
X0208000Y0201300D01*
X0208000Y0191300D02*
X0202000Y0191300D01*
X0202000Y0181300D02*
X0208000Y0181300D01*
X0208000Y0171300D02*
X0202000Y0171300D01*
X0202000Y0161300D02*
X0208000Y0161300D01*
X0208000Y0151300D02*
X0202000Y0151300D01*
X0202000Y0131300D02*
X0208000Y0131300D01*
X0208000Y0121300D02*
X0202000Y0121300D01*
X0202000Y0111300D02*
X0208000Y0111300D01*
X0208000Y0101300D02*
X0202000Y0101300D01*
X0202000Y0091300D02*
X0208000Y0091300D01*
X0208000Y0081300D02*
X0202000Y0081300D01*
X0202000Y0071300D02*
X0208000Y0071300D01*
X0208000Y0061300D02*
X0202000Y0061300D01*
D13*
X0205000Y0031300D03*
X0205000Y0021300D03*
X0195000Y0021300D03*
X0195000Y0031300D03*
X0185000Y0031300D03*
X0185000Y0021300D03*
X0175000Y0021300D03*
X0175000Y0031300D03*
X0165000Y0031300D03*
X0165000Y0021300D03*
X0155000Y0021300D03*
X0155000Y0031300D03*
X0145000Y0031300D03*
X0145000Y0021300D03*
X0135000Y0021300D03*
X0135000Y0031300D03*
X0125000Y0031300D03*
X0125000Y0021300D03*
X0115000Y0021300D03*
X0115000Y0031300D03*
X0105000Y0031300D03*
X0105000Y0021300D03*
X0095000Y0021300D03*
X0095000Y0031300D03*
X0085000Y0031300D03*
X0085000Y0021300D03*
X0075000Y0021300D03*
X0075000Y0031300D03*
X0065000Y0031300D03*
X0065000Y0021300D03*
X0055000Y0021300D03*
X0055000Y0031300D03*
X0045000Y0031300D03*
X0045000Y0021300D03*
X0035000Y0021300D03*
X0035000Y0031300D03*
X0100000Y0126300D03*
X0100000Y0136300D03*
X0110000Y0136300D03*
X0110000Y0126300D03*
X0120000Y0126300D03*
X0120000Y0136300D03*
X0130000Y0136300D03*
X0130000Y0126300D03*
X0130000Y0176300D03*
X0130000Y0186300D03*
X0120000Y0186300D03*
X0120000Y0176300D03*
X0110000Y0176300D03*
X0110000Y0186300D03*
X0100000Y0186300D03*
X0100000Y0176300D03*
D14*
X0059300Y0357402D02*
X0050700Y0357402D01*
X0043189Y0372000D02*
X0043189Y0380600D01*
X0066811Y0380600D02*
X0066811Y0372000D01*
D15*
X0067200Y0375900D02*
X0066811Y0376300D01*
X0067200Y0375900D02*
X0094800Y0348300D01*
X0094800Y0341700D01*
X0095000Y0341300D01*
X0083400Y0329700D01*
X0078000Y0329700D01*
X0075000Y0326700D01*
X0075000Y0287700D01*
X0115200Y0287700D01*
X0115200Y0266700D01*
X0115000Y0266300D01*
X0118800Y0255900D02*
X0118800Y0302100D01*
X0099600Y0321300D01*
X0100000Y0321300D01*
X0103800Y0329700D02*
X0088200Y0329700D01*
X0079800Y0321300D01*
X0080000Y0321300D01*
X0079800Y0321300D02*
X0099600Y0301500D01*
X0099600Y0291300D01*
X0100000Y0291300D01*
X0100000Y0266300D02*
X0129600Y0236700D01*
X0129600Y0231300D01*
X0130000Y0231300D01*
X0129000Y0245700D02*
X0118800Y0255900D01*
X0129000Y0245700D02*
X0154200Y0245700D01*
X0181800Y0218100D01*
X0198000Y0218100D01*
X0199200Y0215700D02*
X0204600Y0221100D01*
X0205000Y0221300D01*
X0199200Y0215700D02*
X0170400Y0215700D01*
X0150600Y0195900D01*
X0150600Y0188100D01*
X0120000Y0157500D01*
X0120000Y0136300D01*
X0124800Y0135300D02*
X0120000Y0130500D01*
X0120000Y0126300D01*
X0118200Y0122100D02*
X0131400Y0122100D01*
X0152400Y0143100D01*
X0152400Y0144900D01*
X0160800Y0153300D01*
X0160800Y0161100D01*
X0171000Y0171300D01*
X0205000Y0171300D01*
X0204600Y0180900D02*
X0205000Y0181300D01*
X0204600Y0180900D02*
X0171000Y0180900D01*
X0150600Y0160500D01*
X0150600Y0150900D01*
X0133200Y0133500D01*
X0133200Y0132300D01*
X0130000Y0136300D02*
X0130200Y0136500D01*
X0130200Y0141900D01*
X0144600Y0156300D01*
X0145000Y0156300D01*
X0136800Y0166500D02*
X0126000Y0155700D01*
X0126000Y0134700D01*
X0129600Y0131100D01*
X0129600Y0126300D01*
X0130000Y0126300D01*
X0124800Y0135300D02*
X0124800Y0158100D01*
X0150600Y0183900D01*
X0156600Y0183900D01*
X0160800Y0188100D01*
X0160800Y0195900D01*
X0178200Y0213300D01*
X0192600Y0227700D02*
X0196200Y0227700D01*
X0204600Y0236100D01*
X0205000Y0236300D01*
X0205000Y0246300D02*
X0155400Y0246300D01*
X0139200Y0262500D01*
X0133800Y0262500D01*
X0120000Y0276300D01*
X0120000Y0306900D01*
X0110400Y0316500D01*
X0110400Y0321300D01*
X0110000Y0321300D01*
X0115200Y0326700D02*
X0115200Y0313500D01*
X0131400Y0297300D01*
X0131400Y0270300D01*
X0135000Y0266700D01*
X0135000Y0266300D01*
X0138600Y0288900D02*
X0138600Y0302700D01*
X0125400Y0315900D01*
X0125400Y0341100D01*
X0125000Y0341300D01*
X0120000Y0346500D02*
X0123000Y0349500D01*
X0136800Y0349500D01*
X0145000Y0341300D01*
X0150000Y0336300D02*
X0147000Y0333300D01*
X0141600Y0333300D01*
X0135000Y0326700D01*
X0135000Y0315900D01*
X0139800Y0311100D01*
X0139800Y0291300D01*
X0169800Y0261300D01*
X0171000Y0256500D02*
X0138600Y0288900D01*
X0146400Y0289500D02*
X0146400Y0317700D01*
X0150000Y0321300D01*
X0154800Y0326700D02*
X0151800Y0329700D01*
X0148200Y0329700D01*
X0139800Y0321300D01*
X0140000Y0321300D01*
X0150000Y0336300D02*
X0150000Y0346500D01*
X0145800Y0350700D01*
X0114000Y0350700D01*
X0105000Y0341700D01*
X0105000Y0341300D01*
X0109800Y0336300D02*
X0109800Y0335700D01*
X0103800Y0329700D01*
X0109800Y0336300D02*
X0114600Y0341100D01*
X0115000Y0341300D01*
X0120000Y0346500D02*
X0120000Y0331500D01*
X0115200Y0326700D01*
X0115200Y0291300D02*
X0115000Y0291300D01*
X0115200Y0291300D02*
X0115200Y0287700D01*
X0146400Y0289500D02*
X0148200Y0287700D01*
X0151800Y0287700D01*
X0155400Y0291300D01*
X0170000Y0291300D01*
X0150000Y0291300D02*
X0174000Y0315300D01*
X0174000Y0329100D01*
X0180000Y0335100D01*
X0180000Y0356300D01*
X0169800Y0326700D02*
X0170000Y0326300D01*
X0169800Y0326700D02*
X0154800Y0326700D01*
X0171000Y0256500D02*
X0204600Y0256500D01*
X0205000Y0256300D01*
X0165000Y0156300D02*
X0169800Y0151500D01*
X0169800Y0147300D01*
X0168600Y0146100D01*
X0168600Y0142500D01*
X0156000Y0142500D01*
X0153600Y0143700D02*
X0158400Y0148500D01*
X0167400Y0148500D01*
X0168600Y0142500D02*
X0168600Y0128700D01*
X0204600Y0092700D01*
X0204600Y0091500D01*
X0205000Y0091300D01*
X0198000Y0095700D02*
X0170400Y0123300D01*
X0148200Y0123300D01*
X0110400Y0085500D01*
X0110400Y0061500D01*
X0110000Y0061300D01*
X0100200Y0061500D02*
X0100000Y0061300D01*
X0100200Y0061500D02*
X0100200Y0081300D01*
X0153600Y0134700D01*
X0153600Y0143700D01*
X0150000Y0116300D02*
X0150000Y0116100D01*
X0145200Y0111300D01*
X0145200Y0031500D01*
X0145000Y0031300D01*
X0150000Y0036300D02*
X0155000Y0031300D01*
X0150000Y0036300D02*
X0150000Y0081300D01*
X0118200Y0122100D02*
X0115800Y0124500D01*
X0115800Y0136500D01*
X0111600Y0140700D01*
X0108600Y0140700D01*
X0105600Y0137700D01*
X0105600Y0135900D01*
X0102000Y0132300D01*
X0100200Y0132300D01*
X0096000Y0128100D01*
X0096000Y0118500D01*
X0060000Y0082500D01*
X0060000Y0081300D01*
X0069600Y0081300D02*
X0070000Y0081300D01*
X0069600Y0081300D02*
X0035400Y0047100D01*
X0035400Y0031500D01*
X0035000Y0031300D01*
X0045000Y0031300D02*
X0045000Y0037500D01*
X0105000Y0097500D01*
X0105000Y0131100D01*
X0109800Y0135900D01*
X0110000Y0136300D01*
X0110000Y0126300D02*
X0109800Y0126300D01*
X0106200Y0122700D01*
X0106200Y0096900D01*
X0060600Y0051300D01*
X0060600Y0030900D01*
X0055200Y0025500D01*
X0055200Y0021300D01*
X0055000Y0021300D01*
X0069600Y0111300D02*
X0070000Y0111300D01*
X0069600Y0111300D02*
X0069600Y0146100D01*
X0060000Y0155700D01*
X0060000Y0156300D01*
X0064200Y0153300D02*
X0064200Y0161100D01*
X0061800Y0163500D01*
X0057600Y0163500D01*
X0050400Y0156300D01*
X0050000Y0156300D01*
X0043800Y0171300D02*
X0055800Y0183300D01*
X0055800Y0191700D01*
X0075600Y0211500D01*
X0075600Y0240900D01*
X0070200Y0246300D01*
X0070000Y0246300D01*
X0069600Y0255900D02*
X0060000Y0246300D01*
X0052800Y0239100D01*
X0048600Y0239100D01*
X0046800Y0240900D01*
X0015000Y0240900D01*
X0015000Y0241300D01*
X0019800Y0246300D02*
X0015000Y0251100D01*
X0015000Y0251300D01*
X0019800Y0246300D02*
X0050000Y0246300D01*
X0060000Y0261300D02*
X0069000Y0270300D01*
X0071400Y0270300D01*
X0076200Y0265500D01*
X0076200Y0260100D01*
X0105600Y0230700D01*
X0105600Y0180900D01*
X0109800Y0176700D01*
X0110000Y0176300D01*
X0114000Y0180300D01*
X0121800Y0180300D01*
X0125400Y0176700D01*
X0129600Y0176700D01*
X0130000Y0176300D01*
X0120000Y0186300D02*
X0124800Y0191100D01*
X0144600Y0191100D01*
X0145000Y0191300D01*
X0171000Y0144900D02*
X0204600Y0111300D01*
X0205000Y0111300D01*
X0184800Y0104100D02*
X0184800Y0031500D01*
X0185000Y0031300D01*
X0100000Y0186300D02*
X0099600Y0186300D01*
X0092400Y0193500D01*
X0068400Y0193500D01*
X0061200Y0186300D01*
X0060000Y0186300D01*
X0050400Y0186300D02*
X0050000Y0186300D01*
X0050400Y0186300D02*
X0050400Y0188100D01*
X0074400Y0212100D01*
X0074400Y0220500D01*
X0071400Y0223500D01*
X0057600Y0223500D01*
X0050400Y0216300D01*
X0050000Y0216300D01*
X0069600Y0216300D02*
X0034800Y0181500D01*
X0015000Y0181500D01*
X0015000Y0181300D01*
X0015000Y0171300D02*
X0043800Y0171300D01*
X0064200Y0153300D02*
X0079800Y0137700D01*
X0079800Y0111300D01*
X0080000Y0111300D01*
X0070000Y0216300D02*
X0069600Y0216300D01*
X0069600Y0255900D02*
X0069600Y0266100D01*
X0070000Y0266300D01*
X0060000Y0261300D02*
X0015000Y0261300D01*
X0050000Y0291300D02*
X0050400Y0291300D01*
X0054000Y0287700D01*
X0075000Y0287700D01*
X0070200Y0291300D02*
X0070000Y0291300D01*
X0070200Y0291300D02*
X0070200Y0326700D01*
X0084600Y0341100D01*
X0085000Y0341300D01*
D16*
X0169800Y0261300D03*
X0192600Y0227700D03*
X0198000Y0218100D03*
X0178200Y0213300D03*
X0167400Y0148500D03*
X0171000Y0144900D03*
X0156000Y0142500D03*
X0136800Y0166500D03*
X0133200Y0132300D03*
X0184800Y0104100D03*
X0198000Y0095700D03*
M02*
