G04 EAGLE Gerber RS-274X export*
G75*
%MOMM*%
%FSLAX34Y34*%
%LPD*%
%INTop Copper*%
%IPPOS*%
%AMOC8*
5,1,8,0,0,1.08239X$1,22.5*%
G01*
%ADD10P,1.429621X8X22.500000*%
%ADD11C,1.800000*%
%ADD12C,1.524000*%
%ADD13P,1.649562X8X202.500000*%
%ADD14C,2.184400*%
%ADD15P,1.649562X8X22.500000*%
%ADD16C,0.152400*%
%ADD17C,0.756400*%


D10*
X317500Y850900D03*
X368300Y850900D03*
X317500Y787400D03*
X368300Y787400D03*
X406400Y723900D03*
X355600Y723900D03*
X482600Y723900D03*
X431800Y723900D03*
X571500Y723900D03*
X520700Y723900D03*
X660400Y723900D03*
X609600Y723900D03*
X660400Y660400D03*
X609600Y660400D03*
X571500Y660400D03*
X520700Y660400D03*
X482600Y660400D03*
X431800Y660400D03*
X406400Y660400D03*
X355600Y660400D03*
D11*
X520700Y841900D02*
X520700Y859900D01*
X533400Y809100D02*
X533400Y791100D01*
X546100Y841900D02*
X546100Y859900D01*
X558800Y809100D02*
X558800Y791100D01*
X571500Y841900D02*
X571500Y859900D01*
X584200Y809100D02*
X584200Y791100D01*
X508000Y791100D02*
X508000Y809100D01*
X495300Y841900D02*
X495300Y859900D01*
X482600Y809100D02*
X482600Y791100D01*
X469900Y841900D02*
X469900Y859900D01*
X457200Y809100D02*
X457200Y791100D01*
X596900Y841900D02*
X596900Y859900D01*
X609600Y809100D02*
X609600Y791100D01*
X444500Y841900D02*
X444500Y859900D01*
X431800Y809100D02*
X431800Y791100D01*
D12*
X274320Y673100D02*
X259080Y673100D01*
X259080Y647700D02*
X274320Y647700D01*
X274320Y622300D02*
X259080Y622300D01*
X259080Y596900D02*
X274320Y596900D01*
X274320Y571500D02*
X259080Y571500D01*
X259080Y546100D02*
X274320Y546100D01*
X274320Y495300D02*
X259080Y495300D01*
X259080Y469900D02*
X274320Y469900D01*
X274320Y444500D02*
X259080Y444500D01*
X259080Y419100D02*
X274320Y419100D01*
X274320Y393700D02*
X259080Y393700D01*
X259080Y368300D02*
X274320Y368300D01*
X274320Y342900D02*
X259080Y342900D01*
X259080Y317500D02*
X274320Y317500D01*
X274320Y266700D02*
X259080Y266700D01*
X259080Y241300D02*
X274320Y241300D01*
X274320Y215900D02*
X259080Y215900D01*
X259080Y190500D02*
X274320Y190500D01*
X274320Y165100D02*
X259080Y165100D01*
X259080Y139700D02*
X274320Y139700D01*
X274320Y114300D02*
X259080Y114300D01*
X259080Y88900D02*
X274320Y88900D01*
X741680Y139700D02*
X756920Y139700D01*
X756920Y165100D02*
X741680Y165100D01*
X741680Y190500D02*
X756920Y190500D01*
X756920Y215900D02*
X741680Y215900D01*
X741680Y241300D02*
X756920Y241300D01*
X756920Y266700D02*
X741680Y266700D01*
X741680Y292100D02*
X756920Y292100D01*
X756920Y317500D02*
X741680Y317500D01*
X741680Y368300D02*
X756920Y368300D01*
X756920Y393700D02*
X741680Y393700D01*
X741680Y419100D02*
X756920Y419100D01*
X756920Y444500D02*
X741680Y444500D01*
X741680Y469900D02*
X756920Y469900D01*
X756920Y495300D02*
X741680Y495300D01*
X741680Y520700D02*
X756920Y520700D01*
X756920Y546100D02*
X741680Y546100D01*
X741680Y584200D02*
X756920Y584200D01*
X756920Y609600D02*
X741680Y609600D01*
X741680Y635000D02*
X756920Y635000D01*
X756920Y660400D02*
X741680Y660400D01*
X741680Y685800D02*
X756920Y685800D01*
X756920Y711200D02*
X741680Y711200D01*
X741680Y736600D02*
X756920Y736600D01*
X756920Y762000D02*
X741680Y762000D01*
D13*
X749300Y63500D03*
X749300Y38100D03*
X723900Y63500D03*
X723900Y38100D03*
X698500Y63500D03*
X698500Y38100D03*
X673100Y63500D03*
X673100Y38100D03*
X647700Y63500D03*
X647700Y38100D03*
X622300Y63500D03*
X622300Y38100D03*
X596900Y63500D03*
X596900Y38100D03*
X571500Y63500D03*
X571500Y38100D03*
X546100Y63500D03*
X546100Y38100D03*
X520700Y63500D03*
X520700Y38100D03*
X495300Y63500D03*
X495300Y38100D03*
X469900Y63500D03*
X469900Y38100D03*
X444500Y63500D03*
X444500Y38100D03*
X419100Y63500D03*
X419100Y38100D03*
X393700Y63500D03*
X393700Y38100D03*
X368300Y63500D03*
X368300Y38100D03*
X342900Y63500D03*
X342900Y38100D03*
X317500Y63500D03*
X317500Y38100D03*
D14*
X357378Y891800D02*
X379222Y891800D01*
X338300Y928878D02*
X338300Y950722D01*
X398300Y950722D02*
X398300Y928878D01*
D12*
X355600Y388620D02*
X355600Y373380D01*
X381000Y373380D02*
X381000Y388620D01*
X406400Y388620D02*
X406400Y373380D01*
X431800Y373380D02*
X431800Y388620D01*
X355600Y449580D02*
X355600Y464820D01*
X381000Y464820D02*
X381000Y449580D01*
X406400Y449580D02*
X406400Y464820D01*
X431800Y464820D02*
X431800Y449580D01*
X355600Y525780D02*
X355600Y541020D01*
X381000Y541020D02*
X381000Y525780D01*
X406400Y525780D02*
X406400Y541020D01*
X431800Y541020D02*
X431800Y525780D01*
X355600Y601980D02*
X355600Y617220D01*
X381000Y617220D02*
X381000Y601980D01*
X406400Y601980D02*
X406400Y617220D01*
X431800Y617220D02*
X431800Y601980D01*
X609600Y198120D02*
X609600Y182880D01*
X635000Y182880D02*
X635000Y198120D01*
X609600Y271780D02*
X609600Y287020D01*
X635000Y287020D02*
X635000Y271780D01*
X660400Y881380D02*
X660400Y896620D01*
X685800Y896620D02*
X685800Y881380D01*
X660400Y820420D02*
X660400Y805180D01*
X685800Y805180D02*
X685800Y820420D01*
D15*
X482600Y304800D03*
X508000Y304800D03*
X533400Y304800D03*
X558800Y304800D03*
X482600Y330200D03*
X508000Y330200D03*
X533400Y330200D03*
X558800Y330200D03*
D12*
X381000Y198120D02*
X381000Y182880D01*
X406400Y182880D02*
X406400Y198120D01*
X431800Y198120D02*
X431800Y182880D01*
X381000Y259080D02*
X381000Y274320D01*
X406400Y274320D02*
X406400Y259080D01*
X431800Y259080D02*
X431800Y274320D01*
X596900Y373380D02*
X596900Y388620D01*
X622300Y388620D02*
X622300Y373380D01*
X647700Y373380D02*
X647700Y388620D01*
X596900Y462280D02*
X596900Y477520D01*
X622300Y477520D02*
X622300Y462280D01*
X647700Y462280D02*
X647700Y477520D01*
X596900Y551180D02*
X596900Y566420D01*
X622300Y566420D02*
X622300Y551180D01*
X647700Y551180D02*
X647700Y566420D01*
D13*
X558800Y457200D03*
X533400Y457200D03*
X508000Y457200D03*
X482600Y457200D03*
X558800Y431800D03*
X533400Y431800D03*
X508000Y431800D03*
X482600Y431800D03*
D10*
X482600Y508000D03*
X558800Y508000D03*
X482600Y571500D03*
X558800Y571500D03*
D12*
X482600Y147320D02*
X482600Y132080D01*
X508000Y132080D02*
X508000Y147320D01*
X533400Y147320D02*
X533400Y132080D01*
X558800Y132080D02*
X558800Y147320D01*
D16*
X431800Y723900D02*
X406400Y723900D01*
X481584Y888492D02*
X659892Y888492D01*
X481584Y888492D02*
X445008Y851916D01*
X659892Y888492D02*
X660400Y889000D01*
X445008Y851916D02*
X444500Y850900D01*
X571500Y723900D02*
X609600Y723900D01*
X533400Y723900D02*
X457200Y800100D01*
X533400Y723900D02*
X571500Y723900D01*
X681228Y813816D02*
X685800Y813816D01*
X681228Y813816D02*
X644652Y850392D01*
X597408Y850392D01*
X685800Y813816D02*
X685800Y812800D01*
X597408Y850392D02*
X596900Y850900D01*
X393192Y659892D02*
X356616Y659892D01*
X393192Y659892D02*
X405384Y647700D01*
X559308Y647700D01*
X571500Y659892D01*
X356616Y659892D02*
X355600Y660400D01*
X571500Y659892D02*
X571500Y660400D01*
X441960Y661416D02*
X432816Y661416D01*
X441960Y661416D02*
X454152Y673608D01*
X618744Y673608D02*
X647700Y673608D01*
X618744Y673608D02*
X454152Y673608D01*
X647700Y673608D02*
X659892Y661416D01*
X432816Y661416D02*
X431800Y660400D01*
X659892Y661416D02*
X660400Y660400D01*
X585216Y762000D02*
X585216Y800100D01*
X585216Y762000D02*
X618744Y728472D01*
X618744Y673608D01*
X585216Y800100D02*
X584200Y800100D01*
X536448Y140208D02*
X533400Y140208D01*
X536448Y140208D02*
X568452Y172212D01*
X615696Y172212D01*
X633984Y190500D01*
X533400Y140208D02*
X533400Y139700D01*
X633984Y190500D02*
X635000Y190500D01*
X635508Y190500D02*
X635508Y278892D01*
X635000Y279400D01*
X635000Y190500D02*
X635508Y190500D01*
X585216Y329184D02*
X559308Y329184D01*
X585216Y329184D02*
X635000Y279400D01*
X559308Y329184D02*
X558800Y330200D01*
X318516Y62484D02*
X318516Y38100D01*
X317500Y38100D01*
X318516Y62484D02*
X317500Y63500D01*
X406908Y190500D02*
X406908Y266700D01*
X406908Y190500D02*
X406400Y190500D01*
X406400Y266700D02*
X406908Y266700D01*
X381000Y381000D02*
X381000Y457200D01*
X558800Y571500D02*
X583692Y571500D01*
X595884Y559308D01*
X596900Y558800D01*
X493776Y457200D02*
X482600Y457200D01*
X493776Y457200D02*
X504444Y467868D01*
X522732Y467868D01*
X533400Y457200D01*
X597408Y470916D02*
X597408Y557784D01*
X596900Y558800D01*
X597408Y470916D02*
X596900Y469900D01*
X596900Y381000D02*
X592836Y381000D01*
X544068Y429768D01*
X544068Y446532D01*
X533400Y457200D01*
X266700Y571500D02*
X266700Y596900D01*
X445008Y659892D02*
X481584Y659892D01*
X445008Y659892D02*
X435864Y650748D01*
X422148Y650748D02*
X416052Y650748D01*
X422148Y650748D02*
X435864Y650748D01*
X416052Y650748D02*
X406400Y660400D01*
X481584Y659892D02*
X482600Y660400D01*
X381000Y609600D02*
X381000Y533400D01*
X368808Y800100D02*
X368808Y850392D01*
X368808Y800100D02*
X368808Y787908D01*
X368300Y787400D01*
X368808Y850392D02*
X368300Y850900D01*
X368808Y851916D02*
X368808Y891540D01*
X368300Y891800D01*
X368808Y851916D02*
X368300Y850900D01*
X338328Y922020D02*
X338328Y938784D01*
X338328Y922020D02*
X367284Y893064D01*
X338328Y938784D02*
X338300Y939800D01*
X367284Y893064D02*
X368300Y891800D01*
X660400Y723900D02*
X736092Y723900D01*
X748284Y736092D01*
X749300Y736600D01*
X609600Y800100D02*
X609600Y804672D01*
X583692Y830580D01*
X541020Y830580D01*
X520700Y850900D01*
X431800Y800100D02*
X368808Y800100D01*
X422148Y664464D02*
X422148Y650748D01*
X422148Y664464D02*
X481584Y723900D01*
X482600Y723900D01*
X583692Y661416D02*
X609600Y661416D01*
X583692Y661416D02*
X574548Y670560D01*
X530352Y670560D01*
X521208Y661416D01*
X609600Y661416D02*
X609600Y660400D01*
X521208Y661416D02*
X520700Y660400D01*
X355092Y723900D02*
X355092Y749808D01*
X317500Y787400D01*
X345948Y626364D02*
X266700Y547116D01*
X345948Y626364D02*
X345948Y714756D01*
X355092Y723900D01*
X266700Y547116D02*
X266700Y546100D01*
X355092Y723900D02*
X355600Y723900D01*
X749808Y62484D02*
X749808Y50292D01*
X749808Y38100D01*
X749300Y38100D01*
X749808Y62484D02*
X749300Y63500D01*
X432816Y190500D02*
X432816Y266700D01*
X431800Y266700D01*
X554736Y138684D02*
X557784Y138684D01*
X554736Y138684D02*
X537972Y121920D01*
X478536Y121920D01*
X432816Y167640D01*
X432816Y190500D01*
X557784Y138684D02*
X558800Y139700D01*
X432816Y190500D02*
X431800Y190500D01*
X646176Y50292D02*
X749808Y50292D01*
X646176Y50292D02*
X632460Y64008D01*
X632460Y68580D01*
X562356Y138684D01*
X559308Y138684D01*
X558800Y139700D01*
X356616Y381000D02*
X356616Y457200D01*
X356616Y381000D02*
X355600Y381000D01*
X355600Y457200D02*
X356616Y457200D01*
X356616Y533400D02*
X356616Y609600D01*
X356616Y533400D02*
X355600Y533400D01*
X355600Y609600D02*
X356616Y609600D01*
X316992Y800100D02*
X316992Y801624D01*
X316992Y850392D01*
X316992Y800100D02*
X284988Y768096D01*
X284988Y641604D01*
X266700Y623316D01*
X316992Y850392D02*
X317500Y850900D01*
X266700Y623316D02*
X266700Y622300D01*
X512064Y821436D02*
X533400Y800100D01*
X512064Y821436D02*
X452628Y821436D01*
X443484Y812292D01*
X443484Y786384D01*
X434340Y777240D01*
X341376Y777240D01*
X316992Y801624D01*
X681228Y525780D02*
X717804Y562356D01*
D17*
X681228Y525780D03*
X717804Y562356D03*
D16*
X748284Y499872D02*
X748284Y495300D01*
X748284Y499872D02*
X723900Y524256D01*
X723900Y643128D01*
X595884Y771144D01*
X595884Y813816D01*
X588264Y821436D01*
X579120Y821436D01*
X557784Y800100D01*
X748284Y495300D02*
X749300Y495300D01*
X558800Y800100D02*
X557784Y800100D01*
X368808Y277368D02*
X368808Y64008D01*
X368808Y277368D02*
X420624Y329184D01*
X481584Y329184D01*
X368808Y64008D02*
X368300Y63500D01*
X481584Y329184D02*
X482600Y330200D01*
X710184Y661416D02*
X748284Y661416D01*
X710184Y661416D02*
X621792Y749808D01*
X621792Y813816D01*
X605028Y830580D01*
X591312Y830580D01*
X571500Y850392D01*
X748284Y661416D02*
X749300Y660400D01*
X571500Y850392D02*
X571500Y850900D01*
X495300Y571500D02*
X482600Y571500D01*
X495300Y571500D02*
X558800Y508000D01*
X621792Y422148D02*
X621792Y381000D01*
X621792Y422148D02*
X559308Y484632D01*
X559308Y507492D01*
X621792Y381000D02*
X622300Y381000D01*
X559308Y507492D02*
X558800Y508000D01*
X748284Y195072D02*
X748284Y190500D01*
X748284Y195072D02*
X725424Y217932D01*
X725424Y271272D01*
X623316Y373380D01*
X623316Y381000D01*
X748284Y190500D02*
X749300Y190500D01*
X623316Y381000D02*
X622300Y381000D01*
X731520Y227076D02*
X734568Y227076D01*
X748284Y240792D01*
X749300Y241300D01*
X623316Y425196D02*
X623316Y469392D01*
X623316Y425196D02*
X633984Y414528D01*
X633984Y367284D01*
X731520Y269748D01*
X731520Y259080D01*
X749300Y241300D01*
X623316Y469392D02*
X622300Y469900D01*
D17*
X731520Y227076D03*
D16*
X653796Y361188D02*
X653796Y364236D01*
X658368Y368808D01*
X658368Y458724D01*
X647700Y469392D01*
X647700Y469900D01*
X653796Y361188D02*
X662940Y352044D01*
D17*
X653796Y361188D03*
X662940Y352044D03*
D16*
X623316Y490728D02*
X623316Y557784D01*
X623316Y490728D02*
X637032Y477012D01*
X637032Y368808D01*
X672084Y333756D01*
X707136Y333756D01*
X748284Y292608D01*
X623316Y557784D02*
X622300Y558800D01*
X748284Y292608D02*
X749300Y292100D01*
X647700Y492252D02*
X647700Y558800D01*
X647700Y492252D02*
X731520Y408432D01*
X731520Y335280D01*
X749300Y317500D01*
X493776Y431292D02*
X483108Y431292D01*
X493776Y431292D02*
X568452Y356616D01*
X614172Y356616D01*
X624840Y345948D01*
X483108Y431292D02*
X482600Y431800D01*
D17*
X624840Y345948D03*
D16*
X384048Y266700D02*
X381000Y266700D01*
X384048Y266700D02*
X437388Y320040D01*
X566928Y320040D01*
D17*
X566928Y320040D03*
D16*
X696468Y470916D02*
X748284Y470916D01*
X696468Y470916D02*
X659892Y507492D01*
X659892Y647700D01*
X748284Y470916D02*
X749300Y469900D01*
D17*
X659892Y647700D03*
D16*
X576072Y414528D02*
X576072Y406908D01*
X576072Y414528D02*
X558800Y431800D01*
D17*
X576072Y406908D03*
D16*
X406908Y381000D02*
X406908Y435864D01*
X417576Y446532D01*
X417576Y467868D01*
X390144Y495300D01*
X266700Y495300D01*
X406400Y381000D02*
X406908Y381000D01*
X405384Y457200D02*
X387096Y475488D01*
X271272Y475488D01*
X266700Y470916D01*
X405384Y457200D02*
X406400Y457200D01*
X266700Y469900D02*
X266700Y470916D01*
X731520Y537972D02*
X748284Y521208D01*
X749300Y520700D01*
D17*
X731520Y537972D03*
D16*
X513588Y381000D02*
X431800Y381000D01*
X513588Y381000D02*
X550164Y344424D01*
X597408Y344424D01*
X691896Y249936D01*
X691896Y96012D01*
X723900Y64008D01*
X723900Y63500D01*
X441960Y457200D02*
X431800Y457200D01*
X441960Y457200D02*
X545592Y353568D01*
X592836Y353568D01*
X697992Y248412D01*
D17*
X697992Y248412D03*
D16*
X443484Y533400D02*
X431800Y533400D01*
X443484Y533400D02*
X505968Y470916D01*
X534924Y470916D01*
X548640Y457200D01*
X548640Y452628D01*
X559308Y441960D01*
X563880Y441960D01*
X611124Y394716D01*
X611124Y368808D01*
X722376Y257556D01*
X722376Y79248D01*
X734568Y67056D01*
X734568Y59436D01*
X728472Y53340D01*
X682752Y53340D01*
X673608Y62484D01*
X673100Y63500D01*
X431292Y554736D02*
X431292Y609600D01*
X431292Y554736D02*
X420624Y544068D01*
X420624Y370332D01*
X449580Y341376D01*
X579120Y341376D01*
X623316Y297180D01*
X640080Y297180D01*
X647700Y289560D01*
X647700Y63500D01*
X431800Y609600D02*
X431292Y609600D01*
X483108Y507492D02*
X507492Y507492D01*
X557784Y457200D01*
X483108Y507492D02*
X482600Y508000D01*
X557784Y457200D02*
X558800Y457200D01*
M02*
