G75*
%MOIN*%
%OFA0B0*%
%FSLAX25Y25*%
%IPPOS*%
%LPD*%
%AMOC8*
5,1,8,0,0,1.08239X$1,22.5*
%
%ADD10C,0.00000*%
%ADD11C,0.09370*%
%ADD12OC8,0.06000*%
%ADD13C,0.06000*%
%ADD14C,0.00600*%
D10*
X0001000Y0003669D02*
X0001000Y0252370D01*
X0175921Y0252370D01*
X0175921Y0003669D01*
X0001000Y0003669D01*
D11*
X0016315Y0017213D02*
X0016315Y0026583D01*
X0036000Y0026583D02*
X0036000Y0017213D01*
X0055685Y0017213D02*
X0055685Y0026583D01*
X0081315Y0026583D02*
X0081315Y0017213D01*
X0101000Y0017213D02*
X0101000Y0026583D01*
X0120685Y0026583D02*
X0120685Y0017213D01*
X0153087Y0018984D02*
X0162457Y0018984D01*
X0162457Y0038669D02*
X0153087Y0038669D01*
X0153087Y0058354D02*
X0162457Y0058354D01*
X0162457Y0078984D02*
X0153087Y0078984D01*
X0153087Y0098669D02*
X0162457Y0098669D01*
X0162457Y0118354D02*
X0153087Y0118354D01*
X0153087Y0138984D02*
X0162457Y0138984D01*
X0162457Y0158669D02*
X0153087Y0158669D01*
X0153087Y0178354D02*
X0162457Y0178354D01*
X0162457Y0198984D02*
X0153087Y0198984D01*
X0153087Y0218669D02*
X0162457Y0218669D01*
X0162457Y0238354D02*
X0153087Y0238354D01*
X0112457Y0168512D02*
X0103087Y0168512D01*
X0103087Y0148827D02*
X0112457Y0148827D01*
D12*
X0116000Y0068669D03*
X0116000Y0058669D03*
X0106000Y0058669D03*
X0106000Y0068669D03*
X0096000Y0068669D03*
X0096000Y0058669D03*
X0086000Y0058669D03*
X0086000Y0068669D03*
X0076000Y0068669D03*
X0076000Y0058669D03*
X0066000Y0058669D03*
X0066000Y0068669D03*
X0056000Y0068669D03*
X0056000Y0058669D03*
X0126000Y0058669D03*
X0126000Y0068669D03*
D13*
X0026000Y0061669D02*
X0026000Y0055669D01*
X0016000Y0055669D02*
X0016000Y0061669D01*
D14*
X0025600Y0058269D02*
X0026000Y0058669D01*
X0025600Y0058269D02*
X0025600Y0031269D01*
X0016600Y0022269D01*
X0016315Y0021898D01*
X0036000Y0021898D02*
X0036400Y0022269D01*
X0036400Y0049269D01*
X0055600Y0068469D01*
X0056000Y0068669D01*
X0056200Y0068469D01*
X0065800Y0068469D01*
X0066000Y0068669D01*
X0066400Y0068469D01*
X0076000Y0068469D01*
X0076000Y0068669D01*
X0076000Y0068469D02*
X0085600Y0068469D01*
X0086000Y0068669D01*
X0086200Y0068469D01*
X0095800Y0068469D01*
X0096000Y0068669D01*
X0096400Y0068469D01*
X0106000Y0068469D01*
X0106000Y0068669D01*
X0106000Y0068469D02*
X0115600Y0068469D01*
X0116000Y0068669D01*
X0116200Y0068469D01*
X0125800Y0068469D01*
X0126000Y0068669D01*
X0125800Y0058869D02*
X0121000Y0058869D01*
X0121000Y0022269D01*
X0120685Y0021898D01*
X0121000Y0058869D02*
X0116200Y0058869D01*
X0116000Y0058669D01*
X0115600Y0058869D01*
X0106000Y0058869D01*
X0106000Y0058669D01*
X0106000Y0058869D02*
X0096400Y0058869D01*
X0096000Y0058669D01*
X0095800Y0058869D01*
X0086200Y0058869D01*
X0086000Y0058669D01*
X0085600Y0058869D01*
X0076000Y0058869D01*
X0076000Y0058669D01*
X0076000Y0058869D02*
X0066400Y0058869D01*
X0066000Y0058669D01*
X0065800Y0058869D01*
X0056200Y0058869D01*
X0056000Y0058669D01*
X0055600Y0058269D01*
X0055600Y0022269D01*
X0055685Y0021898D01*
X0125800Y0058869D02*
X0126000Y0058669D01*
X0157772Y0078984D02*
X0158200Y0079269D01*
X0158200Y0086469D01*
X0168400Y0096669D01*
X0168400Y0128469D01*
X0158200Y0138669D01*
X0157772Y0138984D01*
X0157600Y0139269D01*
X0148600Y0148269D01*
X0147400Y0148269D01*
X0147400Y0180669D01*
X0157600Y0190869D01*
X0157600Y0198669D01*
X0157772Y0198984D01*
X0168400Y0189069D02*
X0158200Y0178869D01*
X0157772Y0178354D01*
X0168400Y0189069D02*
X0168400Y0220869D01*
X0158200Y0231069D01*
X0158200Y0238269D01*
X0157772Y0238354D01*
X0147400Y0148269D02*
X0107800Y0148269D01*
X0107772Y0148827D01*
X0157772Y0078984D02*
X0158200Y0078669D01*
X0168400Y0068469D01*
X0168400Y0036669D01*
X0158200Y0026469D01*
X0158200Y0019269D01*
X0157772Y0018984D01*
M02*
