G75*
%MOIN*%
%OFA0B0*%
%FSLAX25Y25*%
%IPPOS*%
%LPD*%
%AMOC8*
5,1,8,0,0,1.08239X$1,22.5*
%
%ADD10C,0.09370*%
%ADD11OC8,0.06000*%
%ADD12C,0.06000*%
%ADD13C,0.00600*%
D10*
X0016315Y0017213D02*
X0016315Y0026583D01*
X0036000Y0026583D02*
X0036000Y0017213D01*
X0055685Y0017213D02*
X0055685Y0026583D01*
X0081315Y0026583D02*
X0081315Y0017213D01*
X0101000Y0017213D02*
X0101000Y0026583D01*
X0120685Y0026583D02*
X0120685Y0017213D01*
X0153087Y0018984D02*
X0162457Y0018984D01*
X0162457Y0038669D02*
X0153087Y0038669D01*
X0153087Y0058354D02*
X0162457Y0058354D01*
X0162457Y0078984D02*
X0153087Y0078984D01*
X0153087Y0098669D02*
X0162457Y0098669D01*
X0162457Y0118354D02*
X0153087Y0118354D01*
X0153087Y0138984D02*
X0162457Y0138984D01*
X0162457Y0158669D02*
X0153087Y0158669D01*
X0153087Y0178354D02*
X0162457Y0178354D01*
X0162457Y0198984D02*
X0153087Y0198984D01*
X0153087Y0218669D02*
X0162457Y0218669D01*
X0162457Y0238354D02*
X0153087Y0238354D01*
X0112457Y0168512D02*
X0103087Y0168512D01*
X0103087Y0148827D02*
X0112457Y0148827D01*
D11*
X0116000Y0068669D03*
X0116000Y0058669D03*
X0106000Y0058669D03*
X0106000Y0068669D03*
X0096000Y0068669D03*
X0096000Y0058669D03*
X0086000Y0058669D03*
X0086000Y0068669D03*
X0076000Y0068669D03*
X0076000Y0058669D03*
X0066000Y0058669D03*
X0066000Y0068669D03*
X0056000Y0068669D03*
X0056000Y0058669D03*
X0126000Y0058669D03*
X0126000Y0068669D03*
D12*
X0026000Y0061669D02*
X0026000Y0055669D01*
X0016000Y0055669D02*
X0016000Y0061669D01*
D13*
X0016000Y0058669D02*
X0016000Y0058269D01*
X0017800Y0058269D01*
X0043600Y0032469D01*
X0070600Y0032469D01*
X0080800Y0022269D01*
X0081315Y0021898D01*
X0100600Y0022269D02*
X0101000Y0021898D01*
X0100600Y0022269D02*
X0100600Y0064269D01*
X0096400Y0068469D01*
X0096000Y0068669D01*
X0157600Y0126069D02*
X0147400Y0136269D01*
X0147400Y0168669D01*
X0107800Y0168669D01*
X0107772Y0168512D01*
X0147400Y0168669D02*
X0148000Y0168669D01*
X0157600Y0178269D01*
X0157772Y0178354D01*
X0157600Y0126069D02*
X0157600Y0118869D01*
X0157772Y0118354D01*
X0158200Y0118269D01*
X0168400Y0108069D01*
X0168400Y0076869D01*
X0158200Y0066669D01*
X0158200Y0058869D01*
X0157772Y0058354D01*
M02*
