%
M48
M72
T01C0.03200
T02C0.04000
T03C0.05512
%
T01
X43669Y14200
X43669Y34200
X83669Y34200
X83669Y14200
T02
X18669Y24200
X28669Y24200
X38669Y24200
X58669Y59200
X58669Y69200
X68669Y69200
X68669Y59200
X78669Y59200
X78669Y69200
X88669Y69200
X88669Y59200
X98669Y59200
X98669Y69200
X108669Y69200
X108669Y59200
X118669Y59200
X118669Y69200
X128669Y69200
X128669Y59200
T03
X123512Y22428
X103827Y22428
X160441Y19515
X160441Y39200
X160441Y58885
X160441Y79515
X160441Y99200
X160441Y118885
X160441Y139515
X160441Y159200
X160441Y178885
X160441Y199515
X160441Y219200
X160441Y238885
X110441Y169043
X110441Y149357
X21898Y129043
X21898Y109357
X21898Y79043
X21898Y59357
M30
