G75*
%MOIN*%
%OFA0B0*%
%FSLAX25Y25*%
%IPPOS*%
%LPD*%
%AMOC8*
5,1,8,0,0,1.08239X$1,22.5*
%
%ADD10C,0.00000*%
%ADD11C,0.09370*%
%ADD12OC8,0.06000*%
%ADD13C,0.06000*%
%ADD14OC8,0.05200*%
%ADD15C,0.00600*%
D10*
X0003669Y0004200D02*
X0003669Y0252901D01*
X0178591Y0252901D01*
X0178591Y0004200D01*
X0003669Y0004200D01*
D11*
X0017213Y0059357D02*
X0026583Y0059357D01*
X0026583Y0079043D02*
X0017213Y0079043D01*
X0017213Y0109357D02*
X0026583Y0109357D01*
X0026583Y0129043D02*
X0017213Y0129043D01*
X0103827Y0027113D02*
X0103827Y0017743D01*
X0123512Y0017743D02*
X0123512Y0027113D01*
X0155756Y0019515D02*
X0165126Y0019515D01*
X0165126Y0039200D02*
X0155756Y0039200D01*
X0155756Y0058885D02*
X0165126Y0058885D01*
X0165126Y0079515D02*
X0155756Y0079515D01*
X0155756Y0099200D02*
X0165126Y0099200D01*
X0165126Y0118885D02*
X0155756Y0118885D01*
X0155756Y0139515D02*
X0165126Y0139515D01*
X0165126Y0159200D02*
X0155756Y0159200D01*
X0155756Y0178885D02*
X0165126Y0178885D01*
X0165126Y0199515D02*
X0155756Y0199515D01*
X0155756Y0219200D02*
X0165126Y0219200D01*
X0165126Y0238885D02*
X0155756Y0238885D01*
X0115126Y0169043D02*
X0105756Y0169043D01*
X0105756Y0149357D02*
X0115126Y0149357D01*
D12*
X0118669Y0069200D03*
X0118669Y0059200D03*
X0128669Y0059200D03*
X0128669Y0069200D03*
X0108669Y0069200D03*
X0108669Y0059200D03*
X0098669Y0059200D03*
X0098669Y0069200D03*
X0088669Y0069200D03*
X0088669Y0059200D03*
X0078669Y0059200D03*
X0078669Y0069200D03*
X0068669Y0069200D03*
X0068669Y0059200D03*
X0058669Y0059200D03*
X0058669Y0069200D03*
D13*
X0038669Y0027200D02*
X0038669Y0021200D01*
X0028669Y0021200D02*
X0028669Y0027200D01*
X0018669Y0027200D02*
X0018669Y0021200D01*
D14*
X0043669Y0014200D03*
X0043669Y0034200D03*
X0083669Y0034200D03*
X0083669Y0014200D03*
D15*
X0084069Y0014400D01*
X0084069Y0022800D01*
X0103269Y0022800D01*
X0103827Y0022428D01*
X0084069Y0022800D02*
X0084069Y0034200D01*
X0083669Y0034200D01*
X0078669Y0059200D02*
X0078669Y0059400D01*
X0088269Y0059400D01*
X0088669Y0059200D01*
X0088869Y0059400D01*
X0098469Y0059400D01*
X0098669Y0059200D01*
X0099069Y0059400D01*
X0108669Y0059400D01*
X0108669Y0059200D01*
X0108669Y0059400D02*
X0118269Y0059400D01*
X0118669Y0059200D01*
X0118869Y0059400D01*
X0123669Y0059400D01*
X0123669Y0022800D01*
X0123512Y0022428D01*
X0123669Y0059400D02*
X0128469Y0059400D01*
X0128669Y0059200D01*
X0128469Y0069000D02*
X0128669Y0069200D01*
X0128469Y0069000D02*
X0118869Y0069000D01*
X0118669Y0069200D01*
X0118269Y0069000D01*
X0108669Y0069000D01*
X0108669Y0069200D01*
X0108669Y0069000D02*
X0099069Y0069000D01*
X0098669Y0069200D01*
X0098469Y0069000D01*
X0088869Y0069000D01*
X0088669Y0069200D01*
X0088269Y0069000D01*
X0078669Y0069000D01*
X0078669Y0069200D01*
X0078669Y0069000D02*
X0069069Y0069000D01*
X0068669Y0069200D01*
X0068469Y0069000D01*
X0058869Y0069000D01*
X0058669Y0069200D01*
X0058269Y0069000D01*
X0048669Y0059400D01*
X0043869Y0059400D01*
X0043869Y0034200D01*
X0043669Y0034200D01*
X0043269Y0014400D02*
X0028269Y0014400D01*
X0018669Y0024000D01*
X0018669Y0024200D01*
X0043269Y0014400D02*
X0043669Y0014200D01*
X0043869Y0059400D02*
X0032469Y0059400D01*
X0032469Y0081600D01*
X0022269Y0091800D01*
X0022269Y0109200D01*
X0021898Y0109357D01*
X0022269Y0059400D02*
X0021898Y0059357D01*
X0022269Y0059400D02*
X0032469Y0059400D01*
X0058269Y0058800D02*
X0058669Y0059200D01*
X0058869Y0059400D01*
X0068469Y0059400D01*
X0068669Y0059200D01*
X0069069Y0059400D01*
X0078669Y0059400D01*
X0110469Y0148800D02*
X0110441Y0149357D01*
X0110469Y0148800D02*
X0150069Y0148800D01*
X0150069Y0181200D01*
X0160269Y0191400D01*
X0160269Y0199200D01*
X0160441Y0199515D01*
X0171069Y0189600D02*
X0160869Y0179400D01*
X0160441Y0178885D01*
X0171069Y0189600D02*
X0171069Y0221400D01*
X0160869Y0231600D01*
X0160869Y0238800D01*
X0160441Y0238885D01*
X0151269Y0148800D02*
X0160269Y0139800D01*
X0160441Y0139515D01*
X0160869Y0139200D01*
X0171069Y0129000D01*
X0171069Y0097200D01*
X0160869Y0087000D01*
X0160869Y0079800D01*
X0160441Y0079515D01*
X0160869Y0079200D01*
X0171069Y0069000D01*
X0171069Y0037200D01*
X0160869Y0027000D01*
X0160869Y0019800D01*
X0160441Y0019515D01*
X0151269Y0148800D02*
X0150069Y0148800D01*
M02*
