G75*
%MOIN*%
%OFA0B0*%
%FSLAX25Y25*%
%IPPOS*%
%LPD*%
%AMOC8*
5,1,8,0,0,1.08239X$1,22.5*
%
%ADD10C,0.00000*%
%ADD11C,0.06000*%
%ADD12OC8,0.05200*%
%ADD13OC8,0.06000*%
%ADD14C,0.07087*%
%ADD15R,0.15000X0.15000*%
%ADD16C,0.15000*%
%ADD17C,0.08600*%
%ADD18C,0.00600*%
%ADD19C,0.02978*%
D10*
X0001300Y0001300D02*
X0001300Y0476300D01*
X0306300Y0476300D01*
X0306300Y0421300D01*
X0561300Y0421300D01*
X0561221Y0420001D02*
X0561221Y0001300D01*
X0001300Y0001300D01*
X0016300Y0021300D02*
X0016302Y0021441D01*
X0016308Y0021582D01*
X0016318Y0021722D01*
X0016332Y0021862D01*
X0016350Y0022002D01*
X0016371Y0022141D01*
X0016397Y0022280D01*
X0016426Y0022418D01*
X0016460Y0022554D01*
X0016497Y0022690D01*
X0016538Y0022825D01*
X0016583Y0022959D01*
X0016632Y0023091D01*
X0016684Y0023222D01*
X0016740Y0023351D01*
X0016800Y0023478D01*
X0016863Y0023604D01*
X0016929Y0023728D01*
X0017000Y0023851D01*
X0017073Y0023971D01*
X0017150Y0024089D01*
X0017230Y0024205D01*
X0017314Y0024318D01*
X0017400Y0024429D01*
X0017490Y0024538D01*
X0017583Y0024644D01*
X0017678Y0024747D01*
X0017777Y0024848D01*
X0017878Y0024946D01*
X0017982Y0025041D01*
X0018089Y0025133D01*
X0018198Y0025222D01*
X0018310Y0025307D01*
X0018424Y0025390D01*
X0018540Y0025470D01*
X0018659Y0025546D01*
X0018780Y0025618D01*
X0018902Y0025688D01*
X0019027Y0025753D01*
X0019153Y0025816D01*
X0019281Y0025874D01*
X0019411Y0025929D01*
X0019542Y0025981D01*
X0019675Y0026028D01*
X0019809Y0026072D01*
X0019944Y0026113D01*
X0020080Y0026149D01*
X0020217Y0026181D01*
X0020355Y0026210D01*
X0020493Y0026235D01*
X0020633Y0026255D01*
X0020773Y0026272D01*
X0020913Y0026285D01*
X0021054Y0026294D01*
X0021194Y0026299D01*
X0021335Y0026300D01*
X0021476Y0026297D01*
X0021617Y0026290D01*
X0021757Y0026279D01*
X0021897Y0026264D01*
X0022037Y0026245D01*
X0022176Y0026223D01*
X0022314Y0026196D01*
X0022452Y0026166D01*
X0022588Y0026131D01*
X0022724Y0026093D01*
X0022858Y0026051D01*
X0022992Y0026005D01*
X0023124Y0025956D01*
X0023254Y0025902D01*
X0023383Y0025845D01*
X0023510Y0025785D01*
X0023636Y0025721D01*
X0023759Y0025653D01*
X0023881Y0025582D01*
X0024001Y0025508D01*
X0024118Y0025430D01*
X0024233Y0025349D01*
X0024346Y0025265D01*
X0024457Y0025178D01*
X0024565Y0025087D01*
X0024670Y0024994D01*
X0024773Y0024897D01*
X0024873Y0024798D01*
X0024970Y0024696D01*
X0025064Y0024591D01*
X0025155Y0024484D01*
X0025243Y0024374D01*
X0025328Y0024262D01*
X0025410Y0024147D01*
X0025489Y0024030D01*
X0025564Y0023911D01*
X0025636Y0023790D01*
X0025704Y0023667D01*
X0025769Y0023542D01*
X0025831Y0023415D01*
X0025888Y0023286D01*
X0025943Y0023156D01*
X0025993Y0023025D01*
X0026040Y0022892D01*
X0026083Y0022758D01*
X0026122Y0022622D01*
X0026157Y0022486D01*
X0026189Y0022349D01*
X0026216Y0022211D01*
X0026240Y0022072D01*
X0026260Y0021932D01*
X0026276Y0021792D01*
X0026288Y0021652D01*
X0026296Y0021511D01*
X0026300Y0021370D01*
X0026300Y0021230D01*
X0026296Y0021089D01*
X0026288Y0020948D01*
X0026276Y0020808D01*
X0026260Y0020668D01*
X0026240Y0020528D01*
X0026216Y0020389D01*
X0026189Y0020251D01*
X0026157Y0020114D01*
X0026122Y0019978D01*
X0026083Y0019842D01*
X0026040Y0019708D01*
X0025993Y0019575D01*
X0025943Y0019444D01*
X0025888Y0019314D01*
X0025831Y0019185D01*
X0025769Y0019058D01*
X0025704Y0018933D01*
X0025636Y0018810D01*
X0025564Y0018689D01*
X0025489Y0018570D01*
X0025410Y0018453D01*
X0025328Y0018338D01*
X0025243Y0018226D01*
X0025155Y0018116D01*
X0025064Y0018009D01*
X0024970Y0017904D01*
X0024873Y0017802D01*
X0024773Y0017703D01*
X0024670Y0017606D01*
X0024565Y0017513D01*
X0024457Y0017422D01*
X0024346Y0017335D01*
X0024233Y0017251D01*
X0024118Y0017170D01*
X0024001Y0017092D01*
X0023881Y0017018D01*
X0023759Y0016947D01*
X0023636Y0016879D01*
X0023510Y0016815D01*
X0023383Y0016755D01*
X0023254Y0016698D01*
X0023124Y0016644D01*
X0022992Y0016595D01*
X0022858Y0016549D01*
X0022724Y0016507D01*
X0022588Y0016469D01*
X0022452Y0016434D01*
X0022314Y0016404D01*
X0022176Y0016377D01*
X0022037Y0016355D01*
X0021897Y0016336D01*
X0021757Y0016321D01*
X0021617Y0016310D01*
X0021476Y0016303D01*
X0021335Y0016300D01*
X0021194Y0016301D01*
X0021054Y0016306D01*
X0020913Y0016315D01*
X0020773Y0016328D01*
X0020633Y0016345D01*
X0020493Y0016365D01*
X0020355Y0016390D01*
X0020217Y0016419D01*
X0020080Y0016451D01*
X0019944Y0016487D01*
X0019809Y0016528D01*
X0019675Y0016572D01*
X0019542Y0016619D01*
X0019411Y0016671D01*
X0019281Y0016726D01*
X0019153Y0016784D01*
X0019027Y0016847D01*
X0018902Y0016912D01*
X0018780Y0016982D01*
X0018659Y0017054D01*
X0018540Y0017130D01*
X0018424Y0017210D01*
X0018310Y0017293D01*
X0018198Y0017378D01*
X0018089Y0017467D01*
X0017982Y0017559D01*
X0017878Y0017654D01*
X0017777Y0017752D01*
X0017678Y0017853D01*
X0017583Y0017956D01*
X0017490Y0018062D01*
X0017400Y0018171D01*
X0017314Y0018282D01*
X0017230Y0018395D01*
X0017150Y0018511D01*
X0017073Y0018629D01*
X0017000Y0018749D01*
X0016929Y0018872D01*
X0016863Y0018996D01*
X0016800Y0019122D01*
X0016740Y0019249D01*
X0016684Y0019378D01*
X0016632Y0019509D01*
X0016583Y0019641D01*
X0016538Y0019775D01*
X0016497Y0019910D01*
X0016460Y0020046D01*
X0016426Y0020182D01*
X0016397Y0020320D01*
X0016371Y0020459D01*
X0016350Y0020598D01*
X0016332Y0020738D01*
X0016318Y0020878D01*
X0016308Y0021018D01*
X0016302Y0021159D01*
X0016300Y0021300D01*
X0266300Y0021300D02*
X0266302Y0021441D01*
X0266308Y0021582D01*
X0266318Y0021722D01*
X0266332Y0021862D01*
X0266350Y0022002D01*
X0266371Y0022141D01*
X0266397Y0022280D01*
X0266426Y0022418D01*
X0266460Y0022554D01*
X0266497Y0022690D01*
X0266538Y0022825D01*
X0266583Y0022959D01*
X0266632Y0023091D01*
X0266684Y0023222D01*
X0266740Y0023351D01*
X0266800Y0023478D01*
X0266863Y0023604D01*
X0266929Y0023728D01*
X0267000Y0023851D01*
X0267073Y0023971D01*
X0267150Y0024089D01*
X0267230Y0024205D01*
X0267314Y0024318D01*
X0267400Y0024429D01*
X0267490Y0024538D01*
X0267583Y0024644D01*
X0267678Y0024747D01*
X0267777Y0024848D01*
X0267878Y0024946D01*
X0267982Y0025041D01*
X0268089Y0025133D01*
X0268198Y0025222D01*
X0268310Y0025307D01*
X0268424Y0025390D01*
X0268540Y0025470D01*
X0268659Y0025546D01*
X0268780Y0025618D01*
X0268902Y0025688D01*
X0269027Y0025753D01*
X0269153Y0025816D01*
X0269281Y0025874D01*
X0269411Y0025929D01*
X0269542Y0025981D01*
X0269675Y0026028D01*
X0269809Y0026072D01*
X0269944Y0026113D01*
X0270080Y0026149D01*
X0270217Y0026181D01*
X0270355Y0026210D01*
X0270493Y0026235D01*
X0270633Y0026255D01*
X0270773Y0026272D01*
X0270913Y0026285D01*
X0271054Y0026294D01*
X0271194Y0026299D01*
X0271335Y0026300D01*
X0271476Y0026297D01*
X0271617Y0026290D01*
X0271757Y0026279D01*
X0271897Y0026264D01*
X0272037Y0026245D01*
X0272176Y0026223D01*
X0272314Y0026196D01*
X0272452Y0026166D01*
X0272588Y0026131D01*
X0272724Y0026093D01*
X0272858Y0026051D01*
X0272992Y0026005D01*
X0273124Y0025956D01*
X0273254Y0025902D01*
X0273383Y0025845D01*
X0273510Y0025785D01*
X0273636Y0025721D01*
X0273759Y0025653D01*
X0273881Y0025582D01*
X0274001Y0025508D01*
X0274118Y0025430D01*
X0274233Y0025349D01*
X0274346Y0025265D01*
X0274457Y0025178D01*
X0274565Y0025087D01*
X0274670Y0024994D01*
X0274773Y0024897D01*
X0274873Y0024798D01*
X0274970Y0024696D01*
X0275064Y0024591D01*
X0275155Y0024484D01*
X0275243Y0024374D01*
X0275328Y0024262D01*
X0275410Y0024147D01*
X0275489Y0024030D01*
X0275564Y0023911D01*
X0275636Y0023790D01*
X0275704Y0023667D01*
X0275769Y0023542D01*
X0275831Y0023415D01*
X0275888Y0023286D01*
X0275943Y0023156D01*
X0275993Y0023025D01*
X0276040Y0022892D01*
X0276083Y0022758D01*
X0276122Y0022622D01*
X0276157Y0022486D01*
X0276189Y0022349D01*
X0276216Y0022211D01*
X0276240Y0022072D01*
X0276260Y0021932D01*
X0276276Y0021792D01*
X0276288Y0021652D01*
X0276296Y0021511D01*
X0276300Y0021370D01*
X0276300Y0021230D01*
X0276296Y0021089D01*
X0276288Y0020948D01*
X0276276Y0020808D01*
X0276260Y0020668D01*
X0276240Y0020528D01*
X0276216Y0020389D01*
X0276189Y0020251D01*
X0276157Y0020114D01*
X0276122Y0019978D01*
X0276083Y0019842D01*
X0276040Y0019708D01*
X0275993Y0019575D01*
X0275943Y0019444D01*
X0275888Y0019314D01*
X0275831Y0019185D01*
X0275769Y0019058D01*
X0275704Y0018933D01*
X0275636Y0018810D01*
X0275564Y0018689D01*
X0275489Y0018570D01*
X0275410Y0018453D01*
X0275328Y0018338D01*
X0275243Y0018226D01*
X0275155Y0018116D01*
X0275064Y0018009D01*
X0274970Y0017904D01*
X0274873Y0017802D01*
X0274773Y0017703D01*
X0274670Y0017606D01*
X0274565Y0017513D01*
X0274457Y0017422D01*
X0274346Y0017335D01*
X0274233Y0017251D01*
X0274118Y0017170D01*
X0274001Y0017092D01*
X0273881Y0017018D01*
X0273759Y0016947D01*
X0273636Y0016879D01*
X0273510Y0016815D01*
X0273383Y0016755D01*
X0273254Y0016698D01*
X0273124Y0016644D01*
X0272992Y0016595D01*
X0272858Y0016549D01*
X0272724Y0016507D01*
X0272588Y0016469D01*
X0272452Y0016434D01*
X0272314Y0016404D01*
X0272176Y0016377D01*
X0272037Y0016355D01*
X0271897Y0016336D01*
X0271757Y0016321D01*
X0271617Y0016310D01*
X0271476Y0016303D01*
X0271335Y0016300D01*
X0271194Y0016301D01*
X0271054Y0016306D01*
X0270913Y0016315D01*
X0270773Y0016328D01*
X0270633Y0016345D01*
X0270493Y0016365D01*
X0270355Y0016390D01*
X0270217Y0016419D01*
X0270080Y0016451D01*
X0269944Y0016487D01*
X0269809Y0016528D01*
X0269675Y0016572D01*
X0269542Y0016619D01*
X0269411Y0016671D01*
X0269281Y0016726D01*
X0269153Y0016784D01*
X0269027Y0016847D01*
X0268902Y0016912D01*
X0268780Y0016982D01*
X0268659Y0017054D01*
X0268540Y0017130D01*
X0268424Y0017210D01*
X0268310Y0017293D01*
X0268198Y0017378D01*
X0268089Y0017467D01*
X0267982Y0017559D01*
X0267878Y0017654D01*
X0267777Y0017752D01*
X0267678Y0017853D01*
X0267583Y0017956D01*
X0267490Y0018062D01*
X0267400Y0018171D01*
X0267314Y0018282D01*
X0267230Y0018395D01*
X0267150Y0018511D01*
X0267073Y0018629D01*
X0267000Y0018749D01*
X0266929Y0018872D01*
X0266863Y0018996D01*
X0266800Y0019122D01*
X0266740Y0019249D01*
X0266684Y0019378D01*
X0266632Y0019509D01*
X0266583Y0019641D01*
X0266538Y0019775D01*
X0266497Y0019910D01*
X0266460Y0020046D01*
X0266426Y0020182D01*
X0266397Y0020320D01*
X0266371Y0020459D01*
X0266350Y0020598D01*
X0266332Y0020738D01*
X0266318Y0020878D01*
X0266308Y0021018D01*
X0266302Y0021159D01*
X0266300Y0021300D01*
X0325001Y0091300D02*
X0325003Y0091458D01*
X0325009Y0091616D01*
X0325019Y0091774D01*
X0325033Y0091932D01*
X0325051Y0092089D01*
X0325072Y0092246D01*
X0325098Y0092402D01*
X0325128Y0092558D01*
X0325161Y0092713D01*
X0325199Y0092866D01*
X0325240Y0093019D01*
X0325285Y0093171D01*
X0325334Y0093322D01*
X0325387Y0093471D01*
X0325443Y0093619D01*
X0325503Y0093765D01*
X0325567Y0093910D01*
X0325635Y0094053D01*
X0325706Y0094195D01*
X0325780Y0094335D01*
X0325858Y0094472D01*
X0325940Y0094608D01*
X0326024Y0094742D01*
X0326113Y0094873D01*
X0326204Y0095002D01*
X0326299Y0095129D01*
X0326396Y0095254D01*
X0326497Y0095376D01*
X0326601Y0095495D01*
X0326708Y0095612D01*
X0326818Y0095726D01*
X0326931Y0095837D01*
X0327046Y0095946D01*
X0327164Y0096051D01*
X0327285Y0096153D01*
X0327408Y0096253D01*
X0327534Y0096349D01*
X0327662Y0096442D01*
X0327792Y0096532D01*
X0327925Y0096618D01*
X0328060Y0096702D01*
X0328196Y0096781D01*
X0328335Y0096858D01*
X0328476Y0096930D01*
X0328618Y0097000D01*
X0328762Y0097065D01*
X0328908Y0097127D01*
X0329055Y0097185D01*
X0329204Y0097240D01*
X0329354Y0097291D01*
X0329505Y0097338D01*
X0329657Y0097381D01*
X0329810Y0097420D01*
X0329965Y0097456D01*
X0330120Y0097487D01*
X0330276Y0097515D01*
X0330432Y0097539D01*
X0330589Y0097559D01*
X0330747Y0097575D01*
X0330904Y0097587D01*
X0331063Y0097595D01*
X0331221Y0097599D01*
X0331379Y0097599D01*
X0331537Y0097595D01*
X0331696Y0097587D01*
X0331853Y0097575D01*
X0332011Y0097559D01*
X0332168Y0097539D01*
X0332324Y0097515D01*
X0332480Y0097487D01*
X0332635Y0097456D01*
X0332790Y0097420D01*
X0332943Y0097381D01*
X0333095Y0097338D01*
X0333246Y0097291D01*
X0333396Y0097240D01*
X0333545Y0097185D01*
X0333692Y0097127D01*
X0333838Y0097065D01*
X0333982Y0097000D01*
X0334124Y0096930D01*
X0334265Y0096858D01*
X0334404Y0096781D01*
X0334540Y0096702D01*
X0334675Y0096618D01*
X0334808Y0096532D01*
X0334938Y0096442D01*
X0335066Y0096349D01*
X0335192Y0096253D01*
X0335315Y0096153D01*
X0335436Y0096051D01*
X0335554Y0095946D01*
X0335669Y0095837D01*
X0335782Y0095726D01*
X0335892Y0095612D01*
X0335999Y0095495D01*
X0336103Y0095376D01*
X0336204Y0095254D01*
X0336301Y0095129D01*
X0336396Y0095002D01*
X0336487Y0094873D01*
X0336576Y0094742D01*
X0336660Y0094608D01*
X0336742Y0094472D01*
X0336820Y0094335D01*
X0336894Y0094195D01*
X0336965Y0094053D01*
X0337033Y0093910D01*
X0337097Y0093765D01*
X0337157Y0093619D01*
X0337213Y0093471D01*
X0337266Y0093322D01*
X0337315Y0093171D01*
X0337360Y0093019D01*
X0337401Y0092866D01*
X0337439Y0092713D01*
X0337472Y0092558D01*
X0337502Y0092402D01*
X0337528Y0092246D01*
X0337549Y0092089D01*
X0337567Y0091932D01*
X0337581Y0091774D01*
X0337591Y0091616D01*
X0337597Y0091458D01*
X0337599Y0091300D01*
X0337597Y0091142D01*
X0337591Y0090984D01*
X0337581Y0090826D01*
X0337567Y0090668D01*
X0337549Y0090511D01*
X0337528Y0090354D01*
X0337502Y0090198D01*
X0337472Y0090042D01*
X0337439Y0089887D01*
X0337401Y0089734D01*
X0337360Y0089581D01*
X0337315Y0089429D01*
X0337266Y0089278D01*
X0337213Y0089129D01*
X0337157Y0088981D01*
X0337097Y0088835D01*
X0337033Y0088690D01*
X0336965Y0088547D01*
X0336894Y0088405D01*
X0336820Y0088265D01*
X0336742Y0088128D01*
X0336660Y0087992D01*
X0336576Y0087858D01*
X0336487Y0087727D01*
X0336396Y0087598D01*
X0336301Y0087471D01*
X0336204Y0087346D01*
X0336103Y0087224D01*
X0335999Y0087105D01*
X0335892Y0086988D01*
X0335782Y0086874D01*
X0335669Y0086763D01*
X0335554Y0086654D01*
X0335436Y0086549D01*
X0335315Y0086447D01*
X0335192Y0086347D01*
X0335066Y0086251D01*
X0334938Y0086158D01*
X0334808Y0086068D01*
X0334675Y0085982D01*
X0334540Y0085898D01*
X0334404Y0085819D01*
X0334265Y0085742D01*
X0334124Y0085670D01*
X0333982Y0085600D01*
X0333838Y0085535D01*
X0333692Y0085473D01*
X0333545Y0085415D01*
X0333396Y0085360D01*
X0333246Y0085309D01*
X0333095Y0085262D01*
X0332943Y0085219D01*
X0332790Y0085180D01*
X0332635Y0085144D01*
X0332480Y0085113D01*
X0332324Y0085085D01*
X0332168Y0085061D01*
X0332011Y0085041D01*
X0331853Y0085025D01*
X0331696Y0085013D01*
X0331537Y0085005D01*
X0331379Y0085001D01*
X0331221Y0085001D01*
X0331063Y0085005D01*
X0330904Y0085013D01*
X0330747Y0085025D01*
X0330589Y0085041D01*
X0330432Y0085061D01*
X0330276Y0085085D01*
X0330120Y0085113D01*
X0329965Y0085144D01*
X0329810Y0085180D01*
X0329657Y0085219D01*
X0329505Y0085262D01*
X0329354Y0085309D01*
X0329204Y0085360D01*
X0329055Y0085415D01*
X0328908Y0085473D01*
X0328762Y0085535D01*
X0328618Y0085600D01*
X0328476Y0085670D01*
X0328335Y0085742D01*
X0328196Y0085819D01*
X0328060Y0085898D01*
X0327925Y0085982D01*
X0327792Y0086068D01*
X0327662Y0086158D01*
X0327534Y0086251D01*
X0327408Y0086347D01*
X0327285Y0086447D01*
X0327164Y0086549D01*
X0327046Y0086654D01*
X0326931Y0086763D01*
X0326818Y0086874D01*
X0326708Y0086988D01*
X0326601Y0087105D01*
X0326497Y0087224D01*
X0326396Y0087346D01*
X0326299Y0087471D01*
X0326204Y0087598D01*
X0326113Y0087727D01*
X0326024Y0087858D01*
X0325940Y0087992D01*
X0325858Y0088128D01*
X0325780Y0088265D01*
X0325706Y0088405D01*
X0325635Y0088547D01*
X0325567Y0088690D01*
X0325503Y0088835D01*
X0325443Y0088981D01*
X0325387Y0089129D01*
X0325334Y0089278D01*
X0325285Y0089429D01*
X0325240Y0089581D01*
X0325199Y0089734D01*
X0325161Y0089887D01*
X0325128Y0090042D01*
X0325098Y0090198D01*
X0325072Y0090354D01*
X0325051Y0090511D01*
X0325033Y0090668D01*
X0325019Y0090826D01*
X0325009Y0090984D01*
X0325003Y0091142D01*
X0325001Y0091300D01*
X0266300Y0156300D02*
X0266302Y0156441D01*
X0266308Y0156582D01*
X0266318Y0156722D01*
X0266332Y0156862D01*
X0266350Y0157002D01*
X0266371Y0157141D01*
X0266397Y0157280D01*
X0266426Y0157418D01*
X0266460Y0157554D01*
X0266497Y0157690D01*
X0266538Y0157825D01*
X0266583Y0157959D01*
X0266632Y0158091D01*
X0266684Y0158222D01*
X0266740Y0158351D01*
X0266800Y0158478D01*
X0266863Y0158604D01*
X0266929Y0158728D01*
X0267000Y0158851D01*
X0267073Y0158971D01*
X0267150Y0159089D01*
X0267230Y0159205D01*
X0267314Y0159318D01*
X0267400Y0159429D01*
X0267490Y0159538D01*
X0267583Y0159644D01*
X0267678Y0159747D01*
X0267777Y0159848D01*
X0267878Y0159946D01*
X0267982Y0160041D01*
X0268089Y0160133D01*
X0268198Y0160222D01*
X0268310Y0160307D01*
X0268424Y0160390D01*
X0268540Y0160470D01*
X0268659Y0160546D01*
X0268780Y0160618D01*
X0268902Y0160688D01*
X0269027Y0160753D01*
X0269153Y0160816D01*
X0269281Y0160874D01*
X0269411Y0160929D01*
X0269542Y0160981D01*
X0269675Y0161028D01*
X0269809Y0161072D01*
X0269944Y0161113D01*
X0270080Y0161149D01*
X0270217Y0161181D01*
X0270355Y0161210D01*
X0270493Y0161235D01*
X0270633Y0161255D01*
X0270773Y0161272D01*
X0270913Y0161285D01*
X0271054Y0161294D01*
X0271194Y0161299D01*
X0271335Y0161300D01*
X0271476Y0161297D01*
X0271617Y0161290D01*
X0271757Y0161279D01*
X0271897Y0161264D01*
X0272037Y0161245D01*
X0272176Y0161223D01*
X0272314Y0161196D01*
X0272452Y0161166D01*
X0272588Y0161131D01*
X0272724Y0161093D01*
X0272858Y0161051D01*
X0272992Y0161005D01*
X0273124Y0160956D01*
X0273254Y0160902D01*
X0273383Y0160845D01*
X0273510Y0160785D01*
X0273636Y0160721D01*
X0273759Y0160653D01*
X0273881Y0160582D01*
X0274001Y0160508D01*
X0274118Y0160430D01*
X0274233Y0160349D01*
X0274346Y0160265D01*
X0274457Y0160178D01*
X0274565Y0160087D01*
X0274670Y0159994D01*
X0274773Y0159897D01*
X0274873Y0159798D01*
X0274970Y0159696D01*
X0275064Y0159591D01*
X0275155Y0159484D01*
X0275243Y0159374D01*
X0275328Y0159262D01*
X0275410Y0159147D01*
X0275489Y0159030D01*
X0275564Y0158911D01*
X0275636Y0158790D01*
X0275704Y0158667D01*
X0275769Y0158542D01*
X0275831Y0158415D01*
X0275888Y0158286D01*
X0275943Y0158156D01*
X0275993Y0158025D01*
X0276040Y0157892D01*
X0276083Y0157758D01*
X0276122Y0157622D01*
X0276157Y0157486D01*
X0276189Y0157349D01*
X0276216Y0157211D01*
X0276240Y0157072D01*
X0276260Y0156932D01*
X0276276Y0156792D01*
X0276288Y0156652D01*
X0276296Y0156511D01*
X0276300Y0156370D01*
X0276300Y0156230D01*
X0276296Y0156089D01*
X0276288Y0155948D01*
X0276276Y0155808D01*
X0276260Y0155668D01*
X0276240Y0155528D01*
X0276216Y0155389D01*
X0276189Y0155251D01*
X0276157Y0155114D01*
X0276122Y0154978D01*
X0276083Y0154842D01*
X0276040Y0154708D01*
X0275993Y0154575D01*
X0275943Y0154444D01*
X0275888Y0154314D01*
X0275831Y0154185D01*
X0275769Y0154058D01*
X0275704Y0153933D01*
X0275636Y0153810D01*
X0275564Y0153689D01*
X0275489Y0153570D01*
X0275410Y0153453D01*
X0275328Y0153338D01*
X0275243Y0153226D01*
X0275155Y0153116D01*
X0275064Y0153009D01*
X0274970Y0152904D01*
X0274873Y0152802D01*
X0274773Y0152703D01*
X0274670Y0152606D01*
X0274565Y0152513D01*
X0274457Y0152422D01*
X0274346Y0152335D01*
X0274233Y0152251D01*
X0274118Y0152170D01*
X0274001Y0152092D01*
X0273881Y0152018D01*
X0273759Y0151947D01*
X0273636Y0151879D01*
X0273510Y0151815D01*
X0273383Y0151755D01*
X0273254Y0151698D01*
X0273124Y0151644D01*
X0272992Y0151595D01*
X0272858Y0151549D01*
X0272724Y0151507D01*
X0272588Y0151469D01*
X0272452Y0151434D01*
X0272314Y0151404D01*
X0272176Y0151377D01*
X0272037Y0151355D01*
X0271897Y0151336D01*
X0271757Y0151321D01*
X0271617Y0151310D01*
X0271476Y0151303D01*
X0271335Y0151300D01*
X0271194Y0151301D01*
X0271054Y0151306D01*
X0270913Y0151315D01*
X0270773Y0151328D01*
X0270633Y0151345D01*
X0270493Y0151365D01*
X0270355Y0151390D01*
X0270217Y0151419D01*
X0270080Y0151451D01*
X0269944Y0151487D01*
X0269809Y0151528D01*
X0269675Y0151572D01*
X0269542Y0151619D01*
X0269411Y0151671D01*
X0269281Y0151726D01*
X0269153Y0151784D01*
X0269027Y0151847D01*
X0268902Y0151912D01*
X0268780Y0151982D01*
X0268659Y0152054D01*
X0268540Y0152130D01*
X0268424Y0152210D01*
X0268310Y0152293D01*
X0268198Y0152378D01*
X0268089Y0152467D01*
X0267982Y0152559D01*
X0267878Y0152654D01*
X0267777Y0152752D01*
X0267678Y0152853D01*
X0267583Y0152956D01*
X0267490Y0153062D01*
X0267400Y0153171D01*
X0267314Y0153282D01*
X0267230Y0153395D01*
X0267150Y0153511D01*
X0267073Y0153629D01*
X0267000Y0153749D01*
X0266929Y0153872D01*
X0266863Y0153996D01*
X0266800Y0154122D01*
X0266740Y0154249D01*
X0266684Y0154378D01*
X0266632Y0154509D01*
X0266583Y0154641D01*
X0266538Y0154775D01*
X0266497Y0154910D01*
X0266460Y0155046D01*
X0266426Y0155182D01*
X0266397Y0155320D01*
X0266371Y0155459D01*
X0266350Y0155598D01*
X0266332Y0155738D01*
X0266318Y0155878D01*
X0266308Y0156018D01*
X0266302Y0156159D01*
X0266300Y0156300D01*
X0271300Y0276300D02*
X0271302Y0276441D01*
X0271308Y0276582D01*
X0271318Y0276722D01*
X0271332Y0276862D01*
X0271350Y0277002D01*
X0271371Y0277141D01*
X0271397Y0277280D01*
X0271426Y0277418D01*
X0271460Y0277554D01*
X0271497Y0277690D01*
X0271538Y0277825D01*
X0271583Y0277959D01*
X0271632Y0278091D01*
X0271684Y0278222D01*
X0271740Y0278351D01*
X0271800Y0278478D01*
X0271863Y0278604D01*
X0271929Y0278728D01*
X0272000Y0278851D01*
X0272073Y0278971D01*
X0272150Y0279089D01*
X0272230Y0279205D01*
X0272314Y0279318D01*
X0272400Y0279429D01*
X0272490Y0279538D01*
X0272583Y0279644D01*
X0272678Y0279747D01*
X0272777Y0279848D01*
X0272878Y0279946D01*
X0272982Y0280041D01*
X0273089Y0280133D01*
X0273198Y0280222D01*
X0273310Y0280307D01*
X0273424Y0280390D01*
X0273540Y0280470D01*
X0273659Y0280546D01*
X0273780Y0280618D01*
X0273902Y0280688D01*
X0274027Y0280753D01*
X0274153Y0280816D01*
X0274281Y0280874D01*
X0274411Y0280929D01*
X0274542Y0280981D01*
X0274675Y0281028D01*
X0274809Y0281072D01*
X0274944Y0281113D01*
X0275080Y0281149D01*
X0275217Y0281181D01*
X0275355Y0281210D01*
X0275493Y0281235D01*
X0275633Y0281255D01*
X0275773Y0281272D01*
X0275913Y0281285D01*
X0276054Y0281294D01*
X0276194Y0281299D01*
X0276335Y0281300D01*
X0276476Y0281297D01*
X0276617Y0281290D01*
X0276757Y0281279D01*
X0276897Y0281264D01*
X0277037Y0281245D01*
X0277176Y0281223D01*
X0277314Y0281196D01*
X0277452Y0281166D01*
X0277588Y0281131D01*
X0277724Y0281093D01*
X0277858Y0281051D01*
X0277992Y0281005D01*
X0278124Y0280956D01*
X0278254Y0280902D01*
X0278383Y0280845D01*
X0278510Y0280785D01*
X0278636Y0280721D01*
X0278759Y0280653D01*
X0278881Y0280582D01*
X0279001Y0280508D01*
X0279118Y0280430D01*
X0279233Y0280349D01*
X0279346Y0280265D01*
X0279457Y0280178D01*
X0279565Y0280087D01*
X0279670Y0279994D01*
X0279773Y0279897D01*
X0279873Y0279798D01*
X0279970Y0279696D01*
X0280064Y0279591D01*
X0280155Y0279484D01*
X0280243Y0279374D01*
X0280328Y0279262D01*
X0280410Y0279147D01*
X0280489Y0279030D01*
X0280564Y0278911D01*
X0280636Y0278790D01*
X0280704Y0278667D01*
X0280769Y0278542D01*
X0280831Y0278415D01*
X0280888Y0278286D01*
X0280943Y0278156D01*
X0280993Y0278025D01*
X0281040Y0277892D01*
X0281083Y0277758D01*
X0281122Y0277622D01*
X0281157Y0277486D01*
X0281189Y0277349D01*
X0281216Y0277211D01*
X0281240Y0277072D01*
X0281260Y0276932D01*
X0281276Y0276792D01*
X0281288Y0276652D01*
X0281296Y0276511D01*
X0281300Y0276370D01*
X0281300Y0276230D01*
X0281296Y0276089D01*
X0281288Y0275948D01*
X0281276Y0275808D01*
X0281260Y0275668D01*
X0281240Y0275528D01*
X0281216Y0275389D01*
X0281189Y0275251D01*
X0281157Y0275114D01*
X0281122Y0274978D01*
X0281083Y0274842D01*
X0281040Y0274708D01*
X0280993Y0274575D01*
X0280943Y0274444D01*
X0280888Y0274314D01*
X0280831Y0274185D01*
X0280769Y0274058D01*
X0280704Y0273933D01*
X0280636Y0273810D01*
X0280564Y0273689D01*
X0280489Y0273570D01*
X0280410Y0273453D01*
X0280328Y0273338D01*
X0280243Y0273226D01*
X0280155Y0273116D01*
X0280064Y0273009D01*
X0279970Y0272904D01*
X0279873Y0272802D01*
X0279773Y0272703D01*
X0279670Y0272606D01*
X0279565Y0272513D01*
X0279457Y0272422D01*
X0279346Y0272335D01*
X0279233Y0272251D01*
X0279118Y0272170D01*
X0279001Y0272092D01*
X0278881Y0272018D01*
X0278759Y0271947D01*
X0278636Y0271879D01*
X0278510Y0271815D01*
X0278383Y0271755D01*
X0278254Y0271698D01*
X0278124Y0271644D01*
X0277992Y0271595D01*
X0277858Y0271549D01*
X0277724Y0271507D01*
X0277588Y0271469D01*
X0277452Y0271434D01*
X0277314Y0271404D01*
X0277176Y0271377D01*
X0277037Y0271355D01*
X0276897Y0271336D01*
X0276757Y0271321D01*
X0276617Y0271310D01*
X0276476Y0271303D01*
X0276335Y0271300D01*
X0276194Y0271301D01*
X0276054Y0271306D01*
X0275913Y0271315D01*
X0275773Y0271328D01*
X0275633Y0271345D01*
X0275493Y0271365D01*
X0275355Y0271390D01*
X0275217Y0271419D01*
X0275080Y0271451D01*
X0274944Y0271487D01*
X0274809Y0271528D01*
X0274675Y0271572D01*
X0274542Y0271619D01*
X0274411Y0271671D01*
X0274281Y0271726D01*
X0274153Y0271784D01*
X0274027Y0271847D01*
X0273902Y0271912D01*
X0273780Y0271982D01*
X0273659Y0272054D01*
X0273540Y0272130D01*
X0273424Y0272210D01*
X0273310Y0272293D01*
X0273198Y0272378D01*
X0273089Y0272467D01*
X0272982Y0272559D01*
X0272878Y0272654D01*
X0272777Y0272752D01*
X0272678Y0272853D01*
X0272583Y0272956D01*
X0272490Y0273062D01*
X0272400Y0273171D01*
X0272314Y0273282D01*
X0272230Y0273395D01*
X0272150Y0273511D01*
X0272073Y0273629D01*
X0272000Y0273749D01*
X0271929Y0273872D01*
X0271863Y0273996D01*
X0271800Y0274122D01*
X0271740Y0274249D01*
X0271684Y0274378D01*
X0271632Y0274509D01*
X0271583Y0274641D01*
X0271538Y0274775D01*
X0271497Y0274910D01*
X0271460Y0275046D01*
X0271426Y0275182D01*
X0271397Y0275320D01*
X0271371Y0275459D01*
X0271350Y0275598D01*
X0271332Y0275738D01*
X0271318Y0275878D01*
X0271308Y0276018D01*
X0271302Y0276159D01*
X0271300Y0276300D01*
X0271300Y0396300D02*
X0271302Y0396441D01*
X0271308Y0396582D01*
X0271318Y0396722D01*
X0271332Y0396862D01*
X0271350Y0397002D01*
X0271371Y0397141D01*
X0271397Y0397280D01*
X0271426Y0397418D01*
X0271460Y0397554D01*
X0271497Y0397690D01*
X0271538Y0397825D01*
X0271583Y0397959D01*
X0271632Y0398091D01*
X0271684Y0398222D01*
X0271740Y0398351D01*
X0271800Y0398478D01*
X0271863Y0398604D01*
X0271929Y0398728D01*
X0272000Y0398851D01*
X0272073Y0398971D01*
X0272150Y0399089D01*
X0272230Y0399205D01*
X0272314Y0399318D01*
X0272400Y0399429D01*
X0272490Y0399538D01*
X0272583Y0399644D01*
X0272678Y0399747D01*
X0272777Y0399848D01*
X0272878Y0399946D01*
X0272982Y0400041D01*
X0273089Y0400133D01*
X0273198Y0400222D01*
X0273310Y0400307D01*
X0273424Y0400390D01*
X0273540Y0400470D01*
X0273659Y0400546D01*
X0273780Y0400618D01*
X0273902Y0400688D01*
X0274027Y0400753D01*
X0274153Y0400816D01*
X0274281Y0400874D01*
X0274411Y0400929D01*
X0274542Y0400981D01*
X0274675Y0401028D01*
X0274809Y0401072D01*
X0274944Y0401113D01*
X0275080Y0401149D01*
X0275217Y0401181D01*
X0275355Y0401210D01*
X0275493Y0401235D01*
X0275633Y0401255D01*
X0275773Y0401272D01*
X0275913Y0401285D01*
X0276054Y0401294D01*
X0276194Y0401299D01*
X0276335Y0401300D01*
X0276476Y0401297D01*
X0276617Y0401290D01*
X0276757Y0401279D01*
X0276897Y0401264D01*
X0277037Y0401245D01*
X0277176Y0401223D01*
X0277314Y0401196D01*
X0277452Y0401166D01*
X0277588Y0401131D01*
X0277724Y0401093D01*
X0277858Y0401051D01*
X0277992Y0401005D01*
X0278124Y0400956D01*
X0278254Y0400902D01*
X0278383Y0400845D01*
X0278510Y0400785D01*
X0278636Y0400721D01*
X0278759Y0400653D01*
X0278881Y0400582D01*
X0279001Y0400508D01*
X0279118Y0400430D01*
X0279233Y0400349D01*
X0279346Y0400265D01*
X0279457Y0400178D01*
X0279565Y0400087D01*
X0279670Y0399994D01*
X0279773Y0399897D01*
X0279873Y0399798D01*
X0279970Y0399696D01*
X0280064Y0399591D01*
X0280155Y0399484D01*
X0280243Y0399374D01*
X0280328Y0399262D01*
X0280410Y0399147D01*
X0280489Y0399030D01*
X0280564Y0398911D01*
X0280636Y0398790D01*
X0280704Y0398667D01*
X0280769Y0398542D01*
X0280831Y0398415D01*
X0280888Y0398286D01*
X0280943Y0398156D01*
X0280993Y0398025D01*
X0281040Y0397892D01*
X0281083Y0397758D01*
X0281122Y0397622D01*
X0281157Y0397486D01*
X0281189Y0397349D01*
X0281216Y0397211D01*
X0281240Y0397072D01*
X0281260Y0396932D01*
X0281276Y0396792D01*
X0281288Y0396652D01*
X0281296Y0396511D01*
X0281300Y0396370D01*
X0281300Y0396230D01*
X0281296Y0396089D01*
X0281288Y0395948D01*
X0281276Y0395808D01*
X0281260Y0395668D01*
X0281240Y0395528D01*
X0281216Y0395389D01*
X0281189Y0395251D01*
X0281157Y0395114D01*
X0281122Y0394978D01*
X0281083Y0394842D01*
X0281040Y0394708D01*
X0280993Y0394575D01*
X0280943Y0394444D01*
X0280888Y0394314D01*
X0280831Y0394185D01*
X0280769Y0394058D01*
X0280704Y0393933D01*
X0280636Y0393810D01*
X0280564Y0393689D01*
X0280489Y0393570D01*
X0280410Y0393453D01*
X0280328Y0393338D01*
X0280243Y0393226D01*
X0280155Y0393116D01*
X0280064Y0393009D01*
X0279970Y0392904D01*
X0279873Y0392802D01*
X0279773Y0392703D01*
X0279670Y0392606D01*
X0279565Y0392513D01*
X0279457Y0392422D01*
X0279346Y0392335D01*
X0279233Y0392251D01*
X0279118Y0392170D01*
X0279001Y0392092D01*
X0278881Y0392018D01*
X0278759Y0391947D01*
X0278636Y0391879D01*
X0278510Y0391815D01*
X0278383Y0391755D01*
X0278254Y0391698D01*
X0278124Y0391644D01*
X0277992Y0391595D01*
X0277858Y0391549D01*
X0277724Y0391507D01*
X0277588Y0391469D01*
X0277452Y0391434D01*
X0277314Y0391404D01*
X0277176Y0391377D01*
X0277037Y0391355D01*
X0276897Y0391336D01*
X0276757Y0391321D01*
X0276617Y0391310D01*
X0276476Y0391303D01*
X0276335Y0391300D01*
X0276194Y0391301D01*
X0276054Y0391306D01*
X0275913Y0391315D01*
X0275773Y0391328D01*
X0275633Y0391345D01*
X0275493Y0391365D01*
X0275355Y0391390D01*
X0275217Y0391419D01*
X0275080Y0391451D01*
X0274944Y0391487D01*
X0274809Y0391528D01*
X0274675Y0391572D01*
X0274542Y0391619D01*
X0274411Y0391671D01*
X0274281Y0391726D01*
X0274153Y0391784D01*
X0274027Y0391847D01*
X0273902Y0391912D01*
X0273780Y0391982D01*
X0273659Y0392054D01*
X0273540Y0392130D01*
X0273424Y0392210D01*
X0273310Y0392293D01*
X0273198Y0392378D01*
X0273089Y0392467D01*
X0272982Y0392559D01*
X0272878Y0392654D01*
X0272777Y0392752D01*
X0272678Y0392853D01*
X0272583Y0392956D01*
X0272490Y0393062D01*
X0272400Y0393171D01*
X0272314Y0393282D01*
X0272230Y0393395D01*
X0272150Y0393511D01*
X0272073Y0393629D01*
X0272000Y0393749D01*
X0271929Y0393872D01*
X0271863Y0393996D01*
X0271800Y0394122D01*
X0271740Y0394249D01*
X0271684Y0394378D01*
X0271632Y0394509D01*
X0271583Y0394641D01*
X0271538Y0394775D01*
X0271497Y0394910D01*
X0271460Y0395046D01*
X0271426Y0395182D01*
X0271397Y0395320D01*
X0271371Y0395459D01*
X0271350Y0395598D01*
X0271332Y0395738D01*
X0271318Y0395878D01*
X0271308Y0396018D01*
X0271302Y0396159D01*
X0271300Y0396300D01*
X0325001Y0411300D02*
X0325003Y0411458D01*
X0325009Y0411616D01*
X0325019Y0411774D01*
X0325033Y0411932D01*
X0325051Y0412089D01*
X0325072Y0412246D01*
X0325098Y0412402D01*
X0325128Y0412558D01*
X0325161Y0412713D01*
X0325199Y0412866D01*
X0325240Y0413019D01*
X0325285Y0413171D01*
X0325334Y0413322D01*
X0325387Y0413471D01*
X0325443Y0413619D01*
X0325503Y0413765D01*
X0325567Y0413910D01*
X0325635Y0414053D01*
X0325706Y0414195D01*
X0325780Y0414335D01*
X0325858Y0414472D01*
X0325940Y0414608D01*
X0326024Y0414742D01*
X0326113Y0414873D01*
X0326204Y0415002D01*
X0326299Y0415129D01*
X0326396Y0415254D01*
X0326497Y0415376D01*
X0326601Y0415495D01*
X0326708Y0415612D01*
X0326818Y0415726D01*
X0326931Y0415837D01*
X0327046Y0415946D01*
X0327164Y0416051D01*
X0327285Y0416153D01*
X0327408Y0416253D01*
X0327534Y0416349D01*
X0327662Y0416442D01*
X0327792Y0416532D01*
X0327925Y0416618D01*
X0328060Y0416702D01*
X0328196Y0416781D01*
X0328335Y0416858D01*
X0328476Y0416930D01*
X0328618Y0417000D01*
X0328762Y0417065D01*
X0328908Y0417127D01*
X0329055Y0417185D01*
X0329204Y0417240D01*
X0329354Y0417291D01*
X0329505Y0417338D01*
X0329657Y0417381D01*
X0329810Y0417420D01*
X0329965Y0417456D01*
X0330120Y0417487D01*
X0330276Y0417515D01*
X0330432Y0417539D01*
X0330589Y0417559D01*
X0330747Y0417575D01*
X0330904Y0417587D01*
X0331063Y0417595D01*
X0331221Y0417599D01*
X0331379Y0417599D01*
X0331537Y0417595D01*
X0331696Y0417587D01*
X0331853Y0417575D01*
X0332011Y0417559D01*
X0332168Y0417539D01*
X0332324Y0417515D01*
X0332480Y0417487D01*
X0332635Y0417456D01*
X0332790Y0417420D01*
X0332943Y0417381D01*
X0333095Y0417338D01*
X0333246Y0417291D01*
X0333396Y0417240D01*
X0333545Y0417185D01*
X0333692Y0417127D01*
X0333838Y0417065D01*
X0333982Y0417000D01*
X0334124Y0416930D01*
X0334265Y0416858D01*
X0334404Y0416781D01*
X0334540Y0416702D01*
X0334675Y0416618D01*
X0334808Y0416532D01*
X0334938Y0416442D01*
X0335066Y0416349D01*
X0335192Y0416253D01*
X0335315Y0416153D01*
X0335436Y0416051D01*
X0335554Y0415946D01*
X0335669Y0415837D01*
X0335782Y0415726D01*
X0335892Y0415612D01*
X0335999Y0415495D01*
X0336103Y0415376D01*
X0336204Y0415254D01*
X0336301Y0415129D01*
X0336396Y0415002D01*
X0336487Y0414873D01*
X0336576Y0414742D01*
X0336660Y0414608D01*
X0336742Y0414472D01*
X0336820Y0414335D01*
X0336894Y0414195D01*
X0336965Y0414053D01*
X0337033Y0413910D01*
X0337097Y0413765D01*
X0337157Y0413619D01*
X0337213Y0413471D01*
X0337266Y0413322D01*
X0337315Y0413171D01*
X0337360Y0413019D01*
X0337401Y0412866D01*
X0337439Y0412713D01*
X0337472Y0412558D01*
X0337502Y0412402D01*
X0337528Y0412246D01*
X0337549Y0412089D01*
X0337567Y0411932D01*
X0337581Y0411774D01*
X0337591Y0411616D01*
X0337597Y0411458D01*
X0337599Y0411300D01*
X0337597Y0411142D01*
X0337591Y0410984D01*
X0337581Y0410826D01*
X0337567Y0410668D01*
X0337549Y0410511D01*
X0337528Y0410354D01*
X0337502Y0410198D01*
X0337472Y0410042D01*
X0337439Y0409887D01*
X0337401Y0409734D01*
X0337360Y0409581D01*
X0337315Y0409429D01*
X0337266Y0409278D01*
X0337213Y0409129D01*
X0337157Y0408981D01*
X0337097Y0408835D01*
X0337033Y0408690D01*
X0336965Y0408547D01*
X0336894Y0408405D01*
X0336820Y0408265D01*
X0336742Y0408128D01*
X0336660Y0407992D01*
X0336576Y0407858D01*
X0336487Y0407727D01*
X0336396Y0407598D01*
X0336301Y0407471D01*
X0336204Y0407346D01*
X0336103Y0407224D01*
X0335999Y0407105D01*
X0335892Y0406988D01*
X0335782Y0406874D01*
X0335669Y0406763D01*
X0335554Y0406654D01*
X0335436Y0406549D01*
X0335315Y0406447D01*
X0335192Y0406347D01*
X0335066Y0406251D01*
X0334938Y0406158D01*
X0334808Y0406068D01*
X0334675Y0405982D01*
X0334540Y0405898D01*
X0334404Y0405819D01*
X0334265Y0405742D01*
X0334124Y0405670D01*
X0333982Y0405600D01*
X0333838Y0405535D01*
X0333692Y0405473D01*
X0333545Y0405415D01*
X0333396Y0405360D01*
X0333246Y0405309D01*
X0333095Y0405262D01*
X0332943Y0405219D01*
X0332790Y0405180D01*
X0332635Y0405144D01*
X0332480Y0405113D01*
X0332324Y0405085D01*
X0332168Y0405061D01*
X0332011Y0405041D01*
X0331853Y0405025D01*
X0331696Y0405013D01*
X0331537Y0405005D01*
X0331379Y0405001D01*
X0331221Y0405001D01*
X0331063Y0405005D01*
X0330904Y0405013D01*
X0330747Y0405025D01*
X0330589Y0405041D01*
X0330432Y0405061D01*
X0330276Y0405085D01*
X0330120Y0405113D01*
X0329965Y0405144D01*
X0329810Y0405180D01*
X0329657Y0405219D01*
X0329505Y0405262D01*
X0329354Y0405309D01*
X0329204Y0405360D01*
X0329055Y0405415D01*
X0328908Y0405473D01*
X0328762Y0405535D01*
X0328618Y0405600D01*
X0328476Y0405670D01*
X0328335Y0405742D01*
X0328196Y0405819D01*
X0328060Y0405898D01*
X0327925Y0405982D01*
X0327792Y0406068D01*
X0327662Y0406158D01*
X0327534Y0406251D01*
X0327408Y0406347D01*
X0327285Y0406447D01*
X0327164Y0406549D01*
X0327046Y0406654D01*
X0326931Y0406763D01*
X0326818Y0406874D01*
X0326708Y0406988D01*
X0326601Y0407105D01*
X0326497Y0407224D01*
X0326396Y0407346D01*
X0326299Y0407471D01*
X0326204Y0407598D01*
X0326113Y0407727D01*
X0326024Y0407858D01*
X0325940Y0407992D01*
X0325858Y0408128D01*
X0325780Y0408265D01*
X0325706Y0408405D01*
X0325635Y0408547D01*
X0325567Y0408690D01*
X0325503Y0408835D01*
X0325443Y0408981D01*
X0325387Y0409129D01*
X0325334Y0409278D01*
X0325285Y0409429D01*
X0325240Y0409581D01*
X0325199Y0409734D01*
X0325161Y0409887D01*
X0325128Y0410042D01*
X0325098Y0410198D01*
X0325072Y0410354D01*
X0325051Y0410511D01*
X0325033Y0410668D01*
X0325019Y0410826D01*
X0325009Y0410984D01*
X0325003Y0411142D01*
X0325001Y0411300D01*
X0515001Y0411300D02*
X0515003Y0411458D01*
X0515009Y0411616D01*
X0515019Y0411774D01*
X0515033Y0411932D01*
X0515051Y0412089D01*
X0515072Y0412246D01*
X0515098Y0412402D01*
X0515128Y0412558D01*
X0515161Y0412713D01*
X0515199Y0412866D01*
X0515240Y0413019D01*
X0515285Y0413171D01*
X0515334Y0413322D01*
X0515387Y0413471D01*
X0515443Y0413619D01*
X0515503Y0413765D01*
X0515567Y0413910D01*
X0515635Y0414053D01*
X0515706Y0414195D01*
X0515780Y0414335D01*
X0515858Y0414472D01*
X0515940Y0414608D01*
X0516024Y0414742D01*
X0516113Y0414873D01*
X0516204Y0415002D01*
X0516299Y0415129D01*
X0516396Y0415254D01*
X0516497Y0415376D01*
X0516601Y0415495D01*
X0516708Y0415612D01*
X0516818Y0415726D01*
X0516931Y0415837D01*
X0517046Y0415946D01*
X0517164Y0416051D01*
X0517285Y0416153D01*
X0517408Y0416253D01*
X0517534Y0416349D01*
X0517662Y0416442D01*
X0517792Y0416532D01*
X0517925Y0416618D01*
X0518060Y0416702D01*
X0518196Y0416781D01*
X0518335Y0416858D01*
X0518476Y0416930D01*
X0518618Y0417000D01*
X0518762Y0417065D01*
X0518908Y0417127D01*
X0519055Y0417185D01*
X0519204Y0417240D01*
X0519354Y0417291D01*
X0519505Y0417338D01*
X0519657Y0417381D01*
X0519810Y0417420D01*
X0519965Y0417456D01*
X0520120Y0417487D01*
X0520276Y0417515D01*
X0520432Y0417539D01*
X0520589Y0417559D01*
X0520747Y0417575D01*
X0520904Y0417587D01*
X0521063Y0417595D01*
X0521221Y0417599D01*
X0521379Y0417599D01*
X0521537Y0417595D01*
X0521696Y0417587D01*
X0521853Y0417575D01*
X0522011Y0417559D01*
X0522168Y0417539D01*
X0522324Y0417515D01*
X0522480Y0417487D01*
X0522635Y0417456D01*
X0522790Y0417420D01*
X0522943Y0417381D01*
X0523095Y0417338D01*
X0523246Y0417291D01*
X0523396Y0417240D01*
X0523545Y0417185D01*
X0523692Y0417127D01*
X0523838Y0417065D01*
X0523982Y0417000D01*
X0524124Y0416930D01*
X0524265Y0416858D01*
X0524404Y0416781D01*
X0524540Y0416702D01*
X0524675Y0416618D01*
X0524808Y0416532D01*
X0524938Y0416442D01*
X0525066Y0416349D01*
X0525192Y0416253D01*
X0525315Y0416153D01*
X0525436Y0416051D01*
X0525554Y0415946D01*
X0525669Y0415837D01*
X0525782Y0415726D01*
X0525892Y0415612D01*
X0525999Y0415495D01*
X0526103Y0415376D01*
X0526204Y0415254D01*
X0526301Y0415129D01*
X0526396Y0415002D01*
X0526487Y0414873D01*
X0526576Y0414742D01*
X0526660Y0414608D01*
X0526742Y0414472D01*
X0526820Y0414335D01*
X0526894Y0414195D01*
X0526965Y0414053D01*
X0527033Y0413910D01*
X0527097Y0413765D01*
X0527157Y0413619D01*
X0527213Y0413471D01*
X0527266Y0413322D01*
X0527315Y0413171D01*
X0527360Y0413019D01*
X0527401Y0412866D01*
X0527439Y0412713D01*
X0527472Y0412558D01*
X0527502Y0412402D01*
X0527528Y0412246D01*
X0527549Y0412089D01*
X0527567Y0411932D01*
X0527581Y0411774D01*
X0527591Y0411616D01*
X0527597Y0411458D01*
X0527599Y0411300D01*
X0527597Y0411142D01*
X0527591Y0410984D01*
X0527581Y0410826D01*
X0527567Y0410668D01*
X0527549Y0410511D01*
X0527528Y0410354D01*
X0527502Y0410198D01*
X0527472Y0410042D01*
X0527439Y0409887D01*
X0527401Y0409734D01*
X0527360Y0409581D01*
X0527315Y0409429D01*
X0527266Y0409278D01*
X0527213Y0409129D01*
X0527157Y0408981D01*
X0527097Y0408835D01*
X0527033Y0408690D01*
X0526965Y0408547D01*
X0526894Y0408405D01*
X0526820Y0408265D01*
X0526742Y0408128D01*
X0526660Y0407992D01*
X0526576Y0407858D01*
X0526487Y0407727D01*
X0526396Y0407598D01*
X0526301Y0407471D01*
X0526204Y0407346D01*
X0526103Y0407224D01*
X0525999Y0407105D01*
X0525892Y0406988D01*
X0525782Y0406874D01*
X0525669Y0406763D01*
X0525554Y0406654D01*
X0525436Y0406549D01*
X0525315Y0406447D01*
X0525192Y0406347D01*
X0525066Y0406251D01*
X0524938Y0406158D01*
X0524808Y0406068D01*
X0524675Y0405982D01*
X0524540Y0405898D01*
X0524404Y0405819D01*
X0524265Y0405742D01*
X0524124Y0405670D01*
X0523982Y0405600D01*
X0523838Y0405535D01*
X0523692Y0405473D01*
X0523545Y0405415D01*
X0523396Y0405360D01*
X0523246Y0405309D01*
X0523095Y0405262D01*
X0522943Y0405219D01*
X0522790Y0405180D01*
X0522635Y0405144D01*
X0522480Y0405113D01*
X0522324Y0405085D01*
X0522168Y0405061D01*
X0522011Y0405041D01*
X0521853Y0405025D01*
X0521696Y0405013D01*
X0521537Y0405005D01*
X0521379Y0405001D01*
X0521221Y0405001D01*
X0521063Y0405005D01*
X0520904Y0405013D01*
X0520747Y0405025D01*
X0520589Y0405041D01*
X0520432Y0405061D01*
X0520276Y0405085D01*
X0520120Y0405113D01*
X0519965Y0405144D01*
X0519810Y0405180D01*
X0519657Y0405219D01*
X0519505Y0405262D01*
X0519354Y0405309D01*
X0519204Y0405360D01*
X0519055Y0405415D01*
X0518908Y0405473D01*
X0518762Y0405535D01*
X0518618Y0405600D01*
X0518476Y0405670D01*
X0518335Y0405742D01*
X0518196Y0405819D01*
X0518060Y0405898D01*
X0517925Y0405982D01*
X0517792Y0406068D01*
X0517662Y0406158D01*
X0517534Y0406251D01*
X0517408Y0406347D01*
X0517285Y0406447D01*
X0517164Y0406549D01*
X0517046Y0406654D01*
X0516931Y0406763D01*
X0516818Y0406874D01*
X0516708Y0406988D01*
X0516601Y0407105D01*
X0516497Y0407224D01*
X0516396Y0407346D01*
X0516299Y0407471D01*
X0516204Y0407598D01*
X0516113Y0407727D01*
X0516024Y0407858D01*
X0515940Y0407992D01*
X0515858Y0408128D01*
X0515780Y0408265D01*
X0515706Y0408405D01*
X0515635Y0408547D01*
X0515567Y0408690D01*
X0515503Y0408835D01*
X0515443Y0408981D01*
X0515387Y0409129D01*
X0515334Y0409278D01*
X0515285Y0409429D01*
X0515240Y0409581D01*
X0515199Y0409734D01*
X0515161Y0409887D01*
X0515128Y0410042D01*
X0515098Y0410198D01*
X0515072Y0410354D01*
X0515051Y0410511D01*
X0515033Y0410668D01*
X0515019Y0410826D01*
X0515009Y0410984D01*
X0515003Y0411142D01*
X0515001Y0411300D01*
X0427363Y0179300D02*
X0427365Y0179425D01*
X0427371Y0179550D01*
X0427381Y0179674D01*
X0427395Y0179798D01*
X0427412Y0179922D01*
X0427434Y0180045D01*
X0427460Y0180167D01*
X0427489Y0180289D01*
X0427522Y0180409D01*
X0427560Y0180528D01*
X0427600Y0180647D01*
X0427645Y0180763D01*
X0427693Y0180878D01*
X0427745Y0180992D01*
X0427801Y0181104D01*
X0427860Y0181214D01*
X0427922Y0181322D01*
X0427988Y0181429D01*
X0428057Y0181533D01*
X0428130Y0181634D01*
X0428205Y0181734D01*
X0428284Y0181831D01*
X0428366Y0181925D01*
X0428451Y0182017D01*
X0428538Y0182106D01*
X0428629Y0182192D01*
X0428722Y0182275D01*
X0428818Y0182356D01*
X0428916Y0182433D01*
X0429016Y0182507D01*
X0429119Y0182578D01*
X0429224Y0182645D01*
X0429332Y0182710D01*
X0429441Y0182770D01*
X0429552Y0182828D01*
X0429665Y0182881D01*
X0429779Y0182931D01*
X0429895Y0182978D01*
X0430012Y0183020D01*
X0430131Y0183059D01*
X0430251Y0183095D01*
X0430372Y0183126D01*
X0430494Y0183154D01*
X0430616Y0183177D01*
X0430740Y0183197D01*
X0430864Y0183213D01*
X0430988Y0183225D01*
X0431113Y0183233D01*
X0431238Y0183237D01*
X0431362Y0183237D01*
X0431487Y0183233D01*
X0431612Y0183225D01*
X0431736Y0183213D01*
X0431860Y0183197D01*
X0431984Y0183177D01*
X0432106Y0183154D01*
X0432228Y0183126D01*
X0432349Y0183095D01*
X0432469Y0183059D01*
X0432588Y0183020D01*
X0432705Y0182978D01*
X0432821Y0182931D01*
X0432935Y0182881D01*
X0433048Y0182828D01*
X0433159Y0182770D01*
X0433269Y0182710D01*
X0433376Y0182645D01*
X0433481Y0182578D01*
X0433584Y0182507D01*
X0433684Y0182433D01*
X0433782Y0182356D01*
X0433878Y0182275D01*
X0433971Y0182192D01*
X0434062Y0182106D01*
X0434149Y0182017D01*
X0434234Y0181925D01*
X0434316Y0181831D01*
X0434395Y0181734D01*
X0434470Y0181634D01*
X0434543Y0181533D01*
X0434612Y0181429D01*
X0434678Y0181322D01*
X0434740Y0181214D01*
X0434799Y0181104D01*
X0434855Y0180992D01*
X0434907Y0180878D01*
X0434955Y0180763D01*
X0435000Y0180647D01*
X0435040Y0180528D01*
X0435078Y0180409D01*
X0435111Y0180289D01*
X0435140Y0180167D01*
X0435166Y0180045D01*
X0435188Y0179922D01*
X0435205Y0179798D01*
X0435219Y0179674D01*
X0435229Y0179550D01*
X0435235Y0179425D01*
X0435237Y0179300D01*
X0435235Y0179175D01*
X0435229Y0179050D01*
X0435219Y0178926D01*
X0435205Y0178802D01*
X0435188Y0178678D01*
X0435166Y0178555D01*
X0435140Y0178433D01*
X0435111Y0178311D01*
X0435078Y0178191D01*
X0435040Y0178072D01*
X0435000Y0177953D01*
X0434955Y0177837D01*
X0434907Y0177722D01*
X0434855Y0177608D01*
X0434799Y0177496D01*
X0434740Y0177386D01*
X0434678Y0177278D01*
X0434612Y0177171D01*
X0434543Y0177067D01*
X0434470Y0176966D01*
X0434395Y0176866D01*
X0434316Y0176769D01*
X0434234Y0176675D01*
X0434149Y0176583D01*
X0434062Y0176494D01*
X0433971Y0176408D01*
X0433878Y0176325D01*
X0433782Y0176244D01*
X0433684Y0176167D01*
X0433584Y0176093D01*
X0433481Y0176022D01*
X0433376Y0175955D01*
X0433268Y0175890D01*
X0433159Y0175830D01*
X0433048Y0175772D01*
X0432935Y0175719D01*
X0432821Y0175669D01*
X0432705Y0175622D01*
X0432588Y0175580D01*
X0432469Y0175541D01*
X0432349Y0175505D01*
X0432228Y0175474D01*
X0432106Y0175446D01*
X0431984Y0175423D01*
X0431860Y0175403D01*
X0431736Y0175387D01*
X0431612Y0175375D01*
X0431487Y0175367D01*
X0431362Y0175363D01*
X0431238Y0175363D01*
X0431113Y0175367D01*
X0430988Y0175375D01*
X0430864Y0175387D01*
X0430740Y0175403D01*
X0430616Y0175423D01*
X0430494Y0175446D01*
X0430372Y0175474D01*
X0430251Y0175505D01*
X0430131Y0175541D01*
X0430012Y0175580D01*
X0429895Y0175622D01*
X0429779Y0175669D01*
X0429665Y0175719D01*
X0429552Y0175772D01*
X0429441Y0175830D01*
X0429331Y0175890D01*
X0429224Y0175955D01*
X0429119Y0176022D01*
X0429016Y0176093D01*
X0428916Y0176167D01*
X0428818Y0176244D01*
X0428722Y0176325D01*
X0428629Y0176408D01*
X0428538Y0176494D01*
X0428451Y0176583D01*
X0428366Y0176675D01*
X0428284Y0176769D01*
X0428205Y0176866D01*
X0428130Y0176966D01*
X0428057Y0177067D01*
X0427988Y0177171D01*
X0427922Y0177278D01*
X0427860Y0177386D01*
X0427801Y0177496D01*
X0427745Y0177608D01*
X0427693Y0177722D01*
X0427645Y0177837D01*
X0427600Y0177953D01*
X0427560Y0178072D01*
X0427522Y0178191D01*
X0427489Y0178311D01*
X0427460Y0178433D01*
X0427434Y0178555D01*
X0427412Y0178678D01*
X0427395Y0178802D01*
X0427381Y0178926D01*
X0427371Y0179050D01*
X0427365Y0179175D01*
X0427363Y0179300D01*
X0515001Y0116300D02*
X0515003Y0116458D01*
X0515009Y0116616D01*
X0515019Y0116774D01*
X0515033Y0116932D01*
X0515051Y0117089D01*
X0515072Y0117246D01*
X0515098Y0117402D01*
X0515128Y0117558D01*
X0515161Y0117713D01*
X0515199Y0117866D01*
X0515240Y0118019D01*
X0515285Y0118171D01*
X0515334Y0118322D01*
X0515387Y0118471D01*
X0515443Y0118619D01*
X0515503Y0118765D01*
X0515567Y0118910D01*
X0515635Y0119053D01*
X0515706Y0119195D01*
X0515780Y0119335D01*
X0515858Y0119472D01*
X0515940Y0119608D01*
X0516024Y0119742D01*
X0516113Y0119873D01*
X0516204Y0120002D01*
X0516299Y0120129D01*
X0516396Y0120254D01*
X0516497Y0120376D01*
X0516601Y0120495D01*
X0516708Y0120612D01*
X0516818Y0120726D01*
X0516931Y0120837D01*
X0517046Y0120946D01*
X0517164Y0121051D01*
X0517285Y0121153D01*
X0517408Y0121253D01*
X0517534Y0121349D01*
X0517662Y0121442D01*
X0517792Y0121532D01*
X0517925Y0121618D01*
X0518060Y0121702D01*
X0518196Y0121781D01*
X0518335Y0121858D01*
X0518476Y0121930D01*
X0518618Y0122000D01*
X0518762Y0122065D01*
X0518908Y0122127D01*
X0519055Y0122185D01*
X0519204Y0122240D01*
X0519354Y0122291D01*
X0519505Y0122338D01*
X0519657Y0122381D01*
X0519810Y0122420D01*
X0519965Y0122456D01*
X0520120Y0122487D01*
X0520276Y0122515D01*
X0520432Y0122539D01*
X0520589Y0122559D01*
X0520747Y0122575D01*
X0520904Y0122587D01*
X0521063Y0122595D01*
X0521221Y0122599D01*
X0521379Y0122599D01*
X0521537Y0122595D01*
X0521696Y0122587D01*
X0521853Y0122575D01*
X0522011Y0122559D01*
X0522168Y0122539D01*
X0522324Y0122515D01*
X0522480Y0122487D01*
X0522635Y0122456D01*
X0522790Y0122420D01*
X0522943Y0122381D01*
X0523095Y0122338D01*
X0523246Y0122291D01*
X0523396Y0122240D01*
X0523545Y0122185D01*
X0523692Y0122127D01*
X0523838Y0122065D01*
X0523982Y0122000D01*
X0524124Y0121930D01*
X0524265Y0121858D01*
X0524404Y0121781D01*
X0524540Y0121702D01*
X0524675Y0121618D01*
X0524808Y0121532D01*
X0524938Y0121442D01*
X0525066Y0121349D01*
X0525192Y0121253D01*
X0525315Y0121153D01*
X0525436Y0121051D01*
X0525554Y0120946D01*
X0525669Y0120837D01*
X0525782Y0120726D01*
X0525892Y0120612D01*
X0525999Y0120495D01*
X0526103Y0120376D01*
X0526204Y0120254D01*
X0526301Y0120129D01*
X0526396Y0120002D01*
X0526487Y0119873D01*
X0526576Y0119742D01*
X0526660Y0119608D01*
X0526742Y0119472D01*
X0526820Y0119335D01*
X0526894Y0119195D01*
X0526965Y0119053D01*
X0527033Y0118910D01*
X0527097Y0118765D01*
X0527157Y0118619D01*
X0527213Y0118471D01*
X0527266Y0118322D01*
X0527315Y0118171D01*
X0527360Y0118019D01*
X0527401Y0117866D01*
X0527439Y0117713D01*
X0527472Y0117558D01*
X0527502Y0117402D01*
X0527528Y0117246D01*
X0527549Y0117089D01*
X0527567Y0116932D01*
X0527581Y0116774D01*
X0527591Y0116616D01*
X0527597Y0116458D01*
X0527599Y0116300D01*
X0527597Y0116142D01*
X0527591Y0115984D01*
X0527581Y0115826D01*
X0527567Y0115668D01*
X0527549Y0115511D01*
X0527528Y0115354D01*
X0527502Y0115198D01*
X0527472Y0115042D01*
X0527439Y0114887D01*
X0527401Y0114734D01*
X0527360Y0114581D01*
X0527315Y0114429D01*
X0527266Y0114278D01*
X0527213Y0114129D01*
X0527157Y0113981D01*
X0527097Y0113835D01*
X0527033Y0113690D01*
X0526965Y0113547D01*
X0526894Y0113405D01*
X0526820Y0113265D01*
X0526742Y0113128D01*
X0526660Y0112992D01*
X0526576Y0112858D01*
X0526487Y0112727D01*
X0526396Y0112598D01*
X0526301Y0112471D01*
X0526204Y0112346D01*
X0526103Y0112224D01*
X0525999Y0112105D01*
X0525892Y0111988D01*
X0525782Y0111874D01*
X0525669Y0111763D01*
X0525554Y0111654D01*
X0525436Y0111549D01*
X0525315Y0111447D01*
X0525192Y0111347D01*
X0525066Y0111251D01*
X0524938Y0111158D01*
X0524808Y0111068D01*
X0524675Y0110982D01*
X0524540Y0110898D01*
X0524404Y0110819D01*
X0524265Y0110742D01*
X0524124Y0110670D01*
X0523982Y0110600D01*
X0523838Y0110535D01*
X0523692Y0110473D01*
X0523545Y0110415D01*
X0523396Y0110360D01*
X0523246Y0110309D01*
X0523095Y0110262D01*
X0522943Y0110219D01*
X0522790Y0110180D01*
X0522635Y0110144D01*
X0522480Y0110113D01*
X0522324Y0110085D01*
X0522168Y0110061D01*
X0522011Y0110041D01*
X0521853Y0110025D01*
X0521696Y0110013D01*
X0521537Y0110005D01*
X0521379Y0110001D01*
X0521221Y0110001D01*
X0521063Y0110005D01*
X0520904Y0110013D01*
X0520747Y0110025D01*
X0520589Y0110041D01*
X0520432Y0110061D01*
X0520276Y0110085D01*
X0520120Y0110113D01*
X0519965Y0110144D01*
X0519810Y0110180D01*
X0519657Y0110219D01*
X0519505Y0110262D01*
X0519354Y0110309D01*
X0519204Y0110360D01*
X0519055Y0110415D01*
X0518908Y0110473D01*
X0518762Y0110535D01*
X0518618Y0110600D01*
X0518476Y0110670D01*
X0518335Y0110742D01*
X0518196Y0110819D01*
X0518060Y0110898D01*
X0517925Y0110982D01*
X0517792Y0111068D01*
X0517662Y0111158D01*
X0517534Y0111251D01*
X0517408Y0111347D01*
X0517285Y0111447D01*
X0517164Y0111549D01*
X0517046Y0111654D01*
X0516931Y0111763D01*
X0516818Y0111874D01*
X0516708Y0111988D01*
X0516601Y0112105D01*
X0516497Y0112224D01*
X0516396Y0112346D01*
X0516299Y0112471D01*
X0516204Y0112598D01*
X0516113Y0112727D01*
X0516024Y0112858D01*
X0515940Y0112992D01*
X0515858Y0113128D01*
X0515780Y0113265D01*
X0515706Y0113405D01*
X0515635Y0113547D01*
X0515567Y0113690D01*
X0515503Y0113835D01*
X0515443Y0113981D01*
X0515387Y0114129D01*
X0515334Y0114278D01*
X0515285Y0114429D01*
X0515240Y0114581D01*
X0515199Y0114734D01*
X0515161Y0114887D01*
X0515128Y0115042D01*
X0515098Y0115198D01*
X0515072Y0115354D01*
X0515051Y0115511D01*
X0515033Y0115668D01*
X0515019Y0115826D01*
X0515009Y0115984D01*
X0515003Y0116142D01*
X0515001Y0116300D01*
X0016300Y0401300D02*
X0016302Y0401441D01*
X0016308Y0401582D01*
X0016318Y0401722D01*
X0016332Y0401862D01*
X0016350Y0402002D01*
X0016371Y0402141D01*
X0016397Y0402280D01*
X0016426Y0402418D01*
X0016460Y0402554D01*
X0016497Y0402690D01*
X0016538Y0402825D01*
X0016583Y0402959D01*
X0016632Y0403091D01*
X0016684Y0403222D01*
X0016740Y0403351D01*
X0016800Y0403478D01*
X0016863Y0403604D01*
X0016929Y0403728D01*
X0017000Y0403851D01*
X0017073Y0403971D01*
X0017150Y0404089D01*
X0017230Y0404205D01*
X0017314Y0404318D01*
X0017400Y0404429D01*
X0017490Y0404538D01*
X0017583Y0404644D01*
X0017678Y0404747D01*
X0017777Y0404848D01*
X0017878Y0404946D01*
X0017982Y0405041D01*
X0018089Y0405133D01*
X0018198Y0405222D01*
X0018310Y0405307D01*
X0018424Y0405390D01*
X0018540Y0405470D01*
X0018659Y0405546D01*
X0018780Y0405618D01*
X0018902Y0405688D01*
X0019027Y0405753D01*
X0019153Y0405816D01*
X0019281Y0405874D01*
X0019411Y0405929D01*
X0019542Y0405981D01*
X0019675Y0406028D01*
X0019809Y0406072D01*
X0019944Y0406113D01*
X0020080Y0406149D01*
X0020217Y0406181D01*
X0020355Y0406210D01*
X0020493Y0406235D01*
X0020633Y0406255D01*
X0020773Y0406272D01*
X0020913Y0406285D01*
X0021054Y0406294D01*
X0021194Y0406299D01*
X0021335Y0406300D01*
X0021476Y0406297D01*
X0021617Y0406290D01*
X0021757Y0406279D01*
X0021897Y0406264D01*
X0022037Y0406245D01*
X0022176Y0406223D01*
X0022314Y0406196D01*
X0022452Y0406166D01*
X0022588Y0406131D01*
X0022724Y0406093D01*
X0022858Y0406051D01*
X0022992Y0406005D01*
X0023124Y0405956D01*
X0023254Y0405902D01*
X0023383Y0405845D01*
X0023510Y0405785D01*
X0023636Y0405721D01*
X0023759Y0405653D01*
X0023881Y0405582D01*
X0024001Y0405508D01*
X0024118Y0405430D01*
X0024233Y0405349D01*
X0024346Y0405265D01*
X0024457Y0405178D01*
X0024565Y0405087D01*
X0024670Y0404994D01*
X0024773Y0404897D01*
X0024873Y0404798D01*
X0024970Y0404696D01*
X0025064Y0404591D01*
X0025155Y0404484D01*
X0025243Y0404374D01*
X0025328Y0404262D01*
X0025410Y0404147D01*
X0025489Y0404030D01*
X0025564Y0403911D01*
X0025636Y0403790D01*
X0025704Y0403667D01*
X0025769Y0403542D01*
X0025831Y0403415D01*
X0025888Y0403286D01*
X0025943Y0403156D01*
X0025993Y0403025D01*
X0026040Y0402892D01*
X0026083Y0402758D01*
X0026122Y0402622D01*
X0026157Y0402486D01*
X0026189Y0402349D01*
X0026216Y0402211D01*
X0026240Y0402072D01*
X0026260Y0401932D01*
X0026276Y0401792D01*
X0026288Y0401652D01*
X0026296Y0401511D01*
X0026300Y0401370D01*
X0026300Y0401230D01*
X0026296Y0401089D01*
X0026288Y0400948D01*
X0026276Y0400808D01*
X0026260Y0400668D01*
X0026240Y0400528D01*
X0026216Y0400389D01*
X0026189Y0400251D01*
X0026157Y0400114D01*
X0026122Y0399978D01*
X0026083Y0399842D01*
X0026040Y0399708D01*
X0025993Y0399575D01*
X0025943Y0399444D01*
X0025888Y0399314D01*
X0025831Y0399185D01*
X0025769Y0399058D01*
X0025704Y0398933D01*
X0025636Y0398810D01*
X0025564Y0398689D01*
X0025489Y0398570D01*
X0025410Y0398453D01*
X0025328Y0398338D01*
X0025243Y0398226D01*
X0025155Y0398116D01*
X0025064Y0398009D01*
X0024970Y0397904D01*
X0024873Y0397802D01*
X0024773Y0397703D01*
X0024670Y0397606D01*
X0024565Y0397513D01*
X0024457Y0397422D01*
X0024346Y0397335D01*
X0024233Y0397251D01*
X0024118Y0397170D01*
X0024001Y0397092D01*
X0023881Y0397018D01*
X0023759Y0396947D01*
X0023636Y0396879D01*
X0023510Y0396815D01*
X0023383Y0396755D01*
X0023254Y0396698D01*
X0023124Y0396644D01*
X0022992Y0396595D01*
X0022858Y0396549D01*
X0022724Y0396507D01*
X0022588Y0396469D01*
X0022452Y0396434D01*
X0022314Y0396404D01*
X0022176Y0396377D01*
X0022037Y0396355D01*
X0021897Y0396336D01*
X0021757Y0396321D01*
X0021617Y0396310D01*
X0021476Y0396303D01*
X0021335Y0396300D01*
X0021194Y0396301D01*
X0021054Y0396306D01*
X0020913Y0396315D01*
X0020773Y0396328D01*
X0020633Y0396345D01*
X0020493Y0396365D01*
X0020355Y0396390D01*
X0020217Y0396419D01*
X0020080Y0396451D01*
X0019944Y0396487D01*
X0019809Y0396528D01*
X0019675Y0396572D01*
X0019542Y0396619D01*
X0019411Y0396671D01*
X0019281Y0396726D01*
X0019153Y0396784D01*
X0019027Y0396847D01*
X0018902Y0396912D01*
X0018780Y0396982D01*
X0018659Y0397054D01*
X0018540Y0397130D01*
X0018424Y0397210D01*
X0018310Y0397293D01*
X0018198Y0397378D01*
X0018089Y0397467D01*
X0017982Y0397559D01*
X0017878Y0397654D01*
X0017777Y0397752D01*
X0017678Y0397853D01*
X0017583Y0397956D01*
X0017490Y0398062D01*
X0017400Y0398171D01*
X0017314Y0398282D01*
X0017230Y0398395D01*
X0017150Y0398511D01*
X0017073Y0398629D01*
X0017000Y0398749D01*
X0016929Y0398872D01*
X0016863Y0398996D01*
X0016800Y0399122D01*
X0016740Y0399249D01*
X0016684Y0399378D01*
X0016632Y0399509D01*
X0016583Y0399641D01*
X0016538Y0399775D01*
X0016497Y0399910D01*
X0016460Y0400046D01*
X0016426Y0400182D01*
X0016397Y0400320D01*
X0016371Y0400459D01*
X0016350Y0400598D01*
X0016332Y0400738D01*
X0016318Y0400878D01*
X0016308Y0401018D01*
X0016302Y0401159D01*
X0016300Y0401300D01*
D11*
X0246300Y0418300D02*
X0246300Y0424300D01*
X0256300Y0424300D02*
X0256300Y0418300D01*
X0256300Y0448300D02*
X0256300Y0454300D01*
X0246300Y0454300D02*
X0246300Y0448300D01*
X0303300Y0361300D02*
X0309300Y0361300D01*
X0309300Y0351300D02*
X0303300Y0351300D01*
X0303300Y0341300D02*
X0309300Y0341300D01*
X0309300Y0331300D02*
X0303300Y0331300D01*
X0303300Y0321300D02*
X0309300Y0321300D01*
X0309300Y0311300D02*
X0303300Y0311300D01*
X0303300Y0301300D02*
X0309300Y0301300D01*
X0309300Y0291300D02*
X0303300Y0291300D01*
X0303300Y0271300D02*
X0309300Y0271300D01*
X0309300Y0261300D02*
X0303300Y0261300D01*
X0303300Y0251300D02*
X0309300Y0251300D01*
X0309300Y0241300D02*
X0303300Y0241300D01*
X0303300Y0231300D02*
X0309300Y0231300D01*
X0309300Y0221300D02*
X0303300Y0221300D01*
X0303300Y0211300D02*
X0309300Y0211300D01*
X0309300Y0201300D02*
X0303300Y0201300D01*
X0303300Y0181300D02*
X0309300Y0181300D01*
X0309300Y0171300D02*
X0303300Y0171300D01*
X0303300Y0161300D02*
X0309300Y0161300D01*
X0309300Y0151300D02*
X0303300Y0151300D01*
X0303300Y0141300D02*
X0309300Y0141300D01*
X0309300Y0131300D02*
X0303300Y0131300D01*
X0303300Y0121300D02*
X0309300Y0121300D01*
X0309300Y0111300D02*
X0303300Y0111300D01*
X0328300Y0111300D02*
X0334300Y0111300D01*
X0334300Y0121300D02*
X0328300Y0121300D01*
X0328300Y0131300D02*
X0334300Y0131300D01*
X0334300Y0141300D02*
X0328300Y0141300D01*
X0328300Y0151300D02*
X0334300Y0151300D01*
X0334300Y0161300D02*
X0328300Y0161300D01*
X0328300Y0171300D02*
X0334300Y0171300D01*
X0334300Y0181300D02*
X0328300Y0181300D01*
X0328300Y0201300D02*
X0334300Y0201300D01*
X0334300Y0211300D02*
X0328300Y0211300D01*
X0328300Y0221300D02*
X0334300Y0221300D01*
X0334300Y0231300D02*
X0328300Y0231300D01*
X0328300Y0241300D02*
X0334300Y0241300D01*
X0334300Y0251300D02*
X0328300Y0251300D01*
X0328300Y0261300D02*
X0334300Y0261300D01*
X0334300Y0271300D02*
X0328300Y0271300D01*
X0328300Y0291300D02*
X0334300Y0291300D01*
X0334300Y0301300D02*
X0328300Y0301300D01*
X0328300Y0311300D02*
X0334300Y0311300D01*
X0334300Y0321300D02*
X0328300Y0321300D01*
X0328300Y0331300D02*
X0334300Y0331300D01*
X0334300Y0341300D02*
X0328300Y0341300D01*
X0356300Y0398300D02*
X0356300Y0404300D01*
X0366300Y0404300D02*
X0366300Y0398300D01*
X0376300Y0398300D02*
X0376300Y0404300D01*
X0411300Y0404300D02*
X0411300Y0398300D01*
X0421300Y0398300D02*
X0421300Y0404300D01*
X0431300Y0404300D02*
X0431300Y0398300D01*
X0456300Y0379300D02*
X0456300Y0373300D01*
X0466300Y0373300D02*
X0466300Y0379300D01*
X0476300Y0379300D02*
X0476300Y0373300D01*
X0476300Y0349300D02*
X0476300Y0343300D01*
X0466300Y0343300D02*
X0466300Y0349300D01*
X0456300Y0349300D02*
X0456300Y0343300D01*
X0456300Y0314300D02*
X0456300Y0308300D01*
X0466300Y0308300D02*
X0466300Y0314300D01*
X0476300Y0314300D02*
X0476300Y0308300D01*
X0476300Y0284300D02*
X0476300Y0278300D01*
X0466300Y0278300D02*
X0466300Y0284300D01*
X0456300Y0284300D02*
X0456300Y0278300D01*
X0461300Y0254300D02*
X0461300Y0248300D01*
X0471300Y0248300D02*
X0471300Y0254300D01*
X0471300Y0229300D02*
X0471300Y0223300D01*
X0461300Y0223300D02*
X0461300Y0229300D01*
X0461300Y0204300D02*
X0461300Y0198300D01*
X0471300Y0198300D02*
X0471300Y0204300D01*
X0481300Y0204300D02*
X0481300Y0198300D01*
X0481300Y0174300D02*
X0481300Y0168300D01*
X0471300Y0168300D02*
X0471300Y0174300D01*
X0461300Y0174300D02*
X0461300Y0168300D01*
X0461300Y0144300D02*
X0461300Y0138300D01*
X0471300Y0138300D02*
X0471300Y0144300D01*
X0481300Y0144300D02*
X0481300Y0138300D01*
X0518300Y0141300D02*
X0524300Y0141300D01*
X0524300Y0131300D02*
X0518300Y0131300D01*
X0518300Y0151300D02*
X0524300Y0151300D01*
X0524300Y0161300D02*
X0518300Y0161300D01*
X0518300Y0171300D02*
X0524300Y0171300D01*
X0524300Y0181300D02*
X0518300Y0181300D01*
X0518300Y0191300D02*
X0524300Y0191300D01*
X0524300Y0201300D02*
X0518300Y0201300D01*
X0518300Y0221300D02*
X0524300Y0221300D01*
X0524300Y0231300D02*
X0518300Y0231300D01*
X0518300Y0241300D02*
X0524300Y0241300D01*
X0524300Y0251300D02*
X0518300Y0251300D01*
X0518300Y0261300D02*
X0524300Y0261300D01*
X0524300Y0271300D02*
X0518300Y0271300D01*
X0518300Y0281300D02*
X0524300Y0281300D01*
X0524300Y0291300D02*
X0518300Y0291300D01*
X0518300Y0306300D02*
X0524300Y0306300D01*
X0524300Y0316300D02*
X0518300Y0316300D01*
X0518300Y0326300D02*
X0524300Y0326300D01*
X0524300Y0336300D02*
X0518300Y0336300D01*
X0518300Y0346300D02*
X0524300Y0346300D01*
X0524300Y0356300D02*
X0518300Y0356300D01*
X0518300Y0366300D02*
X0524300Y0366300D01*
X0524300Y0376300D02*
X0518300Y0376300D01*
X0543300Y0376300D02*
X0549300Y0376300D01*
X0549300Y0366300D02*
X0543300Y0366300D01*
X0543300Y0356300D02*
X0549300Y0356300D01*
X0549300Y0346300D02*
X0543300Y0346300D01*
X0543300Y0336300D02*
X0549300Y0336300D01*
X0549300Y0326300D02*
X0543300Y0326300D01*
X0543300Y0316300D02*
X0549300Y0316300D01*
X0549300Y0306300D02*
X0543300Y0306300D01*
X0543300Y0291300D02*
X0549300Y0291300D01*
X0549300Y0281300D02*
X0543300Y0281300D01*
X0543300Y0271300D02*
X0549300Y0271300D01*
X0549300Y0261300D02*
X0543300Y0261300D01*
X0543300Y0251300D02*
X0549300Y0251300D01*
X0549300Y0241300D02*
X0543300Y0241300D01*
X0543300Y0231300D02*
X0549300Y0231300D01*
X0549300Y0221300D02*
X0543300Y0221300D01*
X0543300Y0201300D02*
X0549300Y0201300D01*
X0549300Y0191300D02*
X0543300Y0191300D01*
X0543300Y0181300D02*
X0549300Y0181300D01*
X0549300Y0171300D02*
X0543300Y0171300D01*
X0543300Y0161300D02*
X0549300Y0161300D01*
X0549300Y0151300D02*
X0543300Y0151300D01*
X0543300Y0141300D02*
X0549300Y0141300D01*
X0549300Y0131300D02*
X0543300Y0131300D01*
X0526300Y0019300D02*
X0526300Y0013300D01*
X0516300Y0013300D02*
X0516300Y0019300D01*
X0506300Y0019300D02*
X0506300Y0013300D01*
X0476300Y0013300D02*
X0476300Y0019300D01*
X0466300Y0019300D02*
X0466300Y0013300D01*
X0456300Y0013300D02*
X0456300Y0019300D01*
X0426300Y0019300D02*
X0426300Y0013300D01*
X0416300Y0013300D02*
X0416300Y0019300D01*
X0406300Y0019300D02*
X0406300Y0013300D01*
X0376300Y0013300D02*
X0376300Y0019300D01*
X0366300Y0019300D02*
X0366300Y0013300D01*
X0356300Y0013300D02*
X0356300Y0019300D01*
X0326300Y0019300D02*
X0326300Y0013300D01*
X0316300Y0013300D02*
X0316300Y0019300D01*
X0261300Y0093300D02*
X0261300Y0099300D01*
X0251300Y0099300D02*
X0251300Y0093300D01*
X0251300Y0123300D02*
X0251300Y0129300D01*
X0261300Y0129300D02*
X0261300Y0123300D01*
X0256300Y0198300D02*
X0256300Y0204300D01*
X0246300Y0204300D02*
X0246300Y0198300D01*
X0246300Y0228300D02*
X0246300Y0234300D01*
X0256300Y0234300D02*
X0256300Y0228300D01*
X0256300Y0308300D02*
X0256300Y0314300D01*
X0246300Y0314300D02*
X0246300Y0308300D01*
X0246300Y0338300D02*
X0246300Y0344300D01*
X0256300Y0344300D02*
X0256300Y0338300D01*
X0466300Y0398300D02*
X0466300Y0404300D01*
X0476300Y0404300D02*
X0476300Y0398300D01*
X0486300Y0398300D02*
X0486300Y0404300D01*
X0406300Y0149300D02*
X0406300Y0143300D01*
X0396300Y0143300D02*
X0396300Y0149300D01*
X0386300Y0149300D02*
X0386300Y0143300D01*
X0376300Y0143300D02*
X0376300Y0149300D01*
D12*
X0211300Y0156300D03*
X0191300Y0156300D03*
X0181300Y0156300D03*
X0181300Y0176300D03*
X0191300Y0176300D03*
X0211300Y0176300D03*
X0161300Y0176300D03*
X0146300Y0176300D03*
X0146300Y0156300D03*
X0161300Y0156300D03*
X0126300Y0156300D03*
X0111300Y0156300D03*
X0091300Y0156300D03*
X0091300Y0176300D03*
X0111300Y0176300D03*
X0126300Y0176300D03*
X0101300Y0211300D03*
X0081300Y0211300D03*
X0081300Y0236300D03*
X0101300Y0236300D03*
X0091300Y0261300D03*
X0111300Y0261300D03*
X0126300Y0261300D03*
X0126300Y0281300D03*
X0111300Y0281300D03*
X0091300Y0281300D03*
X0096300Y0321300D03*
X0076300Y0321300D03*
X0076300Y0346300D03*
X0096300Y0346300D03*
X0091300Y0371300D03*
X0111300Y0371300D03*
X0126300Y0371300D03*
X0126300Y0391300D03*
X0111300Y0391300D03*
X0091300Y0391300D03*
X0096300Y0426300D03*
X0076300Y0426300D03*
X0076300Y0451300D03*
X0096300Y0451300D03*
X0146300Y0391300D03*
X0156300Y0391300D03*
X0156300Y0371300D03*
X0146300Y0371300D03*
X0176300Y0371300D03*
X0186300Y0371300D03*
X0206300Y0371300D03*
X0206300Y0391300D03*
X0186300Y0391300D03*
X0176300Y0391300D03*
X0176300Y0281300D03*
X0186300Y0281300D03*
X0206300Y0281300D03*
X0206300Y0261300D03*
X0186300Y0261300D03*
X0176300Y0261300D03*
X0156300Y0261300D03*
X0146300Y0261300D03*
X0146300Y0281300D03*
X0156300Y0281300D03*
X0101300Y0126300D03*
X0101300Y0106300D03*
X0081300Y0106300D03*
X0081300Y0126300D03*
X0091300Y0061300D03*
X0111300Y0061300D03*
X0126300Y0061300D03*
X0126300Y0041300D03*
X0111300Y0041300D03*
X0091300Y0041300D03*
X0146300Y0041300D03*
X0161300Y0041300D03*
X0161300Y0061300D03*
X0146300Y0061300D03*
X0181300Y0061300D03*
X0191300Y0061300D03*
X0211300Y0061300D03*
X0211300Y0041300D03*
X0191300Y0041300D03*
X0181300Y0041300D03*
X0376300Y0341300D03*
X0376300Y0361300D03*
X0406300Y0361300D03*
X0406300Y0341300D03*
D13*
X0406300Y0316300D03*
X0406300Y0306300D03*
X0396300Y0306300D03*
X0396300Y0316300D03*
X0386300Y0316300D03*
X0386300Y0306300D03*
X0376300Y0306300D03*
X0376300Y0316300D03*
X0376300Y0246300D03*
X0376300Y0236300D03*
X0386300Y0236300D03*
X0386300Y0246300D03*
X0396300Y0246300D03*
X0396300Y0236300D03*
X0406300Y0236300D03*
X0406300Y0246300D03*
X0401300Y0101300D03*
X0401300Y0091300D03*
X0391300Y0091300D03*
X0391300Y0101300D03*
X0381300Y0101300D03*
X0381300Y0091300D03*
X0371300Y0091300D03*
X0361300Y0091300D03*
X0361300Y0101300D03*
X0371300Y0101300D03*
X0351300Y0101300D03*
X0351300Y0091300D03*
X0351300Y0061300D03*
X0351300Y0051300D03*
X0361300Y0051300D03*
X0371300Y0051300D03*
X0371300Y0061300D03*
X0361300Y0061300D03*
X0381300Y0061300D03*
X0381300Y0051300D03*
X0391300Y0051300D03*
X0391300Y0061300D03*
X0401300Y0061300D03*
X0401300Y0051300D03*
X0411300Y0051300D03*
X0421300Y0051300D03*
X0421300Y0061300D03*
X0411300Y0061300D03*
X0431300Y0061300D03*
X0431300Y0051300D03*
X0441300Y0051300D03*
X0441300Y0061300D03*
X0451300Y0061300D03*
X0461300Y0061300D03*
X0461300Y0051300D03*
X0451300Y0051300D03*
X0471300Y0051300D03*
X0471300Y0061300D03*
X0481300Y0061300D03*
X0481300Y0051300D03*
X0491300Y0051300D03*
X0491300Y0061300D03*
X0501300Y0061300D03*
X0511300Y0061300D03*
X0511300Y0051300D03*
X0501300Y0051300D03*
X0521300Y0051300D03*
X0521300Y0061300D03*
X0521300Y0091300D03*
X0521300Y0101300D03*
X0511300Y0101300D03*
X0501300Y0101300D03*
X0501300Y0091300D03*
X0511300Y0091300D03*
X0491300Y0091300D03*
X0491300Y0101300D03*
X0481300Y0101300D03*
X0481300Y0091300D03*
X0471300Y0091300D03*
X0471300Y0101300D03*
X0461300Y0101300D03*
X0451300Y0101300D03*
X0451300Y0091300D03*
X0461300Y0091300D03*
X0441300Y0091300D03*
X0441300Y0101300D03*
X0431300Y0101300D03*
X0431300Y0091300D03*
X0421300Y0091300D03*
X0411300Y0091300D03*
X0411300Y0101300D03*
X0421300Y0101300D03*
D14*
X0206300Y0097757D02*
X0206300Y0104843D01*
X0196300Y0104843D02*
X0196300Y0097757D01*
X0186300Y0097757D02*
X0186300Y0104843D01*
X0176300Y0104843D02*
X0176300Y0097757D01*
X0166300Y0097757D02*
X0166300Y0104843D01*
X0156300Y0104843D02*
X0156300Y0097757D01*
X0146300Y0097757D02*
X0146300Y0104843D01*
X0136300Y0104843D02*
X0136300Y0097757D01*
X0141300Y0117757D02*
X0141300Y0124843D01*
X0151300Y0124843D02*
X0151300Y0117757D01*
X0161300Y0117757D02*
X0161300Y0124843D01*
X0171300Y0124843D02*
X0171300Y0117757D01*
X0181300Y0117757D02*
X0181300Y0124843D01*
X0191300Y0124843D02*
X0191300Y0117757D01*
X0201300Y0117757D02*
X0201300Y0124843D01*
X0201300Y0207757D02*
X0201300Y0214843D01*
X0191300Y0214843D02*
X0191300Y0207757D01*
X0181300Y0207757D02*
X0181300Y0214843D01*
X0171300Y0214843D02*
X0171300Y0207757D01*
X0161300Y0207757D02*
X0161300Y0214843D01*
X0151300Y0214843D02*
X0151300Y0207757D01*
X0141300Y0207757D02*
X0141300Y0214843D01*
X0131300Y0214843D02*
X0131300Y0207757D01*
X0136300Y0227757D02*
X0136300Y0234843D01*
X0146300Y0234843D02*
X0146300Y0227757D01*
X0156300Y0227757D02*
X0156300Y0234843D01*
X0166300Y0234843D02*
X0166300Y0227757D01*
X0176300Y0227757D02*
X0176300Y0234843D01*
X0186300Y0234843D02*
X0186300Y0227757D01*
X0196300Y0227757D02*
X0196300Y0234843D01*
X0196300Y0312757D02*
X0196300Y0319843D01*
X0186300Y0319843D02*
X0186300Y0312757D01*
X0176300Y0312757D02*
X0176300Y0319843D01*
X0166300Y0319843D02*
X0166300Y0312757D01*
X0156300Y0312757D02*
X0156300Y0319843D01*
X0146300Y0319843D02*
X0146300Y0312757D01*
X0136300Y0312757D02*
X0136300Y0319843D01*
X0126300Y0319843D02*
X0126300Y0312757D01*
X0131300Y0332757D02*
X0131300Y0339843D01*
X0141300Y0339843D02*
X0141300Y0332757D01*
X0151300Y0332757D02*
X0151300Y0339843D01*
X0161300Y0339843D02*
X0161300Y0332757D01*
X0171300Y0332757D02*
X0171300Y0339843D01*
X0181300Y0339843D02*
X0181300Y0332757D01*
X0191300Y0332757D02*
X0191300Y0339843D01*
X0186300Y0417757D02*
X0186300Y0424843D01*
X0196300Y0424843D02*
X0196300Y0417757D01*
X0176300Y0417757D02*
X0176300Y0424843D01*
X0166300Y0424843D02*
X0166300Y0417757D01*
X0156300Y0417757D02*
X0156300Y0424843D01*
X0146300Y0424843D02*
X0146300Y0417757D01*
X0136300Y0417757D02*
X0136300Y0424843D01*
X0126300Y0424843D02*
X0126300Y0417757D01*
X0131300Y0437757D02*
X0131300Y0444843D01*
X0141300Y0444843D02*
X0141300Y0437757D01*
X0151300Y0437757D02*
X0151300Y0444843D01*
X0161300Y0444843D02*
X0161300Y0437757D01*
X0171300Y0437757D02*
X0171300Y0444843D01*
X0181300Y0444843D02*
X0181300Y0437757D01*
X0191300Y0437757D02*
X0191300Y0444843D01*
D15*
X0041300Y0376300D03*
X0041300Y0291300D03*
X0041300Y0201300D03*
X0041300Y0106300D03*
D16*
X0041300Y0086300D03*
X0041300Y0066300D03*
X0041300Y0161300D03*
X0041300Y0181300D03*
X0041300Y0251300D03*
X0041300Y0271300D03*
X0041300Y0336300D03*
X0041300Y0356300D03*
D17*
X0042000Y0422402D02*
X0050600Y0422402D01*
X0058111Y0437000D02*
X0058111Y0445600D01*
X0034489Y0445600D02*
X0034489Y0437000D01*
D18*
X0058111Y0441300D02*
X0058700Y0440900D01*
X0073100Y0426500D01*
X0041300Y0394700D01*
X0041300Y0376300D01*
X0041300Y0376100D01*
X0049700Y0367700D01*
X0049700Y0355700D01*
X0076100Y0329300D01*
X0076100Y0321500D01*
X0076300Y0321300D01*
X0091100Y0306500D01*
X0091100Y0281300D01*
X0091300Y0281300D01*
X0095300Y0270500D02*
X0081500Y0256700D01*
X0081500Y0236300D01*
X0081300Y0236300D01*
X0076100Y0236300D01*
X0041300Y0201500D01*
X0041300Y0201300D01*
X0041300Y0181300D01*
X0041300Y0161300D01*
X0076100Y0126500D01*
X0080900Y0126500D01*
X0081300Y0126300D01*
X0080900Y0106700D02*
X0081300Y0106300D01*
X0126300Y0061300D01*
X0142700Y0057500D02*
X0109700Y0057500D01*
X0106100Y0061100D01*
X0091700Y0061100D01*
X0091300Y0061300D01*
X0091300Y0041300D02*
X0106100Y0041300D01*
X0109700Y0037700D01*
X0177500Y0037700D01*
X0181100Y0041300D01*
X0181300Y0041300D01*
X0185900Y0041300D01*
X0189500Y0037700D01*
X0212900Y0037700D01*
X0216500Y0041300D01*
X0216500Y0051500D01*
X0261300Y0096300D01*
X0260900Y0096500D01*
X0260900Y0118100D01*
X0256700Y0122300D01*
X0256700Y0131300D01*
X0253100Y0134900D01*
X0247700Y0134900D01*
X0241100Y0128300D01*
X0208100Y0128300D01*
X0201500Y0121700D01*
X0201300Y0121300D01*
X0199700Y0131900D02*
X0241100Y0131900D01*
X0246500Y0137300D01*
X0271700Y0137300D01*
X0302300Y0106700D01*
X0359300Y0106700D01*
X0361100Y0101300D02*
X0361300Y0101300D01*
X0361700Y0101300D01*
X0361700Y0140300D01*
X0379100Y0157700D01*
X0379100Y0185900D01*
X0371900Y0193100D01*
X0371900Y0247700D01*
X0374900Y0250700D01*
X0377900Y0250700D01*
X0382100Y0246500D01*
X0386300Y0246500D01*
X0386300Y0246300D01*
X0392300Y0239900D02*
X0395900Y0236300D01*
X0396300Y0236300D01*
X0392300Y0239900D02*
X0392300Y0269300D01*
X0335900Y0325700D01*
X0295700Y0325700D01*
X0293300Y0326900D02*
X0293300Y0321500D01*
X0305900Y0321500D01*
X0306300Y0321300D01*
X0306500Y0321500D01*
X0331100Y0321500D01*
X0331300Y0321300D01*
X0338300Y0314300D01*
X0338300Y0224900D01*
X0376700Y0186500D01*
X0376700Y0177500D01*
X0364700Y0176900D02*
X0364700Y0147500D01*
X0362300Y0144500D02*
X0362300Y0158900D01*
X0335900Y0185300D01*
X0313700Y0185300D01*
X0299300Y0199700D01*
X0299300Y0200300D01*
X0298100Y0201500D01*
X0298100Y0212300D01*
X0223100Y0287300D01*
X0223100Y0305900D01*
X0224300Y0308300D02*
X0299300Y0233300D01*
X0299300Y0209300D01*
X0302900Y0205700D01*
X0335900Y0205700D01*
X0364700Y0176900D01*
X0381500Y0188900D02*
X0381500Y0107300D01*
X0375500Y0101300D01*
X0375500Y0095900D01*
X0371300Y0091700D01*
X0371300Y0091300D01*
X0371300Y0091100D01*
X0375500Y0086900D01*
X0375500Y0059900D01*
X0371300Y0055700D01*
X0371300Y0051300D01*
X0361700Y0051500D02*
X0361700Y0055700D01*
X0365300Y0059300D01*
X0365300Y0087500D01*
X0361700Y0091100D01*
X0361300Y0091300D01*
X0356900Y0089900D02*
X0356900Y0097100D01*
X0361100Y0101300D01*
X0367100Y0097100D02*
X0371300Y0101300D01*
X0380300Y0110300D01*
X0380300Y0238100D01*
X0376700Y0241700D01*
X0376700Y0245900D01*
X0376300Y0246300D01*
X0386300Y0236300D02*
X0386300Y0193700D01*
X0381500Y0188900D01*
X0385100Y0188900D02*
X0445700Y0188900D01*
X0449300Y0185300D01*
X0452900Y0185300D01*
X0457100Y0189500D01*
X0457100Y0205700D01*
X0470300Y0218900D01*
X0488900Y0218900D01*
X0521300Y0251300D01*
X0546300Y0251300D01*
X0546300Y0241300D02*
X0545900Y0241100D01*
X0521300Y0241100D01*
X0521300Y0241300D01*
X0521300Y0231500D02*
X0521300Y0231300D01*
X0521300Y0231500D02*
X0545900Y0231500D01*
X0546300Y0231300D01*
X0546300Y0221300D02*
X0521300Y0221300D01*
X0514100Y0208700D02*
X0521300Y0201500D01*
X0521300Y0201300D01*
X0521300Y0201500D02*
X0545900Y0201500D01*
X0546300Y0201300D01*
X0546300Y0191300D02*
X0521300Y0191300D01*
X0482300Y0191300D01*
X0472700Y0200900D01*
X0471500Y0200900D01*
X0471300Y0201300D01*
X0469700Y0208700D02*
X0514100Y0208700D01*
X0521300Y0181300D02*
X0521300Y0181100D01*
X0470900Y0181100D01*
X0461300Y0171500D01*
X0461300Y0171300D01*
X0461300Y0170900D01*
X0452300Y0170900D01*
X0436100Y0154700D01*
X0383900Y0154700D01*
X0386300Y0146300D02*
X0387500Y0146300D01*
X0394700Y0153500D01*
X0436700Y0153500D01*
X0447500Y0164300D01*
X0464300Y0164300D01*
X0471300Y0171300D01*
X0471500Y0170900D01*
X0478100Y0164300D01*
X0482900Y0164300D01*
X0489500Y0170900D01*
X0521300Y0170900D01*
X0521300Y0171300D01*
X0521300Y0171500D01*
X0545900Y0171500D01*
X0546300Y0171300D01*
X0549500Y0165500D02*
X0485900Y0165500D01*
X0476900Y0156500D01*
X0466100Y0156500D01*
X0458300Y0148700D01*
X0461300Y0141500D02*
X0461300Y0141300D01*
X0461300Y0141500D02*
X0468500Y0148700D01*
X0470900Y0148700D01*
X0483500Y0161300D01*
X0521300Y0161300D01*
X0546300Y0161300D01*
X0549500Y0165500D02*
X0554900Y0170900D01*
X0554900Y0346700D01*
X0551300Y0350300D01*
X0543500Y0350300D01*
X0539300Y0354500D01*
X0539300Y0356900D01*
X0525500Y0370700D01*
X0518300Y0370700D01*
X0504500Y0384500D01*
X0483500Y0384500D01*
X0466700Y0401300D01*
X0466300Y0401300D01*
X0476300Y0410900D02*
X0485900Y0401300D01*
X0486300Y0401300D01*
X0476300Y0410900D02*
X0437900Y0410900D01*
X0437900Y0407900D01*
X0437900Y0410900D02*
X0408500Y0410900D01*
X0398900Y0401300D01*
X0376300Y0401300D01*
X0374900Y0401300D01*
X0341300Y0367700D01*
X0190100Y0367700D01*
X0186500Y0371300D01*
X0186300Y0371300D01*
X0185900Y0371300D01*
X0182300Y0374900D01*
X0174500Y0374900D01*
X0170900Y0371300D01*
X0156300Y0371300D01*
X0145700Y0376100D02*
X0140900Y0371300D01*
X0126300Y0371300D01*
X0122300Y0372500D02*
X0122300Y0367700D01*
X0109700Y0367700D01*
X0106100Y0371300D01*
X0091300Y0371300D01*
X0105500Y0386300D02*
X0151100Y0386300D01*
X0155900Y0391100D01*
X0156300Y0391300D01*
X0165500Y0391700D02*
X0176300Y0391700D01*
X0176300Y0391300D01*
X0176300Y0391700D02*
X0185900Y0391700D01*
X0186300Y0391300D01*
X0186500Y0391700D01*
X0199100Y0391700D01*
X0256100Y0448700D01*
X0256100Y0451100D01*
X0256300Y0451300D01*
X0260300Y0455900D02*
X0257900Y0458300D01*
X0254300Y0458300D01*
X0251900Y0455900D01*
X0251900Y0446300D01*
X0247100Y0441500D01*
X0191300Y0441500D01*
X0191300Y0441300D01*
X0186500Y0446300D02*
X0186500Y0446900D01*
X0188900Y0449300D01*
X0239300Y0449300D01*
X0244700Y0443900D01*
X0247700Y0443900D01*
X0250700Y0446900D01*
X0250700Y0456500D01*
X0253700Y0459500D01*
X0261500Y0459500D01*
X0320300Y0400700D01*
X0346700Y0400700D01*
X0359300Y0413300D01*
X0503900Y0413300D01*
X0536900Y0380300D01*
X0551300Y0380300D01*
X0553700Y0377900D01*
X0553700Y0352700D01*
X0553100Y0352100D01*
X0550700Y0330500D02*
X0543500Y0330500D01*
X0533300Y0340700D01*
X0518300Y0340700D01*
X0509300Y0349700D01*
X0507500Y0349700D01*
X0501500Y0355700D01*
X0456500Y0355700D01*
X0415700Y0396500D01*
X0415700Y0397100D01*
X0411500Y0401300D01*
X0411300Y0401300D01*
X0409100Y0409700D02*
X0431900Y0409700D01*
X0461900Y0379700D01*
X0461900Y0371900D01*
X0469700Y0364100D01*
X0503900Y0364100D01*
X0521300Y0346700D01*
X0521300Y0346300D01*
X0508100Y0347300D02*
X0500900Y0354500D01*
X0408500Y0354500D01*
X0390500Y0336500D01*
X0301100Y0336500D01*
X0288500Y0323900D01*
X0279500Y0323900D01*
X0278300Y0321500D02*
X0260300Y0339500D01*
X0260300Y0346100D01*
X0257900Y0348500D01*
X0254900Y0348500D01*
X0250700Y0344300D01*
X0250700Y0337100D01*
X0238100Y0324500D01*
X0184100Y0324500D01*
X0176300Y0316700D01*
X0176300Y0316300D01*
X0176300Y0316700D02*
X0166700Y0316700D01*
X0166300Y0316300D01*
X0156300Y0316300D02*
X0146900Y0325700D01*
X0125300Y0325700D01*
X0121700Y0322100D01*
X0121700Y0310700D01*
X0147500Y0284900D01*
X0165500Y0284900D01*
X0185300Y0265100D01*
X0232700Y0265100D01*
X0298100Y0199700D01*
X0298100Y0180500D01*
X0302900Y0175700D01*
X0340100Y0175700D01*
X0359900Y0155900D01*
X0359300Y0142100D02*
X0335900Y0165500D01*
X0303500Y0165500D01*
X0270500Y0198500D01*
X0270500Y0223700D01*
X0274100Y0227300D02*
X0235100Y0266300D01*
X0185900Y0266300D01*
X0166100Y0286100D01*
X0156500Y0286100D01*
X0131300Y0311300D01*
X0131300Y0321500D01*
X0134300Y0324500D01*
X0138500Y0324500D01*
X0146300Y0316700D01*
X0146300Y0316300D01*
X0141500Y0311300D02*
X0141500Y0310700D01*
X0160700Y0291500D01*
X0166100Y0291500D01*
X0176300Y0281300D01*
X0186300Y0281300D01*
X0186500Y0281300D01*
X0215900Y0310700D01*
X0226100Y0310700D01*
X0251900Y0336500D01*
X0251900Y0337100D01*
X0256100Y0341300D01*
X0256300Y0341300D01*
X0246300Y0341300D02*
X0206300Y0341300D01*
X0193100Y0328100D01*
X0139100Y0328100D01*
X0132500Y0334700D01*
X0131300Y0336300D01*
X0131300Y0335900D01*
X0132500Y0334700D01*
X0120500Y0322700D01*
X0120500Y0281300D01*
X0111300Y0281300D01*
X0107300Y0280100D02*
X0107300Y0322700D01*
X0128900Y0344300D01*
X0183500Y0344300D01*
X0191300Y0336500D01*
X0191300Y0336300D01*
X0172700Y0367700D02*
X0176300Y0371300D01*
X0172700Y0367700D02*
X0122300Y0367700D01*
X0122300Y0372500D02*
X0134900Y0385100D01*
X0194900Y0385100D01*
X0238100Y0428300D01*
X0256700Y0428300D01*
X0256700Y0421700D01*
X0256300Y0421300D01*
X0256700Y0428300D02*
X0256700Y0442700D01*
X0260300Y0446300D01*
X0260300Y0455900D01*
X0246300Y0451300D02*
X0245900Y0451100D01*
X0140900Y0451100D01*
X0131300Y0441500D01*
X0131300Y0441300D01*
X0131300Y0440900D01*
X0121700Y0431300D01*
X0121700Y0391700D01*
X0111500Y0391700D01*
X0111300Y0391300D01*
X0106100Y0387500D02*
X0098300Y0395300D01*
X0076700Y0395300D01*
X0076700Y0346700D01*
X0076300Y0346300D01*
X0076700Y0346100D01*
X0076700Y0330500D01*
X0095300Y0311900D01*
X0095300Y0270500D01*
X0091700Y0261500D02*
X0091300Y0261300D01*
X0091700Y0261500D02*
X0106100Y0261500D01*
X0110900Y0266300D01*
X0110900Y0276500D01*
X0107300Y0280100D01*
X0120500Y0281300D02*
X0126300Y0281300D01*
X0124700Y0265100D02*
X0081500Y0221900D01*
X0081500Y0211700D01*
X0081300Y0211300D01*
X0091100Y0201500D01*
X0091100Y0176300D01*
X0091300Y0176300D01*
X0091100Y0176300D02*
X0091100Y0161300D01*
X0087500Y0157700D01*
X0087500Y0154700D01*
X0089900Y0152300D01*
X0116900Y0152300D01*
X0124700Y0160100D01*
X0157700Y0160100D01*
X0161300Y0156500D01*
X0161300Y0156300D01*
X0161300Y0155900D01*
X0176300Y0155900D01*
X0179900Y0152300D01*
X0187700Y0152300D01*
X0191300Y0155900D01*
X0191300Y0156300D01*
X0185300Y0160100D02*
X0181700Y0156500D01*
X0181300Y0156300D01*
X0176300Y0161300D01*
X0110900Y0161300D01*
X0107300Y0164900D01*
X0107300Y0212300D01*
X0134300Y0239300D01*
X0188300Y0239300D01*
X0196300Y0231300D01*
X0198500Y0223100D02*
X0144500Y0223100D01*
X0143300Y0224300D01*
X0136700Y0217700D01*
X0136700Y0206300D01*
X0126500Y0196100D01*
X0126500Y0176300D01*
X0126300Y0176300D01*
X0111300Y0176300D01*
X0110900Y0161300D02*
X0106100Y0156500D01*
X0091700Y0156500D01*
X0091300Y0156300D01*
X0126300Y0156300D02*
X0126500Y0155900D01*
X0141500Y0155900D01*
X0146300Y0151100D01*
X0206300Y0151100D01*
X0211100Y0155900D01*
X0211300Y0156300D01*
X0211700Y0156500D01*
X0220100Y0156500D01*
X0260300Y0196700D01*
X0260300Y0206300D01*
X0257900Y0208700D01*
X0254900Y0208700D01*
X0247700Y0201500D01*
X0246500Y0201500D01*
X0246300Y0201300D01*
X0254900Y0200900D02*
X0214100Y0160100D01*
X0185300Y0160100D01*
X0181300Y0176300D02*
X0176300Y0176300D01*
X0141300Y0211300D01*
X0151300Y0211300D02*
X0160700Y0220700D01*
X0247100Y0220700D01*
X0248900Y0218900D01*
X0245900Y0216500D02*
X0242900Y0219500D01*
X0169100Y0219500D01*
X0161300Y0211700D01*
X0161300Y0211300D01*
X0171300Y0211300D02*
X0171500Y0211700D01*
X0181100Y0211700D01*
X0181300Y0211300D01*
X0198500Y0223100D02*
X0206300Y0230900D01*
X0245900Y0230900D01*
X0246300Y0231300D01*
X0256100Y0230900D02*
X0256100Y0222500D01*
X0213500Y0179900D01*
X0194900Y0179900D01*
X0191300Y0176300D01*
X0181300Y0176300D01*
X0139100Y0129500D02*
X0136700Y0127100D01*
X0136700Y0110900D01*
X0146300Y0101300D01*
X0146300Y0061300D01*
X0146300Y0061100D01*
X0142700Y0057500D01*
X0151700Y0071300D02*
X0161300Y0061700D01*
X0161300Y0061300D01*
X0161300Y0061100D01*
X0176300Y0061100D01*
X0179900Y0057500D01*
X0207500Y0057500D01*
X0211300Y0061300D01*
X0211700Y0061700D01*
X0211700Y0065300D01*
X0254300Y0107900D01*
X0254300Y0114500D01*
X0251300Y0117500D01*
X0251300Y0126300D01*
X0255500Y0130700D02*
X0252500Y0133700D01*
X0250100Y0133700D01*
X0243500Y0127100D01*
X0221900Y0127100D01*
X0201500Y0106700D01*
X0201500Y0106100D01*
X0196700Y0101300D01*
X0196300Y0101300D01*
X0186300Y0101300D02*
X0176300Y0101300D01*
X0161300Y0116300D01*
X0161300Y0121300D01*
X0151700Y0121100D02*
X0151700Y0116300D01*
X0161300Y0106700D01*
X0161300Y0091700D01*
X0191300Y0061700D01*
X0191300Y0061300D01*
X0187700Y0044900D02*
X0179900Y0044900D01*
X0176300Y0041300D01*
X0161300Y0041300D01*
X0145700Y0046100D02*
X0140900Y0041300D01*
X0126300Y0041300D01*
X0145700Y0046100D02*
X0206300Y0046100D01*
X0251300Y0091100D01*
X0251300Y0096300D01*
X0251300Y0096500D01*
X0255500Y0100700D01*
X0255500Y0130700D01*
X0253700Y0136100D02*
X0247100Y0136100D01*
X0240500Y0129500D01*
X0139100Y0129500D01*
X0141300Y0121300D02*
X0141500Y0121100D01*
X0141500Y0116300D01*
X0151700Y0106100D01*
X0151700Y0071300D01*
X0174500Y0092900D02*
X0231500Y0092900D01*
X0251900Y0113300D01*
X0260900Y0126500D02*
X0261300Y0126300D01*
X0260900Y0126500D02*
X0260900Y0128900D01*
X0253700Y0136100D01*
X0306300Y0131300D02*
X0331300Y0131300D01*
X0331300Y0121300D02*
X0331100Y0121100D01*
X0306500Y0121100D01*
X0306300Y0121300D01*
X0306500Y0111500D02*
X0306300Y0111300D01*
X0306500Y0111500D02*
X0331100Y0111500D01*
X0331300Y0111300D01*
X0356900Y0089900D02*
X0361100Y0085700D01*
X0361100Y0061700D01*
X0361300Y0061300D01*
X0371300Y0061300D02*
X0371300Y0085700D01*
X0367100Y0089900D01*
X0367100Y0097100D01*
X0377300Y0092900D02*
X0377300Y0065300D01*
X0381300Y0061300D01*
X0385700Y0059900D02*
X0381500Y0055700D01*
X0381500Y0051500D01*
X0381300Y0051300D01*
X0378500Y0047300D02*
X0387500Y0047300D01*
X0391100Y0050900D01*
X0391300Y0051300D01*
X0391700Y0051500D01*
X0395300Y0055100D01*
X0395300Y0076100D01*
X0391700Y0079700D01*
X0391700Y0091100D01*
X0391300Y0091300D01*
X0385700Y0086900D02*
X0381300Y0091300D01*
X0377300Y0092900D02*
X0380900Y0096500D01*
X0380900Y0101300D01*
X0381300Y0101300D01*
X0386900Y0097100D02*
X0391100Y0101300D01*
X0391300Y0101300D01*
X0391100Y0101300D02*
X0383900Y0108500D01*
X0383900Y0124700D01*
X0406300Y0146300D02*
X0445700Y0146300D01*
X0477500Y0114500D01*
X0508100Y0114500D01*
X0521300Y0101300D01*
X0521300Y0091300D01*
X0521300Y0061300D01*
X0521300Y0051300D01*
X0511300Y0051300D02*
X0511100Y0051500D01*
X0511100Y0055700D01*
X0506900Y0059900D01*
X0506900Y0086900D01*
X0511300Y0091300D01*
X0511100Y0091700D01*
X0506900Y0095900D01*
X0506900Y0101300D01*
X0494900Y0113300D01*
X0460700Y0113300D01*
X0451100Y0122900D01*
X0443300Y0122900D01*
X0440900Y0116900D02*
X0427100Y0103100D01*
X0427100Y0095900D01*
X0431300Y0091700D01*
X0431300Y0091300D01*
X0435500Y0089900D02*
X0435500Y0097100D01*
X0431300Y0101300D01*
X0421300Y0101300D02*
X0419300Y0099500D01*
X0426500Y0092300D01*
X0426500Y0037100D01*
X0454700Y0008900D01*
X0467900Y0008900D01*
X0475100Y0016100D01*
X0476300Y0016100D01*
X0476300Y0016300D01*
X0478100Y0024500D02*
X0451300Y0051300D01*
X0451700Y0051500D01*
X0455300Y0055100D01*
X0455300Y0073700D01*
X0451700Y0077300D01*
X0451700Y0091100D01*
X0451300Y0091300D01*
X0445700Y0095900D02*
X0441500Y0091700D01*
X0441300Y0091300D01*
X0440900Y0091100D01*
X0437300Y0087500D01*
X0437300Y0059300D01*
X0440900Y0055700D01*
X0440900Y0051500D01*
X0441300Y0051300D01*
X0435500Y0051500D02*
X0435500Y0056900D01*
X0431300Y0061100D01*
X0431300Y0061300D01*
X0431300Y0085700D01*
X0435500Y0089900D01*
X0445700Y0095900D02*
X0445700Y0110900D01*
X0446900Y0112100D01*
X0486500Y0112100D01*
X0496700Y0101900D01*
X0496700Y0050300D01*
X0506300Y0040700D01*
X0506300Y0016300D01*
X0491900Y0021500D02*
X0491900Y0050300D01*
X0491300Y0050900D01*
X0491300Y0051300D01*
X0491300Y0051500D01*
X0495500Y0055700D01*
X0495500Y0062900D01*
X0491300Y0067100D01*
X0491300Y0091300D01*
X0487100Y0097100D02*
X0489500Y0099500D01*
X0491300Y0101300D01*
X0489500Y0099500D02*
X0479300Y0109700D01*
X0448100Y0109700D01*
X0451100Y0101300D02*
X0451300Y0101300D01*
X0451100Y0101300D02*
X0446900Y0097100D01*
X0446900Y0080300D01*
X0451100Y0076100D01*
X0451100Y0061700D01*
X0451300Y0061300D01*
X0461300Y0061300D02*
X0461300Y0065300D01*
X0457100Y0069500D01*
X0457100Y0097100D01*
X0461300Y0101300D01*
X0467300Y0097700D02*
X0470900Y0101300D01*
X0471300Y0101300D01*
X0467300Y0097700D02*
X0467300Y0069500D01*
X0470900Y0065900D01*
X0470900Y0061700D01*
X0471300Y0061300D01*
X0475700Y0062900D02*
X0475700Y0055700D01*
X0471300Y0051300D01*
X0465500Y0055700D02*
X0461300Y0051500D01*
X0461300Y0051300D01*
X0465500Y0055700D02*
X0465500Y0062900D01*
X0461300Y0067100D01*
X0461300Y0091300D01*
X0471300Y0091300D02*
X0471500Y0091100D01*
X0471500Y0067100D01*
X0475700Y0062900D01*
X0481100Y0061700D02*
X0481300Y0061300D01*
X0481100Y0061700D02*
X0481100Y0065300D01*
X0476900Y0069500D01*
X0476900Y0097100D01*
X0481100Y0101300D01*
X0481300Y0101300D01*
X0487100Y0097100D02*
X0487100Y0069500D01*
X0491300Y0065300D01*
X0491300Y0061300D01*
X0485300Y0062900D02*
X0485300Y0055100D01*
X0481700Y0051500D01*
X0481300Y0051300D01*
X0490700Y0041900D01*
X0490700Y0022100D01*
X0476300Y0007700D01*
X0454100Y0007700D01*
X0445100Y0016700D01*
X0426500Y0016700D01*
X0426300Y0016300D01*
X0434900Y0008900D02*
X0439100Y0013100D01*
X0446900Y0013100D01*
X0453500Y0006500D01*
X0476900Y0006500D01*
X0491900Y0021500D01*
X0488300Y0024500D02*
X0478100Y0024500D01*
X0455900Y0031100D02*
X0455900Y0016700D01*
X0456300Y0016300D01*
X0455900Y0031100D02*
X0435500Y0051500D01*
X0425300Y0055100D02*
X0421700Y0051500D01*
X0421300Y0051300D01*
X0421100Y0050900D01*
X0386900Y0016700D01*
X0376700Y0016700D01*
X0376300Y0016300D01*
X0367700Y0016700D02*
X0394700Y0043700D01*
X0403700Y0043700D01*
X0411300Y0051300D01*
X0415700Y0055700D01*
X0415700Y0062900D01*
X0411500Y0067100D01*
X0411500Y0091100D01*
X0411300Y0091300D01*
X0407300Y0097700D02*
X0410900Y0101300D01*
X0411300Y0101300D01*
X0411500Y0101300D01*
X0417500Y0107300D01*
X0417500Y0113900D01*
X0421100Y0101300D02*
X0421300Y0101300D01*
X0421100Y0101300D02*
X0419300Y0099500D01*
X0416900Y0097100D01*
X0416900Y0082100D01*
X0421100Y0077900D01*
X0421100Y0061700D01*
X0421300Y0061300D01*
X0425300Y0055100D02*
X0425300Y0075500D01*
X0421700Y0079100D01*
X0421700Y0091100D01*
X0421300Y0091300D01*
X0407300Y0097700D02*
X0407300Y0069500D01*
X0410900Y0065900D01*
X0410900Y0061700D01*
X0411300Y0061300D01*
X0405500Y0055700D02*
X0401300Y0051500D01*
X0401300Y0051300D01*
X0401300Y0050900D01*
X0396500Y0046100D01*
X0387500Y0046100D01*
X0358100Y0016700D01*
X0356300Y0016700D01*
X0356300Y0016300D01*
X0347900Y0016700D02*
X0378500Y0047300D01*
X0385700Y0059900D02*
X0385700Y0086900D01*
X0386900Y0082700D02*
X0386900Y0097100D01*
X0397100Y0097100D02*
X0401300Y0101300D01*
X0434900Y0134900D01*
X0440900Y0131300D02*
X0440900Y0116900D01*
X0470900Y0122900D02*
X0489500Y0122900D01*
X0470900Y0122900D02*
X0442700Y0151100D01*
X0418700Y0151100D01*
X0440900Y0154100D02*
X0448700Y0154100D01*
X0461300Y0141500D01*
X0471300Y0141300D02*
X0471500Y0141500D01*
X0472700Y0141500D01*
X0482300Y0151100D01*
X0521300Y0151100D01*
X0521300Y0151300D01*
X0521300Y0151100D02*
X0545900Y0151100D01*
X0546300Y0151300D01*
X0545900Y0141500D02*
X0546300Y0141300D01*
X0545900Y0141500D02*
X0521300Y0141500D01*
X0521300Y0141300D01*
X0521300Y0131300D02*
X0546300Y0131300D01*
X0553700Y0130100D02*
X0553700Y0164900D01*
X0553100Y0165500D01*
X0545900Y0181100D02*
X0546300Y0181300D01*
X0545900Y0181100D02*
X0521300Y0181100D01*
X0469700Y0208700D02*
X0462500Y0201500D01*
X0461300Y0201500D01*
X0461300Y0201300D01*
X0451100Y0188900D02*
X0434300Y0205700D01*
X0434300Y0290300D01*
X0431900Y0291500D02*
X0436700Y0296300D01*
X0516500Y0296300D01*
X0521300Y0291500D01*
X0521300Y0291300D01*
X0521300Y0291500D02*
X0545900Y0291500D01*
X0546300Y0291300D01*
X0553700Y0288500D02*
X0546500Y0281300D01*
X0546300Y0281300D01*
X0521300Y0281300D01*
X0514100Y0276500D02*
X0514100Y0268700D01*
X0521300Y0261500D01*
X0521300Y0261300D01*
X0521300Y0261500D02*
X0545900Y0261500D01*
X0546300Y0261300D01*
X0545900Y0271100D02*
X0546300Y0271300D01*
X0545900Y0271100D02*
X0521300Y0271100D01*
X0521300Y0271300D01*
X0521300Y0271700D01*
X0499100Y0293900D01*
X0440900Y0293900D01*
X0431900Y0291500D02*
X0431900Y0256100D01*
X0407900Y0232100D01*
X0404900Y0232100D01*
X0401900Y0235100D01*
X0401900Y0236300D01*
X0396500Y0241700D01*
X0396500Y0245900D01*
X0396300Y0246300D01*
X0406700Y0241100D02*
X0406700Y0236300D01*
X0406300Y0236300D01*
X0406700Y0241100D02*
X0410300Y0244700D01*
X0410300Y0302300D01*
X0406300Y0306300D01*
X0406100Y0305900D01*
X0402500Y0302300D01*
X0394700Y0302300D01*
X0391100Y0305900D01*
X0386300Y0305900D01*
X0386300Y0306300D01*
X0386300Y0306500D01*
X0382100Y0310700D01*
X0376100Y0310700D01*
X0355700Y0331100D01*
X0331700Y0331100D01*
X0331300Y0331300D01*
X0331100Y0331100D01*
X0306500Y0331100D01*
X0306300Y0331300D01*
X0301700Y0335300D02*
X0293300Y0326900D01*
X0293300Y0321500D02*
X0278300Y0321500D01*
X0301700Y0335300D02*
X0391100Y0335300D01*
X0400700Y0344900D01*
X0407900Y0344900D01*
X0413900Y0338900D01*
X0467900Y0338900D01*
X0475100Y0346100D01*
X0476300Y0346100D01*
X0476300Y0346300D01*
X0472700Y0326300D02*
X0521300Y0326300D01*
X0546300Y0326300D01*
X0550700Y0330500D02*
X0553700Y0327500D01*
X0553700Y0288500D01*
X0546300Y0306300D02*
X0545900Y0306500D01*
X0521300Y0306500D01*
X0521300Y0306300D01*
X0521300Y0305900D01*
X0518300Y0302900D01*
X0437900Y0302900D01*
X0430700Y0295700D01*
X0430700Y0263300D01*
X0410300Y0242900D01*
X0410300Y0241100D01*
X0456300Y0281300D02*
X0457700Y0281300D01*
X0464900Y0288500D01*
X0502100Y0288500D01*
X0514100Y0276500D01*
X0509300Y0304100D02*
X0521300Y0316100D01*
X0521300Y0316300D01*
X0521300Y0316100D02*
X0545900Y0316100D01*
X0546300Y0316300D01*
X0509300Y0304100D02*
X0454700Y0304100D01*
X0448100Y0310700D01*
X0406100Y0310700D01*
X0401900Y0314900D01*
X0401900Y0316700D01*
X0388100Y0330500D01*
X0359900Y0330500D01*
X0376300Y0341300D02*
X0376700Y0341300D01*
X0376700Y0361100D01*
X0376300Y0361300D01*
X0364700Y0365300D02*
X0409100Y0409700D01*
X0364700Y0365300D02*
X0264500Y0365300D01*
X0306300Y0341300D02*
X0331300Y0341300D01*
X0331100Y0291500D02*
X0306500Y0291500D01*
X0306300Y0291300D01*
X0306300Y0271300D02*
X0306500Y0271100D01*
X0331100Y0271100D01*
X0331300Y0271300D01*
X0331100Y0261500D02*
X0331300Y0261300D01*
X0331100Y0261500D02*
X0306500Y0261500D01*
X0306300Y0261300D01*
X0306300Y0251300D02*
X0331300Y0251300D01*
X0331300Y0241300D02*
X0331100Y0241100D01*
X0306500Y0241100D01*
X0306300Y0241300D01*
X0306500Y0231500D02*
X0306300Y0231300D01*
X0306500Y0231500D02*
X0331100Y0231500D01*
X0331300Y0231300D01*
X0331300Y0221300D02*
X0306300Y0221300D01*
X0306300Y0211300D02*
X0306500Y0211100D01*
X0331100Y0211100D01*
X0331300Y0211300D01*
X0331100Y0201500D02*
X0331300Y0201300D01*
X0331100Y0201500D02*
X0306500Y0201500D01*
X0306300Y0201300D01*
X0306300Y0181300D02*
X0306500Y0181100D01*
X0331100Y0181100D01*
X0331300Y0181300D01*
X0331100Y0171500D02*
X0331300Y0171300D01*
X0331100Y0171500D02*
X0306500Y0171500D01*
X0306300Y0171300D01*
X0306300Y0161300D02*
X0331300Y0161300D01*
X0331300Y0151300D02*
X0331100Y0151100D01*
X0306500Y0151100D01*
X0306300Y0151300D01*
X0306500Y0141500D02*
X0306300Y0141300D01*
X0306500Y0141500D02*
X0331100Y0141500D01*
X0331300Y0141300D01*
X0397100Y0097100D02*
X0397100Y0082700D01*
X0401300Y0078500D01*
X0401300Y0061300D01*
X0405500Y0055700D02*
X0405500Y0076100D01*
X0401300Y0080300D01*
X0401300Y0091300D01*
X0391100Y0078500D02*
X0386900Y0082700D01*
X0391100Y0078500D02*
X0391100Y0061700D01*
X0391300Y0061300D01*
X0361700Y0051500D02*
X0361300Y0051300D01*
X0366500Y0016700D02*
X0366300Y0016300D01*
X0366500Y0016700D02*
X0367700Y0016700D01*
X0347900Y0016700D02*
X0326300Y0016700D01*
X0326300Y0016300D01*
X0325100Y0008900D02*
X0317900Y0016100D01*
X0316700Y0016100D01*
X0316300Y0016300D01*
X0316100Y0007700D02*
X0437300Y0007700D01*
X0440300Y0010700D01*
X0434900Y0008900D02*
X0325100Y0008900D01*
X0316100Y0007700D02*
X0277100Y0046700D01*
X0218900Y0046700D01*
X0211300Y0041300D02*
X0211100Y0041300D01*
X0206300Y0046100D01*
X0191300Y0041300D02*
X0187700Y0044900D01*
X0174500Y0092900D02*
X0171500Y0095900D01*
X0171500Y0096500D01*
X0166700Y0101300D01*
X0166300Y0101300D01*
X0151700Y0121100D02*
X0151300Y0121300D01*
X0080900Y0106700D02*
X0041300Y0106700D01*
X0041300Y0106300D01*
X0143300Y0224300D02*
X0136300Y0231300D01*
X0146300Y0256100D02*
X0201500Y0256100D01*
X0206300Y0260900D01*
X0206300Y0261300D01*
X0186300Y0261300D02*
X0184100Y0259100D01*
X0161900Y0281300D01*
X0156300Y0281300D01*
X0147500Y0265100D02*
X0124700Y0265100D01*
X0126300Y0261300D02*
X0126500Y0260900D01*
X0141500Y0260900D01*
X0146300Y0256100D01*
X0151100Y0261500D02*
X0147500Y0265100D01*
X0151100Y0261500D02*
X0155900Y0261500D01*
X0156300Y0261300D01*
X0156500Y0260900D01*
X0171500Y0260900D01*
X0175100Y0257300D01*
X0182300Y0257300D01*
X0184100Y0259100D01*
X0176300Y0261300D02*
X0176300Y0261500D01*
X0171500Y0266300D01*
X0110900Y0266300D01*
X0141500Y0311300D02*
X0136700Y0316100D01*
X0136300Y0316300D01*
X0145700Y0376100D02*
X0200900Y0376100D01*
X0245900Y0421100D01*
X0246300Y0421300D01*
X0201500Y0376100D02*
X0206300Y0371300D01*
X0201500Y0376100D02*
X0200900Y0376100D01*
X0165500Y0391700D02*
X0141500Y0415700D01*
X0141500Y0416300D01*
X0136700Y0421100D01*
X0136300Y0421300D01*
X0131300Y0426500D02*
X0131300Y0391100D01*
X0127700Y0387500D01*
X0106100Y0387500D01*
X0105500Y0386300D02*
X0100700Y0391100D01*
X0091700Y0391100D01*
X0091300Y0391300D01*
X0076700Y0395300D02*
X0076700Y0421700D01*
X0080300Y0425300D01*
X0080300Y0447500D01*
X0076700Y0451100D01*
X0076300Y0451300D01*
X0076100Y0426500D02*
X0073100Y0426500D01*
X0076100Y0426500D02*
X0076300Y0426300D01*
X0121700Y0391700D02*
X0125900Y0391700D01*
X0126300Y0391300D01*
X0166300Y0421300D02*
X0166100Y0421700D01*
X0151700Y0436100D01*
X0151300Y0441300D01*
X0151700Y0440900D01*
X0151700Y0436100D01*
X0146300Y0436100D01*
X0139700Y0429500D01*
X0134300Y0429500D01*
X0131300Y0426500D01*
X0166300Y0421300D02*
X0166700Y0421700D01*
X0176300Y0421700D01*
X0176300Y0421300D01*
X0181300Y0441300D02*
X0181700Y0441500D01*
X0186500Y0446300D01*
X0217100Y0308300D02*
X0224300Y0308300D01*
X0256300Y0231300D02*
X0256100Y0230900D01*
X0256300Y0201300D02*
X0256100Y0200900D01*
X0254900Y0200900D01*
X0331300Y0291300D02*
X0331100Y0291500D01*
X0406300Y0316300D02*
X0406700Y0316700D01*
X0406700Y0341300D01*
X0406300Y0341300D01*
X0456300Y0311300D02*
X0457700Y0311300D01*
X0472700Y0326300D01*
X0521300Y0376100D02*
X0521300Y0376300D01*
X0521300Y0376100D02*
X0545900Y0376100D01*
X0546300Y0376300D01*
X0553700Y0130100D02*
X0526700Y0103100D01*
X0526700Y0016700D01*
X0526300Y0016300D01*
X0501300Y0051300D02*
X0501500Y0051500D01*
X0501500Y0055700D01*
X0505700Y0059900D01*
X0505700Y0086900D01*
X0501300Y0091300D01*
X0511700Y0085700D02*
X0515300Y0089300D01*
X0515300Y0097700D01*
X0511700Y0101300D01*
X0511300Y0101300D01*
X0511700Y0085700D02*
X0511700Y0061700D01*
X0511300Y0061300D01*
X0485300Y0062900D02*
X0481700Y0066500D01*
X0481700Y0091100D01*
X0481300Y0091300D01*
D19*
X0489500Y0122900D03*
X0458300Y0148700D03*
X0440900Y0154100D03*
X0434900Y0134900D03*
X0440900Y0131300D03*
X0443300Y0122900D03*
X0448100Y0109700D03*
X0417500Y0113900D03*
X0383900Y0124700D03*
X0362300Y0144500D03*
X0364700Y0147500D03*
X0359300Y0142100D03*
X0359900Y0155900D03*
X0383900Y0154700D03*
X0376700Y0177500D03*
X0385100Y0188900D03*
X0418700Y0151100D03*
X0451100Y0188900D03*
X0410300Y0241100D03*
X0434300Y0290300D03*
X0440900Y0293900D03*
X0508100Y0347300D03*
X0553100Y0352100D03*
X0437900Y0407900D03*
X0359900Y0330500D03*
X0295700Y0325700D03*
X0279500Y0323900D03*
X0264500Y0365300D03*
X0223100Y0305900D03*
X0217100Y0308300D03*
X0274100Y0227300D03*
X0270500Y0223700D03*
X0248900Y0218900D03*
X0245900Y0216500D03*
X0199700Y0131900D03*
X0251900Y0113300D03*
X0218900Y0046700D03*
X0359300Y0106700D03*
X0440300Y0010700D03*
X0488300Y0024500D03*
X0553100Y0165500D03*
M02*
