%
M48
M72
T01C0.01378
T02C0.03150
T03C0.03200
T04C0.03937
T05C0.04000
T06C0.04724
T07C0.06299
T08C0.07874
T09C0.10000
T10C0.12598
%
T01
X199700Y131900
X251900Y113300
X218900Y46700
X359300Y106700
X383900Y124700
X362300Y144500
X364700Y147500
X359300Y142100
X359900Y155900
X383900Y154700
X376700Y177500
X385100Y188900
X418700Y151100
X434900Y134900
X440900Y131300
X443300Y122900
X448100Y109700
X417500Y113900
X458300Y148700
X440900Y154100
X451100Y188900
X410300Y241100
X434300Y290300
X440900Y293900
X508100Y347300
X553100Y352100
X437900Y407900
X359900Y330500
X295700Y325700
X279500Y323900
X264500Y365300
X223100Y305900
X217100Y308300
X274100Y227300
X270500Y223700
X248900Y218900
X245900Y216500
X440300Y10700
X488300Y24500
X489500Y122900
X553100Y165500
T02
X46300Y422402
X34489Y441300
T03
X76300Y451300
X96300Y451300
X96300Y426300
X76300Y426300
X91300Y391300
X111300Y391300
X126300Y391300
X126300Y371300
X111300Y371300
X91300Y371300
X96300Y346300
X76300Y346300
X76300Y321300
X96300Y321300
X91300Y281300
X111300Y281300
X126300Y281300
X126300Y261300
X111300Y261300
X91300Y261300
X81300Y236300
X101300Y236300
X101300Y211300
X81300Y211300
X91300Y176300
X111300Y176300
X126300Y176300
X126300Y156300
X111300Y156300
X91300Y156300
X81300Y126300
X81300Y106300
X101300Y106300
X101300Y126300
X146300Y156300
X161300Y156300
X161300Y176300
X146300Y176300
X181300Y176300
X191300Y176300
X211300Y176300
X211300Y156300
X191300Y156300
X181300Y156300
X181300Y61300
X191300Y61300
X211300Y61300
X211300Y41300
X191300Y41300
X181300Y41300
X161300Y41300
X146300Y41300
X146300Y61300
X161300Y61300
X126300Y61300
X111300Y61300
X91300Y61300
X91300Y41300
X111300Y41300
X126300Y41300
X146300Y261300
X156300Y261300
X156300Y281300
X146300Y281300
X176300Y281300
X186300Y281300
X206300Y281300
X206300Y261300
X186300Y261300
X176300Y261300
X176300Y371300
X186300Y371300
X206300Y371300
X206300Y391300
X186300Y391300
X176300Y391300
X156300Y391300
X146300Y391300
X146300Y371300
X156300Y371300
X376300Y361300
X376300Y341300
X406300Y341300
X406300Y361300
T04
X58111Y441300
T05
X246300Y451300
X256300Y451300
X256300Y421300
X246300Y421300
X306300Y361300
X306300Y351300
X306300Y341300
X306300Y331300
X306300Y321300
X306300Y311300
X306300Y301300
X306300Y291300
X306300Y271300
X306300Y261300
X306300Y251300
X306300Y241300
X306300Y231300
X306300Y221300
X306300Y211300
X306300Y201300
X331300Y201300
X331300Y211300
X331300Y221300
X331300Y231300
X331300Y241300
X331300Y251300
X331300Y261300
X331300Y271300
X331300Y291300
X331300Y301300
X331300Y311300
X331300Y321300
X331300Y331300
X331300Y341300
X376300Y316300
X376300Y306300
X386300Y306300
X386300Y316300
X396300Y316300
X396300Y306300
X406300Y306300
X406300Y316300
X456300Y311300
X466300Y311300
X476300Y311300
X476300Y281300
X466300Y281300
X456300Y281300
X461300Y251300
X471300Y251300
X471300Y226300
X461300Y226300
X461300Y201300
X471300Y201300
X481300Y201300
X481300Y171300
X471300Y171300
X461300Y171300
X461300Y141300
X471300Y141300
X481300Y141300
X521300Y141300
X521300Y131300
X521300Y151300
X521300Y161300
X521300Y171300
X521300Y181300
X521300Y191300
X521300Y201300
X521300Y221300
X521300Y231300
X521300Y241300
X521300Y251300
X521300Y261300
X521300Y271300
X521300Y281300
X521300Y291300
X521300Y306300
X521300Y316300
X521300Y326300
X521300Y336300
X521300Y346300
X521300Y356300
X521300Y366300
X521300Y376300
X546300Y376300
X546300Y366300
X546300Y356300
X546300Y346300
X546300Y336300
X546300Y326300
X546300Y316300
X546300Y306300
X546300Y291300
X546300Y281300
X546300Y271300
X546300Y261300
X546300Y251300
X546300Y241300
X546300Y231300
X546300Y221300
X546300Y201300
X546300Y191300
X546300Y181300
X546300Y171300
X546300Y161300
X546300Y151300
X546300Y141300
X546300Y131300
X521300Y101300
X521300Y91300
X511300Y91300
X501300Y91300
X501300Y101300
X511300Y101300
X491300Y101300
X491300Y91300
X481300Y91300
X481300Y101300
X471300Y101300
X471300Y91300
X461300Y91300
X451300Y91300
X451300Y101300
X461300Y101300
X441300Y101300
X441300Y91300
X431300Y91300
X431300Y101300
X421300Y101300
X411300Y101300
X411300Y91300
X421300Y91300
X401300Y91300
X401300Y101300
X391300Y101300
X391300Y91300
X381300Y91300
X381300Y101300
X371300Y101300
X361300Y101300
X361300Y91300
X371300Y91300
X351300Y91300
X351300Y101300
X331300Y111300
X331300Y121300
X331300Y131300
X331300Y141300
X331300Y151300
X331300Y161300
X331300Y171300
X331300Y181300
X306300Y181300
X306300Y171300
X306300Y161300
X306300Y151300
X306300Y141300
X306300Y131300
X306300Y121300
X306300Y111300
X261300Y96300
X251300Y96300
X251300Y126300
X261300Y126300
X256300Y201300
X246300Y201300
X246300Y231300
X256300Y231300
X256300Y311300
X246300Y311300
X246300Y341300
X256300Y341300
X356300Y401300
X366300Y401300
X376300Y401300
X411300Y401300
X421300Y401300
X431300Y401300
X466300Y401300
X476300Y401300
X486300Y401300
X476300Y376300
X466300Y376300
X456300Y376300
X456300Y346300
X466300Y346300
X476300Y346300
X406300Y246300
X406300Y236300
X396300Y236300
X396300Y246300
X386300Y246300
X386300Y236300
X376300Y236300
X376300Y246300
X376300Y146300
X386300Y146300
X396300Y146300
X406300Y146300
X401300Y61300
X401300Y51300
X391300Y51300
X391300Y61300
X381300Y61300
X381300Y51300
X371300Y51300
X361300Y51300
X361300Y61300
X371300Y61300
X351300Y61300
X351300Y51300
X356300Y16300
X366300Y16300
X376300Y16300
X406300Y16300
X416300Y16300
X426300Y16300
X456300Y16300
X466300Y16300
X476300Y16300
X506300Y16300
X516300Y16300
X526300Y16300
X521300Y51300
X521300Y61300
X511300Y61300
X501300Y61300
X501300Y51300
X511300Y51300
X491300Y51300
X491300Y61300
X481300Y61300
X481300Y51300
X471300Y51300
X471300Y61300
X461300Y61300
X451300Y61300
X451300Y51300
X461300Y51300
X441300Y51300
X441300Y61300
X431300Y61300
X431300Y51300
X421300Y51300
X411300Y51300
X411300Y61300
X421300Y61300
X326300Y16300
X316300Y16300
T06
X206300Y101300
X196300Y101300
X186300Y101300
X176300Y101300
X166300Y101300
X156300Y101300
X146300Y101300
X136300Y101300
X141300Y121300
X151300Y121300
X161300Y121300
X171300Y121300
X181300Y121300
X191300Y121300
X201300Y121300
X201300Y211300
X191300Y211300
X181300Y211300
X171300Y211300
X161300Y211300
X151300Y211300
X141300Y211300
X131300Y211300
X136300Y231300
X146300Y231300
X156300Y231300
X166300Y231300
X176300Y231300
X186300Y231300
X196300Y231300
X196300Y316300
X186300Y316300
X176300Y316300
X166300Y316300
X156300Y316300
X146300Y316300
X136300Y316300
X126300Y316300
X131300Y336300
X141300Y336300
X151300Y336300
X161300Y336300
X171300Y336300
X181300Y336300
X191300Y336300
X186300Y421300
X196300Y421300
X176300Y421300
X166300Y421300
X156300Y421300
X146300Y421300
X136300Y421300
X126300Y421300
X131300Y441300
X141300Y441300
X151300Y441300
X161300Y441300
X171300Y441300
X181300Y441300
X191300Y441300
T07
X41300Y376300
X41300Y356300
X41300Y336300
X41300Y291300
X41300Y271300
X41300Y251300
X41300Y201300
X41300Y181300
X41300Y161300
X41300Y106300
X41300Y86300
X41300Y66300
T08
X431300Y179300
T09
X21300Y21300
X271300Y21300
X271300Y156300
X276300Y276300
X276300Y396300
X21300Y401300
T10
X331300Y411300
X521300Y411300
X521300Y116300
X331300Y91300
M30
