G04 EAGLE Gerber RS-274X export*
G75*
%MOMM*%
%FSLAX34Y34*%
%LPD*%
%IN*%
%IPPOS*%
%AMOC8*
5,1,8,0,0,1.08239X$1,22.5*%
G01*
%ADD10C,0.254000*%


D10*
X241300Y12700D02*
X254000Y12700D01*
X279400Y-12700D01*
X622300Y-12700D01*
X647700Y12700D01*
X749300Y12700D01*
X774700Y38100D01*
X774700Y1003300D01*
X241300Y1003300D01*
X241300Y12700D01*
X353300Y887800D02*
X383300Y887800D01*
X383300Y895800D01*
X353300Y895800D01*
X353300Y887800D01*
X393300Y922300D02*
X403300Y922300D01*
X403300Y957300D01*
X393300Y957300D01*
X393300Y922300D01*
X334300Y924800D02*
X342300Y924800D01*
X342300Y954800D01*
X334300Y954800D01*
X334300Y924800D01*
X748776Y834900D02*
X747731Y834969D01*
X746692Y835105D01*
X745665Y835310D01*
X744653Y835581D01*
X743661Y835917D01*
X742693Y836318D01*
X741754Y836782D01*
X740846Y837306D01*
X739975Y837888D01*
X739144Y838525D01*
X738357Y839216D01*
X737616Y839957D01*
X736925Y840744D01*
X736288Y841575D01*
X735706Y842446D01*
X735182Y843354D01*
X734718Y844293D01*
X734317Y845261D01*
X733981Y846253D01*
X733710Y847265D01*
X733505Y848292D01*
X733369Y849331D01*
X733300Y850376D01*
X733300Y851424D01*
X733369Y852469D01*
X733505Y853508D01*
X733710Y854535D01*
X733981Y855547D01*
X734317Y856539D01*
X734718Y857507D01*
X735182Y858446D01*
X735706Y859354D01*
X736288Y860225D01*
X736925Y861056D01*
X737616Y861843D01*
X738357Y862584D01*
X739144Y863275D01*
X739975Y863913D01*
X740846Y864495D01*
X741754Y865018D01*
X742693Y865482D01*
X743661Y865883D01*
X744653Y866219D01*
X745665Y866490D01*
X746692Y866695D01*
X747731Y866832D01*
X748776Y866900D01*
X749824Y866900D01*
X750869Y866832D01*
X751908Y866695D01*
X752935Y866490D01*
X753947Y866219D01*
X754939Y865883D01*
X755907Y865482D01*
X756846Y865018D01*
X757754Y864495D01*
X758625Y863913D01*
X759456Y863275D01*
X760243Y862584D01*
X760984Y861843D01*
X761675Y861056D01*
X762313Y860225D01*
X762895Y859354D01*
X763418Y858446D01*
X763882Y857507D01*
X764283Y856539D01*
X764619Y855547D01*
X764890Y854535D01*
X765095Y853508D01*
X765232Y852469D01*
X765300Y851424D01*
X765300Y850376D01*
X765232Y849331D01*
X765095Y848292D01*
X764890Y847265D01*
X764619Y846253D01*
X764283Y845261D01*
X763882Y844293D01*
X763418Y843354D01*
X762895Y842446D01*
X762313Y841575D01*
X761675Y840744D01*
X760984Y839957D01*
X760243Y839216D01*
X759456Y838525D01*
X758625Y837888D01*
X757754Y837306D01*
X756846Y836782D01*
X755907Y836318D01*
X754939Y835917D01*
X753947Y835581D01*
X752935Y835310D01*
X751908Y835105D01*
X750869Y834969D01*
X749824Y834900D01*
X748776Y834900D01*
X266176Y834900D02*
X265131Y834969D01*
X264092Y835105D01*
X263065Y835310D01*
X262053Y835581D01*
X261061Y835917D01*
X260093Y836318D01*
X259154Y836782D01*
X258246Y837306D01*
X257375Y837888D01*
X256544Y838525D01*
X255757Y839216D01*
X255016Y839957D01*
X254325Y840744D01*
X253688Y841575D01*
X253106Y842446D01*
X252582Y843354D01*
X252118Y844293D01*
X251717Y845261D01*
X251381Y846253D01*
X251110Y847265D01*
X250905Y848292D01*
X250769Y849331D01*
X250700Y850376D01*
X250700Y851424D01*
X250769Y852469D01*
X250905Y853508D01*
X251110Y854535D01*
X251381Y855547D01*
X251717Y856539D01*
X252118Y857507D01*
X252582Y858446D01*
X253106Y859354D01*
X253688Y860225D01*
X254325Y861056D01*
X255016Y861843D01*
X255757Y862584D01*
X256544Y863275D01*
X257375Y863913D01*
X258246Y864495D01*
X259154Y865018D01*
X260093Y865482D01*
X261061Y865883D01*
X262053Y866219D01*
X263065Y866490D01*
X264092Y866695D01*
X265131Y866832D01*
X266176Y866900D01*
X267224Y866900D01*
X268269Y866832D01*
X269308Y866695D01*
X270335Y866490D01*
X271347Y866219D01*
X272339Y865883D01*
X273307Y865482D01*
X274246Y865018D01*
X275154Y864495D01*
X276025Y863913D01*
X276856Y863275D01*
X277643Y862584D01*
X278384Y861843D01*
X279075Y861056D01*
X279713Y860225D01*
X280295Y859354D01*
X280818Y858446D01*
X281282Y857507D01*
X281683Y856539D01*
X282019Y855547D01*
X282290Y854535D01*
X282495Y853508D01*
X282632Y852469D01*
X282700Y851424D01*
X282700Y850376D01*
X282632Y849331D01*
X282495Y848292D01*
X282290Y847265D01*
X282019Y846253D01*
X281683Y845261D01*
X281282Y844293D01*
X280818Y843354D01*
X280295Y842446D01*
X279713Y841575D01*
X279075Y840744D01*
X278384Y839957D01*
X277643Y839216D01*
X276856Y838525D01*
X276025Y837888D01*
X275154Y837306D01*
X274246Y836782D01*
X273307Y836318D01*
X272339Y835917D01*
X271347Y835581D01*
X270335Y835310D01*
X269308Y835105D01*
X268269Y834969D01*
X267224Y834900D01*
X266176Y834900D01*
X748776Y85600D02*
X747731Y85669D01*
X746692Y85805D01*
X745665Y86010D01*
X744653Y86281D01*
X743661Y86617D01*
X742693Y87018D01*
X741754Y87482D01*
X740846Y88006D01*
X739975Y88588D01*
X739144Y89225D01*
X738357Y89916D01*
X737616Y90657D01*
X736925Y91444D01*
X736288Y92275D01*
X735706Y93146D01*
X735182Y94054D01*
X734718Y94993D01*
X734317Y95961D01*
X733981Y96953D01*
X733710Y97965D01*
X733505Y98992D01*
X733369Y100031D01*
X733300Y101076D01*
X733300Y102124D01*
X733369Y103169D01*
X733505Y104208D01*
X733710Y105235D01*
X733981Y106247D01*
X734317Y107239D01*
X734718Y108207D01*
X735182Y109146D01*
X735706Y110054D01*
X736288Y110925D01*
X736925Y111756D01*
X737616Y112543D01*
X738357Y113284D01*
X739144Y113975D01*
X739975Y114613D01*
X740846Y115195D01*
X741754Y115718D01*
X742693Y116182D01*
X743661Y116583D01*
X744653Y116919D01*
X745665Y117190D01*
X746692Y117395D01*
X747731Y117532D01*
X748776Y117600D01*
X749824Y117600D01*
X750869Y117532D01*
X751908Y117395D01*
X752935Y117190D01*
X753947Y116919D01*
X754939Y116583D01*
X755907Y116182D01*
X756846Y115718D01*
X757754Y115195D01*
X758625Y114613D01*
X759456Y113975D01*
X760243Y113284D01*
X760984Y112543D01*
X761675Y111756D01*
X762313Y110925D01*
X762895Y110054D01*
X763418Y109146D01*
X763882Y108207D01*
X764283Y107239D01*
X764619Y106247D01*
X764890Y105235D01*
X765095Y104208D01*
X765232Y103169D01*
X765300Y102124D01*
X765300Y101076D01*
X765232Y100031D01*
X765095Y98992D01*
X764890Y97965D01*
X764619Y96953D01*
X764283Y95961D01*
X763882Y94993D01*
X763418Y94054D01*
X762895Y93146D01*
X762313Y92275D01*
X761675Y91444D01*
X760984Y90657D01*
X760243Y89916D01*
X759456Y89225D01*
X758625Y88588D01*
X757754Y88006D01*
X756846Y87482D01*
X755907Y87018D01*
X754939Y86617D01*
X753947Y86281D01*
X752935Y86010D01*
X751908Y85805D01*
X750869Y85669D01*
X749824Y85600D01*
X748776Y85600D01*
X266176Y22100D02*
X265131Y22169D01*
X264092Y22305D01*
X263065Y22510D01*
X262053Y22781D01*
X261061Y23117D01*
X260093Y23518D01*
X259154Y23982D01*
X258246Y24506D01*
X257375Y25088D01*
X256544Y25725D01*
X255757Y26416D01*
X255016Y27157D01*
X254325Y27944D01*
X253688Y28775D01*
X253106Y29646D01*
X252582Y30554D01*
X252118Y31493D01*
X251717Y32461D01*
X251381Y33453D01*
X251110Y34465D01*
X250905Y35492D01*
X250769Y36531D01*
X250700Y37576D01*
X250700Y38624D01*
X250769Y39669D01*
X250905Y40708D01*
X251110Y41735D01*
X251381Y42747D01*
X251717Y43739D01*
X252118Y44707D01*
X252582Y45646D01*
X253106Y46554D01*
X253688Y47425D01*
X254325Y48256D01*
X255016Y49043D01*
X255757Y49784D01*
X256544Y50475D01*
X257375Y51113D01*
X258246Y51695D01*
X259154Y52218D01*
X260093Y52682D01*
X261061Y53083D01*
X262053Y53419D01*
X263065Y53690D01*
X264092Y53895D01*
X265131Y54032D01*
X266176Y54100D01*
X267224Y54100D01*
X268269Y54032D01*
X269308Y53895D01*
X270335Y53690D01*
X271347Y53419D01*
X272339Y53083D01*
X273307Y52682D01*
X274246Y52218D01*
X275154Y51695D01*
X276025Y51113D01*
X276856Y50475D01*
X277643Y49784D01*
X278384Y49043D01*
X279075Y48256D01*
X279713Y47425D01*
X280295Y46554D01*
X280818Y45646D01*
X281282Y44707D01*
X281683Y43739D01*
X282019Y42747D01*
X282290Y41735D01*
X282495Y40708D01*
X282632Y39669D01*
X282700Y38624D01*
X282700Y37576D01*
X282632Y36531D01*
X282495Y35492D01*
X282290Y34465D01*
X282019Y33453D01*
X281683Y32461D01*
X281282Y31493D01*
X280818Y30554D01*
X280295Y29646D01*
X279713Y28775D01*
X279075Y27944D01*
X278384Y27157D01*
X277643Y26416D01*
X276856Y25725D01*
X276025Y25088D01*
X275154Y24506D01*
X274246Y23982D01*
X273307Y23518D01*
X272339Y23117D01*
X271347Y22781D01*
X270335Y22510D01*
X269308Y22305D01*
X268269Y22169D01*
X267224Y22100D01*
X266176Y22100D01*
X520263Y251620D02*
X519394Y251696D01*
X518534Y251848D01*
X517690Y252074D01*
X516870Y252372D01*
X516078Y252741D01*
X515322Y253178D01*
X514607Y253679D01*
X513938Y254240D01*
X513320Y254858D01*
X512759Y255527D01*
X512258Y256242D01*
X511821Y256998D01*
X511452Y257790D01*
X511154Y258610D01*
X510928Y259454D01*
X510776Y260314D01*
X510700Y261183D01*
X510700Y262057D01*
X510776Y262927D01*
X510928Y263786D01*
X511154Y264630D01*
X511452Y265450D01*
X511821Y266242D01*
X512258Y266998D01*
X512759Y267713D01*
X513320Y268382D01*
X513938Y269000D01*
X514607Y269561D01*
X515322Y270062D01*
X516078Y270499D01*
X516870Y270868D01*
X517690Y271166D01*
X518534Y271392D01*
X519394Y271544D01*
X520263Y271620D01*
X521137Y271620D01*
X522007Y271544D01*
X522866Y271392D01*
X523710Y271166D01*
X524530Y270868D01*
X525322Y270499D01*
X526078Y270062D01*
X526793Y269561D01*
X527462Y269000D01*
X528080Y268382D01*
X528641Y267713D01*
X529142Y266998D01*
X529579Y266242D01*
X529948Y265450D01*
X530246Y264630D01*
X530472Y263786D01*
X530624Y262927D01*
X530700Y262057D01*
X530700Y261183D01*
X530624Y260314D01*
X530472Y259454D01*
X530246Y258610D01*
X529948Y257790D01*
X529579Y256998D01*
X529142Y256242D01*
X528641Y255527D01*
X528080Y254858D01*
X527462Y254240D01*
X526793Y253679D01*
X526078Y253178D01*
X525322Y252741D01*
X524530Y252372D01*
X523710Y252074D01*
X522866Y251848D01*
X522007Y251696D01*
X521137Y251620D01*
X520263Y251620D01*
M02*
