G75*
%MOIN*%
%OFA0B0*%
%FSLAX25Y25*%
%IPPOS*%
%LPD*%
%AMOC8*
5,1,8,0,0,1.08239X$1,22.5*
%
%ADD10C,0.09370*%
%ADD11OC8,0.06000*%
%ADD12C,0.06000*%
%ADD13OC8,0.05200*%
%ADD14C,0.00600*%
D10*
X0017213Y0059357D02*
X0026583Y0059357D01*
X0026583Y0079043D02*
X0017213Y0079043D01*
X0017213Y0109357D02*
X0026583Y0109357D01*
X0026583Y0129043D02*
X0017213Y0129043D01*
X0103827Y0027113D02*
X0103827Y0017743D01*
X0123512Y0017743D02*
X0123512Y0027113D01*
X0155756Y0019515D02*
X0165126Y0019515D01*
X0165126Y0039200D02*
X0155756Y0039200D01*
X0155756Y0058885D02*
X0165126Y0058885D01*
X0165126Y0079515D02*
X0155756Y0079515D01*
X0155756Y0099200D02*
X0165126Y0099200D01*
X0165126Y0118885D02*
X0155756Y0118885D01*
X0155756Y0139515D02*
X0165126Y0139515D01*
X0165126Y0159200D02*
X0155756Y0159200D01*
X0155756Y0178885D02*
X0165126Y0178885D01*
X0165126Y0199515D02*
X0155756Y0199515D01*
X0155756Y0219200D02*
X0165126Y0219200D01*
X0165126Y0238885D02*
X0155756Y0238885D01*
X0115126Y0169043D02*
X0105756Y0169043D01*
X0105756Y0149357D02*
X0115126Y0149357D01*
D11*
X0118669Y0069200D03*
X0118669Y0059200D03*
X0128669Y0059200D03*
X0128669Y0069200D03*
X0108669Y0069200D03*
X0108669Y0059200D03*
X0098669Y0059200D03*
X0098669Y0069200D03*
X0088669Y0069200D03*
X0088669Y0059200D03*
X0078669Y0059200D03*
X0078669Y0069200D03*
X0068669Y0069200D03*
X0068669Y0059200D03*
X0058669Y0059200D03*
X0058669Y0069200D03*
D12*
X0018669Y0027200D02*
X0018669Y0021200D01*
X0028669Y0021200D02*
X0028669Y0027200D01*
X0038669Y0027200D02*
X0038669Y0021200D01*
D13*
X0043669Y0014200D03*
X0043669Y0034200D03*
X0083669Y0034200D03*
X0083669Y0014200D03*
D14*
X0099069Y0069000D02*
X0098669Y0069200D01*
X0160269Y0126600D02*
X0150069Y0136800D01*
X0150069Y0169200D01*
X0110469Y0169200D01*
X0110441Y0169043D01*
X0150069Y0169200D02*
X0150669Y0169200D01*
X0160269Y0178800D01*
X0160441Y0178885D01*
X0160269Y0126600D02*
X0160269Y0119400D01*
X0160441Y0118885D01*
X0160869Y0118800D01*
X0171069Y0108600D01*
X0171069Y0077400D01*
X0160869Y0067200D01*
X0160869Y0059400D01*
X0160441Y0058885D01*
X0038669Y0024200D02*
X0038469Y0024600D01*
X0038469Y0112800D01*
X0022269Y0129000D01*
X0021898Y0129043D01*
X0021898Y0079043D02*
X0022269Y0078600D01*
X0032469Y0068400D01*
X0032469Y0057000D01*
X0028869Y0053400D01*
X0028869Y0024600D01*
X0028669Y0024200D01*
M02*
