G75*
%MOIN*%
%OFA0B0*%
%FSLAX25Y25*%
%IPPOS*%
%LPD*%
%AMOC8*
5,1,8,0,0,1.08239X$1,22.5*
%
%ADD10C,0.00600*%
%ADD11C,0.00300*%
%ADD12C,0.00500*%
%ADD13R,0.03400X0.02400*%
D10*
X0016169Y0019200D02*
X0013669Y0021700D01*
X0013669Y0026700D01*
X0016169Y0029200D01*
X0021169Y0029200D01*
X0023669Y0026700D01*
X0026169Y0029200D01*
X0031169Y0029200D01*
X0033669Y0026700D01*
X0036169Y0029200D01*
X0041169Y0029200D01*
X0043669Y0026700D01*
X0043669Y0021700D01*
X0041169Y0019200D01*
X0036169Y0019200D01*
X0033669Y0021700D01*
X0031169Y0019200D01*
X0026169Y0019200D01*
X0023669Y0021700D01*
X0021169Y0019200D01*
X0016169Y0019200D01*
X0023669Y0021700D02*
X0023669Y0026700D01*
X0033669Y0026700D02*
X0033669Y0021700D01*
X0051169Y0017700D02*
X0051169Y0010700D01*
X0051171Y0010640D01*
X0051176Y0010579D01*
X0051185Y0010520D01*
X0051198Y0010461D01*
X0051214Y0010402D01*
X0051234Y0010345D01*
X0051257Y0010290D01*
X0051284Y0010235D01*
X0051313Y0010183D01*
X0051346Y0010132D01*
X0051382Y0010083D01*
X0051420Y0010037D01*
X0051462Y0009993D01*
X0051506Y0009951D01*
X0051552Y0009913D01*
X0051601Y0009877D01*
X0051652Y0009844D01*
X0051704Y0009815D01*
X0051759Y0009788D01*
X0051814Y0009765D01*
X0051871Y0009745D01*
X0051930Y0009729D01*
X0051989Y0009716D01*
X0052048Y0009707D01*
X0052109Y0009702D01*
X0052169Y0009700D01*
X0053669Y0009700D01*
X0054169Y0010200D01*
X0073169Y0010200D01*
X0073669Y0009700D01*
X0075169Y0009700D01*
X0075229Y0009702D01*
X0075290Y0009707D01*
X0075349Y0009716D01*
X0075408Y0009729D01*
X0075467Y0009745D01*
X0075524Y0009765D01*
X0075579Y0009788D01*
X0075634Y0009815D01*
X0075686Y0009844D01*
X0075737Y0009877D01*
X0075786Y0009913D01*
X0075832Y0009951D01*
X0075876Y0009993D01*
X0075918Y0010037D01*
X0075956Y0010083D01*
X0075992Y0010132D01*
X0076025Y0010183D01*
X0076054Y0010235D01*
X0076081Y0010290D01*
X0076104Y0010345D01*
X0076124Y0010402D01*
X0076140Y0010461D01*
X0076153Y0010520D01*
X0076162Y0010579D01*
X0076167Y0010640D01*
X0076169Y0010700D01*
X0076169Y0017700D01*
X0076167Y0017760D01*
X0076162Y0017821D01*
X0076153Y0017880D01*
X0076140Y0017939D01*
X0076124Y0017998D01*
X0076104Y0018055D01*
X0076081Y0018110D01*
X0076054Y0018165D01*
X0076025Y0018217D01*
X0075992Y0018268D01*
X0075956Y0018317D01*
X0075918Y0018363D01*
X0075876Y0018407D01*
X0075832Y0018449D01*
X0075786Y0018487D01*
X0075737Y0018523D01*
X0075686Y0018556D01*
X0075634Y0018585D01*
X0075579Y0018612D01*
X0075524Y0018635D01*
X0075467Y0018655D01*
X0075408Y0018671D01*
X0075349Y0018684D01*
X0075290Y0018693D01*
X0075229Y0018698D01*
X0075169Y0018700D01*
X0073669Y0018700D01*
X0073169Y0018200D01*
X0054169Y0018200D01*
X0053669Y0018700D01*
X0052169Y0018700D01*
X0052109Y0018698D01*
X0052048Y0018693D01*
X0051989Y0018684D01*
X0051930Y0018671D01*
X0051871Y0018655D01*
X0051814Y0018635D01*
X0051759Y0018612D01*
X0051704Y0018585D01*
X0051652Y0018556D01*
X0051601Y0018523D01*
X0051552Y0018487D01*
X0051506Y0018449D01*
X0051462Y0018407D01*
X0051420Y0018363D01*
X0051382Y0018317D01*
X0051346Y0018268D01*
X0051313Y0018217D01*
X0051284Y0018165D01*
X0051257Y0018110D01*
X0051234Y0018055D01*
X0051214Y0017998D01*
X0051198Y0017939D01*
X0051185Y0017880D01*
X0051176Y0017821D01*
X0051171Y0017760D01*
X0051169Y0017700D01*
X0052169Y0029700D02*
X0053669Y0029700D01*
X0054169Y0030200D01*
X0073169Y0030200D01*
X0073669Y0029700D01*
X0075169Y0029700D01*
X0075229Y0029702D01*
X0075290Y0029707D01*
X0075349Y0029716D01*
X0075408Y0029729D01*
X0075467Y0029745D01*
X0075524Y0029765D01*
X0075579Y0029788D01*
X0075634Y0029815D01*
X0075686Y0029844D01*
X0075737Y0029877D01*
X0075786Y0029913D01*
X0075832Y0029951D01*
X0075876Y0029993D01*
X0075918Y0030037D01*
X0075956Y0030083D01*
X0075992Y0030132D01*
X0076025Y0030183D01*
X0076054Y0030235D01*
X0076081Y0030290D01*
X0076104Y0030345D01*
X0076124Y0030402D01*
X0076140Y0030461D01*
X0076153Y0030520D01*
X0076162Y0030579D01*
X0076167Y0030640D01*
X0076169Y0030700D01*
X0076169Y0037700D01*
X0076167Y0037760D01*
X0076162Y0037821D01*
X0076153Y0037880D01*
X0076140Y0037939D01*
X0076124Y0037998D01*
X0076104Y0038055D01*
X0076081Y0038110D01*
X0076054Y0038165D01*
X0076025Y0038217D01*
X0075992Y0038268D01*
X0075956Y0038317D01*
X0075918Y0038363D01*
X0075876Y0038407D01*
X0075832Y0038449D01*
X0075786Y0038487D01*
X0075737Y0038523D01*
X0075686Y0038556D01*
X0075634Y0038585D01*
X0075579Y0038612D01*
X0075524Y0038635D01*
X0075467Y0038655D01*
X0075408Y0038671D01*
X0075349Y0038684D01*
X0075290Y0038693D01*
X0075229Y0038698D01*
X0075169Y0038700D01*
X0073669Y0038700D01*
X0073169Y0038200D01*
X0054169Y0038200D01*
X0053669Y0038700D01*
X0052169Y0038700D01*
X0052109Y0038698D01*
X0052048Y0038693D01*
X0051989Y0038684D01*
X0051930Y0038671D01*
X0051871Y0038655D01*
X0051814Y0038635D01*
X0051759Y0038612D01*
X0051704Y0038585D01*
X0051652Y0038556D01*
X0051601Y0038523D01*
X0051552Y0038487D01*
X0051506Y0038449D01*
X0051462Y0038407D01*
X0051420Y0038363D01*
X0051382Y0038317D01*
X0051346Y0038268D01*
X0051313Y0038217D01*
X0051284Y0038165D01*
X0051257Y0038110D01*
X0051234Y0038055D01*
X0051214Y0037998D01*
X0051198Y0037939D01*
X0051185Y0037880D01*
X0051176Y0037821D01*
X0051171Y0037760D01*
X0051169Y0037700D01*
X0051169Y0030700D01*
X0051171Y0030640D01*
X0051176Y0030579D01*
X0051185Y0030520D01*
X0051198Y0030461D01*
X0051214Y0030402D01*
X0051234Y0030345D01*
X0051257Y0030290D01*
X0051284Y0030235D01*
X0051313Y0030183D01*
X0051346Y0030132D01*
X0051382Y0030083D01*
X0051420Y0030037D01*
X0051462Y0029993D01*
X0051506Y0029951D01*
X0051552Y0029913D01*
X0051601Y0029877D01*
X0051652Y0029844D01*
X0051704Y0029815D01*
X0051759Y0029788D01*
X0051814Y0029765D01*
X0051871Y0029745D01*
X0051930Y0029729D01*
X0051989Y0029716D01*
X0052048Y0029707D01*
X0052109Y0029702D01*
X0052169Y0029700D01*
X0038433Y0049515D02*
X0031622Y0049515D01*
X0031622Y0088885D01*
X0032154Y0088885D01*
X0034476Y0088885D01*
X0038433Y0088885D01*
X0038433Y0049515D01*
X0031622Y0049515D02*
X0011819Y0049515D01*
X0011819Y0088885D01*
X0031622Y0088885D01*
X0031622Y0099515D02*
X0031622Y0138885D01*
X0032154Y0138885D01*
X0034476Y0138885D01*
X0038433Y0138885D01*
X0038433Y0099515D01*
X0031622Y0099515D01*
X0011819Y0099515D01*
X0011819Y0138885D01*
X0031622Y0138885D01*
X0011819Y0138885D02*
X0008906Y0138885D01*
X0008906Y0099515D01*
X0011819Y0099515D01*
X0011819Y0088885D02*
X0008906Y0088885D01*
X0008906Y0049515D01*
X0011819Y0049515D01*
X0053669Y0056700D02*
X0053669Y0071700D01*
X0056169Y0074200D01*
X0061169Y0074200D01*
X0063669Y0071700D01*
X0063669Y0056700D01*
X0066169Y0054200D01*
X0071169Y0054200D01*
X0073669Y0056700D01*
X0073669Y0071700D01*
X0076169Y0074200D01*
X0081169Y0074200D01*
X0083669Y0071700D01*
X0083669Y0056700D01*
X0086169Y0054200D01*
X0091169Y0054200D01*
X0093669Y0056700D01*
X0093669Y0071700D01*
X0096169Y0074200D01*
X0101169Y0074200D01*
X0103669Y0071700D01*
X0103669Y0056700D01*
X0106169Y0054200D01*
X0111169Y0054200D01*
X0113669Y0056700D01*
X0113669Y0071700D01*
X0116169Y0074200D01*
X0121169Y0074200D01*
X0123669Y0071700D01*
X0126169Y0074200D01*
X0131169Y0074200D01*
X0133669Y0071700D01*
X0133669Y0056700D01*
X0131169Y0054200D01*
X0126169Y0054200D01*
X0123669Y0056700D01*
X0123669Y0071700D01*
X0113669Y0071700D02*
X0111169Y0074200D01*
X0106169Y0074200D01*
X0103669Y0071700D01*
X0093669Y0071700D02*
X0091169Y0074200D01*
X0086169Y0074200D01*
X0083669Y0071700D01*
X0073669Y0071700D02*
X0071169Y0074200D01*
X0066169Y0074200D01*
X0063669Y0071700D01*
X0063669Y0056700D02*
X0061169Y0054200D01*
X0056169Y0054200D01*
X0053669Y0056700D01*
X0073669Y0056700D02*
X0076169Y0054200D01*
X0081169Y0054200D01*
X0083669Y0056700D01*
X0093669Y0056700D02*
X0096169Y0054200D01*
X0101169Y0054200D01*
X0103669Y0056700D01*
X0113669Y0056700D02*
X0116169Y0054200D01*
X0121169Y0054200D01*
X0123669Y0056700D01*
X0133354Y0038964D02*
X0133354Y0032153D01*
X0093984Y0032153D01*
X0093984Y0032684D01*
X0093984Y0035007D01*
X0093984Y0038964D01*
X0133354Y0038964D01*
X0133354Y0032153D02*
X0133354Y0012350D01*
X0093984Y0012350D01*
X0093984Y0032153D01*
X0093984Y0012350D02*
X0093984Y0009436D01*
X0133354Y0009436D01*
X0133354Y0012350D01*
X0143906Y0009672D02*
X0147862Y0009672D01*
X0150185Y0009672D01*
X0150717Y0009672D01*
X0150717Y0068728D01*
X0170520Y0068728D01*
X0170520Y0009672D01*
X0150717Y0009672D01*
X0143906Y0009672D02*
X0143906Y0068728D01*
X0150717Y0068728D01*
X0150717Y0069672D02*
X0150717Y0128728D01*
X0170520Y0128728D01*
X0170520Y0069672D01*
X0150717Y0069672D01*
X0150185Y0069672D01*
X0147862Y0069672D01*
X0143906Y0069672D01*
X0143906Y0128728D01*
X0150717Y0128728D01*
X0150717Y0129672D02*
X0150717Y0188728D01*
X0170520Y0188728D01*
X0170520Y0129672D01*
X0150717Y0129672D01*
X0150185Y0129672D01*
X0147862Y0129672D01*
X0143906Y0129672D01*
X0143906Y0188728D01*
X0150717Y0188728D01*
X0150717Y0189672D02*
X0150717Y0248728D01*
X0170520Y0248728D01*
X0170520Y0189672D01*
X0150717Y0189672D01*
X0150185Y0189672D01*
X0147862Y0189672D01*
X0143906Y0189672D01*
X0143906Y0248728D01*
X0150717Y0248728D01*
X0170520Y0248728D02*
X0173433Y0248728D01*
X0173433Y0189672D01*
X0170520Y0189672D01*
X0170520Y0188728D02*
X0173433Y0188728D01*
X0173433Y0129672D01*
X0170520Y0129672D01*
X0170520Y0128728D02*
X0173433Y0128728D01*
X0173433Y0069672D01*
X0170520Y0069672D01*
X0170520Y0068728D02*
X0173433Y0068728D01*
X0173433Y0009672D01*
X0170520Y0009672D01*
X0123433Y0139515D02*
X0120520Y0139515D01*
X0120520Y0178885D01*
X0123433Y0178885D01*
X0123433Y0139515D01*
X0120520Y0139515D02*
X0100717Y0139515D01*
X0100717Y0178885D01*
X0120520Y0178885D01*
X0100717Y0178885D02*
X0093906Y0178885D01*
X0093906Y0139515D01*
X0097862Y0139515D01*
X0100185Y0139515D01*
X0100717Y0139515D01*
D11*
X0100185Y0139515D02*
X0100795Y0137231D01*
X0097252Y0137231D01*
X0097862Y0139515D01*
X0097252Y0149357D02*
X0097254Y0149441D01*
X0097260Y0149524D01*
X0097270Y0149607D01*
X0097284Y0149690D01*
X0097301Y0149772D01*
X0097323Y0149853D01*
X0097348Y0149932D01*
X0097377Y0150011D01*
X0097410Y0150088D01*
X0097446Y0150163D01*
X0097486Y0150237D01*
X0097529Y0150309D01*
X0097576Y0150378D01*
X0097626Y0150445D01*
X0097679Y0150510D01*
X0097735Y0150572D01*
X0097793Y0150632D01*
X0097855Y0150689D01*
X0097919Y0150742D01*
X0097986Y0150793D01*
X0098055Y0150840D01*
X0098126Y0150885D01*
X0098199Y0150925D01*
X0098274Y0150962D01*
X0098351Y0150996D01*
X0098429Y0151026D01*
X0098508Y0151052D01*
X0098589Y0151075D01*
X0098671Y0151093D01*
X0098753Y0151108D01*
X0098836Y0151119D01*
X0098919Y0151126D01*
X0099003Y0151129D01*
X0099087Y0151128D01*
X0099170Y0151123D01*
X0099254Y0151114D01*
X0099336Y0151101D01*
X0099418Y0151085D01*
X0099499Y0151064D01*
X0099580Y0151040D01*
X0099658Y0151012D01*
X0099736Y0150980D01*
X0099812Y0150944D01*
X0099886Y0150905D01*
X0099958Y0150863D01*
X0100028Y0150817D01*
X0100096Y0150768D01*
X0100161Y0150716D01*
X0100224Y0150661D01*
X0100284Y0150603D01*
X0100342Y0150542D01*
X0100396Y0150478D01*
X0100448Y0150412D01*
X0100496Y0150344D01*
X0100541Y0150273D01*
X0100582Y0150200D01*
X0100621Y0150126D01*
X0100655Y0150050D01*
X0100686Y0149972D01*
X0100713Y0149893D01*
X0100737Y0149812D01*
X0100756Y0149731D01*
X0100772Y0149649D01*
X0100784Y0149566D01*
X0100792Y0149482D01*
X0100796Y0149399D01*
X0100796Y0149315D01*
X0100792Y0149232D01*
X0100784Y0149148D01*
X0100772Y0149065D01*
X0100756Y0148983D01*
X0100737Y0148902D01*
X0100713Y0148821D01*
X0100686Y0148742D01*
X0100655Y0148664D01*
X0100621Y0148588D01*
X0100582Y0148514D01*
X0100541Y0148441D01*
X0100496Y0148370D01*
X0100448Y0148302D01*
X0100396Y0148236D01*
X0100342Y0148172D01*
X0100284Y0148111D01*
X0100224Y0148053D01*
X0100161Y0147998D01*
X0100096Y0147946D01*
X0100028Y0147897D01*
X0099958Y0147851D01*
X0099886Y0147809D01*
X0099812Y0147770D01*
X0099736Y0147734D01*
X0099658Y0147702D01*
X0099580Y0147674D01*
X0099499Y0147650D01*
X0099418Y0147629D01*
X0099336Y0147613D01*
X0099254Y0147600D01*
X0099170Y0147591D01*
X0099087Y0147586D01*
X0099003Y0147585D01*
X0098919Y0147588D01*
X0098836Y0147595D01*
X0098753Y0147606D01*
X0098671Y0147621D01*
X0098589Y0147639D01*
X0098508Y0147662D01*
X0098429Y0147688D01*
X0098351Y0147718D01*
X0098274Y0147752D01*
X0098199Y0147789D01*
X0098126Y0147829D01*
X0098055Y0147874D01*
X0097986Y0147921D01*
X0097919Y0147972D01*
X0097855Y0148025D01*
X0097793Y0148082D01*
X0097735Y0148142D01*
X0097679Y0148204D01*
X0097626Y0148269D01*
X0097576Y0148336D01*
X0097529Y0148405D01*
X0097486Y0148477D01*
X0097446Y0148551D01*
X0097410Y0148626D01*
X0097377Y0148703D01*
X0097348Y0148782D01*
X0097323Y0148861D01*
X0097301Y0148942D01*
X0097284Y0149024D01*
X0097270Y0149107D01*
X0097260Y0149190D01*
X0097254Y0149273D01*
X0097252Y0149357D01*
X0097252Y0169043D02*
X0097254Y0169127D01*
X0097260Y0169210D01*
X0097270Y0169293D01*
X0097284Y0169376D01*
X0097301Y0169458D01*
X0097323Y0169539D01*
X0097348Y0169618D01*
X0097377Y0169697D01*
X0097410Y0169774D01*
X0097446Y0169849D01*
X0097486Y0169923D01*
X0097529Y0169995D01*
X0097576Y0170064D01*
X0097626Y0170131D01*
X0097679Y0170196D01*
X0097735Y0170258D01*
X0097793Y0170318D01*
X0097855Y0170375D01*
X0097919Y0170428D01*
X0097986Y0170479D01*
X0098055Y0170526D01*
X0098126Y0170571D01*
X0098199Y0170611D01*
X0098274Y0170648D01*
X0098351Y0170682D01*
X0098429Y0170712D01*
X0098508Y0170738D01*
X0098589Y0170761D01*
X0098671Y0170779D01*
X0098753Y0170794D01*
X0098836Y0170805D01*
X0098919Y0170812D01*
X0099003Y0170815D01*
X0099087Y0170814D01*
X0099170Y0170809D01*
X0099254Y0170800D01*
X0099336Y0170787D01*
X0099418Y0170771D01*
X0099499Y0170750D01*
X0099580Y0170726D01*
X0099658Y0170698D01*
X0099736Y0170666D01*
X0099812Y0170630D01*
X0099886Y0170591D01*
X0099958Y0170549D01*
X0100028Y0170503D01*
X0100096Y0170454D01*
X0100161Y0170402D01*
X0100224Y0170347D01*
X0100284Y0170289D01*
X0100342Y0170228D01*
X0100396Y0170164D01*
X0100448Y0170098D01*
X0100496Y0170030D01*
X0100541Y0169959D01*
X0100582Y0169886D01*
X0100621Y0169812D01*
X0100655Y0169736D01*
X0100686Y0169658D01*
X0100713Y0169579D01*
X0100737Y0169498D01*
X0100756Y0169417D01*
X0100772Y0169335D01*
X0100784Y0169252D01*
X0100792Y0169168D01*
X0100796Y0169085D01*
X0100796Y0169001D01*
X0100792Y0168918D01*
X0100784Y0168834D01*
X0100772Y0168751D01*
X0100756Y0168669D01*
X0100737Y0168588D01*
X0100713Y0168507D01*
X0100686Y0168428D01*
X0100655Y0168350D01*
X0100621Y0168274D01*
X0100582Y0168200D01*
X0100541Y0168127D01*
X0100496Y0168056D01*
X0100448Y0167988D01*
X0100396Y0167922D01*
X0100342Y0167858D01*
X0100284Y0167797D01*
X0100224Y0167739D01*
X0100161Y0167684D01*
X0100096Y0167632D01*
X0100028Y0167583D01*
X0099958Y0167537D01*
X0099886Y0167495D01*
X0099812Y0167456D01*
X0099736Y0167420D01*
X0099658Y0167388D01*
X0099580Y0167360D01*
X0099499Y0167336D01*
X0099418Y0167315D01*
X0099336Y0167299D01*
X0099254Y0167286D01*
X0099170Y0167277D01*
X0099087Y0167272D01*
X0099003Y0167271D01*
X0098919Y0167274D01*
X0098836Y0167281D01*
X0098753Y0167292D01*
X0098671Y0167307D01*
X0098589Y0167325D01*
X0098508Y0167348D01*
X0098429Y0167374D01*
X0098351Y0167404D01*
X0098274Y0167438D01*
X0098199Y0167475D01*
X0098126Y0167515D01*
X0098055Y0167560D01*
X0097986Y0167607D01*
X0097919Y0167658D01*
X0097855Y0167711D01*
X0097793Y0167768D01*
X0097735Y0167828D01*
X0097679Y0167890D01*
X0097626Y0167955D01*
X0097576Y0168022D01*
X0097529Y0168091D01*
X0097486Y0168163D01*
X0097446Y0168237D01*
X0097410Y0168312D01*
X0097377Y0168389D01*
X0097348Y0168468D01*
X0097323Y0168547D01*
X0097301Y0168628D01*
X0097284Y0168710D01*
X0097270Y0168793D01*
X0097260Y0168876D01*
X0097254Y0168959D01*
X0097252Y0169043D01*
X0147252Y0187389D02*
X0150795Y0187389D01*
X0150185Y0189672D01*
X0147862Y0189672D02*
X0147252Y0187389D01*
X0147252Y0178885D02*
X0147254Y0178969D01*
X0147260Y0179052D01*
X0147270Y0179135D01*
X0147284Y0179218D01*
X0147301Y0179300D01*
X0147323Y0179381D01*
X0147348Y0179460D01*
X0147377Y0179539D01*
X0147410Y0179616D01*
X0147446Y0179691D01*
X0147486Y0179765D01*
X0147529Y0179837D01*
X0147576Y0179906D01*
X0147626Y0179973D01*
X0147679Y0180038D01*
X0147735Y0180100D01*
X0147793Y0180160D01*
X0147855Y0180217D01*
X0147919Y0180270D01*
X0147986Y0180321D01*
X0148055Y0180368D01*
X0148126Y0180413D01*
X0148199Y0180453D01*
X0148274Y0180490D01*
X0148351Y0180524D01*
X0148429Y0180554D01*
X0148508Y0180580D01*
X0148589Y0180603D01*
X0148671Y0180621D01*
X0148753Y0180636D01*
X0148836Y0180647D01*
X0148919Y0180654D01*
X0149003Y0180657D01*
X0149087Y0180656D01*
X0149170Y0180651D01*
X0149254Y0180642D01*
X0149336Y0180629D01*
X0149418Y0180613D01*
X0149499Y0180592D01*
X0149580Y0180568D01*
X0149658Y0180540D01*
X0149736Y0180508D01*
X0149812Y0180472D01*
X0149886Y0180433D01*
X0149958Y0180391D01*
X0150028Y0180345D01*
X0150096Y0180296D01*
X0150161Y0180244D01*
X0150224Y0180189D01*
X0150284Y0180131D01*
X0150342Y0180070D01*
X0150396Y0180006D01*
X0150448Y0179940D01*
X0150496Y0179872D01*
X0150541Y0179801D01*
X0150582Y0179728D01*
X0150621Y0179654D01*
X0150655Y0179578D01*
X0150686Y0179500D01*
X0150713Y0179421D01*
X0150737Y0179340D01*
X0150756Y0179259D01*
X0150772Y0179177D01*
X0150784Y0179094D01*
X0150792Y0179010D01*
X0150796Y0178927D01*
X0150796Y0178843D01*
X0150792Y0178760D01*
X0150784Y0178676D01*
X0150772Y0178593D01*
X0150756Y0178511D01*
X0150737Y0178430D01*
X0150713Y0178349D01*
X0150686Y0178270D01*
X0150655Y0178192D01*
X0150621Y0178116D01*
X0150582Y0178042D01*
X0150541Y0177969D01*
X0150496Y0177898D01*
X0150448Y0177830D01*
X0150396Y0177764D01*
X0150342Y0177700D01*
X0150284Y0177639D01*
X0150224Y0177581D01*
X0150161Y0177526D01*
X0150096Y0177474D01*
X0150028Y0177425D01*
X0149958Y0177379D01*
X0149886Y0177337D01*
X0149812Y0177298D01*
X0149736Y0177262D01*
X0149658Y0177230D01*
X0149580Y0177202D01*
X0149499Y0177178D01*
X0149418Y0177157D01*
X0149336Y0177141D01*
X0149254Y0177128D01*
X0149170Y0177119D01*
X0149087Y0177114D01*
X0149003Y0177113D01*
X0148919Y0177116D01*
X0148836Y0177123D01*
X0148753Y0177134D01*
X0148671Y0177149D01*
X0148589Y0177167D01*
X0148508Y0177190D01*
X0148429Y0177216D01*
X0148351Y0177246D01*
X0148274Y0177280D01*
X0148199Y0177317D01*
X0148126Y0177357D01*
X0148055Y0177402D01*
X0147986Y0177449D01*
X0147919Y0177500D01*
X0147855Y0177553D01*
X0147793Y0177610D01*
X0147735Y0177670D01*
X0147679Y0177732D01*
X0147626Y0177797D01*
X0147576Y0177864D01*
X0147529Y0177933D01*
X0147486Y0178005D01*
X0147446Y0178079D01*
X0147410Y0178154D01*
X0147377Y0178231D01*
X0147348Y0178310D01*
X0147323Y0178389D01*
X0147301Y0178470D01*
X0147284Y0178552D01*
X0147270Y0178635D01*
X0147260Y0178718D01*
X0147254Y0178801D01*
X0147252Y0178885D01*
X0147252Y0159200D02*
X0147254Y0159284D01*
X0147260Y0159367D01*
X0147270Y0159450D01*
X0147284Y0159533D01*
X0147301Y0159615D01*
X0147323Y0159696D01*
X0147348Y0159775D01*
X0147377Y0159854D01*
X0147410Y0159931D01*
X0147446Y0160006D01*
X0147486Y0160080D01*
X0147529Y0160152D01*
X0147576Y0160221D01*
X0147626Y0160288D01*
X0147679Y0160353D01*
X0147735Y0160415D01*
X0147793Y0160475D01*
X0147855Y0160532D01*
X0147919Y0160585D01*
X0147986Y0160636D01*
X0148055Y0160683D01*
X0148126Y0160728D01*
X0148199Y0160768D01*
X0148274Y0160805D01*
X0148351Y0160839D01*
X0148429Y0160869D01*
X0148508Y0160895D01*
X0148589Y0160918D01*
X0148671Y0160936D01*
X0148753Y0160951D01*
X0148836Y0160962D01*
X0148919Y0160969D01*
X0149003Y0160972D01*
X0149087Y0160971D01*
X0149170Y0160966D01*
X0149254Y0160957D01*
X0149336Y0160944D01*
X0149418Y0160928D01*
X0149499Y0160907D01*
X0149580Y0160883D01*
X0149658Y0160855D01*
X0149736Y0160823D01*
X0149812Y0160787D01*
X0149886Y0160748D01*
X0149958Y0160706D01*
X0150028Y0160660D01*
X0150096Y0160611D01*
X0150161Y0160559D01*
X0150224Y0160504D01*
X0150284Y0160446D01*
X0150342Y0160385D01*
X0150396Y0160321D01*
X0150448Y0160255D01*
X0150496Y0160187D01*
X0150541Y0160116D01*
X0150582Y0160043D01*
X0150621Y0159969D01*
X0150655Y0159893D01*
X0150686Y0159815D01*
X0150713Y0159736D01*
X0150737Y0159655D01*
X0150756Y0159574D01*
X0150772Y0159492D01*
X0150784Y0159409D01*
X0150792Y0159325D01*
X0150796Y0159242D01*
X0150796Y0159158D01*
X0150792Y0159075D01*
X0150784Y0158991D01*
X0150772Y0158908D01*
X0150756Y0158826D01*
X0150737Y0158745D01*
X0150713Y0158664D01*
X0150686Y0158585D01*
X0150655Y0158507D01*
X0150621Y0158431D01*
X0150582Y0158357D01*
X0150541Y0158284D01*
X0150496Y0158213D01*
X0150448Y0158145D01*
X0150396Y0158079D01*
X0150342Y0158015D01*
X0150284Y0157954D01*
X0150224Y0157896D01*
X0150161Y0157841D01*
X0150096Y0157789D01*
X0150028Y0157740D01*
X0149958Y0157694D01*
X0149886Y0157652D01*
X0149812Y0157613D01*
X0149736Y0157577D01*
X0149658Y0157545D01*
X0149580Y0157517D01*
X0149499Y0157493D01*
X0149418Y0157472D01*
X0149336Y0157456D01*
X0149254Y0157443D01*
X0149170Y0157434D01*
X0149087Y0157429D01*
X0149003Y0157428D01*
X0148919Y0157431D01*
X0148836Y0157438D01*
X0148753Y0157449D01*
X0148671Y0157464D01*
X0148589Y0157482D01*
X0148508Y0157505D01*
X0148429Y0157531D01*
X0148351Y0157561D01*
X0148274Y0157595D01*
X0148199Y0157632D01*
X0148126Y0157672D01*
X0148055Y0157717D01*
X0147986Y0157764D01*
X0147919Y0157815D01*
X0147855Y0157868D01*
X0147793Y0157925D01*
X0147735Y0157985D01*
X0147679Y0158047D01*
X0147626Y0158112D01*
X0147576Y0158179D01*
X0147529Y0158248D01*
X0147486Y0158320D01*
X0147446Y0158394D01*
X0147410Y0158469D01*
X0147377Y0158546D01*
X0147348Y0158625D01*
X0147323Y0158704D01*
X0147301Y0158785D01*
X0147284Y0158867D01*
X0147270Y0158950D01*
X0147260Y0159033D01*
X0147254Y0159116D01*
X0147252Y0159200D01*
X0147252Y0139515D02*
X0147254Y0139599D01*
X0147260Y0139682D01*
X0147270Y0139765D01*
X0147284Y0139848D01*
X0147301Y0139930D01*
X0147323Y0140011D01*
X0147348Y0140090D01*
X0147377Y0140169D01*
X0147410Y0140246D01*
X0147446Y0140321D01*
X0147486Y0140395D01*
X0147529Y0140467D01*
X0147576Y0140536D01*
X0147626Y0140603D01*
X0147679Y0140668D01*
X0147735Y0140730D01*
X0147793Y0140790D01*
X0147855Y0140847D01*
X0147919Y0140900D01*
X0147986Y0140951D01*
X0148055Y0140998D01*
X0148126Y0141043D01*
X0148199Y0141083D01*
X0148274Y0141120D01*
X0148351Y0141154D01*
X0148429Y0141184D01*
X0148508Y0141210D01*
X0148589Y0141233D01*
X0148671Y0141251D01*
X0148753Y0141266D01*
X0148836Y0141277D01*
X0148919Y0141284D01*
X0149003Y0141287D01*
X0149087Y0141286D01*
X0149170Y0141281D01*
X0149254Y0141272D01*
X0149336Y0141259D01*
X0149418Y0141243D01*
X0149499Y0141222D01*
X0149580Y0141198D01*
X0149658Y0141170D01*
X0149736Y0141138D01*
X0149812Y0141102D01*
X0149886Y0141063D01*
X0149958Y0141021D01*
X0150028Y0140975D01*
X0150096Y0140926D01*
X0150161Y0140874D01*
X0150224Y0140819D01*
X0150284Y0140761D01*
X0150342Y0140700D01*
X0150396Y0140636D01*
X0150448Y0140570D01*
X0150496Y0140502D01*
X0150541Y0140431D01*
X0150582Y0140358D01*
X0150621Y0140284D01*
X0150655Y0140208D01*
X0150686Y0140130D01*
X0150713Y0140051D01*
X0150737Y0139970D01*
X0150756Y0139889D01*
X0150772Y0139807D01*
X0150784Y0139724D01*
X0150792Y0139640D01*
X0150796Y0139557D01*
X0150796Y0139473D01*
X0150792Y0139390D01*
X0150784Y0139306D01*
X0150772Y0139223D01*
X0150756Y0139141D01*
X0150737Y0139060D01*
X0150713Y0138979D01*
X0150686Y0138900D01*
X0150655Y0138822D01*
X0150621Y0138746D01*
X0150582Y0138672D01*
X0150541Y0138599D01*
X0150496Y0138528D01*
X0150448Y0138460D01*
X0150396Y0138394D01*
X0150342Y0138330D01*
X0150284Y0138269D01*
X0150224Y0138211D01*
X0150161Y0138156D01*
X0150096Y0138104D01*
X0150028Y0138055D01*
X0149958Y0138009D01*
X0149886Y0137967D01*
X0149812Y0137928D01*
X0149736Y0137892D01*
X0149658Y0137860D01*
X0149580Y0137832D01*
X0149499Y0137808D01*
X0149418Y0137787D01*
X0149336Y0137771D01*
X0149254Y0137758D01*
X0149170Y0137749D01*
X0149087Y0137744D01*
X0149003Y0137743D01*
X0148919Y0137746D01*
X0148836Y0137753D01*
X0148753Y0137764D01*
X0148671Y0137779D01*
X0148589Y0137797D01*
X0148508Y0137820D01*
X0148429Y0137846D01*
X0148351Y0137876D01*
X0148274Y0137910D01*
X0148199Y0137947D01*
X0148126Y0137987D01*
X0148055Y0138032D01*
X0147986Y0138079D01*
X0147919Y0138130D01*
X0147855Y0138183D01*
X0147793Y0138240D01*
X0147735Y0138300D01*
X0147679Y0138362D01*
X0147626Y0138427D01*
X0147576Y0138494D01*
X0147529Y0138563D01*
X0147486Y0138635D01*
X0147446Y0138709D01*
X0147410Y0138784D01*
X0147377Y0138861D01*
X0147348Y0138940D01*
X0147323Y0139019D01*
X0147301Y0139100D01*
X0147284Y0139182D01*
X0147270Y0139265D01*
X0147260Y0139348D01*
X0147254Y0139431D01*
X0147252Y0139515D01*
X0147862Y0129672D02*
X0147252Y0127389D01*
X0150795Y0127389D01*
X0150185Y0129672D01*
X0147252Y0118885D02*
X0147254Y0118969D01*
X0147260Y0119052D01*
X0147270Y0119135D01*
X0147284Y0119218D01*
X0147301Y0119300D01*
X0147323Y0119381D01*
X0147348Y0119460D01*
X0147377Y0119539D01*
X0147410Y0119616D01*
X0147446Y0119691D01*
X0147486Y0119765D01*
X0147529Y0119837D01*
X0147576Y0119906D01*
X0147626Y0119973D01*
X0147679Y0120038D01*
X0147735Y0120100D01*
X0147793Y0120160D01*
X0147855Y0120217D01*
X0147919Y0120270D01*
X0147986Y0120321D01*
X0148055Y0120368D01*
X0148126Y0120413D01*
X0148199Y0120453D01*
X0148274Y0120490D01*
X0148351Y0120524D01*
X0148429Y0120554D01*
X0148508Y0120580D01*
X0148589Y0120603D01*
X0148671Y0120621D01*
X0148753Y0120636D01*
X0148836Y0120647D01*
X0148919Y0120654D01*
X0149003Y0120657D01*
X0149087Y0120656D01*
X0149170Y0120651D01*
X0149254Y0120642D01*
X0149336Y0120629D01*
X0149418Y0120613D01*
X0149499Y0120592D01*
X0149580Y0120568D01*
X0149658Y0120540D01*
X0149736Y0120508D01*
X0149812Y0120472D01*
X0149886Y0120433D01*
X0149958Y0120391D01*
X0150028Y0120345D01*
X0150096Y0120296D01*
X0150161Y0120244D01*
X0150224Y0120189D01*
X0150284Y0120131D01*
X0150342Y0120070D01*
X0150396Y0120006D01*
X0150448Y0119940D01*
X0150496Y0119872D01*
X0150541Y0119801D01*
X0150582Y0119728D01*
X0150621Y0119654D01*
X0150655Y0119578D01*
X0150686Y0119500D01*
X0150713Y0119421D01*
X0150737Y0119340D01*
X0150756Y0119259D01*
X0150772Y0119177D01*
X0150784Y0119094D01*
X0150792Y0119010D01*
X0150796Y0118927D01*
X0150796Y0118843D01*
X0150792Y0118760D01*
X0150784Y0118676D01*
X0150772Y0118593D01*
X0150756Y0118511D01*
X0150737Y0118430D01*
X0150713Y0118349D01*
X0150686Y0118270D01*
X0150655Y0118192D01*
X0150621Y0118116D01*
X0150582Y0118042D01*
X0150541Y0117969D01*
X0150496Y0117898D01*
X0150448Y0117830D01*
X0150396Y0117764D01*
X0150342Y0117700D01*
X0150284Y0117639D01*
X0150224Y0117581D01*
X0150161Y0117526D01*
X0150096Y0117474D01*
X0150028Y0117425D01*
X0149958Y0117379D01*
X0149886Y0117337D01*
X0149812Y0117298D01*
X0149736Y0117262D01*
X0149658Y0117230D01*
X0149580Y0117202D01*
X0149499Y0117178D01*
X0149418Y0117157D01*
X0149336Y0117141D01*
X0149254Y0117128D01*
X0149170Y0117119D01*
X0149087Y0117114D01*
X0149003Y0117113D01*
X0148919Y0117116D01*
X0148836Y0117123D01*
X0148753Y0117134D01*
X0148671Y0117149D01*
X0148589Y0117167D01*
X0148508Y0117190D01*
X0148429Y0117216D01*
X0148351Y0117246D01*
X0148274Y0117280D01*
X0148199Y0117317D01*
X0148126Y0117357D01*
X0148055Y0117402D01*
X0147986Y0117449D01*
X0147919Y0117500D01*
X0147855Y0117553D01*
X0147793Y0117610D01*
X0147735Y0117670D01*
X0147679Y0117732D01*
X0147626Y0117797D01*
X0147576Y0117864D01*
X0147529Y0117933D01*
X0147486Y0118005D01*
X0147446Y0118079D01*
X0147410Y0118154D01*
X0147377Y0118231D01*
X0147348Y0118310D01*
X0147323Y0118389D01*
X0147301Y0118470D01*
X0147284Y0118552D01*
X0147270Y0118635D01*
X0147260Y0118718D01*
X0147254Y0118801D01*
X0147252Y0118885D01*
X0147252Y0099200D02*
X0147254Y0099284D01*
X0147260Y0099367D01*
X0147270Y0099450D01*
X0147284Y0099533D01*
X0147301Y0099615D01*
X0147323Y0099696D01*
X0147348Y0099775D01*
X0147377Y0099854D01*
X0147410Y0099931D01*
X0147446Y0100006D01*
X0147486Y0100080D01*
X0147529Y0100152D01*
X0147576Y0100221D01*
X0147626Y0100288D01*
X0147679Y0100353D01*
X0147735Y0100415D01*
X0147793Y0100475D01*
X0147855Y0100532D01*
X0147919Y0100585D01*
X0147986Y0100636D01*
X0148055Y0100683D01*
X0148126Y0100728D01*
X0148199Y0100768D01*
X0148274Y0100805D01*
X0148351Y0100839D01*
X0148429Y0100869D01*
X0148508Y0100895D01*
X0148589Y0100918D01*
X0148671Y0100936D01*
X0148753Y0100951D01*
X0148836Y0100962D01*
X0148919Y0100969D01*
X0149003Y0100972D01*
X0149087Y0100971D01*
X0149170Y0100966D01*
X0149254Y0100957D01*
X0149336Y0100944D01*
X0149418Y0100928D01*
X0149499Y0100907D01*
X0149580Y0100883D01*
X0149658Y0100855D01*
X0149736Y0100823D01*
X0149812Y0100787D01*
X0149886Y0100748D01*
X0149958Y0100706D01*
X0150028Y0100660D01*
X0150096Y0100611D01*
X0150161Y0100559D01*
X0150224Y0100504D01*
X0150284Y0100446D01*
X0150342Y0100385D01*
X0150396Y0100321D01*
X0150448Y0100255D01*
X0150496Y0100187D01*
X0150541Y0100116D01*
X0150582Y0100043D01*
X0150621Y0099969D01*
X0150655Y0099893D01*
X0150686Y0099815D01*
X0150713Y0099736D01*
X0150737Y0099655D01*
X0150756Y0099574D01*
X0150772Y0099492D01*
X0150784Y0099409D01*
X0150792Y0099325D01*
X0150796Y0099242D01*
X0150796Y0099158D01*
X0150792Y0099075D01*
X0150784Y0098991D01*
X0150772Y0098908D01*
X0150756Y0098826D01*
X0150737Y0098745D01*
X0150713Y0098664D01*
X0150686Y0098585D01*
X0150655Y0098507D01*
X0150621Y0098431D01*
X0150582Y0098357D01*
X0150541Y0098284D01*
X0150496Y0098213D01*
X0150448Y0098145D01*
X0150396Y0098079D01*
X0150342Y0098015D01*
X0150284Y0097954D01*
X0150224Y0097896D01*
X0150161Y0097841D01*
X0150096Y0097789D01*
X0150028Y0097740D01*
X0149958Y0097694D01*
X0149886Y0097652D01*
X0149812Y0097613D01*
X0149736Y0097577D01*
X0149658Y0097545D01*
X0149580Y0097517D01*
X0149499Y0097493D01*
X0149418Y0097472D01*
X0149336Y0097456D01*
X0149254Y0097443D01*
X0149170Y0097434D01*
X0149087Y0097429D01*
X0149003Y0097428D01*
X0148919Y0097431D01*
X0148836Y0097438D01*
X0148753Y0097449D01*
X0148671Y0097464D01*
X0148589Y0097482D01*
X0148508Y0097505D01*
X0148429Y0097531D01*
X0148351Y0097561D01*
X0148274Y0097595D01*
X0148199Y0097632D01*
X0148126Y0097672D01*
X0148055Y0097717D01*
X0147986Y0097764D01*
X0147919Y0097815D01*
X0147855Y0097868D01*
X0147793Y0097925D01*
X0147735Y0097985D01*
X0147679Y0098047D01*
X0147626Y0098112D01*
X0147576Y0098179D01*
X0147529Y0098248D01*
X0147486Y0098320D01*
X0147446Y0098394D01*
X0147410Y0098469D01*
X0147377Y0098546D01*
X0147348Y0098625D01*
X0147323Y0098704D01*
X0147301Y0098785D01*
X0147284Y0098867D01*
X0147270Y0098950D01*
X0147260Y0099033D01*
X0147254Y0099116D01*
X0147252Y0099200D01*
X0147252Y0079515D02*
X0147254Y0079599D01*
X0147260Y0079682D01*
X0147270Y0079765D01*
X0147284Y0079848D01*
X0147301Y0079930D01*
X0147323Y0080011D01*
X0147348Y0080090D01*
X0147377Y0080169D01*
X0147410Y0080246D01*
X0147446Y0080321D01*
X0147486Y0080395D01*
X0147529Y0080467D01*
X0147576Y0080536D01*
X0147626Y0080603D01*
X0147679Y0080668D01*
X0147735Y0080730D01*
X0147793Y0080790D01*
X0147855Y0080847D01*
X0147919Y0080900D01*
X0147986Y0080951D01*
X0148055Y0080998D01*
X0148126Y0081043D01*
X0148199Y0081083D01*
X0148274Y0081120D01*
X0148351Y0081154D01*
X0148429Y0081184D01*
X0148508Y0081210D01*
X0148589Y0081233D01*
X0148671Y0081251D01*
X0148753Y0081266D01*
X0148836Y0081277D01*
X0148919Y0081284D01*
X0149003Y0081287D01*
X0149087Y0081286D01*
X0149170Y0081281D01*
X0149254Y0081272D01*
X0149336Y0081259D01*
X0149418Y0081243D01*
X0149499Y0081222D01*
X0149580Y0081198D01*
X0149658Y0081170D01*
X0149736Y0081138D01*
X0149812Y0081102D01*
X0149886Y0081063D01*
X0149958Y0081021D01*
X0150028Y0080975D01*
X0150096Y0080926D01*
X0150161Y0080874D01*
X0150224Y0080819D01*
X0150284Y0080761D01*
X0150342Y0080700D01*
X0150396Y0080636D01*
X0150448Y0080570D01*
X0150496Y0080502D01*
X0150541Y0080431D01*
X0150582Y0080358D01*
X0150621Y0080284D01*
X0150655Y0080208D01*
X0150686Y0080130D01*
X0150713Y0080051D01*
X0150737Y0079970D01*
X0150756Y0079889D01*
X0150772Y0079807D01*
X0150784Y0079724D01*
X0150792Y0079640D01*
X0150796Y0079557D01*
X0150796Y0079473D01*
X0150792Y0079390D01*
X0150784Y0079306D01*
X0150772Y0079223D01*
X0150756Y0079141D01*
X0150737Y0079060D01*
X0150713Y0078979D01*
X0150686Y0078900D01*
X0150655Y0078822D01*
X0150621Y0078746D01*
X0150582Y0078672D01*
X0150541Y0078599D01*
X0150496Y0078528D01*
X0150448Y0078460D01*
X0150396Y0078394D01*
X0150342Y0078330D01*
X0150284Y0078269D01*
X0150224Y0078211D01*
X0150161Y0078156D01*
X0150096Y0078104D01*
X0150028Y0078055D01*
X0149958Y0078009D01*
X0149886Y0077967D01*
X0149812Y0077928D01*
X0149736Y0077892D01*
X0149658Y0077860D01*
X0149580Y0077832D01*
X0149499Y0077808D01*
X0149418Y0077787D01*
X0149336Y0077771D01*
X0149254Y0077758D01*
X0149170Y0077749D01*
X0149087Y0077744D01*
X0149003Y0077743D01*
X0148919Y0077746D01*
X0148836Y0077753D01*
X0148753Y0077764D01*
X0148671Y0077779D01*
X0148589Y0077797D01*
X0148508Y0077820D01*
X0148429Y0077846D01*
X0148351Y0077876D01*
X0148274Y0077910D01*
X0148199Y0077947D01*
X0148126Y0077987D01*
X0148055Y0078032D01*
X0147986Y0078079D01*
X0147919Y0078130D01*
X0147855Y0078183D01*
X0147793Y0078240D01*
X0147735Y0078300D01*
X0147679Y0078362D01*
X0147626Y0078427D01*
X0147576Y0078494D01*
X0147529Y0078563D01*
X0147486Y0078635D01*
X0147446Y0078709D01*
X0147410Y0078784D01*
X0147377Y0078861D01*
X0147348Y0078940D01*
X0147323Y0079019D01*
X0147301Y0079100D01*
X0147284Y0079182D01*
X0147270Y0079265D01*
X0147260Y0079348D01*
X0147254Y0079431D01*
X0147252Y0079515D01*
X0147862Y0069672D02*
X0147252Y0067389D01*
X0150795Y0067389D01*
X0150185Y0069672D01*
X0147252Y0058885D02*
X0147254Y0058969D01*
X0147260Y0059052D01*
X0147270Y0059135D01*
X0147284Y0059218D01*
X0147301Y0059300D01*
X0147323Y0059381D01*
X0147348Y0059460D01*
X0147377Y0059539D01*
X0147410Y0059616D01*
X0147446Y0059691D01*
X0147486Y0059765D01*
X0147529Y0059837D01*
X0147576Y0059906D01*
X0147626Y0059973D01*
X0147679Y0060038D01*
X0147735Y0060100D01*
X0147793Y0060160D01*
X0147855Y0060217D01*
X0147919Y0060270D01*
X0147986Y0060321D01*
X0148055Y0060368D01*
X0148126Y0060413D01*
X0148199Y0060453D01*
X0148274Y0060490D01*
X0148351Y0060524D01*
X0148429Y0060554D01*
X0148508Y0060580D01*
X0148589Y0060603D01*
X0148671Y0060621D01*
X0148753Y0060636D01*
X0148836Y0060647D01*
X0148919Y0060654D01*
X0149003Y0060657D01*
X0149087Y0060656D01*
X0149170Y0060651D01*
X0149254Y0060642D01*
X0149336Y0060629D01*
X0149418Y0060613D01*
X0149499Y0060592D01*
X0149580Y0060568D01*
X0149658Y0060540D01*
X0149736Y0060508D01*
X0149812Y0060472D01*
X0149886Y0060433D01*
X0149958Y0060391D01*
X0150028Y0060345D01*
X0150096Y0060296D01*
X0150161Y0060244D01*
X0150224Y0060189D01*
X0150284Y0060131D01*
X0150342Y0060070D01*
X0150396Y0060006D01*
X0150448Y0059940D01*
X0150496Y0059872D01*
X0150541Y0059801D01*
X0150582Y0059728D01*
X0150621Y0059654D01*
X0150655Y0059578D01*
X0150686Y0059500D01*
X0150713Y0059421D01*
X0150737Y0059340D01*
X0150756Y0059259D01*
X0150772Y0059177D01*
X0150784Y0059094D01*
X0150792Y0059010D01*
X0150796Y0058927D01*
X0150796Y0058843D01*
X0150792Y0058760D01*
X0150784Y0058676D01*
X0150772Y0058593D01*
X0150756Y0058511D01*
X0150737Y0058430D01*
X0150713Y0058349D01*
X0150686Y0058270D01*
X0150655Y0058192D01*
X0150621Y0058116D01*
X0150582Y0058042D01*
X0150541Y0057969D01*
X0150496Y0057898D01*
X0150448Y0057830D01*
X0150396Y0057764D01*
X0150342Y0057700D01*
X0150284Y0057639D01*
X0150224Y0057581D01*
X0150161Y0057526D01*
X0150096Y0057474D01*
X0150028Y0057425D01*
X0149958Y0057379D01*
X0149886Y0057337D01*
X0149812Y0057298D01*
X0149736Y0057262D01*
X0149658Y0057230D01*
X0149580Y0057202D01*
X0149499Y0057178D01*
X0149418Y0057157D01*
X0149336Y0057141D01*
X0149254Y0057128D01*
X0149170Y0057119D01*
X0149087Y0057114D01*
X0149003Y0057113D01*
X0148919Y0057116D01*
X0148836Y0057123D01*
X0148753Y0057134D01*
X0148671Y0057149D01*
X0148589Y0057167D01*
X0148508Y0057190D01*
X0148429Y0057216D01*
X0148351Y0057246D01*
X0148274Y0057280D01*
X0148199Y0057317D01*
X0148126Y0057357D01*
X0148055Y0057402D01*
X0147986Y0057449D01*
X0147919Y0057500D01*
X0147855Y0057553D01*
X0147793Y0057610D01*
X0147735Y0057670D01*
X0147679Y0057732D01*
X0147626Y0057797D01*
X0147576Y0057864D01*
X0147529Y0057933D01*
X0147486Y0058005D01*
X0147446Y0058079D01*
X0147410Y0058154D01*
X0147377Y0058231D01*
X0147348Y0058310D01*
X0147323Y0058389D01*
X0147301Y0058470D01*
X0147284Y0058552D01*
X0147270Y0058635D01*
X0147260Y0058718D01*
X0147254Y0058801D01*
X0147252Y0058885D01*
X0147252Y0039200D02*
X0147254Y0039284D01*
X0147260Y0039367D01*
X0147270Y0039450D01*
X0147284Y0039533D01*
X0147301Y0039615D01*
X0147323Y0039696D01*
X0147348Y0039775D01*
X0147377Y0039854D01*
X0147410Y0039931D01*
X0147446Y0040006D01*
X0147486Y0040080D01*
X0147529Y0040152D01*
X0147576Y0040221D01*
X0147626Y0040288D01*
X0147679Y0040353D01*
X0147735Y0040415D01*
X0147793Y0040475D01*
X0147855Y0040532D01*
X0147919Y0040585D01*
X0147986Y0040636D01*
X0148055Y0040683D01*
X0148126Y0040728D01*
X0148199Y0040768D01*
X0148274Y0040805D01*
X0148351Y0040839D01*
X0148429Y0040869D01*
X0148508Y0040895D01*
X0148589Y0040918D01*
X0148671Y0040936D01*
X0148753Y0040951D01*
X0148836Y0040962D01*
X0148919Y0040969D01*
X0149003Y0040972D01*
X0149087Y0040971D01*
X0149170Y0040966D01*
X0149254Y0040957D01*
X0149336Y0040944D01*
X0149418Y0040928D01*
X0149499Y0040907D01*
X0149580Y0040883D01*
X0149658Y0040855D01*
X0149736Y0040823D01*
X0149812Y0040787D01*
X0149886Y0040748D01*
X0149958Y0040706D01*
X0150028Y0040660D01*
X0150096Y0040611D01*
X0150161Y0040559D01*
X0150224Y0040504D01*
X0150284Y0040446D01*
X0150342Y0040385D01*
X0150396Y0040321D01*
X0150448Y0040255D01*
X0150496Y0040187D01*
X0150541Y0040116D01*
X0150582Y0040043D01*
X0150621Y0039969D01*
X0150655Y0039893D01*
X0150686Y0039815D01*
X0150713Y0039736D01*
X0150737Y0039655D01*
X0150756Y0039574D01*
X0150772Y0039492D01*
X0150784Y0039409D01*
X0150792Y0039325D01*
X0150796Y0039242D01*
X0150796Y0039158D01*
X0150792Y0039075D01*
X0150784Y0038991D01*
X0150772Y0038908D01*
X0150756Y0038826D01*
X0150737Y0038745D01*
X0150713Y0038664D01*
X0150686Y0038585D01*
X0150655Y0038507D01*
X0150621Y0038431D01*
X0150582Y0038357D01*
X0150541Y0038284D01*
X0150496Y0038213D01*
X0150448Y0038145D01*
X0150396Y0038079D01*
X0150342Y0038015D01*
X0150284Y0037954D01*
X0150224Y0037896D01*
X0150161Y0037841D01*
X0150096Y0037789D01*
X0150028Y0037740D01*
X0149958Y0037694D01*
X0149886Y0037652D01*
X0149812Y0037613D01*
X0149736Y0037577D01*
X0149658Y0037545D01*
X0149580Y0037517D01*
X0149499Y0037493D01*
X0149418Y0037472D01*
X0149336Y0037456D01*
X0149254Y0037443D01*
X0149170Y0037434D01*
X0149087Y0037429D01*
X0149003Y0037428D01*
X0148919Y0037431D01*
X0148836Y0037438D01*
X0148753Y0037449D01*
X0148671Y0037464D01*
X0148589Y0037482D01*
X0148508Y0037505D01*
X0148429Y0037531D01*
X0148351Y0037561D01*
X0148274Y0037595D01*
X0148199Y0037632D01*
X0148126Y0037672D01*
X0148055Y0037717D01*
X0147986Y0037764D01*
X0147919Y0037815D01*
X0147855Y0037868D01*
X0147793Y0037925D01*
X0147735Y0037985D01*
X0147679Y0038047D01*
X0147626Y0038112D01*
X0147576Y0038179D01*
X0147529Y0038248D01*
X0147486Y0038320D01*
X0147446Y0038394D01*
X0147410Y0038469D01*
X0147377Y0038546D01*
X0147348Y0038625D01*
X0147323Y0038704D01*
X0147301Y0038785D01*
X0147284Y0038867D01*
X0147270Y0038950D01*
X0147260Y0039033D01*
X0147254Y0039116D01*
X0147252Y0039200D01*
X0147252Y0019515D02*
X0147254Y0019599D01*
X0147260Y0019682D01*
X0147270Y0019765D01*
X0147284Y0019848D01*
X0147301Y0019930D01*
X0147323Y0020011D01*
X0147348Y0020090D01*
X0147377Y0020169D01*
X0147410Y0020246D01*
X0147446Y0020321D01*
X0147486Y0020395D01*
X0147529Y0020467D01*
X0147576Y0020536D01*
X0147626Y0020603D01*
X0147679Y0020668D01*
X0147735Y0020730D01*
X0147793Y0020790D01*
X0147855Y0020847D01*
X0147919Y0020900D01*
X0147986Y0020951D01*
X0148055Y0020998D01*
X0148126Y0021043D01*
X0148199Y0021083D01*
X0148274Y0021120D01*
X0148351Y0021154D01*
X0148429Y0021184D01*
X0148508Y0021210D01*
X0148589Y0021233D01*
X0148671Y0021251D01*
X0148753Y0021266D01*
X0148836Y0021277D01*
X0148919Y0021284D01*
X0149003Y0021287D01*
X0149087Y0021286D01*
X0149170Y0021281D01*
X0149254Y0021272D01*
X0149336Y0021259D01*
X0149418Y0021243D01*
X0149499Y0021222D01*
X0149580Y0021198D01*
X0149658Y0021170D01*
X0149736Y0021138D01*
X0149812Y0021102D01*
X0149886Y0021063D01*
X0149958Y0021021D01*
X0150028Y0020975D01*
X0150096Y0020926D01*
X0150161Y0020874D01*
X0150224Y0020819D01*
X0150284Y0020761D01*
X0150342Y0020700D01*
X0150396Y0020636D01*
X0150448Y0020570D01*
X0150496Y0020502D01*
X0150541Y0020431D01*
X0150582Y0020358D01*
X0150621Y0020284D01*
X0150655Y0020208D01*
X0150686Y0020130D01*
X0150713Y0020051D01*
X0150737Y0019970D01*
X0150756Y0019889D01*
X0150772Y0019807D01*
X0150784Y0019724D01*
X0150792Y0019640D01*
X0150796Y0019557D01*
X0150796Y0019473D01*
X0150792Y0019390D01*
X0150784Y0019306D01*
X0150772Y0019223D01*
X0150756Y0019141D01*
X0150737Y0019060D01*
X0150713Y0018979D01*
X0150686Y0018900D01*
X0150655Y0018822D01*
X0150621Y0018746D01*
X0150582Y0018672D01*
X0150541Y0018599D01*
X0150496Y0018528D01*
X0150448Y0018460D01*
X0150396Y0018394D01*
X0150342Y0018330D01*
X0150284Y0018269D01*
X0150224Y0018211D01*
X0150161Y0018156D01*
X0150096Y0018104D01*
X0150028Y0018055D01*
X0149958Y0018009D01*
X0149886Y0017967D01*
X0149812Y0017928D01*
X0149736Y0017892D01*
X0149658Y0017860D01*
X0149580Y0017832D01*
X0149499Y0017808D01*
X0149418Y0017787D01*
X0149336Y0017771D01*
X0149254Y0017758D01*
X0149170Y0017749D01*
X0149087Y0017744D01*
X0149003Y0017743D01*
X0148919Y0017746D01*
X0148836Y0017753D01*
X0148753Y0017764D01*
X0148671Y0017779D01*
X0148589Y0017797D01*
X0148508Y0017820D01*
X0148429Y0017846D01*
X0148351Y0017876D01*
X0148274Y0017910D01*
X0148199Y0017947D01*
X0148126Y0017987D01*
X0148055Y0018032D01*
X0147986Y0018079D01*
X0147919Y0018130D01*
X0147855Y0018183D01*
X0147793Y0018240D01*
X0147735Y0018300D01*
X0147679Y0018362D01*
X0147626Y0018427D01*
X0147576Y0018494D01*
X0147529Y0018563D01*
X0147486Y0018635D01*
X0147446Y0018709D01*
X0147410Y0018784D01*
X0147377Y0018861D01*
X0147348Y0018940D01*
X0147323Y0019019D01*
X0147301Y0019100D01*
X0147284Y0019182D01*
X0147270Y0019265D01*
X0147260Y0019348D01*
X0147254Y0019431D01*
X0147252Y0019515D01*
X0147862Y0009672D02*
X0147252Y0007389D01*
X0150795Y0007389D01*
X0150185Y0009672D01*
X0121740Y0033846D02*
X0121742Y0033930D01*
X0121748Y0034013D01*
X0121758Y0034096D01*
X0121772Y0034179D01*
X0121789Y0034261D01*
X0121811Y0034342D01*
X0121836Y0034421D01*
X0121865Y0034500D01*
X0121898Y0034577D01*
X0121934Y0034652D01*
X0121974Y0034726D01*
X0122017Y0034798D01*
X0122064Y0034867D01*
X0122114Y0034934D01*
X0122167Y0034999D01*
X0122223Y0035061D01*
X0122281Y0035121D01*
X0122343Y0035178D01*
X0122407Y0035231D01*
X0122474Y0035282D01*
X0122543Y0035329D01*
X0122614Y0035374D01*
X0122687Y0035414D01*
X0122762Y0035451D01*
X0122839Y0035485D01*
X0122917Y0035515D01*
X0122996Y0035541D01*
X0123077Y0035564D01*
X0123159Y0035582D01*
X0123241Y0035597D01*
X0123324Y0035608D01*
X0123407Y0035615D01*
X0123491Y0035618D01*
X0123575Y0035617D01*
X0123658Y0035612D01*
X0123742Y0035603D01*
X0123824Y0035590D01*
X0123906Y0035574D01*
X0123987Y0035553D01*
X0124068Y0035529D01*
X0124146Y0035501D01*
X0124224Y0035469D01*
X0124300Y0035433D01*
X0124374Y0035394D01*
X0124446Y0035352D01*
X0124516Y0035306D01*
X0124584Y0035257D01*
X0124649Y0035205D01*
X0124712Y0035150D01*
X0124772Y0035092D01*
X0124830Y0035031D01*
X0124884Y0034967D01*
X0124936Y0034901D01*
X0124984Y0034833D01*
X0125029Y0034762D01*
X0125070Y0034689D01*
X0125109Y0034615D01*
X0125143Y0034539D01*
X0125174Y0034461D01*
X0125201Y0034382D01*
X0125225Y0034301D01*
X0125244Y0034220D01*
X0125260Y0034138D01*
X0125272Y0034055D01*
X0125280Y0033971D01*
X0125284Y0033888D01*
X0125284Y0033804D01*
X0125280Y0033721D01*
X0125272Y0033637D01*
X0125260Y0033554D01*
X0125244Y0033472D01*
X0125225Y0033391D01*
X0125201Y0033310D01*
X0125174Y0033231D01*
X0125143Y0033153D01*
X0125109Y0033077D01*
X0125070Y0033003D01*
X0125029Y0032930D01*
X0124984Y0032859D01*
X0124936Y0032791D01*
X0124884Y0032725D01*
X0124830Y0032661D01*
X0124772Y0032600D01*
X0124712Y0032542D01*
X0124649Y0032487D01*
X0124584Y0032435D01*
X0124516Y0032386D01*
X0124446Y0032340D01*
X0124374Y0032298D01*
X0124300Y0032259D01*
X0124224Y0032223D01*
X0124146Y0032191D01*
X0124068Y0032163D01*
X0123987Y0032139D01*
X0123906Y0032118D01*
X0123824Y0032102D01*
X0123742Y0032089D01*
X0123658Y0032080D01*
X0123575Y0032075D01*
X0123491Y0032074D01*
X0123407Y0032077D01*
X0123324Y0032084D01*
X0123241Y0032095D01*
X0123159Y0032110D01*
X0123077Y0032128D01*
X0122996Y0032151D01*
X0122917Y0032177D01*
X0122839Y0032207D01*
X0122762Y0032241D01*
X0122687Y0032278D01*
X0122614Y0032318D01*
X0122543Y0032363D01*
X0122474Y0032410D01*
X0122407Y0032461D01*
X0122343Y0032514D01*
X0122281Y0032571D01*
X0122223Y0032631D01*
X0122167Y0032693D01*
X0122114Y0032758D01*
X0122064Y0032825D01*
X0122017Y0032894D01*
X0121974Y0032966D01*
X0121934Y0033040D01*
X0121898Y0033115D01*
X0121865Y0033192D01*
X0121836Y0033271D01*
X0121811Y0033350D01*
X0121789Y0033431D01*
X0121772Y0033513D01*
X0121758Y0033596D01*
X0121748Y0033679D01*
X0121742Y0033762D01*
X0121740Y0033846D01*
X0102055Y0033846D02*
X0102057Y0033930D01*
X0102063Y0034013D01*
X0102073Y0034096D01*
X0102087Y0034179D01*
X0102104Y0034261D01*
X0102126Y0034342D01*
X0102151Y0034421D01*
X0102180Y0034500D01*
X0102213Y0034577D01*
X0102249Y0034652D01*
X0102289Y0034726D01*
X0102332Y0034798D01*
X0102379Y0034867D01*
X0102429Y0034934D01*
X0102482Y0034999D01*
X0102538Y0035061D01*
X0102596Y0035121D01*
X0102658Y0035178D01*
X0102722Y0035231D01*
X0102789Y0035282D01*
X0102858Y0035329D01*
X0102929Y0035374D01*
X0103002Y0035414D01*
X0103077Y0035451D01*
X0103154Y0035485D01*
X0103232Y0035515D01*
X0103311Y0035541D01*
X0103392Y0035564D01*
X0103474Y0035582D01*
X0103556Y0035597D01*
X0103639Y0035608D01*
X0103722Y0035615D01*
X0103806Y0035618D01*
X0103890Y0035617D01*
X0103973Y0035612D01*
X0104057Y0035603D01*
X0104139Y0035590D01*
X0104221Y0035574D01*
X0104302Y0035553D01*
X0104383Y0035529D01*
X0104461Y0035501D01*
X0104539Y0035469D01*
X0104615Y0035433D01*
X0104689Y0035394D01*
X0104761Y0035352D01*
X0104831Y0035306D01*
X0104899Y0035257D01*
X0104964Y0035205D01*
X0105027Y0035150D01*
X0105087Y0035092D01*
X0105145Y0035031D01*
X0105199Y0034967D01*
X0105251Y0034901D01*
X0105299Y0034833D01*
X0105344Y0034762D01*
X0105385Y0034689D01*
X0105424Y0034615D01*
X0105458Y0034539D01*
X0105489Y0034461D01*
X0105516Y0034382D01*
X0105540Y0034301D01*
X0105559Y0034220D01*
X0105575Y0034138D01*
X0105587Y0034055D01*
X0105595Y0033971D01*
X0105599Y0033888D01*
X0105599Y0033804D01*
X0105595Y0033721D01*
X0105587Y0033637D01*
X0105575Y0033554D01*
X0105559Y0033472D01*
X0105540Y0033391D01*
X0105516Y0033310D01*
X0105489Y0033231D01*
X0105458Y0033153D01*
X0105424Y0033077D01*
X0105385Y0033003D01*
X0105344Y0032930D01*
X0105299Y0032859D01*
X0105251Y0032791D01*
X0105199Y0032725D01*
X0105145Y0032661D01*
X0105087Y0032600D01*
X0105027Y0032542D01*
X0104964Y0032487D01*
X0104899Y0032435D01*
X0104831Y0032386D01*
X0104761Y0032340D01*
X0104689Y0032298D01*
X0104615Y0032259D01*
X0104539Y0032223D01*
X0104461Y0032191D01*
X0104383Y0032163D01*
X0104302Y0032139D01*
X0104221Y0032118D01*
X0104139Y0032102D01*
X0104057Y0032089D01*
X0103973Y0032080D01*
X0103890Y0032075D01*
X0103806Y0032074D01*
X0103722Y0032077D01*
X0103639Y0032084D01*
X0103556Y0032095D01*
X0103474Y0032110D01*
X0103392Y0032128D01*
X0103311Y0032151D01*
X0103232Y0032177D01*
X0103154Y0032207D01*
X0103077Y0032241D01*
X0103002Y0032278D01*
X0102929Y0032318D01*
X0102858Y0032363D01*
X0102789Y0032410D01*
X0102722Y0032461D01*
X0102658Y0032514D01*
X0102596Y0032571D01*
X0102538Y0032631D01*
X0102482Y0032693D01*
X0102429Y0032758D01*
X0102379Y0032825D01*
X0102332Y0032894D01*
X0102289Y0032966D01*
X0102249Y0033040D01*
X0102213Y0033115D01*
X0102180Y0033192D01*
X0102151Y0033271D01*
X0102126Y0033350D01*
X0102104Y0033431D01*
X0102087Y0033513D01*
X0102073Y0033596D01*
X0102063Y0033679D01*
X0102057Y0033762D01*
X0102055Y0033846D01*
X0093984Y0035007D02*
X0091701Y0035617D01*
X0091701Y0032074D01*
X0093984Y0032684D01*
X0034476Y0088885D02*
X0035087Y0091169D01*
X0031543Y0091169D01*
X0032154Y0088885D01*
X0031543Y0079043D02*
X0031545Y0079127D01*
X0031551Y0079210D01*
X0031561Y0079293D01*
X0031575Y0079376D01*
X0031592Y0079458D01*
X0031614Y0079539D01*
X0031639Y0079618D01*
X0031668Y0079697D01*
X0031701Y0079774D01*
X0031737Y0079849D01*
X0031777Y0079923D01*
X0031820Y0079995D01*
X0031867Y0080064D01*
X0031917Y0080131D01*
X0031970Y0080196D01*
X0032026Y0080258D01*
X0032084Y0080318D01*
X0032146Y0080375D01*
X0032210Y0080428D01*
X0032277Y0080479D01*
X0032346Y0080526D01*
X0032417Y0080571D01*
X0032490Y0080611D01*
X0032565Y0080648D01*
X0032642Y0080682D01*
X0032720Y0080712D01*
X0032799Y0080738D01*
X0032880Y0080761D01*
X0032962Y0080779D01*
X0033044Y0080794D01*
X0033127Y0080805D01*
X0033210Y0080812D01*
X0033294Y0080815D01*
X0033378Y0080814D01*
X0033461Y0080809D01*
X0033545Y0080800D01*
X0033627Y0080787D01*
X0033709Y0080771D01*
X0033790Y0080750D01*
X0033871Y0080726D01*
X0033949Y0080698D01*
X0034027Y0080666D01*
X0034103Y0080630D01*
X0034177Y0080591D01*
X0034249Y0080549D01*
X0034319Y0080503D01*
X0034387Y0080454D01*
X0034452Y0080402D01*
X0034515Y0080347D01*
X0034575Y0080289D01*
X0034633Y0080228D01*
X0034687Y0080164D01*
X0034739Y0080098D01*
X0034787Y0080030D01*
X0034832Y0079959D01*
X0034873Y0079886D01*
X0034912Y0079812D01*
X0034946Y0079736D01*
X0034977Y0079658D01*
X0035004Y0079579D01*
X0035028Y0079498D01*
X0035047Y0079417D01*
X0035063Y0079335D01*
X0035075Y0079252D01*
X0035083Y0079168D01*
X0035087Y0079085D01*
X0035087Y0079001D01*
X0035083Y0078918D01*
X0035075Y0078834D01*
X0035063Y0078751D01*
X0035047Y0078669D01*
X0035028Y0078588D01*
X0035004Y0078507D01*
X0034977Y0078428D01*
X0034946Y0078350D01*
X0034912Y0078274D01*
X0034873Y0078200D01*
X0034832Y0078127D01*
X0034787Y0078056D01*
X0034739Y0077988D01*
X0034687Y0077922D01*
X0034633Y0077858D01*
X0034575Y0077797D01*
X0034515Y0077739D01*
X0034452Y0077684D01*
X0034387Y0077632D01*
X0034319Y0077583D01*
X0034249Y0077537D01*
X0034177Y0077495D01*
X0034103Y0077456D01*
X0034027Y0077420D01*
X0033949Y0077388D01*
X0033871Y0077360D01*
X0033790Y0077336D01*
X0033709Y0077315D01*
X0033627Y0077299D01*
X0033545Y0077286D01*
X0033461Y0077277D01*
X0033378Y0077272D01*
X0033294Y0077271D01*
X0033210Y0077274D01*
X0033127Y0077281D01*
X0033044Y0077292D01*
X0032962Y0077307D01*
X0032880Y0077325D01*
X0032799Y0077348D01*
X0032720Y0077374D01*
X0032642Y0077404D01*
X0032565Y0077438D01*
X0032490Y0077475D01*
X0032417Y0077515D01*
X0032346Y0077560D01*
X0032277Y0077607D01*
X0032210Y0077658D01*
X0032146Y0077711D01*
X0032084Y0077768D01*
X0032026Y0077828D01*
X0031970Y0077890D01*
X0031917Y0077955D01*
X0031867Y0078022D01*
X0031820Y0078091D01*
X0031777Y0078163D01*
X0031737Y0078237D01*
X0031701Y0078312D01*
X0031668Y0078389D01*
X0031639Y0078468D01*
X0031614Y0078547D01*
X0031592Y0078628D01*
X0031575Y0078710D01*
X0031561Y0078793D01*
X0031551Y0078876D01*
X0031545Y0078959D01*
X0031543Y0079043D01*
X0031543Y0059357D02*
X0031545Y0059441D01*
X0031551Y0059524D01*
X0031561Y0059607D01*
X0031575Y0059690D01*
X0031592Y0059772D01*
X0031614Y0059853D01*
X0031639Y0059932D01*
X0031668Y0060011D01*
X0031701Y0060088D01*
X0031737Y0060163D01*
X0031777Y0060237D01*
X0031820Y0060309D01*
X0031867Y0060378D01*
X0031917Y0060445D01*
X0031970Y0060510D01*
X0032026Y0060572D01*
X0032084Y0060632D01*
X0032146Y0060689D01*
X0032210Y0060742D01*
X0032277Y0060793D01*
X0032346Y0060840D01*
X0032417Y0060885D01*
X0032490Y0060925D01*
X0032565Y0060962D01*
X0032642Y0060996D01*
X0032720Y0061026D01*
X0032799Y0061052D01*
X0032880Y0061075D01*
X0032962Y0061093D01*
X0033044Y0061108D01*
X0033127Y0061119D01*
X0033210Y0061126D01*
X0033294Y0061129D01*
X0033378Y0061128D01*
X0033461Y0061123D01*
X0033545Y0061114D01*
X0033627Y0061101D01*
X0033709Y0061085D01*
X0033790Y0061064D01*
X0033871Y0061040D01*
X0033949Y0061012D01*
X0034027Y0060980D01*
X0034103Y0060944D01*
X0034177Y0060905D01*
X0034249Y0060863D01*
X0034319Y0060817D01*
X0034387Y0060768D01*
X0034452Y0060716D01*
X0034515Y0060661D01*
X0034575Y0060603D01*
X0034633Y0060542D01*
X0034687Y0060478D01*
X0034739Y0060412D01*
X0034787Y0060344D01*
X0034832Y0060273D01*
X0034873Y0060200D01*
X0034912Y0060126D01*
X0034946Y0060050D01*
X0034977Y0059972D01*
X0035004Y0059893D01*
X0035028Y0059812D01*
X0035047Y0059731D01*
X0035063Y0059649D01*
X0035075Y0059566D01*
X0035083Y0059482D01*
X0035087Y0059399D01*
X0035087Y0059315D01*
X0035083Y0059232D01*
X0035075Y0059148D01*
X0035063Y0059065D01*
X0035047Y0058983D01*
X0035028Y0058902D01*
X0035004Y0058821D01*
X0034977Y0058742D01*
X0034946Y0058664D01*
X0034912Y0058588D01*
X0034873Y0058514D01*
X0034832Y0058441D01*
X0034787Y0058370D01*
X0034739Y0058302D01*
X0034687Y0058236D01*
X0034633Y0058172D01*
X0034575Y0058111D01*
X0034515Y0058053D01*
X0034452Y0057998D01*
X0034387Y0057946D01*
X0034319Y0057897D01*
X0034249Y0057851D01*
X0034177Y0057809D01*
X0034103Y0057770D01*
X0034027Y0057734D01*
X0033949Y0057702D01*
X0033871Y0057674D01*
X0033790Y0057650D01*
X0033709Y0057629D01*
X0033627Y0057613D01*
X0033545Y0057600D01*
X0033461Y0057591D01*
X0033378Y0057586D01*
X0033294Y0057585D01*
X0033210Y0057588D01*
X0033127Y0057595D01*
X0033044Y0057606D01*
X0032962Y0057621D01*
X0032880Y0057639D01*
X0032799Y0057662D01*
X0032720Y0057688D01*
X0032642Y0057718D01*
X0032565Y0057752D01*
X0032490Y0057789D01*
X0032417Y0057829D01*
X0032346Y0057874D01*
X0032277Y0057921D01*
X0032210Y0057972D01*
X0032146Y0058025D01*
X0032084Y0058082D01*
X0032026Y0058142D01*
X0031970Y0058204D01*
X0031917Y0058269D01*
X0031867Y0058336D01*
X0031820Y0058405D01*
X0031777Y0058477D01*
X0031737Y0058551D01*
X0031701Y0058626D01*
X0031668Y0058703D01*
X0031639Y0058782D01*
X0031614Y0058861D01*
X0031592Y0058942D01*
X0031575Y0059024D01*
X0031561Y0059107D01*
X0031551Y0059190D01*
X0031545Y0059273D01*
X0031543Y0059357D01*
X0031543Y0109357D02*
X0031545Y0109441D01*
X0031551Y0109524D01*
X0031561Y0109607D01*
X0031575Y0109690D01*
X0031592Y0109772D01*
X0031614Y0109853D01*
X0031639Y0109932D01*
X0031668Y0110011D01*
X0031701Y0110088D01*
X0031737Y0110163D01*
X0031777Y0110237D01*
X0031820Y0110309D01*
X0031867Y0110378D01*
X0031917Y0110445D01*
X0031970Y0110510D01*
X0032026Y0110572D01*
X0032084Y0110632D01*
X0032146Y0110689D01*
X0032210Y0110742D01*
X0032277Y0110793D01*
X0032346Y0110840D01*
X0032417Y0110885D01*
X0032490Y0110925D01*
X0032565Y0110962D01*
X0032642Y0110996D01*
X0032720Y0111026D01*
X0032799Y0111052D01*
X0032880Y0111075D01*
X0032962Y0111093D01*
X0033044Y0111108D01*
X0033127Y0111119D01*
X0033210Y0111126D01*
X0033294Y0111129D01*
X0033378Y0111128D01*
X0033461Y0111123D01*
X0033545Y0111114D01*
X0033627Y0111101D01*
X0033709Y0111085D01*
X0033790Y0111064D01*
X0033871Y0111040D01*
X0033949Y0111012D01*
X0034027Y0110980D01*
X0034103Y0110944D01*
X0034177Y0110905D01*
X0034249Y0110863D01*
X0034319Y0110817D01*
X0034387Y0110768D01*
X0034452Y0110716D01*
X0034515Y0110661D01*
X0034575Y0110603D01*
X0034633Y0110542D01*
X0034687Y0110478D01*
X0034739Y0110412D01*
X0034787Y0110344D01*
X0034832Y0110273D01*
X0034873Y0110200D01*
X0034912Y0110126D01*
X0034946Y0110050D01*
X0034977Y0109972D01*
X0035004Y0109893D01*
X0035028Y0109812D01*
X0035047Y0109731D01*
X0035063Y0109649D01*
X0035075Y0109566D01*
X0035083Y0109482D01*
X0035087Y0109399D01*
X0035087Y0109315D01*
X0035083Y0109232D01*
X0035075Y0109148D01*
X0035063Y0109065D01*
X0035047Y0108983D01*
X0035028Y0108902D01*
X0035004Y0108821D01*
X0034977Y0108742D01*
X0034946Y0108664D01*
X0034912Y0108588D01*
X0034873Y0108514D01*
X0034832Y0108441D01*
X0034787Y0108370D01*
X0034739Y0108302D01*
X0034687Y0108236D01*
X0034633Y0108172D01*
X0034575Y0108111D01*
X0034515Y0108053D01*
X0034452Y0107998D01*
X0034387Y0107946D01*
X0034319Y0107897D01*
X0034249Y0107851D01*
X0034177Y0107809D01*
X0034103Y0107770D01*
X0034027Y0107734D01*
X0033949Y0107702D01*
X0033871Y0107674D01*
X0033790Y0107650D01*
X0033709Y0107629D01*
X0033627Y0107613D01*
X0033545Y0107600D01*
X0033461Y0107591D01*
X0033378Y0107586D01*
X0033294Y0107585D01*
X0033210Y0107588D01*
X0033127Y0107595D01*
X0033044Y0107606D01*
X0032962Y0107621D01*
X0032880Y0107639D01*
X0032799Y0107662D01*
X0032720Y0107688D01*
X0032642Y0107718D01*
X0032565Y0107752D01*
X0032490Y0107789D01*
X0032417Y0107829D01*
X0032346Y0107874D01*
X0032277Y0107921D01*
X0032210Y0107972D01*
X0032146Y0108025D01*
X0032084Y0108082D01*
X0032026Y0108142D01*
X0031970Y0108204D01*
X0031917Y0108269D01*
X0031867Y0108336D01*
X0031820Y0108405D01*
X0031777Y0108477D01*
X0031737Y0108551D01*
X0031701Y0108626D01*
X0031668Y0108703D01*
X0031639Y0108782D01*
X0031614Y0108861D01*
X0031592Y0108942D01*
X0031575Y0109024D01*
X0031561Y0109107D01*
X0031551Y0109190D01*
X0031545Y0109273D01*
X0031543Y0109357D01*
X0031543Y0129043D02*
X0031545Y0129127D01*
X0031551Y0129210D01*
X0031561Y0129293D01*
X0031575Y0129376D01*
X0031592Y0129458D01*
X0031614Y0129539D01*
X0031639Y0129618D01*
X0031668Y0129697D01*
X0031701Y0129774D01*
X0031737Y0129849D01*
X0031777Y0129923D01*
X0031820Y0129995D01*
X0031867Y0130064D01*
X0031917Y0130131D01*
X0031970Y0130196D01*
X0032026Y0130258D01*
X0032084Y0130318D01*
X0032146Y0130375D01*
X0032210Y0130428D01*
X0032277Y0130479D01*
X0032346Y0130526D01*
X0032417Y0130571D01*
X0032490Y0130611D01*
X0032565Y0130648D01*
X0032642Y0130682D01*
X0032720Y0130712D01*
X0032799Y0130738D01*
X0032880Y0130761D01*
X0032962Y0130779D01*
X0033044Y0130794D01*
X0033127Y0130805D01*
X0033210Y0130812D01*
X0033294Y0130815D01*
X0033378Y0130814D01*
X0033461Y0130809D01*
X0033545Y0130800D01*
X0033627Y0130787D01*
X0033709Y0130771D01*
X0033790Y0130750D01*
X0033871Y0130726D01*
X0033949Y0130698D01*
X0034027Y0130666D01*
X0034103Y0130630D01*
X0034177Y0130591D01*
X0034249Y0130549D01*
X0034319Y0130503D01*
X0034387Y0130454D01*
X0034452Y0130402D01*
X0034515Y0130347D01*
X0034575Y0130289D01*
X0034633Y0130228D01*
X0034687Y0130164D01*
X0034739Y0130098D01*
X0034787Y0130030D01*
X0034832Y0129959D01*
X0034873Y0129886D01*
X0034912Y0129812D01*
X0034946Y0129736D01*
X0034977Y0129658D01*
X0035004Y0129579D01*
X0035028Y0129498D01*
X0035047Y0129417D01*
X0035063Y0129335D01*
X0035075Y0129252D01*
X0035083Y0129168D01*
X0035087Y0129085D01*
X0035087Y0129001D01*
X0035083Y0128918D01*
X0035075Y0128834D01*
X0035063Y0128751D01*
X0035047Y0128669D01*
X0035028Y0128588D01*
X0035004Y0128507D01*
X0034977Y0128428D01*
X0034946Y0128350D01*
X0034912Y0128274D01*
X0034873Y0128200D01*
X0034832Y0128127D01*
X0034787Y0128056D01*
X0034739Y0127988D01*
X0034687Y0127922D01*
X0034633Y0127858D01*
X0034575Y0127797D01*
X0034515Y0127739D01*
X0034452Y0127684D01*
X0034387Y0127632D01*
X0034319Y0127583D01*
X0034249Y0127537D01*
X0034177Y0127495D01*
X0034103Y0127456D01*
X0034027Y0127420D01*
X0033949Y0127388D01*
X0033871Y0127360D01*
X0033790Y0127336D01*
X0033709Y0127315D01*
X0033627Y0127299D01*
X0033545Y0127286D01*
X0033461Y0127277D01*
X0033378Y0127272D01*
X0033294Y0127271D01*
X0033210Y0127274D01*
X0033127Y0127281D01*
X0033044Y0127292D01*
X0032962Y0127307D01*
X0032880Y0127325D01*
X0032799Y0127348D01*
X0032720Y0127374D01*
X0032642Y0127404D01*
X0032565Y0127438D01*
X0032490Y0127475D01*
X0032417Y0127515D01*
X0032346Y0127560D01*
X0032277Y0127607D01*
X0032210Y0127658D01*
X0032146Y0127711D01*
X0032084Y0127768D01*
X0032026Y0127828D01*
X0031970Y0127890D01*
X0031917Y0127955D01*
X0031867Y0128022D01*
X0031820Y0128091D01*
X0031777Y0128163D01*
X0031737Y0128237D01*
X0031701Y0128312D01*
X0031668Y0128389D01*
X0031639Y0128468D01*
X0031614Y0128547D01*
X0031592Y0128628D01*
X0031575Y0128710D01*
X0031561Y0128793D01*
X0031551Y0128876D01*
X0031545Y0128959D01*
X0031543Y0129043D01*
X0032154Y0138885D02*
X0031543Y0141169D01*
X0035087Y0141169D01*
X0034476Y0138885D01*
X0147252Y0199515D02*
X0147254Y0199599D01*
X0147260Y0199682D01*
X0147270Y0199765D01*
X0147284Y0199848D01*
X0147301Y0199930D01*
X0147323Y0200011D01*
X0147348Y0200090D01*
X0147377Y0200169D01*
X0147410Y0200246D01*
X0147446Y0200321D01*
X0147486Y0200395D01*
X0147529Y0200467D01*
X0147576Y0200536D01*
X0147626Y0200603D01*
X0147679Y0200668D01*
X0147735Y0200730D01*
X0147793Y0200790D01*
X0147855Y0200847D01*
X0147919Y0200900D01*
X0147986Y0200951D01*
X0148055Y0200998D01*
X0148126Y0201043D01*
X0148199Y0201083D01*
X0148274Y0201120D01*
X0148351Y0201154D01*
X0148429Y0201184D01*
X0148508Y0201210D01*
X0148589Y0201233D01*
X0148671Y0201251D01*
X0148753Y0201266D01*
X0148836Y0201277D01*
X0148919Y0201284D01*
X0149003Y0201287D01*
X0149087Y0201286D01*
X0149170Y0201281D01*
X0149254Y0201272D01*
X0149336Y0201259D01*
X0149418Y0201243D01*
X0149499Y0201222D01*
X0149580Y0201198D01*
X0149658Y0201170D01*
X0149736Y0201138D01*
X0149812Y0201102D01*
X0149886Y0201063D01*
X0149958Y0201021D01*
X0150028Y0200975D01*
X0150096Y0200926D01*
X0150161Y0200874D01*
X0150224Y0200819D01*
X0150284Y0200761D01*
X0150342Y0200700D01*
X0150396Y0200636D01*
X0150448Y0200570D01*
X0150496Y0200502D01*
X0150541Y0200431D01*
X0150582Y0200358D01*
X0150621Y0200284D01*
X0150655Y0200208D01*
X0150686Y0200130D01*
X0150713Y0200051D01*
X0150737Y0199970D01*
X0150756Y0199889D01*
X0150772Y0199807D01*
X0150784Y0199724D01*
X0150792Y0199640D01*
X0150796Y0199557D01*
X0150796Y0199473D01*
X0150792Y0199390D01*
X0150784Y0199306D01*
X0150772Y0199223D01*
X0150756Y0199141D01*
X0150737Y0199060D01*
X0150713Y0198979D01*
X0150686Y0198900D01*
X0150655Y0198822D01*
X0150621Y0198746D01*
X0150582Y0198672D01*
X0150541Y0198599D01*
X0150496Y0198528D01*
X0150448Y0198460D01*
X0150396Y0198394D01*
X0150342Y0198330D01*
X0150284Y0198269D01*
X0150224Y0198211D01*
X0150161Y0198156D01*
X0150096Y0198104D01*
X0150028Y0198055D01*
X0149958Y0198009D01*
X0149886Y0197967D01*
X0149812Y0197928D01*
X0149736Y0197892D01*
X0149658Y0197860D01*
X0149580Y0197832D01*
X0149499Y0197808D01*
X0149418Y0197787D01*
X0149336Y0197771D01*
X0149254Y0197758D01*
X0149170Y0197749D01*
X0149087Y0197744D01*
X0149003Y0197743D01*
X0148919Y0197746D01*
X0148836Y0197753D01*
X0148753Y0197764D01*
X0148671Y0197779D01*
X0148589Y0197797D01*
X0148508Y0197820D01*
X0148429Y0197846D01*
X0148351Y0197876D01*
X0148274Y0197910D01*
X0148199Y0197947D01*
X0148126Y0197987D01*
X0148055Y0198032D01*
X0147986Y0198079D01*
X0147919Y0198130D01*
X0147855Y0198183D01*
X0147793Y0198240D01*
X0147735Y0198300D01*
X0147679Y0198362D01*
X0147626Y0198427D01*
X0147576Y0198494D01*
X0147529Y0198563D01*
X0147486Y0198635D01*
X0147446Y0198709D01*
X0147410Y0198784D01*
X0147377Y0198861D01*
X0147348Y0198940D01*
X0147323Y0199019D01*
X0147301Y0199100D01*
X0147284Y0199182D01*
X0147270Y0199265D01*
X0147260Y0199348D01*
X0147254Y0199431D01*
X0147252Y0199515D01*
X0147252Y0219200D02*
X0147254Y0219284D01*
X0147260Y0219367D01*
X0147270Y0219450D01*
X0147284Y0219533D01*
X0147301Y0219615D01*
X0147323Y0219696D01*
X0147348Y0219775D01*
X0147377Y0219854D01*
X0147410Y0219931D01*
X0147446Y0220006D01*
X0147486Y0220080D01*
X0147529Y0220152D01*
X0147576Y0220221D01*
X0147626Y0220288D01*
X0147679Y0220353D01*
X0147735Y0220415D01*
X0147793Y0220475D01*
X0147855Y0220532D01*
X0147919Y0220585D01*
X0147986Y0220636D01*
X0148055Y0220683D01*
X0148126Y0220728D01*
X0148199Y0220768D01*
X0148274Y0220805D01*
X0148351Y0220839D01*
X0148429Y0220869D01*
X0148508Y0220895D01*
X0148589Y0220918D01*
X0148671Y0220936D01*
X0148753Y0220951D01*
X0148836Y0220962D01*
X0148919Y0220969D01*
X0149003Y0220972D01*
X0149087Y0220971D01*
X0149170Y0220966D01*
X0149254Y0220957D01*
X0149336Y0220944D01*
X0149418Y0220928D01*
X0149499Y0220907D01*
X0149580Y0220883D01*
X0149658Y0220855D01*
X0149736Y0220823D01*
X0149812Y0220787D01*
X0149886Y0220748D01*
X0149958Y0220706D01*
X0150028Y0220660D01*
X0150096Y0220611D01*
X0150161Y0220559D01*
X0150224Y0220504D01*
X0150284Y0220446D01*
X0150342Y0220385D01*
X0150396Y0220321D01*
X0150448Y0220255D01*
X0150496Y0220187D01*
X0150541Y0220116D01*
X0150582Y0220043D01*
X0150621Y0219969D01*
X0150655Y0219893D01*
X0150686Y0219815D01*
X0150713Y0219736D01*
X0150737Y0219655D01*
X0150756Y0219574D01*
X0150772Y0219492D01*
X0150784Y0219409D01*
X0150792Y0219325D01*
X0150796Y0219242D01*
X0150796Y0219158D01*
X0150792Y0219075D01*
X0150784Y0218991D01*
X0150772Y0218908D01*
X0150756Y0218826D01*
X0150737Y0218745D01*
X0150713Y0218664D01*
X0150686Y0218585D01*
X0150655Y0218507D01*
X0150621Y0218431D01*
X0150582Y0218357D01*
X0150541Y0218284D01*
X0150496Y0218213D01*
X0150448Y0218145D01*
X0150396Y0218079D01*
X0150342Y0218015D01*
X0150284Y0217954D01*
X0150224Y0217896D01*
X0150161Y0217841D01*
X0150096Y0217789D01*
X0150028Y0217740D01*
X0149958Y0217694D01*
X0149886Y0217652D01*
X0149812Y0217613D01*
X0149736Y0217577D01*
X0149658Y0217545D01*
X0149580Y0217517D01*
X0149499Y0217493D01*
X0149418Y0217472D01*
X0149336Y0217456D01*
X0149254Y0217443D01*
X0149170Y0217434D01*
X0149087Y0217429D01*
X0149003Y0217428D01*
X0148919Y0217431D01*
X0148836Y0217438D01*
X0148753Y0217449D01*
X0148671Y0217464D01*
X0148589Y0217482D01*
X0148508Y0217505D01*
X0148429Y0217531D01*
X0148351Y0217561D01*
X0148274Y0217595D01*
X0148199Y0217632D01*
X0148126Y0217672D01*
X0148055Y0217717D01*
X0147986Y0217764D01*
X0147919Y0217815D01*
X0147855Y0217868D01*
X0147793Y0217925D01*
X0147735Y0217985D01*
X0147679Y0218047D01*
X0147626Y0218112D01*
X0147576Y0218179D01*
X0147529Y0218248D01*
X0147486Y0218320D01*
X0147446Y0218394D01*
X0147410Y0218469D01*
X0147377Y0218546D01*
X0147348Y0218625D01*
X0147323Y0218704D01*
X0147301Y0218785D01*
X0147284Y0218867D01*
X0147270Y0218950D01*
X0147260Y0219033D01*
X0147254Y0219116D01*
X0147252Y0219200D01*
X0147252Y0238885D02*
X0147254Y0238969D01*
X0147260Y0239052D01*
X0147270Y0239135D01*
X0147284Y0239218D01*
X0147301Y0239300D01*
X0147323Y0239381D01*
X0147348Y0239460D01*
X0147377Y0239539D01*
X0147410Y0239616D01*
X0147446Y0239691D01*
X0147486Y0239765D01*
X0147529Y0239837D01*
X0147576Y0239906D01*
X0147626Y0239973D01*
X0147679Y0240038D01*
X0147735Y0240100D01*
X0147793Y0240160D01*
X0147855Y0240217D01*
X0147919Y0240270D01*
X0147986Y0240321D01*
X0148055Y0240368D01*
X0148126Y0240413D01*
X0148199Y0240453D01*
X0148274Y0240490D01*
X0148351Y0240524D01*
X0148429Y0240554D01*
X0148508Y0240580D01*
X0148589Y0240603D01*
X0148671Y0240621D01*
X0148753Y0240636D01*
X0148836Y0240647D01*
X0148919Y0240654D01*
X0149003Y0240657D01*
X0149087Y0240656D01*
X0149170Y0240651D01*
X0149254Y0240642D01*
X0149336Y0240629D01*
X0149418Y0240613D01*
X0149499Y0240592D01*
X0149580Y0240568D01*
X0149658Y0240540D01*
X0149736Y0240508D01*
X0149812Y0240472D01*
X0149886Y0240433D01*
X0149958Y0240391D01*
X0150028Y0240345D01*
X0150096Y0240296D01*
X0150161Y0240244D01*
X0150224Y0240189D01*
X0150284Y0240131D01*
X0150342Y0240070D01*
X0150396Y0240006D01*
X0150448Y0239940D01*
X0150496Y0239872D01*
X0150541Y0239801D01*
X0150582Y0239728D01*
X0150621Y0239654D01*
X0150655Y0239578D01*
X0150686Y0239500D01*
X0150713Y0239421D01*
X0150737Y0239340D01*
X0150756Y0239259D01*
X0150772Y0239177D01*
X0150784Y0239094D01*
X0150792Y0239010D01*
X0150796Y0238927D01*
X0150796Y0238843D01*
X0150792Y0238760D01*
X0150784Y0238676D01*
X0150772Y0238593D01*
X0150756Y0238511D01*
X0150737Y0238430D01*
X0150713Y0238349D01*
X0150686Y0238270D01*
X0150655Y0238192D01*
X0150621Y0238116D01*
X0150582Y0238042D01*
X0150541Y0237969D01*
X0150496Y0237898D01*
X0150448Y0237830D01*
X0150396Y0237764D01*
X0150342Y0237700D01*
X0150284Y0237639D01*
X0150224Y0237581D01*
X0150161Y0237526D01*
X0150096Y0237474D01*
X0150028Y0237425D01*
X0149958Y0237379D01*
X0149886Y0237337D01*
X0149812Y0237298D01*
X0149736Y0237262D01*
X0149658Y0237230D01*
X0149580Y0237202D01*
X0149499Y0237178D01*
X0149418Y0237157D01*
X0149336Y0237141D01*
X0149254Y0237128D01*
X0149170Y0237119D01*
X0149087Y0237114D01*
X0149003Y0237113D01*
X0148919Y0237116D01*
X0148836Y0237123D01*
X0148753Y0237134D01*
X0148671Y0237149D01*
X0148589Y0237167D01*
X0148508Y0237190D01*
X0148429Y0237216D01*
X0148351Y0237246D01*
X0148274Y0237280D01*
X0148199Y0237317D01*
X0148126Y0237357D01*
X0148055Y0237402D01*
X0147986Y0237449D01*
X0147919Y0237500D01*
X0147855Y0237553D01*
X0147793Y0237610D01*
X0147735Y0237670D01*
X0147679Y0237732D01*
X0147626Y0237797D01*
X0147576Y0237864D01*
X0147529Y0237933D01*
X0147486Y0238005D01*
X0147446Y0238079D01*
X0147410Y0238154D01*
X0147377Y0238231D01*
X0147348Y0238310D01*
X0147323Y0238389D01*
X0147301Y0238470D01*
X0147284Y0238552D01*
X0147270Y0238635D01*
X0147260Y0238718D01*
X0147254Y0238801D01*
X0147252Y0238885D01*
D12*
X0174589Y0238417D02*
X0179089Y0238417D01*
X0179089Y0237167D02*
X0179089Y0239667D01*
X0175589Y0237167D02*
X0174589Y0238417D01*
X0179089Y0179667D02*
X0179089Y0177167D01*
X0179089Y0178417D02*
X0174589Y0178417D01*
X0175589Y0177167D01*
X0179089Y0119667D02*
X0179089Y0117167D01*
X0179089Y0118417D02*
X0174589Y0118417D01*
X0175589Y0117167D01*
X0179089Y0059667D02*
X0179089Y0057167D01*
X0179089Y0058417D02*
X0174589Y0058417D01*
X0175589Y0057167D01*
X0124293Y0003781D02*
X0121793Y0003781D01*
X0123043Y0003781D02*
X0123043Y0008281D01*
X0121793Y0007281D01*
X0007750Y0058576D02*
X0007750Y0061076D01*
X0007750Y0059826D02*
X0003250Y0059826D01*
X0004250Y0058576D01*
X0004250Y0108576D02*
X0003250Y0109826D01*
X0007750Y0109826D01*
X0007750Y0108576D02*
X0007750Y0111076D01*
X0124589Y0168574D02*
X0125589Y0167324D01*
X0124589Y0168574D02*
X0129089Y0168574D01*
X0129089Y0167324D02*
X0129089Y0169824D01*
D13*
X0077869Y0034200D03*
X0077869Y0014200D03*
X0049469Y0014200D03*
X0049469Y0034200D03*
M02*
