G75*
%MOIN*%
%OFA0B0*%
%FSLAX25Y25*%
%IPPOS*%
%LPD*%
%AMOC8*
5,1,8,0,0,1.08239X$1,22.5*
%
%ADD10C,0.00600*%
%ADD11C,0.00300*%
%ADD12C,0.00500*%
D10*
X0016169Y0018669D02*
X0013669Y0021169D01*
X0013669Y0026169D01*
X0016169Y0028669D01*
X0021169Y0028669D01*
X0023669Y0026169D01*
X0026169Y0028669D01*
X0031169Y0028669D01*
X0033669Y0026169D01*
X0036169Y0028669D01*
X0041169Y0028669D01*
X0043669Y0026169D01*
X0043669Y0021169D01*
X0041169Y0018669D01*
X0036169Y0018669D01*
X0033669Y0021169D01*
X0031169Y0018669D01*
X0026169Y0018669D01*
X0023669Y0021169D01*
X0021169Y0018669D01*
X0016169Y0018669D01*
X0023669Y0021169D02*
X0023669Y0026169D01*
X0033669Y0026169D02*
X0033669Y0021169D01*
X0031622Y0048984D02*
X0031622Y0088354D01*
X0032154Y0088354D01*
X0034476Y0088354D01*
X0038433Y0088354D01*
X0038433Y0048984D01*
X0031622Y0048984D01*
X0011819Y0048984D01*
X0011819Y0088354D01*
X0031622Y0088354D01*
X0031622Y0098984D02*
X0031622Y0138354D01*
X0032154Y0138354D01*
X0034476Y0138354D01*
X0038433Y0138354D01*
X0038433Y0098984D01*
X0031622Y0098984D01*
X0011819Y0098984D01*
X0011819Y0138354D01*
X0031622Y0138354D01*
X0011819Y0138354D02*
X0008906Y0138354D01*
X0008906Y0098984D01*
X0011819Y0098984D01*
X0011819Y0088354D02*
X0008906Y0088354D01*
X0008906Y0048984D01*
X0011819Y0048984D01*
X0053669Y0056169D02*
X0053669Y0071169D01*
X0056169Y0073669D01*
X0061169Y0073669D01*
X0063669Y0071169D01*
X0063669Y0056169D01*
X0066169Y0053669D01*
X0071169Y0053669D01*
X0073669Y0056169D01*
X0073669Y0071169D01*
X0076169Y0073669D01*
X0081169Y0073669D01*
X0083669Y0071169D01*
X0083669Y0056169D01*
X0086169Y0053669D01*
X0091169Y0053669D01*
X0093669Y0056169D01*
X0093669Y0071169D01*
X0096169Y0073669D01*
X0101169Y0073669D01*
X0103669Y0071169D01*
X0103669Y0056169D01*
X0106169Y0053669D01*
X0111169Y0053669D01*
X0113669Y0056169D01*
X0113669Y0071169D01*
X0116169Y0073669D01*
X0121169Y0073669D01*
X0123669Y0071169D01*
X0126169Y0073669D01*
X0131169Y0073669D01*
X0133669Y0071169D01*
X0133669Y0056169D01*
X0131169Y0053669D01*
X0126169Y0053669D01*
X0123669Y0056169D01*
X0123669Y0071169D01*
X0113669Y0071169D02*
X0111169Y0073669D01*
X0106169Y0073669D01*
X0103669Y0071169D01*
X0093669Y0071169D02*
X0091169Y0073669D01*
X0086169Y0073669D01*
X0083669Y0071169D01*
X0073669Y0071169D02*
X0071169Y0073669D01*
X0066169Y0073669D01*
X0063669Y0071169D01*
X0063669Y0056169D02*
X0061169Y0053669D01*
X0056169Y0053669D01*
X0053669Y0056169D01*
X0073669Y0056169D02*
X0076169Y0053669D01*
X0081169Y0053669D01*
X0083669Y0056169D01*
X0093669Y0056169D02*
X0096169Y0053669D01*
X0101169Y0053669D01*
X0103669Y0056169D01*
X0113669Y0056169D02*
X0116169Y0053669D01*
X0121169Y0053669D01*
X0123669Y0056169D01*
X0133197Y0038433D02*
X0133197Y0031622D01*
X0074142Y0031622D01*
X0074142Y0032154D01*
X0074142Y0034476D01*
X0074142Y0038433D01*
X0133197Y0038433D01*
X0133197Y0031622D02*
X0133197Y0011819D01*
X0074142Y0011819D01*
X0074142Y0031622D01*
X0074142Y0011819D02*
X0074142Y0008906D01*
X0133197Y0008906D01*
X0133197Y0011819D01*
X0143906Y0009142D02*
X0147862Y0009142D01*
X0150185Y0009142D01*
X0150717Y0009142D01*
X0150717Y0068197D01*
X0170520Y0068197D01*
X0170520Y0009142D01*
X0150717Y0009142D01*
X0143906Y0009142D02*
X0143906Y0068197D01*
X0150717Y0068197D01*
X0150717Y0069142D02*
X0150717Y0128197D01*
X0170520Y0128197D01*
X0170520Y0069142D01*
X0150717Y0069142D01*
X0150185Y0069142D01*
X0147862Y0069142D01*
X0143906Y0069142D01*
X0143906Y0128197D01*
X0150717Y0128197D01*
X0150717Y0129142D02*
X0150717Y0188197D01*
X0170520Y0188197D01*
X0170520Y0129142D01*
X0150717Y0129142D01*
X0150185Y0129142D01*
X0147862Y0129142D01*
X0143906Y0129142D01*
X0143906Y0188197D01*
X0150717Y0188197D01*
X0150717Y0189142D02*
X0150717Y0248197D01*
X0170520Y0248197D01*
X0170520Y0189142D01*
X0150717Y0189142D01*
X0150185Y0189142D01*
X0147862Y0189142D01*
X0143906Y0189142D01*
X0143906Y0248197D01*
X0150717Y0248197D01*
X0170520Y0248197D02*
X0173433Y0248197D01*
X0173433Y0189142D01*
X0170520Y0189142D01*
X0170520Y0188197D02*
X0173433Y0188197D01*
X0173433Y0129142D01*
X0170520Y0129142D01*
X0170520Y0128197D02*
X0173433Y0128197D01*
X0173433Y0069142D01*
X0170520Y0069142D01*
X0170520Y0068197D02*
X0173433Y0068197D01*
X0173433Y0009142D01*
X0170520Y0009142D01*
X0123433Y0138984D02*
X0120520Y0138984D01*
X0120520Y0178354D01*
X0123433Y0178354D01*
X0123433Y0138984D01*
X0120520Y0138984D02*
X0100717Y0138984D01*
X0100717Y0178354D01*
X0120520Y0178354D01*
X0100717Y0178354D02*
X0093906Y0178354D01*
X0093906Y0138984D01*
X0097862Y0138984D01*
X0100185Y0138984D01*
X0100717Y0138984D01*
D11*
X0100185Y0138984D02*
X0100795Y0136701D01*
X0097252Y0136701D01*
X0097862Y0138984D01*
X0097252Y0148827D02*
X0097254Y0148911D01*
X0097260Y0148994D01*
X0097270Y0149077D01*
X0097284Y0149160D01*
X0097301Y0149242D01*
X0097323Y0149323D01*
X0097348Y0149402D01*
X0097377Y0149481D01*
X0097410Y0149558D01*
X0097446Y0149633D01*
X0097486Y0149707D01*
X0097529Y0149779D01*
X0097576Y0149848D01*
X0097626Y0149915D01*
X0097679Y0149980D01*
X0097735Y0150042D01*
X0097793Y0150102D01*
X0097855Y0150159D01*
X0097919Y0150212D01*
X0097986Y0150263D01*
X0098055Y0150310D01*
X0098126Y0150355D01*
X0098199Y0150395D01*
X0098274Y0150432D01*
X0098351Y0150466D01*
X0098429Y0150496D01*
X0098508Y0150522D01*
X0098589Y0150545D01*
X0098671Y0150563D01*
X0098753Y0150578D01*
X0098836Y0150589D01*
X0098919Y0150596D01*
X0099003Y0150599D01*
X0099087Y0150598D01*
X0099170Y0150593D01*
X0099254Y0150584D01*
X0099336Y0150571D01*
X0099418Y0150555D01*
X0099499Y0150534D01*
X0099580Y0150510D01*
X0099658Y0150482D01*
X0099736Y0150450D01*
X0099812Y0150414D01*
X0099886Y0150375D01*
X0099958Y0150333D01*
X0100028Y0150287D01*
X0100096Y0150238D01*
X0100161Y0150186D01*
X0100224Y0150131D01*
X0100284Y0150073D01*
X0100342Y0150012D01*
X0100396Y0149948D01*
X0100448Y0149882D01*
X0100496Y0149814D01*
X0100541Y0149743D01*
X0100582Y0149670D01*
X0100621Y0149596D01*
X0100655Y0149520D01*
X0100686Y0149442D01*
X0100713Y0149363D01*
X0100737Y0149282D01*
X0100756Y0149201D01*
X0100772Y0149119D01*
X0100784Y0149036D01*
X0100792Y0148952D01*
X0100796Y0148869D01*
X0100796Y0148785D01*
X0100792Y0148702D01*
X0100784Y0148618D01*
X0100772Y0148535D01*
X0100756Y0148453D01*
X0100737Y0148372D01*
X0100713Y0148291D01*
X0100686Y0148212D01*
X0100655Y0148134D01*
X0100621Y0148058D01*
X0100582Y0147984D01*
X0100541Y0147911D01*
X0100496Y0147840D01*
X0100448Y0147772D01*
X0100396Y0147706D01*
X0100342Y0147642D01*
X0100284Y0147581D01*
X0100224Y0147523D01*
X0100161Y0147468D01*
X0100096Y0147416D01*
X0100028Y0147367D01*
X0099958Y0147321D01*
X0099886Y0147279D01*
X0099812Y0147240D01*
X0099736Y0147204D01*
X0099658Y0147172D01*
X0099580Y0147144D01*
X0099499Y0147120D01*
X0099418Y0147099D01*
X0099336Y0147083D01*
X0099254Y0147070D01*
X0099170Y0147061D01*
X0099087Y0147056D01*
X0099003Y0147055D01*
X0098919Y0147058D01*
X0098836Y0147065D01*
X0098753Y0147076D01*
X0098671Y0147091D01*
X0098589Y0147109D01*
X0098508Y0147132D01*
X0098429Y0147158D01*
X0098351Y0147188D01*
X0098274Y0147222D01*
X0098199Y0147259D01*
X0098126Y0147299D01*
X0098055Y0147344D01*
X0097986Y0147391D01*
X0097919Y0147442D01*
X0097855Y0147495D01*
X0097793Y0147552D01*
X0097735Y0147612D01*
X0097679Y0147674D01*
X0097626Y0147739D01*
X0097576Y0147806D01*
X0097529Y0147875D01*
X0097486Y0147947D01*
X0097446Y0148021D01*
X0097410Y0148096D01*
X0097377Y0148173D01*
X0097348Y0148252D01*
X0097323Y0148331D01*
X0097301Y0148412D01*
X0097284Y0148494D01*
X0097270Y0148577D01*
X0097260Y0148660D01*
X0097254Y0148743D01*
X0097252Y0148827D01*
X0097252Y0168512D02*
X0097254Y0168596D01*
X0097260Y0168679D01*
X0097270Y0168762D01*
X0097284Y0168845D01*
X0097301Y0168927D01*
X0097323Y0169008D01*
X0097348Y0169087D01*
X0097377Y0169166D01*
X0097410Y0169243D01*
X0097446Y0169318D01*
X0097486Y0169392D01*
X0097529Y0169464D01*
X0097576Y0169533D01*
X0097626Y0169600D01*
X0097679Y0169665D01*
X0097735Y0169727D01*
X0097793Y0169787D01*
X0097855Y0169844D01*
X0097919Y0169897D01*
X0097986Y0169948D01*
X0098055Y0169995D01*
X0098126Y0170040D01*
X0098199Y0170080D01*
X0098274Y0170117D01*
X0098351Y0170151D01*
X0098429Y0170181D01*
X0098508Y0170207D01*
X0098589Y0170230D01*
X0098671Y0170248D01*
X0098753Y0170263D01*
X0098836Y0170274D01*
X0098919Y0170281D01*
X0099003Y0170284D01*
X0099087Y0170283D01*
X0099170Y0170278D01*
X0099254Y0170269D01*
X0099336Y0170256D01*
X0099418Y0170240D01*
X0099499Y0170219D01*
X0099580Y0170195D01*
X0099658Y0170167D01*
X0099736Y0170135D01*
X0099812Y0170099D01*
X0099886Y0170060D01*
X0099958Y0170018D01*
X0100028Y0169972D01*
X0100096Y0169923D01*
X0100161Y0169871D01*
X0100224Y0169816D01*
X0100284Y0169758D01*
X0100342Y0169697D01*
X0100396Y0169633D01*
X0100448Y0169567D01*
X0100496Y0169499D01*
X0100541Y0169428D01*
X0100582Y0169355D01*
X0100621Y0169281D01*
X0100655Y0169205D01*
X0100686Y0169127D01*
X0100713Y0169048D01*
X0100737Y0168967D01*
X0100756Y0168886D01*
X0100772Y0168804D01*
X0100784Y0168721D01*
X0100792Y0168637D01*
X0100796Y0168554D01*
X0100796Y0168470D01*
X0100792Y0168387D01*
X0100784Y0168303D01*
X0100772Y0168220D01*
X0100756Y0168138D01*
X0100737Y0168057D01*
X0100713Y0167976D01*
X0100686Y0167897D01*
X0100655Y0167819D01*
X0100621Y0167743D01*
X0100582Y0167669D01*
X0100541Y0167596D01*
X0100496Y0167525D01*
X0100448Y0167457D01*
X0100396Y0167391D01*
X0100342Y0167327D01*
X0100284Y0167266D01*
X0100224Y0167208D01*
X0100161Y0167153D01*
X0100096Y0167101D01*
X0100028Y0167052D01*
X0099958Y0167006D01*
X0099886Y0166964D01*
X0099812Y0166925D01*
X0099736Y0166889D01*
X0099658Y0166857D01*
X0099580Y0166829D01*
X0099499Y0166805D01*
X0099418Y0166784D01*
X0099336Y0166768D01*
X0099254Y0166755D01*
X0099170Y0166746D01*
X0099087Y0166741D01*
X0099003Y0166740D01*
X0098919Y0166743D01*
X0098836Y0166750D01*
X0098753Y0166761D01*
X0098671Y0166776D01*
X0098589Y0166794D01*
X0098508Y0166817D01*
X0098429Y0166843D01*
X0098351Y0166873D01*
X0098274Y0166907D01*
X0098199Y0166944D01*
X0098126Y0166984D01*
X0098055Y0167029D01*
X0097986Y0167076D01*
X0097919Y0167127D01*
X0097855Y0167180D01*
X0097793Y0167237D01*
X0097735Y0167297D01*
X0097679Y0167359D01*
X0097626Y0167424D01*
X0097576Y0167491D01*
X0097529Y0167560D01*
X0097486Y0167632D01*
X0097446Y0167706D01*
X0097410Y0167781D01*
X0097377Y0167858D01*
X0097348Y0167937D01*
X0097323Y0168016D01*
X0097301Y0168097D01*
X0097284Y0168179D01*
X0097270Y0168262D01*
X0097260Y0168345D01*
X0097254Y0168428D01*
X0097252Y0168512D01*
X0147252Y0186858D02*
X0150795Y0186858D01*
X0150185Y0189142D01*
X0147862Y0189142D02*
X0147252Y0186858D01*
X0147252Y0178354D02*
X0147254Y0178438D01*
X0147260Y0178521D01*
X0147270Y0178604D01*
X0147284Y0178687D01*
X0147301Y0178769D01*
X0147323Y0178850D01*
X0147348Y0178929D01*
X0147377Y0179008D01*
X0147410Y0179085D01*
X0147446Y0179160D01*
X0147486Y0179234D01*
X0147529Y0179306D01*
X0147576Y0179375D01*
X0147626Y0179442D01*
X0147679Y0179507D01*
X0147735Y0179569D01*
X0147793Y0179629D01*
X0147855Y0179686D01*
X0147919Y0179739D01*
X0147986Y0179790D01*
X0148055Y0179837D01*
X0148126Y0179882D01*
X0148199Y0179922D01*
X0148274Y0179959D01*
X0148351Y0179993D01*
X0148429Y0180023D01*
X0148508Y0180049D01*
X0148589Y0180072D01*
X0148671Y0180090D01*
X0148753Y0180105D01*
X0148836Y0180116D01*
X0148919Y0180123D01*
X0149003Y0180126D01*
X0149087Y0180125D01*
X0149170Y0180120D01*
X0149254Y0180111D01*
X0149336Y0180098D01*
X0149418Y0180082D01*
X0149499Y0180061D01*
X0149580Y0180037D01*
X0149658Y0180009D01*
X0149736Y0179977D01*
X0149812Y0179941D01*
X0149886Y0179902D01*
X0149958Y0179860D01*
X0150028Y0179814D01*
X0150096Y0179765D01*
X0150161Y0179713D01*
X0150224Y0179658D01*
X0150284Y0179600D01*
X0150342Y0179539D01*
X0150396Y0179475D01*
X0150448Y0179409D01*
X0150496Y0179341D01*
X0150541Y0179270D01*
X0150582Y0179197D01*
X0150621Y0179123D01*
X0150655Y0179047D01*
X0150686Y0178969D01*
X0150713Y0178890D01*
X0150737Y0178809D01*
X0150756Y0178728D01*
X0150772Y0178646D01*
X0150784Y0178563D01*
X0150792Y0178479D01*
X0150796Y0178396D01*
X0150796Y0178312D01*
X0150792Y0178229D01*
X0150784Y0178145D01*
X0150772Y0178062D01*
X0150756Y0177980D01*
X0150737Y0177899D01*
X0150713Y0177818D01*
X0150686Y0177739D01*
X0150655Y0177661D01*
X0150621Y0177585D01*
X0150582Y0177511D01*
X0150541Y0177438D01*
X0150496Y0177367D01*
X0150448Y0177299D01*
X0150396Y0177233D01*
X0150342Y0177169D01*
X0150284Y0177108D01*
X0150224Y0177050D01*
X0150161Y0176995D01*
X0150096Y0176943D01*
X0150028Y0176894D01*
X0149958Y0176848D01*
X0149886Y0176806D01*
X0149812Y0176767D01*
X0149736Y0176731D01*
X0149658Y0176699D01*
X0149580Y0176671D01*
X0149499Y0176647D01*
X0149418Y0176626D01*
X0149336Y0176610D01*
X0149254Y0176597D01*
X0149170Y0176588D01*
X0149087Y0176583D01*
X0149003Y0176582D01*
X0148919Y0176585D01*
X0148836Y0176592D01*
X0148753Y0176603D01*
X0148671Y0176618D01*
X0148589Y0176636D01*
X0148508Y0176659D01*
X0148429Y0176685D01*
X0148351Y0176715D01*
X0148274Y0176749D01*
X0148199Y0176786D01*
X0148126Y0176826D01*
X0148055Y0176871D01*
X0147986Y0176918D01*
X0147919Y0176969D01*
X0147855Y0177022D01*
X0147793Y0177079D01*
X0147735Y0177139D01*
X0147679Y0177201D01*
X0147626Y0177266D01*
X0147576Y0177333D01*
X0147529Y0177402D01*
X0147486Y0177474D01*
X0147446Y0177548D01*
X0147410Y0177623D01*
X0147377Y0177700D01*
X0147348Y0177779D01*
X0147323Y0177858D01*
X0147301Y0177939D01*
X0147284Y0178021D01*
X0147270Y0178104D01*
X0147260Y0178187D01*
X0147254Y0178270D01*
X0147252Y0178354D01*
X0147252Y0158669D02*
X0147254Y0158753D01*
X0147260Y0158836D01*
X0147270Y0158919D01*
X0147284Y0159002D01*
X0147301Y0159084D01*
X0147323Y0159165D01*
X0147348Y0159244D01*
X0147377Y0159323D01*
X0147410Y0159400D01*
X0147446Y0159475D01*
X0147486Y0159549D01*
X0147529Y0159621D01*
X0147576Y0159690D01*
X0147626Y0159757D01*
X0147679Y0159822D01*
X0147735Y0159884D01*
X0147793Y0159944D01*
X0147855Y0160001D01*
X0147919Y0160054D01*
X0147986Y0160105D01*
X0148055Y0160152D01*
X0148126Y0160197D01*
X0148199Y0160237D01*
X0148274Y0160274D01*
X0148351Y0160308D01*
X0148429Y0160338D01*
X0148508Y0160364D01*
X0148589Y0160387D01*
X0148671Y0160405D01*
X0148753Y0160420D01*
X0148836Y0160431D01*
X0148919Y0160438D01*
X0149003Y0160441D01*
X0149087Y0160440D01*
X0149170Y0160435D01*
X0149254Y0160426D01*
X0149336Y0160413D01*
X0149418Y0160397D01*
X0149499Y0160376D01*
X0149580Y0160352D01*
X0149658Y0160324D01*
X0149736Y0160292D01*
X0149812Y0160256D01*
X0149886Y0160217D01*
X0149958Y0160175D01*
X0150028Y0160129D01*
X0150096Y0160080D01*
X0150161Y0160028D01*
X0150224Y0159973D01*
X0150284Y0159915D01*
X0150342Y0159854D01*
X0150396Y0159790D01*
X0150448Y0159724D01*
X0150496Y0159656D01*
X0150541Y0159585D01*
X0150582Y0159512D01*
X0150621Y0159438D01*
X0150655Y0159362D01*
X0150686Y0159284D01*
X0150713Y0159205D01*
X0150737Y0159124D01*
X0150756Y0159043D01*
X0150772Y0158961D01*
X0150784Y0158878D01*
X0150792Y0158794D01*
X0150796Y0158711D01*
X0150796Y0158627D01*
X0150792Y0158544D01*
X0150784Y0158460D01*
X0150772Y0158377D01*
X0150756Y0158295D01*
X0150737Y0158214D01*
X0150713Y0158133D01*
X0150686Y0158054D01*
X0150655Y0157976D01*
X0150621Y0157900D01*
X0150582Y0157826D01*
X0150541Y0157753D01*
X0150496Y0157682D01*
X0150448Y0157614D01*
X0150396Y0157548D01*
X0150342Y0157484D01*
X0150284Y0157423D01*
X0150224Y0157365D01*
X0150161Y0157310D01*
X0150096Y0157258D01*
X0150028Y0157209D01*
X0149958Y0157163D01*
X0149886Y0157121D01*
X0149812Y0157082D01*
X0149736Y0157046D01*
X0149658Y0157014D01*
X0149580Y0156986D01*
X0149499Y0156962D01*
X0149418Y0156941D01*
X0149336Y0156925D01*
X0149254Y0156912D01*
X0149170Y0156903D01*
X0149087Y0156898D01*
X0149003Y0156897D01*
X0148919Y0156900D01*
X0148836Y0156907D01*
X0148753Y0156918D01*
X0148671Y0156933D01*
X0148589Y0156951D01*
X0148508Y0156974D01*
X0148429Y0157000D01*
X0148351Y0157030D01*
X0148274Y0157064D01*
X0148199Y0157101D01*
X0148126Y0157141D01*
X0148055Y0157186D01*
X0147986Y0157233D01*
X0147919Y0157284D01*
X0147855Y0157337D01*
X0147793Y0157394D01*
X0147735Y0157454D01*
X0147679Y0157516D01*
X0147626Y0157581D01*
X0147576Y0157648D01*
X0147529Y0157717D01*
X0147486Y0157789D01*
X0147446Y0157863D01*
X0147410Y0157938D01*
X0147377Y0158015D01*
X0147348Y0158094D01*
X0147323Y0158173D01*
X0147301Y0158254D01*
X0147284Y0158336D01*
X0147270Y0158419D01*
X0147260Y0158502D01*
X0147254Y0158585D01*
X0147252Y0158669D01*
X0147252Y0138984D02*
X0147254Y0139068D01*
X0147260Y0139151D01*
X0147270Y0139234D01*
X0147284Y0139317D01*
X0147301Y0139399D01*
X0147323Y0139480D01*
X0147348Y0139559D01*
X0147377Y0139638D01*
X0147410Y0139715D01*
X0147446Y0139790D01*
X0147486Y0139864D01*
X0147529Y0139936D01*
X0147576Y0140005D01*
X0147626Y0140072D01*
X0147679Y0140137D01*
X0147735Y0140199D01*
X0147793Y0140259D01*
X0147855Y0140316D01*
X0147919Y0140369D01*
X0147986Y0140420D01*
X0148055Y0140467D01*
X0148126Y0140512D01*
X0148199Y0140552D01*
X0148274Y0140589D01*
X0148351Y0140623D01*
X0148429Y0140653D01*
X0148508Y0140679D01*
X0148589Y0140702D01*
X0148671Y0140720D01*
X0148753Y0140735D01*
X0148836Y0140746D01*
X0148919Y0140753D01*
X0149003Y0140756D01*
X0149087Y0140755D01*
X0149170Y0140750D01*
X0149254Y0140741D01*
X0149336Y0140728D01*
X0149418Y0140712D01*
X0149499Y0140691D01*
X0149580Y0140667D01*
X0149658Y0140639D01*
X0149736Y0140607D01*
X0149812Y0140571D01*
X0149886Y0140532D01*
X0149958Y0140490D01*
X0150028Y0140444D01*
X0150096Y0140395D01*
X0150161Y0140343D01*
X0150224Y0140288D01*
X0150284Y0140230D01*
X0150342Y0140169D01*
X0150396Y0140105D01*
X0150448Y0140039D01*
X0150496Y0139971D01*
X0150541Y0139900D01*
X0150582Y0139827D01*
X0150621Y0139753D01*
X0150655Y0139677D01*
X0150686Y0139599D01*
X0150713Y0139520D01*
X0150737Y0139439D01*
X0150756Y0139358D01*
X0150772Y0139276D01*
X0150784Y0139193D01*
X0150792Y0139109D01*
X0150796Y0139026D01*
X0150796Y0138942D01*
X0150792Y0138859D01*
X0150784Y0138775D01*
X0150772Y0138692D01*
X0150756Y0138610D01*
X0150737Y0138529D01*
X0150713Y0138448D01*
X0150686Y0138369D01*
X0150655Y0138291D01*
X0150621Y0138215D01*
X0150582Y0138141D01*
X0150541Y0138068D01*
X0150496Y0137997D01*
X0150448Y0137929D01*
X0150396Y0137863D01*
X0150342Y0137799D01*
X0150284Y0137738D01*
X0150224Y0137680D01*
X0150161Y0137625D01*
X0150096Y0137573D01*
X0150028Y0137524D01*
X0149958Y0137478D01*
X0149886Y0137436D01*
X0149812Y0137397D01*
X0149736Y0137361D01*
X0149658Y0137329D01*
X0149580Y0137301D01*
X0149499Y0137277D01*
X0149418Y0137256D01*
X0149336Y0137240D01*
X0149254Y0137227D01*
X0149170Y0137218D01*
X0149087Y0137213D01*
X0149003Y0137212D01*
X0148919Y0137215D01*
X0148836Y0137222D01*
X0148753Y0137233D01*
X0148671Y0137248D01*
X0148589Y0137266D01*
X0148508Y0137289D01*
X0148429Y0137315D01*
X0148351Y0137345D01*
X0148274Y0137379D01*
X0148199Y0137416D01*
X0148126Y0137456D01*
X0148055Y0137501D01*
X0147986Y0137548D01*
X0147919Y0137599D01*
X0147855Y0137652D01*
X0147793Y0137709D01*
X0147735Y0137769D01*
X0147679Y0137831D01*
X0147626Y0137896D01*
X0147576Y0137963D01*
X0147529Y0138032D01*
X0147486Y0138104D01*
X0147446Y0138178D01*
X0147410Y0138253D01*
X0147377Y0138330D01*
X0147348Y0138409D01*
X0147323Y0138488D01*
X0147301Y0138569D01*
X0147284Y0138651D01*
X0147270Y0138734D01*
X0147260Y0138817D01*
X0147254Y0138900D01*
X0147252Y0138984D01*
X0147862Y0129142D02*
X0147252Y0126858D01*
X0150795Y0126858D01*
X0150185Y0129142D01*
X0147252Y0118354D02*
X0147254Y0118438D01*
X0147260Y0118521D01*
X0147270Y0118604D01*
X0147284Y0118687D01*
X0147301Y0118769D01*
X0147323Y0118850D01*
X0147348Y0118929D01*
X0147377Y0119008D01*
X0147410Y0119085D01*
X0147446Y0119160D01*
X0147486Y0119234D01*
X0147529Y0119306D01*
X0147576Y0119375D01*
X0147626Y0119442D01*
X0147679Y0119507D01*
X0147735Y0119569D01*
X0147793Y0119629D01*
X0147855Y0119686D01*
X0147919Y0119739D01*
X0147986Y0119790D01*
X0148055Y0119837D01*
X0148126Y0119882D01*
X0148199Y0119922D01*
X0148274Y0119959D01*
X0148351Y0119993D01*
X0148429Y0120023D01*
X0148508Y0120049D01*
X0148589Y0120072D01*
X0148671Y0120090D01*
X0148753Y0120105D01*
X0148836Y0120116D01*
X0148919Y0120123D01*
X0149003Y0120126D01*
X0149087Y0120125D01*
X0149170Y0120120D01*
X0149254Y0120111D01*
X0149336Y0120098D01*
X0149418Y0120082D01*
X0149499Y0120061D01*
X0149580Y0120037D01*
X0149658Y0120009D01*
X0149736Y0119977D01*
X0149812Y0119941D01*
X0149886Y0119902D01*
X0149958Y0119860D01*
X0150028Y0119814D01*
X0150096Y0119765D01*
X0150161Y0119713D01*
X0150224Y0119658D01*
X0150284Y0119600D01*
X0150342Y0119539D01*
X0150396Y0119475D01*
X0150448Y0119409D01*
X0150496Y0119341D01*
X0150541Y0119270D01*
X0150582Y0119197D01*
X0150621Y0119123D01*
X0150655Y0119047D01*
X0150686Y0118969D01*
X0150713Y0118890D01*
X0150737Y0118809D01*
X0150756Y0118728D01*
X0150772Y0118646D01*
X0150784Y0118563D01*
X0150792Y0118479D01*
X0150796Y0118396D01*
X0150796Y0118312D01*
X0150792Y0118229D01*
X0150784Y0118145D01*
X0150772Y0118062D01*
X0150756Y0117980D01*
X0150737Y0117899D01*
X0150713Y0117818D01*
X0150686Y0117739D01*
X0150655Y0117661D01*
X0150621Y0117585D01*
X0150582Y0117511D01*
X0150541Y0117438D01*
X0150496Y0117367D01*
X0150448Y0117299D01*
X0150396Y0117233D01*
X0150342Y0117169D01*
X0150284Y0117108D01*
X0150224Y0117050D01*
X0150161Y0116995D01*
X0150096Y0116943D01*
X0150028Y0116894D01*
X0149958Y0116848D01*
X0149886Y0116806D01*
X0149812Y0116767D01*
X0149736Y0116731D01*
X0149658Y0116699D01*
X0149580Y0116671D01*
X0149499Y0116647D01*
X0149418Y0116626D01*
X0149336Y0116610D01*
X0149254Y0116597D01*
X0149170Y0116588D01*
X0149087Y0116583D01*
X0149003Y0116582D01*
X0148919Y0116585D01*
X0148836Y0116592D01*
X0148753Y0116603D01*
X0148671Y0116618D01*
X0148589Y0116636D01*
X0148508Y0116659D01*
X0148429Y0116685D01*
X0148351Y0116715D01*
X0148274Y0116749D01*
X0148199Y0116786D01*
X0148126Y0116826D01*
X0148055Y0116871D01*
X0147986Y0116918D01*
X0147919Y0116969D01*
X0147855Y0117022D01*
X0147793Y0117079D01*
X0147735Y0117139D01*
X0147679Y0117201D01*
X0147626Y0117266D01*
X0147576Y0117333D01*
X0147529Y0117402D01*
X0147486Y0117474D01*
X0147446Y0117548D01*
X0147410Y0117623D01*
X0147377Y0117700D01*
X0147348Y0117779D01*
X0147323Y0117858D01*
X0147301Y0117939D01*
X0147284Y0118021D01*
X0147270Y0118104D01*
X0147260Y0118187D01*
X0147254Y0118270D01*
X0147252Y0118354D01*
X0147252Y0098669D02*
X0147254Y0098753D01*
X0147260Y0098836D01*
X0147270Y0098919D01*
X0147284Y0099002D01*
X0147301Y0099084D01*
X0147323Y0099165D01*
X0147348Y0099244D01*
X0147377Y0099323D01*
X0147410Y0099400D01*
X0147446Y0099475D01*
X0147486Y0099549D01*
X0147529Y0099621D01*
X0147576Y0099690D01*
X0147626Y0099757D01*
X0147679Y0099822D01*
X0147735Y0099884D01*
X0147793Y0099944D01*
X0147855Y0100001D01*
X0147919Y0100054D01*
X0147986Y0100105D01*
X0148055Y0100152D01*
X0148126Y0100197D01*
X0148199Y0100237D01*
X0148274Y0100274D01*
X0148351Y0100308D01*
X0148429Y0100338D01*
X0148508Y0100364D01*
X0148589Y0100387D01*
X0148671Y0100405D01*
X0148753Y0100420D01*
X0148836Y0100431D01*
X0148919Y0100438D01*
X0149003Y0100441D01*
X0149087Y0100440D01*
X0149170Y0100435D01*
X0149254Y0100426D01*
X0149336Y0100413D01*
X0149418Y0100397D01*
X0149499Y0100376D01*
X0149580Y0100352D01*
X0149658Y0100324D01*
X0149736Y0100292D01*
X0149812Y0100256D01*
X0149886Y0100217D01*
X0149958Y0100175D01*
X0150028Y0100129D01*
X0150096Y0100080D01*
X0150161Y0100028D01*
X0150224Y0099973D01*
X0150284Y0099915D01*
X0150342Y0099854D01*
X0150396Y0099790D01*
X0150448Y0099724D01*
X0150496Y0099656D01*
X0150541Y0099585D01*
X0150582Y0099512D01*
X0150621Y0099438D01*
X0150655Y0099362D01*
X0150686Y0099284D01*
X0150713Y0099205D01*
X0150737Y0099124D01*
X0150756Y0099043D01*
X0150772Y0098961D01*
X0150784Y0098878D01*
X0150792Y0098794D01*
X0150796Y0098711D01*
X0150796Y0098627D01*
X0150792Y0098544D01*
X0150784Y0098460D01*
X0150772Y0098377D01*
X0150756Y0098295D01*
X0150737Y0098214D01*
X0150713Y0098133D01*
X0150686Y0098054D01*
X0150655Y0097976D01*
X0150621Y0097900D01*
X0150582Y0097826D01*
X0150541Y0097753D01*
X0150496Y0097682D01*
X0150448Y0097614D01*
X0150396Y0097548D01*
X0150342Y0097484D01*
X0150284Y0097423D01*
X0150224Y0097365D01*
X0150161Y0097310D01*
X0150096Y0097258D01*
X0150028Y0097209D01*
X0149958Y0097163D01*
X0149886Y0097121D01*
X0149812Y0097082D01*
X0149736Y0097046D01*
X0149658Y0097014D01*
X0149580Y0096986D01*
X0149499Y0096962D01*
X0149418Y0096941D01*
X0149336Y0096925D01*
X0149254Y0096912D01*
X0149170Y0096903D01*
X0149087Y0096898D01*
X0149003Y0096897D01*
X0148919Y0096900D01*
X0148836Y0096907D01*
X0148753Y0096918D01*
X0148671Y0096933D01*
X0148589Y0096951D01*
X0148508Y0096974D01*
X0148429Y0097000D01*
X0148351Y0097030D01*
X0148274Y0097064D01*
X0148199Y0097101D01*
X0148126Y0097141D01*
X0148055Y0097186D01*
X0147986Y0097233D01*
X0147919Y0097284D01*
X0147855Y0097337D01*
X0147793Y0097394D01*
X0147735Y0097454D01*
X0147679Y0097516D01*
X0147626Y0097581D01*
X0147576Y0097648D01*
X0147529Y0097717D01*
X0147486Y0097789D01*
X0147446Y0097863D01*
X0147410Y0097938D01*
X0147377Y0098015D01*
X0147348Y0098094D01*
X0147323Y0098173D01*
X0147301Y0098254D01*
X0147284Y0098336D01*
X0147270Y0098419D01*
X0147260Y0098502D01*
X0147254Y0098585D01*
X0147252Y0098669D01*
X0147252Y0078984D02*
X0147254Y0079068D01*
X0147260Y0079151D01*
X0147270Y0079234D01*
X0147284Y0079317D01*
X0147301Y0079399D01*
X0147323Y0079480D01*
X0147348Y0079559D01*
X0147377Y0079638D01*
X0147410Y0079715D01*
X0147446Y0079790D01*
X0147486Y0079864D01*
X0147529Y0079936D01*
X0147576Y0080005D01*
X0147626Y0080072D01*
X0147679Y0080137D01*
X0147735Y0080199D01*
X0147793Y0080259D01*
X0147855Y0080316D01*
X0147919Y0080369D01*
X0147986Y0080420D01*
X0148055Y0080467D01*
X0148126Y0080512D01*
X0148199Y0080552D01*
X0148274Y0080589D01*
X0148351Y0080623D01*
X0148429Y0080653D01*
X0148508Y0080679D01*
X0148589Y0080702D01*
X0148671Y0080720D01*
X0148753Y0080735D01*
X0148836Y0080746D01*
X0148919Y0080753D01*
X0149003Y0080756D01*
X0149087Y0080755D01*
X0149170Y0080750D01*
X0149254Y0080741D01*
X0149336Y0080728D01*
X0149418Y0080712D01*
X0149499Y0080691D01*
X0149580Y0080667D01*
X0149658Y0080639D01*
X0149736Y0080607D01*
X0149812Y0080571D01*
X0149886Y0080532D01*
X0149958Y0080490D01*
X0150028Y0080444D01*
X0150096Y0080395D01*
X0150161Y0080343D01*
X0150224Y0080288D01*
X0150284Y0080230D01*
X0150342Y0080169D01*
X0150396Y0080105D01*
X0150448Y0080039D01*
X0150496Y0079971D01*
X0150541Y0079900D01*
X0150582Y0079827D01*
X0150621Y0079753D01*
X0150655Y0079677D01*
X0150686Y0079599D01*
X0150713Y0079520D01*
X0150737Y0079439D01*
X0150756Y0079358D01*
X0150772Y0079276D01*
X0150784Y0079193D01*
X0150792Y0079109D01*
X0150796Y0079026D01*
X0150796Y0078942D01*
X0150792Y0078859D01*
X0150784Y0078775D01*
X0150772Y0078692D01*
X0150756Y0078610D01*
X0150737Y0078529D01*
X0150713Y0078448D01*
X0150686Y0078369D01*
X0150655Y0078291D01*
X0150621Y0078215D01*
X0150582Y0078141D01*
X0150541Y0078068D01*
X0150496Y0077997D01*
X0150448Y0077929D01*
X0150396Y0077863D01*
X0150342Y0077799D01*
X0150284Y0077738D01*
X0150224Y0077680D01*
X0150161Y0077625D01*
X0150096Y0077573D01*
X0150028Y0077524D01*
X0149958Y0077478D01*
X0149886Y0077436D01*
X0149812Y0077397D01*
X0149736Y0077361D01*
X0149658Y0077329D01*
X0149580Y0077301D01*
X0149499Y0077277D01*
X0149418Y0077256D01*
X0149336Y0077240D01*
X0149254Y0077227D01*
X0149170Y0077218D01*
X0149087Y0077213D01*
X0149003Y0077212D01*
X0148919Y0077215D01*
X0148836Y0077222D01*
X0148753Y0077233D01*
X0148671Y0077248D01*
X0148589Y0077266D01*
X0148508Y0077289D01*
X0148429Y0077315D01*
X0148351Y0077345D01*
X0148274Y0077379D01*
X0148199Y0077416D01*
X0148126Y0077456D01*
X0148055Y0077501D01*
X0147986Y0077548D01*
X0147919Y0077599D01*
X0147855Y0077652D01*
X0147793Y0077709D01*
X0147735Y0077769D01*
X0147679Y0077831D01*
X0147626Y0077896D01*
X0147576Y0077963D01*
X0147529Y0078032D01*
X0147486Y0078104D01*
X0147446Y0078178D01*
X0147410Y0078253D01*
X0147377Y0078330D01*
X0147348Y0078409D01*
X0147323Y0078488D01*
X0147301Y0078569D01*
X0147284Y0078651D01*
X0147270Y0078734D01*
X0147260Y0078817D01*
X0147254Y0078900D01*
X0147252Y0078984D01*
X0147862Y0069142D02*
X0147252Y0066858D01*
X0150795Y0066858D01*
X0150185Y0069142D01*
X0147252Y0058354D02*
X0147254Y0058438D01*
X0147260Y0058521D01*
X0147270Y0058604D01*
X0147284Y0058687D01*
X0147301Y0058769D01*
X0147323Y0058850D01*
X0147348Y0058929D01*
X0147377Y0059008D01*
X0147410Y0059085D01*
X0147446Y0059160D01*
X0147486Y0059234D01*
X0147529Y0059306D01*
X0147576Y0059375D01*
X0147626Y0059442D01*
X0147679Y0059507D01*
X0147735Y0059569D01*
X0147793Y0059629D01*
X0147855Y0059686D01*
X0147919Y0059739D01*
X0147986Y0059790D01*
X0148055Y0059837D01*
X0148126Y0059882D01*
X0148199Y0059922D01*
X0148274Y0059959D01*
X0148351Y0059993D01*
X0148429Y0060023D01*
X0148508Y0060049D01*
X0148589Y0060072D01*
X0148671Y0060090D01*
X0148753Y0060105D01*
X0148836Y0060116D01*
X0148919Y0060123D01*
X0149003Y0060126D01*
X0149087Y0060125D01*
X0149170Y0060120D01*
X0149254Y0060111D01*
X0149336Y0060098D01*
X0149418Y0060082D01*
X0149499Y0060061D01*
X0149580Y0060037D01*
X0149658Y0060009D01*
X0149736Y0059977D01*
X0149812Y0059941D01*
X0149886Y0059902D01*
X0149958Y0059860D01*
X0150028Y0059814D01*
X0150096Y0059765D01*
X0150161Y0059713D01*
X0150224Y0059658D01*
X0150284Y0059600D01*
X0150342Y0059539D01*
X0150396Y0059475D01*
X0150448Y0059409D01*
X0150496Y0059341D01*
X0150541Y0059270D01*
X0150582Y0059197D01*
X0150621Y0059123D01*
X0150655Y0059047D01*
X0150686Y0058969D01*
X0150713Y0058890D01*
X0150737Y0058809D01*
X0150756Y0058728D01*
X0150772Y0058646D01*
X0150784Y0058563D01*
X0150792Y0058479D01*
X0150796Y0058396D01*
X0150796Y0058312D01*
X0150792Y0058229D01*
X0150784Y0058145D01*
X0150772Y0058062D01*
X0150756Y0057980D01*
X0150737Y0057899D01*
X0150713Y0057818D01*
X0150686Y0057739D01*
X0150655Y0057661D01*
X0150621Y0057585D01*
X0150582Y0057511D01*
X0150541Y0057438D01*
X0150496Y0057367D01*
X0150448Y0057299D01*
X0150396Y0057233D01*
X0150342Y0057169D01*
X0150284Y0057108D01*
X0150224Y0057050D01*
X0150161Y0056995D01*
X0150096Y0056943D01*
X0150028Y0056894D01*
X0149958Y0056848D01*
X0149886Y0056806D01*
X0149812Y0056767D01*
X0149736Y0056731D01*
X0149658Y0056699D01*
X0149580Y0056671D01*
X0149499Y0056647D01*
X0149418Y0056626D01*
X0149336Y0056610D01*
X0149254Y0056597D01*
X0149170Y0056588D01*
X0149087Y0056583D01*
X0149003Y0056582D01*
X0148919Y0056585D01*
X0148836Y0056592D01*
X0148753Y0056603D01*
X0148671Y0056618D01*
X0148589Y0056636D01*
X0148508Y0056659D01*
X0148429Y0056685D01*
X0148351Y0056715D01*
X0148274Y0056749D01*
X0148199Y0056786D01*
X0148126Y0056826D01*
X0148055Y0056871D01*
X0147986Y0056918D01*
X0147919Y0056969D01*
X0147855Y0057022D01*
X0147793Y0057079D01*
X0147735Y0057139D01*
X0147679Y0057201D01*
X0147626Y0057266D01*
X0147576Y0057333D01*
X0147529Y0057402D01*
X0147486Y0057474D01*
X0147446Y0057548D01*
X0147410Y0057623D01*
X0147377Y0057700D01*
X0147348Y0057779D01*
X0147323Y0057858D01*
X0147301Y0057939D01*
X0147284Y0058021D01*
X0147270Y0058104D01*
X0147260Y0058187D01*
X0147254Y0058270D01*
X0147252Y0058354D01*
X0147252Y0038669D02*
X0147254Y0038753D01*
X0147260Y0038836D01*
X0147270Y0038919D01*
X0147284Y0039002D01*
X0147301Y0039084D01*
X0147323Y0039165D01*
X0147348Y0039244D01*
X0147377Y0039323D01*
X0147410Y0039400D01*
X0147446Y0039475D01*
X0147486Y0039549D01*
X0147529Y0039621D01*
X0147576Y0039690D01*
X0147626Y0039757D01*
X0147679Y0039822D01*
X0147735Y0039884D01*
X0147793Y0039944D01*
X0147855Y0040001D01*
X0147919Y0040054D01*
X0147986Y0040105D01*
X0148055Y0040152D01*
X0148126Y0040197D01*
X0148199Y0040237D01*
X0148274Y0040274D01*
X0148351Y0040308D01*
X0148429Y0040338D01*
X0148508Y0040364D01*
X0148589Y0040387D01*
X0148671Y0040405D01*
X0148753Y0040420D01*
X0148836Y0040431D01*
X0148919Y0040438D01*
X0149003Y0040441D01*
X0149087Y0040440D01*
X0149170Y0040435D01*
X0149254Y0040426D01*
X0149336Y0040413D01*
X0149418Y0040397D01*
X0149499Y0040376D01*
X0149580Y0040352D01*
X0149658Y0040324D01*
X0149736Y0040292D01*
X0149812Y0040256D01*
X0149886Y0040217D01*
X0149958Y0040175D01*
X0150028Y0040129D01*
X0150096Y0040080D01*
X0150161Y0040028D01*
X0150224Y0039973D01*
X0150284Y0039915D01*
X0150342Y0039854D01*
X0150396Y0039790D01*
X0150448Y0039724D01*
X0150496Y0039656D01*
X0150541Y0039585D01*
X0150582Y0039512D01*
X0150621Y0039438D01*
X0150655Y0039362D01*
X0150686Y0039284D01*
X0150713Y0039205D01*
X0150737Y0039124D01*
X0150756Y0039043D01*
X0150772Y0038961D01*
X0150784Y0038878D01*
X0150792Y0038794D01*
X0150796Y0038711D01*
X0150796Y0038627D01*
X0150792Y0038544D01*
X0150784Y0038460D01*
X0150772Y0038377D01*
X0150756Y0038295D01*
X0150737Y0038214D01*
X0150713Y0038133D01*
X0150686Y0038054D01*
X0150655Y0037976D01*
X0150621Y0037900D01*
X0150582Y0037826D01*
X0150541Y0037753D01*
X0150496Y0037682D01*
X0150448Y0037614D01*
X0150396Y0037548D01*
X0150342Y0037484D01*
X0150284Y0037423D01*
X0150224Y0037365D01*
X0150161Y0037310D01*
X0150096Y0037258D01*
X0150028Y0037209D01*
X0149958Y0037163D01*
X0149886Y0037121D01*
X0149812Y0037082D01*
X0149736Y0037046D01*
X0149658Y0037014D01*
X0149580Y0036986D01*
X0149499Y0036962D01*
X0149418Y0036941D01*
X0149336Y0036925D01*
X0149254Y0036912D01*
X0149170Y0036903D01*
X0149087Y0036898D01*
X0149003Y0036897D01*
X0148919Y0036900D01*
X0148836Y0036907D01*
X0148753Y0036918D01*
X0148671Y0036933D01*
X0148589Y0036951D01*
X0148508Y0036974D01*
X0148429Y0037000D01*
X0148351Y0037030D01*
X0148274Y0037064D01*
X0148199Y0037101D01*
X0148126Y0037141D01*
X0148055Y0037186D01*
X0147986Y0037233D01*
X0147919Y0037284D01*
X0147855Y0037337D01*
X0147793Y0037394D01*
X0147735Y0037454D01*
X0147679Y0037516D01*
X0147626Y0037581D01*
X0147576Y0037648D01*
X0147529Y0037717D01*
X0147486Y0037789D01*
X0147446Y0037863D01*
X0147410Y0037938D01*
X0147377Y0038015D01*
X0147348Y0038094D01*
X0147323Y0038173D01*
X0147301Y0038254D01*
X0147284Y0038336D01*
X0147270Y0038419D01*
X0147260Y0038502D01*
X0147254Y0038585D01*
X0147252Y0038669D01*
X0147252Y0018984D02*
X0147254Y0019068D01*
X0147260Y0019151D01*
X0147270Y0019234D01*
X0147284Y0019317D01*
X0147301Y0019399D01*
X0147323Y0019480D01*
X0147348Y0019559D01*
X0147377Y0019638D01*
X0147410Y0019715D01*
X0147446Y0019790D01*
X0147486Y0019864D01*
X0147529Y0019936D01*
X0147576Y0020005D01*
X0147626Y0020072D01*
X0147679Y0020137D01*
X0147735Y0020199D01*
X0147793Y0020259D01*
X0147855Y0020316D01*
X0147919Y0020369D01*
X0147986Y0020420D01*
X0148055Y0020467D01*
X0148126Y0020512D01*
X0148199Y0020552D01*
X0148274Y0020589D01*
X0148351Y0020623D01*
X0148429Y0020653D01*
X0148508Y0020679D01*
X0148589Y0020702D01*
X0148671Y0020720D01*
X0148753Y0020735D01*
X0148836Y0020746D01*
X0148919Y0020753D01*
X0149003Y0020756D01*
X0149087Y0020755D01*
X0149170Y0020750D01*
X0149254Y0020741D01*
X0149336Y0020728D01*
X0149418Y0020712D01*
X0149499Y0020691D01*
X0149580Y0020667D01*
X0149658Y0020639D01*
X0149736Y0020607D01*
X0149812Y0020571D01*
X0149886Y0020532D01*
X0149958Y0020490D01*
X0150028Y0020444D01*
X0150096Y0020395D01*
X0150161Y0020343D01*
X0150224Y0020288D01*
X0150284Y0020230D01*
X0150342Y0020169D01*
X0150396Y0020105D01*
X0150448Y0020039D01*
X0150496Y0019971D01*
X0150541Y0019900D01*
X0150582Y0019827D01*
X0150621Y0019753D01*
X0150655Y0019677D01*
X0150686Y0019599D01*
X0150713Y0019520D01*
X0150737Y0019439D01*
X0150756Y0019358D01*
X0150772Y0019276D01*
X0150784Y0019193D01*
X0150792Y0019109D01*
X0150796Y0019026D01*
X0150796Y0018942D01*
X0150792Y0018859D01*
X0150784Y0018775D01*
X0150772Y0018692D01*
X0150756Y0018610D01*
X0150737Y0018529D01*
X0150713Y0018448D01*
X0150686Y0018369D01*
X0150655Y0018291D01*
X0150621Y0018215D01*
X0150582Y0018141D01*
X0150541Y0018068D01*
X0150496Y0017997D01*
X0150448Y0017929D01*
X0150396Y0017863D01*
X0150342Y0017799D01*
X0150284Y0017738D01*
X0150224Y0017680D01*
X0150161Y0017625D01*
X0150096Y0017573D01*
X0150028Y0017524D01*
X0149958Y0017478D01*
X0149886Y0017436D01*
X0149812Y0017397D01*
X0149736Y0017361D01*
X0149658Y0017329D01*
X0149580Y0017301D01*
X0149499Y0017277D01*
X0149418Y0017256D01*
X0149336Y0017240D01*
X0149254Y0017227D01*
X0149170Y0017218D01*
X0149087Y0017213D01*
X0149003Y0017212D01*
X0148919Y0017215D01*
X0148836Y0017222D01*
X0148753Y0017233D01*
X0148671Y0017248D01*
X0148589Y0017266D01*
X0148508Y0017289D01*
X0148429Y0017315D01*
X0148351Y0017345D01*
X0148274Y0017379D01*
X0148199Y0017416D01*
X0148126Y0017456D01*
X0148055Y0017501D01*
X0147986Y0017548D01*
X0147919Y0017599D01*
X0147855Y0017652D01*
X0147793Y0017709D01*
X0147735Y0017769D01*
X0147679Y0017831D01*
X0147626Y0017896D01*
X0147576Y0017963D01*
X0147529Y0018032D01*
X0147486Y0018104D01*
X0147446Y0018178D01*
X0147410Y0018253D01*
X0147377Y0018330D01*
X0147348Y0018409D01*
X0147323Y0018488D01*
X0147301Y0018569D01*
X0147284Y0018651D01*
X0147270Y0018734D01*
X0147260Y0018817D01*
X0147254Y0018900D01*
X0147252Y0018984D01*
X0147862Y0009142D02*
X0147252Y0006858D01*
X0150795Y0006858D01*
X0150185Y0009142D01*
X0121582Y0033315D02*
X0121584Y0033399D01*
X0121590Y0033482D01*
X0121600Y0033565D01*
X0121614Y0033648D01*
X0121631Y0033730D01*
X0121653Y0033811D01*
X0121678Y0033890D01*
X0121707Y0033969D01*
X0121740Y0034046D01*
X0121776Y0034121D01*
X0121816Y0034195D01*
X0121859Y0034267D01*
X0121906Y0034336D01*
X0121956Y0034403D01*
X0122009Y0034468D01*
X0122065Y0034530D01*
X0122123Y0034590D01*
X0122185Y0034647D01*
X0122249Y0034700D01*
X0122316Y0034751D01*
X0122385Y0034798D01*
X0122456Y0034843D01*
X0122529Y0034883D01*
X0122604Y0034920D01*
X0122681Y0034954D01*
X0122759Y0034984D01*
X0122838Y0035010D01*
X0122919Y0035033D01*
X0123001Y0035051D01*
X0123083Y0035066D01*
X0123166Y0035077D01*
X0123249Y0035084D01*
X0123333Y0035087D01*
X0123417Y0035086D01*
X0123500Y0035081D01*
X0123584Y0035072D01*
X0123666Y0035059D01*
X0123748Y0035043D01*
X0123829Y0035022D01*
X0123910Y0034998D01*
X0123988Y0034970D01*
X0124066Y0034938D01*
X0124142Y0034902D01*
X0124216Y0034863D01*
X0124288Y0034821D01*
X0124358Y0034775D01*
X0124426Y0034726D01*
X0124491Y0034674D01*
X0124554Y0034619D01*
X0124614Y0034561D01*
X0124672Y0034500D01*
X0124726Y0034436D01*
X0124778Y0034370D01*
X0124826Y0034302D01*
X0124871Y0034231D01*
X0124912Y0034158D01*
X0124951Y0034084D01*
X0124985Y0034008D01*
X0125016Y0033930D01*
X0125043Y0033851D01*
X0125067Y0033770D01*
X0125086Y0033689D01*
X0125102Y0033607D01*
X0125114Y0033524D01*
X0125122Y0033440D01*
X0125126Y0033357D01*
X0125126Y0033273D01*
X0125122Y0033190D01*
X0125114Y0033106D01*
X0125102Y0033023D01*
X0125086Y0032941D01*
X0125067Y0032860D01*
X0125043Y0032779D01*
X0125016Y0032700D01*
X0124985Y0032622D01*
X0124951Y0032546D01*
X0124912Y0032472D01*
X0124871Y0032399D01*
X0124826Y0032328D01*
X0124778Y0032260D01*
X0124726Y0032194D01*
X0124672Y0032130D01*
X0124614Y0032069D01*
X0124554Y0032011D01*
X0124491Y0031956D01*
X0124426Y0031904D01*
X0124358Y0031855D01*
X0124288Y0031809D01*
X0124216Y0031767D01*
X0124142Y0031728D01*
X0124066Y0031692D01*
X0123988Y0031660D01*
X0123910Y0031632D01*
X0123829Y0031608D01*
X0123748Y0031587D01*
X0123666Y0031571D01*
X0123584Y0031558D01*
X0123500Y0031549D01*
X0123417Y0031544D01*
X0123333Y0031543D01*
X0123249Y0031546D01*
X0123166Y0031553D01*
X0123083Y0031564D01*
X0123001Y0031579D01*
X0122919Y0031597D01*
X0122838Y0031620D01*
X0122759Y0031646D01*
X0122681Y0031676D01*
X0122604Y0031710D01*
X0122529Y0031747D01*
X0122456Y0031787D01*
X0122385Y0031832D01*
X0122316Y0031879D01*
X0122249Y0031930D01*
X0122185Y0031983D01*
X0122123Y0032040D01*
X0122065Y0032100D01*
X0122009Y0032162D01*
X0121956Y0032227D01*
X0121906Y0032294D01*
X0121859Y0032363D01*
X0121816Y0032435D01*
X0121776Y0032509D01*
X0121740Y0032584D01*
X0121707Y0032661D01*
X0121678Y0032740D01*
X0121653Y0032819D01*
X0121631Y0032900D01*
X0121614Y0032982D01*
X0121600Y0033065D01*
X0121590Y0033148D01*
X0121584Y0033231D01*
X0121582Y0033315D01*
X0101897Y0033315D02*
X0101899Y0033399D01*
X0101905Y0033482D01*
X0101915Y0033565D01*
X0101929Y0033648D01*
X0101946Y0033730D01*
X0101968Y0033811D01*
X0101993Y0033890D01*
X0102022Y0033969D01*
X0102055Y0034046D01*
X0102091Y0034121D01*
X0102131Y0034195D01*
X0102174Y0034267D01*
X0102221Y0034336D01*
X0102271Y0034403D01*
X0102324Y0034468D01*
X0102380Y0034530D01*
X0102438Y0034590D01*
X0102500Y0034647D01*
X0102564Y0034700D01*
X0102631Y0034751D01*
X0102700Y0034798D01*
X0102771Y0034843D01*
X0102844Y0034883D01*
X0102919Y0034920D01*
X0102996Y0034954D01*
X0103074Y0034984D01*
X0103153Y0035010D01*
X0103234Y0035033D01*
X0103316Y0035051D01*
X0103398Y0035066D01*
X0103481Y0035077D01*
X0103564Y0035084D01*
X0103648Y0035087D01*
X0103732Y0035086D01*
X0103815Y0035081D01*
X0103899Y0035072D01*
X0103981Y0035059D01*
X0104063Y0035043D01*
X0104144Y0035022D01*
X0104225Y0034998D01*
X0104303Y0034970D01*
X0104381Y0034938D01*
X0104457Y0034902D01*
X0104531Y0034863D01*
X0104603Y0034821D01*
X0104673Y0034775D01*
X0104741Y0034726D01*
X0104806Y0034674D01*
X0104869Y0034619D01*
X0104929Y0034561D01*
X0104987Y0034500D01*
X0105041Y0034436D01*
X0105093Y0034370D01*
X0105141Y0034302D01*
X0105186Y0034231D01*
X0105227Y0034158D01*
X0105266Y0034084D01*
X0105300Y0034008D01*
X0105331Y0033930D01*
X0105358Y0033851D01*
X0105382Y0033770D01*
X0105401Y0033689D01*
X0105417Y0033607D01*
X0105429Y0033524D01*
X0105437Y0033440D01*
X0105441Y0033357D01*
X0105441Y0033273D01*
X0105437Y0033190D01*
X0105429Y0033106D01*
X0105417Y0033023D01*
X0105401Y0032941D01*
X0105382Y0032860D01*
X0105358Y0032779D01*
X0105331Y0032700D01*
X0105300Y0032622D01*
X0105266Y0032546D01*
X0105227Y0032472D01*
X0105186Y0032399D01*
X0105141Y0032328D01*
X0105093Y0032260D01*
X0105041Y0032194D01*
X0104987Y0032130D01*
X0104929Y0032069D01*
X0104869Y0032011D01*
X0104806Y0031956D01*
X0104741Y0031904D01*
X0104673Y0031855D01*
X0104603Y0031809D01*
X0104531Y0031767D01*
X0104457Y0031728D01*
X0104381Y0031692D01*
X0104303Y0031660D01*
X0104225Y0031632D01*
X0104144Y0031608D01*
X0104063Y0031587D01*
X0103981Y0031571D01*
X0103899Y0031558D01*
X0103815Y0031549D01*
X0103732Y0031544D01*
X0103648Y0031543D01*
X0103564Y0031546D01*
X0103481Y0031553D01*
X0103398Y0031564D01*
X0103316Y0031579D01*
X0103234Y0031597D01*
X0103153Y0031620D01*
X0103074Y0031646D01*
X0102996Y0031676D01*
X0102919Y0031710D01*
X0102844Y0031747D01*
X0102771Y0031787D01*
X0102700Y0031832D01*
X0102631Y0031879D01*
X0102564Y0031930D01*
X0102500Y0031983D01*
X0102438Y0032040D01*
X0102380Y0032100D01*
X0102324Y0032162D01*
X0102271Y0032227D01*
X0102221Y0032294D01*
X0102174Y0032363D01*
X0102131Y0032435D01*
X0102091Y0032509D01*
X0102055Y0032584D01*
X0102022Y0032661D01*
X0101993Y0032740D01*
X0101968Y0032819D01*
X0101946Y0032900D01*
X0101929Y0032982D01*
X0101915Y0033065D01*
X0101905Y0033148D01*
X0101899Y0033231D01*
X0101897Y0033315D01*
X0082212Y0033315D02*
X0082214Y0033399D01*
X0082220Y0033482D01*
X0082230Y0033565D01*
X0082244Y0033648D01*
X0082261Y0033730D01*
X0082283Y0033811D01*
X0082308Y0033890D01*
X0082337Y0033969D01*
X0082370Y0034046D01*
X0082406Y0034121D01*
X0082446Y0034195D01*
X0082489Y0034267D01*
X0082536Y0034336D01*
X0082586Y0034403D01*
X0082639Y0034468D01*
X0082695Y0034530D01*
X0082753Y0034590D01*
X0082815Y0034647D01*
X0082879Y0034700D01*
X0082946Y0034751D01*
X0083015Y0034798D01*
X0083086Y0034843D01*
X0083159Y0034883D01*
X0083234Y0034920D01*
X0083311Y0034954D01*
X0083389Y0034984D01*
X0083468Y0035010D01*
X0083549Y0035033D01*
X0083631Y0035051D01*
X0083713Y0035066D01*
X0083796Y0035077D01*
X0083879Y0035084D01*
X0083963Y0035087D01*
X0084047Y0035086D01*
X0084130Y0035081D01*
X0084214Y0035072D01*
X0084296Y0035059D01*
X0084378Y0035043D01*
X0084459Y0035022D01*
X0084540Y0034998D01*
X0084618Y0034970D01*
X0084696Y0034938D01*
X0084772Y0034902D01*
X0084846Y0034863D01*
X0084918Y0034821D01*
X0084988Y0034775D01*
X0085056Y0034726D01*
X0085121Y0034674D01*
X0085184Y0034619D01*
X0085244Y0034561D01*
X0085302Y0034500D01*
X0085356Y0034436D01*
X0085408Y0034370D01*
X0085456Y0034302D01*
X0085501Y0034231D01*
X0085542Y0034158D01*
X0085581Y0034084D01*
X0085615Y0034008D01*
X0085646Y0033930D01*
X0085673Y0033851D01*
X0085697Y0033770D01*
X0085716Y0033689D01*
X0085732Y0033607D01*
X0085744Y0033524D01*
X0085752Y0033440D01*
X0085756Y0033357D01*
X0085756Y0033273D01*
X0085752Y0033190D01*
X0085744Y0033106D01*
X0085732Y0033023D01*
X0085716Y0032941D01*
X0085697Y0032860D01*
X0085673Y0032779D01*
X0085646Y0032700D01*
X0085615Y0032622D01*
X0085581Y0032546D01*
X0085542Y0032472D01*
X0085501Y0032399D01*
X0085456Y0032328D01*
X0085408Y0032260D01*
X0085356Y0032194D01*
X0085302Y0032130D01*
X0085244Y0032069D01*
X0085184Y0032011D01*
X0085121Y0031956D01*
X0085056Y0031904D01*
X0084988Y0031855D01*
X0084918Y0031809D01*
X0084846Y0031767D01*
X0084772Y0031728D01*
X0084696Y0031692D01*
X0084618Y0031660D01*
X0084540Y0031632D01*
X0084459Y0031608D01*
X0084378Y0031587D01*
X0084296Y0031571D01*
X0084214Y0031558D01*
X0084130Y0031549D01*
X0084047Y0031544D01*
X0083963Y0031543D01*
X0083879Y0031546D01*
X0083796Y0031553D01*
X0083713Y0031564D01*
X0083631Y0031579D01*
X0083549Y0031597D01*
X0083468Y0031620D01*
X0083389Y0031646D01*
X0083311Y0031676D01*
X0083234Y0031710D01*
X0083159Y0031747D01*
X0083086Y0031787D01*
X0083015Y0031832D01*
X0082946Y0031879D01*
X0082879Y0031930D01*
X0082815Y0031983D01*
X0082753Y0032040D01*
X0082695Y0032100D01*
X0082639Y0032162D01*
X0082586Y0032227D01*
X0082536Y0032294D01*
X0082489Y0032363D01*
X0082446Y0032435D01*
X0082406Y0032509D01*
X0082370Y0032584D01*
X0082337Y0032661D01*
X0082308Y0032740D01*
X0082283Y0032819D01*
X0082261Y0032900D01*
X0082244Y0032982D01*
X0082230Y0033065D01*
X0082220Y0033148D01*
X0082214Y0033231D01*
X0082212Y0033315D01*
X0074142Y0034476D02*
X0071858Y0035087D01*
X0071858Y0031543D01*
X0074142Y0032154D01*
X0031543Y0058827D02*
X0031545Y0058911D01*
X0031551Y0058994D01*
X0031561Y0059077D01*
X0031575Y0059160D01*
X0031592Y0059242D01*
X0031614Y0059323D01*
X0031639Y0059402D01*
X0031668Y0059481D01*
X0031701Y0059558D01*
X0031737Y0059633D01*
X0031777Y0059707D01*
X0031820Y0059779D01*
X0031867Y0059848D01*
X0031917Y0059915D01*
X0031970Y0059980D01*
X0032026Y0060042D01*
X0032084Y0060102D01*
X0032146Y0060159D01*
X0032210Y0060212D01*
X0032277Y0060263D01*
X0032346Y0060310D01*
X0032417Y0060355D01*
X0032490Y0060395D01*
X0032565Y0060432D01*
X0032642Y0060466D01*
X0032720Y0060496D01*
X0032799Y0060522D01*
X0032880Y0060545D01*
X0032962Y0060563D01*
X0033044Y0060578D01*
X0033127Y0060589D01*
X0033210Y0060596D01*
X0033294Y0060599D01*
X0033378Y0060598D01*
X0033461Y0060593D01*
X0033545Y0060584D01*
X0033627Y0060571D01*
X0033709Y0060555D01*
X0033790Y0060534D01*
X0033871Y0060510D01*
X0033949Y0060482D01*
X0034027Y0060450D01*
X0034103Y0060414D01*
X0034177Y0060375D01*
X0034249Y0060333D01*
X0034319Y0060287D01*
X0034387Y0060238D01*
X0034452Y0060186D01*
X0034515Y0060131D01*
X0034575Y0060073D01*
X0034633Y0060012D01*
X0034687Y0059948D01*
X0034739Y0059882D01*
X0034787Y0059814D01*
X0034832Y0059743D01*
X0034873Y0059670D01*
X0034912Y0059596D01*
X0034946Y0059520D01*
X0034977Y0059442D01*
X0035004Y0059363D01*
X0035028Y0059282D01*
X0035047Y0059201D01*
X0035063Y0059119D01*
X0035075Y0059036D01*
X0035083Y0058952D01*
X0035087Y0058869D01*
X0035087Y0058785D01*
X0035083Y0058702D01*
X0035075Y0058618D01*
X0035063Y0058535D01*
X0035047Y0058453D01*
X0035028Y0058372D01*
X0035004Y0058291D01*
X0034977Y0058212D01*
X0034946Y0058134D01*
X0034912Y0058058D01*
X0034873Y0057984D01*
X0034832Y0057911D01*
X0034787Y0057840D01*
X0034739Y0057772D01*
X0034687Y0057706D01*
X0034633Y0057642D01*
X0034575Y0057581D01*
X0034515Y0057523D01*
X0034452Y0057468D01*
X0034387Y0057416D01*
X0034319Y0057367D01*
X0034249Y0057321D01*
X0034177Y0057279D01*
X0034103Y0057240D01*
X0034027Y0057204D01*
X0033949Y0057172D01*
X0033871Y0057144D01*
X0033790Y0057120D01*
X0033709Y0057099D01*
X0033627Y0057083D01*
X0033545Y0057070D01*
X0033461Y0057061D01*
X0033378Y0057056D01*
X0033294Y0057055D01*
X0033210Y0057058D01*
X0033127Y0057065D01*
X0033044Y0057076D01*
X0032962Y0057091D01*
X0032880Y0057109D01*
X0032799Y0057132D01*
X0032720Y0057158D01*
X0032642Y0057188D01*
X0032565Y0057222D01*
X0032490Y0057259D01*
X0032417Y0057299D01*
X0032346Y0057344D01*
X0032277Y0057391D01*
X0032210Y0057442D01*
X0032146Y0057495D01*
X0032084Y0057552D01*
X0032026Y0057612D01*
X0031970Y0057674D01*
X0031917Y0057739D01*
X0031867Y0057806D01*
X0031820Y0057875D01*
X0031777Y0057947D01*
X0031737Y0058021D01*
X0031701Y0058096D01*
X0031668Y0058173D01*
X0031639Y0058252D01*
X0031614Y0058331D01*
X0031592Y0058412D01*
X0031575Y0058494D01*
X0031561Y0058577D01*
X0031551Y0058660D01*
X0031545Y0058743D01*
X0031543Y0058827D01*
X0031543Y0078512D02*
X0031545Y0078596D01*
X0031551Y0078679D01*
X0031561Y0078762D01*
X0031575Y0078845D01*
X0031592Y0078927D01*
X0031614Y0079008D01*
X0031639Y0079087D01*
X0031668Y0079166D01*
X0031701Y0079243D01*
X0031737Y0079318D01*
X0031777Y0079392D01*
X0031820Y0079464D01*
X0031867Y0079533D01*
X0031917Y0079600D01*
X0031970Y0079665D01*
X0032026Y0079727D01*
X0032084Y0079787D01*
X0032146Y0079844D01*
X0032210Y0079897D01*
X0032277Y0079948D01*
X0032346Y0079995D01*
X0032417Y0080040D01*
X0032490Y0080080D01*
X0032565Y0080117D01*
X0032642Y0080151D01*
X0032720Y0080181D01*
X0032799Y0080207D01*
X0032880Y0080230D01*
X0032962Y0080248D01*
X0033044Y0080263D01*
X0033127Y0080274D01*
X0033210Y0080281D01*
X0033294Y0080284D01*
X0033378Y0080283D01*
X0033461Y0080278D01*
X0033545Y0080269D01*
X0033627Y0080256D01*
X0033709Y0080240D01*
X0033790Y0080219D01*
X0033871Y0080195D01*
X0033949Y0080167D01*
X0034027Y0080135D01*
X0034103Y0080099D01*
X0034177Y0080060D01*
X0034249Y0080018D01*
X0034319Y0079972D01*
X0034387Y0079923D01*
X0034452Y0079871D01*
X0034515Y0079816D01*
X0034575Y0079758D01*
X0034633Y0079697D01*
X0034687Y0079633D01*
X0034739Y0079567D01*
X0034787Y0079499D01*
X0034832Y0079428D01*
X0034873Y0079355D01*
X0034912Y0079281D01*
X0034946Y0079205D01*
X0034977Y0079127D01*
X0035004Y0079048D01*
X0035028Y0078967D01*
X0035047Y0078886D01*
X0035063Y0078804D01*
X0035075Y0078721D01*
X0035083Y0078637D01*
X0035087Y0078554D01*
X0035087Y0078470D01*
X0035083Y0078387D01*
X0035075Y0078303D01*
X0035063Y0078220D01*
X0035047Y0078138D01*
X0035028Y0078057D01*
X0035004Y0077976D01*
X0034977Y0077897D01*
X0034946Y0077819D01*
X0034912Y0077743D01*
X0034873Y0077669D01*
X0034832Y0077596D01*
X0034787Y0077525D01*
X0034739Y0077457D01*
X0034687Y0077391D01*
X0034633Y0077327D01*
X0034575Y0077266D01*
X0034515Y0077208D01*
X0034452Y0077153D01*
X0034387Y0077101D01*
X0034319Y0077052D01*
X0034249Y0077006D01*
X0034177Y0076964D01*
X0034103Y0076925D01*
X0034027Y0076889D01*
X0033949Y0076857D01*
X0033871Y0076829D01*
X0033790Y0076805D01*
X0033709Y0076784D01*
X0033627Y0076768D01*
X0033545Y0076755D01*
X0033461Y0076746D01*
X0033378Y0076741D01*
X0033294Y0076740D01*
X0033210Y0076743D01*
X0033127Y0076750D01*
X0033044Y0076761D01*
X0032962Y0076776D01*
X0032880Y0076794D01*
X0032799Y0076817D01*
X0032720Y0076843D01*
X0032642Y0076873D01*
X0032565Y0076907D01*
X0032490Y0076944D01*
X0032417Y0076984D01*
X0032346Y0077029D01*
X0032277Y0077076D01*
X0032210Y0077127D01*
X0032146Y0077180D01*
X0032084Y0077237D01*
X0032026Y0077297D01*
X0031970Y0077359D01*
X0031917Y0077424D01*
X0031867Y0077491D01*
X0031820Y0077560D01*
X0031777Y0077632D01*
X0031737Y0077706D01*
X0031701Y0077781D01*
X0031668Y0077858D01*
X0031639Y0077937D01*
X0031614Y0078016D01*
X0031592Y0078097D01*
X0031575Y0078179D01*
X0031561Y0078262D01*
X0031551Y0078345D01*
X0031545Y0078428D01*
X0031543Y0078512D01*
X0032154Y0088354D02*
X0031543Y0090638D01*
X0035087Y0090638D01*
X0034476Y0088354D01*
X0031543Y0108827D02*
X0031545Y0108911D01*
X0031551Y0108994D01*
X0031561Y0109077D01*
X0031575Y0109160D01*
X0031592Y0109242D01*
X0031614Y0109323D01*
X0031639Y0109402D01*
X0031668Y0109481D01*
X0031701Y0109558D01*
X0031737Y0109633D01*
X0031777Y0109707D01*
X0031820Y0109779D01*
X0031867Y0109848D01*
X0031917Y0109915D01*
X0031970Y0109980D01*
X0032026Y0110042D01*
X0032084Y0110102D01*
X0032146Y0110159D01*
X0032210Y0110212D01*
X0032277Y0110263D01*
X0032346Y0110310D01*
X0032417Y0110355D01*
X0032490Y0110395D01*
X0032565Y0110432D01*
X0032642Y0110466D01*
X0032720Y0110496D01*
X0032799Y0110522D01*
X0032880Y0110545D01*
X0032962Y0110563D01*
X0033044Y0110578D01*
X0033127Y0110589D01*
X0033210Y0110596D01*
X0033294Y0110599D01*
X0033378Y0110598D01*
X0033461Y0110593D01*
X0033545Y0110584D01*
X0033627Y0110571D01*
X0033709Y0110555D01*
X0033790Y0110534D01*
X0033871Y0110510D01*
X0033949Y0110482D01*
X0034027Y0110450D01*
X0034103Y0110414D01*
X0034177Y0110375D01*
X0034249Y0110333D01*
X0034319Y0110287D01*
X0034387Y0110238D01*
X0034452Y0110186D01*
X0034515Y0110131D01*
X0034575Y0110073D01*
X0034633Y0110012D01*
X0034687Y0109948D01*
X0034739Y0109882D01*
X0034787Y0109814D01*
X0034832Y0109743D01*
X0034873Y0109670D01*
X0034912Y0109596D01*
X0034946Y0109520D01*
X0034977Y0109442D01*
X0035004Y0109363D01*
X0035028Y0109282D01*
X0035047Y0109201D01*
X0035063Y0109119D01*
X0035075Y0109036D01*
X0035083Y0108952D01*
X0035087Y0108869D01*
X0035087Y0108785D01*
X0035083Y0108702D01*
X0035075Y0108618D01*
X0035063Y0108535D01*
X0035047Y0108453D01*
X0035028Y0108372D01*
X0035004Y0108291D01*
X0034977Y0108212D01*
X0034946Y0108134D01*
X0034912Y0108058D01*
X0034873Y0107984D01*
X0034832Y0107911D01*
X0034787Y0107840D01*
X0034739Y0107772D01*
X0034687Y0107706D01*
X0034633Y0107642D01*
X0034575Y0107581D01*
X0034515Y0107523D01*
X0034452Y0107468D01*
X0034387Y0107416D01*
X0034319Y0107367D01*
X0034249Y0107321D01*
X0034177Y0107279D01*
X0034103Y0107240D01*
X0034027Y0107204D01*
X0033949Y0107172D01*
X0033871Y0107144D01*
X0033790Y0107120D01*
X0033709Y0107099D01*
X0033627Y0107083D01*
X0033545Y0107070D01*
X0033461Y0107061D01*
X0033378Y0107056D01*
X0033294Y0107055D01*
X0033210Y0107058D01*
X0033127Y0107065D01*
X0033044Y0107076D01*
X0032962Y0107091D01*
X0032880Y0107109D01*
X0032799Y0107132D01*
X0032720Y0107158D01*
X0032642Y0107188D01*
X0032565Y0107222D01*
X0032490Y0107259D01*
X0032417Y0107299D01*
X0032346Y0107344D01*
X0032277Y0107391D01*
X0032210Y0107442D01*
X0032146Y0107495D01*
X0032084Y0107552D01*
X0032026Y0107612D01*
X0031970Y0107674D01*
X0031917Y0107739D01*
X0031867Y0107806D01*
X0031820Y0107875D01*
X0031777Y0107947D01*
X0031737Y0108021D01*
X0031701Y0108096D01*
X0031668Y0108173D01*
X0031639Y0108252D01*
X0031614Y0108331D01*
X0031592Y0108412D01*
X0031575Y0108494D01*
X0031561Y0108577D01*
X0031551Y0108660D01*
X0031545Y0108743D01*
X0031543Y0108827D01*
X0031543Y0128512D02*
X0031545Y0128596D01*
X0031551Y0128679D01*
X0031561Y0128762D01*
X0031575Y0128845D01*
X0031592Y0128927D01*
X0031614Y0129008D01*
X0031639Y0129087D01*
X0031668Y0129166D01*
X0031701Y0129243D01*
X0031737Y0129318D01*
X0031777Y0129392D01*
X0031820Y0129464D01*
X0031867Y0129533D01*
X0031917Y0129600D01*
X0031970Y0129665D01*
X0032026Y0129727D01*
X0032084Y0129787D01*
X0032146Y0129844D01*
X0032210Y0129897D01*
X0032277Y0129948D01*
X0032346Y0129995D01*
X0032417Y0130040D01*
X0032490Y0130080D01*
X0032565Y0130117D01*
X0032642Y0130151D01*
X0032720Y0130181D01*
X0032799Y0130207D01*
X0032880Y0130230D01*
X0032962Y0130248D01*
X0033044Y0130263D01*
X0033127Y0130274D01*
X0033210Y0130281D01*
X0033294Y0130284D01*
X0033378Y0130283D01*
X0033461Y0130278D01*
X0033545Y0130269D01*
X0033627Y0130256D01*
X0033709Y0130240D01*
X0033790Y0130219D01*
X0033871Y0130195D01*
X0033949Y0130167D01*
X0034027Y0130135D01*
X0034103Y0130099D01*
X0034177Y0130060D01*
X0034249Y0130018D01*
X0034319Y0129972D01*
X0034387Y0129923D01*
X0034452Y0129871D01*
X0034515Y0129816D01*
X0034575Y0129758D01*
X0034633Y0129697D01*
X0034687Y0129633D01*
X0034739Y0129567D01*
X0034787Y0129499D01*
X0034832Y0129428D01*
X0034873Y0129355D01*
X0034912Y0129281D01*
X0034946Y0129205D01*
X0034977Y0129127D01*
X0035004Y0129048D01*
X0035028Y0128967D01*
X0035047Y0128886D01*
X0035063Y0128804D01*
X0035075Y0128721D01*
X0035083Y0128637D01*
X0035087Y0128554D01*
X0035087Y0128470D01*
X0035083Y0128387D01*
X0035075Y0128303D01*
X0035063Y0128220D01*
X0035047Y0128138D01*
X0035028Y0128057D01*
X0035004Y0127976D01*
X0034977Y0127897D01*
X0034946Y0127819D01*
X0034912Y0127743D01*
X0034873Y0127669D01*
X0034832Y0127596D01*
X0034787Y0127525D01*
X0034739Y0127457D01*
X0034687Y0127391D01*
X0034633Y0127327D01*
X0034575Y0127266D01*
X0034515Y0127208D01*
X0034452Y0127153D01*
X0034387Y0127101D01*
X0034319Y0127052D01*
X0034249Y0127006D01*
X0034177Y0126964D01*
X0034103Y0126925D01*
X0034027Y0126889D01*
X0033949Y0126857D01*
X0033871Y0126829D01*
X0033790Y0126805D01*
X0033709Y0126784D01*
X0033627Y0126768D01*
X0033545Y0126755D01*
X0033461Y0126746D01*
X0033378Y0126741D01*
X0033294Y0126740D01*
X0033210Y0126743D01*
X0033127Y0126750D01*
X0033044Y0126761D01*
X0032962Y0126776D01*
X0032880Y0126794D01*
X0032799Y0126817D01*
X0032720Y0126843D01*
X0032642Y0126873D01*
X0032565Y0126907D01*
X0032490Y0126944D01*
X0032417Y0126984D01*
X0032346Y0127029D01*
X0032277Y0127076D01*
X0032210Y0127127D01*
X0032146Y0127180D01*
X0032084Y0127237D01*
X0032026Y0127297D01*
X0031970Y0127359D01*
X0031917Y0127424D01*
X0031867Y0127491D01*
X0031820Y0127560D01*
X0031777Y0127632D01*
X0031737Y0127706D01*
X0031701Y0127781D01*
X0031668Y0127858D01*
X0031639Y0127937D01*
X0031614Y0128016D01*
X0031592Y0128097D01*
X0031575Y0128179D01*
X0031561Y0128262D01*
X0031551Y0128345D01*
X0031545Y0128428D01*
X0031543Y0128512D01*
X0032154Y0138354D02*
X0031543Y0140638D01*
X0035087Y0140638D01*
X0034476Y0138354D01*
X0147252Y0198984D02*
X0147254Y0199068D01*
X0147260Y0199151D01*
X0147270Y0199234D01*
X0147284Y0199317D01*
X0147301Y0199399D01*
X0147323Y0199480D01*
X0147348Y0199559D01*
X0147377Y0199638D01*
X0147410Y0199715D01*
X0147446Y0199790D01*
X0147486Y0199864D01*
X0147529Y0199936D01*
X0147576Y0200005D01*
X0147626Y0200072D01*
X0147679Y0200137D01*
X0147735Y0200199D01*
X0147793Y0200259D01*
X0147855Y0200316D01*
X0147919Y0200369D01*
X0147986Y0200420D01*
X0148055Y0200467D01*
X0148126Y0200512D01*
X0148199Y0200552D01*
X0148274Y0200589D01*
X0148351Y0200623D01*
X0148429Y0200653D01*
X0148508Y0200679D01*
X0148589Y0200702D01*
X0148671Y0200720D01*
X0148753Y0200735D01*
X0148836Y0200746D01*
X0148919Y0200753D01*
X0149003Y0200756D01*
X0149087Y0200755D01*
X0149170Y0200750D01*
X0149254Y0200741D01*
X0149336Y0200728D01*
X0149418Y0200712D01*
X0149499Y0200691D01*
X0149580Y0200667D01*
X0149658Y0200639D01*
X0149736Y0200607D01*
X0149812Y0200571D01*
X0149886Y0200532D01*
X0149958Y0200490D01*
X0150028Y0200444D01*
X0150096Y0200395D01*
X0150161Y0200343D01*
X0150224Y0200288D01*
X0150284Y0200230D01*
X0150342Y0200169D01*
X0150396Y0200105D01*
X0150448Y0200039D01*
X0150496Y0199971D01*
X0150541Y0199900D01*
X0150582Y0199827D01*
X0150621Y0199753D01*
X0150655Y0199677D01*
X0150686Y0199599D01*
X0150713Y0199520D01*
X0150737Y0199439D01*
X0150756Y0199358D01*
X0150772Y0199276D01*
X0150784Y0199193D01*
X0150792Y0199109D01*
X0150796Y0199026D01*
X0150796Y0198942D01*
X0150792Y0198859D01*
X0150784Y0198775D01*
X0150772Y0198692D01*
X0150756Y0198610D01*
X0150737Y0198529D01*
X0150713Y0198448D01*
X0150686Y0198369D01*
X0150655Y0198291D01*
X0150621Y0198215D01*
X0150582Y0198141D01*
X0150541Y0198068D01*
X0150496Y0197997D01*
X0150448Y0197929D01*
X0150396Y0197863D01*
X0150342Y0197799D01*
X0150284Y0197738D01*
X0150224Y0197680D01*
X0150161Y0197625D01*
X0150096Y0197573D01*
X0150028Y0197524D01*
X0149958Y0197478D01*
X0149886Y0197436D01*
X0149812Y0197397D01*
X0149736Y0197361D01*
X0149658Y0197329D01*
X0149580Y0197301D01*
X0149499Y0197277D01*
X0149418Y0197256D01*
X0149336Y0197240D01*
X0149254Y0197227D01*
X0149170Y0197218D01*
X0149087Y0197213D01*
X0149003Y0197212D01*
X0148919Y0197215D01*
X0148836Y0197222D01*
X0148753Y0197233D01*
X0148671Y0197248D01*
X0148589Y0197266D01*
X0148508Y0197289D01*
X0148429Y0197315D01*
X0148351Y0197345D01*
X0148274Y0197379D01*
X0148199Y0197416D01*
X0148126Y0197456D01*
X0148055Y0197501D01*
X0147986Y0197548D01*
X0147919Y0197599D01*
X0147855Y0197652D01*
X0147793Y0197709D01*
X0147735Y0197769D01*
X0147679Y0197831D01*
X0147626Y0197896D01*
X0147576Y0197963D01*
X0147529Y0198032D01*
X0147486Y0198104D01*
X0147446Y0198178D01*
X0147410Y0198253D01*
X0147377Y0198330D01*
X0147348Y0198409D01*
X0147323Y0198488D01*
X0147301Y0198569D01*
X0147284Y0198651D01*
X0147270Y0198734D01*
X0147260Y0198817D01*
X0147254Y0198900D01*
X0147252Y0198984D01*
X0147252Y0218669D02*
X0147254Y0218753D01*
X0147260Y0218836D01*
X0147270Y0218919D01*
X0147284Y0219002D01*
X0147301Y0219084D01*
X0147323Y0219165D01*
X0147348Y0219244D01*
X0147377Y0219323D01*
X0147410Y0219400D01*
X0147446Y0219475D01*
X0147486Y0219549D01*
X0147529Y0219621D01*
X0147576Y0219690D01*
X0147626Y0219757D01*
X0147679Y0219822D01*
X0147735Y0219884D01*
X0147793Y0219944D01*
X0147855Y0220001D01*
X0147919Y0220054D01*
X0147986Y0220105D01*
X0148055Y0220152D01*
X0148126Y0220197D01*
X0148199Y0220237D01*
X0148274Y0220274D01*
X0148351Y0220308D01*
X0148429Y0220338D01*
X0148508Y0220364D01*
X0148589Y0220387D01*
X0148671Y0220405D01*
X0148753Y0220420D01*
X0148836Y0220431D01*
X0148919Y0220438D01*
X0149003Y0220441D01*
X0149087Y0220440D01*
X0149170Y0220435D01*
X0149254Y0220426D01*
X0149336Y0220413D01*
X0149418Y0220397D01*
X0149499Y0220376D01*
X0149580Y0220352D01*
X0149658Y0220324D01*
X0149736Y0220292D01*
X0149812Y0220256D01*
X0149886Y0220217D01*
X0149958Y0220175D01*
X0150028Y0220129D01*
X0150096Y0220080D01*
X0150161Y0220028D01*
X0150224Y0219973D01*
X0150284Y0219915D01*
X0150342Y0219854D01*
X0150396Y0219790D01*
X0150448Y0219724D01*
X0150496Y0219656D01*
X0150541Y0219585D01*
X0150582Y0219512D01*
X0150621Y0219438D01*
X0150655Y0219362D01*
X0150686Y0219284D01*
X0150713Y0219205D01*
X0150737Y0219124D01*
X0150756Y0219043D01*
X0150772Y0218961D01*
X0150784Y0218878D01*
X0150792Y0218794D01*
X0150796Y0218711D01*
X0150796Y0218627D01*
X0150792Y0218544D01*
X0150784Y0218460D01*
X0150772Y0218377D01*
X0150756Y0218295D01*
X0150737Y0218214D01*
X0150713Y0218133D01*
X0150686Y0218054D01*
X0150655Y0217976D01*
X0150621Y0217900D01*
X0150582Y0217826D01*
X0150541Y0217753D01*
X0150496Y0217682D01*
X0150448Y0217614D01*
X0150396Y0217548D01*
X0150342Y0217484D01*
X0150284Y0217423D01*
X0150224Y0217365D01*
X0150161Y0217310D01*
X0150096Y0217258D01*
X0150028Y0217209D01*
X0149958Y0217163D01*
X0149886Y0217121D01*
X0149812Y0217082D01*
X0149736Y0217046D01*
X0149658Y0217014D01*
X0149580Y0216986D01*
X0149499Y0216962D01*
X0149418Y0216941D01*
X0149336Y0216925D01*
X0149254Y0216912D01*
X0149170Y0216903D01*
X0149087Y0216898D01*
X0149003Y0216897D01*
X0148919Y0216900D01*
X0148836Y0216907D01*
X0148753Y0216918D01*
X0148671Y0216933D01*
X0148589Y0216951D01*
X0148508Y0216974D01*
X0148429Y0217000D01*
X0148351Y0217030D01*
X0148274Y0217064D01*
X0148199Y0217101D01*
X0148126Y0217141D01*
X0148055Y0217186D01*
X0147986Y0217233D01*
X0147919Y0217284D01*
X0147855Y0217337D01*
X0147793Y0217394D01*
X0147735Y0217454D01*
X0147679Y0217516D01*
X0147626Y0217581D01*
X0147576Y0217648D01*
X0147529Y0217717D01*
X0147486Y0217789D01*
X0147446Y0217863D01*
X0147410Y0217938D01*
X0147377Y0218015D01*
X0147348Y0218094D01*
X0147323Y0218173D01*
X0147301Y0218254D01*
X0147284Y0218336D01*
X0147270Y0218419D01*
X0147260Y0218502D01*
X0147254Y0218585D01*
X0147252Y0218669D01*
X0147252Y0238354D02*
X0147254Y0238438D01*
X0147260Y0238521D01*
X0147270Y0238604D01*
X0147284Y0238687D01*
X0147301Y0238769D01*
X0147323Y0238850D01*
X0147348Y0238929D01*
X0147377Y0239008D01*
X0147410Y0239085D01*
X0147446Y0239160D01*
X0147486Y0239234D01*
X0147529Y0239306D01*
X0147576Y0239375D01*
X0147626Y0239442D01*
X0147679Y0239507D01*
X0147735Y0239569D01*
X0147793Y0239629D01*
X0147855Y0239686D01*
X0147919Y0239739D01*
X0147986Y0239790D01*
X0148055Y0239837D01*
X0148126Y0239882D01*
X0148199Y0239922D01*
X0148274Y0239959D01*
X0148351Y0239993D01*
X0148429Y0240023D01*
X0148508Y0240049D01*
X0148589Y0240072D01*
X0148671Y0240090D01*
X0148753Y0240105D01*
X0148836Y0240116D01*
X0148919Y0240123D01*
X0149003Y0240126D01*
X0149087Y0240125D01*
X0149170Y0240120D01*
X0149254Y0240111D01*
X0149336Y0240098D01*
X0149418Y0240082D01*
X0149499Y0240061D01*
X0149580Y0240037D01*
X0149658Y0240009D01*
X0149736Y0239977D01*
X0149812Y0239941D01*
X0149886Y0239902D01*
X0149958Y0239860D01*
X0150028Y0239814D01*
X0150096Y0239765D01*
X0150161Y0239713D01*
X0150224Y0239658D01*
X0150284Y0239600D01*
X0150342Y0239539D01*
X0150396Y0239475D01*
X0150448Y0239409D01*
X0150496Y0239341D01*
X0150541Y0239270D01*
X0150582Y0239197D01*
X0150621Y0239123D01*
X0150655Y0239047D01*
X0150686Y0238969D01*
X0150713Y0238890D01*
X0150737Y0238809D01*
X0150756Y0238728D01*
X0150772Y0238646D01*
X0150784Y0238563D01*
X0150792Y0238479D01*
X0150796Y0238396D01*
X0150796Y0238312D01*
X0150792Y0238229D01*
X0150784Y0238145D01*
X0150772Y0238062D01*
X0150756Y0237980D01*
X0150737Y0237899D01*
X0150713Y0237818D01*
X0150686Y0237739D01*
X0150655Y0237661D01*
X0150621Y0237585D01*
X0150582Y0237511D01*
X0150541Y0237438D01*
X0150496Y0237367D01*
X0150448Y0237299D01*
X0150396Y0237233D01*
X0150342Y0237169D01*
X0150284Y0237108D01*
X0150224Y0237050D01*
X0150161Y0236995D01*
X0150096Y0236943D01*
X0150028Y0236894D01*
X0149958Y0236848D01*
X0149886Y0236806D01*
X0149812Y0236767D01*
X0149736Y0236731D01*
X0149658Y0236699D01*
X0149580Y0236671D01*
X0149499Y0236647D01*
X0149418Y0236626D01*
X0149336Y0236610D01*
X0149254Y0236597D01*
X0149170Y0236588D01*
X0149087Y0236583D01*
X0149003Y0236582D01*
X0148919Y0236585D01*
X0148836Y0236592D01*
X0148753Y0236603D01*
X0148671Y0236618D01*
X0148589Y0236636D01*
X0148508Y0236659D01*
X0148429Y0236685D01*
X0148351Y0236715D01*
X0148274Y0236749D01*
X0148199Y0236786D01*
X0148126Y0236826D01*
X0148055Y0236871D01*
X0147986Y0236918D01*
X0147919Y0236969D01*
X0147855Y0237022D01*
X0147793Y0237079D01*
X0147735Y0237139D01*
X0147679Y0237201D01*
X0147626Y0237266D01*
X0147576Y0237333D01*
X0147529Y0237402D01*
X0147486Y0237474D01*
X0147446Y0237548D01*
X0147410Y0237623D01*
X0147377Y0237700D01*
X0147348Y0237779D01*
X0147323Y0237858D01*
X0147301Y0237939D01*
X0147284Y0238021D01*
X0147270Y0238104D01*
X0147260Y0238187D01*
X0147254Y0238270D01*
X0147252Y0238354D01*
D12*
X0174589Y0237886D02*
X0179089Y0237886D01*
X0179089Y0236636D02*
X0179089Y0239136D01*
X0175589Y0236636D02*
X0174589Y0237886D01*
X0179089Y0179136D02*
X0179089Y0176636D01*
X0179089Y0177886D02*
X0174589Y0177886D01*
X0175589Y0176636D01*
X0179089Y0119136D02*
X0179089Y0116636D01*
X0179089Y0117886D02*
X0174589Y0117886D01*
X0175589Y0116636D01*
X0179089Y0059136D02*
X0179089Y0056636D01*
X0179089Y0057886D02*
X0174589Y0057886D01*
X0175589Y0056636D01*
X0124136Y0003250D02*
X0121636Y0003250D01*
X0122886Y0003250D02*
X0122886Y0007750D01*
X0121636Y0006750D01*
X0007750Y0058045D02*
X0007750Y0060545D01*
X0007750Y0059295D02*
X0003250Y0059295D01*
X0004250Y0058045D01*
X0004250Y0108045D02*
X0003250Y0109295D01*
X0007750Y0109295D01*
X0007750Y0108045D02*
X0007750Y0110545D01*
X0124589Y0168043D02*
X0125589Y0166793D01*
X0124589Y0168043D02*
X0129089Y0168043D01*
X0129089Y0166793D02*
X0129089Y0169293D01*
M02*
