%
M48
M72
T01C0.04000
T02C0.05512
%
T01
X18669Y23669
X28669Y23669
X38669Y23669
X58669Y58669
X58669Y68669
X68669Y68669
X68669Y58669
X78669Y58669
X78669Y68669
X88669Y68669
X88669Y58669
X98669Y58669
X98669Y68669
X108669Y68669
X108669Y58669
X118669Y58669
X118669Y68669
X128669Y68669
X128669Y58669
T02
X123354Y21898
X103669Y21898
X83984Y21898
X21898Y58827
X21898Y78512
X21898Y108827
X21898Y128512
X110441Y148827
X110441Y168512
X160441Y178354
X160441Y158669
X160441Y138984
X160441Y118354
X160441Y98669
X160441Y78984
X160441Y58354
X160441Y38669
X160441Y18984
X160441Y198984
X160441Y218669
X160441Y238354
M30
