G75*
%MOIN*%
%OFA0B0*%
%FSLAX25Y25*%
%IPPOS*%
%LPD*%
%AMOC8*
5,1,8,0,0,1.08239X$1,22.5*
%
%ADD10C,0.00600*%
%ADD11C,0.00800*%
%ADD12C,0.01000*%
%ADD13C,0.00500*%
%ADD14C,0.00700*%
D10*
X0056000Y0013500D02*
X0056000Y0018500D01*
X0058500Y0021000D01*
X0063500Y0021000D01*
X0066000Y0018500D01*
X0068500Y0021000D01*
X0073500Y0021000D01*
X0076000Y0018500D01*
X0078500Y0021000D01*
X0083500Y0021000D01*
X0086000Y0018500D01*
X0088500Y0021000D01*
X0093500Y0021000D01*
X0096000Y0018500D01*
X0096000Y0013500D01*
X0093500Y0011000D01*
X0088500Y0011000D01*
X0086000Y0013500D01*
X0083500Y0011000D01*
X0078500Y0011000D01*
X0076000Y0013500D01*
X0076000Y0018500D01*
X0066000Y0018500D02*
X0066000Y0013500D01*
X0063500Y0011000D01*
X0058500Y0011000D01*
X0056000Y0013500D01*
X0066000Y0013500D02*
X0068500Y0011000D01*
X0073500Y0011000D01*
X0076000Y0013500D01*
X0086000Y0013500D02*
X0086000Y0018500D01*
X0086000Y0026500D02*
X0084500Y0026500D01*
X0086000Y0026500D02*
X0086500Y0027000D01*
X0105500Y0027000D01*
X0106000Y0026500D01*
X0107500Y0026500D01*
X0107560Y0026502D01*
X0107621Y0026507D01*
X0107680Y0026516D01*
X0107739Y0026529D01*
X0107798Y0026545D01*
X0107855Y0026565D01*
X0107910Y0026588D01*
X0107965Y0026615D01*
X0108017Y0026644D01*
X0108068Y0026677D01*
X0108117Y0026713D01*
X0108163Y0026751D01*
X0108207Y0026793D01*
X0108249Y0026837D01*
X0108287Y0026883D01*
X0108323Y0026932D01*
X0108356Y0026983D01*
X0108385Y0027035D01*
X0108412Y0027090D01*
X0108435Y0027145D01*
X0108455Y0027202D01*
X0108471Y0027261D01*
X0108484Y0027320D01*
X0108493Y0027379D01*
X0108498Y0027440D01*
X0108500Y0027500D01*
X0108500Y0034500D02*
X0108498Y0034560D01*
X0108493Y0034621D01*
X0108484Y0034680D01*
X0108471Y0034739D01*
X0108455Y0034798D01*
X0108435Y0034855D01*
X0108412Y0034910D01*
X0108385Y0034965D01*
X0108356Y0035017D01*
X0108323Y0035068D01*
X0108287Y0035117D01*
X0108249Y0035163D01*
X0108207Y0035207D01*
X0108163Y0035249D01*
X0108117Y0035287D01*
X0108068Y0035323D01*
X0108017Y0035356D01*
X0107965Y0035385D01*
X0107910Y0035412D01*
X0107855Y0035435D01*
X0107798Y0035455D01*
X0107739Y0035471D01*
X0107680Y0035484D01*
X0107621Y0035493D01*
X0107560Y0035498D01*
X0107500Y0035500D01*
X0106000Y0035500D01*
X0105500Y0035000D01*
X0086500Y0035000D01*
X0086000Y0035500D01*
X0084500Y0035500D01*
X0084440Y0035498D01*
X0084379Y0035493D01*
X0084320Y0035484D01*
X0084261Y0035471D01*
X0084202Y0035455D01*
X0084145Y0035435D01*
X0084090Y0035412D01*
X0084035Y0035385D01*
X0083983Y0035356D01*
X0083932Y0035323D01*
X0083883Y0035287D01*
X0083837Y0035249D01*
X0083793Y0035207D01*
X0083751Y0035163D01*
X0083713Y0035117D01*
X0083677Y0035068D01*
X0083644Y0035017D01*
X0083615Y0034965D01*
X0083588Y0034910D01*
X0083565Y0034855D01*
X0083545Y0034798D01*
X0083529Y0034739D01*
X0083516Y0034680D01*
X0083507Y0034621D01*
X0083502Y0034560D01*
X0083500Y0034500D01*
X0068500Y0034500D02*
X0068498Y0034560D01*
X0068493Y0034621D01*
X0068484Y0034680D01*
X0068471Y0034739D01*
X0068455Y0034798D01*
X0068435Y0034855D01*
X0068412Y0034910D01*
X0068385Y0034965D01*
X0068356Y0035017D01*
X0068323Y0035068D01*
X0068287Y0035117D01*
X0068249Y0035163D01*
X0068207Y0035207D01*
X0068163Y0035249D01*
X0068117Y0035287D01*
X0068068Y0035323D01*
X0068017Y0035356D01*
X0067965Y0035385D01*
X0067910Y0035412D01*
X0067855Y0035435D01*
X0067798Y0035455D01*
X0067739Y0035471D01*
X0067680Y0035484D01*
X0067621Y0035493D01*
X0067560Y0035498D01*
X0067500Y0035500D01*
X0066000Y0035500D01*
X0065500Y0035000D01*
X0046500Y0035000D01*
X0046000Y0035500D01*
X0044500Y0035500D01*
X0044440Y0035498D01*
X0044379Y0035493D01*
X0044320Y0035484D01*
X0044261Y0035471D01*
X0044202Y0035455D01*
X0044145Y0035435D01*
X0044090Y0035412D01*
X0044035Y0035385D01*
X0043983Y0035356D01*
X0043932Y0035323D01*
X0043883Y0035287D01*
X0043837Y0035249D01*
X0043793Y0035207D01*
X0043751Y0035163D01*
X0043713Y0035117D01*
X0043677Y0035068D01*
X0043644Y0035017D01*
X0043615Y0034965D01*
X0043588Y0034910D01*
X0043565Y0034855D01*
X0043545Y0034798D01*
X0043529Y0034739D01*
X0043516Y0034680D01*
X0043507Y0034621D01*
X0043502Y0034560D01*
X0043500Y0034500D01*
X0043500Y0027500D02*
X0043502Y0027440D01*
X0043507Y0027379D01*
X0043516Y0027320D01*
X0043529Y0027261D01*
X0043545Y0027202D01*
X0043565Y0027145D01*
X0043588Y0027090D01*
X0043615Y0027035D01*
X0043644Y0026983D01*
X0043677Y0026932D01*
X0043713Y0026883D01*
X0043751Y0026837D01*
X0043793Y0026793D01*
X0043837Y0026751D01*
X0043883Y0026713D01*
X0043932Y0026677D01*
X0043983Y0026644D01*
X0044035Y0026615D01*
X0044090Y0026588D01*
X0044145Y0026565D01*
X0044202Y0026545D01*
X0044261Y0026529D01*
X0044320Y0026516D01*
X0044379Y0026507D01*
X0044440Y0026502D01*
X0044500Y0026500D01*
X0046000Y0026500D01*
X0046500Y0027000D01*
X0065500Y0027000D01*
X0066000Y0026500D01*
X0067500Y0026500D01*
X0067560Y0026502D01*
X0067621Y0026507D01*
X0067680Y0026516D01*
X0067739Y0026529D01*
X0067798Y0026545D01*
X0067855Y0026565D01*
X0067910Y0026588D01*
X0067965Y0026615D01*
X0068017Y0026644D01*
X0068068Y0026677D01*
X0068117Y0026713D01*
X0068163Y0026751D01*
X0068207Y0026793D01*
X0068249Y0026837D01*
X0068287Y0026883D01*
X0068323Y0026932D01*
X0068356Y0026983D01*
X0068385Y0027035D01*
X0068412Y0027090D01*
X0068435Y0027145D01*
X0068455Y0027202D01*
X0068471Y0027261D01*
X0068484Y0027320D01*
X0068493Y0027379D01*
X0068498Y0027440D01*
X0068500Y0027500D01*
X0083500Y0027500D02*
X0083502Y0027440D01*
X0083507Y0027379D01*
X0083516Y0027320D01*
X0083529Y0027261D01*
X0083545Y0027202D01*
X0083565Y0027145D01*
X0083588Y0027090D01*
X0083615Y0027035D01*
X0083644Y0026983D01*
X0083677Y0026932D01*
X0083713Y0026883D01*
X0083751Y0026837D01*
X0083793Y0026793D01*
X0083837Y0026751D01*
X0083883Y0026713D01*
X0083932Y0026677D01*
X0083983Y0026644D01*
X0084035Y0026615D01*
X0084090Y0026588D01*
X0084145Y0026565D01*
X0084202Y0026545D01*
X0084261Y0026529D01*
X0084320Y0026516D01*
X0084379Y0026507D01*
X0084440Y0026502D01*
X0084500Y0026500D01*
X0121000Y0031000D02*
X0121003Y0031245D01*
X0121012Y0031491D01*
X0121027Y0031736D01*
X0121048Y0031980D01*
X0121075Y0032224D01*
X0121108Y0032467D01*
X0121147Y0032710D01*
X0121192Y0032951D01*
X0121243Y0033191D01*
X0121300Y0033430D01*
X0121362Y0033667D01*
X0121431Y0033903D01*
X0121505Y0034137D01*
X0121585Y0034369D01*
X0121670Y0034599D01*
X0121761Y0034827D01*
X0121858Y0035052D01*
X0121960Y0035276D01*
X0122068Y0035496D01*
X0122181Y0035714D01*
X0122299Y0035929D01*
X0122423Y0036141D01*
X0122551Y0036350D01*
X0122685Y0036556D01*
X0122824Y0036758D01*
X0122968Y0036957D01*
X0123117Y0037152D01*
X0123270Y0037344D01*
X0123428Y0037532D01*
X0123590Y0037716D01*
X0123758Y0037895D01*
X0123929Y0038071D01*
X0124105Y0038242D01*
X0124284Y0038410D01*
X0124468Y0038572D01*
X0124656Y0038730D01*
X0124848Y0038883D01*
X0125043Y0039032D01*
X0125242Y0039176D01*
X0125444Y0039315D01*
X0125650Y0039449D01*
X0125859Y0039577D01*
X0126071Y0039701D01*
X0126286Y0039819D01*
X0126504Y0039932D01*
X0126724Y0040040D01*
X0126948Y0040142D01*
X0127173Y0040239D01*
X0127401Y0040330D01*
X0127631Y0040415D01*
X0127863Y0040495D01*
X0128097Y0040569D01*
X0128333Y0040638D01*
X0128570Y0040700D01*
X0128809Y0040757D01*
X0129049Y0040808D01*
X0129290Y0040853D01*
X0129533Y0040892D01*
X0129776Y0040925D01*
X0130020Y0040952D01*
X0130264Y0040973D01*
X0130509Y0040988D01*
X0130755Y0040997D01*
X0131000Y0041000D01*
X0131245Y0040997D01*
X0131491Y0040988D01*
X0131736Y0040973D01*
X0131980Y0040952D01*
X0132224Y0040925D01*
X0132467Y0040892D01*
X0132710Y0040853D01*
X0132951Y0040808D01*
X0133191Y0040757D01*
X0133430Y0040700D01*
X0133667Y0040638D01*
X0133903Y0040569D01*
X0134137Y0040495D01*
X0134369Y0040415D01*
X0134599Y0040330D01*
X0134827Y0040239D01*
X0135052Y0040142D01*
X0135276Y0040040D01*
X0135496Y0039932D01*
X0135714Y0039819D01*
X0135929Y0039701D01*
X0136141Y0039577D01*
X0136350Y0039449D01*
X0136556Y0039315D01*
X0136758Y0039176D01*
X0136957Y0039032D01*
X0137152Y0038883D01*
X0137344Y0038730D01*
X0137532Y0038572D01*
X0137716Y0038410D01*
X0137895Y0038242D01*
X0138071Y0038071D01*
X0138242Y0037895D01*
X0138410Y0037716D01*
X0138572Y0037532D01*
X0138730Y0037344D01*
X0138883Y0037152D01*
X0139032Y0036957D01*
X0139176Y0036758D01*
X0139315Y0036556D01*
X0139449Y0036350D01*
X0139577Y0036141D01*
X0139701Y0035929D01*
X0139819Y0035714D01*
X0139932Y0035496D01*
X0140040Y0035276D01*
X0140142Y0035052D01*
X0140239Y0034827D01*
X0140330Y0034599D01*
X0140415Y0034369D01*
X0140495Y0034137D01*
X0140569Y0033903D01*
X0140638Y0033667D01*
X0140700Y0033430D01*
X0140757Y0033191D01*
X0140808Y0032951D01*
X0140853Y0032710D01*
X0140892Y0032467D01*
X0140925Y0032224D01*
X0140952Y0031980D01*
X0140973Y0031736D01*
X0140988Y0031491D01*
X0140997Y0031245D01*
X0141000Y0031000D01*
X0140997Y0030755D01*
X0140988Y0030509D01*
X0140973Y0030264D01*
X0140952Y0030020D01*
X0140925Y0029776D01*
X0140892Y0029533D01*
X0140853Y0029290D01*
X0140808Y0029049D01*
X0140757Y0028809D01*
X0140700Y0028570D01*
X0140638Y0028333D01*
X0140569Y0028097D01*
X0140495Y0027863D01*
X0140415Y0027631D01*
X0140330Y0027401D01*
X0140239Y0027173D01*
X0140142Y0026948D01*
X0140040Y0026724D01*
X0139932Y0026504D01*
X0139819Y0026286D01*
X0139701Y0026071D01*
X0139577Y0025859D01*
X0139449Y0025650D01*
X0139315Y0025444D01*
X0139176Y0025242D01*
X0139032Y0025043D01*
X0138883Y0024848D01*
X0138730Y0024656D01*
X0138572Y0024468D01*
X0138410Y0024284D01*
X0138242Y0024105D01*
X0138071Y0023929D01*
X0137895Y0023758D01*
X0137716Y0023590D01*
X0137532Y0023428D01*
X0137344Y0023270D01*
X0137152Y0023117D01*
X0136957Y0022968D01*
X0136758Y0022824D01*
X0136556Y0022685D01*
X0136350Y0022551D01*
X0136141Y0022423D01*
X0135929Y0022299D01*
X0135714Y0022181D01*
X0135496Y0022068D01*
X0135276Y0021960D01*
X0135052Y0021858D01*
X0134827Y0021761D01*
X0134599Y0021670D01*
X0134369Y0021585D01*
X0134137Y0021505D01*
X0133903Y0021431D01*
X0133667Y0021362D01*
X0133430Y0021300D01*
X0133191Y0021243D01*
X0132951Y0021192D01*
X0132710Y0021147D01*
X0132467Y0021108D01*
X0132224Y0021075D01*
X0131980Y0021048D01*
X0131736Y0021027D01*
X0131491Y0021012D01*
X0131245Y0021003D01*
X0131000Y0021000D01*
X0130755Y0021003D01*
X0130509Y0021012D01*
X0130264Y0021027D01*
X0130020Y0021048D01*
X0129776Y0021075D01*
X0129533Y0021108D01*
X0129290Y0021147D01*
X0129049Y0021192D01*
X0128809Y0021243D01*
X0128570Y0021300D01*
X0128333Y0021362D01*
X0128097Y0021431D01*
X0127863Y0021505D01*
X0127631Y0021585D01*
X0127401Y0021670D01*
X0127173Y0021761D01*
X0126948Y0021858D01*
X0126724Y0021960D01*
X0126504Y0022068D01*
X0126286Y0022181D01*
X0126071Y0022299D01*
X0125859Y0022423D01*
X0125650Y0022551D01*
X0125444Y0022685D01*
X0125242Y0022824D01*
X0125043Y0022968D01*
X0124848Y0023117D01*
X0124656Y0023270D01*
X0124468Y0023428D01*
X0124284Y0023590D01*
X0124105Y0023758D01*
X0123929Y0023929D01*
X0123758Y0024105D01*
X0123590Y0024284D01*
X0123428Y0024468D01*
X0123270Y0024656D01*
X0123117Y0024848D01*
X0122968Y0025043D01*
X0122824Y0025242D01*
X0122685Y0025444D01*
X0122551Y0025650D01*
X0122423Y0025859D01*
X0122299Y0026071D01*
X0122181Y0026286D01*
X0122068Y0026504D01*
X0121960Y0026724D01*
X0121858Y0026948D01*
X0121761Y0027173D01*
X0121670Y0027401D01*
X0121585Y0027631D01*
X0121505Y0027863D01*
X0121431Y0028097D01*
X0121362Y0028333D01*
X0121300Y0028570D01*
X0121243Y0028809D01*
X0121192Y0029049D01*
X0121147Y0029290D01*
X0121108Y0029533D01*
X0121075Y0029776D01*
X0121048Y0030020D01*
X0121027Y0030264D01*
X0121012Y0030509D01*
X0121003Y0030755D01*
X0121000Y0031000D01*
D11*
X0141000Y0023500D02*
X0141000Y0038500D01*
D12*
X0140813Y0038743D01*
X0140621Y0038981D01*
X0140422Y0039214D01*
X0140218Y0039442D01*
X0140009Y0039665D01*
X0139794Y0039883D01*
X0139574Y0040096D01*
X0139349Y0040303D01*
X0139118Y0040505D01*
X0138883Y0040701D01*
X0138643Y0040891D01*
X0138399Y0041075D01*
X0138150Y0041253D01*
X0137896Y0041425D01*
X0137639Y0041591D01*
X0137378Y0041751D01*
X0137113Y0041904D01*
X0136844Y0042050D01*
X0136571Y0042190D01*
X0136296Y0042323D01*
X0136017Y0042449D01*
X0135735Y0042569D01*
X0135450Y0042681D01*
X0135163Y0042786D01*
X0134873Y0042885D01*
X0134581Y0042976D01*
X0134286Y0043060D01*
X0133990Y0043137D01*
X0133692Y0043207D01*
X0133392Y0043269D01*
X0133091Y0043324D01*
X0132789Y0043371D01*
X0132485Y0043411D01*
X0132181Y0043444D01*
X0131876Y0043469D01*
X0131570Y0043487D01*
X0131264Y0043497D01*
X0130958Y0043500D01*
X0130652Y0043495D01*
X0130346Y0043483D01*
X0130040Y0043463D01*
X0129736Y0043436D01*
X0129431Y0043401D01*
X0129128Y0043359D01*
X0128826Y0043310D01*
X0128525Y0043253D01*
X0128226Y0043188D01*
X0127928Y0043117D01*
X0127633Y0043038D01*
X0127339Y0042952D01*
X0127047Y0042859D01*
X0126758Y0042758D01*
X0126471Y0042651D01*
X0126187Y0042536D01*
X0125906Y0042415D01*
X0125628Y0042287D01*
X0125353Y0042152D01*
X0125082Y0042010D01*
X0124814Y0041862D01*
X0124550Y0041707D01*
X0124290Y0041546D01*
X0124034Y0041379D01*
X0123781Y0041205D01*
X0123534Y0041025D01*
X0123290Y0040839D01*
X0123052Y0040648D01*
X0122818Y0040450D01*
X0122589Y0040247D01*
X0122365Y0040038D01*
X0122146Y0039824D01*
X0121933Y0039604D01*
X0121725Y0039380D01*
X0121522Y0039150D01*
X0121326Y0038916D01*
X0121135Y0038676D01*
X0120950Y0038433D01*
X0120771Y0038184D01*
X0120598Y0037932D01*
X0120431Y0037675D01*
X0120271Y0037414D01*
X0120117Y0037149D01*
X0119970Y0036881D01*
X0119829Y0036609D01*
X0119695Y0036334D01*
X0119568Y0036055D01*
X0119447Y0035774D01*
X0119334Y0035489D01*
X0119228Y0035202D01*
X0119128Y0034913D01*
X0119036Y0034621D01*
X0118951Y0034327D01*
X0118873Y0034031D01*
X0118802Y0033733D01*
X0118739Y0033433D01*
X0118683Y0033132D01*
X0118635Y0032830D01*
X0118594Y0032527D01*
X0118560Y0032223D01*
X0118534Y0031918D01*
X0118515Y0031612D01*
X0118504Y0031306D01*
X0118500Y0031000D01*
X0118504Y0030694D01*
X0118515Y0030388D01*
X0118534Y0030082D01*
X0118560Y0029777D01*
X0118594Y0029473D01*
X0118635Y0029170D01*
X0118683Y0028868D01*
X0118739Y0028567D01*
X0118802Y0028267D01*
X0118873Y0027969D01*
X0118951Y0027673D01*
X0119036Y0027379D01*
X0119128Y0027087D01*
X0119228Y0026798D01*
X0119334Y0026511D01*
X0119447Y0026226D01*
X0119568Y0025945D01*
X0119695Y0025666D01*
X0119829Y0025391D01*
X0119970Y0025119D01*
X0120117Y0024851D01*
X0120271Y0024586D01*
X0120431Y0024325D01*
X0120598Y0024068D01*
X0120771Y0023816D01*
X0120950Y0023567D01*
X0121135Y0023324D01*
X0121326Y0023084D01*
X0121522Y0022850D01*
X0121725Y0022620D01*
X0121933Y0022396D01*
X0122146Y0022176D01*
X0122365Y0021962D01*
X0122589Y0021753D01*
X0122818Y0021550D01*
X0123052Y0021352D01*
X0123290Y0021161D01*
X0123534Y0020975D01*
X0123781Y0020795D01*
X0124034Y0020621D01*
X0124290Y0020454D01*
X0124550Y0020293D01*
X0124814Y0020138D01*
X0125082Y0019990D01*
X0125353Y0019848D01*
X0125628Y0019713D01*
X0125906Y0019585D01*
X0126187Y0019464D01*
X0126471Y0019349D01*
X0126758Y0019242D01*
X0127047Y0019141D01*
X0127339Y0019048D01*
X0127633Y0018962D01*
X0127928Y0018883D01*
X0128226Y0018812D01*
X0128525Y0018747D01*
X0128826Y0018690D01*
X0129128Y0018641D01*
X0129431Y0018599D01*
X0129736Y0018564D01*
X0130040Y0018537D01*
X0130346Y0018517D01*
X0130652Y0018505D01*
X0130958Y0018500D01*
X0131264Y0018503D01*
X0131570Y0018513D01*
X0131876Y0018531D01*
X0132181Y0018556D01*
X0132485Y0018589D01*
X0132789Y0018629D01*
X0133091Y0018676D01*
X0133392Y0018731D01*
X0133692Y0018793D01*
X0133990Y0018863D01*
X0134286Y0018940D01*
X0134581Y0019024D01*
X0134873Y0019115D01*
X0135163Y0019214D01*
X0135450Y0019319D01*
X0135735Y0019431D01*
X0136017Y0019551D01*
X0136296Y0019677D01*
X0136571Y0019810D01*
X0136844Y0019950D01*
X0137113Y0020096D01*
X0137378Y0020249D01*
X0137639Y0020409D01*
X0137896Y0020575D01*
X0138150Y0020747D01*
X0138399Y0020925D01*
X0138643Y0021109D01*
X0138883Y0021299D01*
X0139118Y0021495D01*
X0139349Y0021697D01*
X0139574Y0021904D01*
X0139794Y0022117D01*
X0140009Y0022335D01*
X0140218Y0022558D01*
X0140422Y0022786D01*
X0140621Y0023019D01*
X0140813Y0023257D01*
X0141000Y0023500D01*
D13*
X0022969Y0023126D02*
X0019031Y0023126D01*
X0011157Y0031000D02*
X0011159Y0031190D01*
X0011166Y0031380D01*
X0011178Y0031570D01*
X0011194Y0031760D01*
X0011214Y0031949D01*
X0011240Y0032138D01*
X0011269Y0032326D01*
X0011304Y0032513D01*
X0011343Y0032699D01*
X0011386Y0032884D01*
X0011434Y0033069D01*
X0011486Y0033252D01*
X0011542Y0033433D01*
X0011603Y0033613D01*
X0011669Y0033792D01*
X0011738Y0033969D01*
X0011812Y0034145D01*
X0011890Y0034318D01*
X0011973Y0034490D01*
X0012059Y0034659D01*
X0012149Y0034827D01*
X0012244Y0034992D01*
X0012342Y0035155D01*
X0012445Y0035315D01*
X0012551Y0035473D01*
X0012661Y0035628D01*
X0012774Y0035781D01*
X0012892Y0035931D01*
X0013013Y0036077D01*
X0013137Y0036221D01*
X0013265Y0036362D01*
X0013396Y0036500D01*
X0013531Y0036635D01*
X0013669Y0036766D01*
X0013810Y0036894D01*
X0013954Y0037018D01*
X0014100Y0037139D01*
X0014250Y0037257D01*
X0014403Y0037370D01*
X0014558Y0037480D01*
X0014716Y0037586D01*
X0014876Y0037689D01*
X0015039Y0037787D01*
X0015204Y0037882D01*
X0015372Y0037972D01*
X0015541Y0038058D01*
X0015713Y0038141D01*
X0015886Y0038219D01*
X0016062Y0038293D01*
X0016239Y0038362D01*
X0016418Y0038428D01*
X0016598Y0038489D01*
X0016779Y0038545D01*
X0016962Y0038597D01*
X0017147Y0038645D01*
X0017332Y0038688D01*
X0017518Y0038727D01*
X0017705Y0038762D01*
X0017893Y0038791D01*
X0018082Y0038817D01*
X0018271Y0038837D01*
X0018461Y0038853D01*
X0018651Y0038865D01*
X0018841Y0038872D01*
X0019031Y0038874D01*
X0022969Y0038874D01*
X0030843Y0031000D02*
X0030841Y0030810D01*
X0030834Y0030620D01*
X0030822Y0030430D01*
X0030806Y0030240D01*
X0030786Y0030051D01*
X0030760Y0029862D01*
X0030731Y0029674D01*
X0030696Y0029487D01*
X0030657Y0029301D01*
X0030614Y0029116D01*
X0030566Y0028931D01*
X0030514Y0028748D01*
X0030458Y0028567D01*
X0030397Y0028387D01*
X0030331Y0028208D01*
X0030262Y0028031D01*
X0030188Y0027855D01*
X0030110Y0027682D01*
X0030027Y0027510D01*
X0029941Y0027341D01*
X0029851Y0027173D01*
X0029756Y0027008D01*
X0029658Y0026845D01*
X0029555Y0026685D01*
X0029449Y0026527D01*
X0029339Y0026372D01*
X0029226Y0026219D01*
X0029108Y0026069D01*
X0028987Y0025923D01*
X0028863Y0025779D01*
X0028735Y0025638D01*
X0028604Y0025500D01*
X0028469Y0025365D01*
X0028331Y0025234D01*
X0028190Y0025106D01*
X0028046Y0024982D01*
X0027900Y0024861D01*
X0027750Y0024743D01*
X0027597Y0024630D01*
X0027442Y0024520D01*
X0027284Y0024414D01*
X0027124Y0024311D01*
X0026961Y0024213D01*
X0026796Y0024118D01*
X0026628Y0024028D01*
X0026459Y0023942D01*
X0026287Y0023859D01*
X0026114Y0023781D01*
X0025938Y0023707D01*
X0025761Y0023638D01*
X0025582Y0023572D01*
X0025402Y0023511D01*
X0025221Y0023455D01*
X0025038Y0023403D01*
X0024853Y0023355D01*
X0024668Y0023312D01*
X0024482Y0023273D01*
X0024295Y0023238D01*
X0024107Y0023209D01*
X0023918Y0023183D01*
X0023729Y0023163D01*
X0023539Y0023147D01*
X0023349Y0023135D01*
X0023159Y0023128D01*
X0022969Y0023126D01*
X0030843Y0031000D02*
X0030841Y0031190D01*
X0030834Y0031380D01*
X0030822Y0031570D01*
X0030806Y0031760D01*
X0030786Y0031949D01*
X0030760Y0032138D01*
X0030731Y0032326D01*
X0030696Y0032513D01*
X0030657Y0032699D01*
X0030614Y0032884D01*
X0030566Y0033069D01*
X0030514Y0033252D01*
X0030458Y0033433D01*
X0030397Y0033613D01*
X0030331Y0033792D01*
X0030262Y0033969D01*
X0030188Y0034145D01*
X0030110Y0034318D01*
X0030027Y0034490D01*
X0029941Y0034659D01*
X0029851Y0034827D01*
X0029756Y0034992D01*
X0029658Y0035155D01*
X0029555Y0035315D01*
X0029449Y0035473D01*
X0029339Y0035628D01*
X0029226Y0035781D01*
X0029108Y0035931D01*
X0028987Y0036077D01*
X0028863Y0036221D01*
X0028735Y0036362D01*
X0028604Y0036500D01*
X0028469Y0036635D01*
X0028331Y0036766D01*
X0028190Y0036894D01*
X0028046Y0037018D01*
X0027900Y0037139D01*
X0027750Y0037257D01*
X0027597Y0037370D01*
X0027442Y0037480D01*
X0027284Y0037586D01*
X0027124Y0037689D01*
X0026961Y0037787D01*
X0026796Y0037882D01*
X0026628Y0037972D01*
X0026459Y0038058D01*
X0026287Y0038141D01*
X0026114Y0038219D01*
X0025938Y0038293D01*
X0025761Y0038362D01*
X0025582Y0038428D01*
X0025402Y0038489D01*
X0025221Y0038545D01*
X0025038Y0038597D01*
X0024853Y0038645D01*
X0024668Y0038688D01*
X0024482Y0038727D01*
X0024295Y0038762D01*
X0024107Y0038791D01*
X0023918Y0038817D01*
X0023729Y0038837D01*
X0023539Y0038853D01*
X0023349Y0038865D01*
X0023159Y0038872D01*
X0022969Y0038874D01*
X0011157Y0031000D02*
X0011159Y0030810D01*
X0011166Y0030620D01*
X0011178Y0030430D01*
X0011194Y0030240D01*
X0011214Y0030051D01*
X0011240Y0029862D01*
X0011269Y0029674D01*
X0011304Y0029487D01*
X0011343Y0029301D01*
X0011386Y0029116D01*
X0011434Y0028931D01*
X0011486Y0028748D01*
X0011542Y0028567D01*
X0011603Y0028387D01*
X0011669Y0028208D01*
X0011738Y0028031D01*
X0011812Y0027855D01*
X0011890Y0027682D01*
X0011973Y0027510D01*
X0012059Y0027341D01*
X0012149Y0027173D01*
X0012244Y0027008D01*
X0012342Y0026845D01*
X0012445Y0026685D01*
X0012551Y0026527D01*
X0012661Y0026372D01*
X0012774Y0026219D01*
X0012892Y0026069D01*
X0013013Y0025923D01*
X0013137Y0025779D01*
X0013265Y0025638D01*
X0013396Y0025500D01*
X0013531Y0025365D01*
X0013669Y0025234D01*
X0013810Y0025106D01*
X0013954Y0024982D01*
X0014100Y0024861D01*
X0014250Y0024743D01*
X0014403Y0024630D01*
X0014558Y0024520D01*
X0014716Y0024414D01*
X0014876Y0024311D01*
X0015039Y0024213D01*
X0015204Y0024118D01*
X0015372Y0024028D01*
X0015541Y0023942D01*
X0015713Y0023859D01*
X0015886Y0023781D01*
X0016062Y0023707D01*
X0016239Y0023638D01*
X0016418Y0023572D01*
X0016598Y0023511D01*
X0016779Y0023455D01*
X0016962Y0023403D01*
X0017147Y0023355D01*
X0017332Y0023312D01*
X0017518Y0023273D01*
X0017705Y0023238D01*
X0017893Y0023209D01*
X0018082Y0023183D01*
X0018271Y0023163D01*
X0018461Y0023147D01*
X0018651Y0023135D01*
X0018841Y0023128D01*
X0019031Y0023126D01*
D14*
X0016930Y0041350D02*
X0014730Y0044650D01*
X0016930Y0044650D02*
X0014730Y0041350D01*
X0013183Y0041350D02*
X0012450Y0042817D01*
X0012267Y0042817D02*
X0011350Y0042817D01*
X0012267Y0042816D02*
X0012326Y0042818D01*
X0012384Y0042824D01*
X0012442Y0042833D01*
X0012500Y0042846D01*
X0012556Y0042863D01*
X0012611Y0042883D01*
X0012665Y0042907D01*
X0012717Y0042934D01*
X0012767Y0042964D01*
X0012815Y0042998D01*
X0012861Y0043035D01*
X0012905Y0043074D01*
X0012946Y0043117D01*
X0012984Y0043161D01*
X0013019Y0043208D01*
X0013051Y0043258D01*
X0013080Y0043309D01*
X0013106Y0043362D01*
X0013128Y0043416D01*
X0013146Y0043472D01*
X0013161Y0043529D01*
X0013172Y0043587D01*
X0013180Y0043645D01*
X0013184Y0043704D01*
X0013184Y0043762D01*
X0013180Y0043821D01*
X0013172Y0043879D01*
X0013161Y0043937D01*
X0013146Y0043994D01*
X0013128Y0044050D01*
X0013106Y0044104D01*
X0013080Y0044157D01*
X0013051Y0044208D01*
X0013019Y0044258D01*
X0012984Y0044305D01*
X0012946Y0044349D01*
X0012905Y0044392D01*
X0012861Y0044431D01*
X0012815Y0044468D01*
X0012767Y0044502D01*
X0012717Y0044532D01*
X0012665Y0044559D01*
X0012611Y0044583D01*
X0012556Y0044603D01*
X0012500Y0044620D01*
X0012442Y0044633D01*
X0012384Y0044642D01*
X0012326Y0044648D01*
X0012267Y0044650D01*
X0011350Y0044650D01*
X0011350Y0041350D01*
M02*
