M48
;GenerationSoftware,Autodesk,EAGLE,9.3.2*%
;CreationDate,2020-08-31T17:18:26Z*%
FMAT,2
ICI,OFF
METRIC,TZ,000.000
T8C0.350
T7C0.800
T6C0.813
T5C1.000
T4C1.016
T3C1.200
T2C2.000
T1C3.200
%
G90
M71
T1
X74930Y85090
X26670Y85090
X74930Y10160
X26670Y3810
T2
X52070Y26162
T3
X45720Y80010
X52070Y85090
X53340Y80010
X54610Y85090
X55880Y80010
X57150Y85090
X58420Y80010
X50800Y80010
X49530Y85090
X48260Y80010
X46990Y85090
X43180Y80010
X59690Y85090
X60960Y80010
X44450Y85090
T4
X60960Y27940
X63500Y27940
X66040Y88900
X68580Y88900
X66040Y81280
X68580Y81280
X50800Y30480
X53340Y30480
X55880Y30480
X48260Y33020
X50800Y33020
X53340Y33020
X55880Y33020
X38100Y19050
X40640Y19050
X43180Y19050
X74930Y66040
X38100Y26670
X40640Y26670
X43180Y26670
X59690Y38100
X62230Y38100
X64770Y38100
X59690Y46990
X62230Y46990
X64770Y46990
X59690Y55880
X62230Y55880
X64770Y55880
X26670Y67310
X26670Y64770
X26670Y62230
X26670Y59690
X26670Y57150
X26670Y54610
X26670Y49530
X26670Y46990
X26670Y44450
X26670Y41910
X26670Y39370
X26670Y36830
X26670Y34290
X26670Y31750
X26670Y26670
X26670Y24130
X26670Y21590
X26670Y19050
X26670Y16510
X26670Y13970
X26670Y11430
X26670Y8890
X74930Y13970
X74930Y16510
X74930Y19050
X74930Y21590
X74930Y24130
X74930Y26670
X74930Y29210
X74930Y31750
X74930Y36830
X74930Y39370
X74930Y41910
X74930Y44450
X74930Y46990
X74930Y49530
X74930Y52070
X74930Y54610
X74930Y58420
X74930Y60960
X74930Y63500
X48260Y30480
X74930Y68580
X74930Y71120
X74930Y73660
X74930Y76200
X74930Y6350
X74930Y3810
X72390Y6350
X72390Y3810
X69850Y6350
X69850Y3810
X67310Y6350
X67310Y3810
X64770Y6350
X64770Y3810
X62230Y6350
X62230Y3810
X59690Y6350
X59690Y3810
X57150Y6350
X57150Y3810
X54610Y6350
X54610Y3810
X52070Y6350
X52070Y3810
X49530Y6350
X49530Y3810
X46990Y6350
X46990Y3810
X44450Y6350
X44450Y3810
X41910Y6350
X41910Y3810
X39370Y6350
X39370Y3810
X36830Y6350
X36830Y3810
X34290Y6350
X34290Y3810
X31750Y6350
X31750Y3810
X38100Y38100
X40640Y38100
X43180Y38100
X45720Y38100
X38100Y45720
X40640Y45720
X43180Y45720
X45720Y45720
X38100Y53340
X40640Y53340
X43180Y53340
X45720Y53340
X38100Y60960
X40640Y60960
X43180Y60960
X45720Y60960
X60960Y19050
X63500Y19050
T5
X39830Y93980
T6
X31750Y85090
X36830Y85090
X31750Y78740
X36830Y78740
X40640Y72390
X35560Y72390
X48260Y72390
X43180Y72390
X52070Y72390
X66040Y72390
X60960Y72390
X66040Y66040
X60960Y66040
X57150Y66040
X52070Y66040
X48260Y66040
X43180Y66040
X40640Y66040
X35560Y66040
X57150Y72390
T7
X36830Y89180
X33830Y93980
T8
X66751Y69342
X73000Y29870
X62027Y15392
X61112Y21184
X55778Y16154
X76352Y59588
X60046Y31394
X60198Y42215
X62789Y31090
M30