G75*
%MOIN*%
%OFA0B0*%
%FSLAX25Y25*%
%IPPOS*%
%LPD*%
%AMOC8*
5,1,8,0,0,1.08239X$1,22.5*
%
%ADD10OC8,0.05200*%
%ADD11C,0.07087*%
%ADD12C,0.06000*%
%ADD13OC8,0.06000*%
%ADD14C,0.08600*%
%ADD15C,0.00600*%
%ADD16C,0.02978*%
D10*
X0100000Y0206250D03*
X0100000Y0231250D03*
X0100000Y0266250D03*
X0100000Y0291250D03*
X0115000Y0291250D03*
X0115000Y0266250D03*
X0135000Y0266250D03*
X0135000Y0291250D03*
X0150000Y0291250D03*
X0150000Y0266250D03*
X0170000Y0266250D03*
X0170000Y0291250D03*
X0130000Y0231250D03*
X0130000Y0206250D03*
X0080000Y0266250D03*
X0070000Y0266250D03*
X0070000Y0291250D03*
X0080000Y0291250D03*
X0055000Y0316250D03*
X0050000Y0291250D03*
X0050000Y0266250D03*
X0035000Y0316250D03*
X0035000Y0341250D03*
X0055000Y0341250D03*
D11*
X0080000Y0324793D02*
X0080000Y0317707D01*
X0090000Y0317707D02*
X0090000Y0324793D01*
X0085000Y0337707D02*
X0085000Y0344793D01*
X0095000Y0344793D02*
X0095000Y0337707D01*
X0105000Y0337707D02*
X0105000Y0344793D01*
X0115000Y0344793D02*
X0115000Y0337707D01*
X0125000Y0337707D02*
X0125000Y0344793D01*
X0135000Y0344793D02*
X0135000Y0337707D01*
X0145000Y0337707D02*
X0145000Y0344793D01*
X0140000Y0324793D02*
X0140000Y0317707D01*
X0130000Y0317707D02*
X0130000Y0324793D01*
X0120000Y0324793D02*
X0120000Y0317707D01*
X0110000Y0317707D02*
X0110000Y0324793D01*
X0100000Y0324793D02*
X0100000Y0317707D01*
X0150000Y0317707D02*
X0150000Y0324793D01*
D12*
X0018000Y0041250D02*
X0012000Y0041250D01*
X0012000Y0051250D02*
X0018000Y0051250D01*
X0018000Y0061250D02*
X0012000Y0061250D01*
X0012000Y0071250D02*
X0018000Y0071250D01*
X0018000Y0081250D02*
X0012000Y0081250D01*
X0012000Y0091250D02*
X0018000Y0091250D01*
X0018000Y0101250D02*
X0012000Y0101250D01*
X0012000Y0111250D02*
X0018000Y0111250D01*
X0018000Y0131250D02*
X0012000Y0131250D01*
X0012000Y0141250D02*
X0018000Y0141250D01*
X0018000Y0151250D02*
X0012000Y0151250D01*
X0012000Y0161250D02*
X0018000Y0161250D01*
X0018000Y0171250D02*
X0012000Y0171250D01*
X0012000Y0181250D02*
X0018000Y0181250D01*
X0018000Y0191250D02*
X0012000Y0191250D01*
X0012000Y0201250D02*
X0018000Y0201250D01*
X0018000Y0221250D02*
X0012000Y0221250D01*
X0012000Y0231250D02*
X0018000Y0231250D01*
X0018000Y0241250D02*
X0012000Y0241250D01*
X0012000Y0251250D02*
X0018000Y0251250D01*
X0018000Y0261250D02*
X0012000Y0261250D01*
X0012000Y0271250D02*
X0018000Y0271250D01*
X0050000Y0249250D02*
X0050000Y0243250D01*
X0060000Y0243250D02*
X0060000Y0249250D01*
X0070000Y0249250D02*
X0070000Y0243250D01*
X0080000Y0243250D02*
X0080000Y0249250D01*
X0080000Y0219250D02*
X0080000Y0213250D01*
X0070000Y0213250D02*
X0070000Y0219250D01*
X0060000Y0219250D02*
X0060000Y0213250D01*
X0050000Y0213250D02*
X0050000Y0219250D01*
X0050000Y0189250D02*
X0050000Y0183250D01*
X0060000Y0183250D02*
X0060000Y0189250D01*
X0070000Y0189250D02*
X0070000Y0183250D01*
X0080000Y0183250D02*
X0080000Y0189250D01*
X0080000Y0159250D02*
X0080000Y0153250D01*
X0070000Y0153250D02*
X0070000Y0159250D01*
X0060000Y0159250D02*
X0060000Y0153250D01*
X0050000Y0153250D02*
X0050000Y0159250D01*
X0060000Y0114250D02*
X0060000Y0108250D01*
X0070000Y0108250D02*
X0070000Y0114250D01*
X0080000Y0114250D02*
X0080000Y0108250D01*
X0080000Y0084250D02*
X0080000Y0078250D01*
X0070000Y0078250D02*
X0070000Y0084250D01*
X0060000Y0084250D02*
X0060000Y0078250D01*
X0100000Y0064250D02*
X0100000Y0058250D01*
X0110000Y0058250D02*
X0110000Y0064250D01*
X0120000Y0064250D02*
X0120000Y0058250D01*
X0130000Y0058250D02*
X0130000Y0064250D01*
X0150000Y0078250D02*
X0150000Y0084250D01*
X0160000Y0084250D02*
X0160000Y0078250D01*
X0160000Y0113250D02*
X0160000Y0119250D01*
X0150000Y0119250D02*
X0150000Y0113250D01*
X0145000Y0153250D02*
X0145000Y0159250D01*
X0155000Y0159250D02*
X0155000Y0153250D01*
X0165000Y0153250D02*
X0165000Y0159250D01*
X0165000Y0188250D02*
X0165000Y0194250D01*
X0155000Y0194250D02*
X0155000Y0188250D01*
X0145000Y0188250D02*
X0145000Y0194250D01*
X0145000Y0223250D02*
X0145000Y0229250D01*
X0155000Y0229250D02*
X0155000Y0223250D01*
X0165000Y0223250D02*
X0165000Y0229250D01*
X0202000Y0236250D02*
X0208000Y0236250D01*
X0208000Y0246250D02*
X0202000Y0246250D01*
X0202000Y0256250D02*
X0208000Y0256250D01*
X0208000Y0266250D02*
X0202000Y0266250D01*
X0202000Y0276250D02*
X0208000Y0276250D01*
X0208000Y0286250D02*
X0202000Y0286250D01*
X0202000Y0296250D02*
X0208000Y0296250D01*
X0208000Y0306250D02*
X0202000Y0306250D01*
X0180000Y0323250D02*
X0180000Y0329250D01*
X0170000Y0329250D02*
X0170000Y0323250D01*
X0170000Y0353250D02*
X0170000Y0359250D01*
X0180000Y0359250D02*
X0180000Y0353250D01*
X0202000Y0221250D02*
X0208000Y0221250D01*
X0208000Y0211250D02*
X0202000Y0211250D01*
X0202000Y0201250D02*
X0208000Y0201250D01*
X0208000Y0191250D02*
X0202000Y0191250D01*
X0202000Y0181250D02*
X0208000Y0181250D01*
X0208000Y0171250D02*
X0202000Y0171250D01*
X0202000Y0161250D02*
X0208000Y0161250D01*
X0208000Y0151250D02*
X0202000Y0151250D01*
X0202000Y0131250D02*
X0208000Y0131250D01*
X0208000Y0121250D02*
X0202000Y0121250D01*
X0202000Y0111250D02*
X0208000Y0111250D01*
X0208000Y0101250D02*
X0202000Y0101250D01*
X0202000Y0091250D02*
X0208000Y0091250D01*
X0208000Y0081250D02*
X0202000Y0081250D01*
X0202000Y0071250D02*
X0208000Y0071250D01*
X0208000Y0061250D02*
X0202000Y0061250D01*
D13*
X0205000Y0031250D03*
X0205000Y0021250D03*
X0195000Y0021250D03*
X0195000Y0031250D03*
X0185000Y0031250D03*
X0185000Y0021250D03*
X0175000Y0021250D03*
X0175000Y0031250D03*
X0165000Y0031250D03*
X0165000Y0021250D03*
X0155000Y0021250D03*
X0155000Y0031250D03*
X0145000Y0031250D03*
X0145000Y0021250D03*
X0135000Y0021250D03*
X0135000Y0031250D03*
X0125000Y0031250D03*
X0125000Y0021250D03*
X0115000Y0021250D03*
X0115000Y0031250D03*
X0105000Y0031250D03*
X0105000Y0021250D03*
X0095000Y0021250D03*
X0095000Y0031250D03*
X0085000Y0031250D03*
X0085000Y0021250D03*
X0075000Y0021250D03*
X0075000Y0031250D03*
X0065000Y0031250D03*
X0065000Y0021250D03*
X0055000Y0021250D03*
X0055000Y0031250D03*
X0045000Y0031250D03*
X0045000Y0021250D03*
X0035000Y0021250D03*
X0035000Y0031250D03*
X0100000Y0126250D03*
X0100000Y0136250D03*
X0110000Y0136250D03*
X0110000Y0126250D03*
X0120000Y0126250D03*
X0120000Y0136250D03*
X0130000Y0136250D03*
X0130000Y0126250D03*
X0130000Y0176250D03*
X0130000Y0186250D03*
X0120000Y0186250D03*
X0120000Y0176250D03*
X0110000Y0176250D03*
X0110000Y0186250D03*
X0100000Y0186250D03*
X0100000Y0176250D03*
D14*
X0059300Y0357352D02*
X0050700Y0357352D01*
X0043189Y0371950D02*
X0043189Y0380550D01*
X0066811Y0380550D02*
X0066811Y0371950D01*
D15*
X0066600Y0375850D02*
X0066811Y0376250D01*
X0066600Y0375850D02*
X0061800Y0375850D01*
X0031200Y0345250D01*
X0031200Y0320050D01*
X0035000Y0316250D01*
X0035400Y0341050D02*
X0035000Y0341250D01*
X0035400Y0341050D02*
X0049800Y0341050D01*
X0061200Y0329650D01*
X0061200Y0307450D01*
X0046200Y0292450D01*
X0046200Y0249850D01*
X0049800Y0246250D01*
X0050000Y0246250D01*
X0050400Y0246250D01*
X0050400Y0216250D01*
X0050000Y0216250D01*
X0045600Y0212050D02*
X0048600Y0209050D01*
X0097800Y0209050D01*
X0099000Y0210250D01*
X0131400Y0210250D01*
X0133800Y0207850D01*
X0133800Y0204850D01*
X0119400Y0190450D01*
X0118200Y0190450D01*
X0114000Y0186250D01*
X0114000Y0180250D01*
X0110000Y0176250D01*
X0108000Y0170650D02*
X0115200Y0163450D01*
X0147600Y0163450D01*
X0154800Y0156250D01*
X0155000Y0156250D01*
X0156600Y0164650D02*
X0165000Y0156250D01*
X0169200Y0151450D02*
X0169200Y0168250D01*
X0150600Y0186850D01*
X0150600Y0195850D01*
X0190800Y0236050D01*
X0204600Y0236050D01*
X0205000Y0236250D01*
X0214800Y0245050D02*
X0214800Y0192250D01*
X0209400Y0186850D01*
X0200400Y0186850D01*
X0198000Y0189250D01*
X0198000Y0192850D01*
X0204600Y0199450D01*
X0204600Y0201250D01*
X0205000Y0201250D01*
X0212400Y0200050D02*
X0205200Y0192850D01*
X0205200Y0191650D01*
X0205000Y0191250D01*
X0212400Y0200050D02*
X0212400Y0315250D01*
X0174000Y0353650D01*
X0174000Y0360850D01*
X0171600Y0363250D01*
X0096600Y0363250D01*
X0080400Y0347050D01*
X0080400Y0335650D01*
X0082800Y0333250D01*
X0097200Y0333250D01*
X0105000Y0341050D01*
X0105000Y0341250D01*
X0110400Y0335650D02*
X0110400Y0356050D01*
X0169800Y0356050D01*
X0170000Y0356250D01*
X0165600Y0349450D02*
X0142800Y0349450D01*
X0135000Y0341650D01*
X0135000Y0341250D01*
X0141600Y0329650D02*
X0150000Y0321250D01*
X0141600Y0329650D02*
X0126600Y0329650D01*
X0115000Y0341250D01*
X0110400Y0335650D02*
X0112800Y0333250D01*
X0118200Y0333250D01*
X0124800Y0326650D01*
X0124800Y0315850D01*
X0121800Y0312850D01*
X0116400Y0312850D01*
X0094800Y0291250D01*
X0080000Y0291250D01*
X0073800Y0267850D02*
X0050400Y0291250D01*
X0050000Y0291250D01*
X0050000Y0266250D02*
X0050400Y0266050D01*
X0064800Y0266050D01*
X0069600Y0261250D01*
X0130200Y0261250D01*
X0135000Y0266050D01*
X0135000Y0266250D01*
X0135000Y0266650D01*
X0154800Y0286450D01*
X0154800Y0341050D01*
X0163800Y0341050D01*
X0178200Y0326650D01*
X0180000Y0326650D01*
X0180000Y0326250D01*
X0184200Y0330850D02*
X0165600Y0349450D01*
X0154800Y0341050D02*
X0145200Y0341050D01*
X0145000Y0341250D01*
X0140400Y0321250D02*
X0140000Y0321250D01*
X0140400Y0321250D02*
X0132000Y0312850D01*
X0131400Y0312850D01*
X0085200Y0266650D01*
X0080400Y0266650D01*
X0080000Y0266250D01*
X0078600Y0262450D02*
X0073800Y0267250D01*
X0073800Y0267850D01*
X0078600Y0262450D02*
X0101400Y0262450D01*
X0105000Y0266050D01*
X0114600Y0266050D01*
X0115000Y0266250D01*
X0120000Y0321250D02*
X0111600Y0329650D01*
X0061200Y0329650D01*
X0085000Y0341250D02*
X0085200Y0341650D01*
X0099600Y0356050D01*
X0110400Y0356050D01*
X0170000Y0326250D02*
X0170400Y0326050D01*
X0174000Y0322450D01*
X0174000Y0290050D01*
X0170400Y0286450D01*
X0170400Y0266650D01*
X0170000Y0266250D01*
X0184200Y0288250D02*
X0184200Y0330850D01*
X0184200Y0288250D02*
X0204600Y0267850D01*
X0204600Y0266650D01*
X0205000Y0266250D01*
X0187800Y0229450D02*
X0204600Y0212650D01*
X0204600Y0211450D01*
X0205000Y0211250D01*
X0209400Y0175450D02*
X0212400Y0172450D01*
X0212400Y0147250D01*
X0193200Y0128050D01*
X0193200Y0124450D01*
X0202200Y0115450D01*
X0209400Y0115450D01*
X0212400Y0112450D01*
X0212400Y0108850D01*
X0205200Y0101650D01*
X0205000Y0101250D01*
X0205000Y0111250D02*
X0204600Y0111250D01*
X0192600Y0123250D01*
X0148200Y0123250D01*
X0100200Y0075250D01*
X0100200Y0061450D01*
X0100000Y0061250D01*
X0096000Y0056650D02*
X0096000Y0072850D01*
X0147600Y0124450D01*
X0193200Y0124450D01*
X0169200Y0151450D02*
X0150000Y0132250D01*
X0130200Y0132250D01*
X0124200Y0126250D01*
X0120000Y0126250D01*
X0120600Y0131050D02*
X0124800Y0135250D01*
X0124800Y0145450D01*
X0100800Y0169450D01*
X0097200Y0169450D01*
X0080400Y0186250D01*
X0080000Y0186250D01*
X0074400Y0190450D02*
X0074400Y0182050D01*
X0070200Y0177850D01*
X0070200Y0156250D01*
X0070000Y0156250D01*
X0060000Y0156250D02*
X0060000Y0186250D01*
X0062400Y0193450D02*
X0016800Y0193450D01*
X0015000Y0191650D01*
X0015000Y0191250D01*
X0015000Y0201250D02*
X0063600Y0201250D01*
X0074400Y0190450D01*
X0070000Y0186250D02*
X0069600Y0186250D01*
X0062400Y0193450D01*
X0050400Y0186250D02*
X0050000Y0186250D01*
X0050400Y0186250D02*
X0050400Y0156250D01*
X0050000Y0156250D01*
X0079800Y0156250D02*
X0040800Y0117250D01*
X0040800Y0029650D01*
X0044400Y0026050D01*
X0185400Y0026050D01*
X0190200Y0030850D01*
X0195000Y0030850D01*
X0195000Y0031250D01*
X0185000Y0031250D02*
X0184800Y0030850D01*
X0180600Y0030850D01*
X0177000Y0027250D01*
X0093000Y0027250D01*
X0089400Y0030850D01*
X0089400Y0032650D01*
X0080400Y0041650D01*
X0079200Y0041650D01*
X0055800Y0065050D01*
X0055800Y0086050D01*
X0073800Y0104050D01*
X0083400Y0104050D01*
X0105600Y0126250D01*
X0105600Y0127450D01*
X0109200Y0131050D01*
X0120600Y0131050D01*
X0115800Y0136450D02*
X0115800Y0137650D01*
X0122400Y0144250D01*
X0115800Y0136450D02*
X0111600Y0132250D01*
X0082200Y0132250D01*
X0061200Y0111250D01*
X0060000Y0111250D01*
X0078600Y0100450D02*
X0064800Y0086650D01*
X0064800Y0086050D01*
X0060000Y0081250D01*
X0070000Y0081250D02*
X0070200Y0081250D01*
X0070200Y0078850D01*
X0097200Y0051850D01*
X0111000Y0051850D01*
X0120000Y0060850D01*
X0120000Y0061250D01*
X0114000Y0063850D02*
X0118800Y0068650D01*
X0121200Y0068650D01*
X0128400Y0061450D01*
X0129600Y0061450D01*
X0130000Y0061250D01*
X0114000Y0063850D02*
X0114000Y0056650D01*
X0110400Y0053050D01*
X0097800Y0053050D01*
X0080400Y0070450D01*
X0080400Y0081250D01*
X0080000Y0081250D01*
X0078600Y0100450D02*
X0121800Y0100450D01*
X0192600Y0171250D01*
X0205000Y0171250D01*
X0209400Y0175450D02*
X0172200Y0175450D01*
X0156600Y0191050D01*
X0155400Y0191050D01*
X0155000Y0191250D01*
X0145000Y0191250D02*
X0144600Y0191050D01*
X0124800Y0191050D01*
X0120000Y0186250D01*
X0104400Y0186250D02*
X0124200Y0206050D01*
X0129600Y0206050D01*
X0130000Y0206250D01*
X0104400Y0176050D02*
X0115800Y0164650D01*
X0156600Y0164650D01*
X0150000Y0116250D02*
X0150000Y0116050D01*
X0145200Y0111250D01*
X0145200Y0031450D01*
X0145000Y0031250D01*
X0150000Y0036250D02*
X0155000Y0031250D01*
X0150000Y0036250D02*
X0150000Y0081250D01*
X0110000Y0061250D02*
X0109800Y0060850D01*
X0108600Y0060850D01*
X0102000Y0054250D01*
X0098400Y0054250D01*
X0096000Y0056650D01*
X0110000Y0136250D02*
X0105600Y0140650D01*
X0080400Y0140650D01*
X0045000Y0105250D01*
X0045000Y0031250D01*
X0079800Y0156250D02*
X0080000Y0156250D01*
X0096000Y0174250D02*
X0099600Y0170650D01*
X0108000Y0170650D01*
X0104400Y0176050D02*
X0100200Y0176050D01*
X0100000Y0176250D01*
X0099600Y0180250D02*
X0098400Y0180250D01*
X0096000Y0177850D01*
X0096000Y0174250D01*
X0099600Y0180250D02*
X0104400Y0185050D01*
X0104400Y0186250D01*
X0045600Y0212050D02*
X0045600Y0229450D01*
X0015000Y0260050D01*
X0015000Y0261250D01*
D16*
X0122400Y0144250D03*
X0187800Y0229450D03*
X0214800Y0245050D03*
M02*
