G75*
%MOIN*%
%OFA0B0*%
%FSLAX25Y25*%
%IPPOS*%
%LPD*%
%AMOC8*
5,1,8,0,0,1.08239X$1,22.5*
%
%ADD10OC8,0.05200*%
%ADD11C,0.07087*%
%ADD12C,0.06000*%
%ADD13OC8,0.06000*%
%ADD14C,0.08600*%
%ADD15C,0.00600*%
%ADD16C,0.02978*%
D10*
X0050000Y0266250D03*
X0050000Y0291250D03*
X0055000Y0316250D03*
X0055000Y0341250D03*
X0035000Y0341250D03*
X0035000Y0316250D03*
X0070000Y0291250D03*
X0080000Y0291250D03*
X0080000Y0266250D03*
X0070000Y0266250D03*
X0100000Y0266250D03*
X0100000Y0291250D03*
X0115000Y0291250D03*
X0115000Y0266250D03*
X0135000Y0266250D03*
X0135000Y0291250D03*
X0150000Y0291250D03*
X0150000Y0266250D03*
X0170000Y0266250D03*
X0170000Y0291250D03*
D11*
X0150000Y0317707D02*
X0150000Y0324793D01*
X0145000Y0337707D02*
X0145000Y0344793D01*
X0135000Y0344793D02*
X0135000Y0337707D01*
X0130000Y0324793D02*
X0130000Y0317707D01*
X0140000Y0317707D02*
X0140000Y0324793D01*
X0125000Y0337707D02*
X0125000Y0344793D01*
X0115000Y0344793D02*
X0115000Y0337707D01*
X0110000Y0324793D02*
X0110000Y0317707D01*
X0100000Y0317707D02*
X0100000Y0324793D01*
X0095000Y0337707D02*
X0095000Y0344793D01*
X0085000Y0344793D02*
X0085000Y0337707D01*
X0080000Y0324793D02*
X0080000Y0317707D01*
X0090000Y0317707D02*
X0090000Y0324793D01*
X0105000Y0337707D02*
X0105000Y0344793D01*
X0120000Y0324793D02*
X0120000Y0317707D01*
D12*
X0018000Y0041250D02*
X0012000Y0041250D01*
X0012000Y0051250D02*
X0018000Y0051250D01*
X0018000Y0061250D02*
X0012000Y0061250D01*
X0012000Y0071250D02*
X0018000Y0071250D01*
X0018000Y0081250D02*
X0012000Y0081250D01*
X0012000Y0091250D02*
X0018000Y0091250D01*
X0018000Y0101250D02*
X0012000Y0101250D01*
X0012000Y0111250D02*
X0018000Y0111250D01*
X0018000Y0131250D02*
X0012000Y0131250D01*
X0012000Y0141250D02*
X0018000Y0141250D01*
X0018000Y0151250D02*
X0012000Y0151250D01*
X0012000Y0161250D02*
X0018000Y0161250D01*
X0018000Y0171250D02*
X0012000Y0171250D01*
X0012000Y0181250D02*
X0018000Y0181250D01*
X0018000Y0191250D02*
X0012000Y0191250D01*
X0012000Y0201250D02*
X0018000Y0201250D01*
X0018000Y0221250D02*
X0012000Y0221250D01*
X0012000Y0231250D02*
X0018000Y0231250D01*
X0018000Y0241250D02*
X0012000Y0241250D01*
X0012000Y0251250D02*
X0018000Y0251250D01*
X0018000Y0261250D02*
X0012000Y0261250D01*
X0012000Y0271250D02*
X0018000Y0271250D01*
X0060000Y0249250D02*
X0060000Y0243250D01*
X0070000Y0243250D02*
X0070000Y0249250D01*
X0080000Y0249250D02*
X0080000Y0243250D01*
X0090000Y0243250D02*
X0090000Y0249250D01*
X0090000Y0219250D02*
X0090000Y0213250D01*
X0080000Y0213250D02*
X0080000Y0219250D01*
X0070000Y0219250D02*
X0070000Y0213250D01*
X0060000Y0213250D02*
X0060000Y0219250D01*
X0060000Y0189250D02*
X0060000Y0183250D01*
X0070000Y0183250D02*
X0070000Y0189250D01*
X0080000Y0189250D02*
X0080000Y0183250D01*
X0090000Y0183250D02*
X0090000Y0189250D01*
X0090000Y0159250D02*
X0090000Y0153250D01*
X0080000Y0153250D02*
X0080000Y0159250D01*
X0070000Y0159250D02*
X0070000Y0153250D01*
X0060000Y0153250D02*
X0060000Y0159250D01*
X0060000Y0114250D02*
X0060000Y0108250D01*
X0070000Y0108250D02*
X0070000Y0114250D01*
X0080000Y0114250D02*
X0080000Y0108250D01*
X0080000Y0084250D02*
X0080000Y0078250D01*
X0070000Y0078250D02*
X0070000Y0084250D01*
X0060000Y0084250D02*
X0060000Y0078250D01*
X0145000Y0153250D02*
X0145000Y0159250D01*
X0155000Y0159250D02*
X0155000Y0153250D01*
X0165000Y0153250D02*
X0165000Y0159250D01*
X0165000Y0188250D02*
X0165000Y0194250D01*
X0155000Y0194250D02*
X0155000Y0188250D01*
X0145000Y0188250D02*
X0145000Y0194250D01*
X0145000Y0223250D02*
X0145000Y0229250D01*
X0155000Y0229250D02*
X0155000Y0223250D01*
X0165000Y0223250D02*
X0165000Y0229250D01*
X0202000Y0236250D02*
X0208000Y0236250D01*
X0208000Y0246250D02*
X0202000Y0246250D01*
X0202000Y0256250D02*
X0208000Y0256250D01*
X0208000Y0266250D02*
X0202000Y0266250D01*
X0202000Y0276250D02*
X0208000Y0276250D01*
X0208000Y0286250D02*
X0202000Y0286250D01*
X0202000Y0296250D02*
X0208000Y0296250D01*
X0208000Y0306250D02*
X0202000Y0306250D01*
X0180000Y0323250D02*
X0180000Y0329250D01*
X0170000Y0329250D02*
X0170000Y0323250D01*
X0170000Y0353250D02*
X0170000Y0359250D01*
X0180000Y0359250D02*
X0180000Y0353250D01*
X0202000Y0221250D02*
X0208000Y0221250D01*
X0208000Y0211250D02*
X0202000Y0211250D01*
X0202000Y0201250D02*
X0208000Y0201250D01*
X0208000Y0191250D02*
X0202000Y0191250D01*
X0202000Y0181250D02*
X0208000Y0181250D01*
X0208000Y0171250D02*
X0202000Y0171250D01*
X0202000Y0161250D02*
X0208000Y0161250D01*
X0208000Y0151250D02*
X0202000Y0151250D01*
X0202000Y0131250D02*
X0208000Y0131250D01*
X0208000Y0121250D02*
X0202000Y0121250D01*
X0202000Y0111250D02*
X0208000Y0111250D01*
X0208000Y0101250D02*
X0202000Y0101250D01*
X0202000Y0091250D02*
X0208000Y0091250D01*
X0208000Y0081250D02*
X0202000Y0081250D01*
X0202000Y0071250D02*
X0208000Y0071250D01*
X0208000Y0061250D02*
X0202000Y0061250D01*
X0160000Y0078250D02*
X0160000Y0084250D01*
X0150000Y0084250D02*
X0150000Y0078250D01*
X0150000Y0113250D02*
X0150000Y0119250D01*
X0160000Y0119250D02*
X0160000Y0113250D01*
D13*
X0130000Y0126250D03*
X0130000Y0136250D03*
X0120000Y0136250D03*
X0120000Y0126250D03*
X0110000Y0126250D03*
X0110000Y0136250D03*
X0100000Y0136250D03*
X0100000Y0126250D03*
X0095000Y0031250D03*
X0095000Y0021250D03*
X0085000Y0021250D03*
X0085000Y0031250D03*
X0075000Y0031250D03*
X0075000Y0021250D03*
X0065000Y0021250D03*
X0065000Y0031250D03*
X0055000Y0031250D03*
X0055000Y0021250D03*
X0045000Y0021250D03*
X0045000Y0031250D03*
X0035000Y0031250D03*
X0035000Y0021250D03*
X0105000Y0021250D03*
X0105000Y0031250D03*
X0115000Y0031250D03*
X0115000Y0021250D03*
X0125000Y0021250D03*
X0125000Y0031250D03*
X0135000Y0031250D03*
X0135000Y0021250D03*
X0145000Y0021250D03*
X0145000Y0031250D03*
X0155000Y0031250D03*
X0155000Y0021250D03*
X0165000Y0021250D03*
X0165000Y0031250D03*
X0175000Y0031250D03*
X0175000Y0021250D03*
X0185000Y0021250D03*
X0185000Y0031250D03*
X0195000Y0031250D03*
X0195000Y0021250D03*
X0205000Y0021250D03*
X0205000Y0031250D03*
D14*
X0059300Y0357352D02*
X0050700Y0357352D01*
X0043189Y0371950D02*
X0043189Y0380550D01*
X0066811Y0380550D02*
X0066811Y0371950D01*
D15*
X0066600Y0375850D02*
X0066811Y0376250D01*
X0066600Y0375850D02*
X0061800Y0375850D01*
X0031200Y0345250D01*
X0031200Y0320050D01*
X0035000Y0316250D01*
X0035400Y0341050D02*
X0035000Y0341250D01*
X0035400Y0341050D02*
X0049800Y0341050D01*
X0061200Y0329650D01*
X0111600Y0329650D01*
X0120000Y0321250D01*
X0124800Y0315850D02*
X0121800Y0312850D01*
X0116400Y0312850D01*
X0094800Y0291250D01*
X0080000Y0291250D01*
X0080400Y0266650D02*
X0080000Y0266250D01*
X0080400Y0266650D02*
X0085200Y0266650D01*
X0131400Y0312850D01*
X0132000Y0312850D01*
X0140400Y0321250D01*
X0140000Y0321250D01*
X0141600Y0329650D02*
X0150000Y0321250D01*
X0141600Y0329650D02*
X0126600Y0329650D01*
X0115000Y0341250D01*
X0110400Y0335650D02*
X0110400Y0356050D01*
X0169800Y0356050D01*
X0170000Y0356250D01*
X0166200Y0350650D02*
X0168000Y0348850D01*
X0171000Y0348850D01*
X0212400Y0307450D01*
X0212400Y0264850D01*
X0205200Y0257650D01*
X0205200Y0256450D01*
X0205000Y0256250D01*
X0207600Y0252250D02*
X0199800Y0252250D01*
X0172800Y0279250D01*
X0170400Y0286450D02*
X0174000Y0290050D01*
X0174000Y0322450D01*
X0170400Y0326050D01*
X0170000Y0326250D01*
X0178200Y0326650D02*
X0163800Y0341050D01*
X0154800Y0341050D01*
X0154800Y0286450D01*
X0135000Y0266650D01*
X0135000Y0266250D01*
X0135000Y0266050D01*
X0131400Y0262450D01*
X0068400Y0262450D01*
X0064800Y0266050D01*
X0050400Y0266050D01*
X0050000Y0266250D01*
X0046200Y0261250D02*
X0135000Y0261250D01*
X0139800Y0266050D01*
X0150000Y0266050D01*
X0150000Y0266250D01*
X0156000Y0236050D02*
X0149400Y0229450D01*
X0149400Y0204250D01*
X0141000Y0195850D01*
X0141000Y0168850D01*
X0150600Y0159250D01*
X0150600Y0135250D01*
X0157200Y0128650D01*
X0156000Y0123850D02*
X0156000Y0070450D01*
X0195000Y0031450D01*
X0195000Y0031250D01*
X0193200Y0027250D02*
X0189000Y0031450D01*
X0189000Y0035650D01*
X0150600Y0074050D01*
X0087600Y0074050D01*
X0080400Y0081250D01*
X0080000Y0081250D01*
X0070200Y0081250D02*
X0070000Y0081250D01*
X0070200Y0081250D02*
X0070200Y0111250D01*
X0070000Y0111250D01*
X0068400Y0118450D02*
X0121800Y0118450D01*
X0150600Y0089650D01*
X0154200Y0066850D02*
X0075600Y0066850D01*
X0061200Y0081250D01*
X0060000Y0081250D01*
X0045000Y0107050D02*
X0070200Y0132250D01*
X0106200Y0132250D01*
X0109800Y0135850D01*
X0110000Y0136250D01*
X0111600Y0140650D02*
X0115800Y0136450D01*
X0115800Y0134650D01*
X0120000Y0130450D01*
X0125400Y0130450D01*
X0129600Y0126250D01*
X0130000Y0126250D01*
X0142200Y0129850D02*
X0123000Y0149050D01*
X0088200Y0149050D01*
X0085800Y0151450D01*
X0085800Y0182050D01*
X0090000Y0186250D01*
X0090000Y0156250D02*
X0123600Y0156250D01*
X0156000Y0123850D01*
X0159600Y0122050D02*
X0159600Y0116650D01*
X0160000Y0116250D01*
X0159600Y0122050D02*
X0145200Y0136450D01*
X0145200Y0156250D01*
X0145000Y0156250D01*
X0144600Y0156250D01*
X0144600Y0163450D01*
X0139800Y0168250D01*
X0139800Y0221050D01*
X0145000Y0226250D01*
X0155000Y0226250D02*
X0155400Y0225850D01*
X0155400Y0209650D01*
X0196800Y0168250D01*
X0196800Y0129250D01*
X0204600Y0121450D01*
X0205000Y0121250D01*
X0197400Y0123850D02*
X0165000Y0156250D01*
X0160800Y0151450D02*
X0164400Y0147850D01*
X0164400Y0071650D01*
X0200400Y0035650D01*
X0206400Y0035650D01*
X0209400Y0032650D01*
X0209400Y0029650D01*
X0205800Y0026050D01*
X0174600Y0026050D01*
X0169800Y0030850D01*
X0165000Y0030850D01*
X0165000Y0031250D01*
X0193200Y0027250D02*
X0196800Y0027250D01*
X0200400Y0030850D01*
X0204600Y0030850D01*
X0205000Y0031250D01*
X0205000Y0091250D02*
X0204600Y0091450D01*
X0197400Y0098650D01*
X0197400Y0123850D01*
X0205000Y0131250D02*
X0198000Y0138250D01*
X0198000Y0168850D01*
X0165000Y0201850D01*
X0165000Y0226250D01*
X0156000Y0236050D02*
X0204600Y0236050D01*
X0205000Y0236250D01*
X0210600Y0240850D02*
X0212400Y0239050D01*
X0212400Y0219850D01*
X0205200Y0212650D01*
X0205200Y0211450D01*
X0205000Y0211250D01*
X0213600Y0210850D02*
X0205200Y0202450D01*
X0205200Y0201250D01*
X0205000Y0201250D01*
X0213600Y0210850D02*
X0213600Y0246250D01*
X0207600Y0252250D01*
X0205000Y0266250D02*
X0204600Y0266650D01*
X0204600Y0267850D01*
X0184200Y0288250D01*
X0184200Y0330850D01*
X0165600Y0349450D01*
X0142800Y0349450D01*
X0135000Y0341650D01*
X0135000Y0341250D01*
X0134400Y0350650D02*
X0125000Y0341250D01*
X0118200Y0333250D02*
X0112800Y0333250D01*
X0110400Y0335650D01*
X0118200Y0333250D02*
X0124800Y0326650D01*
X0124800Y0315850D01*
X0134400Y0350650D02*
X0166200Y0350650D01*
X0154800Y0341050D02*
X0145200Y0341050D01*
X0145000Y0341250D01*
X0170400Y0286450D02*
X0170400Y0266650D01*
X0170000Y0266250D01*
X0180000Y0326250D02*
X0180000Y0326650D01*
X0178200Y0326650D01*
X0110400Y0356050D02*
X0099600Y0356050D01*
X0085200Y0341650D01*
X0085000Y0341250D01*
X0050000Y0291250D02*
X0049800Y0291250D01*
X0046200Y0287650D01*
X0046200Y0261250D01*
X0046200Y0252850D01*
X0015000Y0221650D01*
X0015000Y0221250D01*
X0015000Y0201250D02*
X0022200Y0194050D01*
X0022200Y0185050D01*
X0058200Y0149050D01*
X0071400Y0149050D01*
X0078600Y0156250D01*
X0080000Y0156250D01*
X0070200Y0156250D02*
X0070000Y0156250D01*
X0070200Y0156250D02*
X0070200Y0186250D01*
X0070000Y0186250D01*
X0060000Y0186250D02*
X0060000Y0156250D01*
X0064800Y0140650D02*
X0111600Y0140650D01*
X0110000Y0126250D02*
X0109800Y0126250D01*
X0105600Y0122050D01*
X0061800Y0122050D01*
X0051000Y0111250D01*
X0051000Y0029650D01*
X0054600Y0026050D01*
X0054600Y0021250D01*
X0055000Y0021250D01*
X0045000Y0031250D02*
X0045000Y0107050D01*
X0060000Y0111250D02*
X0061200Y0111250D01*
X0068400Y0118450D01*
X0064800Y0140650D02*
X0019800Y0185650D01*
X0012000Y0185650D01*
X0007800Y0189850D01*
X0007800Y0252850D01*
X0015000Y0260050D01*
X0015000Y0261250D01*
X0060000Y0246250D02*
X0060000Y0216250D01*
X0142200Y0129850D02*
X0146400Y0129850D01*
X0160800Y0151450D02*
X0160800Y0161050D01*
X0149400Y0172450D01*
X0147000Y0172450D01*
D16*
X0147000Y0172450D03*
X0146400Y0129850D03*
X0157200Y0128650D03*
X0150600Y0089650D03*
X0154200Y0066850D03*
X0129600Y0069850D03*
X0197400Y0123850D03*
X0210600Y0240850D03*
X0172800Y0279250D03*
M02*
