G75*
%MOIN*%
%OFA0B0*%
%FSLAX25Y25*%
%IPPOS*%
%LPD*%
%AMOC8*
5,1,8,0,0,1.08239X$1,22.5*
%
%ADD10C,0.00600*%
%ADD11C,0.01200*%
%ADD12C,0.00500*%
%ADD13R,0.02000X0.07000*%
%ADD14C,0.00400*%
%ADD15R,0.74606X0.06594*%
%ADD16C,0.00394*%
D10*
X0012500Y0036250D02*
X0010000Y0038750D01*
X0010000Y0043750D01*
X0012500Y0046250D01*
X0010000Y0048750D01*
X0010000Y0053750D01*
X0012500Y0056250D01*
X0010000Y0058750D01*
X0010000Y0063750D01*
X0012500Y0066250D01*
X0010000Y0068750D01*
X0010000Y0073750D01*
X0012500Y0076250D01*
X0010000Y0078750D01*
X0010000Y0083750D01*
X0012500Y0086250D01*
X0010000Y0088750D01*
X0010000Y0093750D01*
X0012500Y0096250D01*
X0010000Y0098750D01*
X0010000Y0103750D01*
X0012500Y0106250D01*
X0010000Y0108750D01*
X0010000Y0113750D01*
X0012500Y0116250D01*
X0017500Y0116250D01*
X0020000Y0113750D01*
X0020000Y0108750D01*
X0017500Y0106250D01*
X0012500Y0106250D01*
X0017500Y0106250D02*
X0020000Y0103750D01*
X0020000Y0098750D01*
X0017500Y0096250D01*
X0020000Y0093750D01*
X0020000Y0088750D01*
X0017500Y0086250D01*
X0020000Y0083750D01*
X0020000Y0078750D01*
X0017500Y0076250D01*
X0012500Y0076250D01*
X0012500Y0066250D02*
X0017500Y0066250D01*
X0020000Y0063750D01*
X0020000Y0058750D01*
X0017500Y0056250D01*
X0020000Y0053750D01*
X0020000Y0048750D01*
X0017500Y0046250D01*
X0020000Y0043750D01*
X0020000Y0038750D01*
X0017500Y0036250D01*
X0017500Y0046250D02*
X0012500Y0046250D01*
X0012500Y0056250D02*
X0017500Y0056250D01*
X0017500Y0066250D02*
X0020000Y0068750D01*
X0020000Y0073750D01*
X0017500Y0076250D01*
X0017500Y0086250D02*
X0012500Y0086250D01*
X0012500Y0096250D02*
X0017500Y0096250D01*
X0017500Y0126250D02*
X0012500Y0126250D01*
X0010000Y0128750D01*
X0010000Y0133750D01*
X0012500Y0136250D01*
X0010000Y0138750D01*
X0010000Y0143750D01*
X0012500Y0146250D01*
X0010000Y0148750D01*
X0010000Y0153750D01*
X0012500Y0156250D01*
X0010000Y0158750D01*
X0010000Y0163750D01*
X0012500Y0166250D01*
X0010000Y0168750D01*
X0010000Y0173750D01*
X0012500Y0176250D01*
X0010000Y0178750D01*
X0010000Y0183750D01*
X0012500Y0186250D01*
X0010000Y0188750D01*
X0010000Y0193750D01*
X0012500Y0196250D01*
X0010000Y0198750D01*
X0010000Y0203750D01*
X0012500Y0206250D01*
X0017500Y0206250D01*
X0020000Y0203750D01*
X0020000Y0198750D01*
X0017500Y0196250D01*
X0012500Y0196250D01*
X0017500Y0196250D02*
X0020000Y0193750D01*
X0020000Y0188750D01*
X0017500Y0186250D01*
X0020000Y0183750D01*
X0020000Y0178750D01*
X0017500Y0176250D01*
X0020000Y0173750D01*
X0020000Y0168750D01*
X0017500Y0166250D01*
X0012500Y0166250D01*
X0012500Y0156250D02*
X0017500Y0156250D01*
X0020000Y0153750D01*
X0020000Y0148750D01*
X0017500Y0146250D01*
X0020000Y0143750D01*
X0020000Y0138750D01*
X0017500Y0136250D01*
X0020000Y0133750D01*
X0020000Y0128750D01*
X0017500Y0126250D01*
X0017500Y0136250D02*
X0012500Y0136250D01*
X0012500Y0146250D02*
X0017500Y0146250D01*
X0017500Y0156250D02*
X0020000Y0158750D01*
X0020000Y0163750D01*
X0017500Y0166250D01*
X0017500Y0176250D02*
X0012500Y0176250D01*
X0012500Y0186250D02*
X0017500Y0186250D01*
X0017500Y0216250D02*
X0012500Y0216250D01*
X0010000Y0218750D01*
X0010000Y0223750D01*
X0012500Y0226250D01*
X0010000Y0228750D01*
X0010000Y0233750D01*
X0012500Y0236250D01*
X0010000Y0238750D01*
X0010000Y0243750D01*
X0012500Y0246250D01*
X0010000Y0248750D01*
X0010000Y0253750D01*
X0012500Y0256250D01*
X0010000Y0258750D01*
X0010000Y0263750D01*
X0012500Y0266250D01*
X0010000Y0268750D01*
X0010000Y0273750D01*
X0012500Y0276250D01*
X0017500Y0276250D01*
X0020000Y0273750D01*
X0020000Y0268750D01*
X0017500Y0266250D01*
X0012500Y0266250D01*
X0012500Y0256250D02*
X0017500Y0256250D01*
X0020000Y0253750D01*
X0020000Y0248750D01*
X0017500Y0246250D01*
X0020000Y0243750D01*
X0020000Y0238750D01*
X0017500Y0236250D01*
X0012500Y0236250D01*
X0012500Y0246250D02*
X0017500Y0246250D01*
X0017500Y0236250D02*
X0020000Y0233750D01*
X0020000Y0228750D01*
X0017500Y0226250D01*
X0020000Y0223750D01*
X0020000Y0218750D01*
X0017500Y0216250D01*
X0017500Y0226250D02*
X0012500Y0226250D01*
X0017500Y0256250D02*
X0020000Y0258750D01*
X0020000Y0263750D01*
X0017500Y0266250D01*
X0038500Y0311750D02*
X0051500Y0311750D01*
X0051587Y0311752D01*
X0051674Y0311758D01*
X0051761Y0311767D01*
X0051847Y0311780D01*
X0051933Y0311797D01*
X0052018Y0311818D01*
X0052101Y0311843D01*
X0052184Y0311871D01*
X0052265Y0311902D01*
X0052345Y0311937D01*
X0052423Y0311976D01*
X0052500Y0312018D01*
X0052575Y0312063D01*
X0052647Y0312112D01*
X0052718Y0312163D01*
X0052786Y0312218D01*
X0052851Y0312275D01*
X0052914Y0312336D01*
X0052975Y0312399D01*
X0053032Y0312464D01*
X0053087Y0312532D01*
X0053138Y0312603D01*
X0053187Y0312675D01*
X0053232Y0312750D01*
X0053274Y0312827D01*
X0053313Y0312905D01*
X0053348Y0312985D01*
X0053379Y0313066D01*
X0053407Y0313149D01*
X0053432Y0313232D01*
X0053453Y0313317D01*
X0053470Y0313403D01*
X0053483Y0313489D01*
X0053492Y0313576D01*
X0053498Y0313663D01*
X0053500Y0313750D01*
X0050000Y0316250D02*
X0046300Y0316250D01*
X0043800Y0316250D02*
X0040000Y0316250D01*
X0036500Y0318750D02*
X0036502Y0318837D01*
X0036508Y0318924D01*
X0036517Y0319011D01*
X0036530Y0319097D01*
X0036547Y0319183D01*
X0036568Y0319268D01*
X0036593Y0319351D01*
X0036621Y0319434D01*
X0036652Y0319515D01*
X0036687Y0319595D01*
X0036726Y0319673D01*
X0036768Y0319750D01*
X0036813Y0319825D01*
X0036862Y0319897D01*
X0036913Y0319968D01*
X0036968Y0320036D01*
X0037025Y0320101D01*
X0037086Y0320164D01*
X0037149Y0320225D01*
X0037214Y0320282D01*
X0037282Y0320337D01*
X0037353Y0320388D01*
X0037425Y0320437D01*
X0037500Y0320482D01*
X0037577Y0320524D01*
X0037655Y0320563D01*
X0037735Y0320598D01*
X0037816Y0320629D01*
X0037899Y0320657D01*
X0037982Y0320682D01*
X0038067Y0320703D01*
X0038153Y0320720D01*
X0038239Y0320733D01*
X0038326Y0320742D01*
X0038413Y0320748D01*
X0038500Y0320750D01*
X0051500Y0320750D01*
X0051587Y0320748D01*
X0051674Y0320742D01*
X0051761Y0320733D01*
X0051847Y0320720D01*
X0051933Y0320703D01*
X0052018Y0320682D01*
X0052101Y0320657D01*
X0052184Y0320629D01*
X0052265Y0320598D01*
X0052345Y0320563D01*
X0052423Y0320524D01*
X0052500Y0320482D01*
X0052575Y0320437D01*
X0052647Y0320388D01*
X0052718Y0320337D01*
X0052786Y0320282D01*
X0052851Y0320225D01*
X0052914Y0320164D01*
X0052975Y0320101D01*
X0053032Y0320036D01*
X0053087Y0319968D01*
X0053138Y0319897D01*
X0053187Y0319825D01*
X0053232Y0319750D01*
X0053274Y0319673D01*
X0053313Y0319595D01*
X0053348Y0319515D01*
X0053379Y0319434D01*
X0053407Y0319351D01*
X0053432Y0319268D01*
X0053453Y0319183D01*
X0053470Y0319097D01*
X0053483Y0319011D01*
X0053492Y0318924D01*
X0053498Y0318837D01*
X0053500Y0318750D01*
X0051500Y0336750D02*
X0038500Y0336750D01*
X0038413Y0336752D01*
X0038326Y0336758D01*
X0038239Y0336767D01*
X0038153Y0336780D01*
X0038067Y0336797D01*
X0037982Y0336818D01*
X0037899Y0336843D01*
X0037816Y0336871D01*
X0037735Y0336902D01*
X0037655Y0336937D01*
X0037577Y0336976D01*
X0037500Y0337018D01*
X0037425Y0337063D01*
X0037353Y0337112D01*
X0037282Y0337163D01*
X0037214Y0337218D01*
X0037149Y0337275D01*
X0037086Y0337336D01*
X0037025Y0337399D01*
X0036968Y0337464D01*
X0036913Y0337532D01*
X0036862Y0337603D01*
X0036813Y0337675D01*
X0036768Y0337750D01*
X0036726Y0337827D01*
X0036687Y0337905D01*
X0036652Y0337985D01*
X0036621Y0338066D01*
X0036593Y0338149D01*
X0036568Y0338232D01*
X0036547Y0338317D01*
X0036530Y0338403D01*
X0036517Y0338489D01*
X0036508Y0338576D01*
X0036502Y0338663D01*
X0036500Y0338750D01*
X0036500Y0343750D02*
X0036502Y0343837D01*
X0036508Y0343924D01*
X0036517Y0344011D01*
X0036530Y0344097D01*
X0036547Y0344183D01*
X0036568Y0344268D01*
X0036593Y0344351D01*
X0036621Y0344434D01*
X0036652Y0344515D01*
X0036687Y0344595D01*
X0036726Y0344673D01*
X0036768Y0344750D01*
X0036813Y0344825D01*
X0036862Y0344897D01*
X0036913Y0344968D01*
X0036968Y0345036D01*
X0037025Y0345101D01*
X0037086Y0345164D01*
X0037149Y0345225D01*
X0037214Y0345282D01*
X0037282Y0345337D01*
X0037353Y0345388D01*
X0037425Y0345437D01*
X0037500Y0345482D01*
X0037577Y0345524D01*
X0037655Y0345563D01*
X0037735Y0345598D01*
X0037816Y0345629D01*
X0037899Y0345657D01*
X0037982Y0345682D01*
X0038067Y0345703D01*
X0038153Y0345720D01*
X0038239Y0345733D01*
X0038326Y0345742D01*
X0038413Y0345748D01*
X0038500Y0345750D01*
X0051500Y0345750D01*
X0051587Y0345748D01*
X0051674Y0345742D01*
X0051761Y0345733D01*
X0051847Y0345720D01*
X0051933Y0345703D01*
X0052018Y0345682D01*
X0052101Y0345657D01*
X0052184Y0345629D01*
X0052265Y0345598D01*
X0052345Y0345563D01*
X0052423Y0345524D01*
X0052500Y0345482D01*
X0052575Y0345437D01*
X0052647Y0345388D01*
X0052718Y0345337D01*
X0052786Y0345282D01*
X0052851Y0345225D01*
X0052914Y0345164D01*
X0052975Y0345101D01*
X0053032Y0345036D01*
X0053087Y0344968D01*
X0053138Y0344897D01*
X0053187Y0344825D01*
X0053232Y0344750D01*
X0053274Y0344673D01*
X0053313Y0344595D01*
X0053348Y0344515D01*
X0053379Y0344434D01*
X0053407Y0344351D01*
X0053432Y0344268D01*
X0053453Y0344183D01*
X0053470Y0344097D01*
X0053483Y0344011D01*
X0053492Y0343924D01*
X0053498Y0343837D01*
X0053500Y0343750D01*
X0050000Y0341250D02*
X0046300Y0341250D01*
X0043800Y0341250D02*
X0040000Y0341250D01*
X0051500Y0336750D02*
X0051587Y0336752D01*
X0051674Y0336758D01*
X0051761Y0336767D01*
X0051847Y0336780D01*
X0051933Y0336797D01*
X0052018Y0336818D01*
X0052101Y0336843D01*
X0052184Y0336871D01*
X0052265Y0336902D01*
X0052345Y0336937D01*
X0052423Y0336976D01*
X0052500Y0337018D01*
X0052575Y0337063D01*
X0052647Y0337112D01*
X0052718Y0337163D01*
X0052786Y0337218D01*
X0052851Y0337275D01*
X0052914Y0337336D01*
X0052975Y0337399D01*
X0053032Y0337464D01*
X0053087Y0337532D01*
X0053138Y0337603D01*
X0053187Y0337675D01*
X0053232Y0337750D01*
X0053274Y0337827D01*
X0053313Y0337905D01*
X0053348Y0337985D01*
X0053379Y0338066D01*
X0053407Y0338149D01*
X0053432Y0338232D01*
X0053453Y0338317D01*
X0053470Y0338403D01*
X0053483Y0338489D01*
X0053492Y0338576D01*
X0053498Y0338663D01*
X0053500Y0338750D01*
X0036500Y0313750D02*
X0036502Y0313663D01*
X0036508Y0313576D01*
X0036517Y0313489D01*
X0036530Y0313403D01*
X0036547Y0313317D01*
X0036568Y0313232D01*
X0036593Y0313149D01*
X0036621Y0313066D01*
X0036652Y0312985D01*
X0036687Y0312905D01*
X0036726Y0312827D01*
X0036768Y0312750D01*
X0036813Y0312675D01*
X0036862Y0312603D01*
X0036913Y0312532D01*
X0036968Y0312464D01*
X0037025Y0312399D01*
X0037086Y0312336D01*
X0037149Y0312275D01*
X0037214Y0312218D01*
X0037282Y0312163D01*
X0037353Y0312112D01*
X0037425Y0312063D01*
X0037500Y0312018D01*
X0037577Y0311976D01*
X0037655Y0311937D01*
X0037735Y0311902D01*
X0037816Y0311871D01*
X0037899Y0311843D01*
X0037982Y0311818D01*
X0038067Y0311797D01*
X0038153Y0311780D01*
X0038239Y0311767D01*
X0038326Y0311758D01*
X0038413Y0311752D01*
X0038500Y0311750D01*
X0054000Y0291250D02*
X0054500Y0291250D01*
X0054500Y0287750D01*
X0065500Y0287750D01*
X0065500Y0291250D01*
X0065500Y0294750D01*
X0054500Y0294750D01*
X0054500Y0291250D01*
X0065500Y0291250D02*
X0066000Y0291250D01*
X0065500Y0269750D02*
X0054500Y0269750D01*
X0054500Y0266250D01*
X0054500Y0262750D01*
X0065500Y0262750D01*
X0065500Y0266250D01*
X0065500Y0269750D01*
X0065500Y0266250D02*
X0066000Y0266250D01*
X0067500Y0251250D02*
X0065000Y0248750D01*
X0062500Y0251250D01*
X0057500Y0251250D01*
X0055000Y0248750D01*
X0055000Y0243750D01*
X0057500Y0241250D01*
X0062500Y0241250D01*
X0065000Y0243750D01*
X0067500Y0241250D01*
X0072500Y0241250D01*
X0075000Y0243750D01*
X0077500Y0241250D01*
X0082500Y0241250D01*
X0085000Y0243750D01*
X0087500Y0241250D01*
X0092500Y0241250D01*
X0095000Y0243750D01*
X0095000Y0248750D01*
X0092500Y0251250D01*
X0087500Y0251250D01*
X0085000Y0248750D01*
X0082500Y0251250D01*
X0077500Y0251250D01*
X0075000Y0248750D01*
X0072500Y0251250D01*
X0067500Y0251250D01*
X0054500Y0266250D02*
X0054000Y0266250D01*
X0057500Y0221250D02*
X0055000Y0218750D01*
X0055000Y0213750D01*
X0057500Y0211250D01*
X0062500Y0211250D01*
X0065000Y0213750D01*
X0067500Y0211250D01*
X0072500Y0211250D01*
X0075000Y0213750D01*
X0077500Y0211250D01*
X0082500Y0211250D01*
X0085000Y0213750D01*
X0087500Y0211250D01*
X0092500Y0211250D01*
X0095000Y0213750D01*
X0095000Y0218750D01*
X0092500Y0221250D01*
X0087500Y0221250D01*
X0085000Y0218750D01*
X0082500Y0221250D01*
X0077500Y0221250D01*
X0075000Y0218750D01*
X0072500Y0221250D01*
X0067500Y0221250D01*
X0065000Y0218750D01*
X0062500Y0221250D01*
X0057500Y0221250D01*
X0057500Y0191250D02*
X0055000Y0188750D01*
X0055000Y0183750D01*
X0057500Y0181250D01*
X0062500Y0181250D01*
X0065000Y0183750D01*
X0067500Y0181250D01*
X0072500Y0181250D01*
X0075000Y0183750D01*
X0077500Y0181250D01*
X0082500Y0181250D01*
X0085000Y0183750D01*
X0087500Y0181250D01*
X0092500Y0181250D01*
X0095000Y0183750D01*
X0095000Y0188750D01*
X0092500Y0191250D01*
X0087500Y0191250D01*
X0085000Y0188750D01*
X0082500Y0191250D01*
X0077500Y0191250D01*
X0075000Y0188750D01*
X0072500Y0191250D01*
X0067500Y0191250D01*
X0065000Y0188750D01*
X0062500Y0191250D01*
X0057500Y0191250D01*
X0057500Y0161250D02*
X0055000Y0158750D01*
X0055000Y0153750D01*
X0057500Y0151250D01*
X0062500Y0151250D01*
X0065000Y0153750D01*
X0067500Y0151250D01*
X0072500Y0151250D01*
X0075000Y0153750D01*
X0077500Y0151250D01*
X0082500Y0151250D01*
X0085000Y0153750D01*
X0087500Y0151250D01*
X0092500Y0151250D01*
X0095000Y0153750D01*
X0095000Y0158750D01*
X0092500Y0161250D01*
X0087500Y0161250D01*
X0085000Y0158750D01*
X0082500Y0161250D01*
X0077500Y0161250D01*
X0075000Y0158750D01*
X0072500Y0161250D01*
X0067500Y0161250D01*
X0065000Y0158750D01*
X0062500Y0161250D01*
X0057500Y0161250D01*
X0057500Y0116250D02*
X0055000Y0113750D01*
X0055000Y0108750D01*
X0057500Y0106250D01*
X0062500Y0106250D01*
X0065000Y0108750D01*
X0067500Y0106250D01*
X0072500Y0106250D01*
X0075000Y0108750D01*
X0077500Y0106250D01*
X0082500Y0106250D01*
X0085000Y0108750D01*
X0085000Y0113750D01*
X0082500Y0116250D01*
X0077500Y0116250D01*
X0075000Y0113750D01*
X0072500Y0116250D01*
X0067500Y0116250D01*
X0065000Y0113750D01*
X0062500Y0116250D01*
X0057500Y0116250D01*
X0057500Y0086250D02*
X0055000Y0083750D01*
X0055000Y0078750D01*
X0057500Y0076250D01*
X0062500Y0076250D01*
X0065000Y0078750D01*
X0067500Y0076250D01*
X0072500Y0076250D01*
X0075000Y0078750D01*
X0077500Y0076250D01*
X0082500Y0076250D01*
X0085000Y0078750D01*
X0085000Y0083750D01*
X0082500Y0086250D01*
X0077500Y0086250D01*
X0075000Y0083750D01*
X0072500Y0086250D01*
X0067500Y0086250D01*
X0065000Y0083750D01*
X0062500Y0086250D01*
X0057500Y0086250D01*
X0057500Y0036250D02*
X0052500Y0036250D01*
X0050000Y0033750D01*
X0050000Y0018750D01*
X0047500Y0016250D01*
X0042500Y0016250D01*
X0040000Y0018750D01*
X0040000Y0033750D01*
X0042500Y0036250D01*
X0047500Y0036250D01*
X0050000Y0033750D01*
X0057500Y0036250D02*
X0060000Y0033750D01*
X0060000Y0018750D01*
X0057500Y0016250D01*
X0052500Y0016250D01*
X0050000Y0018750D01*
X0060000Y0018750D02*
X0062500Y0016250D01*
X0067500Y0016250D01*
X0070000Y0018750D01*
X0070000Y0033750D01*
X0072500Y0036250D01*
X0077500Y0036250D01*
X0080000Y0033750D01*
X0080000Y0018750D01*
X0077500Y0016250D01*
X0072500Y0016250D01*
X0070000Y0018750D01*
X0080000Y0018750D02*
X0082500Y0016250D01*
X0087500Y0016250D01*
X0090000Y0018750D01*
X0090000Y0033750D01*
X0092500Y0036250D01*
X0097500Y0036250D01*
X0100000Y0033750D01*
X0100000Y0018750D01*
X0097500Y0016250D01*
X0092500Y0016250D01*
X0090000Y0018750D01*
X0090000Y0033750D02*
X0087500Y0036250D01*
X0082500Y0036250D01*
X0080000Y0033750D01*
X0070000Y0033750D02*
X0067500Y0036250D01*
X0062500Y0036250D01*
X0060000Y0033750D01*
X0040000Y0033750D02*
X0037500Y0036250D01*
X0032500Y0036250D01*
X0030000Y0033750D01*
X0030000Y0018750D01*
X0032500Y0016250D01*
X0037500Y0016250D01*
X0040000Y0018750D01*
X0097500Y0121250D02*
X0095000Y0123750D01*
X0095000Y0138750D01*
X0097500Y0141250D01*
X0102500Y0141250D01*
X0105000Y0138750D01*
X0107500Y0141250D01*
X0112500Y0141250D01*
X0115000Y0138750D01*
X0117500Y0141250D01*
X0122500Y0141250D01*
X0125000Y0138750D01*
X0127500Y0141250D01*
X0132500Y0141250D01*
X0135000Y0138750D01*
X0135000Y0123750D01*
X0132500Y0121250D01*
X0127500Y0121250D01*
X0125000Y0123750D01*
X0122500Y0121250D01*
X0117500Y0121250D01*
X0115000Y0123750D01*
X0112500Y0121250D01*
X0107500Y0121250D01*
X0105000Y0123750D01*
X0102500Y0121250D01*
X0097500Y0121250D01*
X0140000Y0153750D02*
X0142500Y0151250D01*
X0147500Y0151250D01*
X0150000Y0153750D01*
X0152500Y0151250D01*
X0157500Y0151250D01*
X0160000Y0153750D01*
X0162500Y0151250D01*
X0167500Y0151250D01*
X0170000Y0153750D01*
X0170000Y0158750D01*
X0167500Y0161250D01*
X0162500Y0161250D01*
X0160000Y0158750D01*
X0157500Y0161250D01*
X0152500Y0161250D01*
X0150000Y0158750D01*
X0147500Y0161250D01*
X0142500Y0161250D01*
X0140000Y0158750D01*
X0140000Y0153750D01*
X0142500Y0186250D02*
X0147500Y0186250D01*
X0150000Y0188750D01*
X0152500Y0186250D01*
X0157500Y0186250D01*
X0160000Y0188750D01*
X0162500Y0186250D01*
X0167500Y0186250D01*
X0170000Y0188750D01*
X0170000Y0193750D01*
X0167500Y0196250D01*
X0162500Y0196250D01*
X0160000Y0193750D01*
X0157500Y0196250D01*
X0152500Y0196250D01*
X0150000Y0193750D01*
X0147500Y0196250D01*
X0142500Y0196250D01*
X0140000Y0193750D01*
X0140000Y0188750D01*
X0142500Y0186250D01*
X0142500Y0221250D02*
X0147500Y0221250D01*
X0150000Y0223750D01*
X0152500Y0221250D01*
X0157500Y0221250D01*
X0160000Y0223750D01*
X0162500Y0221250D01*
X0167500Y0221250D01*
X0170000Y0223750D01*
X0170000Y0228750D01*
X0167500Y0231250D01*
X0162500Y0231250D01*
X0160000Y0228750D01*
X0157500Y0231250D01*
X0152500Y0231250D01*
X0150000Y0228750D01*
X0147500Y0231250D01*
X0142500Y0231250D01*
X0140000Y0228750D01*
X0140000Y0223750D01*
X0142500Y0221250D01*
X0130500Y0262750D02*
X0119500Y0262750D01*
X0119500Y0266250D01*
X0119500Y0269750D01*
X0130500Y0269750D01*
X0130500Y0266250D01*
X0130500Y0262750D01*
X0130500Y0266250D02*
X0131000Y0266250D01*
X0119500Y0266250D02*
X0119000Y0266250D01*
X0119500Y0287750D02*
X0119500Y0291250D01*
X0119500Y0294750D01*
X0130500Y0294750D01*
X0130500Y0291250D01*
X0130500Y0287750D01*
X0119500Y0287750D01*
X0119500Y0291250D02*
X0119000Y0291250D01*
X0130500Y0291250D02*
X0131000Y0291250D01*
X0154000Y0291250D02*
X0154500Y0291250D01*
X0154500Y0287750D01*
X0165500Y0287750D01*
X0165500Y0291250D01*
X0165500Y0294750D01*
X0154500Y0294750D01*
X0154500Y0291250D01*
X0165500Y0291250D02*
X0166000Y0291250D01*
X0165500Y0269750D02*
X0154500Y0269750D01*
X0154500Y0266250D01*
X0154500Y0262750D01*
X0165500Y0262750D01*
X0165500Y0266250D01*
X0165500Y0269750D01*
X0165500Y0266250D02*
X0166000Y0266250D01*
X0154500Y0266250D02*
X0154000Y0266250D01*
X0167500Y0321250D02*
X0165000Y0323750D01*
X0165000Y0328750D01*
X0167500Y0331250D01*
X0172500Y0331250D01*
X0175000Y0328750D01*
X0177500Y0331250D01*
X0182500Y0331250D01*
X0185000Y0328750D01*
X0185000Y0323750D01*
X0182500Y0321250D01*
X0177500Y0321250D01*
X0175000Y0323750D01*
X0172500Y0321250D01*
X0167500Y0321250D01*
X0175000Y0323750D02*
X0175000Y0328750D01*
X0172500Y0351250D02*
X0167500Y0351250D01*
X0165000Y0353750D01*
X0165000Y0358750D01*
X0167500Y0361250D01*
X0172500Y0361250D01*
X0175000Y0358750D01*
X0177500Y0361250D01*
X0182500Y0361250D01*
X0185000Y0358750D01*
X0185000Y0353750D01*
X0182500Y0351250D01*
X0177500Y0351250D01*
X0175000Y0353750D01*
X0172500Y0351250D01*
X0175000Y0353750D02*
X0175000Y0358750D01*
X0152000Y0352250D02*
X0152000Y0338250D01*
X0151000Y0338250D01*
X0200000Y0308750D02*
X0200000Y0303750D01*
X0202500Y0301250D01*
X0207500Y0301250D01*
X0210000Y0303750D01*
X0210000Y0308750D01*
X0207500Y0311250D01*
X0202500Y0311250D01*
X0200000Y0308750D01*
X0202500Y0301250D02*
X0200000Y0298750D01*
X0200000Y0293750D01*
X0202500Y0291250D01*
X0207500Y0291250D01*
X0210000Y0293750D01*
X0210000Y0298750D01*
X0207500Y0301250D01*
X0207500Y0291250D02*
X0210000Y0288750D01*
X0210000Y0283750D01*
X0207500Y0281250D01*
X0210000Y0278750D01*
X0210000Y0273750D01*
X0207500Y0271250D01*
X0210000Y0268750D01*
X0210000Y0263750D01*
X0207500Y0261250D01*
X0210000Y0258750D01*
X0210000Y0253750D01*
X0207500Y0251250D01*
X0210000Y0248750D01*
X0210000Y0243750D01*
X0207500Y0241250D01*
X0210000Y0238750D01*
X0210000Y0233750D01*
X0207500Y0231250D01*
X0202500Y0231250D01*
X0200000Y0233750D01*
X0200000Y0238750D01*
X0202500Y0241250D01*
X0207500Y0241250D01*
X0202500Y0241250D02*
X0200000Y0243750D01*
X0200000Y0248750D01*
X0202500Y0251250D01*
X0200000Y0253750D01*
X0200000Y0258750D01*
X0202500Y0261250D01*
X0200000Y0263750D01*
X0200000Y0268750D01*
X0202500Y0271250D01*
X0207500Y0271250D01*
X0202500Y0271250D02*
X0200000Y0273750D01*
X0200000Y0278750D01*
X0202500Y0281250D01*
X0200000Y0283750D01*
X0200000Y0288750D01*
X0202500Y0291250D01*
X0202500Y0281250D02*
X0207500Y0281250D01*
X0207500Y0261250D02*
X0202500Y0261250D01*
X0202500Y0251250D02*
X0207500Y0251250D01*
X0207500Y0226250D02*
X0202500Y0226250D01*
X0200000Y0223750D01*
X0200000Y0218750D01*
X0202500Y0216250D01*
X0207500Y0216250D01*
X0210000Y0218750D01*
X0210000Y0223750D01*
X0207500Y0226250D01*
X0207500Y0216250D02*
X0210000Y0213750D01*
X0210000Y0208750D01*
X0207500Y0206250D01*
X0210000Y0203750D01*
X0210000Y0198750D01*
X0207500Y0196250D01*
X0210000Y0193750D01*
X0210000Y0188750D01*
X0207500Y0186250D01*
X0210000Y0183750D01*
X0210000Y0178750D01*
X0207500Y0176250D01*
X0210000Y0173750D01*
X0210000Y0168750D01*
X0207500Y0166250D01*
X0210000Y0163750D01*
X0210000Y0158750D01*
X0207500Y0156250D01*
X0210000Y0153750D01*
X0210000Y0148750D01*
X0207500Y0146250D01*
X0202500Y0146250D01*
X0200000Y0148750D01*
X0200000Y0153750D01*
X0202500Y0156250D01*
X0207500Y0156250D01*
X0202500Y0156250D02*
X0200000Y0158750D01*
X0200000Y0163750D01*
X0202500Y0166250D01*
X0200000Y0168750D01*
X0200000Y0173750D01*
X0202500Y0176250D01*
X0200000Y0178750D01*
X0200000Y0183750D01*
X0202500Y0186250D01*
X0207500Y0186250D01*
X0202500Y0186250D02*
X0200000Y0188750D01*
X0200000Y0193750D01*
X0202500Y0196250D01*
X0200000Y0198750D01*
X0200000Y0203750D01*
X0202500Y0206250D01*
X0200000Y0208750D01*
X0200000Y0213750D01*
X0202500Y0216250D01*
X0202500Y0206250D02*
X0207500Y0206250D01*
X0207500Y0196250D02*
X0202500Y0196250D01*
X0202500Y0176250D02*
X0207500Y0176250D01*
X0207500Y0166250D02*
X0202500Y0166250D01*
X0202500Y0136250D02*
X0207500Y0136250D01*
X0210000Y0133750D01*
X0210000Y0128750D01*
X0207500Y0126250D01*
X0210000Y0123750D01*
X0210000Y0118750D01*
X0207500Y0116250D01*
X0210000Y0113750D01*
X0210000Y0108750D01*
X0207500Y0106250D01*
X0210000Y0103750D01*
X0210000Y0098750D01*
X0207500Y0096250D01*
X0210000Y0093750D01*
X0210000Y0088750D01*
X0207500Y0086250D01*
X0210000Y0083750D01*
X0210000Y0078750D01*
X0207500Y0076250D01*
X0210000Y0073750D01*
X0210000Y0068750D01*
X0207500Y0066250D01*
X0210000Y0063750D01*
X0210000Y0058750D01*
X0207500Y0056250D01*
X0202500Y0056250D01*
X0200000Y0058750D01*
X0200000Y0063750D01*
X0202500Y0066250D01*
X0207500Y0066250D01*
X0202500Y0066250D02*
X0200000Y0068750D01*
X0200000Y0073750D01*
X0202500Y0076250D01*
X0200000Y0078750D01*
X0200000Y0083750D01*
X0202500Y0086250D01*
X0200000Y0088750D01*
X0200000Y0093750D01*
X0202500Y0096250D01*
X0207500Y0096250D01*
X0202500Y0096250D02*
X0200000Y0098750D01*
X0200000Y0103750D01*
X0202500Y0106250D01*
X0200000Y0108750D01*
X0200000Y0113750D01*
X0202500Y0116250D01*
X0200000Y0118750D01*
X0200000Y0123750D01*
X0202500Y0126250D01*
X0200000Y0128750D01*
X0200000Y0133750D01*
X0202500Y0136250D01*
X0202500Y0126250D02*
X0207500Y0126250D01*
X0207500Y0116250D02*
X0202500Y0116250D01*
X0202500Y0106250D02*
X0207500Y0106250D01*
X0207500Y0086250D02*
X0202500Y0086250D01*
X0202500Y0076250D02*
X0207500Y0076250D01*
X0207500Y0036250D02*
X0202500Y0036250D01*
X0200000Y0033750D01*
X0200000Y0018750D01*
X0197500Y0016250D01*
X0192500Y0016250D01*
X0190000Y0018750D01*
X0190000Y0033750D01*
X0187500Y0036250D01*
X0182500Y0036250D01*
X0180000Y0033750D01*
X0180000Y0018750D01*
X0177500Y0016250D01*
X0172500Y0016250D01*
X0170000Y0018750D01*
X0170000Y0033750D01*
X0167500Y0036250D01*
X0162500Y0036250D01*
X0160000Y0033750D01*
X0160000Y0018750D01*
X0157500Y0016250D01*
X0152500Y0016250D01*
X0150000Y0018750D01*
X0150000Y0033750D01*
X0147500Y0036250D01*
X0142500Y0036250D01*
X0140000Y0033750D01*
X0140000Y0018750D01*
X0137500Y0016250D01*
X0132500Y0016250D01*
X0130000Y0018750D01*
X0130000Y0033750D01*
X0132500Y0036250D01*
X0137500Y0036250D01*
X0140000Y0033750D01*
X0130000Y0033750D02*
X0127500Y0036250D01*
X0122500Y0036250D01*
X0120000Y0033750D01*
X0120000Y0018750D01*
X0117500Y0016250D01*
X0112500Y0016250D01*
X0110000Y0018750D01*
X0110000Y0033750D01*
X0112500Y0036250D01*
X0117500Y0036250D01*
X0120000Y0033750D01*
X0120000Y0018750D02*
X0122500Y0016250D01*
X0127500Y0016250D01*
X0130000Y0018750D01*
X0140000Y0018750D02*
X0142500Y0016250D01*
X0147500Y0016250D01*
X0150000Y0018750D01*
X0160000Y0018750D02*
X0162500Y0016250D01*
X0167500Y0016250D01*
X0170000Y0018750D01*
X0170000Y0033750D02*
X0172500Y0036250D01*
X0177500Y0036250D01*
X0180000Y0033750D01*
X0190000Y0033750D02*
X0192500Y0036250D01*
X0197500Y0036250D01*
X0200000Y0033750D01*
X0207500Y0036250D02*
X0210000Y0033750D01*
X0210000Y0018750D01*
X0207500Y0016250D01*
X0202500Y0016250D01*
X0200000Y0018750D01*
X0190000Y0018750D02*
X0187500Y0016250D01*
X0182500Y0016250D01*
X0180000Y0018750D01*
X0160000Y0033750D02*
X0157500Y0036250D01*
X0152500Y0036250D01*
X0150000Y0033750D01*
X0152500Y0076250D02*
X0147500Y0076250D01*
X0145000Y0078750D01*
X0145000Y0083750D01*
X0147500Y0086250D01*
X0152500Y0086250D01*
X0155000Y0083750D01*
X0157500Y0086250D01*
X0162500Y0086250D01*
X0165000Y0083750D01*
X0165000Y0078750D01*
X0162500Y0076250D01*
X0157500Y0076250D01*
X0155000Y0078750D01*
X0152500Y0076250D01*
X0155000Y0078750D02*
X0155000Y0083750D01*
X0152500Y0111250D02*
X0147500Y0111250D01*
X0145000Y0113750D01*
X0145000Y0118750D01*
X0147500Y0121250D01*
X0152500Y0121250D01*
X0155000Y0118750D01*
X0157500Y0121250D01*
X0162500Y0121250D01*
X0165000Y0118750D01*
X0165000Y0113750D01*
X0162500Y0111250D01*
X0157500Y0111250D01*
X0155000Y0113750D01*
X0152500Y0111250D01*
X0155000Y0113750D02*
X0155000Y0118750D01*
X0107500Y0036250D02*
X0110000Y0033750D01*
X0107500Y0036250D02*
X0102500Y0036250D01*
X0100000Y0033750D01*
X0100000Y0018750D02*
X0102500Y0016250D01*
X0107500Y0016250D01*
X0110000Y0018750D01*
X0095500Y0262750D02*
X0084500Y0262750D01*
X0084500Y0266250D01*
X0084500Y0269750D01*
X0095500Y0269750D01*
X0095500Y0266250D01*
X0095500Y0262750D01*
X0095500Y0266250D02*
X0096000Y0266250D01*
X0084500Y0266250D02*
X0084000Y0266250D01*
X0084500Y0287750D02*
X0084500Y0291250D01*
X0084500Y0294750D01*
X0095500Y0294750D01*
X0095500Y0291250D01*
X0095500Y0287750D01*
X0084500Y0287750D01*
X0084500Y0291250D02*
X0084000Y0291250D01*
X0095500Y0291250D02*
X0096000Y0291250D01*
X0079000Y0338250D02*
X0078000Y0338250D01*
X0078000Y0352250D01*
D11*
X0046300Y0344250D02*
X0046300Y0341250D01*
X0046300Y0338250D01*
X0043800Y0338250D02*
X0043800Y0341250D01*
X0043800Y0344250D01*
X0043800Y0319250D02*
X0043800Y0316250D01*
X0043800Y0313250D01*
X0046300Y0313250D02*
X0046300Y0316250D01*
X0046300Y0319250D01*
D12*
X0043015Y0322000D02*
X0040515Y0322000D01*
X0042640Y0324500D01*
X0041890Y0326500D02*
X0041817Y0326498D01*
X0041745Y0326493D01*
X0041673Y0326484D01*
X0041601Y0326471D01*
X0041530Y0326455D01*
X0041460Y0326435D01*
X0041392Y0326411D01*
X0041324Y0326385D01*
X0041258Y0326354D01*
X0041193Y0326321D01*
X0041131Y0326284D01*
X0041070Y0326245D01*
X0041011Y0326202D01*
X0040954Y0326156D01*
X0040900Y0326108D01*
X0040849Y0326057D01*
X0040799Y0326003D01*
X0040753Y0325947D01*
X0040710Y0325889D01*
X0040669Y0325828D01*
X0040632Y0325766D01*
X0040598Y0325702D01*
X0040567Y0325636D01*
X0040539Y0325569D01*
X0040515Y0325500D01*
X0042639Y0324500D02*
X0042685Y0324546D01*
X0042729Y0324595D01*
X0042769Y0324646D01*
X0042807Y0324699D01*
X0042842Y0324754D01*
X0042874Y0324811D01*
X0042903Y0324869D01*
X0042929Y0324929D01*
X0042951Y0324991D01*
X0042970Y0325053D01*
X0042986Y0325116D01*
X0042998Y0325180D01*
X0043007Y0325245D01*
X0043012Y0325310D01*
X0043014Y0325375D01*
X0043015Y0325375D02*
X0043013Y0325440D01*
X0043007Y0325506D01*
X0042998Y0325570D01*
X0042985Y0325634D01*
X0042968Y0325698D01*
X0042947Y0325760D01*
X0042923Y0325821D01*
X0042895Y0325880D01*
X0042864Y0325938D01*
X0042830Y0325993D01*
X0042792Y0326047D01*
X0042752Y0326098D01*
X0042708Y0326147D01*
X0042662Y0326193D01*
X0042613Y0326237D01*
X0042562Y0326277D01*
X0042508Y0326315D01*
X0042453Y0326349D01*
X0042395Y0326380D01*
X0042336Y0326408D01*
X0042275Y0326432D01*
X0042213Y0326453D01*
X0042149Y0326470D01*
X0042085Y0326483D01*
X0042021Y0326492D01*
X0041955Y0326498D01*
X0041890Y0326500D01*
X0039250Y0331000D02*
X0036750Y0331000D01*
X0038000Y0331000D02*
X0038000Y0335500D01*
X0036750Y0334500D01*
X0043750Y0333250D02*
X0043748Y0333130D01*
X0043742Y0333010D01*
X0043732Y0332890D01*
X0043719Y0332771D01*
X0043701Y0332652D01*
X0043680Y0332534D01*
X0043655Y0332416D01*
X0043626Y0332300D01*
X0043593Y0332184D01*
X0043557Y0332070D01*
X0043517Y0331956D01*
X0043473Y0331844D01*
X0043426Y0331734D01*
X0043375Y0331625D01*
X0043354Y0331569D01*
X0043328Y0331514D01*
X0043300Y0331460D01*
X0043268Y0331409D01*
X0043233Y0331360D01*
X0043194Y0331314D01*
X0043153Y0331270D01*
X0043109Y0331228D01*
X0043062Y0331190D01*
X0043013Y0331155D01*
X0042961Y0331123D01*
X0042908Y0331095D01*
X0042853Y0331070D01*
X0042797Y0331049D01*
X0042739Y0331031D01*
X0042680Y0331018D01*
X0042620Y0331008D01*
X0042560Y0331002D01*
X0042500Y0331000D01*
X0042440Y0331002D01*
X0042380Y0331008D01*
X0042320Y0331018D01*
X0042261Y0331031D01*
X0042203Y0331049D01*
X0042147Y0331070D01*
X0042092Y0331095D01*
X0042039Y0331123D01*
X0041987Y0331155D01*
X0041938Y0331190D01*
X0041891Y0331228D01*
X0041847Y0331270D01*
X0041806Y0331314D01*
X0041767Y0331360D01*
X0041732Y0331409D01*
X0041700Y0331460D01*
X0041672Y0331514D01*
X0041646Y0331569D01*
X0041625Y0331625D01*
X0041500Y0332000D02*
X0043500Y0334500D01*
X0043375Y0334875D02*
X0043354Y0334931D01*
X0043328Y0334986D01*
X0043300Y0335040D01*
X0043268Y0335091D01*
X0043233Y0335140D01*
X0043194Y0335186D01*
X0043153Y0335230D01*
X0043109Y0335272D01*
X0043062Y0335310D01*
X0043013Y0335345D01*
X0042961Y0335377D01*
X0042908Y0335405D01*
X0042853Y0335430D01*
X0042797Y0335451D01*
X0042739Y0335469D01*
X0042680Y0335482D01*
X0042620Y0335492D01*
X0042560Y0335498D01*
X0042500Y0335500D01*
X0042440Y0335498D01*
X0042380Y0335492D01*
X0042320Y0335482D01*
X0042261Y0335469D01*
X0042203Y0335451D01*
X0042147Y0335430D01*
X0042092Y0335405D01*
X0042039Y0335377D01*
X0041987Y0335345D01*
X0041938Y0335310D01*
X0041891Y0335272D01*
X0041847Y0335230D01*
X0041806Y0335186D01*
X0041767Y0335140D01*
X0041732Y0335091D01*
X0041700Y0335040D01*
X0041672Y0334986D01*
X0041646Y0334931D01*
X0041625Y0334875D01*
X0043375Y0334875D02*
X0043426Y0334766D01*
X0043473Y0334656D01*
X0043517Y0334544D01*
X0043557Y0334430D01*
X0043593Y0334316D01*
X0043626Y0334200D01*
X0043655Y0334084D01*
X0043680Y0333966D01*
X0043701Y0333848D01*
X0043719Y0333729D01*
X0043732Y0333610D01*
X0043742Y0333490D01*
X0043748Y0333370D01*
X0043750Y0333250D01*
X0047875Y0331625D02*
X0047926Y0331734D01*
X0047973Y0331844D01*
X0048017Y0331956D01*
X0048057Y0332070D01*
X0048093Y0332184D01*
X0048126Y0332300D01*
X0048155Y0332416D01*
X0048180Y0332534D01*
X0048201Y0332652D01*
X0048219Y0332771D01*
X0048232Y0332890D01*
X0048242Y0333010D01*
X0048248Y0333130D01*
X0048250Y0333250D01*
X0045750Y0333250D02*
X0045752Y0333130D01*
X0045758Y0333010D01*
X0045768Y0332890D01*
X0045781Y0332771D01*
X0045799Y0332652D01*
X0045820Y0332534D01*
X0045845Y0332416D01*
X0045874Y0332300D01*
X0045907Y0332184D01*
X0045943Y0332070D01*
X0045983Y0331956D01*
X0046027Y0331844D01*
X0046074Y0331734D01*
X0046125Y0331625D01*
X0046000Y0332000D02*
X0048000Y0334500D01*
X0047875Y0334875D02*
X0047854Y0334931D01*
X0047828Y0334986D01*
X0047800Y0335040D01*
X0047768Y0335091D01*
X0047733Y0335140D01*
X0047694Y0335186D01*
X0047653Y0335230D01*
X0047609Y0335272D01*
X0047562Y0335310D01*
X0047513Y0335345D01*
X0047461Y0335377D01*
X0047408Y0335405D01*
X0047353Y0335430D01*
X0047297Y0335451D01*
X0047239Y0335469D01*
X0047180Y0335482D01*
X0047120Y0335492D01*
X0047060Y0335498D01*
X0047000Y0335500D01*
X0046940Y0335498D01*
X0046880Y0335492D01*
X0046820Y0335482D01*
X0046761Y0335469D01*
X0046703Y0335451D01*
X0046647Y0335430D01*
X0046592Y0335405D01*
X0046539Y0335377D01*
X0046487Y0335345D01*
X0046438Y0335310D01*
X0046391Y0335272D01*
X0046347Y0335230D01*
X0046306Y0335186D01*
X0046267Y0335140D01*
X0046232Y0335091D01*
X0046200Y0335040D01*
X0046172Y0334986D01*
X0046146Y0334931D01*
X0046125Y0334875D01*
X0041250Y0333250D02*
X0041252Y0333130D01*
X0041258Y0333010D01*
X0041268Y0332890D01*
X0041281Y0332771D01*
X0041299Y0332652D01*
X0041320Y0332534D01*
X0041345Y0332416D01*
X0041374Y0332300D01*
X0041407Y0332184D01*
X0041443Y0332070D01*
X0041483Y0331956D01*
X0041527Y0331844D01*
X0041574Y0331734D01*
X0041625Y0331625D01*
X0048250Y0333250D02*
X0048248Y0333370D01*
X0048242Y0333490D01*
X0048232Y0333610D01*
X0048219Y0333729D01*
X0048201Y0333848D01*
X0048180Y0333966D01*
X0048155Y0334084D01*
X0048126Y0334200D01*
X0048093Y0334316D01*
X0048057Y0334430D01*
X0048017Y0334544D01*
X0047973Y0334656D01*
X0047926Y0334766D01*
X0047875Y0334875D01*
X0046125Y0334875D02*
X0046074Y0334766D01*
X0046027Y0334656D01*
X0045983Y0334544D01*
X0045943Y0334430D01*
X0045907Y0334316D01*
X0045874Y0334200D01*
X0045845Y0334084D01*
X0045820Y0333966D01*
X0045799Y0333848D01*
X0045781Y0333729D01*
X0045768Y0333610D01*
X0045758Y0333490D01*
X0045752Y0333370D01*
X0045750Y0333250D01*
X0041625Y0334875D02*
X0041574Y0334766D01*
X0041527Y0334656D01*
X0041483Y0334544D01*
X0041443Y0334430D01*
X0041407Y0334316D01*
X0041374Y0334200D01*
X0041345Y0334084D01*
X0041320Y0333966D01*
X0041299Y0333848D01*
X0041281Y0333729D01*
X0041268Y0333610D01*
X0041258Y0333490D01*
X0041252Y0333370D01*
X0041250Y0333250D01*
X0047000Y0331000D02*
X0047060Y0331002D01*
X0047120Y0331008D01*
X0047180Y0331018D01*
X0047239Y0331031D01*
X0047297Y0331049D01*
X0047353Y0331070D01*
X0047408Y0331095D01*
X0047461Y0331123D01*
X0047513Y0331155D01*
X0047562Y0331190D01*
X0047609Y0331228D01*
X0047653Y0331270D01*
X0047694Y0331314D01*
X0047733Y0331360D01*
X0047768Y0331409D01*
X0047800Y0331460D01*
X0047828Y0331514D01*
X0047854Y0331569D01*
X0047875Y0331625D01*
X0047000Y0331000D02*
X0046940Y0331002D01*
X0046880Y0331008D01*
X0046820Y0331018D01*
X0046761Y0331031D01*
X0046703Y0331049D01*
X0046647Y0331070D01*
X0046592Y0331095D01*
X0046539Y0331123D01*
X0046487Y0331155D01*
X0046438Y0331190D01*
X0046391Y0331228D01*
X0046347Y0331270D01*
X0046306Y0331314D01*
X0046267Y0331360D01*
X0046232Y0331409D01*
X0046200Y0331460D01*
X0046172Y0331514D01*
X0046146Y0331569D01*
X0046125Y0331625D01*
X0050350Y0331000D02*
X0050350Y0334000D01*
X0051600Y0334000D01*
X0051654Y0333998D01*
X0051707Y0333992D01*
X0051759Y0333983D01*
X0051811Y0333970D01*
X0051862Y0333953D01*
X0051912Y0333932D01*
X0051959Y0333908D01*
X0052005Y0333881D01*
X0052049Y0333850D01*
X0052091Y0333817D01*
X0052130Y0333780D01*
X0052167Y0333741D01*
X0052200Y0333699D01*
X0052231Y0333655D01*
X0052258Y0333609D01*
X0052282Y0333562D01*
X0052303Y0333512D01*
X0052320Y0333461D01*
X0052333Y0333409D01*
X0052342Y0333357D01*
X0052348Y0333304D01*
X0052350Y0333250D01*
X0052350Y0331000D01*
X0054610Y0331000D02*
X0054610Y0335500D01*
X0056610Y0335500D01*
X0056610Y0333500D02*
X0054610Y0333500D01*
X0043015Y0347000D02*
X0040515Y0347000D01*
X0041765Y0347000D02*
X0041765Y0351500D01*
X0040515Y0350500D01*
X0038750Y0351500D02*
X0037750Y0351500D01*
X0037690Y0351498D01*
X0037629Y0351493D01*
X0037570Y0351484D01*
X0037511Y0351471D01*
X0037452Y0351455D01*
X0037395Y0351435D01*
X0037340Y0351412D01*
X0037285Y0351385D01*
X0037233Y0351356D01*
X0037182Y0351323D01*
X0037133Y0351287D01*
X0037087Y0351249D01*
X0037043Y0351207D01*
X0037001Y0351163D01*
X0036963Y0351117D01*
X0036927Y0351068D01*
X0036894Y0351017D01*
X0036865Y0350965D01*
X0036838Y0350910D01*
X0036815Y0350855D01*
X0036795Y0350798D01*
X0036779Y0350739D01*
X0036766Y0350680D01*
X0036757Y0350621D01*
X0036752Y0350560D01*
X0036750Y0350500D01*
X0036750Y0348000D01*
X0036752Y0347940D01*
X0036757Y0347879D01*
X0036766Y0347820D01*
X0036779Y0347761D01*
X0036795Y0347702D01*
X0036815Y0347645D01*
X0036838Y0347590D01*
X0036865Y0347535D01*
X0036894Y0347483D01*
X0036927Y0347432D01*
X0036963Y0347383D01*
X0037001Y0347337D01*
X0037043Y0347293D01*
X0037087Y0347251D01*
X0037133Y0347213D01*
X0037182Y0347177D01*
X0037233Y0347144D01*
X0037285Y0347115D01*
X0037340Y0347088D01*
X0037395Y0347065D01*
X0037452Y0347045D01*
X0037511Y0347029D01*
X0037570Y0347016D01*
X0037629Y0347007D01*
X0037690Y0347002D01*
X0037750Y0347000D01*
X0038750Y0347000D01*
X0038750Y0326500D02*
X0037750Y0326500D01*
X0037690Y0326498D01*
X0037629Y0326493D01*
X0037570Y0326484D01*
X0037511Y0326471D01*
X0037452Y0326455D01*
X0037395Y0326435D01*
X0037340Y0326412D01*
X0037285Y0326385D01*
X0037233Y0326356D01*
X0037182Y0326323D01*
X0037133Y0326287D01*
X0037087Y0326249D01*
X0037043Y0326207D01*
X0037001Y0326163D01*
X0036963Y0326117D01*
X0036927Y0326068D01*
X0036894Y0326017D01*
X0036865Y0325965D01*
X0036838Y0325910D01*
X0036815Y0325855D01*
X0036795Y0325798D01*
X0036779Y0325739D01*
X0036766Y0325680D01*
X0036757Y0325621D01*
X0036752Y0325560D01*
X0036750Y0325500D01*
X0036750Y0323000D01*
X0036752Y0322940D01*
X0036757Y0322879D01*
X0036766Y0322820D01*
X0036779Y0322761D01*
X0036795Y0322702D01*
X0036815Y0322645D01*
X0036838Y0322590D01*
X0036865Y0322535D01*
X0036894Y0322483D01*
X0036927Y0322432D01*
X0036963Y0322383D01*
X0037001Y0322337D01*
X0037043Y0322293D01*
X0037087Y0322251D01*
X0037133Y0322213D01*
X0037182Y0322177D01*
X0037233Y0322144D01*
X0037285Y0322115D01*
X0037340Y0322088D01*
X0037395Y0322065D01*
X0037452Y0322045D01*
X0037511Y0322029D01*
X0037570Y0322016D01*
X0037629Y0322007D01*
X0037690Y0322002D01*
X0037750Y0322000D01*
X0038750Y0322000D01*
X0038000Y0310500D02*
X0036750Y0309500D01*
X0038000Y0310500D02*
X0038000Y0306000D01*
X0036750Y0306000D02*
X0039250Y0306000D01*
X0043375Y0306625D02*
X0043426Y0306734D01*
X0043473Y0306844D01*
X0043517Y0306956D01*
X0043557Y0307070D01*
X0043593Y0307184D01*
X0043626Y0307300D01*
X0043655Y0307416D01*
X0043680Y0307534D01*
X0043701Y0307652D01*
X0043719Y0307771D01*
X0043732Y0307890D01*
X0043742Y0308010D01*
X0043748Y0308130D01*
X0043750Y0308250D01*
X0047875Y0306625D02*
X0047926Y0306734D01*
X0047973Y0306844D01*
X0048017Y0306956D01*
X0048057Y0307070D01*
X0048093Y0307184D01*
X0048126Y0307300D01*
X0048155Y0307416D01*
X0048180Y0307534D01*
X0048201Y0307652D01*
X0048219Y0307771D01*
X0048232Y0307890D01*
X0048242Y0308010D01*
X0048248Y0308130D01*
X0048250Y0308250D01*
X0045750Y0308250D02*
X0045752Y0308130D01*
X0045758Y0308010D01*
X0045768Y0307890D01*
X0045781Y0307771D01*
X0045799Y0307652D01*
X0045820Y0307534D01*
X0045845Y0307416D01*
X0045874Y0307300D01*
X0045907Y0307184D01*
X0045943Y0307070D01*
X0045983Y0306956D01*
X0046027Y0306844D01*
X0046074Y0306734D01*
X0046125Y0306625D01*
X0046000Y0307000D02*
X0048000Y0309500D01*
X0047875Y0309875D02*
X0047854Y0309931D01*
X0047828Y0309986D01*
X0047800Y0310040D01*
X0047768Y0310091D01*
X0047733Y0310140D01*
X0047694Y0310186D01*
X0047653Y0310230D01*
X0047609Y0310272D01*
X0047562Y0310310D01*
X0047513Y0310345D01*
X0047461Y0310377D01*
X0047408Y0310405D01*
X0047353Y0310430D01*
X0047297Y0310451D01*
X0047239Y0310469D01*
X0047180Y0310482D01*
X0047120Y0310492D01*
X0047060Y0310498D01*
X0047000Y0310500D01*
X0046940Y0310498D01*
X0046880Y0310492D01*
X0046820Y0310482D01*
X0046761Y0310469D01*
X0046703Y0310451D01*
X0046647Y0310430D01*
X0046592Y0310405D01*
X0046539Y0310377D01*
X0046487Y0310345D01*
X0046438Y0310310D01*
X0046391Y0310272D01*
X0046347Y0310230D01*
X0046306Y0310186D01*
X0046267Y0310140D01*
X0046232Y0310091D01*
X0046200Y0310040D01*
X0046172Y0309986D01*
X0046146Y0309931D01*
X0046125Y0309875D01*
X0041250Y0308250D02*
X0041252Y0308130D01*
X0041258Y0308010D01*
X0041268Y0307890D01*
X0041281Y0307771D01*
X0041299Y0307652D01*
X0041320Y0307534D01*
X0041345Y0307416D01*
X0041374Y0307300D01*
X0041407Y0307184D01*
X0041443Y0307070D01*
X0041483Y0306956D01*
X0041527Y0306844D01*
X0041574Y0306734D01*
X0041625Y0306625D01*
X0041500Y0307000D02*
X0043500Y0309500D01*
X0043375Y0309875D02*
X0043354Y0309931D01*
X0043328Y0309986D01*
X0043300Y0310040D01*
X0043268Y0310091D01*
X0043233Y0310140D01*
X0043194Y0310186D01*
X0043153Y0310230D01*
X0043109Y0310272D01*
X0043062Y0310310D01*
X0043013Y0310345D01*
X0042961Y0310377D01*
X0042908Y0310405D01*
X0042853Y0310430D01*
X0042797Y0310451D01*
X0042739Y0310469D01*
X0042680Y0310482D01*
X0042620Y0310492D01*
X0042560Y0310498D01*
X0042500Y0310500D01*
X0042440Y0310498D01*
X0042380Y0310492D01*
X0042320Y0310482D01*
X0042261Y0310469D01*
X0042203Y0310451D01*
X0042147Y0310430D01*
X0042092Y0310405D01*
X0042039Y0310377D01*
X0041987Y0310345D01*
X0041938Y0310310D01*
X0041891Y0310272D01*
X0041847Y0310230D01*
X0041806Y0310186D01*
X0041767Y0310140D01*
X0041732Y0310091D01*
X0041700Y0310040D01*
X0041672Y0309986D01*
X0041646Y0309931D01*
X0041625Y0309875D01*
X0043375Y0309875D02*
X0043426Y0309766D01*
X0043473Y0309656D01*
X0043517Y0309544D01*
X0043557Y0309430D01*
X0043593Y0309316D01*
X0043626Y0309200D01*
X0043655Y0309084D01*
X0043680Y0308966D01*
X0043701Y0308848D01*
X0043719Y0308729D01*
X0043732Y0308610D01*
X0043742Y0308490D01*
X0043748Y0308370D01*
X0043750Y0308250D01*
X0047875Y0309875D02*
X0047926Y0309766D01*
X0047973Y0309656D01*
X0048017Y0309544D01*
X0048057Y0309430D01*
X0048093Y0309316D01*
X0048126Y0309200D01*
X0048155Y0309084D01*
X0048180Y0308966D01*
X0048201Y0308848D01*
X0048219Y0308729D01*
X0048232Y0308610D01*
X0048242Y0308490D01*
X0048248Y0308370D01*
X0048250Y0308250D01*
X0045750Y0308250D02*
X0045752Y0308370D01*
X0045758Y0308490D01*
X0045768Y0308610D01*
X0045781Y0308729D01*
X0045799Y0308848D01*
X0045820Y0308966D01*
X0045845Y0309084D01*
X0045874Y0309200D01*
X0045907Y0309316D01*
X0045943Y0309430D01*
X0045983Y0309544D01*
X0046027Y0309656D01*
X0046074Y0309766D01*
X0046125Y0309875D01*
X0041625Y0309875D02*
X0041574Y0309766D01*
X0041527Y0309656D01*
X0041483Y0309544D01*
X0041443Y0309430D01*
X0041407Y0309316D01*
X0041374Y0309200D01*
X0041345Y0309084D01*
X0041320Y0308966D01*
X0041299Y0308848D01*
X0041281Y0308729D01*
X0041268Y0308610D01*
X0041258Y0308490D01*
X0041252Y0308370D01*
X0041250Y0308250D01*
X0042500Y0306000D02*
X0042560Y0306002D01*
X0042620Y0306008D01*
X0042680Y0306018D01*
X0042739Y0306031D01*
X0042797Y0306049D01*
X0042853Y0306070D01*
X0042908Y0306095D01*
X0042961Y0306123D01*
X0043013Y0306155D01*
X0043062Y0306190D01*
X0043109Y0306228D01*
X0043153Y0306270D01*
X0043194Y0306314D01*
X0043233Y0306360D01*
X0043268Y0306409D01*
X0043300Y0306460D01*
X0043328Y0306514D01*
X0043354Y0306569D01*
X0043375Y0306625D01*
X0042500Y0306000D02*
X0042440Y0306002D01*
X0042380Y0306008D01*
X0042320Y0306018D01*
X0042261Y0306031D01*
X0042203Y0306049D01*
X0042147Y0306070D01*
X0042092Y0306095D01*
X0042039Y0306123D01*
X0041987Y0306155D01*
X0041938Y0306190D01*
X0041891Y0306228D01*
X0041847Y0306270D01*
X0041806Y0306314D01*
X0041767Y0306360D01*
X0041732Y0306409D01*
X0041700Y0306460D01*
X0041672Y0306514D01*
X0041646Y0306569D01*
X0041625Y0306625D01*
X0047000Y0306000D02*
X0047060Y0306002D01*
X0047120Y0306008D01*
X0047180Y0306018D01*
X0047239Y0306031D01*
X0047297Y0306049D01*
X0047353Y0306070D01*
X0047408Y0306095D01*
X0047461Y0306123D01*
X0047513Y0306155D01*
X0047562Y0306190D01*
X0047609Y0306228D01*
X0047653Y0306270D01*
X0047694Y0306314D01*
X0047733Y0306360D01*
X0047768Y0306409D01*
X0047800Y0306460D01*
X0047828Y0306514D01*
X0047854Y0306569D01*
X0047875Y0306625D01*
X0047000Y0306000D02*
X0046940Y0306002D01*
X0046880Y0306008D01*
X0046820Y0306018D01*
X0046761Y0306031D01*
X0046703Y0306049D01*
X0046647Y0306070D01*
X0046592Y0306095D01*
X0046539Y0306123D01*
X0046487Y0306155D01*
X0046438Y0306190D01*
X0046391Y0306228D01*
X0046347Y0306270D01*
X0046306Y0306314D01*
X0046267Y0306360D01*
X0046232Y0306409D01*
X0046200Y0306460D01*
X0046172Y0306514D01*
X0046146Y0306569D01*
X0046125Y0306625D01*
X0050350Y0306000D02*
X0050350Y0309000D01*
X0051600Y0309000D01*
X0051654Y0308998D01*
X0051707Y0308992D01*
X0051759Y0308983D01*
X0051811Y0308970D01*
X0051862Y0308953D01*
X0051912Y0308932D01*
X0051959Y0308908D01*
X0052005Y0308881D01*
X0052049Y0308850D01*
X0052091Y0308817D01*
X0052130Y0308780D01*
X0052167Y0308741D01*
X0052200Y0308699D01*
X0052231Y0308655D01*
X0052258Y0308609D01*
X0052282Y0308562D01*
X0052303Y0308512D01*
X0052320Y0308461D01*
X0052333Y0308409D01*
X0052342Y0308357D01*
X0052348Y0308304D01*
X0052350Y0308250D01*
X0052350Y0306000D01*
X0054610Y0306000D02*
X0054610Y0310500D01*
X0056610Y0310500D01*
X0056610Y0308500D02*
X0054610Y0308500D01*
X0054000Y0301000D02*
X0052750Y0301000D01*
X0052750Y0296500D01*
X0054000Y0296500D01*
X0054068Y0296502D01*
X0054135Y0296507D01*
X0054202Y0296516D01*
X0054269Y0296529D01*
X0054334Y0296546D01*
X0054399Y0296565D01*
X0054463Y0296589D01*
X0054525Y0296616D01*
X0054586Y0296646D01*
X0054644Y0296679D01*
X0054701Y0296715D01*
X0054756Y0296755D01*
X0054809Y0296797D01*
X0054860Y0296843D01*
X0054907Y0296890D01*
X0054953Y0296941D01*
X0054995Y0296994D01*
X0055035Y0297049D01*
X0055071Y0297106D01*
X0055104Y0297164D01*
X0055134Y0297225D01*
X0055161Y0297287D01*
X0055185Y0297351D01*
X0055204Y0297416D01*
X0055221Y0297481D01*
X0055234Y0297548D01*
X0055243Y0297615D01*
X0055248Y0297682D01*
X0055250Y0297750D01*
X0055250Y0299750D01*
X0055248Y0299818D01*
X0055243Y0299885D01*
X0055234Y0299952D01*
X0055221Y0300019D01*
X0055204Y0300084D01*
X0055185Y0300149D01*
X0055161Y0300213D01*
X0055134Y0300275D01*
X0055104Y0300336D01*
X0055071Y0300394D01*
X0055035Y0300451D01*
X0054995Y0300506D01*
X0054953Y0300559D01*
X0054907Y0300610D01*
X0054860Y0300657D01*
X0054809Y0300703D01*
X0054756Y0300745D01*
X0054701Y0300785D01*
X0054644Y0300821D01*
X0054586Y0300854D01*
X0054525Y0300884D01*
X0054463Y0300911D01*
X0054399Y0300935D01*
X0054334Y0300954D01*
X0054269Y0300971D01*
X0054202Y0300984D01*
X0054135Y0300993D01*
X0054068Y0300998D01*
X0054000Y0301000D01*
X0057400Y0300000D02*
X0058650Y0301000D01*
X0058650Y0296500D01*
X0057400Y0296500D02*
X0059900Y0296500D01*
X0054000Y0276000D02*
X0052750Y0276000D01*
X0052750Y0271500D01*
X0054000Y0271500D01*
X0054068Y0271502D01*
X0054135Y0271507D01*
X0054202Y0271516D01*
X0054269Y0271529D01*
X0054334Y0271546D01*
X0054399Y0271565D01*
X0054463Y0271589D01*
X0054525Y0271616D01*
X0054586Y0271646D01*
X0054644Y0271679D01*
X0054701Y0271715D01*
X0054756Y0271755D01*
X0054809Y0271797D01*
X0054860Y0271843D01*
X0054907Y0271890D01*
X0054953Y0271941D01*
X0054995Y0271994D01*
X0055035Y0272049D01*
X0055071Y0272106D01*
X0055104Y0272164D01*
X0055134Y0272225D01*
X0055161Y0272287D01*
X0055185Y0272351D01*
X0055204Y0272416D01*
X0055221Y0272481D01*
X0055234Y0272548D01*
X0055243Y0272615D01*
X0055248Y0272682D01*
X0055250Y0272750D01*
X0055250Y0274750D01*
X0055248Y0274818D01*
X0055243Y0274885D01*
X0055234Y0274952D01*
X0055221Y0275019D01*
X0055204Y0275084D01*
X0055185Y0275149D01*
X0055161Y0275213D01*
X0055134Y0275275D01*
X0055104Y0275336D01*
X0055071Y0275394D01*
X0055035Y0275451D01*
X0054995Y0275506D01*
X0054953Y0275559D01*
X0054907Y0275610D01*
X0054860Y0275657D01*
X0054809Y0275703D01*
X0054756Y0275745D01*
X0054701Y0275785D01*
X0054644Y0275821D01*
X0054586Y0275854D01*
X0054525Y0275884D01*
X0054463Y0275911D01*
X0054399Y0275935D01*
X0054334Y0275954D01*
X0054269Y0275971D01*
X0054202Y0275984D01*
X0054135Y0275993D01*
X0054068Y0275998D01*
X0054000Y0276000D01*
X0057650Y0275000D02*
X0057652Y0274938D01*
X0057658Y0274877D01*
X0057667Y0274816D01*
X0057680Y0274756D01*
X0057697Y0274697D01*
X0057718Y0274639D01*
X0057742Y0274582D01*
X0057769Y0274527D01*
X0057800Y0274474D01*
X0057834Y0274422D01*
X0057871Y0274373D01*
X0057911Y0274326D01*
X0057954Y0274282D01*
X0057999Y0274241D01*
X0058047Y0274202D01*
X0058098Y0274166D01*
X0058150Y0274134D01*
X0058204Y0274105D01*
X0058260Y0274079D01*
X0058318Y0274057D01*
X0058376Y0274038D01*
X0058436Y0274023D01*
X0058497Y0274012D01*
X0058558Y0274004D01*
X0058619Y0274000D01*
X0058681Y0274000D01*
X0058742Y0274004D01*
X0058803Y0274012D01*
X0058864Y0274023D01*
X0058924Y0274038D01*
X0058982Y0274057D01*
X0059040Y0274079D01*
X0059096Y0274105D01*
X0059150Y0274134D01*
X0059202Y0274166D01*
X0059253Y0274202D01*
X0059301Y0274241D01*
X0059346Y0274282D01*
X0059389Y0274326D01*
X0059429Y0274373D01*
X0059466Y0274422D01*
X0059500Y0274474D01*
X0059531Y0274527D01*
X0059558Y0274582D01*
X0059582Y0274639D01*
X0059603Y0274697D01*
X0059620Y0274756D01*
X0059633Y0274816D01*
X0059642Y0274877D01*
X0059648Y0274938D01*
X0059650Y0275000D01*
X0059648Y0275062D01*
X0059642Y0275123D01*
X0059633Y0275184D01*
X0059620Y0275244D01*
X0059603Y0275303D01*
X0059582Y0275361D01*
X0059558Y0275418D01*
X0059531Y0275473D01*
X0059500Y0275526D01*
X0059466Y0275578D01*
X0059429Y0275627D01*
X0059389Y0275674D01*
X0059346Y0275718D01*
X0059301Y0275759D01*
X0059253Y0275798D01*
X0059202Y0275834D01*
X0059150Y0275866D01*
X0059096Y0275895D01*
X0059040Y0275921D01*
X0058982Y0275943D01*
X0058924Y0275962D01*
X0058864Y0275977D01*
X0058803Y0275988D01*
X0058742Y0275996D01*
X0058681Y0276000D01*
X0058619Y0276000D01*
X0058558Y0275996D01*
X0058497Y0275988D01*
X0058436Y0275977D01*
X0058376Y0275962D01*
X0058318Y0275943D01*
X0058260Y0275921D01*
X0058204Y0275895D01*
X0058150Y0275866D01*
X0058098Y0275834D01*
X0058047Y0275798D01*
X0057999Y0275759D01*
X0057954Y0275718D01*
X0057911Y0275674D01*
X0057871Y0275627D01*
X0057834Y0275578D01*
X0057800Y0275526D01*
X0057769Y0275473D01*
X0057742Y0275418D01*
X0057718Y0275361D01*
X0057697Y0275303D01*
X0057680Y0275244D01*
X0057667Y0275184D01*
X0057658Y0275123D01*
X0057652Y0275062D01*
X0057650Y0275000D01*
X0057400Y0272750D02*
X0057402Y0272681D01*
X0057408Y0272612D01*
X0057417Y0272544D01*
X0057430Y0272477D01*
X0057447Y0272410D01*
X0057468Y0272344D01*
X0057492Y0272280D01*
X0057520Y0272217D01*
X0057551Y0272155D01*
X0057585Y0272095D01*
X0057623Y0272038D01*
X0057664Y0271982D01*
X0057707Y0271929D01*
X0057754Y0271878D01*
X0057803Y0271830D01*
X0057855Y0271785D01*
X0057910Y0271743D01*
X0057966Y0271704D01*
X0058025Y0271667D01*
X0058086Y0271635D01*
X0058148Y0271605D01*
X0058212Y0271579D01*
X0058277Y0271557D01*
X0058343Y0271538D01*
X0058410Y0271523D01*
X0058478Y0271512D01*
X0058547Y0271504D01*
X0058616Y0271500D01*
X0058684Y0271500D01*
X0058753Y0271504D01*
X0058822Y0271512D01*
X0058890Y0271523D01*
X0058957Y0271538D01*
X0059023Y0271557D01*
X0059088Y0271579D01*
X0059152Y0271605D01*
X0059214Y0271635D01*
X0059275Y0271667D01*
X0059334Y0271704D01*
X0059390Y0271743D01*
X0059445Y0271785D01*
X0059497Y0271830D01*
X0059546Y0271878D01*
X0059593Y0271929D01*
X0059636Y0271982D01*
X0059677Y0272038D01*
X0059715Y0272095D01*
X0059749Y0272155D01*
X0059780Y0272217D01*
X0059808Y0272280D01*
X0059832Y0272344D01*
X0059853Y0272410D01*
X0059870Y0272477D01*
X0059883Y0272544D01*
X0059892Y0272612D01*
X0059898Y0272681D01*
X0059900Y0272750D01*
X0059898Y0272819D01*
X0059892Y0272888D01*
X0059883Y0272956D01*
X0059870Y0273023D01*
X0059853Y0273090D01*
X0059832Y0273156D01*
X0059808Y0273220D01*
X0059780Y0273283D01*
X0059749Y0273345D01*
X0059715Y0273405D01*
X0059677Y0273462D01*
X0059636Y0273518D01*
X0059593Y0273571D01*
X0059546Y0273622D01*
X0059497Y0273670D01*
X0059445Y0273715D01*
X0059390Y0273757D01*
X0059334Y0273796D01*
X0059275Y0273833D01*
X0059214Y0273865D01*
X0059152Y0273895D01*
X0059088Y0273921D01*
X0059023Y0273943D01*
X0058957Y0273962D01*
X0058890Y0273977D01*
X0058822Y0273988D01*
X0058753Y0273996D01*
X0058684Y0274000D01*
X0058616Y0274000D01*
X0058547Y0273996D01*
X0058478Y0273988D01*
X0058410Y0273977D01*
X0058343Y0273962D01*
X0058277Y0273943D01*
X0058212Y0273921D01*
X0058148Y0273895D01*
X0058086Y0273865D01*
X0058025Y0273833D01*
X0057966Y0273796D01*
X0057910Y0273757D01*
X0057855Y0273715D01*
X0057803Y0273670D01*
X0057754Y0273622D01*
X0057707Y0273571D01*
X0057664Y0273518D01*
X0057623Y0273462D01*
X0057585Y0273405D01*
X0057551Y0273345D01*
X0057520Y0273283D01*
X0057492Y0273220D01*
X0057468Y0273156D01*
X0057447Y0273090D01*
X0057430Y0273023D01*
X0057417Y0272956D01*
X0057408Y0272888D01*
X0057402Y0272819D01*
X0057400Y0272750D01*
X0058840Y0257500D02*
X0059840Y0257500D01*
X0059340Y0257500D02*
X0059340Y0253000D01*
X0058840Y0253000D02*
X0059840Y0253000D01*
X0061850Y0253000D02*
X0061850Y0257500D01*
X0063850Y0257500D01*
X0065440Y0257500D02*
X0066440Y0257500D01*
X0065940Y0257500D02*
X0065940Y0253000D01*
X0065440Y0253000D02*
X0066440Y0253000D01*
X0068290Y0254000D02*
X0070790Y0254000D01*
X0070040Y0255000D02*
X0070040Y0253000D01*
X0068290Y0254000D02*
X0069290Y0257500D01*
X0063850Y0255500D02*
X0061850Y0255500D01*
X0057250Y0253000D02*
X0055250Y0253000D01*
X0055250Y0257500D01*
X0052000Y0248500D02*
X0052000Y0244000D01*
X0050750Y0244000D02*
X0053250Y0244000D01*
X0050750Y0247500D02*
X0052000Y0248500D01*
X0055250Y0227500D02*
X0055250Y0223000D01*
X0057250Y0223000D01*
X0058840Y0223000D02*
X0059840Y0223000D01*
X0059340Y0223000D02*
X0059340Y0227500D01*
X0058840Y0227500D02*
X0059840Y0227500D01*
X0061850Y0227500D02*
X0063850Y0227500D01*
X0065440Y0227500D02*
X0066440Y0227500D01*
X0065940Y0227500D02*
X0065940Y0223000D01*
X0065440Y0223000D02*
X0066440Y0223000D01*
X0068290Y0223000D02*
X0069540Y0223000D01*
X0069609Y0223002D01*
X0069678Y0223008D01*
X0069746Y0223017D01*
X0069813Y0223030D01*
X0069880Y0223047D01*
X0069946Y0223068D01*
X0070010Y0223092D01*
X0070073Y0223120D01*
X0070135Y0223151D01*
X0070195Y0223185D01*
X0070252Y0223223D01*
X0070308Y0223264D01*
X0070361Y0223307D01*
X0070412Y0223354D01*
X0070460Y0223403D01*
X0070505Y0223455D01*
X0070547Y0223510D01*
X0070586Y0223566D01*
X0070623Y0223625D01*
X0070655Y0223686D01*
X0070685Y0223748D01*
X0070711Y0223812D01*
X0070733Y0223877D01*
X0070752Y0223943D01*
X0070767Y0224010D01*
X0070778Y0224078D01*
X0070786Y0224147D01*
X0070790Y0224216D01*
X0070790Y0224284D01*
X0070786Y0224353D01*
X0070778Y0224422D01*
X0070767Y0224490D01*
X0070752Y0224557D01*
X0070733Y0224623D01*
X0070711Y0224688D01*
X0070685Y0224752D01*
X0070655Y0224814D01*
X0070623Y0224875D01*
X0070586Y0224934D01*
X0070547Y0224990D01*
X0070505Y0225045D01*
X0070460Y0225097D01*
X0070412Y0225146D01*
X0070361Y0225193D01*
X0070308Y0225236D01*
X0070252Y0225277D01*
X0070195Y0225315D01*
X0070135Y0225349D01*
X0070073Y0225380D01*
X0070010Y0225408D01*
X0069946Y0225432D01*
X0069880Y0225453D01*
X0069813Y0225470D01*
X0069746Y0225483D01*
X0069678Y0225492D01*
X0069609Y0225498D01*
X0069540Y0225500D01*
X0069790Y0225500D02*
X0068790Y0225500D01*
X0069790Y0225500D02*
X0069852Y0225502D01*
X0069913Y0225508D01*
X0069974Y0225517D01*
X0070034Y0225530D01*
X0070093Y0225547D01*
X0070151Y0225568D01*
X0070208Y0225592D01*
X0070263Y0225619D01*
X0070316Y0225650D01*
X0070368Y0225684D01*
X0070417Y0225721D01*
X0070464Y0225761D01*
X0070508Y0225804D01*
X0070549Y0225849D01*
X0070588Y0225897D01*
X0070624Y0225948D01*
X0070656Y0226000D01*
X0070685Y0226054D01*
X0070711Y0226110D01*
X0070733Y0226168D01*
X0070752Y0226226D01*
X0070767Y0226286D01*
X0070778Y0226347D01*
X0070786Y0226408D01*
X0070790Y0226469D01*
X0070790Y0226531D01*
X0070786Y0226592D01*
X0070778Y0226653D01*
X0070767Y0226714D01*
X0070752Y0226774D01*
X0070733Y0226832D01*
X0070711Y0226890D01*
X0070685Y0226946D01*
X0070656Y0227000D01*
X0070624Y0227052D01*
X0070588Y0227103D01*
X0070549Y0227151D01*
X0070508Y0227196D01*
X0070464Y0227239D01*
X0070417Y0227279D01*
X0070368Y0227316D01*
X0070316Y0227350D01*
X0070263Y0227381D01*
X0070208Y0227408D01*
X0070151Y0227432D01*
X0070093Y0227453D01*
X0070034Y0227470D01*
X0069974Y0227483D01*
X0069913Y0227492D01*
X0069852Y0227498D01*
X0069790Y0227500D01*
X0068290Y0227500D01*
X0063850Y0225500D02*
X0061850Y0225500D01*
X0061850Y0227500D02*
X0061850Y0223000D01*
X0052000Y0218500D02*
X0052000Y0214000D01*
X0050750Y0214000D02*
X0053250Y0214000D01*
X0050750Y0217500D02*
X0052000Y0218500D01*
X0055250Y0197500D02*
X0055250Y0193000D01*
X0057250Y0193000D01*
X0058840Y0193000D02*
X0059840Y0193000D01*
X0059340Y0193000D02*
X0059340Y0197500D01*
X0058840Y0197500D02*
X0059840Y0197500D01*
X0061850Y0197500D02*
X0061850Y0193000D01*
X0061850Y0195500D02*
X0063850Y0195500D01*
X0063850Y0197500D02*
X0061850Y0197500D01*
X0065440Y0197500D02*
X0066440Y0197500D01*
X0065940Y0197500D02*
X0065940Y0193000D01*
X0065440Y0193000D02*
X0066440Y0193000D01*
X0068290Y0193000D02*
X0070790Y0193000D01*
X0068290Y0193000D02*
X0070415Y0195500D01*
X0069665Y0197500D02*
X0069592Y0197498D01*
X0069520Y0197493D01*
X0069448Y0197484D01*
X0069376Y0197471D01*
X0069305Y0197455D01*
X0069235Y0197435D01*
X0069167Y0197411D01*
X0069099Y0197385D01*
X0069033Y0197354D01*
X0068968Y0197321D01*
X0068906Y0197284D01*
X0068845Y0197245D01*
X0068786Y0197202D01*
X0068729Y0197156D01*
X0068675Y0197108D01*
X0068624Y0197057D01*
X0068574Y0197003D01*
X0068528Y0196947D01*
X0068485Y0196889D01*
X0068444Y0196828D01*
X0068407Y0196766D01*
X0068373Y0196702D01*
X0068342Y0196636D01*
X0068314Y0196569D01*
X0068290Y0196500D01*
X0070415Y0195500D02*
X0070461Y0195546D01*
X0070505Y0195595D01*
X0070545Y0195646D01*
X0070583Y0195699D01*
X0070618Y0195754D01*
X0070650Y0195811D01*
X0070679Y0195869D01*
X0070705Y0195929D01*
X0070727Y0195991D01*
X0070746Y0196053D01*
X0070762Y0196116D01*
X0070774Y0196180D01*
X0070783Y0196245D01*
X0070788Y0196310D01*
X0070790Y0196375D01*
X0070788Y0196440D01*
X0070782Y0196506D01*
X0070773Y0196570D01*
X0070760Y0196634D01*
X0070743Y0196698D01*
X0070722Y0196760D01*
X0070698Y0196821D01*
X0070670Y0196880D01*
X0070639Y0196938D01*
X0070605Y0196993D01*
X0070567Y0197047D01*
X0070527Y0197098D01*
X0070483Y0197147D01*
X0070437Y0197193D01*
X0070388Y0197237D01*
X0070337Y0197277D01*
X0070283Y0197315D01*
X0070228Y0197349D01*
X0070170Y0197380D01*
X0070111Y0197408D01*
X0070050Y0197432D01*
X0069988Y0197453D01*
X0069924Y0197470D01*
X0069860Y0197483D01*
X0069796Y0197492D01*
X0069730Y0197498D01*
X0069665Y0197500D01*
X0069540Y0167500D02*
X0069540Y0163000D01*
X0068290Y0163000D02*
X0070790Y0163000D01*
X0068290Y0166500D02*
X0069540Y0167500D01*
X0066440Y0167500D02*
X0065440Y0167500D01*
X0065940Y0167500D02*
X0065940Y0163000D01*
X0065440Y0163000D02*
X0066440Y0163000D01*
X0063850Y0165500D02*
X0061850Y0165500D01*
X0061850Y0167500D02*
X0061850Y0163000D01*
X0059840Y0163000D02*
X0058840Y0163000D01*
X0059340Y0163000D02*
X0059340Y0167500D01*
X0058840Y0167500D02*
X0059840Y0167500D01*
X0061850Y0167500D02*
X0063850Y0167500D01*
X0057250Y0163000D02*
X0055250Y0163000D01*
X0055250Y0167500D01*
X0052000Y0158500D02*
X0052000Y0154000D01*
X0050750Y0154000D02*
X0053250Y0154000D01*
X0050750Y0157500D02*
X0052000Y0158500D01*
X0052000Y0184000D02*
X0052000Y0188500D01*
X0050750Y0187500D01*
X0050750Y0184000D02*
X0053250Y0184000D01*
X0059760Y0122500D02*
X0061760Y0122500D01*
X0063650Y0122500D02*
X0063650Y0118000D01*
X0061760Y0118000D02*
X0059760Y0118000D01*
X0059760Y0122500D01*
X0059760Y0120500D02*
X0061260Y0120500D01*
X0063650Y0122500D02*
X0066150Y0118000D01*
X0066150Y0122500D01*
X0068775Y0120625D02*
X0070150Y0119875D01*
X0069650Y0117999D02*
X0069562Y0118001D01*
X0069475Y0118006D01*
X0069387Y0118015D01*
X0069300Y0118028D01*
X0069214Y0118044D01*
X0069129Y0118064D01*
X0069044Y0118088D01*
X0068960Y0118115D01*
X0068878Y0118145D01*
X0068797Y0118179D01*
X0068717Y0118216D01*
X0068639Y0118256D01*
X0068563Y0118300D01*
X0068489Y0118347D01*
X0068417Y0118396D01*
X0068346Y0118449D01*
X0068278Y0118505D01*
X0068213Y0118563D01*
X0068150Y0118624D01*
X0070150Y0119875D02*
X0070202Y0119842D01*
X0070253Y0119806D01*
X0070301Y0119767D01*
X0070346Y0119725D01*
X0070389Y0119680D01*
X0070429Y0119632D01*
X0070466Y0119583D01*
X0070500Y0119531D01*
X0070531Y0119477D01*
X0070559Y0119421D01*
X0070583Y0119364D01*
X0070603Y0119305D01*
X0070620Y0119246D01*
X0070633Y0119185D01*
X0070642Y0119124D01*
X0070648Y0119062D01*
X0070650Y0119000D01*
X0070648Y0118940D01*
X0070643Y0118879D01*
X0070634Y0118820D01*
X0070621Y0118761D01*
X0070605Y0118702D01*
X0070585Y0118645D01*
X0070562Y0118590D01*
X0070535Y0118535D01*
X0070506Y0118483D01*
X0070473Y0118432D01*
X0070437Y0118383D01*
X0070399Y0118337D01*
X0070357Y0118293D01*
X0070313Y0118251D01*
X0070267Y0118213D01*
X0070218Y0118177D01*
X0070167Y0118144D01*
X0070115Y0118115D01*
X0070060Y0118088D01*
X0070005Y0118065D01*
X0069948Y0118045D01*
X0069889Y0118029D01*
X0069830Y0118016D01*
X0069771Y0118007D01*
X0069710Y0118002D01*
X0069650Y0118000D01*
X0070400Y0122125D02*
X0070335Y0122172D01*
X0070267Y0122216D01*
X0070198Y0122257D01*
X0070127Y0122295D01*
X0070055Y0122330D01*
X0069981Y0122362D01*
X0069906Y0122391D01*
X0069830Y0122416D01*
X0069752Y0122438D01*
X0069674Y0122457D01*
X0069595Y0122472D01*
X0069516Y0122484D01*
X0069436Y0122493D01*
X0069355Y0122498D01*
X0069275Y0122500D01*
X0069215Y0122498D01*
X0069154Y0122493D01*
X0069095Y0122484D01*
X0069036Y0122471D01*
X0068977Y0122455D01*
X0068920Y0122435D01*
X0068865Y0122412D01*
X0068810Y0122385D01*
X0068758Y0122356D01*
X0068707Y0122323D01*
X0068658Y0122287D01*
X0068612Y0122249D01*
X0068568Y0122207D01*
X0068526Y0122163D01*
X0068488Y0122117D01*
X0068452Y0122068D01*
X0068419Y0122017D01*
X0068390Y0121965D01*
X0068363Y0121910D01*
X0068340Y0121855D01*
X0068320Y0121798D01*
X0068304Y0121739D01*
X0068291Y0121680D01*
X0068282Y0121621D01*
X0068277Y0121560D01*
X0068275Y0121500D01*
X0068277Y0121438D01*
X0068283Y0121376D01*
X0068292Y0121315D01*
X0068305Y0121254D01*
X0068322Y0121195D01*
X0068342Y0121136D01*
X0068366Y0121079D01*
X0068394Y0121023D01*
X0068425Y0120969D01*
X0068459Y0120917D01*
X0068496Y0120868D01*
X0068536Y0120820D01*
X0068579Y0120775D01*
X0068624Y0120733D01*
X0068672Y0120694D01*
X0068723Y0120658D01*
X0068775Y0120625D01*
X0072500Y0121250D02*
X0072500Y0119250D01*
X0072502Y0119181D01*
X0072508Y0119112D01*
X0072517Y0119044D01*
X0072530Y0118977D01*
X0072547Y0118910D01*
X0072568Y0118844D01*
X0072592Y0118780D01*
X0072620Y0118717D01*
X0072651Y0118655D01*
X0072685Y0118595D01*
X0072723Y0118538D01*
X0072764Y0118482D01*
X0072807Y0118429D01*
X0072854Y0118378D01*
X0072903Y0118330D01*
X0072955Y0118285D01*
X0073010Y0118243D01*
X0073066Y0118204D01*
X0073125Y0118167D01*
X0073186Y0118135D01*
X0073248Y0118105D01*
X0073312Y0118079D01*
X0073377Y0118057D01*
X0073443Y0118038D01*
X0073510Y0118023D01*
X0073578Y0118012D01*
X0073647Y0118004D01*
X0073716Y0118000D01*
X0073784Y0118000D01*
X0073853Y0118004D01*
X0073922Y0118012D01*
X0073990Y0118023D01*
X0074057Y0118038D01*
X0074123Y0118057D01*
X0074188Y0118079D01*
X0074252Y0118105D01*
X0074314Y0118135D01*
X0074375Y0118167D01*
X0074434Y0118204D01*
X0074490Y0118243D01*
X0074545Y0118285D01*
X0074597Y0118330D01*
X0074646Y0118378D01*
X0074693Y0118429D01*
X0074736Y0118482D01*
X0074777Y0118538D01*
X0074815Y0118595D01*
X0074849Y0118655D01*
X0074880Y0118717D01*
X0074908Y0118780D01*
X0074932Y0118844D01*
X0074953Y0118910D01*
X0074970Y0118977D01*
X0074983Y0119044D01*
X0074992Y0119112D01*
X0074998Y0119181D01*
X0075000Y0119250D01*
X0075000Y0121250D01*
X0074998Y0121319D01*
X0074992Y0121388D01*
X0074983Y0121456D01*
X0074970Y0121523D01*
X0074953Y0121590D01*
X0074932Y0121656D01*
X0074908Y0121720D01*
X0074880Y0121783D01*
X0074849Y0121845D01*
X0074815Y0121905D01*
X0074777Y0121962D01*
X0074736Y0122018D01*
X0074693Y0122071D01*
X0074646Y0122122D01*
X0074597Y0122170D01*
X0074545Y0122215D01*
X0074490Y0122257D01*
X0074434Y0122296D01*
X0074375Y0122333D01*
X0074314Y0122365D01*
X0074252Y0122395D01*
X0074188Y0122421D01*
X0074123Y0122443D01*
X0074057Y0122462D01*
X0073990Y0122477D01*
X0073922Y0122488D01*
X0073853Y0122496D01*
X0073784Y0122500D01*
X0073716Y0122500D01*
X0073647Y0122496D01*
X0073578Y0122488D01*
X0073510Y0122477D01*
X0073443Y0122462D01*
X0073377Y0122443D01*
X0073312Y0122421D01*
X0073248Y0122395D01*
X0073186Y0122365D01*
X0073125Y0122333D01*
X0073066Y0122296D01*
X0073010Y0122257D01*
X0072955Y0122215D01*
X0072903Y0122170D01*
X0072854Y0122122D01*
X0072807Y0122071D01*
X0072764Y0122018D01*
X0072723Y0121962D01*
X0072685Y0121905D01*
X0072651Y0121845D01*
X0072620Y0121783D01*
X0072592Y0121720D01*
X0072568Y0121656D01*
X0072547Y0121590D01*
X0072530Y0121523D01*
X0072517Y0121456D01*
X0072508Y0121388D01*
X0072502Y0121319D01*
X0072500Y0121250D01*
X0077183Y0120000D02*
X0078433Y0120000D01*
X0078683Y0120000D02*
X0079683Y0118000D01*
X0081650Y0118000D02*
X0084150Y0118000D01*
X0081650Y0118000D02*
X0083775Y0120500D01*
X0083025Y0122500D02*
X0082952Y0122498D01*
X0082880Y0122493D01*
X0082808Y0122484D01*
X0082736Y0122471D01*
X0082665Y0122455D01*
X0082595Y0122435D01*
X0082527Y0122411D01*
X0082459Y0122385D01*
X0082393Y0122354D01*
X0082328Y0122321D01*
X0082266Y0122284D01*
X0082205Y0122245D01*
X0082146Y0122202D01*
X0082089Y0122156D01*
X0082035Y0122108D01*
X0081984Y0122057D01*
X0081934Y0122003D01*
X0081888Y0121947D01*
X0081845Y0121889D01*
X0081804Y0121828D01*
X0081767Y0121766D01*
X0081733Y0121702D01*
X0081702Y0121636D01*
X0081674Y0121569D01*
X0081650Y0121500D01*
X0083775Y0120500D02*
X0083821Y0120546D01*
X0083865Y0120595D01*
X0083905Y0120646D01*
X0083943Y0120699D01*
X0083978Y0120754D01*
X0084010Y0120811D01*
X0084039Y0120869D01*
X0084065Y0120929D01*
X0084087Y0120991D01*
X0084106Y0121053D01*
X0084122Y0121116D01*
X0084134Y0121180D01*
X0084143Y0121245D01*
X0084148Y0121310D01*
X0084150Y0121375D01*
X0084148Y0121440D01*
X0084142Y0121506D01*
X0084133Y0121570D01*
X0084120Y0121634D01*
X0084103Y0121698D01*
X0084082Y0121760D01*
X0084058Y0121821D01*
X0084030Y0121880D01*
X0083999Y0121938D01*
X0083965Y0121993D01*
X0083927Y0122047D01*
X0083887Y0122098D01*
X0083843Y0122147D01*
X0083797Y0122193D01*
X0083748Y0122237D01*
X0083697Y0122277D01*
X0083643Y0122315D01*
X0083588Y0122349D01*
X0083530Y0122380D01*
X0083471Y0122408D01*
X0083410Y0122432D01*
X0083348Y0122453D01*
X0083284Y0122470D01*
X0083220Y0122483D01*
X0083156Y0122492D01*
X0083090Y0122498D01*
X0083025Y0122500D01*
X0078433Y0122500D02*
X0077183Y0122500D01*
X0077183Y0118000D01*
X0078433Y0120000D02*
X0078502Y0120002D01*
X0078571Y0120008D01*
X0078639Y0120017D01*
X0078706Y0120030D01*
X0078773Y0120047D01*
X0078839Y0120068D01*
X0078903Y0120092D01*
X0078966Y0120120D01*
X0079028Y0120151D01*
X0079088Y0120185D01*
X0079145Y0120223D01*
X0079201Y0120264D01*
X0079254Y0120307D01*
X0079305Y0120354D01*
X0079353Y0120403D01*
X0079398Y0120455D01*
X0079440Y0120510D01*
X0079479Y0120566D01*
X0079516Y0120625D01*
X0079548Y0120686D01*
X0079578Y0120748D01*
X0079604Y0120812D01*
X0079626Y0120877D01*
X0079645Y0120943D01*
X0079660Y0121010D01*
X0079671Y0121078D01*
X0079679Y0121147D01*
X0079683Y0121216D01*
X0079683Y0121284D01*
X0079679Y0121353D01*
X0079671Y0121422D01*
X0079660Y0121490D01*
X0079645Y0121557D01*
X0079626Y0121623D01*
X0079604Y0121688D01*
X0079578Y0121752D01*
X0079548Y0121814D01*
X0079516Y0121875D01*
X0079479Y0121934D01*
X0079440Y0121990D01*
X0079398Y0122045D01*
X0079353Y0122097D01*
X0079305Y0122146D01*
X0079254Y0122193D01*
X0079201Y0122236D01*
X0079145Y0122277D01*
X0079088Y0122315D01*
X0079028Y0122349D01*
X0078966Y0122380D01*
X0078903Y0122408D01*
X0078839Y0122432D01*
X0078773Y0122453D01*
X0078706Y0122470D01*
X0078639Y0122483D01*
X0078571Y0122492D01*
X0078502Y0122498D01*
X0078433Y0122500D01*
X0095250Y0143000D02*
X0095250Y0147500D01*
X0097750Y0143000D01*
X0097750Y0147500D01*
X0100083Y0147500D02*
X0100083Y0143000D01*
X0100083Y0145000D02*
X0101333Y0145000D01*
X0101583Y0145000D02*
X0102583Y0143000D01*
X0104710Y0143000D02*
X0104710Y0147500D01*
X0106710Y0147500D01*
X0106710Y0145500D02*
X0104710Y0145500D01*
X0101333Y0145000D02*
X0101402Y0145002D01*
X0101471Y0145008D01*
X0101539Y0145017D01*
X0101606Y0145030D01*
X0101673Y0145047D01*
X0101739Y0145068D01*
X0101803Y0145092D01*
X0101866Y0145120D01*
X0101928Y0145151D01*
X0101988Y0145185D01*
X0102045Y0145223D01*
X0102101Y0145264D01*
X0102154Y0145307D01*
X0102205Y0145354D01*
X0102253Y0145403D01*
X0102298Y0145455D01*
X0102340Y0145510D01*
X0102379Y0145566D01*
X0102416Y0145625D01*
X0102448Y0145686D01*
X0102478Y0145748D01*
X0102504Y0145812D01*
X0102526Y0145877D01*
X0102545Y0145943D01*
X0102560Y0146010D01*
X0102571Y0146078D01*
X0102579Y0146147D01*
X0102583Y0146216D01*
X0102583Y0146284D01*
X0102579Y0146353D01*
X0102571Y0146422D01*
X0102560Y0146490D01*
X0102545Y0146557D01*
X0102526Y0146623D01*
X0102504Y0146688D01*
X0102478Y0146752D01*
X0102448Y0146814D01*
X0102416Y0146875D01*
X0102379Y0146934D01*
X0102340Y0146990D01*
X0102298Y0147045D01*
X0102253Y0147097D01*
X0102205Y0147146D01*
X0102154Y0147193D01*
X0102101Y0147236D01*
X0102045Y0147277D01*
X0101988Y0147315D01*
X0101928Y0147349D01*
X0101866Y0147380D01*
X0101803Y0147408D01*
X0101739Y0147432D01*
X0101673Y0147453D01*
X0101606Y0147470D01*
X0101539Y0147483D01*
X0101471Y0147492D01*
X0101402Y0147498D01*
X0101333Y0147500D01*
X0100083Y0147500D01*
X0098000Y0154000D02*
X0098000Y0156000D01*
X0098750Y0155000D02*
X0096250Y0155000D01*
X0097250Y0158500D01*
X0098000Y0184000D02*
X0098000Y0186000D01*
X0098750Y0185000D02*
X0096250Y0185000D01*
X0097250Y0188500D01*
X0098000Y0214000D02*
X0098000Y0216000D01*
X0098750Y0215000D02*
X0096250Y0215000D01*
X0097250Y0218500D01*
X0098000Y0244000D02*
X0098000Y0246000D01*
X0098750Y0245000D02*
X0096250Y0245000D01*
X0097250Y0248500D01*
X0088650Y0271500D02*
X0089900Y0276000D01*
X0087400Y0276000D01*
X0087400Y0275500D01*
X0085250Y0274750D02*
X0085250Y0272750D01*
X0085248Y0272682D01*
X0085243Y0272615D01*
X0085234Y0272548D01*
X0085221Y0272481D01*
X0085204Y0272416D01*
X0085185Y0272351D01*
X0085161Y0272287D01*
X0085134Y0272225D01*
X0085104Y0272164D01*
X0085071Y0272106D01*
X0085035Y0272049D01*
X0084995Y0271994D01*
X0084953Y0271941D01*
X0084907Y0271890D01*
X0084860Y0271843D01*
X0084809Y0271797D01*
X0084756Y0271755D01*
X0084701Y0271715D01*
X0084644Y0271679D01*
X0084586Y0271646D01*
X0084525Y0271616D01*
X0084463Y0271589D01*
X0084399Y0271565D01*
X0084334Y0271546D01*
X0084269Y0271529D01*
X0084202Y0271516D01*
X0084135Y0271507D01*
X0084068Y0271502D01*
X0084000Y0271500D01*
X0082750Y0271500D01*
X0082750Y0276000D01*
X0084000Y0276000D01*
X0084068Y0275998D01*
X0084135Y0275993D01*
X0084202Y0275984D01*
X0084269Y0275971D01*
X0084334Y0275954D01*
X0084399Y0275935D01*
X0084463Y0275911D01*
X0084525Y0275884D01*
X0084586Y0275854D01*
X0084644Y0275821D01*
X0084701Y0275785D01*
X0084756Y0275745D01*
X0084809Y0275703D01*
X0084860Y0275657D01*
X0084907Y0275610D01*
X0084953Y0275559D01*
X0084995Y0275506D01*
X0085035Y0275451D01*
X0085071Y0275394D01*
X0085104Y0275336D01*
X0085134Y0275275D01*
X0085161Y0275213D01*
X0085185Y0275149D01*
X0085204Y0275084D01*
X0085221Y0275019D01*
X0085234Y0274952D01*
X0085243Y0274885D01*
X0085248Y0274818D01*
X0085250Y0274750D01*
X0084000Y0296500D02*
X0082750Y0296500D01*
X0082750Y0301000D01*
X0084000Y0301000D01*
X0084068Y0300998D01*
X0084135Y0300993D01*
X0084202Y0300984D01*
X0084269Y0300971D01*
X0084334Y0300954D01*
X0084399Y0300935D01*
X0084463Y0300911D01*
X0084525Y0300884D01*
X0084586Y0300854D01*
X0084644Y0300821D01*
X0084701Y0300785D01*
X0084756Y0300745D01*
X0084809Y0300703D01*
X0084860Y0300657D01*
X0084907Y0300610D01*
X0084953Y0300559D01*
X0084995Y0300506D01*
X0085035Y0300451D01*
X0085071Y0300394D01*
X0085104Y0300336D01*
X0085134Y0300275D01*
X0085161Y0300213D01*
X0085185Y0300149D01*
X0085204Y0300084D01*
X0085221Y0300019D01*
X0085234Y0299952D01*
X0085243Y0299885D01*
X0085248Y0299818D01*
X0085250Y0299750D01*
X0085250Y0297750D01*
X0085248Y0297682D01*
X0085243Y0297615D01*
X0085234Y0297548D01*
X0085221Y0297481D01*
X0085204Y0297416D01*
X0085185Y0297351D01*
X0085161Y0297287D01*
X0085134Y0297225D01*
X0085104Y0297164D01*
X0085071Y0297106D01*
X0085035Y0297049D01*
X0084995Y0296994D01*
X0084953Y0296941D01*
X0084907Y0296890D01*
X0084860Y0296843D01*
X0084809Y0296797D01*
X0084756Y0296755D01*
X0084701Y0296715D01*
X0084644Y0296679D01*
X0084586Y0296646D01*
X0084525Y0296616D01*
X0084463Y0296589D01*
X0084399Y0296565D01*
X0084334Y0296546D01*
X0084269Y0296529D01*
X0084202Y0296516D01*
X0084135Y0296507D01*
X0084068Y0296502D01*
X0084000Y0296500D01*
X0087400Y0296500D02*
X0089900Y0296500D01*
X0087400Y0296500D02*
X0089525Y0299000D01*
X0088775Y0301000D02*
X0088702Y0300998D01*
X0088630Y0300993D01*
X0088558Y0300984D01*
X0088486Y0300971D01*
X0088415Y0300955D01*
X0088345Y0300935D01*
X0088277Y0300911D01*
X0088209Y0300885D01*
X0088143Y0300854D01*
X0088078Y0300821D01*
X0088016Y0300784D01*
X0087955Y0300745D01*
X0087896Y0300702D01*
X0087839Y0300656D01*
X0087785Y0300608D01*
X0087734Y0300557D01*
X0087684Y0300503D01*
X0087638Y0300447D01*
X0087595Y0300389D01*
X0087554Y0300328D01*
X0087517Y0300266D01*
X0087483Y0300202D01*
X0087452Y0300136D01*
X0087424Y0300069D01*
X0087400Y0300000D01*
X0089525Y0299000D02*
X0089571Y0299046D01*
X0089615Y0299095D01*
X0089655Y0299146D01*
X0089693Y0299199D01*
X0089728Y0299254D01*
X0089760Y0299311D01*
X0089789Y0299369D01*
X0089815Y0299429D01*
X0089837Y0299491D01*
X0089856Y0299553D01*
X0089872Y0299616D01*
X0089884Y0299680D01*
X0089893Y0299745D01*
X0089898Y0299810D01*
X0089900Y0299875D01*
X0089898Y0299940D01*
X0089892Y0300006D01*
X0089883Y0300070D01*
X0089870Y0300134D01*
X0089853Y0300198D01*
X0089832Y0300260D01*
X0089808Y0300321D01*
X0089780Y0300380D01*
X0089749Y0300438D01*
X0089715Y0300493D01*
X0089677Y0300547D01*
X0089637Y0300598D01*
X0089593Y0300647D01*
X0089547Y0300693D01*
X0089498Y0300737D01*
X0089447Y0300777D01*
X0089393Y0300815D01*
X0089338Y0300849D01*
X0089280Y0300880D01*
X0089221Y0300908D01*
X0089160Y0300932D01*
X0089098Y0300953D01*
X0089034Y0300970D01*
X0088970Y0300983D01*
X0088906Y0300992D01*
X0088840Y0300998D01*
X0088775Y0301000D01*
X0117750Y0301000D02*
X0117750Y0296500D01*
X0119000Y0296500D01*
X0119068Y0296502D01*
X0119135Y0296507D01*
X0119202Y0296516D01*
X0119269Y0296529D01*
X0119334Y0296546D01*
X0119399Y0296565D01*
X0119463Y0296589D01*
X0119525Y0296616D01*
X0119586Y0296646D01*
X0119644Y0296679D01*
X0119701Y0296715D01*
X0119756Y0296755D01*
X0119809Y0296797D01*
X0119860Y0296843D01*
X0119907Y0296890D01*
X0119953Y0296941D01*
X0119995Y0296994D01*
X0120035Y0297049D01*
X0120071Y0297106D01*
X0120104Y0297164D01*
X0120134Y0297225D01*
X0120161Y0297287D01*
X0120185Y0297351D01*
X0120204Y0297416D01*
X0120221Y0297481D01*
X0120234Y0297548D01*
X0120243Y0297615D01*
X0120248Y0297682D01*
X0120250Y0297750D01*
X0120250Y0299750D01*
X0120248Y0299818D01*
X0120243Y0299885D01*
X0120234Y0299952D01*
X0120221Y0300019D01*
X0120204Y0300084D01*
X0120185Y0300149D01*
X0120161Y0300213D01*
X0120134Y0300275D01*
X0120104Y0300336D01*
X0120071Y0300394D01*
X0120035Y0300451D01*
X0119995Y0300506D01*
X0119953Y0300559D01*
X0119907Y0300610D01*
X0119860Y0300657D01*
X0119809Y0300703D01*
X0119756Y0300745D01*
X0119701Y0300785D01*
X0119644Y0300821D01*
X0119586Y0300854D01*
X0119525Y0300884D01*
X0119463Y0300911D01*
X0119399Y0300935D01*
X0119334Y0300954D01*
X0119269Y0300971D01*
X0119202Y0300984D01*
X0119135Y0300993D01*
X0119068Y0300998D01*
X0119000Y0301000D01*
X0117750Y0301000D01*
X0122400Y0301000D02*
X0123900Y0301000D01*
X0123962Y0300998D01*
X0124023Y0300992D01*
X0124084Y0300983D01*
X0124144Y0300970D01*
X0124203Y0300953D01*
X0124261Y0300932D01*
X0124318Y0300908D01*
X0124373Y0300881D01*
X0124426Y0300850D01*
X0124478Y0300816D01*
X0124527Y0300779D01*
X0124574Y0300739D01*
X0124618Y0300696D01*
X0124659Y0300651D01*
X0124698Y0300603D01*
X0124734Y0300552D01*
X0124766Y0300500D01*
X0124795Y0300446D01*
X0124821Y0300390D01*
X0124843Y0300332D01*
X0124862Y0300274D01*
X0124877Y0300214D01*
X0124888Y0300153D01*
X0124896Y0300092D01*
X0124900Y0300031D01*
X0124900Y0299969D01*
X0124896Y0299908D01*
X0124888Y0299847D01*
X0124877Y0299786D01*
X0124862Y0299726D01*
X0124843Y0299668D01*
X0124821Y0299610D01*
X0124795Y0299554D01*
X0124766Y0299500D01*
X0124734Y0299448D01*
X0124698Y0299397D01*
X0124659Y0299349D01*
X0124618Y0299304D01*
X0124574Y0299261D01*
X0124527Y0299221D01*
X0124478Y0299184D01*
X0124426Y0299150D01*
X0124373Y0299119D01*
X0124318Y0299092D01*
X0124261Y0299068D01*
X0124203Y0299047D01*
X0124144Y0299030D01*
X0124084Y0299017D01*
X0124023Y0299008D01*
X0123962Y0299002D01*
X0123900Y0299000D01*
X0122900Y0299000D01*
X0123650Y0299000D02*
X0123719Y0298998D01*
X0123788Y0298992D01*
X0123856Y0298983D01*
X0123923Y0298970D01*
X0123990Y0298953D01*
X0124056Y0298932D01*
X0124120Y0298908D01*
X0124183Y0298880D01*
X0124245Y0298849D01*
X0124305Y0298815D01*
X0124362Y0298777D01*
X0124418Y0298736D01*
X0124471Y0298693D01*
X0124522Y0298646D01*
X0124570Y0298597D01*
X0124615Y0298545D01*
X0124657Y0298490D01*
X0124696Y0298434D01*
X0124733Y0298375D01*
X0124765Y0298314D01*
X0124795Y0298252D01*
X0124821Y0298188D01*
X0124843Y0298123D01*
X0124862Y0298057D01*
X0124877Y0297990D01*
X0124888Y0297922D01*
X0124896Y0297853D01*
X0124900Y0297784D01*
X0124900Y0297716D01*
X0124896Y0297647D01*
X0124888Y0297578D01*
X0124877Y0297510D01*
X0124862Y0297443D01*
X0124843Y0297377D01*
X0124821Y0297312D01*
X0124795Y0297248D01*
X0124765Y0297186D01*
X0124733Y0297125D01*
X0124696Y0297066D01*
X0124657Y0297010D01*
X0124615Y0296955D01*
X0124570Y0296903D01*
X0124522Y0296854D01*
X0124471Y0296807D01*
X0124418Y0296764D01*
X0124362Y0296723D01*
X0124305Y0296685D01*
X0124245Y0296651D01*
X0124183Y0296620D01*
X0124120Y0296592D01*
X0124056Y0296568D01*
X0123990Y0296547D01*
X0123923Y0296530D01*
X0123856Y0296517D01*
X0123788Y0296508D01*
X0123719Y0296502D01*
X0123650Y0296500D01*
X0122400Y0296500D01*
X0119000Y0276000D02*
X0117750Y0276000D01*
X0117750Y0271500D01*
X0119000Y0271500D01*
X0119068Y0271502D01*
X0119135Y0271507D01*
X0119202Y0271516D01*
X0119269Y0271529D01*
X0119334Y0271546D01*
X0119399Y0271565D01*
X0119463Y0271589D01*
X0119525Y0271616D01*
X0119586Y0271646D01*
X0119644Y0271679D01*
X0119701Y0271715D01*
X0119756Y0271755D01*
X0119809Y0271797D01*
X0119860Y0271843D01*
X0119907Y0271890D01*
X0119953Y0271941D01*
X0119995Y0271994D01*
X0120035Y0272049D01*
X0120071Y0272106D01*
X0120104Y0272164D01*
X0120134Y0272225D01*
X0120161Y0272287D01*
X0120185Y0272351D01*
X0120204Y0272416D01*
X0120221Y0272481D01*
X0120234Y0272548D01*
X0120243Y0272615D01*
X0120248Y0272682D01*
X0120250Y0272750D01*
X0120250Y0274750D01*
X0120248Y0274818D01*
X0120243Y0274885D01*
X0120234Y0274952D01*
X0120221Y0275019D01*
X0120204Y0275084D01*
X0120185Y0275149D01*
X0120161Y0275213D01*
X0120134Y0275275D01*
X0120104Y0275336D01*
X0120071Y0275394D01*
X0120035Y0275451D01*
X0119995Y0275506D01*
X0119953Y0275559D01*
X0119907Y0275610D01*
X0119860Y0275657D01*
X0119809Y0275703D01*
X0119756Y0275745D01*
X0119701Y0275785D01*
X0119644Y0275821D01*
X0119586Y0275854D01*
X0119525Y0275884D01*
X0119463Y0275911D01*
X0119399Y0275935D01*
X0119334Y0275954D01*
X0119269Y0275971D01*
X0119202Y0275984D01*
X0119135Y0275993D01*
X0119068Y0275998D01*
X0119000Y0276000D01*
X0122400Y0274000D02*
X0122400Y0272750D01*
X0122400Y0274000D02*
X0123900Y0274000D01*
X0122400Y0274000D02*
X0122402Y0274087D01*
X0122408Y0274174D01*
X0122417Y0274261D01*
X0122430Y0274347D01*
X0122447Y0274433D01*
X0122468Y0274518D01*
X0122493Y0274601D01*
X0122521Y0274684D01*
X0122552Y0274765D01*
X0122587Y0274845D01*
X0122626Y0274923D01*
X0122668Y0275000D01*
X0122713Y0275075D01*
X0122762Y0275147D01*
X0122813Y0275218D01*
X0122868Y0275286D01*
X0122925Y0275351D01*
X0122986Y0275414D01*
X0123049Y0275475D01*
X0123114Y0275532D01*
X0123182Y0275587D01*
X0123253Y0275638D01*
X0123325Y0275687D01*
X0123400Y0275732D01*
X0123477Y0275774D01*
X0123555Y0275813D01*
X0123635Y0275848D01*
X0123716Y0275879D01*
X0123799Y0275907D01*
X0123882Y0275932D01*
X0123967Y0275953D01*
X0124053Y0275970D01*
X0124139Y0275983D01*
X0124226Y0275992D01*
X0124313Y0275998D01*
X0124400Y0276000D01*
X0123900Y0274000D02*
X0123960Y0273998D01*
X0124021Y0273993D01*
X0124080Y0273984D01*
X0124139Y0273971D01*
X0124198Y0273955D01*
X0124255Y0273935D01*
X0124310Y0273912D01*
X0124365Y0273885D01*
X0124417Y0273856D01*
X0124468Y0273823D01*
X0124517Y0273787D01*
X0124563Y0273749D01*
X0124607Y0273707D01*
X0124649Y0273663D01*
X0124687Y0273617D01*
X0124723Y0273568D01*
X0124756Y0273517D01*
X0124785Y0273465D01*
X0124812Y0273410D01*
X0124835Y0273355D01*
X0124855Y0273298D01*
X0124871Y0273239D01*
X0124884Y0273180D01*
X0124893Y0273121D01*
X0124898Y0273060D01*
X0124900Y0273000D01*
X0124900Y0272750D01*
X0124898Y0272681D01*
X0124892Y0272612D01*
X0124883Y0272544D01*
X0124870Y0272477D01*
X0124853Y0272410D01*
X0124832Y0272344D01*
X0124808Y0272280D01*
X0124780Y0272217D01*
X0124749Y0272155D01*
X0124715Y0272095D01*
X0124677Y0272038D01*
X0124636Y0271982D01*
X0124593Y0271929D01*
X0124546Y0271878D01*
X0124497Y0271830D01*
X0124445Y0271785D01*
X0124390Y0271743D01*
X0124334Y0271704D01*
X0124275Y0271667D01*
X0124214Y0271635D01*
X0124152Y0271605D01*
X0124088Y0271579D01*
X0124023Y0271557D01*
X0123957Y0271538D01*
X0123890Y0271523D01*
X0123822Y0271512D01*
X0123753Y0271504D01*
X0123684Y0271500D01*
X0123616Y0271500D01*
X0123547Y0271504D01*
X0123478Y0271512D01*
X0123410Y0271523D01*
X0123343Y0271538D01*
X0123277Y0271557D01*
X0123212Y0271579D01*
X0123148Y0271605D01*
X0123086Y0271635D01*
X0123025Y0271667D01*
X0122966Y0271704D01*
X0122910Y0271743D01*
X0122855Y0271785D01*
X0122803Y0271830D01*
X0122754Y0271878D01*
X0122707Y0271929D01*
X0122664Y0271982D01*
X0122623Y0272038D01*
X0122585Y0272095D01*
X0122551Y0272155D01*
X0122520Y0272217D01*
X0122492Y0272280D01*
X0122468Y0272344D01*
X0122447Y0272410D01*
X0122430Y0272477D01*
X0122417Y0272544D01*
X0122408Y0272612D01*
X0122402Y0272681D01*
X0122400Y0272750D01*
X0141375Y0237500D02*
X0141315Y0237498D01*
X0141254Y0237493D01*
X0141195Y0237484D01*
X0141136Y0237471D01*
X0141077Y0237455D01*
X0141020Y0237435D01*
X0140965Y0237412D01*
X0140910Y0237385D01*
X0140858Y0237356D01*
X0140807Y0237323D01*
X0140758Y0237287D01*
X0140712Y0237249D01*
X0140668Y0237207D01*
X0140626Y0237163D01*
X0140588Y0237117D01*
X0140552Y0237068D01*
X0140519Y0237017D01*
X0140490Y0236965D01*
X0140463Y0236910D01*
X0140440Y0236855D01*
X0140420Y0236798D01*
X0140404Y0236739D01*
X0140391Y0236680D01*
X0140382Y0236621D01*
X0140377Y0236560D01*
X0140375Y0236500D01*
X0140875Y0235625D02*
X0142250Y0234875D01*
X0141750Y0232999D02*
X0141662Y0233001D01*
X0141575Y0233006D01*
X0141487Y0233015D01*
X0141400Y0233028D01*
X0141314Y0233044D01*
X0141229Y0233064D01*
X0141144Y0233088D01*
X0141060Y0233115D01*
X0140978Y0233145D01*
X0140897Y0233179D01*
X0140817Y0233216D01*
X0140739Y0233256D01*
X0140663Y0233300D01*
X0140589Y0233347D01*
X0140517Y0233396D01*
X0140446Y0233449D01*
X0140378Y0233505D01*
X0140313Y0233563D01*
X0140250Y0233624D01*
X0142250Y0234875D02*
X0142302Y0234842D01*
X0142353Y0234806D01*
X0142401Y0234767D01*
X0142446Y0234725D01*
X0142489Y0234680D01*
X0142529Y0234632D01*
X0142566Y0234583D01*
X0142600Y0234531D01*
X0142631Y0234477D01*
X0142659Y0234421D01*
X0142683Y0234364D01*
X0142703Y0234305D01*
X0142720Y0234246D01*
X0142733Y0234185D01*
X0142742Y0234124D01*
X0142748Y0234062D01*
X0142750Y0234000D01*
X0142748Y0233940D01*
X0142743Y0233879D01*
X0142734Y0233820D01*
X0142721Y0233761D01*
X0142705Y0233702D01*
X0142685Y0233645D01*
X0142662Y0233590D01*
X0142635Y0233535D01*
X0142606Y0233483D01*
X0142573Y0233432D01*
X0142537Y0233383D01*
X0142499Y0233337D01*
X0142457Y0233293D01*
X0142413Y0233251D01*
X0142367Y0233213D01*
X0142318Y0233177D01*
X0142267Y0233144D01*
X0142215Y0233115D01*
X0142160Y0233088D01*
X0142105Y0233065D01*
X0142048Y0233045D01*
X0141989Y0233029D01*
X0141930Y0233016D01*
X0141871Y0233007D01*
X0141810Y0233002D01*
X0141750Y0233000D01*
X0142500Y0237125D02*
X0142435Y0237172D01*
X0142367Y0237216D01*
X0142298Y0237257D01*
X0142227Y0237295D01*
X0142155Y0237330D01*
X0142081Y0237362D01*
X0142006Y0237391D01*
X0141930Y0237416D01*
X0141852Y0237438D01*
X0141774Y0237457D01*
X0141695Y0237472D01*
X0141616Y0237484D01*
X0141536Y0237493D01*
X0141455Y0237498D01*
X0141375Y0237500D01*
X0140375Y0236500D02*
X0140377Y0236438D01*
X0140383Y0236376D01*
X0140392Y0236315D01*
X0140405Y0236254D01*
X0140422Y0236195D01*
X0140442Y0236136D01*
X0140466Y0236079D01*
X0140494Y0236023D01*
X0140525Y0235969D01*
X0140559Y0235917D01*
X0140596Y0235868D01*
X0140636Y0235820D01*
X0140679Y0235775D01*
X0140724Y0235733D01*
X0140772Y0235694D01*
X0140823Y0235658D01*
X0140875Y0235625D01*
X0144760Y0235500D02*
X0146260Y0235500D01*
X0146760Y0237500D02*
X0144760Y0237500D01*
X0144760Y0233000D01*
X0146760Y0233000D01*
X0148683Y0233000D02*
X0148683Y0237500D01*
X0149933Y0237500D01*
X0150002Y0237498D01*
X0150071Y0237492D01*
X0150139Y0237483D01*
X0150206Y0237470D01*
X0150273Y0237453D01*
X0150339Y0237432D01*
X0150403Y0237408D01*
X0150466Y0237380D01*
X0150528Y0237349D01*
X0150588Y0237315D01*
X0150645Y0237277D01*
X0150701Y0237236D01*
X0150754Y0237193D01*
X0150805Y0237146D01*
X0150853Y0237097D01*
X0150898Y0237045D01*
X0150940Y0236990D01*
X0150979Y0236934D01*
X0151016Y0236875D01*
X0151048Y0236814D01*
X0151078Y0236752D01*
X0151104Y0236688D01*
X0151126Y0236623D01*
X0151145Y0236557D01*
X0151160Y0236490D01*
X0151171Y0236422D01*
X0151179Y0236353D01*
X0151183Y0236284D01*
X0151183Y0236216D01*
X0151179Y0236147D01*
X0151171Y0236078D01*
X0151160Y0236010D01*
X0151145Y0235943D01*
X0151126Y0235877D01*
X0151104Y0235812D01*
X0151078Y0235748D01*
X0151048Y0235686D01*
X0151016Y0235625D01*
X0150979Y0235566D01*
X0150940Y0235510D01*
X0150898Y0235455D01*
X0150853Y0235403D01*
X0150805Y0235354D01*
X0150754Y0235307D01*
X0150701Y0235264D01*
X0150645Y0235223D01*
X0150588Y0235185D01*
X0150528Y0235151D01*
X0150466Y0235120D01*
X0150403Y0235092D01*
X0150339Y0235068D01*
X0150273Y0235047D01*
X0150206Y0235030D01*
X0150139Y0235017D01*
X0150071Y0235008D01*
X0150002Y0235002D01*
X0149933Y0235000D01*
X0148683Y0235000D01*
X0150183Y0235000D02*
X0151183Y0233000D01*
X0153000Y0233000D02*
X0154000Y0233000D01*
X0153500Y0233000D02*
X0153500Y0237500D01*
X0153000Y0237500D02*
X0154000Y0237500D01*
X0157100Y0237500D02*
X0155600Y0233000D01*
X0155975Y0234125D02*
X0158225Y0234125D01*
X0158600Y0233000D02*
X0157100Y0237500D01*
X0160510Y0237500D02*
X0160510Y0233000D01*
X0162510Y0233000D01*
X0164250Y0233000D02*
X0165500Y0233000D01*
X0165569Y0233002D01*
X0165638Y0233008D01*
X0165706Y0233017D01*
X0165773Y0233030D01*
X0165840Y0233047D01*
X0165906Y0233068D01*
X0165970Y0233092D01*
X0166033Y0233120D01*
X0166095Y0233151D01*
X0166155Y0233185D01*
X0166212Y0233223D01*
X0166268Y0233264D01*
X0166321Y0233307D01*
X0166372Y0233354D01*
X0166420Y0233403D01*
X0166465Y0233455D01*
X0166507Y0233510D01*
X0166546Y0233566D01*
X0166583Y0233625D01*
X0166615Y0233686D01*
X0166645Y0233748D01*
X0166671Y0233812D01*
X0166693Y0233877D01*
X0166712Y0233943D01*
X0166727Y0234010D01*
X0166738Y0234078D01*
X0166746Y0234147D01*
X0166750Y0234216D01*
X0166750Y0234284D01*
X0166746Y0234353D01*
X0166738Y0234422D01*
X0166727Y0234490D01*
X0166712Y0234557D01*
X0166693Y0234623D01*
X0166671Y0234688D01*
X0166645Y0234752D01*
X0166615Y0234814D01*
X0166583Y0234875D01*
X0166546Y0234934D01*
X0166507Y0234990D01*
X0166465Y0235045D01*
X0166420Y0235097D01*
X0166372Y0235146D01*
X0166321Y0235193D01*
X0166268Y0235236D01*
X0166212Y0235277D01*
X0166155Y0235315D01*
X0166095Y0235349D01*
X0166033Y0235380D01*
X0165970Y0235408D01*
X0165906Y0235432D01*
X0165840Y0235453D01*
X0165773Y0235470D01*
X0165706Y0235483D01*
X0165638Y0235492D01*
X0165569Y0235498D01*
X0165500Y0235500D01*
X0165750Y0235500D02*
X0164750Y0235500D01*
X0165750Y0235500D02*
X0165812Y0235502D01*
X0165873Y0235508D01*
X0165934Y0235517D01*
X0165994Y0235530D01*
X0166053Y0235547D01*
X0166111Y0235568D01*
X0166168Y0235592D01*
X0166223Y0235619D01*
X0166276Y0235650D01*
X0166328Y0235684D01*
X0166377Y0235721D01*
X0166424Y0235761D01*
X0166468Y0235804D01*
X0166509Y0235849D01*
X0166548Y0235897D01*
X0166584Y0235948D01*
X0166616Y0236000D01*
X0166645Y0236054D01*
X0166671Y0236110D01*
X0166693Y0236168D01*
X0166712Y0236226D01*
X0166727Y0236286D01*
X0166738Y0236347D01*
X0166746Y0236408D01*
X0166750Y0236469D01*
X0166750Y0236531D01*
X0166746Y0236592D01*
X0166738Y0236653D01*
X0166727Y0236714D01*
X0166712Y0236774D01*
X0166693Y0236832D01*
X0166671Y0236890D01*
X0166645Y0236946D01*
X0166616Y0237000D01*
X0166584Y0237052D01*
X0166548Y0237103D01*
X0166509Y0237151D01*
X0166468Y0237196D01*
X0166424Y0237239D01*
X0166377Y0237279D01*
X0166328Y0237316D01*
X0166276Y0237350D01*
X0166223Y0237381D01*
X0166168Y0237408D01*
X0166111Y0237432D01*
X0166053Y0237453D01*
X0165994Y0237470D01*
X0165934Y0237483D01*
X0165873Y0237492D01*
X0165812Y0237498D01*
X0165750Y0237500D01*
X0164250Y0237500D01*
X0158900Y0271500D02*
X0157400Y0271500D01*
X0158900Y0271500D02*
X0158960Y0271502D01*
X0159021Y0271507D01*
X0159080Y0271516D01*
X0159139Y0271529D01*
X0159198Y0271545D01*
X0159255Y0271565D01*
X0159310Y0271588D01*
X0159365Y0271615D01*
X0159417Y0271644D01*
X0159468Y0271677D01*
X0159517Y0271713D01*
X0159563Y0271751D01*
X0159607Y0271793D01*
X0159649Y0271837D01*
X0159687Y0271883D01*
X0159723Y0271932D01*
X0159756Y0271983D01*
X0159785Y0272035D01*
X0159812Y0272090D01*
X0159835Y0272145D01*
X0159855Y0272202D01*
X0159871Y0272261D01*
X0159884Y0272320D01*
X0159893Y0272379D01*
X0159898Y0272440D01*
X0159900Y0272500D01*
X0159900Y0273000D01*
X0159898Y0273060D01*
X0159893Y0273121D01*
X0159884Y0273180D01*
X0159871Y0273239D01*
X0159855Y0273298D01*
X0159835Y0273355D01*
X0159812Y0273410D01*
X0159785Y0273465D01*
X0159756Y0273517D01*
X0159723Y0273568D01*
X0159687Y0273617D01*
X0159649Y0273663D01*
X0159607Y0273707D01*
X0159563Y0273749D01*
X0159517Y0273787D01*
X0159468Y0273823D01*
X0159417Y0273856D01*
X0159365Y0273885D01*
X0159310Y0273912D01*
X0159255Y0273935D01*
X0159198Y0273955D01*
X0159139Y0273971D01*
X0159080Y0273984D01*
X0159021Y0273993D01*
X0158960Y0273998D01*
X0158900Y0274000D01*
X0157400Y0274000D01*
X0157400Y0276000D01*
X0159900Y0276000D01*
X0155250Y0274750D02*
X0155250Y0272750D01*
X0155248Y0272682D01*
X0155243Y0272615D01*
X0155234Y0272548D01*
X0155221Y0272481D01*
X0155204Y0272416D01*
X0155185Y0272351D01*
X0155161Y0272287D01*
X0155134Y0272225D01*
X0155104Y0272164D01*
X0155071Y0272106D01*
X0155035Y0272049D01*
X0154995Y0271994D01*
X0154953Y0271941D01*
X0154907Y0271890D01*
X0154860Y0271843D01*
X0154809Y0271797D01*
X0154756Y0271755D01*
X0154701Y0271715D01*
X0154644Y0271679D01*
X0154586Y0271646D01*
X0154525Y0271616D01*
X0154463Y0271589D01*
X0154399Y0271565D01*
X0154334Y0271546D01*
X0154269Y0271529D01*
X0154202Y0271516D01*
X0154135Y0271507D01*
X0154068Y0271502D01*
X0154000Y0271500D01*
X0152750Y0271500D01*
X0152750Y0276000D01*
X0154000Y0276000D01*
X0154068Y0275998D01*
X0154135Y0275993D01*
X0154202Y0275984D01*
X0154269Y0275971D01*
X0154334Y0275954D01*
X0154399Y0275935D01*
X0154463Y0275911D01*
X0154525Y0275884D01*
X0154586Y0275854D01*
X0154644Y0275821D01*
X0154701Y0275785D01*
X0154756Y0275745D01*
X0154809Y0275703D01*
X0154860Y0275657D01*
X0154907Y0275610D01*
X0154953Y0275559D01*
X0154995Y0275506D01*
X0155035Y0275451D01*
X0155071Y0275394D01*
X0155104Y0275336D01*
X0155134Y0275275D01*
X0155161Y0275213D01*
X0155185Y0275149D01*
X0155204Y0275084D01*
X0155221Y0275019D01*
X0155234Y0274952D01*
X0155243Y0274885D01*
X0155248Y0274818D01*
X0155250Y0274750D01*
X0154000Y0296500D02*
X0152750Y0296500D01*
X0152750Y0301000D01*
X0154000Y0301000D01*
X0154068Y0300998D01*
X0154135Y0300993D01*
X0154202Y0300984D01*
X0154269Y0300971D01*
X0154334Y0300954D01*
X0154399Y0300935D01*
X0154463Y0300911D01*
X0154525Y0300884D01*
X0154586Y0300854D01*
X0154644Y0300821D01*
X0154701Y0300785D01*
X0154756Y0300745D01*
X0154809Y0300703D01*
X0154860Y0300657D01*
X0154907Y0300610D01*
X0154953Y0300559D01*
X0154995Y0300506D01*
X0155035Y0300451D01*
X0155071Y0300394D01*
X0155104Y0300336D01*
X0155134Y0300275D01*
X0155161Y0300213D01*
X0155185Y0300149D01*
X0155204Y0300084D01*
X0155221Y0300019D01*
X0155234Y0299952D01*
X0155243Y0299885D01*
X0155248Y0299818D01*
X0155250Y0299750D01*
X0155250Y0297750D01*
X0155248Y0297682D01*
X0155243Y0297615D01*
X0155234Y0297548D01*
X0155221Y0297481D01*
X0155204Y0297416D01*
X0155185Y0297351D01*
X0155161Y0297287D01*
X0155134Y0297225D01*
X0155104Y0297164D01*
X0155071Y0297106D01*
X0155035Y0297049D01*
X0154995Y0296994D01*
X0154953Y0296941D01*
X0154907Y0296890D01*
X0154860Y0296843D01*
X0154809Y0296797D01*
X0154756Y0296755D01*
X0154701Y0296715D01*
X0154644Y0296679D01*
X0154586Y0296646D01*
X0154525Y0296616D01*
X0154463Y0296589D01*
X0154399Y0296565D01*
X0154334Y0296546D01*
X0154269Y0296529D01*
X0154202Y0296516D01*
X0154135Y0296507D01*
X0154068Y0296502D01*
X0154000Y0296500D01*
X0157400Y0297500D02*
X0159900Y0297500D01*
X0159150Y0298500D02*
X0159150Y0296500D01*
X0157400Y0297500D02*
X0158400Y0301000D01*
X0164950Y0333700D02*
X0164950Y0338200D01*
X0166450Y0335700D01*
X0167950Y0338200D01*
X0167950Y0333700D01*
X0170150Y0334950D02*
X0170150Y0336950D01*
X0170152Y0337019D01*
X0170158Y0337088D01*
X0170167Y0337156D01*
X0170180Y0337223D01*
X0170197Y0337290D01*
X0170218Y0337356D01*
X0170242Y0337420D01*
X0170270Y0337483D01*
X0170301Y0337545D01*
X0170335Y0337605D01*
X0170373Y0337662D01*
X0170414Y0337718D01*
X0170457Y0337771D01*
X0170504Y0337822D01*
X0170553Y0337870D01*
X0170605Y0337915D01*
X0170660Y0337957D01*
X0170716Y0337996D01*
X0170775Y0338033D01*
X0170836Y0338065D01*
X0170898Y0338095D01*
X0170962Y0338121D01*
X0171027Y0338143D01*
X0171093Y0338162D01*
X0171160Y0338177D01*
X0171228Y0338188D01*
X0171297Y0338196D01*
X0171366Y0338200D01*
X0171434Y0338200D01*
X0171503Y0338196D01*
X0171572Y0338188D01*
X0171640Y0338177D01*
X0171707Y0338162D01*
X0171773Y0338143D01*
X0171838Y0338121D01*
X0171902Y0338095D01*
X0171964Y0338065D01*
X0172025Y0338033D01*
X0172084Y0337996D01*
X0172140Y0337957D01*
X0172195Y0337915D01*
X0172247Y0337870D01*
X0172296Y0337822D01*
X0172343Y0337771D01*
X0172386Y0337718D01*
X0172427Y0337662D01*
X0172465Y0337605D01*
X0172499Y0337545D01*
X0172530Y0337483D01*
X0172558Y0337420D01*
X0172582Y0337356D01*
X0172603Y0337290D01*
X0172620Y0337223D01*
X0172633Y0337156D01*
X0172642Y0337088D01*
X0172648Y0337019D01*
X0172650Y0336950D01*
X0172650Y0334950D01*
X0172648Y0334881D01*
X0172642Y0334812D01*
X0172633Y0334744D01*
X0172620Y0334677D01*
X0172603Y0334610D01*
X0172582Y0334544D01*
X0172558Y0334480D01*
X0172530Y0334417D01*
X0172499Y0334355D01*
X0172465Y0334295D01*
X0172427Y0334238D01*
X0172386Y0334182D01*
X0172343Y0334129D01*
X0172296Y0334078D01*
X0172247Y0334030D01*
X0172195Y0333985D01*
X0172140Y0333943D01*
X0172084Y0333904D01*
X0172025Y0333867D01*
X0171964Y0333835D01*
X0171902Y0333805D01*
X0171838Y0333779D01*
X0171773Y0333757D01*
X0171707Y0333738D01*
X0171640Y0333723D01*
X0171572Y0333712D01*
X0171503Y0333704D01*
X0171434Y0333700D01*
X0171366Y0333700D01*
X0171297Y0333704D01*
X0171228Y0333712D01*
X0171160Y0333723D01*
X0171093Y0333738D01*
X0171027Y0333757D01*
X0170962Y0333779D01*
X0170898Y0333805D01*
X0170836Y0333835D01*
X0170775Y0333867D01*
X0170716Y0333904D01*
X0170660Y0333943D01*
X0170605Y0333985D01*
X0170553Y0334030D01*
X0170504Y0334078D01*
X0170457Y0334129D01*
X0170414Y0334182D01*
X0170373Y0334238D01*
X0170335Y0334295D01*
X0170301Y0334355D01*
X0170270Y0334417D01*
X0170242Y0334480D01*
X0170218Y0334544D01*
X0170197Y0334610D01*
X0170180Y0334677D01*
X0170167Y0334744D01*
X0170158Y0334812D01*
X0170152Y0334881D01*
X0170150Y0334950D01*
X0174350Y0338200D02*
X0176850Y0338200D01*
X0175600Y0338200D02*
X0175600Y0333700D01*
X0178550Y0334950D02*
X0178550Y0336950D01*
X0178552Y0337019D01*
X0178558Y0337088D01*
X0178567Y0337156D01*
X0178580Y0337223D01*
X0178597Y0337290D01*
X0178618Y0337356D01*
X0178642Y0337420D01*
X0178670Y0337483D01*
X0178701Y0337545D01*
X0178735Y0337605D01*
X0178773Y0337662D01*
X0178814Y0337718D01*
X0178857Y0337771D01*
X0178904Y0337822D01*
X0178953Y0337870D01*
X0179005Y0337915D01*
X0179060Y0337957D01*
X0179116Y0337996D01*
X0179175Y0338033D01*
X0179236Y0338065D01*
X0179298Y0338095D01*
X0179362Y0338121D01*
X0179427Y0338143D01*
X0179493Y0338162D01*
X0179560Y0338177D01*
X0179628Y0338188D01*
X0179697Y0338196D01*
X0179766Y0338200D01*
X0179834Y0338200D01*
X0179903Y0338196D01*
X0179972Y0338188D01*
X0180040Y0338177D01*
X0180107Y0338162D01*
X0180173Y0338143D01*
X0180238Y0338121D01*
X0180302Y0338095D01*
X0180364Y0338065D01*
X0180425Y0338033D01*
X0180484Y0337996D01*
X0180540Y0337957D01*
X0180595Y0337915D01*
X0180647Y0337870D01*
X0180696Y0337822D01*
X0180743Y0337771D01*
X0180786Y0337718D01*
X0180827Y0337662D01*
X0180865Y0337605D01*
X0180899Y0337545D01*
X0180930Y0337483D01*
X0180958Y0337420D01*
X0180982Y0337356D01*
X0181003Y0337290D01*
X0181020Y0337223D01*
X0181033Y0337156D01*
X0181042Y0337088D01*
X0181048Y0337019D01*
X0181050Y0336950D01*
X0181050Y0334950D01*
X0181048Y0334881D01*
X0181042Y0334812D01*
X0181033Y0334744D01*
X0181020Y0334677D01*
X0181003Y0334610D01*
X0180982Y0334544D01*
X0180958Y0334480D01*
X0180930Y0334417D01*
X0180899Y0334355D01*
X0180865Y0334295D01*
X0180827Y0334238D01*
X0180786Y0334182D01*
X0180743Y0334129D01*
X0180696Y0334078D01*
X0180647Y0334030D01*
X0180595Y0333985D01*
X0180540Y0333943D01*
X0180484Y0333904D01*
X0180425Y0333867D01*
X0180364Y0333835D01*
X0180302Y0333805D01*
X0180238Y0333779D01*
X0180173Y0333757D01*
X0180107Y0333738D01*
X0180040Y0333723D01*
X0179972Y0333712D01*
X0179903Y0333704D01*
X0179834Y0333700D01*
X0179766Y0333700D01*
X0179697Y0333704D01*
X0179628Y0333712D01*
X0179560Y0333723D01*
X0179493Y0333738D01*
X0179427Y0333757D01*
X0179362Y0333779D01*
X0179298Y0333805D01*
X0179236Y0333835D01*
X0179175Y0333867D01*
X0179116Y0333904D01*
X0179060Y0333943D01*
X0179005Y0333985D01*
X0178953Y0334030D01*
X0178904Y0334078D01*
X0178857Y0334129D01*
X0178814Y0334182D01*
X0178773Y0334238D01*
X0178735Y0334295D01*
X0178701Y0334355D01*
X0178670Y0334417D01*
X0178642Y0334480D01*
X0178618Y0334544D01*
X0178597Y0334610D01*
X0178580Y0334677D01*
X0178567Y0334744D01*
X0178558Y0334812D01*
X0178552Y0334881D01*
X0178550Y0334950D01*
X0183233Y0335700D02*
X0184483Y0335700D01*
X0184733Y0335700D02*
X0185733Y0333700D01*
X0187700Y0333700D02*
X0190200Y0333700D01*
X0187700Y0333700D02*
X0189825Y0336200D01*
X0189075Y0338200D02*
X0189002Y0338198D01*
X0188930Y0338193D01*
X0188858Y0338184D01*
X0188786Y0338171D01*
X0188715Y0338155D01*
X0188645Y0338135D01*
X0188577Y0338111D01*
X0188509Y0338085D01*
X0188443Y0338054D01*
X0188378Y0338021D01*
X0188316Y0337984D01*
X0188255Y0337945D01*
X0188196Y0337902D01*
X0188139Y0337856D01*
X0188085Y0337808D01*
X0188034Y0337757D01*
X0187984Y0337703D01*
X0187938Y0337647D01*
X0187895Y0337589D01*
X0187854Y0337528D01*
X0187817Y0337466D01*
X0187783Y0337402D01*
X0187752Y0337336D01*
X0187724Y0337269D01*
X0187700Y0337200D01*
X0189825Y0336200D02*
X0189871Y0336246D01*
X0189915Y0336295D01*
X0189955Y0336346D01*
X0189993Y0336399D01*
X0190028Y0336454D01*
X0190060Y0336511D01*
X0190089Y0336569D01*
X0190115Y0336629D01*
X0190137Y0336691D01*
X0190156Y0336753D01*
X0190172Y0336816D01*
X0190184Y0336880D01*
X0190193Y0336945D01*
X0190198Y0337010D01*
X0190200Y0337075D01*
X0190198Y0337140D01*
X0190192Y0337206D01*
X0190183Y0337270D01*
X0190170Y0337334D01*
X0190153Y0337398D01*
X0190132Y0337460D01*
X0190108Y0337521D01*
X0190080Y0337580D01*
X0190049Y0337638D01*
X0190015Y0337693D01*
X0189977Y0337747D01*
X0189937Y0337798D01*
X0189893Y0337847D01*
X0189847Y0337893D01*
X0189798Y0337937D01*
X0189747Y0337977D01*
X0189693Y0338015D01*
X0189638Y0338049D01*
X0189580Y0338080D01*
X0189521Y0338108D01*
X0189460Y0338132D01*
X0189398Y0338153D01*
X0189334Y0338170D01*
X0189270Y0338183D01*
X0189206Y0338192D01*
X0189140Y0338198D01*
X0189075Y0338200D01*
X0184483Y0338200D02*
X0183233Y0338200D01*
X0183233Y0333700D01*
X0184483Y0335700D02*
X0184552Y0335702D01*
X0184621Y0335708D01*
X0184689Y0335717D01*
X0184756Y0335730D01*
X0184823Y0335747D01*
X0184889Y0335768D01*
X0184953Y0335792D01*
X0185016Y0335820D01*
X0185078Y0335851D01*
X0185138Y0335885D01*
X0185195Y0335923D01*
X0185251Y0335964D01*
X0185304Y0336007D01*
X0185355Y0336054D01*
X0185403Y0336103D01*
X0185448Y0336155D01*
X0185490Y0336210D01*
X0185529Y0336266D01*
X0185566Y0336325D01*
X0185598Y0336386D01*
X0185628Y0336448D01*
X0185654Y0336512D01*
X0185676Y0336577D01*
X0185695Y0336643D01*
X0185710Y0336710D01*
X0185721Y0336778D01*
X0185729Y0336847D01*
X0185733Y0336916D01*
X0185733Y0336984D01*
X0185729Y0337053D01*
X0185721Y0337122D01*
X0185710Y0337190D01*
X0185695Y0337257D01*
X0185676Y0337323D01*
X0185654Y0337388D01*
X0185628Y0337452D01*
X0185598Y0337514D01*
X0185566Y0337575D01*
X0185529Y0337634D01*
X0185490Y0337690D01*
X0185448Y0337745D01*
X0185403Y0337797D01*
X0185355Y0337846D01*
X0185304Y0337893D01*
X0185251Y0337936D01*
X0185195Y0337977D01*
X0185138Y0338015D01*
X0185078Y0338049D01*
X0185016Y0338080D01*
X0184953Y0338108D01*
X0184889Y0338132D01*
X0184823Y0338153D01*
X0184756Y0338170D01*
X0184689Y0338183D01*
X0184621Y0338192D01*
X0184552Y0338198D01*
X0184483Y0338200D01*
X0185733Y0363700D02*
X0184733Y0365700D01*
X0184483Y0365700D02*
X0183233Y0365700D01*
X0184483Y0365700D02*
X0184552Y0365702D01*
X0184621Y0365708D01*
X0184689Y0365717D01*
X0184756Y0365730D01*
X0184823Y0365747D01*
X0184889Y0365768D01*
X0184953Y0365792D01*
X0185016Y0365820D01*
X0185078Y0365851D01*
X0185138Y0365885D01*
X0185195Y0365923D01*
X0185251Y0365964D01*
X0185304Y0366007D01*
X0185355Y0366054D01*
X0185403Y0366103D01*
X0185448Y0366155D01*
X0185490Y0366210D01*
X0185529Y0366266D01*
X0185566Y0366325D01*
X0185598Y0366386D01*
X0185628Y0366448D01*
X0185654Y0366512D01*
X0185676Y0366577D01*
X0185695Y0366643D01*
X0185710Y0366710D01*
X0185721Y0366778D01*
X0185729Y0366847D01*
X0185733Y0366916D01*
X0185733Y0366984D01*
X0185729Y0367053D01*
X0185721Y0367122D01*
X0185710Y0367190D01*
X0185695Y0367257D01*
X0185676Y0367323D01*
X0185654Y0367388D01*
X0185628Y0367452D01*
X0185598Y0367514D01*
X0185566Y0367575D01*
X0185529Y0367634D01*
X0185490Y0367690D01*
X0185448Y0367745D01*
X0185403Y0367797D01*
X0185355Y0367846D01*
X0185304Y0367893D01*
X0185251Y0367936D01*
X0185195Y0367977D01*
X0185138Y0368015D01*
X0185078Y0368049D01*
X0185016Y0368080D01*
X0184953Y0368108D01*
X0184889Y0368132D01*
X0184823Y0368153D01*
X0184756Y0368170D01*
X0184689Y0368183D01*
X0184621Y0368192D01*
X0184552Y0368198D01*
X0184483Y0368200D01*
X0183233Y0368200D01*
X0183233Y0363700D01*
X0181050Y0364950D02*
X0181050Y0366950D01*
X0181048Y0367019D01*
X0181042Y0367088D01*
X0181033Y0367156D01*
X0181020Y0367223D01*
X0181003Y0367290D01*
X0180982Y0367356D01*
X0180958Y0367420D01*
X0180930Y0367483D01*
X0180899Y0367545D01*
X0180865Y0367605D01*
X0180827Y0367662D01*
X0180786Y0367718D01*
X0180743Y0367771D01*
X0180696Y0367822D01*
X0180647Y0367870D01*
X0180595Y0367915D01*
X0180540Y0367957D01*
X0180484Y0367996D01*
X0180425Y0368033D01*
X0180364Y0368065D01*
X0180302Y0368095D01*
X0180238Y0368121D01*
X0180173Y0368143D01*
X0180107Y0368162D01*
X0180040Y0368177D01*
X0179972Y0368188D01*
X0179903Y0368196D01*
X0179834Y0368200D01*
X0179766Y0368200D01*
X0179697Y0368196D01*
X0179628Y0368188D01*
X0179560Y0368177D01*
X0179493Y0368162D01*
X0179427Y0368143D01*
X0179362Y0368121D01*
X0179298Y0368095D01*
X0179236Y0368065D01*
X0179175Y0368033D01*
X0179116Y0367996D01*
X0179060Y0367957D01*
X0179005Y0367915D01*
X0178953Y0367870D01*
X0178904Y0367822D01*
X0178857Y0367771D01*
X0178814Y0367718D01*
X0178773Y0367662D01*
X0178735Y0367605D01*
X0178701Y0367545D01*
X0178670Y0367483D01*
X0178642Y0367420D01*
X0178618Y0367356D01*
X0178597Y0367290D01*
X0178580Y0367223D01*
X0178567Y0367156D01*
X0178558Y0367088D01*
X0178552Y0367019D01*
X0178550Y0366950D01*
X0178550Y0364950D01*
X0178552Y0364881D01*
X0178558Y0364812D01*
X0178567Y0364744D01*
X0178580Y0364677D01*
X0178597Y0364610D01*
X0178618Y0364544D01*
X0178642Y0364480D01*
X0178670Y0364417D01*
X0178701Y0364355D01*
X0178735Y0364295D01*
X0178773Y0364238D01*
X0178814Y0364182D01*
X0178857Y0364129D01*
X0178904Y0364078D01*
X0178953Y0364030D01*
X0179005Y0363985D01*
X0179060Y0363943D01*
X0179116Y0363904D01*
X0179175Y0363867D01*
X0179236Y0363835D01*
X0179298Y0363805D01*
X0179362Y0363779D01*
X0179427Y0363757D01*
X0179493Y0363738D01*
X0179560Y0363723D01*
X0179628Y0363712D01*
X0179697Y0363704D01*
X0179766Y0363700D01*
X0179834Y0363700D01*
X0179903Y0363704D01*
X0179972Y0363712D01*
X0180040Y0363723D01*
X0180107Y0363738D01*
X0180173Y0363757D01*
X0180238Y0363779D01*
X0180302Y0363805D01*
X0180364Y0363835D01*
X0180425Y0363867D01*
X0180484Y0363904D01*
X0180540Y0363943D01*
X0180595Y0363985D01*
X0180647Y0364030D01*
X0180696Y0364078D01*
X0180743Y0364129D01*
X0180786Y0364182D01*
X0180827Y0364238D01*
X0180865Y0364295D01*
X0180899Y0364355D01*
X0180930Y0364417D01*
X0180958Y0364480D01*
X0180982Y0364544D01*
X0181003Y0364610D01*
X0181020Y0364677D01*
X0181033Y0364744D01*
X0181042Y0364812D01*
X0181048Y0364881D01*
X0181050Y0364950D01*
X0176850Y0368200D02*
X0174350Y0368200D01*
X0175600Y0368200D02*
X0175600Y0363700D01*
X0172650Y0364950D02*
X0172650Y0366950D01*
X0172648Y0367019D01*
X0172642Y0367088D01*
X0172633Y0367156D01*
X0172620Y0367223D01*
X0172603Y0367290D01*
X0172582Y0367356D01*
X0172558Y0367420D01*
X0172530Y0367483D01*
X0172499Y0367545D01*
X0172465Y0367605D01*
X0172427Y0367662D01*
X0172386Y0367718D01*
X0172343Y0367771D01*
X0172296Y0367822D01*
X0172247Y0367870D01*
X0172195Y0367915D01*
X0172140Y0367957D01*
X0172084Y0367996D01*
X0172025Y0368033D01*
X0171964Y0368065D01*
X0171902Y0368095D01*
X0171838Y0368121D01*
X0171773Y0368143D01*
X0171707Y0368162D01*
X0171640Y0368177D01*
X0171572Y0368188D01*
X0171503Y0368196D01*
X0171434Y0368200D01*
X0171366Y0368200D01*
X0171297Y0368196D01*
X0171228Y0368188D01*
X0171160Y0368177D01*
X0171093Y0368162D01*
X0171027Y0368143D01*
X0170962Y0368121D01*
X0170898Y0368095D01*
X0170836Y0368065D01*
X0170775Y0368033D01*
X0170716Y0367996D01*
X0170660Y0367957D01*
X0170605Y0367915D01*
X0170553Y0367870D01*
X0170504Y0367822D01*
X0170457Y0367771D01*
X0170414Y0367718D01*
X0170373Y0367662D01*
X0170335Y0367605D01*
X0170301Y0367545D01*
X0170270Y0367483D01*
X0170242Y0367420D01*
X0170218Y0367356D01*
X0170197Y0367290D01*
X0170180Y0367223D01*
X0170167Y0367156D01*
X0170158Y0367088D01*
X0170152Y0367019D01*
X0170150Y0366950D01*
X0170150Y0364950D01*
X0170152Y0364881D01*
X0170158Y0364812D01*
X0170167Y0364744D01*
X0170180Y0364677D01*
X0170197Y0364610D01*
X0170218Y0364544D01*
X0170242Y0364480D01*
X0170270Y0364417D01*
X0170301Y0364355D01*
X0170335Y0364295D01*
X0170373Y0364238D01*
X0170414Y0364182D01*
X0170457Y0364129D01*
X0170504Y0364078D01*
X0170553Y0364030D01*
X0170605Y0363985D01*
X0170660Y0363943D01*
X0170716Y0363904D01*
X0170775Y0363867D01*
X0170836Y0363835D01*
X0170898Y0363805D01*
X0170962Y0363779D01*
X0171027Y0363757D01*
X0171093Y0363738D01*
X0171160Y0363723D01*
X0171228Y0363712D01*
X0171297Y0363704D01*
X0171366Y0363700D01*
X0171434Y0363700D01*
X0171503Y0363704D01*
X0171572Y0363712D01*
X0171640Y0363723D01*
X0171707Y0363738D01*
X0171773Y0363757D01*
X0171838Y0363779D01*
X0171902Y0363805D01*
X0171964Y0363835D01*
X0172025Y0363867D01*
X0172084Y0363904D01*
X0172140Y0363943D01*
X0172195Y0363985D01*
X0172247Y0364030D01*
X0172296Y0364078D01*
X0172343Y0364129D01*
X0172386Y0364182D01*
X0172427Y0364238D01*
X0172465Y0364295D01*
X0172499Y0364355D01*
X0172530Y0364417D01*
X0172558Y0364480D01*
X0172582Y0364544D01*
X0172603Y0364610D01*
X0172620Y0364677D01*
X0172633Y0364744D01*
X0172642Y0364812D01*
X0172648Y0364881D01*
X0172650Y0364950D01*
X0167950Y0363700D02*
X0167950Y0368200D01*
X0166450Y0365700D01*
X0164950Y0368200D01*
X0164950Y0363700D01*
X0187700Y0363700D02*
X0190200Y0363700D01*
X0188950Y0363700D02*
X0188950Y0368200D01*
X0187700Y0367200D01*
X0136500Y0228500D02*
X0135250Y0227500D01*
X0136500Y0228500D02*
X0136500Y0224000D01*
X0135250Y0224000D02*
X0137750Y0224000D01*
X0144760Y0202500D02*
X0146760Y0202500D01*
X0148683Y0202500D02*
X0148683Y0198000D01*
X0146760Y0198000D02*
X0144760Y0198000D01*
X0144760Y0202500D01*
X0144760Y0200500D02*
X0146260Y0200500D01*
X0148683Y0200000D02*
X0149933Y0200000D01*
X0150183Y0200000D02*
X0151183Y0198000D01*
X0153000Y0198000D02*
X0154000Y0198000D01*
X0153500Y0198000D02*
X0153500Y0202500D01*
X0153000Y0202500D02*
X0154000Y0202500D01*
X0157100Y0202500D02*
X0155600Y0198000D01*
X0155975Y0199125D02*
X0158225Y0199125D01*
X0158600Y0198000D02*
X0157100Y0202500D01*
X0160510Y0202500D02*
X0160510Y0198000D01*
X0162510Y0198000D01*
X0164250Y0198000D02*
X0166750Y0198000D01*
X0164250Y0198000D02*
X0166375Y0200500D01*
X0165625Y0202500D02*
X0165552Y0202498D01*
X0165480Y0202493D01*
X0165408Y0202484D01*
X0165336Y0202471D01*
X0165265Y0202455D01*
X0165195Y0202435D01*
X0165127Y0202411D01*
X0165059Y0202385D01*
X0164993Y0202354D01*
X0164928Y0202321D01*
X0164866Y0202284D01*
X0164805Y0202245D01*
X0164746Y0202202D01*
X0164689Y0202156D01*
X0164635Y0202108D01*
X0164584Y0202057D01*
X0164534Y0202003D01*
X0164488Y0201947D01*
X0164445Y0201889D01*
X0164404Y0201828D01*
X0164367Y0201766D01*
X0164333Y0201702D01*
X0164302Y0201636D01*
X0164274Y0201569D01*
X0164250Y0201500D01*
X0166375Y0200500D02*
X0166421Y0200546D01*
X0166465Y0200595D01*
X0166505Y0200646D01*
X0166543Y0200699D01*
X0166578Y0200754D01*
X0166610Y0200811D01*
X0166639Y0200869D01*
X0166665Y0200929D01*
X0166687Y0200991D01*
X0166706Y0201053D01*
X0166722Y0201116D01*
X0166734Y0201180D01*
X0166743Y0201245D01*
X0166748Y0201310D01*
X0166750Y0201375D01*
X0166748Y0201440D01*
X0166742Y0201506D01*
X0166733Y0201570D01*
X0166720Y0201634D01*
X0166703Y0201698D01*
X0166682Y0201760D01*
X0166658Y0201821D01*
X0166630Y0201880D01*
X0166599Y0201938D01*
X0166565Y0201993D01*
X0166527Y0202047D01*
X0166487Y0202098D01*
X0166443Y0202147D01*
X0166397Y0202193D01*
X0166348Y0202237D01*
X0166297Y0202277D01*
X0166243Y0202315D01*
X0166188Y0202349D01*
X0166130Y0202380D01*
X0166071Y0202408D01*
X0166010Y0202432D01*
X0165948Y0202453D01*
X0165884Y0202470D01*
X0165820Y0202483D01*
X0165756Y0202492D01*
X0165690Y0202498D01*
X0165625Y0202500D01*
X0149933Y0202500D02*
X0148683Y0202500D01*
X0149933Y0202500D02*
X0150002Y0202498D01*
X0150071Y0202492D01*
X0150139Y0202483D01*
X0150206Y0202470D01*
X0150273Y0202453D01*
X0150339Y0202432D01*
X0150403Y0202408D01*
X0150466Y0202380D01*
X0150528Y0202349D01*
X0150588Y0202315D01*
X0150645Y0202277D01*
X0150701Y0202236D01*
X0150754Y0202193D01*
X0150805Y0202146D01*
X0150853Y0202097D01*
X0150898Y0202045D01*
X0150940Y0201990D01*
X0150979Y0201934D01*
X0151016Y0201875D01*
X0151048Y0201814D01*
X0151078Y0201752D01*
X0151104Y0201688D01*
X0151126Y0201623D01*
X0151145Y0201557D01*
X0151160Y0201490D01*
X0151171Y0201422D01*
X0151179Y0201353D01*
X0151183Y0201284D01*
X0151183Y0201216D01*
X0151179Y0201147D01*
X0151171Y0201078D01*
X0151160Y0201010D01*
X0151145Y0200943D01*
X0151126Y0200877D01*
X0151104Y0200812D01*
X0151078Y0200748D01*
X0151048Y0200686D01*
X0151016Y0200625D01*
X0150979Y0200566D01*
X0150940Y0200510D01*
X0150898Y0200455D01*
X0150853Y0200403D01*
X0150805Y0200354D01*
X0150754Y0200307D01*
X0150701Y0200264D01*
X0150645Y0200223D01*
X0150588Y0200185D01*
X0150528Y0200151D01*
X0150466Y0200120D01*
X0150403Y0200092D01*
X0150339Y0200068D01*
X0150273Y0200047D01*
X0150206Y0200030D01*
X0150139Y0200017D01*
X0150071Y0200008D01*
X0150002Y0200002D01*
X0149933Y0200000D01*
X0142250Y0199875D02*
X0140875Y0200625D01*
X0141375Y0202500D02*
X0141455Y0202498D01*
X0141536Y0202493D01*
X0141616Y0202484D01*
X0141695Y0202472D01*
X0141774Y0202457D01*
X0141852Y0202438D01*
X0141930Y0202416D01*
X0142006Y0202391D01*
X0142081Y0202362D01*
X0142155Y0202330D01*
X0142227Y0202295D01*
X0142298Y0202257D01*
X0142367Y0202216D01*
X0142435Y0202172D01*
X0142500Y0202125D01*
X0140875Y0200625D02*
X0140823Y0200658D01*
X0140772Y0200694D01*
X0140724Y0200733D01*
X0140679Y0200775D01*
X0140636Y0200820D01*
X0140596Y0200868D01*
X0140559Y0200917D01*
X0140525Y0200969D01*
X0140494Y0201023D01*
X0140466Y0201079D01*
X0140442Y0201136D01*
X0140422Y0201195D01*
X0140405Y0201254D01*
X0140392Y0201315D01*
X0140383Y0201376D01*
X0140377Y0201438D01*
X0140375Y0201500D01*
X0140377Y0201560D01*
X0140382Y0201621D01*
X0140391Y0201680D01*
X0140404Y0201739D01*
X0140420Y0201798D01*
X0140440Y0201855D01*
X0140463Y0201910D01*
X0140490Y0201965D01*
X0140519Y0202017D01*
X0140552Y0202068D01*
X0140588Y0202117D01*
X0140626Y0202163D01*
X0140668Y0202207D01*
X0140712Y0202249D01*
X0140758Y0202287D01*
X0140807Y0202323D01*
X0140858Y0202356D01*
X0140910Y0202385D01*
X0140965Y0202412D01*
X0141020Y0202435D01*
X0141077Y0202455D01*
X0141136Y0202471D01*
X0141195Y0202484D01*
X0141254Y0202493D01*
X0141315Y0202498D01*
X0141375Y0202500D01*
X0140250Y0198624D02*
X0140313Y0198563D01*
X0140378Y0198505D01*
X0140446Y0198449D01*
X0140517Y0198396D01*
X0140589Y0198347D01*
X0140663Y0198300D01*
X0140739Y0198256D01*
X0140817Y0198216D01*
X0140897Y0198179D01*
X0140978Y0198145D01*
X0141060Y0198115D01*
X0141144Y0198088D01*
X0141229Y0198064D01*
X0141314Y0198044D01*
X0141400Y0198028D01*
X0141487Y0198015D01*
X0141575Y0198006D01*
X0141662Y0198001D01*
X0141750Y0197999D01*
X0141750Y0198000D02*
X0141810Y0198002D01*
X0141871Y0198007D01*
X0141930Y0198016D01*
X0141989Y0198029D01*
X0142048Y0198045D01*
X0142105Y0198065D01*
X0142160Y0198088D01*
X0142215Y0198115D01*
X0142267Y0198144D01*
X0142318Y0198177D01*
X0142367Y0198213D01*
X0142413Y0198251D01*
X0142457Y0198293D01*
X0142499Y0198337D01*
X0142537Y0198383D01*
X0142573Y0198432D01*
X0142606Y0198483D01*
X0142635Y0198535D01*
X0142662Y0198590D01*
X0142685Y0198645D01*
X0142705Y0198702D01*
X0142721Y0198761D01*
X0142734Y0198820D01*
X0142743Y0198879D01*
X0142748Y0198940D01*
X0142750Y0199000D01*
X0142748Y0199062D01*
X0142742Y0199124D01*
X0142733Y0199185D01*
X0142720Y0199246D01*
X0142703Y0199305D01*
X0142683Y0199364D01*
X0142659Y0199421D01*
X0142631Y0199477D01*
X0142600Y0199531D01*
X0142566Y0199583D01*
X0142529Y0199632D01*
X0142489Y0199680D01*
X0142446Y0199725D01*
X0142401Y0199767D01*
X0142353Y0199806D01*
X0142302Y0199842D01*
X0142250Y0199875D01*
X0136500Y0193500D02*
X0136500Y0189000D01*
X0135250Y0189000D02*
X0137750Y0189000D01*
X0135250Y0192500D02*
X0136500Y0193500D01*
X0144760Y0167500D02*
X0146760Y0167500D01*
X0148683Y0167500D02*
X0148683Y0163000D01*
X0146760Y0163000D02*
X0144760Y0163000D01*
X0144760Y0167500D01*
X0144760Y0165500D02*
X0146260Y0165500D01*
X0148683Y0165000D02*
X0149933Y0165000D01*
X0150183Y0165000D02*
X0151183Y0163000D01*
X0153000Y0163000D02*
X0154000Y0163000D01*
X0153500Y0163000D02*
X0153500Y0167500D01*
X0153000Y0167500D02*
X0154000Y0167500D01*
X0157100Y0167500D02*
X0155600Y0163000D01*
X0155975Y0164125D02*
X0158225Y0164125D01*
X0158600Y0163000D02*
X0157100Y0167500D01*
X0160510Y0167500D02*
X0160510Y0163000D01*
X0162510Y0163000D01*
X0164250Y0163000D02*
X0166750Y0163000D01*
X0165500Y0163000D02*
X0165500Y0167500D01*
X0164250Y0166500D01*
X0149933Y0167500D02*
X0150002Y0167498D01*
X0150071Y0167492D01*
X0150139Y0167483D01*
X0150206Y0167470D01*
X0150273Y0167453D01*
X0150339Y0167432D01*
X0150403Y0167408D01*
X0150466Y0167380D01*
X0150528Y0167349D01*
X0150588Y0167315D01*
X0150645Y0167277D01*
X0150701Y0167236D01*
X0150754Y0167193D01*
X0150805Y0167146D01*
X0150853Y0167097D01*
X0150898Y0167045D01*
X0150940Y0166990D01*
X0150979Y0166934D01*
X0151016Y0166875D01*
X0151048Y0166814D01*
X0151078Y0166752D01*
X0151104Y0166688D01*
X0151126Y0166623D01*
X0151145Y0166557D01*
X0151160Y0166490D01*
X0151171Y0166422D01*
X0151179Y0166353D01*
X0151183Y0166284D01*
X0151183Y0166216D01*
X0151179Y0166147D01*
X0151171Y0166078D01*
X0151160Y0166010D01*
X0151145Y0165943D01*
X0151126Y0165877D01*
X0151104Y0165812D01*
X0151078Y0165748D01*
X0151048Y0165686D01*
X0151016Y0165625D01*
X0150979Y0165566D01*
X0150940Y0165510D01*
X0150898Y0165455D01*
X0150853Y0165403D01*
X0150805Y0165354D01*
X0150754Y0165307D01*
X0150701Y0165264D01*
X0150645Y0165223D01*
X0150588Y0165185D01*
X0150528Y0165151D01*
X0150466Y0165120D01*
X0150403Y0165092D01*
X0150339Y0165068D01*
X0150273Y0165047D01*
X0150206Y0165030D01*
X0150139Y0165017D01*
X0150071Y0165008D01*
X0150002Y0165002D01*
X0149933Y0165000D01*
X0149933Y0167500D02*
X0148683Y0167500D01*
X0142250Y0164875D02*
X0140875Y0165625D01*
X0141375Y0167500D02*
X0141455Y0167498D01*
X0141536Y0167493D01*
X0141616Y0167484D01*
X0141695Y0167472D01*
X0141774Y0167457D01*
X0141852Y0167438D01*
X0141930Y0167416D01*
X0142006Y0167391D01*
X0142081Y0167362D01*
X0142155Y0167330D01*
X0142227Y0167295D01*
X0142298Y0167257D01*
X0142367Y0167216D01*
X0142435Y0167172D01*
X0142500Y0167125D01*
X0140875Y0165625D02*
X0140823Y0165658D01*
X0140772Y0165694D01*
X0140724Y0165733D01*
X0140679Y0165775D01*
X0140636Y0165820D01*
X0140596Y0165868D01*
X0140559Y0165917D01*
X0140525Y0165969D01*
X0140494Y0166023D01*
X0140466Y0166079D01*
X0140442Y0166136D01*
X0140422Y0166195D01*
X0140405Y0166254D01*
X0140392Y0166315D01*
X0140383Y0166376D01*
X0140377Y0166438D01*
X0140375Y0166500D01*
X0140377Y0166560D01*
X0140382Y0166621D01*
X0140391Y0166680D01*
X0140404Y0166739D01*
X0140420Y0166798D01*
X0140440Y0166855D01*
X0140463Y0166910D01*
X0140490Y0166965D01*
X0140519Y0167017D01*
X0140552Y0167068D01*
X0140588Y0167117D01*
X0140626Y0167163D01*
X0140668Y0167207D01*
X0140712Y0167249D01*
X0140758Y0167287D01*
X0140807Y0167323D01*
X0140858Y0167356D01*
X0140910Y0167385D01*
X0140965Y0167412D01*
X0141020Y0167435D01*
X0141077Y0167455D01*
X0141136Y0167471D01*
X0141195Y0167484D01*
X0141254Y0167493D01*
X0141315Y0167498D01*
X0141375Y0167500D01*
X0140250Y0163625D02*
X0140313Y0163564D01*
X0140378Y0163506D01*
X0140446Y0163450D01*
X0140517Y0163397D01*
X0140589Y0163348D01*
X0140663Y0163301D01*
X0140739Y0163257D01*
X0140817Y0163217D01*
X0140897Y0163180D01*
X0140978Y0163146D01*
X0141060Y0163116D01*
X0141144Y0163089D01*
X0141229Y0163065D01*
X0141314Y0163045D01*
X0141400Y0163029D01*
X0141487Y0163016D01*
X0141575Y0163007D01*
X0141662Y0163002D01*
X0141750Y0163000D01*
X0141810Y0163002D01*
X0141871Y0163007D01*
X0141930Y0163016D01*
X0141989Y0163029D01*
X0142048Y0163045D01*
X0142105Y0163065D01*
X0142160Y0163088D01*
X0142215Y0163115D01*
X0142267Y0163144D01*
X0142318Y0163177D01*
X0142367Y0163213D01*
X0142413Y0163251D01*
X0142457Y0163293D01*
X0142499Y0163337D01*
X0142537Y0163383D01*
X0142573Y0163432D01*
X0142606Y0163483D01*
X0142635Y0163535D01*
X0142662Y0163590D01*
X0142685Y0163645D01*
X0142705Y0163702D01*
X0142721Y0163761D01*
X0142734Y0163820D01*
X0142743Y0163879D01*
X0142748Y0163940D01*
X0142750Y0164000D01*
X0142748Y0164062D01*
X0142742Y0164124D01*
X0142733Y0164185D01*
X0142720Y0164246D01*
X0142703Y0164305D01*
X0142683Y0164364D01*
X0142659Y0164421D01*
X0142631Y0164477D01*
X0142600Y0164531D01*
X0142566Y0164583D01*
X0142529Y0164632D01*
X0142489Y0164680D01*
X0142446Y0164725D01*
X0142401Y0164767D01*
X0142353Y0164806D01*
X0142302Y0164842D01*
X0142250Y0164875D01*
X0136500Y0158500D02*
X0136500Y0154000D01*
X0135250Y0154000D02*
X0137750Y0154000D01*
X0135250Y0157500D02*
X0136500Y0158500D01*
X0132500Y0146500D02*
X0132498Y0146438D01*
X0132492Y0146377D01*
X0132483Y0146316D01*
X0132470Y0146256D01*
X0132453Y0146197D01*
X0132432Y0146139D01*
X0132408Y0146082D01*
X0132381Y0146027D01*
X0132350Y0145974D01*
X0132316Y0145922D01*
X0132279Y0145873D01*
X0132239Y0145826D01*
X0132196Y0145782D01*
X0132151Y0145741D01*
X0132103Y0145702D01*
X0132052Y0145666D01*
X0132000Y0145634D01*
X0131946Y0145605D01*
X0131890Y0145579D01*
X0131832Y0145557D01*
X0131774Y0145538D01*
X0131714Y0145523D01*
X0131653Y0145512D01*
X0131592Y0145504D01*
X0131531Y0145500D01*
X0131469Y0145500D01*
X0131408Y0145504D01*
X0131347Y0145512D01*
X0131286Y0145523D01*
X0131226Y0145538D01*
X0131168Y0145557D01*
X0131110Y0145579D01*
X0131054Y0145605D01*
X0131000Y0145634D01*
X0130948Y0145666D01*
X0130897Y0145702D01*
X0130849Y0145741D01*
X0130804Y0145782D01*
X0130761Y0145826D01*
X0130721Y0145873D01*
X0130684Y0145922D01*
X0130650Y0145974D01*
X0130619Y0146027D01*
X0130592Y0146082D01*
X0130568Y0146139D01*
X0130547Y0146197D01*
X0130530Y0146256D01*
X0130517Y0146316D01*
X0130508Y0146377D01*
X0130502Y0146438D01*
X0130500Y0146500D01*
X0130502Y0146562D01*
X0130508Y0146623D01*
X0130517Y0146684D01*
X0130530Y0146744D01*
X0130547Y0146803D01*
X0130568Y0146861D01*
X0130592Y0146918D01*
X0130619Y0146973D01*
X0130650Y0147026D01*
X0130684Y0147078D01*
X0130721Y0147127D01*
X0130761Y0147174D01*
X0130804Y0147218D01*
X0130849Y0147259D01*
X0130897Y0147298D01*
X0130948Y0147334D01*
X0131000Y0147366D01*
X0131054Y0147395D01*
X0131110Y0147421D01*
X0131168Y0147443D01*
X0131226Y0147462D01*
X0131286Y0147477D01*
X0131347Y0147488D01*
X0131408Y0147496D01*
X0131469Y0147500D01*
X0131531Y0147500D01*
X0131592Y0147496D01*
X0131653Y0147488D01*
X0131714Y0147477D01*
X0131774Y0147462D01*
X0131832Y0147443D01*
X0131890Y0147421D01*
X0131946Y0147395D01*
X0132000Y0147366D01*
X0132052Y0147334D01*
X0132103Y0147298D01*
X0132151Y0147259D01*
X0132196Y0147218D01*
X0132239Y0147174D01*
X0132279Y0147127D01*
X0132316Y0147078D01*
X0132350Y0147026D01*
X0132381Y0146973D01*
X0132408Y0146918D01*
X0132432Y0146861D01*
X0132453Y0146803D01*
X0132470Y0146744D01*
X0132483Y0146684D01*
X0132492Y0146623D01*
X0132498Y0146562D01*
X0132500Y0146500D01*
X0132750Y0144250D02*
X0132748Y0144181D01*
X0132742Y0144112D01*
X0132733Y0144044D01*
X0132720Y0143977D01*
X0132703Y0143910D01*
X0132682Y0143844D01*
X0132658Y0143780D01*
X0132630Y0143717D01*
X0132599Y0143655D01*
X0132565Y0143595D01*
X0132527Y0143538D01*
X0132486Y0143482D01*
X0132443Y0143429D01*
X0132396Y0143378D01*
X0132347Y0143330D01*
X0132295Y0143285D01*
X0132240Y0143243D01*
X0132184Y0143204D01*
X0132125Y0143167D01*
X0132064Y0143135D01*
X0132002Y0143105D01*
X0131938Y0143079D01*
X0131873Y0143057D01*
X0131807Y0143038D01*
X0131740Y0143023D01*
X0131672Y0143012D01*
X0131603Y0143004D01*
X0131534Y0143000D01*
X0131466Y0143000D01*
X0131397Y0143004D01*
X0131328Y0143012D01*
X0131260Y0143023D01*
X0131193Y0143038D01*
X0131127Y0143057D01*
X0131062Y0143079D01*
X0130998Y0143105D01*
X0130936Y0143135D01*
X0130875Y0143167D01*
X0130816Y0143204D01*
X0130760Y0143243D01*
X0130705Y0143285D01*
X0130653Y0143330D01*
X0130604Y0143378D01*
X0130557Y0143429D01*
X0130514Y0143482D01*
X0130473Y0143538D01*
X0130435Y0143595D01*
X0130401Y0143655D01*
X0130370Y0143717D01*
X0130342Y0143780D01*
X0130318Y0143844D01*
X0130297Y0143910D01*
X0130280Y0143977D01*
X0130267Y0144044D01*
X0130258Y0144112D01*
X0130252Y0144181D01*
X0130250Y0144250D01*
X0130252Y0144319D01*
X0130258Y0144388D01*
X0130267Y0144456D01*
X0130280Y0144523D01*
X0130297Y0144590D01*
X0130318Y0144656D01*
X0130342Y0144720D01*
X0130370Y0144783D01*
X0130401Y0144845D01*
X0130435Y0144905D01*
X0130473Y0144962D01*
X0130514Y0145018D01*
X0130557Y0145071D01*
X0130604Y0145122D01*
X0130653Y0145170D01*
X0130705Y0145215D01*
X0130760Y0145257D01*
X0130816Y0145296D01*
X0130875Y0145333D01*
X0130936Y0145365D01*
X0130998Y0145395D01*
X0131062Y0145421D01*
X0131127Y0145443D01*
X0131193Y0145462D01*
X0131260Y0145477D01*
X0131328Y0145488D01*
X0131397Y0145496D01*
X0131466Y0145500D01*
X0131534Y0145500D01*
X0131603Y0145496D01*
X0131672Y0145488D01*
X0131740Y0145477D01*
X0131807Y0145462D01*
X0131873Y0145443D01*
X0131938Y0145421D01*
X0132002Y0145395D01*
X0132064Y0145365D01*
X0132125Y0145333D01*
X0132184Y0145296D01*
X0132240Y0145257D01*
X0132295Y0145215D01*
X0132347Y0145170D01*
X0132396Y0145122D01*
X0132443Y0145071D01*
X0132486Y0145018D01*
X0132527Y0144962D01*
X0132565Y0144905D01*
X0132599Y0144845D01*
X0132630Y0144783D01*
X0132658Y0144720D01*
X0132682Y0144656D01*
X0132703Y0144590D01*
X0132720Y0144523D01*
X0132733Y0144456D01*
X0132742Y0144388D01*
X0132748Y0144319D01*
X0132750Y0144250D01*
X0144950Y0128200D02*
X0144950Y0123700D01*
X0146950Y0123700D01*
X0148540Y0123700D02*
X0149540Y0123700D01*
X0149040Y0123700D02*
X0149040Y0128200D01*
X0148540Y0128200D02*
X0149540Y0128200D01*
X0151590Y0128200D02*
X0153090Y0125700D01*
X0154590Y0128200D01*
X0154590Y0123700D01*
X0156640Y0123700D02*
X0157640Y0123700D01*
X0157140Y0123700D02*
X0157140Y0128200D01*
X0156640Y0128200D02*
X0157640Y0128200D01*
X0159190Y0128200D02*
X0161690Y0128200D01*
X0160440Y0128200D02*
X0160440Y0123700D01*
X0163190Y0123200D02*
X0165190Y0123200D01*
X0168840Y0125575D02*
X0168892Y0125542D01*
X0168943Y0125506D01*
X0168991Y0125467D01*
X0169036Y0125425D01*
X0169079Y0125380D01*
X0169119Y0125332D01*
X0169156Y0125283D01*
X0169190Y0125231D01*
X0169221Y0125177D01*
X0169249Y0125121D01*
X0169273Y0125064D01*
X0169293Y0125005D01*
X0169310Y0124946D01*
X0169323Y0124885D01*
X0169332Y0124824D01*
X0169338Y0124762D01*
X0169340Y0124700D01*
X0169338Y0124640D01*
X0169333Y0124579D01*
X0169324Y0124520D01*
X0169311Y0124461D01*
X0169295Y0124402D01*
X0169275Y0124345D01*
X0169252Y0124290D01*
X0169225Y0124235D01*
X0169196Y0124183D01*
X0169163Y0124132D01*
X0169127Y0124083D01*
X0169089Y0124037D01*
X0169047Y0123993D01*
X0169003Y0123951D01*
X0168957Y0123913D01*
X0168908Y0123877D01*
X0168857Y0123844D01*
X0168805Y0123815D01*
X0168750Y0123788D01*
X0168695Y0123765D01*
X0168638Y0123745D01*
X0168579Y0123729D01*
X0168520Y0123716D01*
X0168461Y0123707D01*
X0168400Y0123702D01*
X0168340Y0123700D01*
X0168840Y0125575D02*
X0167465Y0126325D01*
X0167965Y0128200D02*
X0168045Y0128198D01*
X0168126Y0128193D01*
X0168206Y0128184D01*
X0168285Y0128172D01*
X0168364Y0128157D01*
X0168442Y0128138D01*
X0168520Y0128116D01*
X0168596Y0128091D01*
X0168671Y0128062D01*
X0168745Y0128030D01*
X0168817Y0127995D01*
X0168888Y0127957D01*
X0168957Y0127916D01*
X0169025Y0127872D01*
X0169090Y0127825D01*
X0167465Y0126325D02*
X0167413Y0126358D01*
X0167362Y0126394D01*
X0167314Y0126433D01*
X0167269Y0126475D01*
X0167226Y0126520D01*
X0167186Y0126568D01*
X0167149Y0126617D01*
X0167115Y0126669D01*
X0167084Y0126723D01*
X0167056Y0126779D01*
X0167032Y0126836D01*
X0167012Y0126895D01*
X0166995Y0126954D01*
X0166982Y0127015D01*
X0166973Y0127076D01*
X0166967Y0127138D01*
X0166965Y0127200D01*
X0166967Y0127260D01*
X0166972Y0127321D01*
X0166981Y0127380D01*
X0166994Y0127439D01*
X0167010Y0127498D01*
X0167030Y0127555D01*
X0167053Y0127610D01*
X0167080Y0127665D01*
X0167109Y0127717D01*
X0167142Y0127768D01*
X0167178Y0127817D01*
X0167216Y0127863D01*
X0167258Y0127907D01*
X0167302Y0127949D01*
X0167348Y0127987D01*
X0167397Y0128023D01*
X0167448Y0128056D01*
X0167500Y0128085D01*
X0167555Y0128112D01*
X0167610Y0128135D01*
X0167667Y0128155D01*
X0167726Y0128171D01*
X0167785Y0128184D01*
X0167844Y0128193D01*
X0167905Y0128198D01*
X0167965Y0128200D01*
X0166840Y0124324D02*
X0166903Y0124263D01*
X0166968Y0124205D01*
X0167036Y0124149D01*
X0167107Y0124096D01*
X0167179Y0124047D01*
X0167253Y0124000D01*
X0167329Y0123956D01*
X0167407Y0123916D01*
X0167487Y0123879D01*
X0167568Y0123845D01*
X0167650Y0123815D01*
X0167734Y0123788D01*
X0167819Y0123764D01*
X0167904Y0123744D01*
X0167990Y0123728D01*
X0168077Y0123715D01*
X0168165Y0123706D01*
X0168252Y0123701D01*
X0168340Y0123699D01*
X0172040Y0123700D02*
X0173040Y0126700D01*
X0174040Y0123700D01*
X0175040Y0128200D01*
X0171040Y0128200D02*
X0172040Y0123700D01*
X0176890Y0123700D02*
X0179390Y0123700D01*
X0176890Y0123700D02*
X0179015Y0126200D01*
X0178265Y0128200D02*
X0178192Y0128198D01*
X0178120Y0128193D01*
X0178048Y0128184D01*
X0177976Y0128171D01*
X0177905Y0128155D01*
X0177835Y0128135D01*
X0177767Y0128111D01*
X0177699Y0128085D01*
X0177633Y0128054D01*
X0177568Y0128021D01*
X0177506Y0127984D01*
X0177445Y0127945D01*
X0177386Y0127902D01*
X0177329Y0127856D01*
X0177275Y0127808D01*
X0177224Y0127757D01*
X0177174Y0127703D01*
X0177128Y0127647D01*
X0177085Y0127589D01*
X0177044Y0127528D01*
X0177007Y0127466D01*
X0176973Y0127402D01*
X0176942Y0127336D01*
X0176914Y0127269D01*
X0176890Y0127200D01*
X0179015Y0126200D02*
X0179061Y0126246D01*
X0179105Y0126295D01*
X0179145Y0126346D01*
X0179183Y0126399D01*
X0179218Y0126454D01*
X0179250Y0126511D01*
X0179279Y0126569D01*
X0179305Y0126629D01*
X0179327Y0126691D01*
X0179346Y0126753D01*
X0179362Y0126816D01*
X0179374Y0126880D01*
X0179383Y0126945D01*
X0179388Y0127010D01*
X0179390Y0127075D01*
X0179388Y0127140D01*
X0179382Y0127206D01*
X0179373Y0127270D01*
X0179360Y0127334D01*
X0179343Y0127398D01*
X0179322Y0127460D01*
X0179298Y0127521D01*
X0179270Y0127580D01*
X0179239Y0127638D01*
X0179205Y0127693D01*
X0179167Y0127747D01*
X0179127Y0127798D01*
X0179083Y0127847D01*
X0179037Y0127893D01*
X0178988Y0127937D01*
X0178937Y0127977D01*
X0178883Y0128015D01*
X0178828Y0128049D01*
X0178770Y0128080D01*
X0178711Y0128108D01*
X0178650Y0128132D01*
X0178588Y0128153D01*
X0178524Y0128170D01*
X0178460Y0128183D01*
X0178396Y0128192D01*
X0178330Y0128198D01*
X0178265Y0128200D01*
X0178140Y0093200D02*
X0176890Y0092200D01*
X0178140Y0093200D02*
X0178140Y0088700D01*
X0176890Y0088700D02*
X0179390Y0088700D01*
X0174040Y0088700D02*
X0175040Y0093200D01*
X0173040Y0091700D02*
X0174040Y0088700D01*
X0172040Y0088700D02*
X0171040Y0093200D01*
X0173040Y0091700D02*
X0172040Y0088700D01*
X0168840Y0090575D02*
X0167465Y0091325D01*
X0167965Y0093200D02*
X0168045Y0093198D01*
X0168126Y0093193D01*
X0168206Y0093184D01*
X0168285Y0093172D01*
X0168364Y0093157D01*
X0168442Y0093138D01*
X0168520Y0093116D01*
X0168596Y0093091D01*
X0168671Y0093062D01*
X0168745Y0093030D01*
X0168817Y0092995D01*
X0168888Y0092957D01*
X0168957Y0092916D01*
X0169025Y0092872D01*
X0169090Y0092825D01*
X0167465Y0091325D02*
X0167413Y0091358D01*
X0167362Y0091394D01*
X0167314Y0091433D01*
X0167269Y0091475D01*
X0167226Y0091520D01*
X0167186Y0091568D01*
X0167149Y0091617D01*
X0167115Y0091669D01*
X0167084Y0091723D01*
X0167056Y0091779D01*
X0167032Y0091836D01*
X0167012Y0091895D01*
X0166995Y0091954D01*
X0166982Y0092015D01*
X0166973Y0092076D01*
X0166967Y0092138D01*
X0166965Y0092200D01*
X0166967Y0092260D01*
X0166972Y0092321D01*
X0166981Y0092380D01*
X0166994Y0092439D01*
X0167010Y0092498D01*
X0167030Y0092555D01*
X0167053Y0092610D01*
X0167080Y0092665D01*
X0167109Y0092717D01*
X0167142Y0092768D01*
X0167178Y0092817D01*
X0167216Y0092863D01*
X0167258Y0092907D01*
X0167302Y0092949D01*
X0167348Y0092987D01*
X0167397Y0093023D01*
X0167448Y0093056D01*
X0167500Y0093085D01*
X0167555Y0093112D01*
X0167610Y0093135D01*
X0167667Y0093155D01*
X0167726Y0093171D01*
X0167785Y0093184D01*
X0167844Y0093193D01*
X0167905Y0093198D01*
X0167965Y0093200D01*
X0166840Y0089324D02*
X0166903Y0089263D01*
X0166968Y0089205D01*
X0167036Y0089149D01*
X0167107Y0089096D01*
X0167179Y0089047D01*
X0167253Y0089000D01*
X0167329Y0088956D01*
X0167407Y0088916D01*
X0167487Y0088879D01*
X0167568Y0088845D01*
X0167650Y0088815D01*
X0167734Y0088788D01*
X0167819Y0088764D01*
X0167904Y0088744D01*
X0167990Y0088728D01*
X0168077Y0088715D01*
X0168165Y0088706D01*
X0168252Y0088701D01*
X0168340Y0088699D01*
X0168340Y0088700D02*
X0168400Y0088702D01*
X0168461Y0088707D01*
X0168520Y0088716D01*
X0168579Y0088729D01*
X0168638Y0088745D01*
X0168695Y0088765D01*
X0168750Y0088788D01*
X0168805Y0088815D01*
X0168857Y0088844D01*
X0168908Y0088877D01*
X0168957Y0088913D01*
X0169003Y0088951D01*
X0169047Y0088993D01*
X0169089Y0089037D01*
X0169127Y0089083D01*
X0169163Y0089132D01*
X0169196Y0089183D01*
X0169225Y0089235D01*
X0169252Y0089290D01*
X0169275Y0089345D01*
X0169295Y0089402D01*
X0169311Y0089461D01*
X0169324Y0089520D01*
X0169333Y0089579D01*
X0169338Y0089640D01*
X0169340Y0089700D01*
X0169338Y0089762D01*
X0169332Y0089824D01*
X0169323Y0089885D01*
X0169310Y0089946D01*
X0169293Y0090005D01*
X0169273Y0090064D01*
X0169249Y0090121D01*
X0169221Y0090177D01*
X0169190Y0090231D01*
X0169156Y0090283D01*
X0169119Y0090332D01*
X0169079Y0090380D01*
X0169036Y0090425D01*
X0168991Y0090467D01*
X0168943Y0090506D01*
X0168892Y0090542D01*
X0168840Y0090575D01*
X0165190Y0088200D02*
X0163190Y0088200D01*
X0160440Y0088700D02*
X0160440Y0093200D01*
X0159190Y0093200D02*
X0161690Y0093200D01*
X0157640Y0093200D02*
X0156640Y0093200D01*
X0157140Y0093200D02*
X0157140Y0088700D01*
X0156640Y0088700D02*
X0157640Y0088700D01*
X0154590Y0088700D02*
X0154590Y0093200D01*
X0153090Y0090700D01*
X0151590Y0093200D01*
X0151590Y0088700D01*
X0149540Y0088700D02*
X0148540Y0088700D01*
X0149040Y0088700D02*
X0149040Y0093200D01*
X0148540Y0093200D02*
X0149540Y0093200D01*
X0144950Y0093200D02*
X0144950Y0088700D01*
X0146950Y0088700D01*
X0151590Y0123700D02*
X0151590Y0128200D01*
X0100750Y0115000D02*
X0098250Y0115000D01*
X0099500Y0115000D02*
X0099500Y0119500D01*
X0098250Y0118500D01*
X0082900Y0092500D02*
X0082900Y0088000D01*
X0081650Y0088000D02*
X0084150Y0088000D01*
X0081650Y0091500D02*
X0082900Y0092500D01*
X0078433Y0092500D02*
X0077183Y0092500D01*
X0077183Y0088000D01*
X0077183Y0090000D02*
X0078433Y0090000D01*
X0078683Y0090000D02*
X0079683Y0088000D01*
X0078433Y0090000D02*
X0078502Y0090002D01*
X0078571Y0090008D01*
X0078639Y0090017D01*
X0078706Y0090030D01*
X0078773Y0090047D01*
X0078839Y0090068D01*
X0078903Y0090092D01*
X0078966Y0090120D01*
X0079028Y0090151D01*
X0079088Y0090185D01*
X0079145Y0090223D01*
X0079201Y0090264D01*
X0079254Y0090307D01*
X0079305Y0090354D01*
X0079353Y0090403D01*
X0079398Y0090455D01*
X0079440Y0090510D01*
X0079479Y0090566D01*
X0079516Y0090625D01*
X0079548Y0090686D01*
X0079578Y0090748D01*
X0079604Y0090812D01*
X0079626Y0090877D01*
X0079645Y0090943D01*
X0079660Y0091010D01*
X0079671Y0091078D01*
X0079679Y0091147D01*
X0079683Y0091216D01*
X0079683Y0091284D01*
X0079679Y0091353D01*
X0079671Y0091422D01*
X0079660Y0091490D01*
X0079645Y0091557D01*
X0079626Y0091623D01*
X0079604Y0091688D01*
X0079578Y0091752D01*
X0079548Y0091814D01*
X0079516Y0091875D01*
X0079479Y0091934D01*
X0079440Y0091990D01*
X0079398Y0092045D01*
X0079353Y0092097D01*
X0079305Y0092146D01*
X0079254Y0092193D01*
X0079201Y0092236D01*
X0079145Y0092277D01*
X0079088Y0092315D01*
X0079028Y0092349D01*
X0078966Y0092380D01*
X0078903Y0092408D01*
X0078839Y0092432D01*
X0078773Y0092453D01*
X0078706Y0092470D01*
X0078639Y0092483D01*
X0078571Y0092492D01*
X0078502Y0092498D01*
X0078433Y0092500D01*
X0075000Y0091250D02*
X0075000Y0089250D01*
X0074998Y0089181D01*
X0074992Y0089112D01*
X0074983Y0089044D01*
X0074970Y0088977D01*
X0074953Y0088910D01*
X0074932Y0088844D01*
X0074908Y0088780D01*
X0074880Y0088717D01*
X0074849Y0088655D01*
X0074815Y0088595D01*
X0074777Y0088538D01*
X0074736Y0088482D01*
X0074693Y0088429D01*
X0074646Y0088378D01*
X0074597Y0088330D01*
X0074545Y0088285D01*
X0074490Y0088243D01*
X0074434Y0088204D01*
X0074375Y0088167D01*
X0074314Y0088135D01*
X0074252Y0088105D01*
X0074188Y0088079D01*
X0074123Y0088057D01*
X0074057Y0088038D01*
X0073990Y0088023D01*
X0073922Y0088012D01*
X0073853Y0088004D01*
X0073784Y0088000D01*
X0073716Y0088000D01*
X0073647Y0088004D01*
X0073578Y0088012D01*
X0073510Y0088023D01*
X0073443Y0088038D01*
X0073377Y0088057D01*
X0073312Y0088079D01*
X0073248Y0088105D01*
X0073186Y0088135D01*
X0073125Y0088167D01*
X0073066Y0088204D01*
X0073010Y0088243D01*
X0072955Y0088285D01*
X0072903Y0088330D01*
X0072854Y0088378D01*
X0072807Y0088429D01*
X0072764Y0088482D01*
X0072723Y0088538D01*
X0072685Y0088595D01*
X0072651Y0088655D01*
X0072620Y0088717D01*
X0072592Y0088780D01*
X0072568Y0088844D01*
X0072547Y0088910D01*
X0072530Y0088977D01*
X0072517Y0089044D01*
X0072508Y0089112D01*
X0072502Y0089181D01*
X0072500Y0089250D01*
X0072500Y0091250D01*
X0072502Y0091319D01*
X0072508Y0091388D01*
X0072517Y0091456D01*
X0072530Y0091523D01*
X0072547Y0091590D01*
X0072568Y0091656D01*
X0072592Y0091720D01*
X0072620Y0091783D01*
X0072651Y0091845D01*
X0072685Y0091905D01*
X0072723Y0091962D01*
X0072764Y0092018D01*
X0072807Y0092071D01*
X0072854Y0092122D01*
X0072903Y0092170D01*
X0072955Y0092215D01*
X0073010Y0092257D01*
X0073066Y0092296D01*
X0073125Y0092333D01*
X0073186Y0092365D01*
X0073248Y0092395D01*
X0073312Y0092421D01*
X0073377Y0092443D01*
X0073443Y0092462D01*
X0073510Y0092477D01*
X0073578Y0092488D01*
X0073647Y0092496D01*
X0073716Y0092500D01*
X0073784Y0092500D01*
X0073853Y0092496D01*
X0073922Y0092488D01*
X0073990Y0092477D01*
X0074057Y0092462D01*
X0074123Y0092443D01*
X0074188Y0092421D01*
X0074252Y0092395D01*
X0074314Y0092365D01*
X0074375Y0092333D01*
X0074434Y0092296D01*
X0074490Y0092257D01*
X0074545Y0092215D01*
X0074597Y0092170D01*
X0074646Y0092122D01*
X0074693Y0092071D01*
X0074736Y0092018D01*
X0074777Y0091962D01*
X0074815Y0091905D01*
X0074849Y0091845D01*
X0074880Y0091783D01*
X0074908Y0091720D01*
X0074932Y0091656D01*
X0074953Y0091590D01*
X0074970Y0091523D01*
X0074983Y0091456D01*
X0074992Y0091388D01*
X0074998Y0091319D01*
X0075000Y0091250D01*
X0070150Y0089875D02*
X0068775Y0090625D01*
X0069275Y0092500D02*
X0069355Y0092498D01*
X0069436Y0092493D01*
X0069516Y0092484D01*
X0069595Y0092472D01*
X0069674Y0092457D01*
X0069752Y0092438D01*
X0069830Y0092416D01*
X0069906Y0092391D01*
X0069981Y0092362D01*
X0070055Y0092330D01*
X0070127Y0092295D01*
X0070198Y0092257D01*
X0070267Y0092216D01*
X0070335Y0092172D01*
X0070400Y0092125D01*
X0068775Y0090625D02*
X0068723Y0090658D01*
X0068672Y0090694D01*
X0068624Y0090733D01*
X0068579Y0090775D01*
X0068536Y0090820D01*
X0068496Y0090868D01*
X0068459Y0090917D01*
X0068425Y0090969D01*
X0068394Y0091023D01*
X0068366Y0091079D01*
X0068342Y0091136D01*
X0068322Y0091195D01*
X0068305Y0091254D01*
X0068292Y0091315D01*
X0068283Y0091376D01*
X0068277Y0091438D01*
X0068275Y0091500D01*
X0068277Y0091560D01*
X0068282Y0091621D01*
X0068291Y0091680D01*
X0068304Y0091739D01*
X0068320Y0091798D01*
X0068340Y0091855D01*
X0068363Y0091910D01*
X0068390Y0091965D01*
X0068419Y0092017D01*
X0068452Y0092068D01*
X0068488Y0092117D01*
X0068526Y0092163D01*
X0068568Y0092207D01*
X0068612Y0092249D01*
X0068658Y0092287D01*
X0068707Y0092323D01*
X0068758Y0092356D01*
X0068810Y0092385D01*
X0068865Y0092412D01*
X0068920Y0092435D01*
X0068977Y0092455D01*
X0069036Y0092471D01*
X0069095Y0092484D01*
X0069154Y0092493D01*
X0069215Y0092498D01*
X0069275Y0092500D01*
X0068150Y0088624D02*
X0068213Y0088563D01*
X0068278Y0088505D01*
X0068346Y0088449D01*
X0068417Y0088396D01*
X0068489Y0088347D01*
X0068563Y0088300D01*
X0068639Y0088256D01*
X0068717Y0088216D01*
X0068797Y0088179D01*
X0068878Y0088145D01*
X0068960Y0088115D01*
X0069044Y0088088D01*
X0069129Y0088064D01*
X0069214Y0088044D01*
X0069300Y0088028D01*
X0069387Y0088015D01*
X0069475Y0088006D01*
X0069562Y0088001D01*
X0069650Y0087999D01*
X0069650Y0088000D02*
X0069710Y0088002D01*
X0069771Y0088007D01*
X0069830Y0088016D01*
X0069889Y0088029D01*
X0069948Y0088045D01*
X0070005Y0088065D01*
X0070060Y0088088D01*
X0070115Y0088115D01*
X0070167Y0088144D01*
X0070218Y0088177D01*
X0070267Y0088213D01*
X0070313Y0088251D01*
X0070357Y0088293D01*
X0070399Y0088337D01*
X0070437Y0088383D01*
X0070473Y0088432D01*
X0070506Y0088483D01*
X0070535Y0088535D01*
X0070562Y0088590D01*
X0070585Y0088645D01*
X0070605Y0088702D01*
X0070621Y0088761D01*
X0070634Y0088820D01*
X0070643Y0088879D01*
X0070648Y0088940D01*
X0070650Y0089000D01*
X0070648Y0089062D01*
X0070642Y0089124D01*
X0070633Y0089185D01*
X0070620Y0089246D01*
X0070603Y0089305D01*
X0070583Y0089364D01*
X0070559Y0089421D01*
X0070531Y0089477D01*
X0070500Y0089531D01*
X0070466Y0089583D01*
X0070429Y0089632D01*
X0070389Y0089680D01*
X0070346Y0089725D01*
X0070301Y0089767D01*
X0070253Y0089806D01*
X0070202Y0089842D01*
X0070150Y0089875D01*
X0066150Y0088000D02*
X0066150Y0092500D01*
X0063650Y0092500D02*
X0063650Y0088000D01*
X0061760Y0088000D02*
X0059760Y0088000D01*
X0059760Y0092500D01*
X0061760Y0092500D01*
X0063650Y0092500D02*
X0066150Y0088000D01*
X0061260Y0090500D02*
X0059760Y0090500D01*
X0057250Y0089875D02*
X0055875Y0090625D01*
X0056375Y0092500D02*
X0056455Y0092498D01*
X0056536Y0092493D01*
X0056616Y0092484D01*
X0056695Y0092472D01*
X0056774Y0092457D01*
X0056852Y0092438D01*
X0056930Y0092416D01*
X0057006Y0092391D01*
X0057081Y0092362D01*
X0057155Y0092330D01*
X0057227Y0092295D01*
X0057298Y0092257D01*
X0057367Y0092216D01*
X0057435Y0092172D01*
X0057500Y0092125D01*
X0055875Y0090625D02*
X0055823Y0090658D01*
X0055772Y0090694D01*
X0055724Y0090733D01*
X0055679Y0090775D01*
X0055636Y0090820D01*
X0055596Y0090868D01*
X0055559Y0090917D01*
X0055525Y0090969D01*
X0055494Y0091023D01*
X0055466Y0091079D01*
X0055442Y0091136D01*
X0055422Y0091195D01*
X0055405Y0091254D01*
X0055392Y0091315D01*
X0055383Y0091376D01*
X0055377Y0091438D01*
X0055375Y0091500D01*
X0055377Y0091560D01*
X0055382Y0091621D01*
X0055391Y0091680D01*
X0055404Y0091739D01*
X0055420Y0091798D01*
X0055440Y0091855D01*
X0055463Y0091910D01*
X0055490Y0091965D01*
X0055519Y0092017D01*
X0055552Y0092068D01*
X0055588Y0092117D01*
X0055626Y0092163D01*
X0055668Y0092207D01*
X0055712Y0092249D01*
X0055758Y0092287D01*
X0055807Y0092323D01*
X0055858Y0092356D01*
X0055910Y0092385D01*
X0055965Y0092412D01*
X0056020Y0092435D01*
X0056077Y0092455D01*
X0056136Y0092471D01*
X0056195Y0092484D01*
X0056254Y0092493D01*
X0056315Y0092498D01*
X0056375Y0092500D01*
X0055250Y0088624D02*
X0055313Y0088563D01*
X0055378Y0088505D01*
X0055446Y0088449D01*
X0055517Y0088396D01*
X0055589Y0088347D01*
X0055663Y0088300D01*
X0055739Y0088256D01*
X0055817Y0088216D01*
X0055897Y0088179D01*
X0055978Y0088145D01*
X0056060Y0088115D01*
X0056144Y0088088D01*
X0056229Y0088064D01*
X0056314Y0088044D01*
X0056400Y0088028D01*
X0056487Y0088015D01*
X0056575Y0088006D01*
X0056662Y0088001D01*
X0056750Y0087999D01*
X0056750Y0088000D02*
X0056810Y0088002D01*
X0056871Y0088007D01*
X0056930Y0088016D01*
X0056989Y0088029D01*
X0057048Y0088045D01*
X0057105Y0088065D01*
X0057160Y0088088D01*
X0057215Y0088115D01*
X0057267Y0088144D01*
X0057318Y0088177D01*
X0057367Y0088213D01*
X0057413Y0088251D01*
X0057457Y0088293D01*
X0057499Y0088337D01*
X0057537Y0088383D01*
X0057573Y0088432D01*
X0057606Y0088483D01*
X0057635Y0088535D01*
X0057662Y0088590D01*
X0057685Y0088645D01*
X0057705Y0088702D01*
X0057721Y0088761D01*
X0057734Y0088820D01*
X0057743Y0088879D01*
X0057748Y0088940D01*
X0057750Y0089000D01*
X0057748Y0089062D01*
X0057742Y0089124D01*
X0057733Y0089185D01*
X0057720Y0089246D01*
X0057703Y0089305D01*
X0057683Y0089364D01*
X0057659Y0089421D01*
X0057631Y0089477D01*
X0057600Y0089531D01*
X0057566Y0089583D01*
X0057529Y0089632D01*
X0057489Y0089680D01*
X0057446Y0089725D01*
X0057401Y0089767D01*
X0057353Y0089806D01*
X0057302Y0089842D01*
X0057250Y0089875D01*
X0051500Y0083500D02*
X0051500Y0079000D01*
X0050250Y0079000D02*
X0052750Y0079000D01*
X0050250Y0082500D02*
X0051500Y0083500D01*
X0051500Y0109000D02*
X0051500Y0113500D01*
X0050250Y0112500D01*
X0050250Y0109000D02*
X0052750Y0109000D01*
X0057750Y0119000D02*
X0057748Y0119062D01*
X0057742Y0119124D01*
X0057733Y0119185D01*
X0057720Y0119246D01*
X0057703Y0119305D01*
X0057683Y0119364D01*
X0057659Y0119421D01*
X0057631Y0119477D01*
X0057600Y0119531D01*
X0057566Y0119583D01*
X0057529Y0119632D01*
X0057489Y0119680D01*
X0057446Y0119725D01*
X0057401Y0119767D01*
X0057353Y0119806D01*
X0057302Y0119842D01*
X0057250Y0119875D01*
X0055875Y0120625D01*
X0056375Y0122500D02*
X0056455Y0122498D01*
X0056536Y0122493D01*
X0056616Y0122484D01*
X0056695Y0122472D01*
X0056774Y0122457D01*
X0056852Y0122438D01*
X0056930Y0122416D01*
X0057006Y0122391D01*
X0057081Y0122362D01*
X0057155Y0122330D01*
X0057227Y0122295D01*
X0057298Y0122257D01*
X0057367Y0122216D01*
X0057435Y0122172D01*
X0057500Y0122125D01*
X0055875Y0120625D02*
X0055823Y0120658D01*
X0055772Y0120694D01*
X0055724Y0120733D01*
X0055679Y0120775D01*
X0055636Y0120820D01*
X0055596Y0120868D01*
X0055559Y0120917D01*
X0055525Y0120969D01*
X0055494Y0121023D01*
X0055466Y0121079D01*
X0055442Y0121136D01*
X0055422Y0121195D01*
X0055405Y0121254D01*
X0055392Y0121315D01*
X0055383Y0121376D01*
X0055377Y0121438D01*
X0055375Y0121500D01*
X0055377Y0121560D01*
X0055382Y0121621D01*
X0055391Y0121680D01*
X0055404Y0121739D01*
X0055420Y0121798D01*
X0055440Y0121855D01*
X0055463Y0121910D01*
X0055490Y0121965D01*
X0055519Y0122017D01*
X0055552Y0122068D01*
X0055588Y0122117D01*
X0055626Y0122163D01*
X0055668Y0122207D01*
X0055712Y0122249D01*
X0055758Y0122287D01*
X0055807Y0122323D01*
X0055858Y0122356D01*
X0055910Y0122385D01*
X0055965Y0122412D01*
X0056020Y0122435D01*
X0056077Y0122455D01*
X0056136Y0122471D01*
X0056195Y0122484D01*
X0056254Y0122493D01*
X0056315Y0122498D01*
X0056375Y0122500D01*
X0055250Y0118624D02*
X0055313Y0118563D01*
X0055378Y0118505D01*
X0055446Y0118449D01*
X0055517Y0118396D01*
X0055589Y0118347D01*
X0055663Y0118300D01*
X0055739Y0118256D01*
X0055817Y0118216D01*
X0055897Y0118179D01*
X0055978Y0118145D01*
X0056060Y0118115D01*
X0056144Y0118088D01*
X0056229Y0118064D01*
X0056314Y0118044D01*
X0056400Y0118028D01*
X0056487Y0118015D01*
X0056575Y0118006D01*
X0056662Y0118001D01*
X0056750Y0117999D01*
X0056750Y0118000D02*
X0056810Y0118002D01*
X0056871Y0118007D01*
X0056930Y0118016D01*
X0056989Y0118029D01*
X0057048Y0118045D01*
X0057105Y0118065D01*
X0057160Y0118088D01*
X0057215Y0118115D01*
X0057267Y0118144D01*
X0057318Y0118177D01*
X0057367Y0118213D01*
X0057413Y0118251D01*
X0057457Y0118293D01*
X0057499Y0118337D01*
X0057537Y0118383D01*
X0057573Y0118432D01*
X0057606Y0118483D01*
X0057635Y0118535D01*
X0057662Y0118590D01*
X0057685Y0118645D01*
X0057705Y0118702D01*
X0057721Y0118761D01*
X0057734Y0118820D01*
X0057743Y0118879D01*
X0057748Y0118940D01*
X0057750Y0119000D01*
D13*
X0057000Y0266250D03*
X0057000Y0291250D03*
X0087000Y0291250D03*
X0087000Y0266250D03*
X0122000Y0266250D03*
X0122000Y0291250D03*
X0157000Y0291250D03*
X0157000Y0266250D03*
D14*
X0152956Y0310981D02*
X0151423Y0310981D01*
X0152956Y0310981D02*
X0153018Y0310983D01*
X0153079Y0310988D01*
X0153140Y0310998D01*
X0153201Y0311011D01*
X0153260Y0311027D01*
X0153318Y0311047D01*
X0153375Y0311071D01*
X0153431Y0311098D01*
X0153485Y0311128D01*
X0153537Y0311162D01*
X0153586Y0311198D01*
X0153634Y0311238D01*
X0153679Y0311280D01*
X0153721Y0311325D01*
X0153761Y0311373D01*
X0153797Y0311422D01*
X0153831Y0311474D01*
X0153861Y0311528D01*
X0153888Y0311584D01*
X0153912Y0311641D01*
X0153932Y0311699D01*
X0153948Y0311758D01*
X0153961Y0311819D01*
X0153971Y0311880D01*
X0153976Y0311941D01*
X0153978Y0312003D01*
X0153978Y0312514D01*
X0153976Y0312576D01*
X0153971Y0312637D01*
X0153961Y0312698D01*
X0153948Y0312759D01*
X0153932Y0312818D01*
X0153912Y0312876D01*
X0153888Y0312933D01*
X0153861Y0312989D01*
X0153831Y0313043D01*
X0153797Y0313095D01*
X0153761Y0313144D01*
X0153721Y0313192D01*
X0153679Y0313237D01*
X0153634Y0313279D01*
X0153586Y0313319D01*
X0153537Y0313355D01*
X0153485Y0313389D01*
X0153431Y0313419D01*
X0153375Y0313446D01*
X0153318Y0313470D01*
X0153260Y0313490D01*
X0153201Y0313506D01*
X0153140Y0313519D01*
X0153079Y0313529D01*
X0153018Y0313534D01*
X0152956Y0313536D01*
X0152956Y0313537D02*
X0151423Y0313537D01*
X0151423Y0315581D01*
X0153978Y0315581D01*
X0149478Y0310981D02*
X0146923Y0310981D01*
X0148201Y0310981D02*
X0148201Y0315581D01*
X0146923Y0314559D01*
X0147743Y0346450D02*
X0147743Y0348494D01*
X0148509Y0347472D02*
X0145954Y0347472D01*
X0146976Y0351050D01*
X0142732Y0351050D02*
X0142732Y0346450D01*
X0144009Y0346450D02*
X0141454Y0346450D01*
X0141454Y0350028D02*
X0142732Y0351050D01*
X0125497Y0367728D02*
X0125495Y0367658D01*
X0125489Y0367587D01*
X0125480Y0367518D01*
X0125466Y0367449D01*
X0125449Y0367380D01*
X0125428Y0367313D01*
X0125403Y0367247D01*
X0125375Y0367183D01*
X0125343Y0367120D01*
X0125308Y0367059D01*
X0125269Y0367000D01*
X0125228Y0366943D01*
X0125183Y0366889D01*
X0125135Y0366837D01*
X0125085Y0366788D01*
X0125031Y0366741D01*
X0124976Y0366698D01*
X0124918Y0366658D01*
X0124858Y0366621D01*
X0124796Y0366588D01*
X0124732Y0366558D01*
X0124667Y0366531D01*
X0124601Y0366508D01*
X0124533Y0366489D01*
X0124464Y0366474D01*
X0124395Y0366462D01*
X0124325Y0366454D01*
X0124254Y0366450D01*
X0124184Y0366450D01*
X0124113Y0366454D01*
X0124043Y0366462D01*
X0123974Y0366474D01*
X0123905Y0366489D01*
X0123837Y0366508D01*
X0123771Y0366531D01*
X0123706Y0366558D01*
X0123642Y0366588D01*
X0123580Y0366621D01*
X0123520Y0366658D01*
X0123462Y0366698D01*
X0123407Y0366741D01*
X0123353Y0366788D01*
X0123303Y0366837D01*
X0123255Y0366889D01*
X0123210Y0366943D01*
X0123169Y0367000D01*
X0123130Y0367059D01*
X0123095Y0367120D01*
X0123063Y0367183D01*
X0123035Y0367247D01*
X0123010Y0367313D01*
X0122989Y0367380D01*
X0122972Y0367449D01*
X0122958Y0367518D01*
X0122949Y0367587D01*
X0122943Y0367658D01*
X0122941Y0367728D01*
X0122943Y0367798D01*
X0122949Y0367869D01*
X0122958Y0367938D01*
X0122972Y0368007D01*
X0122989Y0368076D01*
X0123010Y0368143D01*
X0123035Y0368209D01*
X0123063Y0368273D01*
X0123095Y0368336D01*
X0123130Y0368397D01*
X0123169Y0368456D01*
X0123210Y0368513D01*
X0123255Y0368567D01*
X0123303Y0368619D01*
X0123353Y0368668D01*
X0123407Y0368715D01*
X0123462Y0368758D01*
X0123520Y0368798D01*
X0123580Y0368835D01*
X0123642Y0368868D01*
X0123706Y0368898D01*
X0123771Y0368925D01*
X0123837Y0368948D01*
X0123905Y0368967D01*
X0123974Y0368982D01*
X0124043Y0368994D01*
X0124113Y0369002D01*
X0124184Y0369006D01*
X0124254Y0369006D01*
X0124325Y0369002D01*
X0124395Y0368994D01*
X0124464Y0368982D01*
X0124533Y0368967D01*
X0124601Y0368948D01*
X0124667Y0368925D01*
X0124732Y0368898D01*
X0124796Y0368868D01*
X0124858Y0368835D01*
X0124918Y0368798D01*
X0124976Y0368758D01*
X0125031Y0368715D01*
X0125085Y0368668D01*
X0125135Y0368619D01*
X0125183Y0368567D01*
X0125228Y0368513D01*
X0125269Y0368456D01*
X0125308Y0368397D01*
X0125343Y0368336D01*
X0125375Y0368273D01*
X0125403Y0368209D01*
X0125428Y0368143D01*
X0125449Y0368076D01*
X0125466Y0368007D01*
X0125480Y0367938D01*
X0125489Y0367869D01*
X0125495Y0367798D01*
X0125497Y0367728D01*
X0125241Y0370028D02*
X0125239Y0369965D01*
X0125233Y0369902D01*
X0125224Y0369840D01*
X0125210Y0369779D01*
X0125193Y0369718D01*
X0125172Y0369659D01*
X0125147Y0369601D01*
X0125119Y0369544D01*
X0125088Y0369490D01*
X0125053Y0369438D01*
X0125015Y0369387D01*
X0124974Y0369339D01*
X0124930Y0369294D01*
X0124884Y0369252D01*
X0124835Y0369212D01*
X0124784Y0369176D01*
X0124730Y0369143D01*
X0124675Y0369113D01*
X0124617Y0369087D01*
X0124559Y0369064D01*
X0124499Y0369045D01*
X0124438Y0369030D01*
X0124376Y0369018D01*
X0124313Y0369010D01*
X0124250Y0369006D01*
X0124188Y0369006D01*
X0124125Y0369010D01*
X0124062Y0369018D01*
X0124000Y0369030D01*
X0123939Y0369045D01*
X0123879Y0369064D01*
X0123821Y0369087D01*
X0123763Y0369113D01*
X0123708Y0369143D01*
X0123654Y0369176D01*
X0123603Y0369212D01*
X0123554Y0369252D01*
X0123508Y0369294D01*
X0123464Y0369339D01*
X0123423Y0369387D01*
X0123385Y0369438D01*
X0123350Y0369490D01*
X0123319Y0369544D01*
X0123291Y0369601D01*
X0123266Y0369659D01*
X0123245Y0369718D01*
X0123228Y0369779D01*
X0123214Y0369840D01*
X0123205Y0369902D01*
X0123199Y0369965D01*
X0123197Y0370028D01*
X0123199Y0370091D01*
X0123205Y0370154D01*
X0123214Y0370216D01*
X0123228Y0370277D01*
X0123245Y0370338D01*
X0123266Y0370397D01*
X0123291Y0370455D01*
X0123319Y0370512D01*
X0123350Y0370566D01*
X0123385Y0370618D01*
X0123423Y0370669D01*
X0123464Y0370717D01*
X0123508Y0370762D01*
X0123554Y0370804D01*
X0123603Y0370844D01*
X0123654Y0370880D01*
X0123708Y0370913D01*
X0123763Y0370943D01*
X0123821Y0370969D01*
X0123879Y0370992D01*
X0123939Y0371011D01*
X0124000Y0371026D01*
X0124062Y0371038D01*
X0124125Y0371046D01*
X0124188Y0371050D01*
X0124250Y0371050D01*
X0124313Y0371046D01*
X0124376Y0371038D01*
X0124438Y0371026D01*
X0124499Y0371011D01*
X0124559Y0370992D01*
X0124617Y0370969D01*
X0124675Y0370943D01*
X0124730Y0370913D01*
X0124784Y0370880D01*
X0124835Y0370844D01*
X0124884Y0370804D01*
X0124930Y0370762D01*
X0124974Y0370717D01*
X0125015Y0370669D01*
X0125053Y0370618D01*
X0125088Y0370566D01*
X0125119Y0370512D01*
X0125147Y0370455D01*
X0125172Y0370397D01*
X0125193Y0370338D01*
X0125210Y0370277D01*
X0125224Y0370216D01*
X0125233Y0370154D01*
X0125239Y0370091D01*
X0125241Y0370028D01*
X0120997Y0369772D02*
X0120997Y0368494D01*
X0119463Y0368494D01*
X0120996Y0368494D02*
X0120994Y0368405D01*
X0120988Y0368316D01*
X0120979Y0368227D01*
X0120965Y0368139D01*
X0120948Y0368052D01*
X0120926Y0367965D01*
X0120901Y0367879D01*
X0120873Y0367795D01*
X0120840Y0367712D01*
X0120804Y0367630D01*
X0120765Y0367550D01*
X0120722Y0367472D01*
X0120676Y0367396D01*
X0120626Y0367322D01*
X0120574Y0367250D01*
X0120518Y0367180D01*
X0120459Y0367113D01*
X0120397Y0367049D01*
X0120333Y0366987D01*
X0120266Y0366928D01*
X0120196Y0366872D01*
X0120124Y0366820D01*
X0120050Y0366770D01*
X0119974Y0366724D01*
X0119896Y0366681D01*
X0119816Y0366642D01*
X0119734Y0366606D01*
X0119651Y0366573D01*
X0119567Y0366545D01*
X0119481Y0366520D01*
X0119394Y0366498D01*
X0119307Y0366481D01*
X0119219Y0366467D01*
X0119130Y0366458D01*
X0119041Y0366452D01*
X0118952Y0366450D01*
X0118441Y0369517D02*
X0118441Y0369772D01*
X0118441Y0369517D02*
X0118443Y0369455D01*
X0118448Y0369394D01*
X0118458Y0369333D01*
X0118471Y0369272D01*
X0118487Y0369213D01*
X0118507Y0369155D01*
X0118531Y0369098D01*
X0118558Y0369042D01*
X0118588Y0368988D01*
X0118622Y0368936D01*
X0118658Y0368887D01*
X0118698Y0368839D01*
X0118740Y0368794D01*
X0118785Y0368752D01*
X0118833Y0368712D01*
X0118882Y0368676D01*
X0118934Y0368642D01*
X0118988Y0368612D01*
X0119044Y0368585D01*
X0119101Y0368561D01*
X0119159Y0368541D01*
X0119218Y0368525D01*
X0119279Y0368512D01*
X0119340Y0368502D01*
X0119401Y0368497D01*
X0119463Y0368495D01*
X0118441Y0369772D02*
X0118443Y0369842D01*
X0118449Y0369913D01*
X0118458Y0369982D01*
X0118472Y0370051D01*
X0118489Y0370120D01*
X0118510Y0370187D01*
X0118535Y0370253D01*
X0118563Y0370317D01*
X0118595Y0370380D01*
X0118630Y0370441D01*
X0118669Y0370500D01*
X0118710Y0370557D01*
X0118755Y0370611D01*
X0118803Y0370663D01*
X0118853Y0370712D01*
X0118907Y0370759D01*
X0118962Y0370802D01*
X0119020Y0370842D01*
X0119080Y0370879D01*
X0119142Y0370912D01*
X0119206Y0370942D01*
X0119271Y0370969D01*
X0119337Y0370992D01*
X0119405Y0371011D01*
X0119474Y0371026D01*
X0119543Y0371038D01*
X0119613Y0371046D01*
X0119684Y0371050D01*
X0119754Y0371050D01*
X0119825Y0371046D01*
X0119895Y0371038D01*
X0119964Y0371026D01*
X0120033Y0371011D01*
X0120101Y0370992D01*
X0120167Y0370969D01*
X0120232Y0370942D01*
X0120296Y0370912D01*
X0120358Y0370879D01*
X0120418Y0370842D01*
X0120476Y0370802D01*
X0120531Y0370759D01*
X0120585Y0370712D01*
X0120635Y0370663D01*
X0120683Y0370611D01*
X0120728Y0370557D01*
X0120769Y0370500D01*
X0120808Y0370441D01*
X0120843Y0370380D01*
X0120875Y0370317D01*
X0120903Y0370253D01*
X0120928Y0370187D01*
X0120949Y0370120D01*
X0120966Y0370051D01*
X0120980Y0369982D01*
X0120989Y0369913D01*
X0120995Y0369842D01*
X0120997Y0369772D01*
X0116113Y0369006D02*
X0113941Y0366450D01*
X0116497Y0366450D01*
X0113942Y0370028D02*
X0113967Y0370098D01*
X0113995Y0370167D01*
X0114026Y0370234D01*
X0114061Y0370300D01*
X0114099Y0370363D01*
X0114141Y0370425D01*
X0114185Y0370485D01*
X0114232Y0370542D01*
X0114282Y0370597D01*
X0114335Y0370649D01*
X0114391Y0370699D01*
X0114449Y0370745D01*
X0114509Y0370789D01*
X0114571Y0370830D01*
X0114635Y0370867D01*
X0114701Y0370901D01*
X0114769Y0370932D01*
X0114838Y0370959D01*
X0114908Y0370983D01*
X0114979Y0371004D01*
X0115052Y0371020D01*
X0115125Y0371033D01*
X0115199Y0371043D01*
X0115273Y0371048D01*
X0115347Y0371050D01*
X0115414Y0371048D01*
X0115481Y0371042D01*
X0115547Y0371033D01*
X0115612Y0371019D01*
X0115677Y0371002D01*
X0115740Y0370981D01*
X0115802Y0370956D01*
X0115863Y0370928D01*
X0115922Y0370896D01*
X0115979Y0370861D01*
X0116034Y0370822D01*
X0116086Y0370781D01*
X0116136Y0370736D01*
X0116183Y0370689D01*
X0116228Y0370639D01*
X0116269Y0370587D01*
X0116308Y0370532D01*
X0116343Y0370475D01*
X0116375Y0370416D01*
X0116403Y0370355D01*
X0116428Y0370293D01*
X0116449Y0370230D01*
X0116466Y0370165D01*
X0116480Y0370100D01*
X0116489Y0370034D01*
X0116495Y0369967D01*
X0116497Y0369900D01*
X0116496Y0369900D02*
X0116494Y0369833D01*
X0116489Y0369767D01*
X0116480Y0369701D01*
X0116467Y0369635D01*
X0116451Y0369571D01*
X0116432Y0369507D01*
X0116409Y0369444D01*
X0116383Y0369383D01*
X0116353Y0369323D01*
X0116320Y0369265D01*
X0116285Y0369209D01*
X0116246Y0369155D01*
X0116204Y0369103D01*
X0116160Y0369053D01*
X0116113Y0369006D01*
X0112244Y0366450D02*
X0110200Y0366450D01*
X0110200Y0371050D01*
X0085181Y0349006D02*
X0083009Y0346450D01*
X0085565Y0346450D01*
X0083010Y0350028D02*
X0083035Y0350098D01*
X0083063Y0350167D01*
X0083094Y0350234D01*
X0083129Y0350300D01*
X0083167Y0350363D01*
X0083209Y0350425D01*
X0083253Y0350485D01*
X0083300Y0350542D01*
X0083350Y0350597D01*
X0083403Y0350649D01*
X0083459Y0350699D01*
X0083517Y0350745D01*
X0083577Y0350789D01*
X0083639Y0350830D01*
X0083703Y0350867D01*
X0083769Y0350901D01*
X0083837Y0350932D01*
X0083906Y0350959D01*
X0083976Y0350983D01*
X0084047Y0351004D01*
X0084120Y0351020D01*
X0084193Y0351033D01*
X0084267Y0351043D01*
X0084341Y0351048D01*
X0084415Y0351050D01*
X0084482Y0351048D01*
X0084549Y0351042D01*
X0084615Y0351033D01*
X0084680Y0351019D01*
X0084745Y0351002D01*
X0084808Y0350981D01*
X0084870Y0350956D01*
X0084931Y0350928D01*
X0084990Y0350896D01*
X0085047Y0350861D01*
X0085102Y0350822D01*
X0085154Y0350781D01*
X0085204Y0350736D01*
X0085251Y0350689D01*
X0085296Y0350639D01*
X0085337Y0350587D01*
X0085376Y0350532D01*
X0085411Y0350475D01*
X0085443Y0350416D01*
X0085471Y0350355D01*
X0085496Y0350293D01*
X0085517Y0350230D01*
X0085534Y0350165D01*
X0085548Y0350100D01*
X0085557Y0350034D01*
X0085563Y0349967D01*
X0085565Y0349900D01*
X0085564Y0349900D02*
X0085562Y0349833D01*
X0085557Y0349767D01*
X0085548Y0349701D01*
X0085535Y0349635D01*
X0085519Y0349571D01*
X0085500Y0349507D01*
X0085477Y0349444D01*
X0085451Y0349383D01*
X0085421Y0349323D01*
X0085388Y0349265D01*
X0085353Y0349209D01*
X0085314Y0349155D01*
X0085272Y0349103D01*
X0085228Y0349053D01*
X0085181Y0349006D01*
X0079756Y0315348D02*
X0079756Y0310748D01*
X0078478Y0310748D02*
X0081034Y0310748D01*
X0078478Y0314326D02*
X0079756Y0315348D01*
D15*
X0115000Y0355236D03*
D16*
X0067795Y0360502D02*
X0067795Y0366998D01*
X0065827Y0366998D02*
X0065827Y0360502D01*
X0067795Y0360502D01*
X0059921Y0365502D02*
X0059921Y0391998D01*
X0065827Y0391998D01*
X0065827Y0385502D01*
X0067795Y0385502D02*
X0067795Y0391998D01*
X0065827Y0391998D01*
X0059921Y0391998D02*
X0059921Y0393967D01*
X0012677Y0393967D01*
X0012677Y0388848D01*
X0016614Y0388848D01*
X0012677Y0388848D02*
X0012677Y0363652D01*
X0016614Y0363652D01*
X0012677Y0363652D02*
X0012677Y0358533D01*
X0044921Y0358533D01*
X0044173Y0363652D02*
X0048110Y0363652D01*
X0048110Y0366014D01*
X0048110Y0369951D02*
X0048110Y0372313D01*
X0048110Y0380187D01*
X0048110Y0382549D01*
X0048110Y0386486D02*
X0048110Y0388848D01*
X0044173Y0388848D01*
X0040236Y0388848D02*
X0036299Y0388848D01*
X0032362Y0388848D02*
X0028425Y0388848D01*
X0026457Y0391998D02*
X0059921Y0391998D01*
X0040236Y0363652D02*
X0036299Y0363652D01*
X0032362Y0363652D02*
X0028425Y0363652D01*
X0026457Y0358533D02*
X0026457Y0391998D01*
X0026457Y0393967D01*
X0024488Y0388848D02*
X0020551Y0388848D01*
X0020551Y0380187D02*
X0020427Y0380185D01*
X0020304Y0380179D01*
X0020180Y0380170D01*
X0020058Y0380156D01*
X0019935Y0380139D01*
X0019813Y0380117D01*
X0019692Y0380092D01*
X0019572Y0380063D01*
X0019453Y0380031D01*
X0019334Y0379994D01*
X0019217Y0379954D01*
X0019102Y0379911D01*
X0018987Y0379863D01*
X0018875Y0379812D01*
X0018764Y0379758D01*
X0018654Y0379700D01*
X0018547Y0379639D01*
X0018441Y0379574D01*
X0018338Y0379506D01*
X0018237Y0379435D01*
X0018138Y0379361D01*
X0018041Y0379284D01*
X0017947Y0379203D01*
X0017856Y0379120D01*
X0017767Y0379034D01*
X0017681Y0378945D01*
X0017598Y0378854D01*
X0017517Y0378760D01*
X0017440Y0378663D01*
X0017366Y0378564D01*
X0017295Y0378463D01*
X0017227Y0378360D01*
X0017162Y0378254D01*
X0017101Y0378147D01*
X0017043Y0378037D01*
X0016989Y0377926D01*
X0016938Y0377814D01*
X0016890Y0377699D01*
X0016847Y0377584D01*
X0016807Y0377467D01*
X0016770Y0377348D01*
X0016738Y0377229D01*
X0016709Y0377109D01*
X0016684Y0376988D01*
X0016662Y0376866D01*
X0016645Y0376743D01*
X0016631Y0376621D01*
X0016622Y0376497D01*
X0016616Y0376374D01*
X0016614Y0376250D01*
X0016616Y0376126D01*
X0016622Y0376003D01*
X0016631Y0375879D01*
X0016645Y0375757D01*
X0016662Y0375634D01*
X0016684Y0375512D01*
X0016709Y0375391D01*
X0016738Y0375271D01*
X0016770Y0375152D01*
X0016807Y0375033D01*
X0016847Y0374916D01*
X0016890Y0374801D01*
X0016938Y0374686D01*
X0016989Y0374574D01*
X0017043Y0374463D01*
X0017101Y0374353D01*
X0017162Y0374246D01*
X0017227Y0374140D01*
X0017295Y0374037D01*
X0017366Y0373936D01*
X0017440Y0373837D01*
X0017517Y0373740D01*
X0017598Y0373646D01*
X0017681Y0373555D01*
X0017767Y0373466D01*
X0017856Y0373380D01*
X0017947Y0373297D01*
X0018041Y0373216D01*
X0018138Y0373139D01*
X0018237Y0373065D01*
X0018338Y0372994D01*
X0018441Y0372926D01*
X0018547Y0372861D01*
X0018654Y0372800D01*
X0018764Y0372742D01*
X0018875Y0372688D01*
X0018987Y0372637D01*
X0019102Y0372589D01*
X0019217Y0372546D01*
X0019334Y0372506D01*
X0019453Y0372469D01*
X0019572Y0372437D01*
X0019692Y0372408D01*
X0019813Y0372383D01*
X0019935Y0372361D01*
X0020058Y0372344D01*
X0020180Y0372330D01*
X0020304Y0372321D01*
X0020427Y0372315D01*
X0020551Y0372313D01*
X0020551Y0363652D02*
X0024488Y0363652D01*
M02*
