G75*
%MOIN*%
%OFA0B0*%
%FSLAX25Y25*%
%IPPOS*%
%LPD*%
%AMOC8*
5,1,8,0,0,1.08239X$1,22.5*
%
%ADD10C,0.00000*%
%ADD11C,0.06000*%
%ADD12OC8,0.05200*%
%ADD13OC8,0.06000*%
%ADD14C,0.07087*%
%ADD15R,0.15000X0.15000*%
%ADD16C,0.15000*%
%ADD17C,0.08600*%
%ADD18C,0.00600*%
%ADD19C,0.02978*%
D10*
X0001500Y0001500D02*
X0001500Y0476500D01*
X0306500Y0476500D01*
X0306500Y0421500D01*
X0561500Y0421500D01*
X0561421Y0420201D02*
X0561421Y0001500D01*
X0001500Y0001500D01*
X0016500Y0021500D02*
X0016502Y0021641D01*
X0016508Y0021782D01*
X0016518Y0021922D01*
X0016532Y0022062D01*
X0016550Y0022202D01*
X0016571Y0022341D01*
X0016597Y0022480D01*
X0016626Y0022618D01*
X0016660Y0022754D01*
X0016697Y0022890D01*
X0016738Y0023025D01*
X0016783Y0023159D01*
X0016832Y0023291D01*
X0016884Y0023422D01*
X0016940Y0023551D01*
X0017000Y0023678D01*
X0017063Y0023804D01*
X0017129Y0023928D01*
X0017200Y0024051D01*
X0017273Y0024171D01*
X0017350Y0024289D01*
X0017430Y0024405D01*
X0017514Y0024518D01*
X0017600Y0024629D01*
X0017690Y0024738D01*
X0017783Y0024844D01*
X0017878Y0024947D01*
X0017977Y0025048D01*
X0018078Y0025146D01*
X0018182Y0025241D01*
X0018289Y0025333D01*
X0018398Y0025422D01*
X0018510Y0025507D01*
X0018624Y0025590D01*
X0018740Y0025670D01*
X0018859Y0025746D01*
X0018980Y0025818D01*
X0019102Y0025888D01*
X0019227Y0025953D01*
X0019353Y0026016D01*
X0019481Y0026074D01*
X0019611Y0026129D01*
X0019742Y0026181D01*
X0019875Y0026228D01*
X0020009Y0026272D01*
X0020144Y0026313D01*
X0020280Y0026349D01*
X0020417Y0026381D01*
X0020555Y0026410D01*
X0020693Y0026435D01*
X0020833Y0026455D01*
X0020973Y0026472D01*
X0021113Y0026485D01*
X0021254Y0026494D01*
X0021394Y0026499D01*
X0021535Y0026500D01*
X0021676Y0026497D01*
X0021817Y0026490D01*
X0021957Y0026479D01*
X0022097Y0026464D01*
X0022237Y0026445D01*
X0022376Y0026423D01*
X0022514Y0026396D01*
X0022652Y0026366D01*
X0022788Y0026331D01*
X0022924Y0026293D01*
X0023058Y0026251D01*
X0023192Y0026205D01*
X0023324Y0026156D01*
X0023454Y0026102D01*
X0023583Y0026045D01*
X0023710Y0025985D01*
X0023836Y0025921D01*
X0023959Y0025853D01*
X0024081Y0025782D01*
X0024201Y0025708D01*
X0024318Y0025630D01*
X0024433Y0025549D01*
X0024546Y0025465D01*
X0024657Y0025378D01*
X0024765Y0025287D01*
X0024870Y0025194D01*
X0024973Y0025097D01*
X0025073Y0024998D01*
X0025170Y0024896D01*
X0025264Y0024791D01*
X0025355Y0024684D01*
X0025443Y0024574D01*
X0025528Y0024462D01*
X0025610Y0024347D01*
X0025689Y0024230D01*
X0025764Y0024111D01*
X0025836Y0023990D01*
X0025904Y0023867D01*
X0025969Y0023742D01*
X0026031Y0023615D01*
X0026088Y0023486D01*
X0026143Y0023356D01*
X0026193Y0023225D01*
X0026240Y0023092D01*
X0026283Y0022958D01*
X0026322Y0022822D01*
X0026357Y0022686D01*
X0026389Y0022549D01*
X0026416Y0022411D01*
X0026440Y0022272D01*
X0026460Y0022132D01*
X0026476Y0021992D01*
X0026488Y0021852D01*
X0026496Y0021711D01*
X0026500Y0021570D01*
X0026500Y0021430D01*
X0026496Y0021289D01*
X0026488Y0021148D01*
X0026476Y0021008D01*
X0026460Y0020868D01*
X0026440Y0020728D01*
X0026416Y0020589D01*
X0026389Y0020451D01*
X0026357Y0020314D01*
X0026322Y0020178D01*
X0026283Y0020042D01*
X0026240Y0019908D01*
X0026193Y0019775D01*
X0026143Y0019644D01*
X0026088Y0019514D01*
X0026031Y0019385D01*
X0025969Y0019258D01*
X0025904Y0019133D01*
X0025836Y0019010D01*
X0025764Y0018889D01*
X0025689Y0018770D01*
X0025610Y0018653D01*
X0025528Y0018538D01*
X0025443Y0018426D01*
X0025355Y0018316D01*
X0025264Y0018209D01*
X0025170Y0018104D01*
X0025073Y0018002D01*
X0024973Y0017903D01*
X0024870Y0017806D01*
X0024765Y0017713D01*
X0024657Y0017622D01*
X0024546Y0017535D01*
X0024433Y0017451D01*
X0024318Y0017370D01*
X0024201Y0017292D01*
X0024081Y0017218D01*
X0023959Y0017147D01*
X0023836Y0017079D01*
X0023710Y0017015D01*
X0023583Y0016955D01*
X0023454Y0016898D01*
X0023324Y0016844D01*
X0023192Y0016795D01*
X0023058Y0016749D01*
X0022924Y0016707D01*
X0022788Y0016669D01*
X0022652Y0016634D01*
X0022514Y0016604D01*
X0022376Y0016577D01*
X0022237Y0016555D01*
X0022097Y0016536D01*
X0021957Y0016521D01*
X0021817Y0016510D01*
X0021676Y0016503D01*
X0021535Y0016500D01*
X0021394Y0016501D01*
X0021254Y0016506D01*
X0021113Y0016515D01*
X0020973Y0016528D01*
X0020833Y0016545D01*
X0020693Y0016565D01*
X0020555Y0016590D01*
X0020417Y0016619D01*
X0020280Y0016651D01*
X0020144Y0016687D01*
X0020009Y0016728D01*
X0019875Y0016772D01*
X0019742Y0016819D01*
X0019611Y0016871D01*
X0019481Y0016926D01*
X0019353Y0016984D01*
X0019227Y0017047D01*
X0019102Y0017112D01*
X0018980Y0017182D01*
X0018859Y0017254D01*
X0018740Y0017330D01*
X0018624Y0017410D01*
X0018510Y0017493D01*
X0018398Y0017578D01*
X0018289Y0017667D01*
X0018182Y0017759D01*
X0018078Y0017854D01*
X0017977Y0017952D01*
X0017878Y0018053D01*
X0017783Y0018156D01*
X0017690Y0018262D01*
X0017600Y0018371D01*
X0017514Y0018482D01*
X0017430Y0018595D01*
X0017350Y0018711D01*
X0017273Y0018829D01*
X0017200Y0018949D01*
X0017129Y0019072D01*
X0017063Y0019196D01*
X0017000Y0019322D01*
X0016940Y0019449D01*
X0016884Y0019578D01*
X0016832Y0019709D01*
X0016783Y0019841D01*
X0016738Y0019975D01*
X0016697Y0020110D01*
X0016660Y0020246D01*
X0016626Y0020382D01*
X0016597Y0020520D01*
X0016571Y0020659D01*
X0016550Y0020798D01*
X0016532Y0020938D01*
X0016518Y0021078D01*
X0016508Y0021218D01*
X0016502Y0021359D01*
X0016500Y0021500D01*
X0266500Y0021500D02*
X0266502Y0021641D01*
X0266508Y0021782D01*
X0266518Y0021922D01*
X0266532Y0022062D01*
X0266550Y0022202D01*
X0266571Y0022341D01*
X0266597Y0022480D01*
X0266626Y0022618D01*
X0266660Y0022754D01*
X0266697Y0022890D01*
X0266738Y0023025D01*
X0266783Y0023159D01*
X0266832Y0023291D01*
X0266884Y0023422D01*
X0266940Y0023551D01*
X0267000Y0023678D01*
X0267063Y0023804D01*
X0267129Y0023928D01*
X0267200Y0024051D01*
X0267273Y0024171D01*
X0267350Y0024289D01*
X0267430Y0024405D01*
X0267514Y0024518D01*
X0267600Y0024629D01*
X0267690Y0024738D01*
X0267783Y0024844D01*
X0267878Y0024947D01*
X0267977Y0025048D01*
X0268078Y0025146D01*
X0268182Y0025241D01*
X0268289Y0025333D01*
X0268398Y0025422D01*
X0268510Y0025507D01*
X0268624Y0025590D01*
X0268740Y0025670D01*
X0268859Y0025746D01*
X0268980Y0025818D01*
X0269102Y0025888D01*
X0269227Y0025953D01*
X0269353Y0026016D01*
X0269481Y0026074D01*
X0269611Y0026129D01*
X0269742Y0026181D01*
X0269875Y0026228D01*
X0270009Y0026272D01*
X0270144Y0026313D01*
X0270280Y0026349D01*
X0270417Y0026381D01*
X0270555Y0026410D01*
X0270693Y0026435D01*
X0270833Y0026455D01*
X0270973Y0026472D01*
X0271113Y0026485D01*
X0271254Y0026494D01*
X0271394Y0026499D01*
X0271535Y0026500D01*
X0271676Y0026497D01*
X0271817Y0026490D01*
X0271957Y0026479D01*
X0272097Y0026464D01*
X0272237Y0026445D01*
X0272376Y0026423D01*
X0272514Y0026396D01*
X0272652Y0026366D01*
X0272788Y0026331D01*
X0272924Y0026293D01*
X0273058Y0026251D01*
X0273192Y0026205D01*
X0273324Y0026156D01*
X0273454Y0026102D01*
X0273583Y0026045D01*
X0273710Y0025985D01*
X0273836Y0025921D01*
X0273959Y0025853D01*
X0274081Y0025782D01*
X0274201Y0025708D01*
X0274318Y0025630D01*
X0274433Y0025549D01*
X0274546Y0025465D01*
X0274657Y0025378D01*
X0274765Y0025287D01*
X0274870Y0025194D01*
X0274973Y0025097D01*
X0275073Y0024998D01*
X0275170Y0024896D01*
X0275264Y0024791D01*
X0275355Y0024684D01*
X0275443Y0024574D01*
X0275528Y0024462D01*
X0275610Y0024347D01*
X0275689Y0024230D01*
X0275764Y0024111D01*
X0275836Y0023990D01*
X0275904Y0023867D01*
X0275969Y0023742D01*
X0276031Y0023615D01*
X0276088Y0023486D01*
X0276143Y0023356D01*
X0276193Y0023225D01*
X0276240Y0023092D01*
X0276283Y0022958D01*
X0276322Y0022822D01*
X0276357Y0022686D01*
X0276389Y0022549D01*
X0276416Y0022411D01*
X0276440Y0022272D01*
X0276460Y0022132D01*
X0276476Y0021992D01*
X0276488Y0021852D01*
X0276496Y0021711D01*
X0276500Y0021570D01*
X0276500Y0021430D01*
X0276496Y0021289D01*
X0276488Y0021148D01*
X0276476Y0021008D01*
X0276460Y0020868D01*
X0276440Y0020728D01*
X0276416Y0020589D01*
X0276389Y0020451D01*
X0276357Y0020314D01*
X0276322Y0020178D01*
X0276283Y0020042D01*
X0276240Y0019908D01*
X0276193Y0019775D01*
X0276143Y0019644D01*
X0276088Y0019514D01*
X0276031Y0019385D01*
X0275969Y0019258D01*
X0275904Y0019133D01*
X0275836Y0019010D01*
X0275764Y0018889D01*
X0275689Y0018770D01*
X0275610Y0018653D01*
X0275528Y0018538D01*
X0275443Y0018426D01*
X0275355Y0018316D01*
X0275264Y0018209D01*
X0275170Y0018104D01*
X0275073Y0018002D01*
X0274973Y0017903D01*
X0274870Y0017806D01*
X0274765Y0017713D01*
X0274657Y0017622D01*
X0274546Y0017535D01*
X0274433Y0017451D01*
X0274318Y0017370D01*
X0274201Y0017292D01*
X0274081Y0017218D01*
X0273959Y0017147D01*
X0273836Y0017079D01*
X0273710Y0017015D01*
X0273583Y0016955D01*
X0273454Y0016898D01*
X0273324Y0016844D01*
X0273192Y0016795D01*
X0273058Y0016749D01*
X0272924Y0016707D01*
X0272788Y0016669D01*
X0272652Y0016634D01*
X0272514Y0016604D01*
X0272376Y0016577D01*
X0272237Y0016555D01*
X0272097Y0016536D01*
X0271957Y0016521D01*
X0271817Y0016510D01*
X0271676Y0016503D01*
X0271535Y0016500D01*
X0271394Y0016501D01*
X0271254Y0016506D01*
X0271113Y0016515D01*
X0270973Y0016528D01*
X0270833Y0016545D01*
X0270693Y0016565D01*
X0270555Y0016590D01*
X0270417Y0016619D01*
X0270280Y0016651D01*
X0270144Y0016687D01*
X0270009Y0016728D01*
X0269875Y0016772D01*
X0269742Y0016819D01*
X0269611Y0016871D01*
X0269481Y0016926D01*
X0269353Y0016984D01*
X0269227Y0017047D01*
X0269102Y0017112D01*
X0268980Y0017182D01*
X0268859Y0017254D01*
X0268740Y0017330D01*
X0268624Y0017410D01*
X0268510Y0017493D01*
X0268398Y0017578D01*
X0268289Y0017667D01*
X0268182Y0017759D01*
X0268078Y0017854D01*
X0267977Y0017952D01*
X0267878Y0018053D01*
X0267783Y0018156D01*
X0267690Y0018262D01*
X0267600Y0018371D01*
X0267514Y0018482D01*
X0267430Y0018595D01*
X0267350Y0018711D01*
X0267273Y0018829D01*
X0267200Y0018949D01*
X0267129Y0019072D01*
X0267063Y0019196D01*
X0267000Y0019322D01*
X0266940Y0019449D01*
X0266884Y0019578D01*
X0266832Y0019709D01*
X0266783Y0019841D01*
X0266738Y0019975D01*
X0266697Y0020110D01*
X0266660Y0020246D01*
X0266626Y0020382D01*
X0266597Y0020520D01*
X0266571Y0020659D01*
X0266550Y0020798D01*
X0266532Y0020938D01*
X0266518Y0021078D01*
X0266508Y0021218D01*
X0266502Y0021359D01*
X0266500Y0021500D01*
X0325201Y0091500D02*
X0325203Y0091658D01*
X0325209Y0091816D01*
X0325219Y0091974D01*
X0325233Y0092132D01*
X0325251Y0092289D01*
X0325272Y0092446D01*
X0325298Y0092602D01*
X0325328Y0092758D01*
X0325361Y0092913D01*
X0325399Y0093066D01*
X0325440Y0093219D01*
X0325485Y0093371D01*
X0325534Y0093522D01*
X0325587Y0093671D01*
X0325643Y0093819D01*
X0325703Y0093965D01*
X0325767Y0094110D01*
X0325835Y0094253D01*
X0325906Y0094395D01*
X0325980Y0094535D01*
X0326058Y0094672D01*
X0326140Y0094808D01*
X0326224Y0094942D01*
X0326313Y0095073D01*
X0326404Y0095202D01*
X0326499Y0095329D01*
X0326596Y0095454D01*
X0326697Y0095576D01*
X0326801Y0095695D01*
X0326908Y0095812D01*
X0327018Y0095926D01*
X0327131Y0096037D01*
X0327246Y0096146D01*
X0327364Y0096251D01*
X0327485Y0096353D01*
X0327608Y0096453D01*
X0327734Y0096549D01*
X0327862Y0096642D01*
X0327992Y0096732D01*
X0328125Y0096818D01*
X0328260Y0096902D01*
X0328396Y0096981D01*
X0328535Y0097058D01*
X0328676Y0097130D01*
X0328818Y0097200D01*
X0328962Y0097265D01*
X0329108Y0097327D01*
X0329255Y0097385D01*
X0329404Y0097440D01*
X0329554Y0097491D01*
X0329705Y0097538D01*
X0329857Y0097581D01*
X0330010Y0097620D01*
X0330165Y0097656D01*
X0330320Y0097687D01*
X0330476Y0097715D01*
X0330632Y0097739D01*
X0330789Y0097759D01*
X0330947Y0097775D01*
X0331104Y0097787D01*
X0331263Y0097795D01*
X0331421Y0097799D01*
X0331579Y0097799D01*
X0331737Y0097795D01*
X0331896Y0097787D01*
X0332053Y0097775D01*
X0332211Y0097759D01*
X0332368Y0097739D01*
X0332524Y0097715D01*
X0332680Y0097687D01*
X0332835Y0097656D01*
X0332990Y0097620D01*
X0333143Y0097581D01*
X0333295Y0097538D01*
X0333446Y0097491D01*
X0333596Y0097440D01*
X0333745Y0097385D01*
X0333892Y0097327D01*
X0334038Y0097265D01*
X0334182Y0097200D01*
X0334324Y0097130D01*
X0334465Y0097058D01*
X0334604Y0096981D01*
X0334740Y0096902D01*
X0334875Y0096818D01*
X0335008Y0096732D01*
X0335138Y0096642D01*
X0335266Y0096549D01*
X0335392Y0096453D01*
X0335515Y0096353D01*
X0335636Y0096251D01*
X0335754Y0096146D01*
X0335869Y0096037D01*
X0335982Y0095926D01*
X0336092Y0095812D01*
X0336199Y0095695D01*
X0336303Y0095576D01*
X0336404Y0095454D01*
X0336501Y0095329D01*
X0336596Y0095202D01*
X0336687Y0095073D01*
X0336776Y0094942D01*
X0336860Y0094808D01*
X0336942Y0094672D01*
X0337020Y0094535D01*
X0337094Y0094395D01*
X0337165Y0094253D01*
X0337233Y0094110D01*
X0337297Y0093965D01*
X0337357Y0093819D01*
X0337413Y0093671D01*
X0337466Y0093522D01*
X0337515Y0093371D01*
X0337560Y0093219D01*
X0337601Y0093066D01*
X0337639Y0092913D01*
X0337672Y0092758D01*
X0337702Y0092602D01*
X0337728Y0092446D01*
X0337749Y0092289D01*
X0337767Y0092132D01*
X0337781Y0091974D01*
X0337791Y0091816D01*
X0337797Y0091658D01*
X0337799Y0091500D01*
X0337797Y0091342D01*
X0337791Y0091184D01*
X0337781Y0091026D01*
X0337767Y0090868D01*
X0337749Y0090711D01*
X0337728Y0090554D01*
X0337702Y0090398D01*
X0337672Y0090242D01*
X0337639Y0090087D01*
X0337601Y0089934D01*
X0337560Y0089781D01*
X0337515Y0089629D01*
X0337466Y0089478D01*
X0337413Y0089329D01*
X0337357Y0089181D01*
X0337297Y0089035D01*
X0337233Y0088890D01*
X0337165Y0088747D01*
X0337094Y0088605D01*
X0337020Y0088465D01*
X0336942Y0088328D01*
X0336860Y0088192D01*
X0336776Y0088058D01*
X0336687Y0087927D01*
X0336596Y0087798D01*
X0336501Y0087671D01*
X0336404Y0087546D01*
X0336303Y0087424D01*
X0336199Y0087305D01*
X0336092Y0087188D01*
X0335982Y0087074D01*
X0335869Y0086963D01*
X0335754Y0086854D01*
X0335636Y0086749D01*
X0335515Y0086647D01*
X0335392Y0086547D01*
X0335266Y0086451D01*
X0335138Y0086358D01*
X0335008Y0086268D01*
X0334875Y0086182D01*
X0334740Y0086098D01*
X0334604Y0086019D01*
X0334465Y0085942D01*
X0334324Y0085870D01*
X0334182Y0085800D01*
X0334038Y0085735D01*
X0333892Y0085673D01*
X0333745Y0085615D01*
X0333596Y0085560D01*
X0333446Y0085509D01*
X0333295Y0085462D01*
X0333143Y0085419D01*
X0332990Y0085380D01*
X0332835Y0085344D01*
X0332680Y0085313D01*
X0332524Y0085285D01*
X0332368Y0085261D01*
X0332211Y0085241D01*
X0332053Y0085225D01*
X0331896Y0085213D01*
X0331737Y0085205D01*
X0331579Y0085201D01*
X0331421Y0085201D01*
X0331263Y0085205D01*
X0331104Y0085213D01*
X0330947Y0085225D01*
X0330789Y0085241D01*
X0330632Y0085261D01*
X0330476Y0085285D01*
X0330320Y0085313D01*
X0330165Y0085344D01*
X0330010Y0085380D01*
X0329857Y0085419D01*
X0329705Y0085462D01*
X0329554Y0085509D01*
X0329404Y0085560D01*
X0329255Y0085615D01*
X0329108Y0085673D01*
X0328962Y0085735D01*
X0328818Y0085800D01*
X0328676Y0085870D01*
X0328535Y0085942D01*
X0328396Y0086019D01*
X0328260Y0086098D01*
X0328125Y0086182D01*
X0327992Y0086268D01*
X0327862Y0086358D01*
X0327734Y0086451D01*
X0327608Y0086547D01*
X0327485Y0086647D01*
X0327364Y0086749D01*
X0327246Y0086854D01*
X0327131Y0086963D01*
X0327018Y0087074D01*
X0326908Y0087188D01*
X0326801Y0087305D01*
X0326697Y0087424D01*
X0326596Y0087546D01*
X0326499Y0087671D01*
X0326404Y0087798D01*
X0326313Y0087927D01*
X0326224Y0088058D01*
X0326140Y0088192D01*
X0326058Y0088328D01*
X0325980Y0088465D01*
X0325906Y0088605D01*
X0325835Y0088747D01*
X0325767Y0088890D01*
X0325703Y0089035D01*
X0325643Y0089181D01*
X0325587Y0089329D01*
X0325534Y0089478D01*
X0325485Y0089629D01*
X0325440Y0089781D01*
X0325399Y0089934D01*
X0325361Y0090087D01*
X0325328Y0090242D01*
X0325298Y0090398D01*
X0325272Y0090554D01*
X0325251Y0090711D01*
X0325233Y0090868D01*
X0325219Y0091026D01*
X0325209Y0091184D01*
X0325203Y0091342D01*
X0325201Y0091500D01*
X0266500Y0156500D02*
X0266502Y0156641D01*
X0266508Y0156782D01*
X0266518Y0156922D01*
X0266532Y0157062D01*
X0266550Y0157202D01*
X0266571Y0157341D01*
X0266597Y0157480D01*
X0266626Y0157618D01*
X0266660Y0157754D01*
X0266697Y0157890D01*
X0266738Y0158025D01*
X0266783Y0158159D01*
X0266832Y0158291D01*
X0266884Y0158422D01*
X0266940Y0158551D01*
X0267000Y0158678D01*
X0267063Y0158804D01*
X0267129Y0158928D01*
X0267200Y0159051D01*
X0267273Y0159171D01*
X0267350Y0159289D01*
X0267430Y0159405D01*
X0267514Y0159518D01*
X0267600Y0159629D01*
X0267690Y0159738D01*
X0267783Y0159844D01*
X0267878Y0159947D01*
X0267977Y0160048D01*
X0268078Y0160146D01*
X0268182Y0160241D01*
X0268289Y0160333D01*
X0268398Y0160422D01*
X0268510Y0160507D01*
X0268624Y0160590D01*
X0268740Y0160670D01*
X0268859Y0160746D01*
X0268980Y0160818D01*
X0269102Y0160888D01*
X0269227Y0160953D01*
X0269353Y0161016D01*
X0269481Y0161074D01*
X0269611Y0161129D01*
X0269742Y0161181D01*
X0269875Y0161228D01*
X0270009Y0161272D01*
X0270144Y0161313D01*
X0270280Y0161349D01*
X0270417Y0161381D01*
X0270555Y0161410D01*
X0270693Y0161435D01*
X0270833Y0161455D01*
X0270973Y0161472D01*
X0271113Y0161485D01*
X0271254Y0161494D01*
X0271394Y0161499D01*
X0271535Y0161500D01*
X0271676Y0161497D01*
X0271817Y0161490D01*
X0271957Y0161479D01*
X0272097Y0161464D01*
X0272237Y0161445D01*
X0272376Y0161423D01*
X0272514Y0161396D01*
X0272652Y0161366D01*
X0272788Y0161331D01*
X0272924Y0161293D01*
X0273058Y0161251D01*
X0273192Y0161205D01*
X0273324Y0161156D01*
X0273454Y0161102D01*
X0273583Y0161045D01*
X0273710Y0160985D01*
X0273836Y0160921D01*
X0273959Y0160853D01*
X0274081Y0160782D01*
X0274201Y0160708D01*
X0274318Y0160630D01*
X0274433Y0160549D01*
X0274546Y0160465D01*
X0274657Y0160378D01*
X0274765Y0160287D01*
X0274870Y0160194D01*
X0274973Y0160097D01*
X0275073Y0159998D01*
X0275170Y0159896D01*
X0275264Y0159791D01*
X0275355Y0159684D01*
X0275443Y0159574D01*
X0275528Y0159462D01*
X0275610Y0159347D01*
X0275689Y0159230D01*
X0275764Y0159111D01*
X0275836Y0158990D01*
X0275904Y0158867D01*
X0275969Y0158742D01*
X0276031Y0158615D01*
X0276088Y0158486D01*
X0276143Y0158356D01*
X0276193Y0158225D01*
X0276240Y0158092D01*
X0276283Y0157958D01*
X0276322Y0157822D01*
X0276357Y0157686D01*
X0276389Y0157549D01*
X0276416Y0157411D01*
X0276440Y0157272D01*
X0276460Y0157132D01*
X0276476Y0156992D01*
X0276488Y0156852D01*
X0276496Y0156711D01*
X0276500Y0156570D01*
X0276500Y0156430D01*
X0276496Y0156289D01*
X0276488Y0156148D01*
X0276476Y0156008D01*
X0276460Y0155868D01*
X0276440Y0155728D01*
X0276416Y0155589D01*
X0276389Y0155451D01*
X0276357Y0155314D01*
X0276322Y0155178D01*
X0276283Y0155042D01*
X0276240Y0154908D01*
X0276193Y0154775D01*
X0276143Y0154644D01*
X0276088Y0154514D01*
X0276031Y0154385D01*
X0275969Y0154258D01*
X0275904Y0154133D01*
X0275836Y0154010D01*
X0275764Y0153889D01*
X0275689Y0153770D01*
X0275610Y0153653D01*
X0275528Y0153538D01*
X0275443Y0153426D01*
X0275355Y0153316D01*
X0275264Y0153209D01*
X0275170Y0153104D01*
X0275073Y0153002D01*
X0274973Y0152903D01*
X0274870Y0152806D01*
X0274765Y0152713D01*
X0274657Y0152622D01*
X0274546Y0152535D01*
X0274433Y0152451D01*
X0274318Y0152370D01*
X0274201Y0152292D01*
X0274081Y0152218D01*
X0273959Y0152147D01*
X0273836Y0152079D01*
X0273710Y0152015D01*
X0273583Y0151955D01*
X0273454Y0151898D01*
X0273324Y0151844D01*
X0273192Y0151795D01*
X0273058Y0151749D01*
X0272924Y0151707D01*
X0272788Y0151669D01*
X0272652Y0151634D01*
X0272514Y0151604D01*
X0272376Y0151577D01*
X0272237Y0151555D01*
X0272097Y0151536D01*
X0271957Y0151521D01*
X0271817Y0151510D01*
X0271676Y0151503D01*
X0271535Y0151500D01*
X0271394Y0151501D01*
X0271254Y0151506D01*
X0271113Y0151515D01*
X0270973Y0151528D01*
X0270833Y0151545D01*
X0270693Y0151565D01*
X0270555Y0151590D01*
X0270417Y0151619D01*
X0270280Y0151651D01*
X0270144Y0151687D01*
X0270009Y0151728D01*
X0269875Y0151772D01*
X0269742Y0151819D01*
X0269611Y0151871D01*
X0269481Y0151926D01*
X0269353Y0151984D01*
X0269227Y0152047D01*
X0269102Y0152112D01*
X0268980Y0152182D01*
X0268859Y0152254D01*
X0268740Y0152330D01*
X0268624Y0152410D01*
X0268510Y0152493D01*
X0268398Y0152578D01*
X0268289Y0152667D01*
X0268182Y0152759D01*
X0268078Y0152854D01*
X0267977Y0152952D01*
X0267878Y0153053D01*
X0267783Y0153156D01*
X0267690Y0153262D01*
X0267600Y0153371D01*
X0267514Y0153482D01*
X0267430Y0153595D01*
X0267350Y0153711D01*
X0267273Y0153829D01*
X0267200Y0153949D01*
X0267129Y0154072D01*
X0267063Y0154196D01*
X0267000Y0154322D01*
X0266940Y0154449D01*
X0266884Y0154578D01*
X0266832Y0154709D01*
X0266783Y0154841D01*
X0266738Y0154975D01*
X0266697Y0155110D01*
X0266660Y0155246D01*
X0266626Y0155382D01*
X0266597Y0155520D01*
X0266571Y0155659D01*
X0266550Y0155798D01*
X0266532Y0155938D01*
X0266518Y0156078D01*
X0266508Y0156218D01*
X0266502Y0156359D01*
X0266500Y0156500D01*
X0271500Y0276500D02*
X0271502Y0276641D01*
X0271508Y0276782D01*
X0271518Y0276922D01*
X0271532Y0277062D01*
X0271550Y0277202D01*
X0271571Y0277341D01*
X0271597Y0277480D01*
X0271626Y0277618D01*
X0271660Y0277754D01*
X0271697Y0277890D01*
X0271738Y0278025D01*
X0271783Y0278159D01*
X0271832Y0278291D01*
X0271884Y0278422D01*
X0271940Y0278551D01*
X0272000Y0278678D01*
X0272063Y0278804D01*
X0272129Y0278928D01*
X0272200Y0279051D01*
X0272273Y0279171D01*
X0272350Y0279289D01*
X0272430Y0279405D01*
X0272514Y0279518D01*
X0272600Y0279629D01*
X0272690Y0279738D01*
X0272783Y0279844D01*
X0272878Y0279947D01*
X0272977Y0280048D01*
X0273078Y0280146D01*
X0273182Y0280241D01*
X0273289Y0280333D01*
X0273398Y0280422D01*
X0273510Y0280507D01*
X0273624Y0280590D01*
X0273740Y0280670D01*
X0273859Y0280746D01*
X0273980Y0280818D01*
X0274102Y0280888D01*
X0274227Y0280953D01*
X0274353Y0281016D01*
X0274481Y0281074D01*
X0274611Y0281129D01*
X0274742Y0281181D01*
X0274875Y0281228D01*
X0275009Y0281272D01*
X0275144Y0281313D01*
X0275280Y0281349D01*
X0275417Y0281381D01*
X0275555Y0281410D01*
X0275693Y0281435D01*
X0275833Y0281455D01*
X0275973Y0281472D01*
X0276113Y0281485D01*
X0276254Y0281494D01*
X0276394Y0281499D01*
X0276535Y0281500D01*
X0276676Y0281497D01*
X0276817Y0281490D01*
X0276957Y0281479D01*
X0277097Y0281464D01*
X0277237Y0281445D01*
X0277376Y0281423D01*
X0277514Y0281396D01*
X0277652Y0281366D01*
X0277788Y0281331D01*
X0277924Y0281293D01*
X0278058Y0281251D01*
X0278192Y0281205D01*
X0278324Y0281156D01*
X0278454Y0281102D01*
X0278583Y0281045D01*
X0278710Y0280985D01*
X0278836Y0280921D01*
X0278959Y0280853D01*
X0279081Y0280782D01*
X0279201Y0280708D01*
X0279318Y0280630D01*
X0279433Y0280549D01*
X0279546Y0280465D01*
X0279657Y0280378D01*
X0279765Y0280287D01*
X0279870Y0280194D01*
X0279973Y0280097D01*
X0280073Y0279998D01*
X0280170Y0279896D01*
X0280264Y0279791D01*
X0280355Y0279684D01*
X0280443Y0279574D01*
X0280528Y0279462D01*
X0280610Y0279347D01*
X0280689Y0279230D01*
X0280764Y0279111D01*
X0280836Y0278990D01*
X0280904Y0278867D01*
X0280969Y0278742D01*
X0281031Y0278615D01*
X0281088Y0278486D01*
X0281143Y0278356D01*
X0281193Y0278225D01*
X0281240Y0278092D01*
X0281283Y0277958D01*
X0281322Y0277822D01*
X0281357Y0277686D01*
X0281389Y0277549D01*
X0281416Y0277411D01*
X0281440Y0277272D01*
X0281460Y0277132D01*
X0281476Y0276992D01*
X0281488Y0276852D01*
X0281496Y0276711D01*
X0281500Y0276570D01*
X0281500Y0276430D01*
X0281496Y0276289D01*
X0281488Y0276148D01*
X0281476Y0276008D01*
X0281460Y0275868D01*
X0281440Y0275728D01*
X0281416Y0275589D01*
X0281389Y0275451D01*
X0281357Y0275314D01*
X0281322Y0275178D01*
X0281283Y0275042D01*
X0281240Y0274908D01*
X0281193Y0274775D01*
X0281143Y0274644D01*
X0281088Y0274514D01*
X0281031Y0274385D01*
X0280969Y0274258D01*
X0280904Y0274133D01*
X0280836Y0274010D01*
X0280764Y0273889D01*
X0280689Y0273770D01*
X0280610Y0273653D01*
X0280528Y0273538D01*
X0280443Y0273426D01*
X0280355Y0273316D01*
X0280264Y0273209D01*
X0280170Y0273104D01*
X0280073Y0273002D01*
X0279973Y0272903D01*
X0279870Y0272806D01*
X0279765Y0272713D01*
X0279657Y0272622D01*
X0279546Y0272535D01*
X0279433Y0272451D01*
X0279318Y0272370D01*
X0279201Y0272292D01*
X0279081Y0272218D01*
X0278959Y0272147D01*
X0278836Y0272079D01*
X0278710Y0272015D01*
X0278583Y0271955D01*
X0278454Y0271898D01*
X0278324Y0271844D01*
X0278192Y0271795D01*
X0278058Y0271749D01*
X0277924Y0271707D01*
X0277788Y0271669D01*
X0277652Y0271634D01*
X0277514Y0271604D01*
X0277376Y0271577D01*
X0277237Y0271555D01*
X0277097Y0271536D01*
X0276957Y0271521D01*
X0276817Y0271510D01*
X0276676Y0271503D01*
X0276535Y0271500D01*
X0276394Y0271501D01*
X0276254Y0271506D01*
X0276113Y0271515D01*
X0275973Y0271528D01*
X0275833Y0271545D01*
X0275693Y0271565D01*
X0275555Y0271590D01*
X0275417Y0271619D01*
X0275280Y0271651D01*
X0275144Y0271687D01*
X0275009Y0271728D01*
X0274875Y0271772D01*
X0274742Y0271819D01*
X0274611Y0271871D01*
X0274481Y0271926D01*
X0274353Y0271984D01*
X0274227Y0272047D01*
X0274102Y0272112D01*
X0273980Y0272182D01*
X0273859Y0272254D01*
X0273740Y0272330D01*
X0273624Y0272410D01*
X0273510Y0272493D01*
X0273398Y0272578D01*
X0273289Y0272667D01*
X0273182Y0272759D01*
X0273078Y0272854D01*
X0272977Y0272952D01*
X0272878Y0273053D01*
X0272783Y0273156D01*
X0272690Y0273262D01*
X0272600Y0273371D01*
X0272514Y0273482D01*
X0272430Y0273595D01*
X0272350Y0273711D01*
X0272273Y0273829D01*
X0272200Y0273949D01*
X0272129Y0274072D01*
X0272063Y0274196D01*
X0272000Y0274322D01*
X0271940Y0274449D01*
X0271884Y0274578D01*
X0271832Y0274709D01*
X0271783Y0274841D01*
X0271738Y0274975D01*
X0271697Y0275110D01*
X0271660Y0275246D01*
X0271626Y0275382D01*
X0271597Y0275520D01*
X0271571Y0275659D01*
X0271550Y0275798D01*
X0271532Y0275938D01*
X0271518Y0276078D01*
X0271508Y0276218D01*
X0271502Y0276359D01*
X0271500Y0276500D01*
X0271500Y0396500D02*
X0271502Y0396641D01*
X0271508Y0396782D01*
X0271518Y0396922D01*
X0271532Y0397062D01*
X0271550Y0397202D01*
X0271571Y0397341D01*
X0271597Y0397480D01*
X0271626Y0397618D01*
X0271660Y0397754D01*
X0271697Y0397890D01*
X0271738Y0398025D01*
X0271783Y0398159D01*
X0271832Y0398291D01*
X0271884Y0398422D01*
X0271940Y0398551D01*
X0272000Y0398678D01*
X0272063Y0398804D01*
X0272129Y0398928D01*
X0272200Y0399051D01*
X0272273Y0399171D01*
X0272350Y0399289D01*
X0272430Y0399405D01*
X0272514Y0399518D01*
X0272600Y0399629D01*
X0272690Y0399738D01*
X0272783Y0399844D01*
X0272878Y0399947D01*
X0272977Y0400048D01*
X0273078Y0400146D01*
X0273182Y0400241D01*
X0273289Y0400333D01*
X0273398Y0400422D01*
X0273510Y0400507D01*
X0273624Y0400590D01*
X0273740Y0400670D01*
X0273859Y0400746D01*
X0273980Y0400818D01*
X0274102Y0400888D01*
X0274227Y0400953D01*
X0274353Y0401016D01*
X0274481Y0401074D01*
X0274611Y0401129D01*
X0274742Y0401181D01*
X0274875Y0401228D01*
X0275009Y0401272D01*
X0275144Y0401313D01*
X0275280Y0401349D01*
X0275417Y0401381D01*
X0275555Y0401410D01*
X0275693Y0401435D01*
X0275833Y0401455D01*
X0275973Y0401472D01*
X0276113Y0401485D01*
X0276254Y0401494D01*
X0276394Y0401499D01*
X0276535Y0401500D01*
X0276676Y0401497D01*
X0276817Y0401490D01*
X0276957Y0401479D01*
X0277097Y0401464D01*
X0277237Y0401445D01*
X0277376Y0401423D01*
X0277514Y0401396D01*
X0277652Y0401366D01*
X0277788Y0401331D01*
X0277924Y0401293D01*
X0278058Y0401251D01*
X0278192Y0401205D01*
X0278324Y0401156D01*
X0278454Y0401102D01*
X0278583Y0401045D01*
X0278710Y0400985D01*
X0278836Y0400921D01*
X0278959Y0400853D01*
X0279081Y0400782D01*
X0279201Y0400708D01*
X0279318Y0400630D01*
X0279433Y0400549D01*
X0279546Y0400465D01*
X0279657Y0400378D01*
X0279765Y0400287D01*
X0279870Y0400194D01*
X0279973Y0400097D01*
X0280073Y0399998D01*
X0280170Y0399896D01*
X0280264Y0399791D01*
X0280355Y0399684D01*
X0280443Y0399574D01*
X0280528Y0399462D01*
X0280610Y0399347D01*
X0280689Y0399230D01*
X0280764Y0399111D01*
X0280836Y0398990D01*
X0280904Y0398867D01*
X0280969Y0398742D01*
X0281031Y0398615D01*
X0281088Y0398486D01*
X0281143Y0398356D01*
X0281193Y0398225D01*
X0281240Y0398092D01*
X0281283Y0397958D01*
X0281322Y0397822D01*
X0281357Y0397686D01*
X0281389Y0397549D01*
X0281416Y0397411D01*
X0281440Y0397272D01*
X0281460Y0397132D01*
X0281476Y0396992D01*
X0281488Y0396852D01*
X0281496Y0396711D01*
X0281500Y0396570D01*
X0281500Y0396430D01*
X0281496Y0396289D01*
X0281488Y0396148D01*
X0281476Y0396008D01*
X0281460Y0395868D01*
X0281440Y0395728D01*
X0281416Y0395589D01*
X0281389Y0395451D01*
X0281357Y0395314D01*
X0281322Y0395178D01*
X0281283Y0395042D01*
X0281240Y0394908D01*
X0281193Y0394775D01*
X0281143Y0394644D01*
X0281088Y0394514D01*
X0281031Y0394385D01*
X0280969Y0394258D01*
X0280904Y0394133D01*
X0280836Y0394010D01*
X0280764Y0393889D01*
X0280689Y0393770D01*
X0280610Y0393653D01*
X0280528Y0393538D01*
X0280443Y0393426D01*
X0280355Y0393316D01*
X0280264Y0393209D01*
X0280170Y0393104D01*
X0280073Y0393002D01*
X0279973Y0392903D01*
X0279870Y0392806D01*
X0279765Y0392713D01*
X0279657Y0392622D01*
X0279546Y0392535D01*
X0279433Y0392451D01*
X0279318Y0392370D01*
X0279201Y0392292D01*
X0279081Y0392218D01*
X0278959Y0392147D01*
X0278836Y0392079D01*
X0278710Y0392015D01*
X0278583Y0391955D01*
X0278454Y0391898D01*
X0278324Y0391844D01*
X0278192Y0391795D01*
X0278058Y0391749D01*
X0277924Y0391707D01*
X0277788Y0391669D01*
X0277652Y0391634D01*
X0277514Y0391604D01*
X0277376Y0391577D01*
X0277237Y0391555D01*
X0277097Y0391536D01*
X0276957Y0391521D01*
X0276817Y0391510D01*
X0276676Y0391503D01*
X0276535Y0391500D01*
X0276394Y0391501D01*
X0276254Y0391506D01*
X0276113Y0391515D01*
X0275973Y0391528D01*
X0275833Y0391545D01*
X0275693Y0391565D01*
X0275555Y0391590D01*
X0275417Y0391619D01*
X0275280Y0391651D01*
X0275144Y0391687D01*
X0275009Y0391728D01*
X0274875Y0391772D01*
X0274742Y0391819D01*
X0274611Y0391871D01*
X0274481Y0391926D01*
X0274353Y0391984D01*
X0274227Y0392047D01*
X0274102Y0392112D01*
X0273980Y0392182D01*
X0273859Y0392254D01*
X0273740Y0392330D01*
X0273624Y0392410D01*
X0273510Y0392493D01*
X0273398Y0392578D01*
X0273289Y0392667D01*
X0273182Y0392759D01*
X0273078Y0392854D01*
X0272977Y0392952D01*
X0272878Y0393053D01*
X0272783Y0393156D01*
X0272690Y0393262D01*
X0272600Y0393371D01*
X0272514Y0393482D01*
X0272430Y0393595D01*
X0272350Y0393711D01*
X0272273Y0393829D01*
X0272200Y0393949D01*
X0272129Y0394072D01*
X0272063Y0394196D01*
X0272000Y0394322D01*
X0271940Y0394449D01*
X0271884Y0394578D01*
X0271832Y0394709D01*
X0271783Y0394841D01*
X0271738Y0394975D01*
X0271697Y0395110D01*
X0271660Y0395246D01*
X0271626Y0395382D01*
X0271597Y0395520D01*
X0271571Y0395659D01*
X0271550Y0395798D01*
X0271532Y0395938D01*
X0271518Y0396078D01*
X0271508Y0396218D01*
X0271502Y0396359D01*
X0271500Y0396500D01*
X0325201Y0411500D02*
X0325203Y0411658D01*
X0325209Y0411816D01*
X0325219Y0411974D01*
X0325233Y0412132D01*
X0325251Y0412289D01*
X0325272Y0412446D01*
X0325298Y0412602D01*
X0325328Y0412758D01*
X0325361Y0412913D01*
X0325399Y0413066D01*
X0325440Y0413219D01*
X0325485Y0413371D01*
X0325534Y0413522D01*
X0325587Y0413671D01*
X0325643Y0413819D01*
X0325703Y0413965D01*
X0325767Y0414110D01*
X0325835Y0414253D01*
X0325906Y0414395D01*
X0325980Y0414535D01*
X0326058Y0414672D01*
X0326140Y0414808D01*
X0326224Y0414942D01*
X0326313Y0415073D01*
X0326404Y0415202D01*
X0326499Y0415329D01*
X0326596Y0415454D01*
X0326697Y0415576D01*
X0326801Y0415695D01*
X0326908Y0415812D01*
X0327018Y0415926D01*
X0327131Y0416037D01*
X0327246Y0416146D01*
X0327364Y0416251D01*
X0327485Y0416353D01*
X0327608Y0416453D01*
X0327734Y0416549D01*
X0327862Y0416642D01*
X0327992Y0416732D01*
X0328125Y0416818D01*
X0328260Y0416902D01*
X0328396Y0416981D01*
X0328535Y0417058D01*
X0328676Y0417130D01*
X0328818Y0417200D01*
X0328962Y0417265D01*
X0329108Y0417327D01*
X0329255Y0417385D01*
X0329404Y0417440D01*
X0329554Y0417491D01*
X0329705Y0417538D01*
X0329857Y0417581D01*
X0330010Y0417620D01*
X0330165Y0417656D01*
X0330320Y0417687D01*
X0330476Y0417715D01*
X0330632Y0417739D01*
X0330789Y0417759D01*
X0330947Y0417775D01*
X0331104Y0417787D01*
X0331263Y0417795D01*
X0331421Y0417799D01*
X0331579Y0417799D01*
X0331737Y0417795D01*
X0331896Y0417787D01*
X0332053Y0417775D01*
X0332211Y0417759D01*
X0332368Y0417739D01*
X0332524Y0417715D01*
X0332680Y0417687D01*
X0332835Y0417656D01*
X0332990Y0417620D01*
X0333143Y0417581D01*
X0333295Y0417538D01*
X0333446Y0417491D01*
X0333596Y0417440D01*
X0333745Y0417385D01*
X0333892Y0417327D01*
X0334038Y0417265D01*
X0334182Y0417200D01*
X0334324Y0417130D01*
X0334465Y0417058D01*
X0334604Y0416981D01*
X0334740Y0416902D01*
X0334875Y0416818D01*
X0335008Y0416732D01*
X0335138Y0416642D01*
X0335266Y0416549D01*
X0335392Y0416453D01*
X0335515Y0416353D01*
X0335636Y0416251D01*
X0335754Y0416146D01*
X0335869Y0416037D01*
X0335982Y0415926D01*
X0336092Y0415812D01*
X0336199Y0415695D01*
X0336303Y0415576D01*
X0336404Y0415454D01*
X0336501Y0415329D01*
X0336596Y0415202D01*
X0336687Y0415073D01*
X0336776Y0414942D01*
X0336860Y0414808D01*
X0336942Y0414672D01*
X0337020Y0414535D01*
X0337094Y0414395D01*
X0337165Y0414253D01*
X0337233Y0414110D01*
X0337297Y0413965D01*
X0337357Y0413819D01*
X0337413Y0413671D01*
X0337466Y0413522D01*
X0337515Y0413371D01*
X0337560Y0413219D01*
X0337601Y0413066D01*
X0337639Y0412913D01*
X0337672Y0412758D01*
X0337702Y0412602D01*
X0337728Y0412446D01*
X0337749Y0412289D01*
X0337767Y0412132D01*
X0337781Y0411974D01*
X0337791Y0411816D01*
X0337797Y0411658D01*
X0337799Y0411500D01*
X0337797Y0411342D01*
X0337791Y0411184D01*
X0337781Y0411026D01*
X0337767Y0410868D01*
X0337749Y0410711D01*
X0337728Y0410554D01*
X0337702Y0410398D01*
X0337672Y0410242D01*
X0337639Y0410087D01*
X0337601Y0409934D01*
X0337560Y0409781D01*
X0337515Y0409629D01*
X0337466Y0409478D01*
X0337413Y0409329D01*
X0337357Y0409181D01*
X0337297Y0409035D01*
X0337233Y0408890D01*
X0337165Y0408747D01*
X0337094Y0408605D01*
X0337020Y0408465D01*
X0336942Y0408328D01*
X0336860Y0408192D01*
X0336776Y0408058D01*
X0336687Y0407927D01*
X0336596Y0407798D01*
X0336501Y0407671D01*
X0336404Y0407546D01*
X0336303Y0407424D01*
X0336199Y0407305D01*
X0336092Y0407188D01*
X0335982Y0407074D01*
X0335869Y0406963D01*
X0335754Y0406854D01*
X0335636Y0406749D01*
X0335515Y0406647D01*
X0335392Y0406547D01*
X0335266Y0406451D01*
X0335138Y0406358D01*
X0335008Y0406268D01*
X0334875Y0406182D01*
X0334740Y0406098D01*
X0334604Y0406019D01*
X0334465Y0405942D01*
X0334324Y0405870D01*
X0334182Y0405800D01*
X0334038Y0405735D01*
X0333892Y0405673D01*
X0333745Y0405615D01*
X0333596Y0405560D01*
X0333446Y0405509D01*
X0333295Y0405462D01*
X0333143Y0405419D01*
X0332990Y0405380D01*
X0332835Y0405344D01*
X0332680Y0405313D01*
X0332524Y0405285D01*
X0332368Y0405261D01*
X0332211Y0405241D01*
X0332053Y0405225D01*
X0331896Y0405213D01*
X0331737Y0405205D01*
X0331579Y0405201D01*
X0331421Y0405201D01*
X0331263Y0405205D01*
X0331104Y0405213D01*
X0330947Y0405225D01*
X0330789Y0405241D01*
X0330632Y0405261D01*
X0330476Y0405285D01*
X0330320Y0405313D01*
X0330165Y0405344D01*
X0330010Y0405380D01*
X0329857Y0405419D01*
X0329705Y0405462D01*
X0329554Y0405509D01*
X0329404Y0405560D01*
X0329255Y0405615D01*
X0329108Y0405673D01*
X0328962Y0405735D01*
X0328818Y0405800D01*
X0328676Y0405870D01*
X0328535Y0405942D01*
X0328396Y0406019D01*
X0328260Y0406098D01*
X0328125Y0406182D01*
X0327992Y0406268D01*
X0327862Y0406358D01*
X0327734Y0406451D01*
X0327608Y0406547D01*
X0327485Y0406647D01*
X0327364Y0406749D01*
X0327246Y0406854D01*
X0327131Y0406963D01*
X0327018Y0407074D01*
X0326908Y0407188D01*
X0326801Y0407305D01*
X0326697Y0407424D01*
X0326596Y0407546D01*
X0326499Y0407671D01*
X0326404Y0407798D01*
X0326313Y0407927D01*
X0326224Y0408058D01*
X0326140Y0408192D01*
X0326058Y0408328D01*
X0325980Y0408465D01*
X0325906Y0408605D01*
X0325835Y0408747D01*
X0325767Y0408890D01*
X0325703Y0409035D01*
X0325643Y0409181D01*
X0325587Y0409329D01*
X0325534Y0409478D01*
X0325485Y0409629D01*
X0325440Y0409781D01*
X0325399Y0409934D01*
X0325361Y0410087D01*
X0325328Y0410242D01*
X0325298Y0410398D01*
X0325272Y0410554D01*
X0325251Y0410711D01*
X0325233Y0410868D01*
X0325219Y0411026D01*
X0325209Y0411184D01*
X0325203Y0411342D01*
X0325201Y0411500D01*
X0515201Y0411500D02*
X0515203Y0411658D01*
X0515209Y0411816D01*
X0515219Y0411974D01*
X0515233Y0412132D01*
X0515251Y0412289D01*
X0515272Y0412446D01*
X0515298Y0412602D01*
X0515328Y0412758D01*
X0515361Y0412913D01*
X0515399Y0413066D01*
X0515440Y0413219D01*
X0515485Y0413371D01*
X0515534Y0413522D01*
X0515587Y0413671D01*
X0515643Y0413819D01*
X0515703Y0413965D01*
X0515767Y0414110D01*
X0515835Y0414253D01*
X0515906Y0414395D01*
X0515980Y0414535D01*
X0516058Y0414672D01*
X0516140Y0414808D01*
X0516224Y0414942D01*
X0516313Y0415073D01*
X0516404Y0415202D01*
X0516499Y0415329D01*
X0516596Y0415454D01*
X0516697Y0415576D01*
X0516801Y0415695D01*
X0516908Y0415812D01*
X0517018Y0415926D01*
X0517131Y0416037D01*
X0517246Y0416146D01*
X0517364Y0416251D01*
X0517485Y0416353D01*
X0517608Y0416453D01*
X0517734Y0416549D01*
X0517862Y0416642D01*
X0517992Y0416732D01*
X0518125Y0416818D01*
X0518260Y0416902D01*
X0518396Y0416981D01*
X0518535Y0417058D01*
X0518676Y0417130D01*
X0518818Y0417200D01*
X0518962Y0417265D01*
X0519108Y0417327D01*
X0519255Y0417385D01*
X0519404Y0417440D01*
X0519554Y0417491D01*
X0519705Y0417538D01*
X0519857Y0417581D01*
X0520010Y0417620D01*
X0520165Y0417656D01*
X0520320Y0417687D01*
X0520476Y0417715D01*
X0520632Y0417739D01*
X0520789Y0417759D01*
X0520947Y0417775D01*
X0521104Y0417787D01*
X0521263Y0417795D01*
X0521421Y0417799D01*
X0521579Y0417799D01*
X0521737Y0417795D01*
X0521896Y0417787D01*
X0522053Y0417775D01*
X0522211Y0417759D01*
X0522368Y0417739D01*
X0522524Y0417715D01*
X0522680Y0417687D01*
X0522835Y0417656D01*
X0522990Y0417620D01*
X0523143Y0417581D01*
X0523295Y0417538D01*
X0523446Y0417491D01*
X0523596Y0417440D01*
X0523745Y0417385D01*
X0523892Y0417327D01*
X0524038Y0417265D01*
X0524182Y0417200D01*
X0524324Y0417130D01*
X0524465Y0417058D01*
X0524604Y0416981D01*
X0524740Y0416902D01*
X0524875Y0416818D01*
X0525008Y0416732D01*
X0525138Y0416642D01*
X0525266Y0416549D01*
X0525392Y0416453D01*
X0525515Y0416353D01*
X0525636Y0416251D01*
X0525754Y0416146D01*
X0525869Y0416037D01*
X0525982Y0415926D01*
X0526092Y0415812D01*
X0526199Y0415695D01*
X0526303Y0415576D01*
X0526404Y0415454D01*
X0526501Y0415329D01*
X0526596Y0415202D01*
X0526687Y0415073D01*
X0526776Y0414942D01*
X0526860Y0414808D01*
X0526942Y0414672D01*
X0527020Y0414535D01*
X0527094Y0414395D01*
X0527165Y0414253D01*
X0527233Y0414110D01*
X0527297Y0413965D01*
X0527357Y0413819D01*
X0527413Y0413671D01*
X0527466Y0413522D01*
X0527515Y0413371D01*
X0527560Y0413219D01*
X0527601Y0413066D01*
X0527639Y0412913D01*
X0527672Y0412758D01*
X0527702Y0412602D01*
X0527728Y0412446D01*
X0527749Y0412289D01*
X0527767Y0412132D01*
X0527781Y0411974D01*
X0527791Y0411816D01*
X0527797Y0411658D01*
X0527799Y0411500D01*
X0527797Y0411342D01*
X0527791Y0411184D01*
X0527781Y0411026D01*
X0527767Y0410868D01*
X0527749Y0410711D01*
X0527728Y0410554D01*
X0527702Y0410398D01*
X0527672Y0410242D01*
X0527639Y0410087D01*
X0527601Y0409934D01*
X0527560Y0409781D01*
X0527515Y0409629D01*
X0527466Y0409478D01*
X0527413Y0409329D01*
X0527357Y0409181D01*
X0527297Y0409035D01*
X0527233Y0408890D01*
X0527165Y0408747D01*
X0527094Y0408605D01*
X0527020Y0408465D01*
X0526942Y0408328D01*
X0526860Y0408192D01*
X0526776Y0408058D01*
X0526687Y0407927D01*
X0526596Y0407798D01*
X0526501Y0407671D01*
X0526404Y0407546D01*
X0526303Y0407424D01*
X0526199Y0407305D01*
X0526092Y0407188D01*
X0525982Y0407074D01*
X0525869Y0406963D01*
X0525754Y0406854D01*
X0525636Y0406749D01*
X0525515Y0406647D01*
X0525392Y0406547D01*
X0525266Y0406451D01*
X0525138Y0406358D01*
X0525008Y0406268D01*
X0524875Y0406182D01*
X0524740Y0406098D01*
X0524604Y0406019D01*
X0524465Y0405942D01*
X0524324Y0405870D01*
X0524182Y0405800D01*
X0524038Y0405735D01*
X0523892Y0405673D01*
X0523745Y0405615D01*
X0523596Y0405560D01*
X0523446Y0405509D01*
X0523295Y0405462D01*
X0523143Y0405419D01*
X0522990Y0405380D01*
X0522835Y0405344D01*
X0522680Y0405313D01*
X0522524Y0405285D01*
X0522368Y0405261D01*
X0522211Y0405241D01*
X0522053Y0405225D01*
X0521896Y0405213D01*
X0521737Y0405205D01*
X0521579Y0405201D01*
X0521421Y0405201D01*
X0521263Y0405205D01*
X0521104Y0405213D01*
X0520947Y0405225D01*
X0520789Y0405241D01*
X0520632Y0405261D01*
X0520476Y0405285D01*
X0520320Y0405313D01*
X0520165Y0405344D01*
X0520010Y0405380D01*
X0519857Y0405419D01*
X0519705Y0405462D01*
X0519554Y0405509D01*
X0519404Y0405560D01*
X0519255Y0405615D01*
X0519108Y0405673D01*
X0518962Y0405735D01*
X0518818Y0405800D01*
X0518676Y0405870D01*
X0518535Y0405942D01*
X0518396Y0406019D01*
X0518260Y0406098D01*
X0518125Y0406182D01*
X0517992Y0406268D01*
X0517862Y0406358D01*
X0517734Y0406451D01*
X0517608Y0406547D01*
X0517485Y0406647D01*
X0517364Y0406749D01*
X0517246Y0406854D01*
X0517131Y0406963D01*
X0517018Y0407074D01*
X0516908Y0407188D01*
X0516801Y0407305D01*
X0516697Y0407424D01*
X0516596Y0407546D01*
X0516499Y0407671D01*
X0516404Y0407798D01*
X0516313Y0407927D01*
X0516224Y0408058D01*
X0516140Y0408192D01*
X0516058Y0408328D01*
X0515980Y0408465D01*
X0515906Y0408605D01*
X0515835Y0408747D01*
X0515767Y0408890D01*
X0515703Y0409035D01*
X0515643Y0409181D01*
X0515587Y0409329D01*
X0515534Y0409478D01*
X0515485Y0409629D01*
X0515440Y0409781D01*
X0515399Y0409934D01*
X0515361Y0410087D01*
X0515328Y0410242D01*
X0515298Y0410398D01*
X0515272Y0410554D01*
X0515251Y0410711D01*
X0515233Y0410868D01*
X0515219Y0411026D01*
X0515209Y0411184D01*
X0515203Y0411342D01*
X0515201Y0411500D01*
X0427563Y0179500D02*
X0427565Y0179625D01*
X0427571Y0179750D01*
X0427581Y0179874D01*
X0427595Y0179998D01*
X0427612Y0180122D01*
X0427634Y0180245D01*
X0427660Y0180367D01*
X0427689Y0180489D01*
X0427722Y0180609D01*
X0427760Y0180728D01*
X0427800Y0180847D01*
X0427845Y0180963D01*
X0427893Y0181078D01*
X0427945Y0181192D01*
X0428001Y0181304D01*
X0428060Y0181414D01*
X0428122Y0181522D01*
X0428188Y0181629D01*
X0428257Y0181733D01*
X0428330Y0181834D01*
X0428405Y0181934D01*
X0428484Y0182031D01*
X0428566Y0182125D01*
X0428651Y0182217D01*
X0428738Y0182306D01*
X0428829Y0182392D01*
X0428922Y0182475D01*
X0429018Y0182556D01*
X0429116Y0182633D01*
X0429216Y0182707D01*
X0429319Y0182778D01*
X0429424Y0182845D01*
X0429532Y0182910D01*
X0429641Y0182970D01*
X0429752Y0183028D01*
X0429865Y0183081D01*
X0429979Y0183131D01*
X0430095Y0183178D01*
X0430212Y0183220D01*
X0430331Y0183259D01*
X0430451Y0183295D01*
X0430572Y0183326D01*
X0430694Y0183354D01*
X0430816Y0183377D01*
X0430940Y0183397D01*
X0431064Y0183413D01*
X0431188Y0183425D01*
X0431313Y0183433D01*
X0431438Y0183437D01*
X0431562Y0183437D01*
X0431687Y0183433D01*
X0431812Y0183425D01*
X0431936Y0183413D01*
X0432060Y0183397D01*
X0432184Y0183377D01*
X0432306Y0183354D01*
X0432428Y0183326D01*
X0432549Y0183295D01*
X0432669Y0183259D01*
X0432788Y0183220D01*
X0432905Y0183178D01*
X0433021Y0183131D01*
X0433135Y0183081D01*
X0433248Y0183028D01*
X0433359Y0182970D01*
X0433469Y0182910D01*
X0433576Y0182845D01*
X0433681Y0182778D01*
X0433784Y0182707D01*
X0433884Y0182633D01*
X0433982Y0182556D01*
X0434078Y0182475D01*
X0434171Y0182392D01*
X0434262Y0182306D01*
X0434349Y0182217D01*
X0434434Y0182125D01*
X0434516Y0182031D01*
X0434595Y0181934D01*
X0434670Y0181834D01*
X0434743Y0181733D01*
X0434812Y0181629D01*
X0434878Y0181522D01*
X0434940Y0181414D01*
X0434999Y0181304D01*
X0435055Y0181192D01*
X0435107Y0181078D01*
X0435155Y0180963D01*
X0435200Y0180847D01*
X0435240Y0180728D01*
X0435278Y0180609D01*
X0435311Y0180489D01*
X0435340Y0180367D01*
X0435366Y0180245D01*
X0435388Y0180122D01*
X0435405Y0179998D01*
X0435419Y0179874D01*
X0435429Y0179750D01*
X0435435Y0179625D01*
X0435437Y0179500D01*
X0435435Y0179375D01*
X0435429Y0179250D01*
X0435419Y0179126D01*
X0435405Y0179002D01*
X0435388Y0178878D01*
X0435366Y0178755D01*
X0435340Y0178633D01*
X0435311Y0178511D01*
X0435278Y0178391D01*
X0435240Y0178272D01*
X0435200Y0178153D01*
X0435155Y0178037D01*
X0435107Y0177922D01*
X0435055Y0177808D01*
X0434999Y0177696D01*
X0434940Y0177586D01*
X0434878Y0177478D01*
X0434812Y0177371D01*
X0434743Y0177267D01*
X0434670Y0177166D01*
X0434595Y0177066D01*
X0434516Y0176969D01*
X0434434Y0176875D01*
X0434349Y0176783D01*
X0434262Y0176694D01*
X0434171Y0176608D01*
X0434078Y0176525D01*
X0433982Y0176444D01*
X0433884Y0176367D01*
X0433784Y0176293D01*
X0433681Y0176222D01*
X0433576Y0176155D01*
X0433468Y0176090D01*
X0433359Y0176030D01*
X0433248Y0175972D01*
X0433135Y0175919D01*
X0433021Y0175869D01*
X0432905Y0175822D01*
X0432788Y0175780D01*
X0432669Y0175741D01*
X0432549Y0175705D01*
X0432428Y0175674D01*
X0432306Y0175646D01*
X0432184Y0175623D01*
X0432060Y0175603D01*
X0431936Y0175587D01*
X0431812Y0175575D01*
X0431687Y0175567D01*
X0431562Y0175563D01*
X0431438Y0175563D01*
X0431313Y0175567D01*
X0431188Y0175575D01*
X0431064Y0175587D01*
X0430940Y0175603D01*
X0430816Y0175623D01*
X0430694Y0175646D01*
X0430572Y0175674D01*
X0430451Y0175705D01*
X0430331Y0175741D01*
X0430212Y0175780D01*
X0430095Y0175822D01*
X0429979Y0175869D01*
X0429865Y0175919D01*
X0429752Y0175972D01*
X0429641Y0176030D01*
X0429531Y0176090D01*
X0429424Y0176155D01*
X0429319Y0176222D01*
X0429216Y0176293D01*
X0429116Y0176367D01*
X0429018Y0176444D01*
X0428922Y0176525D01*
X0428829Y0176608D01*
X0428738Y0176694D01*
X0428651Y0176783D01*
X0428566Y0176875D01*
X0428484Y0176969D01*
X0428405Y0177066D01*
X0428330Y0177166D01*
X0428257Y0177267D01*
X0428188Y0177371D01*
X0428122Y0177478D01*
X0428060Y0177586D01*
X0428001Y0177696D01*
X0427945Y0177808D01*
X0427893Y0177922D01*
X0427845Y0178037D01*
X0427800Y0178153D01*
X0427760Y0178272D01*
X0427722Y0178391D01*
X0427689Y0178511D01*
X0427660Y0178633D01*
X0427634Y0178755D01*
X0427612Y0178878D01*
X0427595Y0179002D01*
X0427581Y0179126D01*
X0427571Y0179250D01*
X0427565Y0179375D01*
X0427563Y0179500D01*
X0515201Y0116500D02*
X0515203Y0116658D01*
X0515209Y0116816D01*
X0515219Y0116974D01*
X0515233Y0117132D01*
X0515251Y0117289D01*
X0515272Y0117446D01*
X0515298Y0117602D01*
X0515328Y0117758D01*
X0515361Y0117913D01*
X0515399Y0118066D01*
X0515440Y0118219D01*
X0515485Y0118371D01*
X0515534Y0118522D01*
X0515587Y0118671D01*
X0515643Y0118819D01*
X0515703Y0118965D01*
X0515767Y0119110D01*
X0515835Y0119253D01*
X0515906Y0119395D01*
X0515980Y0119535D01*
X0516058Y0119672D01*
X0516140Y0119808D01*
X0516224Y0119942D01*
X0516313Y0120073D01*
X0516404Y0120202D01*
X0516499Y0120329D01*
X0516596Y0120454D01*
X0516697Y0120576D01*
X0516801Y0120695D01*
X0516908Y0120812D01*
X0517018Y0120926D01*
X0517131Y0121037D01*
X0517246Y0121146D01*
X0517364Y0121251D01*
X0517485Y0121353D01*
X0517608Y0121453D01*
X0517734Y0121549D01*
X0517862Y0121642D01*
X0517992Y0121732D01*
X0518125Y0121818D01*
X0518260Y0121902D01*
X0518396Y0121981D01*
X0518535Y0122058D01*
X0518676Y0122130D01*
X0518818Y0122200D01*
X0518962Y0122265D01*
X0519108Y0122327D01*
X0519255Y0122385D01*
X0519404Y0122440D01*
X0519554Y0122491D01*
X0519705Y0122538D01*
X0519857Y0122581D01*
X0520010Y0122620D01*
X0520165Y0122656D01*
X0520320Y0122687D01*
X0520476Y0122715D01*
X0520632Y0122739D01*
X0520789Y0122759D01*
X0520947Y0122775D01*
X0521104Y0122787D01*
X0521263Y0122795D01*
X0521421Y0122799D01*
X0521579Y0122799D01*
X0521737Y0122795D01*
X0521896Y0122787D01*
X0522053Y0122775D01*
X0522211Y0122759D01*
X0522368Y0122739D01*
X0522524Y0122715D01*
X0522680Y0122687D01*
X0522835Y0122656D01*
X0522990Y0122620D01*
X0523143Y0122581D01*
X0523295Y0122538D01*
X0523446Y0122491D01*
X0523596Y0122440D01*
X0523745Y0122385D01*
X0523892Y0122327D01*
X0524038Y0122265D01*
X0524182Y0122200D01*
X0524324Y0122130D01*
X0524465Y0122058D01*
X0524604Y0121981D01*
X0524740Y0121902D01*
X0524875Y0121818D01*
X0525008Y0121732D01*
X0525138Y0121642D01*
X0525266Y0121549D01*
X0525392Y0121453D01*
X0525515Y0121353D01*
X0525636Y0121251D01*
X0525754Y0121146D01*
X0525869Y0121037D01*
X0525982Y0120926D01*
X0526092Y0120812D01*
X0526199Y0120695D01*
X0526303Y0120576D01*
X0526404Y0120454D01*
X0526501Y0120329D01*
X0526596Y0120202D01*
X0526687Y0120073D01*
X0526776Y0119942D01*
X0526860Y0119808D01*
X0526942Y0119672D01*
X0527020Y0119535D01*
X0527094Y0119395D01*
X0527165Y0119253D01*
X0527233Y0119110D01*
X0527297Y0118965D01*
X0527357Y0118819D01*
X0527413Y0118671D01*
X0527466Y0118522D01*
X0527515Y0118371D01*
X0527560Y0118219D01*
X0527601Y0118066D01*
X0527639Y0117913D01*
X0527672Y0117758D01*
X0527702Y0117602D01*
X0527728Y0117446D01*
X0527749Y0117289D01*
X0527767Y0117132D01*
X0527781Y0116974D01*
X0527791Y0116816D01*
X0527797Y0116658D01*
X0527799Y0116500D01*
X0527797Y0116342D01*
X0527791Y0116184D01*
X0527781Y0116026D01*
X0527767Y0115868D01*
X0527749Y0115711D01*
X0527728Y0115554D01*
X0527702Y0115398D01*
X0527672Y0115242D01*
X0527639Y0115087D01*
X0527601Y0114934D01*
X0527560Y0114781D01*
X0527515Y0114629D01*
X0527466Y0114478D01*
X0527413Y0114329D01*
X0527357Y0114181D01*
X0527297Y0114035D01*
X0527233Y0113890D01*
X0527165Y0113747D01*
X0527094Y0113605D01*
X0527020Y0113465D01*
X0526942Y0113328D01*
X0526860Y0113192D01*
X0526776Y0113058D01*
X0526687Y0112927D01*
X0526596Y0112798D01*
X0526501Y0112671D01*
X0526404Y0112546D01*
X0526303Y0112424D01*
X0526199Y0112305D01*
X0526092Y0112188D01*
X0525982Y0112074D01*
X0525869Y0111963D01*
X0525754Y0111854D01*
X0525636Y0111749D01*
X0525515Y0111647D01*
X0525392Y0111547D01*
X0525266Y0111451D01*
X0525138Y0111358D01*
X0525008Y0111268D01*
X0524875Y0111182D01*
X0524740Y0111098D01*
X0524604Y0111019D01*
X0524465Y0110942D01*
X0524324Y0110870D01*
X0524182Y0110800D01*
X0524038Y0110735D01*
X0523892Y0110673D01*
X0523745Y0110615D01*
X0523596Y0110560D01*
X0523446Y0110509D01*
X0523295Y0110462D01*
X0523143Y0110419D01*
X0522990Y0110380D01*
X0522835Y0110344D01*
X0522680Y0110313D01*
X0522524Y0110285D01*
X0522368Y0110261D01*
X0522211Y0110241D01*
X0522053Y0110225D01*
X0521896Y0110213D01*
X0521737Y0110205D01*
X0521579Y0110201D01*
X0521421Y0110201D01*
X0521263Y0110205D01*
X0521104Y0110213D01*
X0520947Y0110225D01*
X0520789Y0110241D01*
X0520632Y0110261D01*
X0520476Y0110285D01*
X0520320Y0110313D01*
X0520165Y0110344D01*
X0520010Y0110380D01*
X0519857Y0110419D01*
X0519705Y0110462D01*
X0519554Y0110509D01*
X0519404Y0110560D01*
X0519255Y0110615D01*
X0519108Y0110673D01*
X0518962Y0110735D01*
X0518818Y0110800D01*
X0518676Y0110870D01*
X0518535Y0110942D01*
X0518396Y0111019D01*
X0518260Y0111098D01*
X0518125Y0111182D01*
X0517992Y0111268D01*
X0517862Y0111358D01*
X0517734Y0111451D01*
X0517608Y0111547D01*
X0517485Y0111647D01*
X0517364Y0111749D01*
X0517246Y0111854D01*
X0517131Y0111963D01*
X0517018Y0112074D01*
X0516908Y0112188D01*
X0516801Y0112305D01*
X0516697Y0112424D01*
X0516596Y0112546D01*
X0516499Y0112671D01*
X0516404Y0112798D01*
X0516313Y0112927D01*
X0516224Y0113058D01*
X0516140Y0113192D01*
X0516058Y0113328D01*
X0515980Y0113465D01*
X0515906Y0113605D01*
X0515835Y0113747D01*
X0515767Y0113890D01*
X0515703Y0114035D01*
X0515643Y0114181D01*
X0515587Y0114329D01*
X0515534Y0114478D01*
X0515485Y0114629D01*
X0515440Y0114781D01*
X0515399Y0114934D01*
X0515361Y0115087D01*
X0515328Y0115242D01*
X0515298Y0115398D01*
X0515272Y0115554D01*
X0515251Y0115711D01*
X0515233Y0115868D01*
X0515219Y0116026D01*
X0515209Y0116184D01*
X0515203Y0116342D01*
X0515201Y0116500D01*
X0016500Y0401500D02*
X0016502Y0401641D01*
X0016508Y0401782D01*
X0016518Y0401922D01*
X0016532Y0402062D01*
X0016550Y0402202D01*
X0016571Y0402341D01*
X0016597Y0402480D01*
X0016626Y0402618D01*
X0016660Y0402754D01*
X0016697Y0402890D01*
X0016738Y0403025D01*
X0016783Y0403159D01*
X0016832Y0403291D01*
X0016884Y0403422D01*
X0016940Y0403551D01*
X0017000Y0403678D01*
X0017063Y0403804D01*
X0017129Y0403928D01*
X0017200Y0404051D01*
X0017273Y0404171D01*
X0017350Y0404289D01*
X0017430Y0404405D01*
X0017514Y0404518D01*
X0017600Y0404629D01*
X0017690Y0404738D01*
X0017783Y0404844D01*
X0017878Y0404947D01*
X0017977Y0405048D01*
X0018078Y0405146D01*
X0018182Y0405241D01*
X0018289Y0405333D01*
X0018398Y0405422D01*
X0018510Y0405507D01*
X0018624Y0405590D01*
X0018740Y0405670D01*
X0018859Y0405746D01*
X0018980Y0405818D01*
X0019102Y0405888D01*
X0019227Y0405953D01*
X0019353Y0406016D01*
X0019481Y0406074D01*
X0019611Y0406129D01*
X0019742Y0406181D01*
X0019875Y0406228D01*
X0020009Y0406272D01*
X0020144Y0406313D01*
X0020280Y0406349D01*
X0020417Y0406381D01*
X0020555Y0406410D01*
X0020693Y0406435D01*
X0020833Y0406455D01*
X0020973Y0406472D01*
X0021113Y0406485D01*
X0021254Y0406494D01*
X0021394Y0406499D01*
X0021535Y0406500D01*
X0021676Y0406497D01*
X0021817Y0406490D01*
X0021957Y0406479D01*
X0022097Y0406464D01*
X0022237Y0406445D01*
X0022376Y0406423D01*
X0022514Y0406396D01*
X0022652Y0406366D01*
X0022788Y0406331D01*
X0022924Y0406293D01*
X0023058Y0406251D01*
X0023192Y0406205D01*
X0023324Y0406156D01*
X0023454Y0406102D01*
X0023583Y0406045D01*
X0023710Y0405985D01*
X0023836Y0405921D01*
X0023959Y0405853D01*
X0024081Y0405782D01*
X0024201Y0405708D01*
X0024318Y0405630D01*
X0024433Y0405549D01*
X0024546Y0405465D01*
X0024657Y0405378D01*
X0024765Y0405287D01*
X0024870Y0405194D01*
X0024973Y0405097D01*
X0025073Y0404998D01*
X0025170Y0404896D01*
X0025264Y0404791D01*
X0025355Y0404684D01*
X0025443Y0404574D01*
X0025528Y0404462D01*
X0025610Y0404347D01*
X0025689Y0404230D01*
X0025764Y0404111D01*
X0025836Y0403990D01*
X0025904Y0403867D01*
X0025969Y0403742D01*
X0026031Y0403615D01*
X0026088Y0403486D01*
X0026143Y0403356D01*
X0026193Y0403225D01*
X0026240Y0403092D01*
X0026283Y0402958D01*
X0026322Y0402822D01*
X0026357Y0402686D01*
X0026389Y0402549D01*
X0026416Y0402411D01*
X0026440Y0402272D01*
X0026460Y0402132D01*
X0026476Y0401992D01*
X0026488Y0401852D01*
X0026496Y0401711D01*
X0026500Y0401570D01*
X0026500Y0401430D01*
X0026496Y0401289D01*
X0026488Y0401148D01*
X0026476Y0401008D01*
X0026460Y0400868D01*
X0026440Y0400728D01*
X0026416Y0400589D01*
X0026389Y0400451D01*
X0026357Y0400314D01*
X0026322Y0400178D01*
X0026283Y0400042D01*
X0026240Y0399908D01*
X0026193Y0399775D01*
X0026143Y0399644D01*
X0026088Y0399514D01*
X0026031Y0399385D01*
X0025969Y0399258D01*
X0025904Y0399133D01*
X0025836Y0399010D01*
X0025764Y0398889D01*
X0025689Y0398770D01*
X0025610Y0398653D01*
X0025528Y0398538D01*
X0025443Y0398426D01*
X0025355Y0398316D01*
X0025264Y0398209D01*
X0025170Y0398104D01*
X0025073Y0398002D01*
X0024973Y0397903D01*
X0024870Y0397806D01*
X0024765Y0397713D01*
X0024657Y0397622D01*
X0024546Y0397535D01*
X0024433Y0397451D01*
X0024318Y0397370D01*
X0024201Y0397292D01*
X0024081Y0397218D01*
X0023959Y0397147D01*
X0023836Y0397079D01*
X0023710Y0397015D01*
X0023583Y0396955D01*
X0023454Y0396898D01*
X0023324Y0396844D01*
X0023192Y0396795D01*
X0023058Y0396749D01*
X0022924Y0396707D01*
X0022788Y0396669D01*
X0022652Y0396634D01*
X0022514Y0396604D01*
X0022376Y0396577D01*
X0022237Y0396555D01*
X0022097Y0396536D01*
X0021957Y0396521D01*
X0021817Y0396510D01*
X0021676Y0396503D01*
X0021535Y0396500D01*
X0021394Y0396501D01*
X0021254Y0396506D01*
X0021113Y0396515D01*
X0020973Y0396528D01*
X0020833Y0396545D01*
X0020693Y0396565D01*
X0020555Y0396590D01*
X0020417Y0396619D01*
X0020280Y0396651D01*
X0020144Y0396687D01*
X0020009Y0396728D01*
X0019875Y0396772D01*
X0019742Y0396819D01*
X0019611Y0396871D01*
X0019481Y0396926D01*
X0019353Y0396984D01*
X0019227Y0397047D01*
X0019102Y0397112D01*
X0018980Y0397182D01*
X0018859Y0397254D01*
X0018740Y0397330D01*
X0018624Y0397410D01*
X0018510Y0397493D01*
X0018398Y0397578D01*
X0018289Y0397667D01*
X0018182Y0397759D01*
X0018078Y0397854D01*
X0017977Y0397952D01*
X0017878Y0398053D01*
X0017783Y0398156D01*
X0017690Y0398262D01*
X0017600Y0398371D01*
X0017514Y0398482D01*
X0017430Y0398595D01*
X0017350Y0398711D01*
X0017273Y0398829D01*
X0017200Y0398949D01*
X0017129Y0399072D01*
X0017063Y0399196D01*
X0017000Y0399322D01*
X0016940Y0399449D01*
X0016884Y0399578D01*
X0016832Y0399709D01*
X0016783Y0399841D01*
X0016738Y0399975D01*
X0016697Y0400110D01*
X0016660Y0400246D01*
X0016626Y0400382D01*
X0016597Y0400520D01*
X0016571Y0400659D01*
X0016550Y0400798D01*
X0016532Y0400938D01*
X0016518Y0401078D01*
X0016508Y0401218D01*
X0016502Y0401359D01*
X0016500Y0401500D01*
D11*
X0246500Y0418500D02*
X0246500Y0424500D01*
X0256500Y0424500D02*
X0256500Y0418500D01*
X0256500Y0448500D02*
X0256500Y0454500D01*
X0246500Y0454500D02*
X0246500Y0448500D01*
X0303500Y0361500D02*
X0309500Y0361500D01*
X0309500Y0351500D02*
X0303500Y0351500D01*
X0303500Y0341500D02*
X0309500Y0341500D01*
X0309500Y0331500D02*
X0303500Y0331500D01*
X0303500Y0321500D02*
X0309500Y0321500D01*
X0309500Y0311500D02*
X0303500Y0311500D01*
X0303500Y0301500D02*
X0309500Y0301500D01*
X0309500Y0291500D02*
X0303500Y0291500D01*
X0303500Y0271500D02*
X0309500Y0271500D01*
X0309500Y0261500D02*
X0303500Y0261500D01*
X0303500Y0251500D02*
X0309500Y0251500D01*
X0309500Y0241500D02*
X0303500Y0241500D01*
X0303500Y0231500D02*
X0309500Y0231500D01*
X0309500Y0221500D02*
X0303500Y0221500D01*
X0303500Y0211500D02*
X0309500Y0211500D01*
X0309500Y0201500D02*
X0303500Y0201500D01*
X0303500Y0181500D02*
X0309500Y0181500D01*
X0309500Y0171500D02*
X0303500Y0171500D01*
X0303500Y0161500D02*
X0309500Y0161500D01*
X0309500Y0151500D02*
X0303500Y0151500D01*
X0303500Y0141500D02*
X0309500Y0141500D01*
X0309500Y0131500D02*
X0303500Y0131500D01*
X0303500Y0121500D02*
X0309500Y0121500D01*
X0309500Y0111500D02*
X0303500Y0111500D01*
X0328500Y0111500D02*
X0334500Y0111500D01*
X0334500Y0121500D02*
X0328500Y0121500D01*
X0328500Y0131500D02*
X0334500Y0131500D01*
X0334500Y0141500D02*
X0328500Y0141500D01*
X0328500Y0151500D02*
X0334500Y0151500D01*
X0334500Y0161500D02*
X0328500Y0161500D01*
X0328500Y0171500D02*
X0334500Y0171500D01*
X0334500Y0181500D02*
X0328500Y0181500D01*
X0328500Y0201500D02*
X0334500Y0201500D01*
X0334500Y0211500D02*
X0328500Y0211500D01*
X0328500Y0221500D02*
X0334500Y0221500D01*
X0334500Y0231500D02*
X0328500Y0231500D01*
X0328500Y0241500D02*
X0334500Y0241500D01*
X0334500Y0251500D02*
X0328500Y0251500D01*
X0328500Y0261500D02*
X0334500Y0261500D01*
X0334500Y0271500D02*
X0328500Y0271500D01*
X0328500Y0291500D02*
X0334500Y0291500D01*
X0334500Y0301500D02*
X0328500Y0301500D01*
X0328500Y0311500D02*
X0334500Y0311500D01*
X0334500Y0321500D02*
X0328500Y0321500D01*
X0328500Y0331500D02*
X0334500Y0331500D01*
X0334500Y0341500D02*
X0328500Y0341500D01*
X0256500Y0338500D02*
X0256500Y0344500D01*
X0246500Y0344500D02*
X0246500Y0338500D01*
X0246500Y0314500D02*
X0246500Y0308500D01*
X0256500Y0308500D02*
X0256500Y0314500D01*
X0256500Y0234500D02*
X0256500Y0228500D01*
X0246500Y0228500D02*
X0246500Y0234500D01*
X0246500Y0204500D02*
X0246500Y0198500D01*
X0256500Y0198500D02*
X0256500Y0204500D01*
X0251500Y0129500D02*
X0251500Y0123500D01*
X0261500Y0123500D02*
X0261500Y0129500D01*
X0261500Y0099500D02*
X0261500Y0093500D01*
X0251500Y0093500D02*
X0251500Y0099500D01*
X0316500Y0019500D02*
X0316500Y0013500D01*
X0326500Y0013500D02*
X0326500Y0019500D01*
X0356500Y0019500D02*
X0356500Y0013500D01*
X0366500Y0013500D02*
X0366500Y0019500D01*
X0376500Y0019500D02*
X0376500Y0013500D01*
X0406500Y0013500D02*
X0406500Y0019500D01*
X0416500Y0019500D02*
X0416500Y0013500D01*
X0426500Y0013500D02*
X0426500Y0019500D01*
X0456500Y0019500D02*
X0456500Y0013500D01*
X0466500Y0013500D02*
X0466500Y0019500D01*
X0476500Y0019500D02*
X0476500Y0013500D01*
X0506500Y0013500D02*
X0506500Y0019500D01*
X0516500Y0019500D02*
X0516500Y0013500D01*
X0526500Y0013500D02*
X0526500Y0019500D01*
X0524500Y0131500D02*
X0518500Y0131500D01*
X0518500Y0141500D02*
X0524500Y0141500D01*
X0524500Y0151500D02*
X0518500Y0151500D01*
X0518500Y0161500D02*
X0524500Y0161500D01*
X0524500Y0171500D02*
X0518500Y0171500D01*
X0518500Y0181500D02*
X0524500Y0181500D01*
X0524500Y0191500D02*
X0518500Y0191500D01*
X0518500Y0201500D02*
X0524500Y0201500D01*
X0543500Y0201500D02*
X0549500Y0201500D01*
X0549500Y0191500D02*
X0543500Y0191500D01*
X0543500Y0181500D02*
X0549500Y0181500D01*
X0549500Y0171500D02*
X0543500Y0171500D01*
X0543500Y0161500D02*
X0549500Y0161500D01*
X0549500Y0151500D02*
X0543500Y0151500D01*
X0543500Y0141500D02*
X0549500Y0141500D01*
X0549500Y0131500D02*
X0543500Y0131500D01*
X0481500Y0138500D02*
X0481500Y0144500D01*
X0471500Y0144500D02*
X0471500Y0138500D01*
X0461500Y0138500D02*
X0461500Y0144500D01*
X0461500Y0168500D02*
X0461500Y0174500D01*
X0471500Y0174500D02*
X0471500Y0168500D01*
X0481500Y0168500D02*
X0481500Y0174500D01*
X0481500Y0198500D02*
X0481500Y0204500D01*
X0471500Y0204500D02*
X0471500Y0198500D01*
X0461500Y0198500D02*
X0461500Y0204500D01*
X0461500Y0223500D02*
X0461500Y0229500D01*
X0471500Y0229500D02*
X0471500Y0223500D01*
X0471500Y0248500D02*
X0471500Y0254500D01*
X0461500Y0254500D02*
X0461500Y0248500D01*
X0456500Y0278500D02*
X0456500Y0284500D01*
X0466500Y0284500D02*
X0466500Y0278500D01*
X0476500Y0278500D02*
X0476500Y0284500D01*
X0476500Y0308500D02*
X0476500Y0314500D01*
X0466500Y0314500D02*
X0466500Y0308500D01*
X0456500Y0308500D02*
X0456500Y0314500D01*
X0456500Y0343500D02*
X0456500Y0349500D01*
X0466500Y0349500D02*
X0466500Y0343500D01*
X0476500Y0343500D02*
X0476500Y0349500D01*
X0476500Y0373500D02*
X0476500Y0379500D01*
X0466500Y0379500D02*
X0466500Y0373500D01*
X0456500Y0373500D02*
X0456500Y0379500D01*
X0518500Y0376500D02*
X0524500Y0376500D01*
X0524500Y0366500D02*
X0518500Y0366500D01*
X0518500Y0356500D02*
X0524500Y0356500D01*
X0524500Y0346500D02*
X0518500Y0346500D01*
X0518500Y0336500D02*
X0524500Y0336500D01*
X0524500Y0326500D02*
X0518500Y0326500D01*
X0518500Y0316500D02*
X0524500Y0316500D01*
X0524500Y0306500D02*
X0518500Y0306500D01*
X0518500Y0291500D02*
X0524500Y0291500D01*
X0524500Y0281500D02*
X0518500Y0281500D01*
X0518500Y0271500D02*
X0524500Y0271500D01*
X0524500Y0261500D02*
X0518500Y0261500D01*
X0518500Y0251500D02*
X0524500Y0251500D01*
X0524500Y0241500D02*
X0518500Y0241500D01*
X0518500Y0231500D02*
X0524500Y0231500D01*
X0524500Y0221500D02*
X0518500Y0221500D01*
X0543500Y0221500D02*
X0549500Y0221500D01*
X0549500Y0231500D02*
X0543500Y0231500D01*
X0543500Y0241500D02*
X0549500Y0241500D01*
X0549500Y0251500D02*
X0543500Y0251500D01*
X0543500Y0261500D02*
X0549500Y0261500D01*
X0549500Y0271500D02*
X0543500Y0271500D01*
X0543500Y0281500D02*
X0549500Y0281500D01*
X0549500Y0291500D02*
X0543500Y0291500D01*
X0543500Y0306500D02*
X0549500Y0306500D01*
X0549500Y0316500D02*
X0543500Y0316500D01*
X0543500Y0326500D02*
X0549500Y0326500D01*
X0549500Y0336500D02*
X0543500Y0336500D01*
X0543500Y0346500D02*
X0549500Y0346500D01*
X0549500Y0356500D02*
X0543500Y0356500D01*
X0543500Y0366500D02*
X0549500Y0366500D01*
X0549500Y0376500D02*
X0543500Y0376500D01*
X0406500Y0149500D02*
X0406500Y0143500D01*
X0396500Y0143500D02*
X0396500Y0149500D01*
X0386500Y0149500D02*
X0386500Y0143500D01*
X0376500Y0143500D02*
X0376500Y0149500D01*
D12*
X0211500Y0156500D03*
X0191500Y0156500D03*
X0181500Y0156500D03*
X0181500Y0176500D03*
X0191500Y0176500D03*
X0211500Y0176500D03*
X0161500Y0176500D03*
X0146500Y0176500D03*
X0146500Y0156500D03*
X0161500Y0156500D03*
X0126500Y0156500D03*
X0111500Y0156500D03*
X0091500Y0156500D03*
X0091500Y0176500D03*
X0111500Y0176500D03*
X0126500Y0176500D03*
X0101500Y0211500D03*
X0081500Y0211500D03*
X0081500Y0236500D03*
X0101500Y0236500D03*
X0091500Y0261500D03*
X0111500Y0261500D03*
X0126500Y0261500D03*
X0126500Y0281500D03*
X0111500Y0281500D03*
X0091500Y0281500D03*
X0096500Y0321500D03*
X0076500Y0321500D03*
X0076500Y0346500D03*
X0096500Y0346500D03*
X0091500Y0371500D03*
X0111500Y0371500D03*
X0126500Y0371500D03*
X0126500Y0391500D03*
X0111500Y0391500D03*
X0091500Y0391500D03*
X0096500Y0426500D03*
X0076500Y0426500D03*
X0076500Y0451500D03*
X0096500Y0451500D03*
X0146500Y0391500D03*
X0156500Y0391500D03*
X0156500Y0371500D03*
X0146500Y0371500D03*
X0176500Y0371500D03*
X0186500Y0371500D03*
X0206500Y0371500D03*
X0206500Y0391500D03*
X0186500Y0391500D03*
X0176500Y0391500D03*
X0176500Y0281500D03*
X0186500Y0281500D03*
X0206500Y0281500D03*
X0206500Y0261500D03*
X0186500Y0261500D03*
X0176500Y0261500D03*
X0156500Y0261500D03*
X0146500Y0261500D03*
X0146500Y0281500D03*
X0156500Y0281500D03*
X0101500Y0126500D03*
X0101500Y0106500D03*
X0081500Y0106500D03*
X0081500Y0126500D03*
X0091500Y0061500D03*
X0111500Y0061500D03*
X0126500Y0061500D03*
X0126500Y0041500D03*
X0111500Y0041500D03*
X0091500Y0041500D03*
X0146500Y0041500D03*
X0161500Y0041500D03*
X0161500Y0061500D03*
X0146500Y0061500D03*
X0181500Y0061500D03*
X0191500Y0061500D03*
X0211500Y0061500D03*
X0211500Y0041500D03*
X0191500Y0041500D03*
X0181500Y0041500D03*
X0376500Y0341500D03*
X0376500Y0361500D03*
X0406500Y0361500D03*
X0406500Y0341500D03*
D13*
X0406500Y0316500D03*
X0406500Y0306500D03*
X0396500Y0306500D03*
X0396500Y0316500D03*
X0386500Y0316500D03*
X0386500Y0306500D03*
X0376500Y0306500D03*
X0376500Y0316500D03*
X0376500Y0246500D03*
X0376500Y0236500D03*
X0386500Y0236500D03*
X0386500Y0246500D03*
X0396500Y0246500D03*
X0396500Y0236500D03*
X0406500Y0236500D03*
X0406500Y0246500D03*
X0401500Y0101500D03*
X0401500Y0091500D03*
X0391500Y0091500D03*
X0391500Y0101500D03*
X0381500Y0101500D03*
X0381500Y0091500D03*
X0371500Y0091500D03*
X0361500Y0091500D03*
X0361500Y0101500D03*
X0371500Y0101500D03*
X0351500Y0101500D03*
X0351500Y0091500D03*
X0351500Y0061500D03*
X0351500Y0051500D03*
X0361500Y0051500D03*
X0371500Y0051500D03*
X0371500Y0061500D03*
X0361500Y0061500D03*
X0381500Y0061500D03*
X0381500Y0051500D03*
X0391500Y0051500D03*
X0391500Y0061500D03*
X0401500Y0061500D03*
X0401500Y0051500D03*
X0411500Y0051500D03*
X0421500Y0051500D03*
X0421500Y0061500D03*
X0411500Y0061500D03*
X0431500Y0061500D03*
X0431500Y0051500D03*
X0441500Y0051500D03*
X0441500Y0061500D03*
X0451500Y0061500D03*
X0461500Y0061500D03*
X0461500Y0051500D03*
X0451500Y0051500D03*
X0471500Y0051500D03*
X0471500Y0061500D03*
X0481500Y0061500D03*
X0481500Y0051500D03*
X0491500Y0051500D03*
X0491500Y0061500D03*
X0501500Y0061500D03*
X0511500Y0061500D03*
X0511500Y0051500D03*
X0501500Y0051500D03*
X0521500Y0051500D03*
X0521500Y0061500D03*
X0521500Y0091500D03*
X0521500Y0101500D03*
X0511500Y0101500D03*
X0501500Y0101500D03*
X0501500Y0091500D03*
X0511500Y0091500D03*
X0491500Y0091500D03*
X0491500Y0101500D03*
X0481500Y0101500D03*
X0481500Y0091500D03*
X0471500Y0091500D03*
X0471500Y0101500D03*
X0461500Y0101500D03*
X0451500Y0101500D03*
X0451500Y0091500D03*
X0461500Y0091500D03*
X0441500Y0091500D03*
X0441500Y0101500D03*
X0431500Y0101500D03*
X0431500Y0091500D03*
X0421500Y0091500D03*
X0411500Y0091500D03*
X0411500Y0101500D03*
X0421500Y0101500D03*
D14*
X0206500Y0097957D02*
X0206500Y0105043D01*
X0196500Y0105043D02*
X0196500Y0097957D01*
X0186500Y0097957D02*
X0186500Y0105043D01*
X0176500Y0105043D02*
X0176500Y0097957D01*
X0166500Y0097957D02*
X0166500Y0105043D01*
X0156500Y0105043D02*
X0156500Y0097957D01*
X0146500Y0097957D02*
X0146500Y0105043D01*
X0136500Y0105043D02*
X0136500Y0097957D01*
X0141500Y0117957D02*
X0141500Y0125043D01*
X0151500Y0125043D02*
X0151500Y0117957D01*
X0161500Y0117957D02*
X0161500Y0125043D01*
X0171500Y0125043D02*
X0171500Y0117957D01*
X0181500Y0117957D02*
X0181500Y0125043D01*
X0191500Y0125043D02*
X0191500Y0117957D01*
X0201500Y0117957D02*
X0201500Y0125043D01*
X0201500Y0207957D02*
X0201500Y0215043D01*
X0191500Y0215043D02*
X0191500Y0207957D01*
X0181500Y0207957D02*
X0181500Y0215043D01*
X0171500Y0215043D02*
X0171500Y0207957D01*
X0161500Y0207957D02*
X0161500Y0215043D01*
X0151500Y0215043D02*
X0151500Y0207957D01*
X0141500Y0207957D02*
X0141500Y0215043D01*
X0131500Y0215043D02*
X0131500Y0207957D01*
X0136500Y0227957D02*
X0136500Y0235043D01*
X0146500Y0235043D02*
X0146500Y0227957D01*
X0156500Y0227957D02*
X0156500Y0235043D01*
X0166500Y0235043D02*
X0166500Y0227957D01*
X0176500Y0227957D02*
X0176500Y0235043D01*
X0186500Y0235043D02*
X0186500Y0227957D01*
X0196500Y0227957D02*
X0196500Y0235043D01*
X0196500Y0312957D02*
X0196500Y0320043D01*
X0186500Y0320043D02*
X0186500Y0312957D01*
X0176500Y0312957D02*
X0176500Y0320043D01*
X0166500Y0320043D02*
X0166500Y0312957D01*
X0156500Y0312957D02*
X0156500Y0320043D01*
X0146500Y0320043D02*
X0146500Y0312957D01*
X0136500Y0312957D02*
X0136500Y0320043D01*
X0126500Y0320043D02*
X0126500Y0312957D01*
X0131500Y0332957D02*
X0131500Y0340043D01*
X0141500Y0340043D02*
X0141500Y0332957D01*
X0151500Y0332957D02*
X0151500Y0340043D01*
X0161500Y0340043D02*
X0161500Y0332957D01*
X0171500Y0332957D02*
X0171500Y0340043D01*
X0181500Y0340043D02*
X0181500Y0332957D01*
X0191500Y0332957D02*
X0191500Y0340043D01*
X0186500Y0417957D02*
X0186500Y0425043D01*
X0196500Y0425043D02*
X0196500Y0417957D01*
X0176500Y0417957D02*
X0176500Y0425043D01*
X0166500Y0425043D02*
X0166500Y0417957D01*
X0156500Y0417957D02*
X0156500Y0425043D01*
X0146500Y0425043D02*
X0146500Y0417957D01*
X0136500Y0417957D02*
X0136500Y0425043D01*
X0126500Y0425043D02*
X0126500Y0417957D01*
X0131500Y0437957D02*
X0131500Y0445043D01*
X0141500Y0445043D02*
X0141500Y0437957D01*
X0151500Y0437957D02*
X0151500Y0445043D01*
X0161500Y0445043D02*
X0161500Y0437957D01*
X0171500Y0437957D02*
X0171500Y0445043D01*
X0181500Y0445043D02*
X0181500Y0437957D01*
X0191500Y0437957D02*
X0191500Y0445043D01*
D15*
X0041500Y0376500D03*
X0041500Y0291500D03*
X0041500Y0201500D03*
X0041500Y0106500D03*
D16*
X0041500Y0086500D03*
X0041500Y0066500D03*
X0041500Y0161500D03*
X0041500Y0181500D03*
X0041500Y0251500D03*
X0041500Y0271500D03*
X0041500Y0336500D03*
X0041500Y0356500D03*
D17*
X0042200Y0422602D02*
X0050800Y0422602D01*
X0058311Y0437200D02*
X0058311Y0445800D01*
X0034689Y0445800D02*
X0034689Y0437200D01*
D18*
X0058311Y0441500D02*
X0058900Y0441700D01*
X0072700Y0455500D01*
X0097900Y0455500D01*
X0102700Y0450700D01*
X0152500Y0450700D01*
X0156100Y0447100D01*
X0156100Y0435700D01*
X0153700Y0433300D01*
X0149500Y0433300D01*
X0141700Y0441100D01*
X0141500Y0441500D01*
X0131500Y0431500D01*
X0131500Y0416500D01*
X0148900Y0399100D01*
X0122500Y0372700D01*
X0122500Y0370300D01*
X0138700Y0354100D01*
X0134500Y0349900D01*
X0134500Y0346300D01*
X0141100Y0339700D01*
X0141100Y0336700D01*
X0141500Y0336500D01*
X0136900Y0341500D02*
X0136900Y0330700D01*
X0139300Y0328300D01*
X0143500Y0328300D01*
X0148900Y0333700D01*
X0151500Y0336500D01*
X0151300Y0336100D01*
X0148900Y0333700D01*
X0149500Y0333700D01*
X0166300Y0316900D01*
X0166500Y0316500D01*
X0166900Y0316900D01*
X0176500Y0316900D01*
X0176500Y0316500D01*
X0181900Y0322300D02*
X0181900Y0308500D01*
X0144100Y0308500D01*
X0141700Y0310900D01*
X0141700Y0311500D01*
X0136900Y0316300D01*
X0136500Y0316500D01*
X0131500Y0311500D02*
X0131500Y0336500D01*
X0136900Y0341500D02*
X0133900Y0344500D01*
X0129100Y0344500D01*
X0127300Y0342700D01*
X0107500Y0342700D01*
X0107500Y0447700D01*
X0094900Y0447700D01*
X0091300Y0451300D01*
X0076900Y0451300D01*
X0076500Y0451500D01*
X0058900Y0441100D02*
X0058311Y0441500D01*
X0058900Y0441100D02*
X0073300Y0426700D01*
X0076300Y0426700D01*
X0076500Y0426500D01*
X0091300Y0411700D01*
X0091300Y0391900D01*
X0091500Y0391500D01*
X0058900Y0358900D01*
X0076300Y0341500D01*
X0076300Y0321700D01*
X0076500Y0321500D01*
X0076900Y0321100D01*
X0076900Y0295900D01*
X0091300Y0281500D01*
X0091500Y0281500D01*
X0111500Y0281500D02*
X0126500Y0281500D01*
X0126700Y0281500D01*
X0126700Y0306700D01*
X0131500Y0311500D01*
X0107500Y0342700D02*
X0100300Y0342700D01*
X0100300Y0255100D01*
X0081700Y0236500D01*
X0081500Y0236500D01*
X0076300Y0236500D01*
X0041500Y0201700D01*
X0041500Y0201500D01*
X0041500Y0181500D01*
X0041500Y0161500D01*
X0076300Y0126700D01*
X0081100Y0126700D01*
X0081500Y0126500D01*
X0085900Y0130900D01*
X0122500Y0130900D01*
X0122500Y0157900D01*
X0127300Y0162700D01*
X0183100Y0162700D01*
X0195100Y0174700D01*
X0195100Y0178300D01*
X0181900Y0191500D01*
X0181900Y0211300D01*
X0181500Y0211500D01*
X0192100Y0222100D01*
X0246100Y0222100D01*
X0252100Y0228100D01*
X0252100Y0267100D01*
X0306500Y0321500D01*
X0306700Y0321700D01*
X0331300Y0321700D01*
X0331500Y0321500D01*
X0331900Y0321700D01*
X0372700Y0362500D01*
X0372700Y0363100D01*
X0375100Y0365500D01*
X0476500Y0365500D01*
X0476500Y0346500D01*
X0476500Y0311500D01*
X0476500Y0288700D01*
X0454900Y0288700D01*
X0452500Y0286300D01*
X0452500Y0276700D01*
X0454900Y0274300D01*
X0457300Y0274300D01*
X0484300Y0247300D01*
X0549700Y0247300D01*
X0553900Y0243100D01*
X0553900Y0130300D01*
X0525100Y0101500D01*
X0521500Y0101500D01*
X0516700Y0106300D02*
X0510700Y0112300D01*
X0510700Y0230500D01*
X0521500Y0241300D01*
X0521500Y0241500D01*
X0521500Y0241300D02*
X0546100Y0241300D01*
X0546500Y0241500D01*
X0546100Y0231700D02*
X0546500Y0231500D01*
X0546100Y0231700D02*
X0521500Y0231700D01*
X0521500Y0231500D01*
X0521500Y0221500D02*
X0546500Y0221500D01*
X0546100Y0201700D02*
X0546500Y0201500D01*
X0546100Y0201700D02*
X0521500Y0201700D01*
X0521500Y0201500D01*
X0521500Y0191500D02*
X0546500Y0191500D01*
X0546500Y0181500D02*
X0546100Y0181300D01*
X0521500Y0181300D01*
X0521500Y0181500D01*
X0521500Y0171700D02*
X0521500Y0171500D01*
X0521500Y0171700D02*
X0546100Y0171700D01*
X0546500Y0171500D01*
X0546500Y0161500D02*
X0521500Y0161500D01*
X0521500Y0151500D02*
X0521500Y0151300D01*
X0546100Y0151300D01*
X0546500Y0151500D01*
X0546100Y0141700D02*
X0546500Y0141500D01*
X0546100Y0141700D02*
X0521500Y0141700D01*
X0521500Y0141500D01*
X0521500Y0131500D02*
X0546500Y0131500D01*
X0516700Y0106300D02*
X0516700Y0050500D01*
X0526300Y0040900D01*
X0526300Y0016900D01*
X0526500Y0016500D01*
X0510700Y0012100D02*
X0510700Y0031900D01*
X0491500Y0051100D01*
X0491500Y0051500D01*
X0491500Y0051700D01*
X0495700Y0055900D01*
X0495700Y0071500D01*
X0491500Y0075700D01*
X0491500Y0091500D01*
X0497500Y0089500D02*
X0497500Y0097900D01*
X0501100Y0101500D01*
X0501500Y0101500D01*
X0507100Y0097300D02*
X0511300Y0101500D01*
X0511500Y0101500D01*
X0507100Y0097300D02*
X0507100Y0090100D01*
X0511300Y0085900D01*
X0511300Y0061900D01*
X0511500Y0061500D01*
X0515500Y0059500D02*
X0511900Y0055900D01*
X0511900Y0051700D01*
X0511500Y0051500D01*
X0501700Y0051700D02*
X0501700Y0055900D01*
X0505900Y0060100D01*
X0505900Y0087100D01*
X0501500Y0091500D01*
X0497500Y0089500D02*
X0501100Y0085900D01*
X0501100Y0061900D01*
X0501500Y0061500D01*
X0501700Y0051700D02*
X0501500Y0051500D01*
X0491500Y0061500D02*
X0491500Y0073900D01*
X0487300Y0078100D01*
X0487300Y0097300D01*
X0491500Y0101500D01*
X0481500Y0101500D02*
X0481300Y0101500D01*
X0477100Y0105700D01*
X0477100Y0144700D01*
X0467500Y0154300D01*
X0467500Y0256900D01*
X0451300Y0273100D01*
X0451300Y0315100D01*
X0456100Y0319900D01*
X0456100Y0346300D01*
X0456500Y0346500D01*
X0476500Y0365500D02*
X0476500Y0376500D01*
X0478300Y0383500D02*
X0513100Y0348700D01*
X0513100Y0344500D01*
X0521500Y0336100D01*
X0521500Y0336500D01*
X0521500Y0336700D01*
X0546100Y0336700D01*
X0546500Y0336500D01*
X0550900Y0340900D02*
X0553900Y0337900D01*
X0553900Y0324100D01*
X0546700Y0316900D01*
X0546500Y0316500D01*
X0546100Y0316300D01*
X0521500Y0316300D01*
X0521500Y0316500D01*
X0521500Y0306700D02*
X0521500Y0306500D01*
X0521500Y0306700D02*
X0546100Y0306700D01*
X0546500Y0306500D01*
X0546100Y0291700D02*
X0546500Y0291500D01*
X0546100Y0291700D02*
X0521500Y0291700D01*
X0521500Y0291500D01*
X0521500Y0281500D02*
X0546500Y0281500D01*
X0546500Y0271500D02*
X0546100Y0271300D01*
X0521500Y0271300D01*
X0521500Y0271500D01*
X0521500Y0261700D02*
X0521500Y0261500D01*
X0521500Y0261700D02*
X0477700Y0261700D01*
X0457900Y0281500D01*
X0456500Y0281500D01*
X0450100Y0272500D02*
X0466300Y0256300D01*
X0466300Y0147100D01*
X0471700Y0141700D01*
X0471500Y0141500D01*
X0467500Y0144100D02*
X0467500Y0105100D01*
X0471100Y0101500D01*
X0471500Y0101500D01*
X0471100Y0101500D02*
X0467500Y0097900D01*
X0467500Y0069700D01*
X0471100Y0066100D01*
X0471100Y0061900D01*
X0471500Y0061500D01*
X0475900Y0063100D02*
X0475900Y0055900D01*
X0471500Y0051500D01*
X0465700Y0055900D02*
X0461500Y0051700D01*
X0461500Y0051500D01*
X0465700Y0055900D02*
X0465700Y0076300D01*
X0461500Y0080500D01*
X0461500Y0091500D01*
X0457300Y0097300D02*
X0461500Y0101500D01*
X0457300Y0097300D02*
X0457300Y0082900D01*
X0461500Y0078700D01*
X0461500Y0061500D01*
X0455500Y0055300D02*
X0451900Y0051700D01*
X0451500Y0051500D01*
X0454300Y0047500D02*
X0445300Y0047500D01*
X0441700Y0051100D01*
X0441500Y0051500D01*
X0445900Y0055900D01*
X0445900Y0070900D01*
X0441700Y0075100D01*
X0441700Y0091300D01*
X0441500Y0091500D01*
X0435700Y0087100D02*
X0431500Y0091300D01*
X0431500Y0091500D01*
X0435700Y0087100D02*
X0435700Y0059500D01*
X0431500Y0055300D01*
X0431500Y0051500D01*
X0427300Y0052900D02*
X0427300Y0045100D01*
X0456100Y0016300D01*
X0456500Y0016500D01*
X0454900Y0009100D02*
X0417100Y0046900D01*
X0417100Y0057100D01*
X0421500Y0061500D01*
X0421300Y0061900D01*
X0421300Y0078100D01*
X0417100Y0082300D01*
X0417100Y0097300D01*
X0421300Y0101500D01*
X0421500Y0101500D01*
X0415900Y0097300D02*
X0411700Y0101500D01*
X0411500Y0101500D01*
X0415900Y0097300D02*
X0415900Y0082300D01*
X0411700Y0078100D01*
X0411700Y0061900D01*
X0411500Y0061500D01*
X0407500Y0055300D02*
X0411100Y0051700D01*
X0411500Y0051500D01*
X0407500Y0055300D02*
X0407500Y0075700D01*
X0411100Y0079300D01*
X0411100Y0091300D01*
X0411500Y0091500D01*
X0421500Y0091500D02*
X0421900Y0091300D01*
X0421900Y0079300D01*
X0425500Y0075700D01*
X0425500Y0055300D01*
X0421900Y0051700D01*
X0421500Y0051500D01*
X0427300Y0052900D02*
X0431500Y0057100D01*
X0431500Y0061500D01*
X0441100Y0061900D02*
X0441500Y0061500D01*
X0441100Y0061900D02*
X0441100Y0073900D01*
X0437500Y0077500D01*
X0437500Y0097900D01*
X0441100Y0101500D01*
X0441500Y0101500D01*
X0447100Y0097300D02*
X0451300Y0101500D01*
X0451500Y0101500D01*
X0447100Y0097300D02*
X0447100Y0077500D01*
X0451300Y0073300D01*
X0451300Y0061900D01*
X0451500Y0061500D01*
X0455500Y0055300D02*
X0455500Y0070900D01*
X0451900Y0074500D01*
X0451900Y0091300D01*
X0451500Y0091500D01*
X0471500Y0091500D02*
X0471700Y0091300D01*
X0471700Y0067300D01*
X0475900Y0063100D01*
X0481300Y0061900D02*
X0481500Y0061500D01*
X0481300Y0061900D02*
X0481300Y0085900D01*
X0477100Y0090100D01*
X0477100Y0097300D01*
X0481300Y0101500D01*
X0481500Y0091500D02*
X0481900Y0091300D01*
X0481900Y0087100D01*
X0485500Y0083500D01*
X0485500Y0055300D01*
X0481900Y0051700D01*
X0481500Y0051500D01*
X0454300Y0047500D02*
X0484900Y0016900D01*
X0506500Y0016900D01*
X0506500Y0016500D01*
X0510700Y0012100D02*
X0505300Y0006700D01*
X0327700Y0006700D01*
X0318100Y0016300D01*
X0316900Y0016300D01*
X0316500Y0016500D01*
X0352300Y0045100D02*
X0391300Y0045100D01*
X0391500Y0051500D02*
X0391900Y0051700D01*
X0395500Y0055300D01*
X0395500Y0063100D01*
X0391900Y0066700D01*
X0391900Y0091300D01*
X0391500Y0091500D01*
X0385900Y0087100D02*
X0381500Y0091500D01*
X0377500Y0093100D02*
X0377500Y0065500D01*
X0381500Y0061500D01*
X0381100Y0061300D01*
X0377500Y0057700D01*
X0377500Y0049900D01*
X0379900Y0047500D01*
X0404500Y0047500D01*
X0444100Y0007900D01*
X0468700Y0007900D01*
X0470500Y0009700D01*
X0472300Y0009700D01*
X0468100Y0009100D02*
X0454900Y0009100D01*
X0468100Y0009100D02*
X0475300Y0016300D01*
X0476500Y0016300D01*
X0476500Y0016500D01*
X0521500Y0051500D02*
X0521500Y0061500D01*
X0521500Y0091500D01*
X0515500Y0087700D02*
X0511900Y0091300D01*
X0511500Y0091500D01*
X0515500Y0087700D02*
X0515500Y0059500D01*
X0461500Y0141500D02*
X0461500Y0141700D01*
X0450100Y0153100D01*
X0450100Y0268900D01*
X0408100Y0310900D01*
X0385300Y0310900D01*
X0381100Y0306700D01*
X0376900Y0306700D01*
X0376500Y0306500D01*
X0371500Y0307300D02*
X0376300Y0312100D01*
X0408700Y0312100D01*
X0451300Y0269500D01*
X0451300Y0160300D01*
X0467500Y0144100D01*
X0414100Y0114100D02*
X0401500Y0101500D01*
X0397300Y0097300D01*
X0397300Y0079300D01*
X0401500Y0075100D01*
X0401500Y0061500D01*
X0405700Y0055900D02*
X0401500Y0051700D01*
X0401500Y0051500D01*
X0405700Y0055900D02*
X0405700Y0072700D01*
X0401500Y0076900D01*
X0401500Y0091500D01*
X0391500Y0101500D02*
X0391300Y0101500D01*
X0387100Y0097300D01*
X0387100Y0069700D01*
X0391300Y0065500D01*
X0391300Y0061900D01*
X0391500Y0061500D01*
X0385900Y0060100D02*
X0385900Y0087100D01*
X0377500Y0093100D02*
X0381100Y0096700D01*
X0381100Y0101500D01*
X0381500Y0101500D01*
X0380500Y0106300D02*
X0375700Y0101500D01*
X0375700Y0096100D01*
X0371500Y0091900D01*
X0371500Y0091500D01*
X0371500Y0091300D01*
X0375700Y0087100D01*
X0375700Y0060100D01*
X0371500Y0055900D01*
X0371500Y0051500D01*
X0361900Y0051700D02*
X0361900Y0055900D01*
X0366100Y0060100D01*
X0366100Y0087100D01*
X0361900Y0091300D01*
X0361500Y0091500D01*
X0357100Y0090100D02*
X0357100Y0093700D01*
X0361300Y0097900D01*
X0361300Y0101500D01*
X0361500Y0101500D01*
X0361900Y0101500D01*
X0369100Y0108700D01*
X0369100Y0147700D01*
X0380500Y0159100D01*
X0380500Y0236500D01*
X0386500Y0242500D01*
X0386500Y0246500D01*
X0392500Y0246100D02*
X0392500Y0240100D01*
X0396100Y0236500D01*
X0396500Y0236500D01*
X0386500Y0236500D02*
X0386500Y0155500D01*
X0380500Y0149500D01*
X0380500Y0106300D01*
X0371500Y0101500D02*
X0367300Y0097300D01*
X0367300Y0090100D01*
X0371500Y0085900D01*
X0371500Y0061500D01*
X0361900Y0061900D02*
X0361500Y0061500D01*
X0361900Y0061900D02*
X0361900Y0067300D01*
X0364900Y0070300D01*
X0364900Y0082300D01*
X0357100Y0090100D01*
X0357700Y0097900D02*
X0357100Y0098500D01*
X0357100Y0104500D01*
X0336100Y0125500D01*
X0303700Y0125500D01*
X0299500Y0129700D01*
X0299500Y0167500D01*
X0253300Y0213700D01*
X0220300Y0213700D01*
X0206500Y0199900D01*
X0193900Y0199900D01*
X0191500Y0211500D02*
X0191500Y0183700D01*
X0196300Y0178900D01*
X0196300Y0161500D01*
X0146500Y0161500D01*
X0141700Y0156700D01*
X0126700Y0156700D01*
X0126500Y0156500D01*
X0126500Y0176500D02*
X0111500Y0176500D01*
X0109900Y0172900D02*
X0157900Y0172900D01*
X0161500Y0176500D01*
X0176500Y0176500D02*
X0181500Y0176500D01*
X0191500Y0176500D01*
X0176500Y0176500D02*
X0141500Y0211500D01*
X0136900Y0206500D02*
X0136900Y0217900D01*
X0143500Y0224500D01*
X0144700Y0223300D01*
X0198700Y0223300D01*
X0206500Y0231100D01*
X0246100Y0231100D01*
X0246500Y0231500D01*
X0246700Y0211300D02*
X0221500Y0211300D01*
X0246700Y0211300D02*
X0256500Y0201500D01*
X0256300Y0201100D01*
X0256300Y0196300D01*
X0212500Y0152500D01*
X0185500Y0152500D01*
X0181500Y0156500D01*
X0180100Y0160300D02*
X0187900Y0160300D01*
X0191500Y0156700D01*
X0191500Y0156500D01*
X0196300Y0161500D02*
X0206500Y0161500D01*
X0246500Y0201500D01*
X0206500Y0161500D02*
X0211500Y0156500D01*
X0205900Y0136300D02*
X0273100Y0136300D01*
X0307300Y0102100D01*
X0336100Y0102100D01*
X0347500Y0090700D01*
X0347500Y0082300D01*
X0355900Y0073900D01*
X0362500Y0071500D02*
X0336100Y0071500D01*
X0272500Y0135100D01*
X0249700Y0135100D01*
X0228100Y0113500D01*
X0168100Y0113500D01*
X0161500Y0106900D01*
X0161500Y0106300D01*
X0156700Y0101500D01*
X0156500Y0101500D01*
X0151900Y0106300D02*
X0151900Y0071500D01*
X0161500Y0061900D01*
X0161500Y0061500D01*
X0161500Y0061900D02*
X0176500Y0061900D01*
X0180100Y0065500D01*
X0207700Y0065500D01*
X0251500Y0109300D01*
X0251500Y0126500D01*
X0250300Y0133900D02*
X0263500Y0133900D01*
X0352300Y0045100D01*
X0361500Y0051500D02*
X0361900Y0051700D01*
X0381500Y0051500D02*
X0381700Y0051700D01*
X0381700Y0055900D01*
X0385900Y0060100D01*
X0366700Y0109900D02*
X0366700Y0232300D01*
X0376300Y0241900D01*
X0376300Y0246100D01*
X0376500Y0246500D01*
X0392500Y0246100D02*
X0363100Y0275500D01*
X0313900Y0275500D01*
X0297100Y0292300D01*
X0289900Y0292300D01*
X0291100Y0294700D02*
X0303700Y0307300D01*
X0371500Y0307300D01*
X0386500Y0306500D02*
X0386500Y0306100D01*
X0391300Y0306100D01*
X0394900Y0302500D01*
X0402700Y0302500D01*
X0406300Y0306100D01*
X0406500Y0306500D01*
X0410500Y0302500D01*
X0410500Y0244900D01*
X0406900Y0241300D01*
X0406900Y0236500D01*
X0406500Y0236500D01*
X0450100Y0272500D02*
X0450100Y0303100D01*
X0408100Y0345100D01*
X0376900Y0345100D01*
X0376900Y0341500D01*
X0376500Y0341500D01*
X0376900Y0345100D02*
X0376900Y0361300D01*
X0376500Y0361500D01*
X0357100Y0384700D02*
X0478900Y0384700D01*
X0514300Y0349300D01*
X0514300Y0345100D01*
X0518500Y0340900D01*
X0550900Y0340900D01*
X0546500Y0346500D02*
X0546100Y0346300D01*
X0521500Y0346300D01*
X0521500Y0346500D01*
X0518500Y0350500D02*
X0551500Y0350500D01*
X0555100Y0346900D01*
X0555100Y0259900D01*
X0546700Y0251500D01*
X0546500Y0251500D01*
X0521500Y0251500D01*
X0521500Y0261700D02*
X0546100Y0261700D01*
X0546500Y0261500D01*
X0476500Y0281500D02*
X0476500Y0288700D01*
X0521500Y0326500D02*
X0546500Y0326500D01*
X0518500Y0350500D02*
X0481900Y0387100D01*
X0355900Y0387100D01*
X0316300Y0347500D01*
X0303700Y0347500D01*
X0211300Y0255100D01*
X0199900Y0255100D01*
X0176500Y0231700D01*
X0176500Y0231500D01*
X0171700Y0211900D02*
X0171500Y0211500D01*
X0171700Y0211900D02*
X0181300Y0211900D01*
X0181500Y0211500D01*
X0146500Y0231500D02*
X0146500Y0239500D01*
X0109900Y0239500D01*
X0081700Y0211300D01*
X0081500Y0211500D01*
X0081700Y0211300D02*
X0081700Y0186100D01*
X0091300Y0176500D01*
X0091500Y0176500D01*
X0106300Y0176500D01*
X0109900Y0172900D01*
X0126500Y0176500D02*
X0126700Y0176500D01*
X0126700Y0196300D01*
X0136900Y0206500D01*
X0143500Y0224500D02*
X0136500Y0231500D01*
X0146500Y0239500D02*
X0146500Y0251500D01*
X0156500Y0261500D01*
X0156700Y0261700D01*
X0171700Y0261700D01*
X0175300Y0265300D01*
X0182500Y0265300D01*
X0186100Y0261700D01*
X0186500Y0261500D01*
X0181900Y0261100D02*
X0186700Y0256300D01*
X0208300Y0256300D01*
X0253300Y0301300D01*
X0253300Y0302500D01*
X0255100Y0304300D02*
X0258100Y0304300D01*
X0299500Y0345700D01*
X0299500Y0353500D01*
X0303100Y0357100D01*
X0324100Y0357100D01*
X0356500Y0389500D01*
X0488500Y0389500D01*
X0521500Y0356500D01*
X0546500Y0356500D01*
X0546100Y0376300D02*
X0546500Y0376500D01*
X0546100Y0376300D02*
X0521500Y0376300D01*
X0521500Y0376500D01*
X0511900Y0369700D02*
X0490900Y0390700D01*
X0330700Y0390700D01*
X0285700Y0435700D01*
X0224500Y0435700D01*
X0210700Y0449500D01*
X0179500Y0449500D01*
X0171500Y0441500D01*
X0166300Y0446500D02*
X0166300Y0436300D01*
X0159700Y0429700D01*
X0151900Y0429700D01*
X0151900Y0415900D01*
X0154300Y0413500D01*
X0154900Y0413500D01*
X0176500Y0391900D01*
X0176500Y0391500D01*
X0176500Y0391900D02*
X0186100Y0391900D01*
X0186500Y0391500D01*
X0182500Y0375100D02*
X0174700Y0375100D01*
X0171100Y0371500D01*
X0156500Y0371500D01*
X0156100Y0371500D01*
X0138700Y0354100D01*
X0139300Y0349900D02*
X0136900Y0347500D01*
X0139300Y0349900D02*
X0256900Y0349900D01*
X0260500Y0346300D01*
X0260500Y0336700D01*
X0258100Y0334300D01*
X0255100Y0334300D01*
X0247900Y0341500D01*
X0246500Y0341500D01*
X0247900Y0348700D02*
X0193300Y0348700D01*
X0186100Y0341500D01*
X0186100Y0326500D01*
X0181900Y0322300D01*
X0186500Y0316500D02*
X0194500Y0308500D01*
X0198700Y0308500D01*
X0198700Y0266500D01*
X0146500Y0266500D01*
X0141700Y0261700D01*
X0126700Y0261700D01*
X0126500Y0261500D01*
X0176500Y0261500D02*
X0176500Y0261100D01*
X0181900Y0261100D01*
X0199300Y0258700D02*
X0204100Y0258700D01*
X0205300Y0257500D01*
X0207700Y0257500D01*
X0250900Y0300700D01*
X0250900Y0303700D01*
X0252100Y0304900D01*
X0254500Y0304900D01*
X0255100Y0304300D01*
X0255100Y0311500D02*
X0230500Y0336100D01*
X0191500Y0336100D01*
X0191500Y0336500D01*
X0201700Y0311500D02*
X0198700Y0308500D01*
X0201700Y0311500D02*
X0246500Y0311500D01*
X0255100Y0311500D02*
X0256500Y0311500D01*
X0283300Y0294700D02*
X0291100Y0294700D01*
X0306500Y0291500D02*
X0306700Y0291700D01*
X0331300Y0291700D01*
X0331500Y0291500D01*
X0331500Y0271500D02*
X0331300Y0271300D01*
X0306700Y0271300D01*
X0306500Y0271500D01*
X0306700Y0261700D02*
X0306500Y0261500D01*
X0306700Y0261700D02*
X0331300Y0261700D01*
X0331500Y0261500D01*
X0331500Y0251500D02*
X0306500Y0251500D01*
X0306500Y0241500D02*
X0306700Y0241300D01*
X0331300Y0241300D01*
X0331500Y0241500D01*
X0331300Y0231700D02*
X0331500Y0231500D01*
X0331300Y0231700D02*
X0306700Y0231700D01*
X0306500Y0231500D01*
X0306500Y0221500D02*
X0331500Y0221500D01*
X0331500Y0211500D02*
X0331300Y0211300D01*
X0306700Y0211300D01*
X0306500Y0211500D01*
X0306700Y0201700D02*
X0306500Y0201500D01*
X0306700Y0201700D02*
X0331300Y0201700D01*
X0331500Y0201500D01*
X0331500Y0181500D02*
X0331300Y0181300D01*
X0306700Y0181300D01*
X0306500Y0181500D01*
X0306700Y0171700D02*
X0306500Y0171500D01*
X0306700Y0171700D02*
X0331300Y0171700D01*
X0331500Y0171500D01*
X0331500Y0161500D02*
X0306500Y0161500D01*
X0306500Y0151500D02*
X0306700Y0151300D01*
X0331300Y0151300D01*
X0331500Y0151500D01*
X0331300Y0141700D02*
X0331500Y0141500D01*
X0331300Y0141700D02*
X0306700Y0141700D01*
X0306500Y0141500D01*
X0306500Y0131500D02*
X0331500Y0131500D01*
X0331500Y0121500D02*
X0331300Y0121300D01*
X0306700Y0121300D01*
X0306500Y0121500D01*
X0303100Y0115900D02*
X0342100Y0115900D01*
X0349900Y0108100D01*
X0331500Y0111500D02*
X0331300Y0111700D01*
X0306700Y0111700D01*
X0306500Y0111500D01*
X0303100Y0115900D02*
X0281500Y0137500D01*
X0197500Y0137500D01*
X0181500Y0121500D01*
X0191500Y0121500D02*
X0191500Y0121900D01*
X0205900Y0136300D01*
X0228700Y0112300D02*
X0177100Y0112300D01*
X0171700Y0106900D01*
X0171700Y0106300D01*
X0166900Y0101500D01*
X0166500Y0101500D01*
X0176500Y0101500D02*
X0186500Y0101500D01*
X0161500Y0121500D02*
X0161500Y0121900D01*
X0152500Y0130900D01*
X0122500Y0130900D01*
X0138700Y0129700D02*
X0098500Y0089500D01*
X0126500Y0061500D01*
X0142900Y0057700D02*
X0109900Y0057700D01*
X0106300Y0061300D01*
X0091900Y0061300D01*
X0091500Y0061500D01*
X0091500Y0041500D02*
X0106300Y0041500D01*
X0109900Y0037900D01*
X0177700Y0037900D01*
X0181300Y0041500D01*
X0181500Y0041500D01*
X0181900Y0041500D01*
X0185500Y0037900D01*
X0213100Y0037900D01*
X0261100Y0085900D01*
X0261100Y0096100D01*
X0261500Y0096500D01*
X0251500Y0096500D02*
X0251500Y0088900D01*
X0207700Y0045100D01*
X0211300Y0041500D01*
X0211500Y0041500D01*
X0207700Y0045100D02*
X0178300Y0045100D01*
X0172900Y0050500D01*
X0150100Y0050500D01*
X0141100Y0041500D01*
X0126500Y0041500D01*
X0142900Y0057700D02*
X0146500Y0061300D01*
X0146500Y0061500D01*
X0146500Y0101500D01*
X0151900Y0106300D02*
X0141700Y0116500D01*
X0141700Y0121300D01*
X0141500Y0121500D01*
X0143500Y0129700D02*
X0151300Y0121900D01*
X0151500Y0121500D01*
X0143500Y0129700D02*
X0138700Y0129700D01*
X0161500Y0156500D02*
X0161500Y0156700D01*
X0176500Y0156700D01*
X0180100Y0160300D01*
X0228700Y0112300D02*
X0250300Y0133900D01*
X0261100Y0126100D02*
X0261500Y0126500D01*
X0261100Y0126100D02*
X0261100Y0114700D01*
X0215500Y0069100D01*
X0215500Y0060100D01*
X0213100Y0057700D01*
X0150100Y0057700D01*
X0146500Y0061300D01*
X0098500Y0089500D02*
X0081500Y0106500D01*
X0081100Y0106900D01*
X0041500Y0106900D01*
X0041500Y0106500D01*
X0207700Y0065500D02*
X0211300Y0061900D01*
X0211500Y0061500D01*
X0414100Y0114100D02*
X0414100Y0301300D01*
X0406500Y0316500D02*
X0406900Y0316900D01*
X0406900Y0341500D01*
X0406500Y0341500D01*
X0446500Y0375100D02*
X0454900Y0383500D01*
X0478300Y0383500D01*
X0446500Y0375100D02*
X0347500Y0375100D01*
X0331500Y0341500D02*
X0306500Y0341500D01*
X0306500Y0331500D02*
X0306700Y0331300D01*
X0331300Y0331300D01*
X0331500Y0331500D01*
X0256500Y0341500D02*
X0255100Y0341500D01*
X0247900Y0348700D01*
X0208300Y0367900D02*
X0256300Y0415900D01*
X0256300Y0421300D01*
X0256500Y0421500D01*
X0256300Y0421900D01*
X0255100Y0421900D01*
X0242500Y0434500D01*
X0198100Y0434500D01*
X0191500Y0441100D01*
X0191500Y0441500D01*
X0211300Y0450700D02*
X0170500Y0450700D01*
X0166300Y0446500D01*
X0165700Y0430900D02*
X0242500Y0430900D01*
X0246500Y0421500D02*
X0246100Y0421300D01*
X0216700Y0391900D01*
X0216100Y0391900D01*
X0186500Y0421500D01*
X0176500Y0421500D02*
X0176500Y0421900D01*
X0166900Y0421900D01*
X0166500Y0421500D01*
X0165700Y0430900D02*
X0156700Y0421900D01*
X0156500Y0421500D01*
X0151900Y0429700D02*
X0144700Y0429700D01*
X0136500Y0421500D01*
X0121900Y0431500D02*
X0131500Y0441100D01*
X0131500Y0441500D01*
X0127300Y0447700D02*
X0129100Y0449500D01*
X0143500Y0449500D01*
X0151500Y0441500D01*
X0138700Y0451900D02*
X0137500Y0453100D01*
X0138700Y0451900D02*
X0246100Y0451900D01*
X0246500Y0451500D01*
X0247900Y0444100D02*
X0217900Y0444100D01*
X0211300Y0450700D01*
X0247900Y0444100D02*
X0255100Y0451300D01*
X0256300Y0451300D01*
X0256500Y0451500D01*
X0216700Y0391900D02*
X0201100Y0376300D01*
X0145900Y0376300D01*
X0141100Y0371500D01*
X0126500Y0371500D01*
X0126500Y0391500D02*
X0126100Y0391900D01*
X0121900Y0391900D01*
X0121900Y0431500D01*
X0127300Y0447700D02*
X0107500Y0447700D01*
X0148900Y0399100D02*
X0156500Y0391500D01*
X0176500Y0371500D02*
X0181300Y0371500D01*
X0184900Y0367900D01*
X0208300Y0367900D01*
X0206500Y0371500D02*
X0201700Y0376300D01*
X0201100Y0376300D01*
X0186500Y0371500D02*
X0186100Y0371500D01*
X0182500Y0375100D01*
X0121900Y0391900D02*
X0111700Y0391900D01*
X0111500Y0391500D01*
X0091300Y0346300D02*
X0076900Y0346300D01*
X0076500Y0346500D01*
X0091300Y0346300D02*
X0094900Y0342700D01*
X0100300Y0342700D01*
X0058900Y0358900D02*
X0041500Y0376300D01*
X0041500Y0376500D01*
X0176500Y0281500D02*
X0181900Y0281500D01*
X0181900Y0308500D01*
X0181900Y0281500D02*
X0186500Y0281500D01*
X0198700Y0266500D02*
X0201700Y0266500D01*
X0206500Y0261700D01*
X0206500Y0261500D01*
D19*
X0199300Y0258700D03*
X0253300Y0302500D03*
X0283300Y0294700D03*
X0289900Y0292300D03*
X0347500Y0375100D03*
X0357100Y0384700D03*
X0414100Y0301300D03*
X0511900Y0369700D03*
X0242500Y0430900D03*
X0137500Y0453100D03*
X0136900Y0347500D03*
X0221500Y0211300D03*
X0193900Y0199900D03*
X0349900Y0108100D03*
X0357700Y0097900D03*
X0366700Y0109900D03*
X0355900Y0073900D03*
X0362500Y0071500D03*
X0391300Y0045100D03*
X0472300Y0009700D03*
M02*
