%
M48
M72
T01C0.01378
T02C0.03150
T03C0.03200
T04C0.03937
T05C0.04000
T06C0.04724
T07C0.06299
T08C0.07874
T09C0.10000
T10C0.12598
%
T01
X193900Y199900
X221500Y211300
X199300Y258700
X253300Y302500
X283300Y294700
X289900Y292300
X347500Y375100
X357100Y384700
X414100Y301300
X511900Y369700
X242500Y430900
X137500Y453100
X136900Y347500
X349900Y108100
X357700Y97900
X366700Y109900
X355900Y73900
X362500Y71500
X391300Y45100
X472300Y9700
T02
X46500Y422602
X34689Y441500
T03
X76500Y451500
X96500Y451500
X96500Y426500
X76500Y426500
X91500Y391500
X111500Y391500
X126500Y391500
X126500Y371500
X111500Y371500
X91500Y371500
X96500Y346500
X76500Y346500
X76500Y321500
X96500Y321500
X91500Y281500
X111500Y281500
X126500Y281500
X126500Y261500
X111500Y261500
X91500Y261500
X81500Y236500
X101500Y236500
X101500Y211500
X81500Y211500
X91500Y176500
X111500Y176500
X126500Y176500
X126500Y156500
X111500Y156500
X91500Y156500
X81500Y126500
X81500Y106500
X101500Y106500
X101500Y126500
X146500Y156500
X161500Y156500
X161500Y176500
X146500Y176500
X181500Y176500
X191500Y176500
X211500Y176500
X211500Y156500
X191500Y156500
X181500Y156500
X181500Y61500
X191500Y61500
X211500Y61500
X211500Y41500
X191500Y41500
X181500Y41500
X161500Y41500
X146500Y41500
X146500Y61500
X161500Y61500
X126500Y61500
X111500Y61500
X91500Y61500
X91500Y41500
X111500Y41500
X126500Y41500
X146500Y261500
X156500Y261500
X156500Y281500
X146500Y281500
X176500Y281500
X186500Y281500
X206500Y281500
X206500Y261500
X186500Y261500
X176500Y261500
X176500Y371500
X186500Y371500
X206500Y371500
X206500Y391500
X186500Y391500
X176500Y391500
X156500Y391500
X146500Y391500
X146500Y371500
X156500Y371500
X376500Y361500
X376500Y341500
X406500Y341500
X406500Y361500
T04
X58311Y441500
T05
X246500Y451500
X256500Y451500
X256500Y421500
X246500Y421500
X306500Y361500
X306500Y351500
X306500Y341500
X306500Y331500
X306500Y321500
X306500Y311500
X306500Y301500
X306500Y291500
X306500Y271500
X306500Y261500
X306500Y251500
X306500Y241500
X306500Y231500
X306500Y221500
X306500Y211500
X306500Y201500
X331500Y201500
X331500Y211500
X331500Y221500
X331500Y231500
X331500Y241500
X331500Y251500
X331500Y261500
X331500Y271500
X331500Y291500
X331500Y301500
X331500Y311500
X331500Y321500
X331500Y331500
X331500Y341500
X376500Y316500
X376500Y306500
X386500Y306500
X386500Y316500
X396500Y316500
X396500Y306500
X406500Y306500
X406500Y316500
X456500Y311500
X466500Y311500
X476500Y311500
X476500Y281500
X466500Y281500
X456500Y281500
X461500Y251500
X471500Y251500
X471500Y226500
X461500Y226500
X461500Y201500
X471500Y201500
X481500Y201500
X481500Y171500
X471500Y171500
X461500Y171500
X461500Y141500
X471500Y141500
X481500Y141500
X521500Y141500
X521500Y131500
X521500Y151500
X521500Y161500
X521500Y171500
X521500Y181500
X521500Y191500
X521500Y201500
X521500Y221500
X521500Y231500
X521500Y241500
X521500Y251500
X521500Y261500
X521500Y271500
X521500Y281500
X521500Y291500
X521500Y306500
X521500Y316500
X521500Y326500
X521500Y336500
X521500Y346500
X521500Y356500
X521500Y366500
X521500Y376500
X546500Y376500
X546500Y366500
X546500Y356500
X546500Y346500
X546500Y336500
X546500Y326500
X546500Y316500
X546500Y306500
X546500Y291500
X546500Y281500
X546500Y271500
X546500Y261500
X546500Y251500
X546500Y241500
X546500Y231500
X546500Y221500
X546500Y201500
X546500Y191500
X546500Y181500
X546500Y171500
X546500Y161500
X546500Y151500
X546500Y141500
X546500Y131500
X521500Y101500
X521500Y91500
X511500Y91500
X501500Y91500
X501500Y101500
X511500Y101500
X491500Y101500
X491500Y91500
X481500Y91500
X481500Y101500
X471500Y101500
X471500Y91500
X461500Y91500
X451500Y91500
X451500Y101500
X461500Y101500
X441500Y101500
X441500Y91500
X431500Y91500
X431500Y101500
X421500Y101500
X411500Y101500
X411500Y91500
X421500Y91500
X401500Y91500
X401500Y101500
X391500Y101500
X391500Y91500
X381500Y91500
X381500Y101500
X371500Y101500
X361500Y101500
X361500Y91500
X371500Y91500
X351500Y91500
X351500Y101500
X331500Y111500
X331500Y121500
X331500Y131500
X331500Y141500
X331500Y151500
X331500Y161500
X331500Y171500
X331500Y181500
X306500Y181500
X306500Y171500
X306500Y161500
X306500Y151500
X306500Y141500
X306500Y131500
X306500Y121500
X306500Y111500
X261500Y96500
X251500Y96500
X251500Y126500
X261500Y126500
X256500Y201500
X246500Y201500
X246500Y231500
X256500Y231500
X256500Y311500
X246500Y311500
X246500Y341500
X256500Y341500
X376500Y246500
X376500Y236500
X386500Y236500
X386500Y246500
X396500Y246500
X396500Y236500
X406500Y236500
X406500Y246500
X406500Y146500
X396500Y146500
X386500Y146500
X376500Y146500
X371500Y61500
X361500Y61500
X361500Y51500
X371500Y51500
X381500Y51500
X381500Y61500
X391500Y61500
X391500Y51500
X401500Y51500
X401500Y61500
X411500Y61500
X421500Y61500
X421500Y51500
X411500Y51500
X431500Y51500
X431500Y61500
X441500Y61500
X441500Y51500
X451500Y51500
X461500Y51500
X461500Y61500
X451500Y61500
X471500Y61500
X471500Y51500
X481500Y51500
X481500Y61500
X491500Y61500
X491500Y51500
X501500Y51500
X511500Y51500
X511500Y61500
X501500Y61500
X521500Y61500
X521500Y51500
X516500Y16500
X506500Y16500
X526500Y16500
X476500Y16500
X466500Y16500
X456500Y16500
X426500Y16500
X416500Y16500
X406500Y16500
X376500Y16500
X366500Y16500
X356500Y16500
X326500Y16500
X316500Y16500
X351500Y51500
X351500Y61500
X456500Y346500
X466500Y346500
X476500Y346500
X476500Y376500
X466500Y376500
X456500Y376500
T06
X201500Y211500
X191500Y211500
X181500Y211500
X171500Y211500
X161500Y211500
X151500Y211500
X141500Y211500
X131500Y211500
X136500Y231500
X146500Y231500
X156500Y231500
X166500Y231500
X176500Y231500
X186500Y231500
X196500Y231500
X196500Y316500
X186500Y316500
X176500Y316500
X166500Y316500
X156500Y316500
X146500Y316500
X136500Y316500
X126500Y316500
X131500Y336500
X141500Y336500
X151500Y336500
X161500Y336500
X171500Y336500
X181500Y336500
X191500Y336500
X186500Y421500
X196500Y421500
X176500Y421500
X166500Y421500
X156500Y421500
X146500Y421500
X136500Y421500
X126500Y421500
X131500Y441500
X141500Y441500
X151500Y441500
X161500Y441500
X171500Y441500
X181500Y441500
X191500Y441500
X191500Y121500
X201500Y121500
X181500Y121500
X171500Y121500
X161500Y121500
X151500Y121500
X141500Y121500
X136500Y101500
X146500Y101500
X156500Y101500
X166500Y101500
X176500Y101500
X186500Y101500
X196500Y101500
X206500Y101500
T07
X41500Y106500
X41500Y86500
X41500Y66500
X41500Y161500
X41500Y181500
X41500Y201500
X41500Y251500
X41500Y271500
X41500Y291500
X41500Y336500
X41500Y356500
X41500Y376500
T08
X431500Y179500
T09
X21500Y21500
X271500Y21500
X271500Y156500
X276500Y276500
X276500Y396500
X21500Y401500
T10
X331500Y411500
X521500Y411500
X521500Y116500
X331500Y91500
M30
