G75*
%MOIN*%
%OFA0B0*%
%FSLAX25Y25*%
%IPPOS*%
%LPD*%
%AMOC8*
5,1,8,0,0,1.08239X$1,22.5*
%
%ADD10C,0.06000*%
%ADD11OC8,0.06000*%
%ADD12C,0.09370*%
%ADD13C,0.00600*%
%ADD14C,0.02978*%
D10*
X0018000Y0221000D02*
X0024000Y0221000D01*
X0024000Y0231000D02*
X0018000Y0231000D01*
X0018000Y0241000D02*
X0024000Y0241000D01*
X0024000Y0251000D02*
X0018000Y0251000D01*
X0018000Y0261000D02*
X0024000Y0261000D01*
X0024000Y0271000D02*
X0018000Y0271000D01*
X0018000Y0311000D02*
X0024000Y0311000D01*
X0024000Y0321000D02*
X0018000Y0321000D01*
X0018000Y0331000D02*
X0024000Y0331000D01*
X0024000Y0341000D02*
X0018000Y0341000D01*
X0018000Y0351000D02*
X0024000Y0351000D01*
X0024000Y0361000D02*
X0018000Y0361000D01*
X0018000Y0371000D02*
X0024000Y0371000D01*
X0024000Y0381000D02*
X0018000Y0381000D01*
X0021000Y0573000D02*
X0021000Y0579000D01*
X0031000Y0579000D02*
X0031000Y0573000D01*
X0041000Y0573000D02*
X0041000Y0579000D01*
X0051000Y0579000D02*
X0051000Y0573000D01*
X0061000Y0573000D02*
X0061000Y0579000D01*
X0071000Y0579000D02*
X0071000Y0573000D01*
X0101000Y0573000D02*
X0101000Y0579000D01*
X0111000Y0579000D02*
X0111000Y0573000D01*
X0121000Y0573000D02*
X0121000Y0579000D01*
X0131000Y0579000D02*
X0131000Y0573000D01*
X0141000Y0573000D02*
X0141000Y0579000D01*
X0151000Y0579000D02*
X0151000Y0573000D01*
X0176000Y0573000D02*
X0176000Y0579000D01*
X0186000Y0579000D02*
X0186000Y0573000D01*
X0196000Y0573000D02*
X0196000Y0579000D01*
X0206000Y0579000D02*
X0206000Y0573000D01*
X0216000Y0573000D02*
X0216000Y0579000D01*
X0226000Y0579000D02*
X0226000Y0573000D01*
X0251000Y0573000D02*
X0251000Y0579000D01*
X0261000Y0579000D02*
X0261000Y0573000D01*
X0271000Y0573000D02*
X0271000Y0579000D01*
X0281000Y0579000D02*
X0281000Y0573000D01*
X0291000Y0573000D02*
X0291000Y0579000D01*
X0301000Y0579000D02*
X0301000Y0573000D01*
X0299000Y0406000D02*
X0293000Y0406000D01*
X0293000Y0396000D02*
X0299000Y0396000D01*
X0299000Y0386000D02*
X0293000Y0386000D01*
X0293000Y0376000D02*
X0299000Y0376000D01*
X0299000Y0366000D02*
X0293000Y0366000D01*
X0293000Y0356000D02*
X0299000Y0356000D01*
X0299000Y0346000D02*
X0293000Y0346000D01*
X0293000Y0336000D02*
X0299000Y0336000D01*
X0299000Y0326000D02*
X0293000Y0326000D01*
X0293000Y0316000D02*
X0299000Y0316000D01*
X0299000Y0306000D02*
X0293000Y0306000D01*
X0293000Y0296000D02*
X0299000Y0296000D01*
X0299000Y0286000D02*
X0293000Y0286000D01*
X0293000Y0276000D02*
X0299000Y0276000D01*
X0299000Y0266000D02*
X0293000Y0266000D01*
X0293000Y0256000D02*
X0299000Y0256000D01*
X0299000Y0246000D02*
X0293000Y0246000D01*
X0293000Y0236000D02*
X0299000Y0236000D01*
D11*
X0271000Y0081000D03*
X0271000Y0071000D03*
X0261000Y0071000D03*
X0261000Y0081000D03*
X0251000Y0081000D03*
X0251000Y0071000D03*
X0241000Y0071000D03*
X0241000Y0081000D03*
X0231000Y0081000D03*
X0231000Y0071000D03*
X0221000Y0071000D03*
X0221000Y0081000D03*
X0211000Y0081000D03*
X0211000Y0071000D03*
X0201000Y0071000D03*
X0201000Y0081000D03*
X0191000Y0081000D03*
X0191000Y0071000D03*
X0181000Y0071000D03*
X0181000Y0081000D03*
X0171000Y0081000D03*
X0171000Y0071000D03*
X0161000Y0071000D03*
X0161000Y0081000D03*
X0151000Y0081000D03*
X0151000Y0071000D03*
X0141000Y0071000D03*
X0141000Y0081000D03*
X0131000Y0081000D03*
X0131000Y0071000D03*
X0121000Y0071000D03*
X0121000Y0081000D03*
X0111000Y0081000D03*
X0111000Y0071000D03*
X0101000Y0071000D03*
X0101000Y0081000D03*
D12*
X0110685Y0037457D02*
X0110685Y0028087D01*
X0091000Y0028087D02*
X0091000Y0037457D01*
X0071315Y0037457D02*
X0071315Y0028087D01*
X0136157Y0024543D02*
X0136157Y0033913D01*
X0155843Y0033913D02*
X0155843Y0024543D01*
X0181315Y0024543D02*
X0181315Y0033913D01*
X0201000Y0033913D02*
X0201000Y0024543D01*
X0220685Y0024543D02*
X0220685Y0033913D01*
X0246315Y0033913D02*
X0246315Y0024543D01*
X0266000Y0024543D02*
X0266000Y0033913D01*
X0285685Y0033913D02*
X0285685Y0024543D01*
X0311315Y0024543D02*
X0311315Y0033913D01*
X0331000Y0033913D02*
X0331000Y0024543D01*
X0350685Y0024543D02*
X0350685Y0033913D01*
X0352457Y0171315D02*
X0343087Y0171315D01*
X0343087Y0191000D02*
X0352457Y0191000D01*
X0352457Y0210685D02*
X0343087Y0210685D01*
X0343087Y0236315D02*
X0352457Y0236315D01*
X0352457Y0256000D02*
X0343087Y0256000D01*
X0343087Y0275685D02*
X0352457Y0275685D01*
X0352457Y0301315D02*
X0343087Y0301315D01*
X0343087Y0321000D02*
X0352457Y0321000D01*
X0352457Y0340685D02*
X0343087Y0340685D01*
X0343087Y0366315D02*
X0352457Y0366315D01*
X0352457Y0386000D02*
X0343087Y0386000D01*
X0343087Y0405685D02*
X0352457Y0405685D01*
X0352457Y0431315D02*
X0343087Y0431315D01*
X0343087Y0451000D02*
X0352457Y0451000D01*
X0352457Y0470685D02*
X0343087Y0470685D01*
X0343087Y0501315D02*
X0352457Y0501315D01*
X0352457Y0521000D02*
X0343087Y0521000D01*
X0343087Y0540685D02*
X0352457Y0540685D01*
D13*
X0012600Y0080400D02*
X0016200Y0076800D01*
X0101400Y0076800D01*
X0101400Y0071400D01*
X0101000Y0071000D01*
X0101400Y0076800D02*
X0101400Y0081000D01*
X0101000Y0081000D01*
X0099600Y0085200D02*
X0152400Y0085200D01*
X0156600Y0081000D01*
X0156600Y0079800D01*
X0159600Y0076800D01*
X0167400Y0076800D01*
X0171000Y0076800D02*
X0165000Y0070800D01*
X0165000Y0069000D01*
X0139200Y0043200D01*
X0081600Y0043200D01*
X0071400Y0033000D01*
X0071315Y0032772D01*
X0056000Y0082200D02*
X0096600Y0082200D01*
X0099600Y0085200D01*
X0136200Y0029400D02*
X0136157Y0029228D01*
X0136200Y0029400D02*
X0175200Y0068400D01*
X0175200Y0070800D01*
X0179400Y0075000D01*
X0232800Y0075000D01*
X0236400Y0071400D01*
X0240600Y0071400D01*
X0241000Y0071000D01*
X0238800Y0074400D02*
X0241200Y0076800D01*
X0242400Y0076800D01*
X0246600Y0081000D01*
X0246600Y0167400D01*
X0336000Y0256800D01*
X0336000Y0419400D01*
X0347400Y0430800D01*
X0347772Y0431315D01*
X0347772Y0405685D02*
X0348000Y0405600D01*
X0348000Y0398400D01*
X0358200Y0388200D01*
X0358200Y0351000D01*
X0348000Y0340800D01*
X0347772Y0340685D01*
X0348000Y0340200D01*
X0358200Y0330000D01*
X0358200Y0298800D01*
X0348000Y0288600D01*
X0348000Y0276000D01*
X0347772Y0275685D01*
X0348000Y0275400D01*
X0348000Y0268800D01*
X0358200Y0258600D01*
X0358200Y0221400D01*
X0348000Y0211200D01*
X0347772Y0210685D01*
X0347400Y0210600D01*
X0271200Y0134400D01*
X0271200Y0081000D01*
X0271000Y0081000D01*
X0271200Y0081000D02*
X0271200Y0071400D01*
X0271000Y0071000D01*
X0273000Y0065400D02*
X0360600Y0153000D01*
X0360600Y0503400D01*
X0348600Y0515400D01*
X0333000Y0515400D01*
X0275400Y0573000D01*
X0275400Y0580200D01*
X0272400Y0583200D01*
X0268200Y0583200D01*
X0261000Y0576000D01*
X0270600Y0576000D02*
X0271000Y0576000D01*
X0270600Y0576000D02*
X0280200Y0566400D01*
X0280200Y0507600D01*
X0277800Y0532800D02*
X0277800Y0435000D01*
X0304200Y0408600D01*
X0304200Y0350400D01*
X0307800Y0346800D01*
X0307800Y0249000D01*
X0298800Y0240000D01*
X0291000Y0240000D01*
X0221400Y0170400D01*
X0221400Y0081000D01*
X0221000Y0081000D01*
X0221000Y0071000D02*
X0221400Y0070800D01*
X0225600Y0070800D01*
X0255600Y0040800D01*
X0319200Y0040800D01*
X0330600Y0029400D01*
X0331000Y0029228D01*
X0285685Y0029228D02*
X0285600Y0029400D01*
X0275400Y0039600D01*
X0226800Y0039600D01*
X0195600Y0070800D01*
X0191400Y0070800D01*
X0191000Y0071000D01*
X0191000Y0081000D02*
X0191400Y0081000D01*
X0191400Y0192600D01*
X0279000Y0280200D01*
X0300600Y0280200D01*
X0305400Y0285000D01*
X0305400Y0345600D01*
X0300600Y0350400D01*
X0292800Y0350400D01*
X0236400Y0406800D01*
X0236400Y0482400D01*
X0186000Y0532800D01*
X0186000Y0576000D01*
X0196000Y0576000D02*
X0196200Y0576000D01*
X0196200Y0524400D01*
X0276600Y0444000D01*
X0276600Y0434400D01*
X0303000Y0408000D01*
X0303000Y0349800D01*
X0306600Y0346200D01*
X0306600Y0277800D01*
X0298800Y0270000D01*
X0270600Y0270000D01*
X0201000Y0200400D01*
X0201000Y0081000D01*
X0171000Y0081000D02*
X0171000Y0076800D01*
X0161400Y0081000D02*
X0161000Y0081000D01*
X0161400Y0081000D02*
X0161400Y0164400D01*
X0279000Y0282000D01*
X0300600Y0282000D01*
X0303000Y0284400D01*
X0303000Y0342600D01*
X0309000Y0347400D02*
X0305400Y0351000D01*
X0305400Y0459000D01*
X0347400Y0501000D01*
X0347772Y0501315D01*
X0361800Y0519600D02*
X0346800Y0534600D01*
X0332400Y0534600D01*
X0291000Y0576000D01*
X0277800Y0532800D02*
X0226200Y0584400D01*
X0130800Y0584400D01*
X0122400Y0576000D01*
X0121000Y0576000D01*
X0111000Y0585600D02*
X0101400Y0576000D01*
X0101000Y0576000D01*
X0111000Y0585600D02*
X0226800Y0585600D01*
X0236400Y0576000D01*
X0251000Y0576000D01*
X0226000Y0576000D02*
X0225600Y0576000D01*
X0218400Y0583200D01*
X0158400Y0583200D01*
X0151200Y0576000D01*
X0151000Y0576000D01*
X0141000Y0576000D02*
X0141000Y0500400D01*
X0295800Y0345600D01*
X0296000Y0346000D01*
X0307800Y0350400D02*
X0315200Y0343000D01*
X0315200Y0237800D01*
X0241200Y0163800D01*
X0241200Y0081000D01*
X0241000Y0081000D01*
X0238800Y0074400D02*
X0237000Y0074400D01*
X0231000Y0081000D02*
X0231000Y0162000D01*
X0309000Y0240000D01*
X0309000Y0347400D01*
X0307800Y0350400D02*
X0307800Y0378000D01*
X0337200Y0368400D02*
X0337200Y0331200D01*
X0347400Y0321000D01*
X0347772Y0321000D01*
X0347400Y0321000D02*
X0337200Y0310800D01*
X0337200Y0273600D01*
X0347400Y0263400D01*
X0347400Y0256200D01*
X0347772Y0256000D01*
X0296000Y0296000D02*
X0295800Y0296400D01*
X0061200Y0531000D01*
X0061200Y0576000D01*
X0061000Y0576000D01*
X0057000Y0573000D02*
X0057000Y0580800D01*
X0059400Y0583200D01*
X0063600Y0583200D01*
X0070800Y0576000D01*
X0071000Y0576000D01*
X0057000Y0573000D02*
X0013800Y0529800D01*
X0013800Y0348600D01*
X0021000Y0341400D01*
X0021000Y0341000D01*
X0021000Y0351000D02*
X0039400Y0332600D01*
X0039400Y0098800D01*
X0056000Y0082200D01*
X0012600Y0080400D02*
X0012600Y0252600D01*
X0021000Y0261000D01*
X0246600Y0072600D02*
X0246600Y0069600D01*
X0252000Y0064200D01*
X0273600Y0064200D01*
X0361800Y0152400D01*
X0361800Y0519600D01*
X0347772Y0386000D02*
X0347400Y0385800D01*
X0347400Y0378600D01*
X0337200Y0368400D01*
X0261000Y0081000D02*
X0256800Y0081000D01*
X0250800Y0075000D01*
X0249000Y0075000D01*
X0246600Y0072600D01*
X0251000Y0071000D02*
X0251400Y0070800D01*
X0255600Y0070800D01*
X0261000Y0065400D01*
X0273000Y0065400D01*
D14*
X0237000Y0074400D03*
X0167400Y0076800D03*
X0303000Y0342600D03*
X0307800Y0378000D03*
X0280200Y0507600D03*
M02*
