%
M48
M72
T01C0.01378
T02C0.04000
T03C0.05512
%
T01
X167400Y76800
X237000Y74400
X303000Y342600
X307800Y378000
X280200Y507600
T02
X281000Y576000
X271000Y576000
X261000Y576000
X251000Y576000
X226000Y576000
X216000Y576000
X206000Y576000
X196000Y576000
X186000Y576000
X176000Y576000
X151000Y576000
X141000Y576000
X131000Y576000
X121000Y576000
X111000Y576000
X101000Y576000
X71000Y576000
X61000Y576000
X51000Y576000
X41000Y576000
X31000Y576000
X21000Y576000
X21000Y381000
X21000Y371000
X21000Y361000
X21000Y351000
X21000Y341000
X21000Y331000
X21000Y321000
X21000Y311000
X21000Y271000
X21000Y261000
X21000Y251000
X21000Y241000
X21000Y231000
X21000Y221000
X101000Y81000
X101000Y71000
X111000Y71000
X111000Y81000
X121000Y81000
X121000Y71000
X131000Y71000
X131000Y81000
X141000Y81000
X141000Y71000
X151000Y71000
X151000Y81000
X161000Y81000
X161000Y71000
X171000Y71000
X171000Y81000
X181000Y81000
X181000Y71000
X191000Y71000
X191000Y81000
X201000Y81000
X201000Y71000
X211000Y71000
X211000Y81000
X221000Y81000
X221000Y71000
X231000Y71000
X231000Y81000
X241000Y81000
X241000Y71000
X251000Y71000
X251000Y81000
X261000Y81000
X261000Y71000
X271000Y71000
X271000Y81000
X296000Y236000
X296000Y246000
X296000Y256000
X296000Y266000
X296000Y276000
X296000Y286000
X296000Y296000
X296000Y306000
X296000Y316000
X296000Y326000
X296000Y336000
X296000Y346000
X296000Y356000
X296000Y366000
X296000Y376000
X296000Y386000
X296000Y396000
X296000Y406000
X291000Y576000
X301000Y576000
T03
X71315Y32772
X91000Y32772
X110685Y32772
X136157Y29228
X155843Y29228
X181315Y29228
X201000Y29228
X220685Y29228
X246315Y29228
X266000Y29228
X285685Y29228
X311315Y29228
X331000Y29228
X350685Y29228
X347772Y171315
X347772Y191000
X347772Y210685
X347772Y236315
X347772Y256000
X347772Y275685
X347772Y301315
X347772Y321000
X347772Y340685
X347772Y366315
X347772Y386000
X347772Y405685
X347772Y431315
X347772Y451000
X347772Y470685
X347772Y501315
X347772Y521000
X347772Y540685
M30
