G75*
%MOIN*%
%OFA0B0*%
%FSLAX25Y25*%
%IPPOS*%
%LPD*%
%AMOC8*
5,1,8,0,0,1.08239X$1,22.5*
%
%ADD10C,0.00600*%
%ADD11C,0.00800*%
%ADD12C,0.01000*%
D10*
X0016000Y0008500D02*
X0018500Y0006000D01*
X0023500Y0006000D01*
X0026000Y0008500D01*
X0028500Y0006000D01*
X0033500Y0006000D01*
X0036000Y0008500D01*
X0036000Y0013500D01*
X0033500Y0016000D01*
X0028500Y0016000D01*
X0026000Y0013500D01*
X0026000Y0008500D01*
X0026000Y0013500D02*
X0023500Y0016000D01*
X0018500Y0016000D01*
X0016000Y0013500D01*
X0016000Y0008500D01*
X0036000Y0008500D02*
X0038500Y0006000D01*
X0043500Y0006000D01*
X0046000Y0008500D01*
X0048500Y0006000D01*
X0053500Y0006000D01*
X0056000Y0008500D01*
X0058500Y0006000D01*
X0063500Y0006000D01*
X0066000Y0008500D01*
X0066000Y0013500D01*
X0063500Y0016000D01*
X0058500Y0016000D01*
X0056000Y0013500D01*
X0056000Y0008500D01*
X0056000Y0013500D02*
X0053500Y0016000D01*
X0048500Y0016000D01*
X0046000Y0013500D01*
X0046000Y0008500D01*
X0046000Y0013500D02*
X0043500Y0016000D01*
X0038500Y0016000D01*
X0036000Y0013500D01*
X0066000Y0013500D02*
X0068500Y0016000D01*
X0073500Y0016000D01*
X0076000Y0013500D01*
X0078500Y0016000D01*
X0083500Y0016000D01*
X0086000Y0013500D01*
X0088500Y0016000D01*
X0093500Y0016000D01*
X0096000Y0013500D01*
X0096000Y0008500D01*
X0093500Y0006000D01*
X0088500Y0006000D01*
X0086000Y0008500D01*
X0083500Y0006000D01*
X0078500Y0006000D01*
X0076000Y0008500D01*
X0073500Y0006000D01*
X0068500Y0006000D01*
X0066000Y0008500D01*
X0076000Y0008500D02*
X0076000Y0013500D01*
X0086000Y0013500D02*
X0086000Y0008500D01*
X0096000Y0008500D02*
X0098500Y0006000D01*
X0103500Y0006000D01*
X0106000Y0008500D01*
X0108500Y0006000D01*
X0113500Y0006000D01*
X0116000Y0008500D01*
X0118500Y0006000D01*
X0123500Y0006000D01*
X0126000Y0008500D01*
X0126000Y0013500D01*
X0123500Y0016000D01*
X0118500Y0016000D01*
X0116000Y0013500D01*
X0116000Y0008500D01*
X0116000Y0013500D02*
X0113500Y0016000D01*
X0108500Y0016000D01*
X0106000Y0013500D01*
X0106000Y0008500D01*
X0106000Y0013500D02*
X0103500Y0016000D01*
X0098500Y0016000D01*
X0096000Y0013500D01*
X0126000Y0013500D02*
X0128500Y0016000D01*
X0133500Y0016000D01*
X0136000Y0013500D01*
X0138500Y0016000D01*
X0143500Y0016000D01*
X0146000Y0013500D01*
X0146000Y0008500D01*
X0143500Y0006000D01*
X0138500Y0006000D01*
X0136000Y0008500D01*
X0133500Y0006000D01*
X0128500Y0006000D01*
X0126000Y0008500D01*
X0136000Y0008500D02*
X0136000Y0013500D01*
X0126000Y0051000D02*
X0126003Y0051245D01*
X0126012Y0051491D01*
X0126027Y0051736D01*
X0126048Y0051980D01*
X0126075Y0052224D01*
X0126108Y0052467D01*
X0126147Y0052710D01*
X0126192Y0052951D01*
X0126243Y0053191D01*
X0126300Y0053430D01*
X0126362Y0053667D01*
X0126431Y0053903D01*
X0126505Y0054137D01*
X0126585Y0054369D01*
X0126670Y0054599D01*
X0126761Y0054827D01*
X0126858Y0055052D01*
X0126960Y0055276D01*
X0127068Y0055496D01*
X0127181Y0055714D01*
X0127299Y0055929D01*
X0127423Y0056141D01*
X0127551Y0056350D01*
X0127685Y0056556D01*
X0127824Y0056758D01*
X0127968Y0056957D01*
X0128117Y0057152D01*
X0128270Y0057344D01*
X0128428Y0057532D01*
X0128590Y0057716D01*
X0128758Y0057895D01*
X0128929Y0058071D01*
X0129105Y0058242D01*
X0129284Y0058410D01*
X0129468Y0058572D01*
X0129656Y0058730D01*
X0129848Y0058883D01*
X0130043Y0059032D01*
X0130242Y0059176D01*
X0130444Y0059315D01*
X0130650Y0059449D01*
X0130859Y0059577D01*
X0131071Y0059701D01*
X0131286Y0059819D01*
X0131504Y0059932D01*
X0131724Y0060040D01*
X0131948Y0060142D01*
X0132173Y0060239D01*
X0132401Y0060330D01*
X0132631Y0060415D01*
X0132863Y0060495D01*
X0133097Y0060569D01*
X0133333Y0060638D01*
X0133570Y0060700D01*
X0133809Y0060757D01*
X0134049Y0060808D01*
X0134290Y0060853D01*
X0134533Y0060892D01*
X0134776Y0060925D01*
X0135020Y0060952D01*
X0135264Y0060973D01*
X0135509Y0060988D01*
X0135755Y0060997D01*
X0136000Y0061000D01*
X0136245Y0060997D01*
X0136491Y0060988D01*
X0136736Y0060973D01*
X0136980Y0060952D01*
X0137224Y0060925D01*
X0137467Y0060892D01*
X0137710Y0060853D01*
X0137951Y0060808D01*
X0138191Y0060757D01*
X0138430Y0060700D01*
X0138667Y0060638D01*
X0138903Y0060569D01*
X0139137Y0060495D01*
X0139369Y0060415D01*
X0139599Y0060330D01*
X0139827Y0060239D01*
X0140052Y0060142D01*
X0140276Y0060040D01*
X0140496Y0059932D01*
X0140714Y0059819D01*
X0140929Y0059701D01*
X0141141Y0059577D01*
X0141350Y0059449D01*
X0141556Y0059315D01*
X0141758Y0059176D01*
X0141957Y0059032D01*
X0142152Y0058883D01*
X0142344Y0058730D01*
X0142532Y0058572D01*
X0142716Y0058410D01*
X0142895Y0058242D01*
X0143071Y0058071D01*
X0143242Y0057895D01*
X0143410Y0057716D01*
X0143572Y0057532D01*
X0143730Y0057344D01*
X0143883Y0057152D01*
X0144032Y0056957D01*
X0144176Y0056758D01*
X0144315Y0056556D01*
X0144449Y0056350D01*
X0144577Y0056141D01*
X0144701Y0055929D01*
X0144819Y0055714D01*
X0144932Y0055496D01*
X0145040Y0055276D01*
X0145142Y0055052D01*
X0145239Y0054827D01*
X0145330Y0054599D01*
X0145415Y0054369D01*
X0145495Y0054137D01*
X0145569Y0053903D01*
X0145638Y0053667D01*
X0145700Y0053430D01*
X0145757Y0053191D01*
X0145808Y0052951D01*
X0145853Y0052710D01*
X0145892Y0052467D01*
X0145925Y0052224D01*
X0145952Y0051980D01*
X0145973Y0051736D01*
X0145988Y0051491D01*
X0145997Y0051245D01*
X0146000Y0051000D01*
X0145997Y0050755D01*
X0145988Y0050509D01*
X0145973Y0050264D01*
X0145952Y0050020D01*
X0145925Y0049776D01*
X0145892Y0049533D01*
X0145853Y0049290D01*
X0145808Y0049049D01*
X0145757Y0048809D01*
X0145700Y0048570D01*
X0145638Y0048333D01*
X0145569Y0048097D01*
X0145495Y0047863D01*
X0145415Y0047631D01*
X0145330Y0047401D01*
X0145239Y0047173D01*
X0145142Y0046948D01*
X0145040Y0046724D01*
X0144932Y0046504D01*
X0144819Y0046286D01*
X0144701Y0046071D01*
X0144577Y0045859D01*
X0144449Y0045650D01*
X0144315Y0045444D01*
X0144176Y0045242D01*
X0144032Y0045043D01*
X0143883Y0044848D01*
X0143730Y0044656D01*
X0143572Y0044468D01*
X0143410Y0044284D01*
X0143242Y0044105D01*
X0143071Y0043929D01*
X0142895Y0043758D01*
X0142716Y0043590D01*
X0142532Y0043428D01*
X0142344Y0043270D01*
X0142152Y0043117D01*
X0141957Y0042968D01*
X0141758Y0042824D01*
X0141556Y0042685D01*
X0141350Y0042551D01*
X0141141Y0042423D01*
X0140929Y0042299D01*
X0140714Y0042181D01*
X0140496Y0042068D01*
X0140276Y0041960D01*
X0140052Y0041858D01*
X0139827Y0041761D01*
X0139599Y0041670D01*
X0139369Y0041585D01*
X0139137Y0041505D01*
X0138903Y0041431D01*
X0138667Y0041362D01*
X0138430Y0041300D01*
X0138191Y0041243D01*
X0137951Y0041192D01*
X0137710Y0041147D01*
X0137467Y0041108D01*
X0137224Y0041075D01*
X0136980Y0041048D01*
X0136736Y0041027D01*
X0136491Y0041012D01*
X0136245Y0041003D01*
X0136000Y0041000D01*
X0135755Y0041003D01*
X0135509Y0041012D01*
X0135264Y0041027D01*
X0135020Y0041048D01*
X0134776Y0041075D01*
X0134533Y0041108D01*
X0134290Y0041147D01*
X0134049Y0041192D01*
X0133809Y0041243D01*
X0133570Y0041300D01*
X0133333Y0041362D01*
X0133097Y0041431D01*
X0132863Y0041505D01*
X0132631Y0041585D01*
X0132401Y0041670D01*
X0132173Y0041761D01*
X0131948Y0041858D01*
X0131724Y0041960D01*
X0131504Y0042068D01*
X0131286Y0042181D01*
X0131071Y0042299D01*
X0130859Y0042423D01*
X0130650Y0042551D01*
X0130444Y0042685D01*
X0130242Y0042824D01*
X0130043Y0042968D01*
X0129848Y0043117D01*
X0129656Y0043270D01*
X0129468Y0043428D01*
X0129284Y0043590D01*
X0129105Y0043758D01*
X0128929Y0043929D01*
X0128758Y0044105D01*
X0128590Y0044284D01*
X0128428Y0044468D01*
X0128270Y0044656D01*
X0128117Y0044848D01*
X0127968Y0045043D01*
X0127824Y0045242D01*
X0127685Y0045444D01*
X0127551Y0045650D01*
X0127423Y0045859D01*
X0127299Y0046071D01*
X0127181Y0046286D01*
X0127068Y0046504D01*
X0126960Y0046724D01*
X0126858Y0046948D01*
X0126761Y0047173D01*
X0126670Y0047401D01*
X0126585Y0047631D01*
X0126505Y0047863D01*
X0126431Y0048097D01*
X0126362Y0048333D01*
X0126300Y0048570D01*
X0126243Y0048809D01*
X0126192Y0049049D01*
X0126147Y0049290D01*
X0126108Y0049533D01*
X0126075Y0049776D01*
X0126048Y0050020D01*
X0126027Y0050264D01*
X0126012Y0050509D01*
X0126003Y0050755D01*
X0126000Y0051000D01*
X0091000Y0051000D02*
X0091003Y0051245D01*
X0091012Y0051491D01*
X0091027Y0051736D01*
X0091048Y0051980D01*
X0091075Y0052224D01*
X0091108Y0052467D01*
X0091147Y0052710D01*
X0091192Y0052951D01*
X0091243Y0053191D01*
X0091300Y0053430D01*
X0091362Y0053667D01*
X0091431Y0053903D01*
X0091505Y0054137D01*
X0091585Y0054369D01*
X0091670Y0054599D01*
X0091761Y0054827D01*
X0091858Y0055052D01*
X0091960Y0055276D01*
X0092068Y0055496D01*
X0092181Y0055714D01*
X0092299Y0055929D01*
X0092423Y0056141D01*
X0092551Y0056350D01*
X0092685Y0056556D01*
X0092824Y0056758D01*
X0092968Y0056957D01*
X0093117Y0057152D01*
X0093270Y0057344D01*
X0093428Y0057532D01*
X0093590Y0057716D01*
X0093758Y0057895D01*
X0093929Y0058071D01*
X0094105Y0058242D01*
X0094284Y0058410D01*
X0094468Y0058572D01*
X0094656Y0058730D01*
X0094848Y0058883D01*
X0095043Y0059032D01*
X0095242Y0059176D01*
X0095444Y0059315D01*
X0095650Y0059449D01*
X0095859Y0059577D01*
X0096071Y0059701D01*
X0096286Y0059819D01*
X0096504Y0059932D01*
X0096724Y0060040D01*
X0096948Y0060142D01*
X0097173Y0060239D01*
X0097401Y0060330D01*
X0097631Y0060415D01*
X0097863Y0060495D01*
X0098097Y0060569D01*
X0098333Y0060638D01*
X0098570Y0060700D01*
X0098809Y0060757D01*
X0099049Y0060808D01*
X0099290Y0060853D01*
X0099533Y0060892D01*
X0099776Y0060925D01*
X0100020Y0060952D01*
X0100264Y0060973D01*
X0100509Y0060988D01*
X0100755Y0060997D01*
X0101000Y0061000D01*
X0101245Y0060997D01*
X0101491Y0060988D01*
X0101736Y0060973D01*
X0101980Y0060952D01*
X0102224Y0060925D01*
X0102467Y0060892D01*
X0102710Y0060853D01*
X0102951Y0060808D01*
X0103191Y0060757D01*
X0103430Y0060700D01*
X0103667Y0060638D01*
X0103903Y0060569D01*
X0104137Y0060495D01*
X0104369Y0060415D01*
X0104599Y0060330D01*
X0104827Y0060239D01*
X0105052Y0060142D01*
X0105276Y0060040D01*
X0105496Y0059932D01*
X0105714Y0059819D01*
X0105929Y0059701D01*
X0106141Y0059577D01*
X0106350Y0059449D01*
X0106556Y0059315D01*
X0106758Y0059176D01*
X0106957Y0059032D01*
X0107152Y0058883D01*
X0107344Y0058730D01*
X0107532Y0058572D01*
X0107716Y0058410D01*
X0107895Y0058242D01*
X0108071Y0058071D01*
X0108242Y0057895D01*
X0108410Y0057716D01*
X0108572Y0057532D01*
X0108730Y0057344D01*
X0108883Y0057152D01*
X0109032Y0056957D01*
X0109176Y0056758D01*
X0109315Y0056556D01*
X0109449Y0056350D01*
X0109577Y0056141D01*
X0109701Y0055929D01*
X0109819Y0055714D01*
X0109932Y0055496D01*
X0110040Y0055276D01*
X0110142Y0055052D01*
X0110239Y0054827D01*
X0110330Y0054599D01*
X0110415Y0054369D01*
X0110495Y0054137D01*
X0110569Y0053903D01*
X0110638Y0053667D01*
X0110700Y0053430D01*
X0110757Y0053191D01*
X0110808Y0052951D01*
X0110853Y0052710D01*
X0110892Y0052467D01*
X0110925Y0052224D01*
X0110952Y0051980D01*
X0110973Y0051736D01*
X0110988Y0051491D01*
X0110997Y0051245D01*
X0111000Y0051000D01*
X0110997Y0050755D01*
X0110988Y0050509D01*
X0110973Y0050264D01*
X0110952Y0050020D01*
X0110925Y0049776D01*
X0110892Y0049533D01*
X0110853Y0049290D01*
X0110808Y0049049D01*
X0110757Y0048809D01*
X0110700Y0048570D01*
X0110638Y0048333D01*
X0110569Y0048097D01*
X0110495Y0047863D01*
X0110415Y0047631D01*
X0110330Y0047401D01*
X0110239Y0047173D01*
X0110142Y0046948D01*
X0110040Y0046724D01*
X0109932Y0046504D01*
X0109819Y0046286D01*
X0109701Y0046071D01*
X0109577Y0045859D01*
X0109449Y0045650D01*
X0109315Y0045444D01*
X0109176Y0045242D01*
X0109032Y0045043D01*
X0108883Y0044848D01*
X0108730Y0044656D01*
X0108572Y0044468D01*
X0108410Y0044284D01*
X0108242Y0044105D01*
X0108071Y0043929D01*
X0107895Y0043758D01*
X0107716Y0043590D01*
X0107532Y0043428D01*
X0107344Y0043270D01*
X0107152Y0043117D01*
X0106957Y0042968D01*
X0106758Y0042824D01*
X0106556Y0042685D01*
X0106350Y0042551D01*
X0106141Y0042423D01*
X0105929Y0042299D01*
X0105714Y0042181D01*
X0105496Y0042068D01*
X0105276Y0041960D01*
X0105052Y0041858D01*
X0104827Y0041761D01*
X0104599Y0041670D01*
X0104369Y0041585D01*
X0104137Y0041505D01*
X0103903Y0041431D01*
X0103667Y0041362D01*
X0103430Y0041300D01*
X0103191Y0041243D01*
X0102951Y0041192D01*
X0102710Y0041147D01*
X0102467Y0041108D01*
X0102224Y0041075D01*
X0101980Y0041048D01*
X0101736Y0041027D01*
X0101491Y0041012D01*
X0101245Y0041003D01*
X0101000Y0041000D01*
X0100755Y0041003D01*
X0100509Y0041012D01*
X0100264Y0041027D01*
X0100020Y0041048D01*
X0099776Y0041075D01*
X0099533Y0041108D01*
X0099290Y0041147D01*
X0099049Y0041192D01*
X0098809Y0041243D01*
X0098570Y0041300D01*
X0098333Y0041362D01*
X0098097Y0041431D01*
X0097863Y0041505D01*
X0097631Y0041585D01*
X0097401Y0041670D01*
X0097173Y0041761D01*
X0096948Y0041858D01*
X0096724Y0041960D01*
X0096504Y0042068D01*
X0096286Y0042181D01*
X0096071Y0042299D01*
X0095859Y0042423D01*
X0095650Y0042551D01*
X0095444Y0042685D01*
X0095242Y0042824D01*
X0095043Y0042968D01*
X0094848Y0043117D01*
X0094656Y0043270D01*
X0094468Y0043428D01*
X0094284Y0043590D01*
X0094105Y0043758D01*
X0093929Y0043929D01*
X0093758Y0044105D01*
X0093590Y0044284D01*
X0093428Y0044468D01*
X0093270Y0044656D01*
X0093117Y0044848D01*
X0092968Y0045043D01*
X0092824Y0045242D01*
X0092685Y0045444D01*
X0092551Y0045650D01*
X0092423Y0045859D01*
X0092299Y0046071D01*
X0092181Y0046286D01*
X0092068Y0046504D01*
X0091960Y0046724D01*
X0091858Y0046948D01*
X0091761Y0047173D01*
X0091670Y0047401D01*
X0091585Y0047631D01*
X0091505Y0047863D01*
X0091431Y0048097D01*
X0091362Y0048333D01*
X0091300Y0048570D01*
X0091243Y0048809D01*
X0091192Y0049049D01*
X0091147Y0049290D01*
X0091108Y0049533D01*
X0091075Y0049776D01*
X0091048Y0050020D01*
X0091027Y0050264D01*
X0091012Y0050509D01*
X0091003Y0050755D01*
X0091000Y0051000D01*
X0051000Y0051000D02*
X0051003Y0051245D01*
X0051012Y0051491D01*
X0051027Y0051736D01*
X0051048Y0051980D01*
X0051075Y0052224D01*
X0051108Y0052467D01*
X0051147Y0052710D01*
X0051192Y0052951D01*
X0051243Y0053191D01*
X0051300Y0053430D01*
X0051362Y0053667D01*
X0051431Y0053903D01*
X0051505Y0054137D01*
X0051585Y0054369D01*
X0051670Y0054599D01*
X0051761Y0054827D01*
X0051858Y0055052D01*
X0051960Y0055276D01*
X0052068Y0055496D01*
X0052181Y0055714D01*
X0052299Y0055929D01*
X0052423Y0056141D01*
X0052551Y0056350D01*
X0052685Y0056556D01*
X0052824Y0056758D01*
X0052968Y0056957D01*
X0053117Y0057152D01*
X0053270Y0057344D01*
X0053428Y0057532D01*
X0053590Y0057716D01*
X0053758Y0057895D01*
X0053929Y0058071D01*
X0054105Y0058242D01*
X0054284Y0058410D01*
X0054468Y0058572D01*
X0054656Y0058730D01*
X0054848Y0058883D01*
X0055043Y0059032D01*
X0055242Y0059176D01*
X0055444Y0059315D01*
X0055650Y0059449D01*
X0055859Y0059577D01*
X0056071Y0059701D01*
X0056286Y0059819D01*
X0056504Y0059932D01*
X0056724Y0060040D01*
X0056948Y0060142D01*
X0057173Y0060239D01*
X0057401Y0060330D01*
X0057631Y0060415D01*
X0057863Y0060495D01*
X0058097Y0060569D01*
X0058333Y0060638D01*
X0058570Y0060700D01*
X0058809Y0060757D01*
X0059049Y0060808D01*
X0059290Y0060853D01*
X0059533Y0060892D01*
X0059776Y0060925D01*
X0060020Y0060952D01*
X0060264Y0060973D01*
X0060509Y0060988D01*
X0060755Y0060997D01*
X0061000Y0061000D01*
X0061245Y0060997D01*
X0061491Y0060988D01*
X0061736Y0060973D01*
X0061980Y0060952D01*
X0062224Y0060925D01*
X0062467Y0060892D01*
X0062710Y0060853D01*
X0062951Y0060808D01*
X0063191Y0060757D01*
X0063430Y0060700D01*
X0063667Y0060638D01*
X0063903Y0060569D01*
X0064137Y0060495D01*
X0064369Y0060415D01*
X0064599Y0060330D01*
X0064827Y0060239D01*
X0065052Y0060142D01*
X0065276Y0060040D01*
X0065496Y0059932D01*
X0065714Y0059819D01*
X0065929Y0059701D01*
X0066141Y0059577D01*
X0066350Y0059449D01*
X0066556Y0059315D01*
X0066758Y0059176D01*
X0066957Y0059032D01*
X0067152Y0058883D01*
X0067344Y0058730D01*
X0067532Y0058572D01*
X0067716Y0058410D01*
X0067895Y0058242D01*
X0068071Y0058071D01*
X0068242Y0057895D01*
X0068410Y0057716D01*
X0068572Y0057532D01*
X0068730Y0057344D01*
X0068883Y0057152D01*
X0069032Y0056957D01*
X0069176Y0056758D01*
X0069315Y0056556D01*
X0069449Y0056350D01*
X0069577Y0056141D01*
X0069701Y0055929D01*
X0069819Y0055714D01*
X0069932Y0055496D01*
X0070040Y0055276D01*
X0070142Y0055052D01*
X0070239Y0054827D01*
X0070330Y0054599D01*
X0070415Y0054369D01*
X0070495Y0054137D01*
X0070569Y0053903D01*
X0070638Y0053667D01*
X0070700Y0053430D01*
X0070757Y0053191D01*
X0070808Y0052951D01*
X0070853Y0052710D01*
X0070892Y0052467D01*
X0070925Y0052224D01*
X0070952Y0051980D01*
X0070973Y0051736D01*
X0070988Y0051491D01*
X0070997Y0051245D01*
X0071000Y0051000D01*
X0070997Y0050755D01*
X0070988Y0050509D01*
X0070973Y0050264D01*
X0070952Y0050020D01*
X0070925Y0049776D01*
X0070892Y0049533D01*
X0070853Y0049290D01*
X0070808Y0049049D01*
X0070757Y0048809D01*
X0070700Y0048570D01*
X0070638Y0048333D01*
X0070569Y0048097D01*
X0070495Y0047863D01*
X0070415Y0047631D01*
X0070330Y0047401D01*
X0070239Y0047173D01*
X0070142Y0046948D01*
X0070040Y0046724D01*
X0069932Y0046504D01*
X0069819Y0046286D01*
X0069701Y0046071D01*
X0069577Y0045859D01*
X0069449Y0045650D01*
X0069315Y0045444D01*
X0069176Y0045242D01*
X0069032Y0045043D01*
X0068883Y0044848D01*
X0068730Y0044656D01*
X0068572Y0044468D01*
X0068410Y0044284D01*
X0068242Y0044105D01*
X0068071Y0043929D01*
X0067895Y0043758D01*
X0067716Y0043590D01*
X0067532Y0043428D01*
X0067344Y0043270D01*
X0067152Y0043117D01*
X0066957Y0042968D01*
X0066758Y0042824D01*
X0066556Y0042685D01*
X0066350Y0042551D01*
X0066141Y0042423D01*
X0065929Y0042299D01*
X0065714Y0042181D01*
X0065496Y0042068D01*
X0065276Y0041960D01*
X0065052Y0041858D01*
X0064827Y0041761D01*
X0064599Y0041670D01*
X0064369Y0041585D01*
X0064137Y0041505D01*
X0063903Y0041431D01*
X0063667Y0041362D01*
X0063430Y0041300D01*
X0063191Y0041243D01*
X0062951Y0041192D01*
X0062710Y0041147D01*
X0062467Y0041108D01*
X0062224Y0041075D01*
X0061980Y0041048D01*
X0061736Y0041027D01*
X0061491Y0041012D01*
X0061245Y0041003D01*
X0061000Y0041000D01*
X0060755Y0041003D01*
X0060509Y0041012D01*
X0060264Y0041027D01*
X0060020Y0041048D01*
X0059776Y0041075D01*
X0059533Y0041108D01*
X0059290Y0041147D01*
X0059049Y0041192D01*
X0058809Y0041243D01*
X0058570Y0041300D01*
X0058333Y0041362D01*
X0058097Y0041431D01*
X0057863Y0041505D01*
X0057631Y0041585D01*
X0057401Y0041670D01*
X0057173Y0041761D01*
X0056948Y0041858D01*
X0056724Y0041960D01*
X0056504Y0042068D01*
X0056286Y0042181D01*
X0056071Y0042299D01*
X0055859Y0042423D01*
X0055650Y0042551D01*
X0055444Y0042685D01*
X0055242Y0042824D01*
X0055043Y0042968D01*
X0054848Y0043117D01*
X0054656Y0043270D01*
X0054468Y0043428D01*
X0054284Y0043590D01*
X0054105Y0043758D01*
X0053929Y0043929D01*
X0053758Y0044105D01*
X0053590Y0044284D01*
X0053428Y0044468D01*
X0053270Y0044656D01*
X0053117Y0044848D01*
X0052968Y0045043D01*
X0052824Y0045242D01*
X0052685Y0045444D01*
X0052551Y0045650D01*
X0052423Y0045859D01*
X0052299Y0046071D01*
X0052181Y0046286D01*
X0052068Y0046504D01*
X0051960Y0046724D01*
X0051858Y0046948D01*
X0051761Y0047173D01*
X0051670Y0047401D01*
X0051585Y0047631D01*
X0051505Y0047863D01*
X0051431Y0048097D01*
X0051362Y0048333D01*
X0051300Y0048570D01*
X0051243Y0048809D01*
X0051192Y0049049D01*
X0051147Y0049290D01*
X0051108Y0049533D01*
X0051075Y0049776D01*
X0051048Y0050020D01*
X0051027Y0050264D01*
X0051012Y0050509D01*
X0051003Y0050755D01*
X0051000Y0051000D01*
X0006000Y0051000D02*
X0006003Y0051245D01*
X0006012Y0051491D01*
X0006027Y0051736D01*
X0006048Y0051980D01*
X0006075Y0052224D01*
X0006108Y0052467D01*
X0006147Y0052710D01*
X0006192Y0052951D01*
X0006243Y0053191D01*
X0006300Y0053430D01*
X0006362Y0053667D01*
X0006431Y0053903D01*
X0006505Y0054137D01*
X0006585Y0054369D01*
X0006670Y0054599D01*
X0006761Y0054827D01*
X0006858Y0055052D01*
X0006960Y0055276D01*
X0007068Y0055496D01*
X0007181Y0055714D01*
X0007299Y0055929D01*
X0007423Y0056141D01*
X0007551Y0056350D01*
X0007685Y0056556D01*
X0007824Y0056758D01*
X0007968Y0056957D01*
X0008117Y0057152D01*
X0008270Y0057344D01*
X0008428Y0057532D01*
X0008590Y0057716D01*
X0008758Y0057895D01*
X0008929Y0058071D01*
X0009105Y0058242D01*
X0009284Y0058410D01*
X0009468Y0058572D01*
X0009656Y0058730D01*
X0009848Y0058883D01*
X0010043Y0059032D01*
X0010242Y0059176D01*
X0010444Y0059315D01*
X0010650Y0059449D01*
X0010859Y0059577D01*
X0011071Y0059701D01*
X0011286Y0059819D01*
X0011504Y0059932D01*
X0011724Y0060040D01*
X0011948Y0060142D01*
X0012173Y0060239D01*
X0012401Y0060330D01*
X0012631Y0060415D01*
X0012863Y0060495D01*
X0013097Y0060569D01*
X0013333Y0060638D01*
X0013570Y0060700D01*
X0013809Y0060757D01*
X0014049Y0060808D01*
X0014290Y0060853D01*
X0014533Y0060892D01*
X0014776Y0060925D01*
X0015020Y0060952D01*
X0015264Y0060973D01*
X0015509Y0060988D01*
X0015755Y0060997D01*
X0016000Y0061000D01*
X0016245Y0060997D01*
X0016491Y0060988D01*
X0016736Y0060973D01*
X0016980Y0060952D01*
X0017224Y0060925D01*
X0017467Y0060892D01*
X0017710Y0060853D01*
X0017951Y0060808D01*
X0018191Y0060757D01*
X0018430Y0060700D01*
X0018667Y0060638D01*
X0018903Y0060569D01*
X0019137Y0060495D01*
X0019369Y0060415D01*
X0019599Y0060330D01*
X0019827Y0060239D01*
X0020052Y0060142D01*
X0020276Y0060040D01*
X0020496Y0059932D01*
X0020714Y0059819D01*
X0020929Y0059701D01*
X0021141Y0059577D01*
X0021350Y0059449D01*
X0021556Y0059315D01*
X0021758Y0059176D01*
X0021957Y0059032D01*
X0022152Y0058883D01*
X0022344Y0058730D01*
X0022532Y0058572D01*
X0022716Y0058410D01*
X0022895Y0058242D01*
X0023071Y0058071D01*
X0023242Y0057895D01*
X0023410Y0057716D01*
X0023572Y0057532D01*
X0023730Y0057344D01*
X0023883Y0057152D01*
X0024032Y0056957D01*
X0024176Y0056758D01*
X0024315Y0056556D01*
X0024449Y0056350D01*
X0024577Y0056141D01*
X0024701Y0055929D01*
X0024819Y0055714D01*
X0024932Y0055496D01*
X0025040Y0055276D01*
X0025142Y0055052D01*
X0025239Y0054827D01*
X0025330Y0054599D01*
X0025415Y0054369D01*
X0025495Y0054137D01*
X0025569Y0053903D01*
X0025638Y0053667D01*
X0025700Y0053430D01*
X0025757Y0053191D01*
X0025808Y0052951D01*
X0025853Y0052710D01*
X0025892Y0052467D01*
X0025925Y0052224D01*
X0025952Y0051980D01*
X0025973Y0051736D01*
X0025988Y0051491D01*
X0025997Y0051245D01*
X0026000Y0051000D01*
X0025997Y0050755D01*
X0025988Y0050509D01*
X0025973Y0050264D01*
X0025952Y0050020D01*
X0025925Y0049776D01*
X0025892Y0049533D01*
X0025853Y0049290D01*
X0025808Y0049049D01*
X0025757Y0048809D01*
X0025700Y0048570D01*
X0025638Y0048333D01*
X0025569Y0048097D01*
X0025495Y0047863D01*
X0025415Y0047631D01*
X0025330Y0047401D01*
X0025239Y0047173D01*
X0025142Y0046948D01*
X0025040Y0046724D01*
X0024932Y0046504D01*
X0024819Y0046286D01*
X0024701Y0046071D01*
X0024577Y0045859D01*
X0024449Y0045650D01*
X0024315Y0045444D01*
X0024176Y0045242D01*
X0024032Y0045043D01*
X0023883Y0044848D01*
X0023730Y0044656D01*
X0023572Y0044468D01*
X0023410Y0044284D01*
X0023242Y0044105D01*
X0023071Y0043929D01*
X0022895Y0043758D01*
X0022716Y0043590D01*
X0022532Y0043428D01*
X0022344Y0043270D01*
X0022152Y0043117D01*
X0021957Y0042968D01*
X0021758Y0042824D01*
X0021556Y0042685D01*
X0021350Y0042551D01*
X0021141Y0042423D01*
X0020929Y0042299D01*
X0020714Y0042181D01*
X0020496Y0042068D01*
X0020276Y0041960D01*
X0020052Y0041858D01*
X0019827Y0041761D01*
X0019599Y0041670D01*
X0019369Y0041585D01*
X0019137Y0041505D01*
X0018903Y0041431D01*
X0018667Y0041362D01*
X0018430Y0041300D01*
X0018191Y0041243D01*
X0017951Y0041192D01*
X0017710Y0041147D01*
X0017467Y0041108D01*
X0017224Y0041075D01*
X0016980Y0041048D01*
X0016736Y0041027D01*
X0016491Y0041012D01*
X0016245Y0041003D01*
X0016000Y0041000D01*
X0015755Y0041003D01*
X0015509Y0041012D01*
X0015264Y0041027D01*
X0015020Y0041048D01*
X0014776Y0041075D01*
X0014533Y0041108D01*
X0014290Y0041147D01*
X0014049Y0041192D01*
X0013809Y0041243D01*
X0013570Y0041300D01*
X0013333Y0041362D01*
X0013097Y0041431D01*
X0012863Y0041505D01*
X0012631Y0041585D01*
X0012401Y0041670D01*
X0012173Y0041761D01*
X0011948Y0041858D01*
X0011724Y0041960D01*
X0011504Y0042068D01*
X0011286Y0042181D01*
X0011071Y0042299D01*
X0010859Y0042423D01*
X0010650Y0042551D01*
X0010444Y0042685D01*
X0010242Y0042824D01*
X0010043Y0042968D01*
X0009848Y0043117D01*
X0009656Y0043270D01*
X0009468Y0043428D01*
X0009284Y0043590D01*
X0009105Y0043758D01*
X0008929Y0043929D01*
X0008758Y0044105D01*
X0008590Y0044284D01*
X0008428Y0044468D01*
X0008270Y0044656D01*
X0008117Y0044848D01*
X0007968Y0045043D01*
X0007824Y0045242D01*
X0007685Y0045444D01*
X0007551Y0045650D01*
X0007423Y0045859D01*
X0007299Y0046071D01*
X0007181Y0046286D01*
X0007068Y0046504D01*
X0006960Y0046724D01*
X0006858Y0046948D01*
X0006761Y0047173D01*
X0006670Y0047401D01*
X0006585Y0047631D01*
X0006505Y0047863D01*
X0006431Y0048097D01*
X0006362Y0048333D01*
X0006300Y0048570D01*
X0006243Y0048809D01*
X0006192Y0049049D01*
X0006147Y0049290D01*
X0006108Y0049533D01*
X0006075Y0049776D01*
X0006048Y0050020D01*
X0006027Y0050264D01*
X0006012Y0050509D01*
X0006003Y0050755D01*
X0006000Y0051000D01*
X0006000Y0091000D02*
X0006003Y0091245D01*
X0006012Y0091491D01*
X0006027Y0091736D01*
X0006048Y0091980D01*
X0006075Y0092224D01*
X0006108Y0092467D01*
X0006147Y0092710D01*
X0006192Y0092951D01*
X0006243Y0093191D01*
X0006300Y0093430D01*
X0006362Y0093667D01*
X0006431Y0093903D01*
X0006505Y0094137D01*
X0006585Y0094369D01*
X0006670Y0094599D01*
X0006761Y0094827D01*
X0006858Y0095052D01*
X0006960Y0095276D01*
X0007068Y0095496D01*
X0007181Y0095714D01*
X0007299Y0095929D01*
X0007423Y0096141D01*
X0007551Y0096350D01*
X0007685Y0096556D01*
X0007824Y0096758D01*
X0007968Y0096957D01*
X0008117Y0097152D01*
X0008270Y0097344D01*
X0008428Y0097532D01*
X0008590Y0097716D01*
X0008758Y0097895D01*
X0008929Y0098071D01*
X0009105Y0098242D01*
X0009284Y0098410D01*
X0009468Y0098572D01*
X0009656Y0098730D01*
X0009848Y0098883D01*
X0010043Y0099032D01*
X0010242Y0099176D01*
X0010444Y0099315D01*
X0010650Y0099449D01*
X0010859Y0099577D01*
X0011071Y0099701D01*
X0011286Y0099819D01*
X0011504Y0099932D01*
X0011724Y0100040D01*
X0011948Y0100142D01*
X0012173Y0100239D01*
X0012401Y0100330D01*
X0012631Y0100415D01*
X0012863Y0100495D01*
X0013097Y0100569D01*
X0013333Y0100638D01*
X0013570Y0100700D01*
X0013809Y0100757D01*
X0014049Y0100808D01*
X0014290Y0100853D01*
X0014533Y0100892D01*
X0014776Y0100925D01*
X0015020Y0100952D01*
X0015264Y0100973D01*
X0015509Y0100988D01*
X0015755Y0100997D01*
X0016000Y0101000D01*
X0016245Y0100997D01*
X0016491Y0100988D01*
X0016736Y0100973D01*
X0016980Y0100952D01*
X0017224Y0100925D01*
X0017467Y0100892D01*
X0017710Y0100853D01*
X0017951Y0100808D01*
X0018191Y0100757D01*
X0018430Y0100700D01*
X0018667Y0100638D01*
X0018903Y0100569D01*
X0019137Y0100495D01*
X0019369Y0100415D01*
X0019599Y0100330D01*
X0019827Y0100239D01*
X0020052Y0100142D01*
X0020276Y0100040D01*
X0020496Y0099932D01*
X0020714Y0099819D01*
X0020929Y0099701D01*
X0021141Y0099577D01*
X0021350Y0099449D01*
X0021556Y0099315D01*
X0021758Y0099176D01*
X0021957Y0099032D01*
X0022152Y0098883D01*
X0022344Y0098730D01*
X0022532Y0098572D01*
X0022716Y0098410D01*
X0022895Y0098242D01*
X0023071Y0098071D01*
X0023242Y0097895D01*
X0023410Y0097716D01*
X0023572Y0097532D01*
X0023730Y0097344D01*
X0023883Y0097152D01*
X0024032Y0096957D01*
X0024176Y0096758D01*
X0024315Y0096556D01*
X0024449Y0096350D01*
X0024577Y0096141D01*
X0024701Y0095929D01*
X0024819Y0095714D01*
X0024932Y0095496D01*
X0025040Y0095276D01*
X0025142Y0095052D01*
X0025239Y0094827D01*
X0025330Y0094599D01*
X0025415Y0094369D01*
X0025495Y0094137D01*
X0025569Y0093903D01*
X0025638Y0093667D01*
X0025700Y0093430D01*
X0025757Y0093191D01*
X0025808Y0092951D01*
X0025853Y0092710D01*
X0025892Y0092467D01*
X0025925Y0092224D01*
X0025952Y0091980D01*
X0025973Y0091736D01*
X0025988Y0091491D01*
X0025997Y0091245D01*
X0026000Y0091000D01*
X0025997Y0090755D01*
X0025988Y0090509D01*
X0025973Y0090264D01*
X0025952Y0090020D01*
X0025925Y0089776D01*
X0025892Y0089533D01*
X0025853Y0089290D01*
X0025808Y0089049D01*
X0025757Y0088809D01*
X0025700Y0088570D01*
X0025638Y0088333D01*
X0025569Y0088097D01*
X0025495Y0087863D01*
X0025415Y0087631D01*
X0025330Y0087401D01*
X0025239Y0087173D01*
X0025142Y0086948D01*
X0025040Y0086724D01*
X0024932Y0086504D01*
X0024819Y0086286D01*
X0024701Y0086071D01*
X0024577Y0085859D01*
X0024449Y0085650D01*
X0024315Y0085444D01*
X0024176Y0085242D01*
X0024032Y0085043D01*
X0023883Y0084848D01*
X0023730Y0084656D01*
X0023572Y0084468D01*
X0023410Y0084284D01*
X0023242Y0084105D01*
X0023071Y0083929D01*
X0022895Y0083758D01*
X0022716Y0083590D01*
X0022532Y0083428D01*
X0022344Y0083270D01*
X0022152Y0083117D01*
X0021957Y0082968D01*
X0021758Y0082824D01*
X0021556Y0082685D01*
X0021350Y0082551D01*
X0021141Y0082423D01*
X0020929Y0082299D01*
X0020714Y0082181D01*
X0020496Y0082068D01*
X0020276Y0081960D01*
X0020052Y0081858D01*
X0019827Y0081761D01*
X0019599Y0081670D01*
X0019369Y0081585D01*
X0019137Y0081505D01*
X0018903Y0081431D01*
X0018667Y0081362D01*
X0018430Y0081300D01*
X0018191Y0081243D01*
X0017951Y0081192D01*
X0017710Y0081147D01*
X0017467Y0081108D01*
X0017224Y0081075D01*
X0016980Y0081048D01*
X0016736Y0081027D01*
X0016491Y0081012D01*
X0016245Y0081003D01*
X0016000Y0081000D01*
X0015755Y0081003D01*
X0015509Y0081012D01*
X0015264Y0081027D01*
X0015020Y0081048D01*
X0014776Y0081075D01*
X0014533Y0081108D01*
X0014290Y0081147D01*
X0014049Y0081192D01*
X0013809Y0081243D01*
X0013570Y0081300D01*
X0013333Y0081362D01*
X0013097Y0081431D01*
X0012863Y0081505D01*
X0012631Y0081585D01*
X0012401Y0081670D01*
X0012173Y0081761D01*
X0011948Y0081858D01*
X0011724Y0081960D01*
X0011504Y0082068D01*
X0011286Y0082181D01*
X0011071Y0082299D01*
X0010859Y0082423D01*
X0010650Y0082551D01*
X0010444Y0082685D01*
X0010242Y0082824D01*
X0010043Y0082968D01*
X0009848Y0083117D01*
X0009656Y0083270D01*
X0009468Y0083428D01*
X0009284Y0083590D01*
X0009105Y0083758D01*
X0008929Y0083929D01*
X0008758Y0084105D01*
X0008590Y0084284D01*
X0008428Y0084468D01*
X0008270Y0084656D01*
X0008117Y0084848D01*
X0007968Y0085043D01*
X0007824Y0085242D01*
X0007685Y0085444D01*
X0007551Y0085650D01*
X0007423Y0085859D01*
X0007299Y0086071D01*
X0007181Y0086286D01*
X0007068Y0086504D01*
X0006960Y0086724D01*
X0006858Y0086948D01*
X0006761Y0087173D01*
X0006670Y0087401D01*
X0006585Y0087631D01*
X0006505Y0087863D01*
X0006431Y0088097D01*
X0006362Y0088333D01*
X0006300Y0088570D01*
X0006243Y0088809D01*
X0006192Y0089049D01*
X0006147Y0089290D01*
X0006108Y0089533D01*
X0006075Y0089776D01*
X0006048Y0090020D01*
X0006027Y0090264D01*
X0006012Y0090509D01*
X0006003Y0090755D01*
X0006000Y0091000D01*
X0006000Y0131000D02*
X0006003Y0131245D01*
X0006012Y0131491D01*
X0006027Y0131736D01*
X0006048Y0131980D01*
X0006075Y0132224D01*
X0006108Y0132467D01*
X0006147Y0132710D01*
X0006192Y0132951D01*
X0006243Y0133191D01*
X0006300Y0133430D01*
X0006362Y0133667D01*
X0006431Y0133903D01*
X0006505Y0134137D01*
X0006585Y0134369D01*
X0006670Y0134599D01*
X0006761Y0134827D01*
X0006858Y0135052D01*
X0006960Y0135276D01*
X0007068Y0135496D01*
X0007181Y0135714D01*
X0007299Y0135929D01*
X0007423Y0136141D01*
X0007551Y0136350D01*
X0007685Y0136556D01*
X0007824Y0136758D01*
X0007968Y0136957D01*
X0008117Y0137152D01*
X0008270Y0137344D01*
X0008428Y0137532D01*
X0008590Y0137716D01*
X0008758Y0137895D01*
X0008929Y0138071D01*
X0009105Y0138242D01*
X0009284Y0138410D01*
X0009468Y0138572D01*
X0009656Y0138730D01*
X0009848Y0138883D01*
X0010043Y0139032D01*
X0010242Y0139176D01*
X0010444Y0139315D01*
X0010650Y0139449D01*
X0010859Y0139577D01*
X0011071Y0139701D01*
X0011286Y0139819D01*
X0011504Y0139932D01*
X0011724Y0140040D01*
X0011948Y0140142D01*
X0012173Y0140239D01*
X0012401Y0140330D01*
X0012631Y0140415D01*
X0012863Y0140495D01*
X0013097Y0140569D01*
X0013333Y0140638D01*
X0013570Y0140700D01*
X0013809Y0140757D01*
X0014049Y0140808D01*
X0014290Y0140853D01*
X0014533Y0140892D01*
X0014776Y0140925D01*
X0015020Y0140952D01*
X0015264Y0140973D01*
X0015509Y0140988D01*
X0015755Y0140997D01*
X0016000Y0141000D01*
X0016245Y0140997D01*
X0016491Y0140988D01*
X0016736Y0140973D01*
X0016980Y0140952D01*
X0017224Y0140925D01*
X0017467Y0140892D01*
X0017710Y0140853D01*
X0017951Y0140808D01*
X0018191Y0140757D01*
X0018430Y0140700D01*
X0018667Y0140638D01*
X0018903Y0140569D01*
X0019137Y0140495D01*
X0019369Y0140415D01*
X0019599Y0140330D01*
X0019827Y0140239D01*
X0020052Y0140142D01*
X0020276Y0140040D01*
X0020496Y0139932D01*
X0020714Y0139819D01*
X0020929Y0139701D01*
X0021141Y0139577D01*
X0021350Y0139449D01*
X0021556Y0139315D01*
X0021758Y0139176D01*
X0021957Y0139032D01*
X0022152Y0138883D01*
X0022344Y0138730D01*
X0022532Y0138572D01*
X0022716Y0138410D01*
X0022895Y0138242D01*
X0023071Y0138071D01*
X0023242Y0137895D01*
X0023410Y0137716D01*
X0023572Y0137532D01*
X0023730Y0137344D01*
X0023883Y0137152D01*
X0024032Y0136957D01*
X0024176Y0136758D01*
X0024315Y0136556D01*
X0024449Y0136350D01*
X0024577Y0136141D01*
X0024701Y0135929D01*
X0024819Y0135714D01*
X0024932Y0135496D01*
X0025040Y0135276D01*
X0025142Y0135052D01*
X0025239Y0134827D01*
X0025330Y0134599D01*
X0025415Y0134369D01*
X0025495Y0134137D01*
X0025569Y0133903D01*
X0025638Y0133667D01*
X0025700Y0133430D01*
X0025757Y0133191D01*
X0025808Y0132951D01*
X0025853Y0132710D01*
X0025892Y0132467D01*
X0025925Y0132224D01*
X0025952Y0131980D01*
X0025973Y0131736D01*
X0025988Y0131491D01*
X0025997Y0131245D01*
X0026000Y0131000D01*
X0025997Y0130755D01*
X0025988Y0130509D01*
X0025973Y0130264D01*
X0025952Y0130020D01*
X0025925Y0129776D01*
X0025892Y0129533D01*
X0025853Y0129290D01*
X0025808Y0129049D01*
X0025757Y0128809D01*
X0025700Y0128570D01*
X0025638Y0128333D01*
X0025569Y0128097D01*
X0025495Y0127863D01*
X0025415Y0127631D01*
X0025330Y0127401D01*
X0025239Y0127173D01*
X0025142Y0126948D01*
X0025040Y0126724D01*
X0024932Y0126504D01*
X0024819Y0126286D01*
X0024701Y0126071D01*
X0024577Y0125859D01*
X0024449Y0125650D01*
X0024315Y0125444D01*
X0024176Y0125242D01*
X0024032Y0125043D01*
X0023883Y0124848D01*
X0023730Y0124656D01*
X0023572Y0124468D01*
X0023410Y0124284D01*
X0023242Y0124105D01*
X0023071Y0123929D01*
X0022895Y0123758D01*
X0022716Y0123590D01*
X0022532Y0123428D01*
X0022344Y0123270D01*
X0022152Y0123117D01*
X0021957Y0122968D01*
X0021758Y0122824D01*
X0021556Y0122685D01*
X0021350Y0122551D01*
X0021141Y0122423D01*
X0020929Y0122299D01*
X0020714Y0122181D01*
X0020496Y0122068D01*
X0020276Y0121960D01*
X0020052Y0121858D01*
X0019827Y0121761D01*
X0019599Y0121670D01*
X0019369Y0121585D01*
X0019137Y0121505D01*
X0018903Y0121431D01*
X0018667Y0121362D01*
X0018430Y0121300D01*
X0018191Y0121243D01*
X0017951Y0121192D01*
X0017710Y0121147D01*
X0017467Y0121108D01*
X0017224Y0121075D01*
X0016980Y0121048D01*
X0016736Y0121027D01*
X0016491Y0121012D01*
X0016245Y0121003D01*
X0016000Y0121000D01*
X0015755Y0121003D01*
X0015509Y0121012D01*
X0015264Y0121027D01*
X0015020Y0121048D01*
X0014776Y0121075D01*
X0014533Y0121108D01*
X0014290Y0121147D01*
X0014049Y0121192D01*
X0013809Y0121243D01*
X0013570Y0121300D01*
X0013333Y0121362D01*
X0013097Y0121431D01*
X0012863Y0121505D01*
X0012631Y0121585D01*
X0012401Y0121670D01*
X0012173Y0121761D01*
X0011948Y0121858D01*
X0011724Y0121960D01*
X0011504Y0122068D01*
X0011286Y0122181D01*
X0011071Y0122299D01*
X0010859Y0122423D01*
X0010650Y0122551D01*
X0010444Y0122685D01*
X0010242Y0122824D01*
X0010043Y0122968D01*
X0009848Y0123117D01*
X0009656Y0123270D01*
X0009468Y0123428D01*
X0009284Y0123590D01*
X0009105Y0123758D01*
X0008929Y0123929D01*
X0008758Y0124105D01*
X0008590Y0124284D01*
X0008428Y0124468D01*
X0008270Y0124656D01*
X0008117Y0124848D01*
X0007968Y0125043D01*
X0007824Y0125242D01*
X0007685Y0125444D01*
X0007551Y0125650D01*
X0007423Y0125859D01*
X0007299Y0126071D01*
X0007181Y0126286D01*
X0007068Y0126504D01*
X0006960Y0126724D01*
X0006858Y0126948D01*
X0006761Y0127173D01*
X0006670Y0127401D01*
X0006585Y0127631D01*
X0006505Y0127863D01*
X0006431Y0128097D01*
X0006362Y0128333D01*
X0006300Y0128570D01*
X0006243Y0128809D01*
X0006192Y0129049D01*
X0006147Y0129290D01*
X0006108Y0129533D01*
X0006075Y0129776D01*
X0006048Y0130020D01*
X0006027Y0130264D01*
X0006012Y0130509D01*
X0006003Y0130755D01*
X0006000Y0131000D01*
X0051000Y0131000D02*
X0051003Y0131245D01*
X0051012Y0131491D01*
X0051027Y0131736D01*
X0051048Y0131980D01*
X0051075Y0132224D01*
X0051108Y0132467D01*
X0051147Y0132710D01*
X0051192Y0132951D01*
X0051243Y0133191D01*
X0051300Y0133430D01*
X0051362Y0133667D01*
X0051431Y0133903D01*
X0051505Y0134137D01*
X0051585Y0134369D01*
X0051670Y0134599D01*
X0051761Y0134827D01*
X0051858Y0135052D01*
X0051960Y0135276D01*
X0052068Y0135496D01*
X0052181Y0135714D01*
X0052299Y0135929D01*
X0052423Y0136141D01*
X0052551Y0136350D01*
X0052685Y0136556D01*
X0052824Y0136758D01*
X0052968Y0136957D01*
X0053117Y0137152D01*
X0053270Y0137344D01*
X0053428Y0137532D01*
X0053590Y0137716D01*
X0053758Y0137895D01*
X0053929Y0138071D01*
X0054105Y0138242D01*
X0054284Y0138410D01*
X0054468Y0138572D01*
X0054656Y0138730D01*
X0054848Y0138883D01*
X0055043Y0139032D01*
X0055242Y0139176D01*
X0055444Y0139315D01*
X0055650Y0139449D01*
X0055859Y0139577D01*
X0056071Y0139701D01*
X0056286Y0139819D01*
X0056504Y0139932D01*
X0056724Y0140040D01*
X0056948Y0140142D01*
X0057173Y0140239D01*
X0057401Y0140330D01*
X0057631Y0140415D01*
X0057863Y0140495D01*
X0058097Y0140569D01*
X0058333Y0140638D01*
X0058570Y0140700D01*
X0058809Y0140757D01*
X0059049Y0140808D01*
X0059290Y0140853D01*
X0059533Y0140892D01*
X0059776Y0140925D01*
X0060020Y0140952D01*
X0060264Y0140973D01*
X0060509Y0140988D01*
X0060755Y0140997D01*
X0061000Y0141000D01*
X0061245Y0140997D01*
X0061491Y0140988D01*
X0061736Y0140973D01*
X0061980Y0140952D01*
X0062224Y0140925D01*
X0062467Y0140892D01*
X0062710Y0140853D01*
X0062951Y0140808D01*
X0063191Y0140757D01*
X0063430Y0140700D01*
X0063667Y0140638D01*
X0063903Y0140569D01*
X0064137Y0140495D01*
X0064369Y0140415D01*
X0064599Y0140330D01*
X0064827Y0140239D01*
X0065052Y0140142D01*
X0065276Y0140040D01*
X0065496Y0139932D01*
X0065714Y0139819D01*
X0065929Y0139701D01*
X0066141Y0139577D01*
X0066350Y0139449D01*
X0066556Y0139315D01*
X0066758Y0139176D01*
X0066957Y0139032D01*
X0067152Y0138883D01*
X0067344Y0138730D01*
X0067532Y0138572D01*
X0067716Y0138410D01*
X0067895Y0138242D01*
X0068071Y0138071D01*
X0068242Y0137895D01*
X0068410Y0137716D01*
X0068572Y0137532D01*
X0068730Y0137344D01*
X0068883Y0137152D01*
X0069032Y0136957D01*
X0069176Y0136758D01*
X0069315Y0136556D01*
X0069449Y0136350D01*
X0069577Y0136141D01*
X0069701Y0135929D01*
X0069819Y0135714D01*
X0069932Y0135496D01*
X0070040Y0135276D01*
X0070142Y0135052D01*
X0070239Y0134827D01*
X0070330Y0134599D01*
X0070415Y0134369D01*
X0070495Y0134137D01*
X0070569Y0133903D01*
X0070638Y0133667D01*
X0070700Y0133430D01*
X0070757Y0133191D01*
X0070808Y0132951D01*
X0070853Y0132710D01*
X0070892Y0132467D01*
X0070925Y0132224D01*
X0070952Y0131980D01*
X0070973Y0131736D01*
X0070988Y0131491D01*
X0070997Y0131245D01*
X0071000Y0131000D01*
X0070997Y0130755D01*
X0070988Y0130509D01*
X0070973Y0130264D01*
X0070952Y0130020D01*
X0070925Y0129776D01*
X0070892Y0129533D01*
X0070853Y0129290D01*
X0070808Y0129049D01*
X0070757Y0128809D01*
X0070700Y0128570D01*
X0070638Y0128333D01*
X0070569Y0128097D01*
X0070495Y0127863D01*
X0070415Y0127631D01*
X0070330Y0127401D01*
X0070239Y0127173D01*
X0070142Y0126948D01*
X0070040Y0126724D01*
X0069932Y0126504D01*
X0069819Y0126286D01*
X0069701Y0126071D01*
X0069577Y0125859D01*
X0069449Y0125650D01*
X0069315Y0125444D01*
X0069176Y0125242D01*
X0069032Y0125043D01*
X0068883Y0124848D01*
X0068730Y0124656D01*
X0068572Y0124468D01*
X0068410Y0124284D01*
X0068242Y0124105D01*
X0068071Y0123929D01*
X0067895Y0123758D01*
X0067716Y0123590D01*
X0067532Y0123428D01*
X0067344Y0123270D01*
X0067152Y0123117D01*
X0066957Y0122968D01*
X0066758Y0122824D01*
X0066556Y0122685D01*
X0066350Y0122551D01*
X0066141Y0122423D01*
X0065929Y0122299D01*
X0065714Y0122181D01*
X0065496Y0122068D01*
X0065276Y0121960D01*
X0065052Y0121858D01*
X0064827Y0121761D01*
X0064599Y0121670D01*
X0064369Y0121585D01*
X0064137Y0121505D01*
X0063903Y0121431D01*
X0063667Y0121362D01*
X0063430Y0121300D01*
X0063191Y0121243D01*
X0062951Y0121192D01*
X0062710Y0121147D01*
X0062467Y0121108D01*
X0062224Y0121075D01*
X0061980Y0121048D01*
X0061736Y0121027D01*
X0061491Y0121012D01*
X0061245Y0121003D01*
X0061000Y0121000D01*
X0060755Y0121003D01*
X0060509Y0121012D01*
X0060264Y0121027D01*
X0060020Y0121048D01*
X0059776Y0121075D01*
X0059533Y0121108D01*
X0059290Y0121147D01*
X0059049Y0121192D01*
X0058809Y0121243D01*
X0058570Y0121300D01*
X0058333Y0121362D01*
X0058097Y0121431D01*
X0057863Y0121505D01*
X0057631Y0121585D01*
X0057401Y0121670D01*
X0057173Y0121761D01*
X0056948Y0121858D01*
X0056724Y0121960D01*
X0056504Y0122068D01*
X0056286Y0122181D01*
X0056071Y0122299D01*
X0055859Y0122423D01*
X0055650Y0122551D01*
X0055444Y0122685D01*
X0055242Y0122824D01*
X0055043Y0122968D01*
X0054848Y0123117D01*
X0054656Y0123270D01*
X0054468Y0123428D01*
X0054284Y0123590D01*
X0054105Y0123758D01*
X0053929Y0123929D01*
X0053758Y0124105D01*
X0053590Y0124284D01*
X0053428Y0124468D01*
X0053270Y0124656D01*
X0053117Y0124848D01*
X0052968Y0125043D01*
X0052824Y0125242D01*
X0052685Y0125444D01*
X0052551Y0125650D01*
X0052423Y0125859D01*
X0052299Y0126071D01*
X0052181Y0126286D01*
X0052068Y0126504D01*
X0051960Y0126724D01*
X0051858Y0126948D01*
X0051761Y0127173D01*
X0051670Y0127401D01*
X0051585Y0127631D01*
X0051505Y0127863D01*
X0051431Y0128097D01*
X0051362Y0128333D01*
X0051300Y0128570D01*
X0051243Y0128809D01*
X0051192Y0129049D01*
X0051147Y0129290D01*
X0051108Y0129533D01*
X0051075Y0129776D01*
X0051048Y0130020D01*
X0051027Y0130264D01*
X0051012Y0130509D01*
X0051003Y0130755D01*
X0051000Y0131000D01*
X0051000Y0091000D02*
X0051003Y0091245D01*
X0051012Y0091491D01*
X0051027Y0091736D01*
X0051048Y0091980D01*
X0051075Y0092224D01*
X0051108Y0092467D01*
X0051147Y0092710D01*
X0051192Y0092951D01*
X0051243Y0093191D01*
X0051300Y0093430D01*
X0051362Y0093667D01*
X0051431Y0093903D01*
X0051505Y0094137D01*
X0051585Y0094369D01*
X0051670Y0094599D01*
X0051761Y0094827D01*
X0051858Y0095052D01*
X0051960Y0095276D01*
X0052068Y0095496D01*
X0052181Y0095714D01*
X0052299Y0095929D01*
X0052423Y0096141D01*
X0052551Y0096350D01*
X0052685Y0096556D01*
X0052824Y0096758D01*
X0052968Y0096957D01*
X0053117Y0097152D01*
X0053270Y0097344D01*
X0053428Y0097532D01*
X0053590Y0097716D01*
X0053758Y0097895D01*
X0053929Y0098071D01*
X0054105Y0098242D01*
X0054284Y0098410D01*
X0054468Y0098572D01*
X0054656Y0098730D01*
X0054848Y0098883D01*
X0055043Y0099032D01*
X0055242Y0099176D01*
X0055444Y0099315D01*
X0055650Y0099449D01*
X0055859Y0099577D01*
X0056071Y0099701D01*
X0056286Y0099819D01*
X0056504Y0099932D01*
X0056724Y0100040D01*
X0056948Y0100142D01*
X0057173Y0100239D01*
X0057401Y0100330D01*
X0057631Y0100415D01*
X0057863Y0100495D01*
X0058097Y0100569D01*
X0058333Y0100638D01*
X0058570Y0100700D01*
X0058809Y0100757D01*
X0059049Y0100808D01*
X0059290Y0100853D01*
X0059533Y0100892D01*
X0059776Y0100925D01*
X0060020Y0100952D01*
X0060264Y0100973D01*
X0060509Y0100988D01*
X0060755Y0100997D01*
X0061000Y0101000D01*
X0061245Y0100997D01*
X0061491Y0100988D01*
X0061736Y0100973D01*
X0061980Y0100952D01*
X0062224Y0100925D01*
X0062467Y0100892D01*
X0062710Y0100853D01*
X0062951Y0100808D01*
X0063191Y0100757D01*
X0063430Y0100700D01*
X0063667Y0100638D01*
X0063903Y0100569D01*
X0064137Y0100495D01*
X0064369Y0100415D01*
X0064599Y0100330D01*
X0064827Y0100239D01*
X0065052Y0100142D01*
X0065276Y0100040D01*
X0065496Y0099932D01*
X0065714Y0099819D01*
X0065929Y0099701D01*
X0066141Y0099577D01*
X0066350Y0099449D01*
X0066556Y0099315D01*
X0066758Y0099176D01*
X0066957Y0099032D01*
X0067152Y0098883D01*
X0067344Y0098730D01*
X0067532Y0098572D01*
X0067716Y0098410D01*
X0067895Y0098242D01*
X0068071Y0098071D01*
X0068242Y0097895D01*
X0068410Y0097716D01*
X0068572Y0097532D01*
X0068730Y0097344D01*
X0068883Y0097152D01*
X0069032Y0096957D01*
X0069176Y0096758D01*
X0069315Y0096556D01*
X0069449Y0096350D01*
X0069577Y0096141D01*
X0069701Y0095929D01*
X0069819Y0095714D01*
X0069932Y0095496D01*
X0070040Y0095276D01*
X0070142Y0095052D01*
X0070239Y0094827D01*
X0070330Y0094599D01*
X0070415Y0094369D01*
X0070495Y0094137D01*
X0070569Y0093903D01*
X0070638Y0093667D01*
X0070700Y0093430D01*
X0070757Y0093191D01*
X0070808Y0092951D01*
X0070853Y0092710D01*
X0070892Y0092467D01*
X0070925Y0092224D01*
X0070952Y0091980D01*
X0070973Y0091736D01*
X0070988Y0091491D01*
X0070997Y0091245D01*
X0071000Y0091000D01*
X0070997Y0090755D01*
X0070988Y0090509D01*
X0070973Y0090264D01*
X0070952Y0090020D01*
X0070925Y0089776D01*
X0070892Y0089533D01*
X0070853Y0089290D01*
X0070808Y0089049D01*
X0070757Y0088809D01*
X0070700Y0088570D01*
X0070638Y0088333D01*
X0070569Y0088097D01*
X0070495Y0087863D01*
X0070415Y0087631D01*
X0070330Y0087401D01*
X0070239Y0087173D01*
X0070142Y0086948D01*
X0070040Y0086724D01*
X0069932Y0086504D01*
X0069819Y0086286D01*
X0069701Y0086071D01*
X0069577Y0085859D01*
X0069449Y0085650D01*
X0069315Y0085444D01*
X0069176Y0085242D01*
X0069032Y0085043D01*
X0068883Y0084848D01*
X0068730Y0084656D01*
X0068572Y0084468D01*
X0068410Y0084284D01*
X0068242Y0084105D01*
X0068071Y0083929D01*
X0067895Y0083758D01*
X0067716Y0083590D01*
X0067532Y0083428D01*
X0067344Y0083270D01*
X0067152Y0083117D01*
X0066957Y0082968D01*
X0066758Y0082824D01*
X0066556Y0082685D01*
X0066350Y0082551D01*
X0066141Y0082423D01*
X0065929Y0082299D01*
X0065714Y0082181D01*
X0065496Y0082068D01*
X0065276Y0081960D01*
X0065052Y0081858D01*
X0064827Y0081761D01*
X0064599Y0081670D01*
X0064369Y0081585D01*
X0064137Y0081505D01*
X0063903Y0081431D01*
X0063667Y0081362D01*
X0063430Y0081300D01*
X0063191Y0081243D01*
X0062951Y0081192D01*
X0062710Y0081147D01*
X0062467Y0081108D01*
X0062224Y0081075D01*
X0061980Y0081048D01*
X0061736Y0081027D01*
X0061491Y0081012D01*
X0061245Y0081003D01*
X0061000Y0081000D01*
X0060755Y0081003D01*
X0060509Y0081012D01*
X0060264Y0081027D01*
X0060020Y0081048D01*
X0059776Y0081075D01*
X0059533Y0081108D01*
X0059290Y0081147D01*
X0059049Y0081192D01*
X0058809Y0081243D01*
X0058570Y0081300D01*
X0058333Y0081362D01*
X0058097Y0081431D01*
X0057863Y0081505D01*
X0057631Y0081585D01*
X0057401Y0081670D01*
X0057173Y0081761D01*
X0056948Y0081858D01*
X0056724Y0081960D01*
X0056504Y0082068D01*
X0056286Y0082181D01*
X0056071Y0082299D01*
X0055859Y0082423D01*
X0055650Y0082551D01*
X0055444Y0082685D01*
X0055242Y0082824D01*
X0055043Y0082968D01*
X0054848Y0083117D01*
X0054656Y0083270D01*
X0054468Y0083428D01*
X0054284Y0083590D01*
X0054105Y0083758D01*
X0053929Y0083929D01*
X0053758Y0084105D01*
X0053590Y0084284D01*
X0053428Y0084468D01*
X0053270Y0084656D01*
X0053117Y0084848D01*
X0052968Y0085043D01*
X0052824Y0085242D01*
X0052685Y0085444D01*
X0052551Y0085650D01*
X0052423Y0085859D01*
X0052299Y0086071D01*
X0052181Y0086286D01*
X0052068Y0086504D01*
X0051960Y0086724D01*
X0051858Y0086948D01*
X0051761Y0087173D01*
X0051670Y0087401D01*
X0051585Y0087631D01*
X0051505Y0087863D01*
X0051431Y0088097D01*
X0051362Y0088333D01*
X0051300Y0088570D01*
X0051243Y0088809D01*
X0051192Y0089049D01*
X0051147Y0089290D01*
X0051108Y0089533D01*
X0051075Y0089776D01*
X0051048Y0090020D01*
X0051027Y0090264D01*
X0051012Y0090509D01*
X0051003Y0090755D01*
X0051000Y0091000D01*
X0091000Y0091000D02*
X0091003Y0091245D01*
X0091012Y0091491D01*
X0091027Y0091736D01*
X0091048Y0091980D01*
X0091075Y0092224D01*
X0091108Y0092467D01*
X0091147Y0092710D01*
X0091192Y0092951D01*
X0091243Y0093191D01*
X0091300Y0093430D01*
X0091362Y0093667D01*
X0091431Y0093903D01*
X0091505Y0094137D01*
X0091585Y0094369D01*
X0091670Y0094599D01*
X0091761Y0094827D01*
X0091858Y0095052D01*
X0091960Y0095276D01*
X0092068Y0095496D01*
X0092181Y0095714D01*
X0092299Y0095929D01*
X0092423Y0096141D01*
X0092551Y0096350D01*
X0092685Y0096556D01*
X0092824Y0096758D01*
X0092968Y0096957D01*
X0093117Y0097152D01*
X0093270Y0097344D01*
X0093428Y0097532D01*
X0093590Y0097716D01*
X0093758Y0097895D01*
X0093929Y0098071D01*
X0094105Y0098242D01*
X0094284Y0098410D01*
X0094468Y0098572D01*
X0094656Y0098730D01*
X0094848Y0098883D01*
X0095043Y0099032D01*
X0095242Y0099176D01*
X0095444Y0099315D01*
X0095650Y0099449D01*
X0095859Y0099577D01*
X0096071Y0099701D01*
X0096286Y0099819D01*
X0096504Y0099932D01*
X0096724Y0100040D01*
X0096948Y0100142D01*
X0097173Y0100239D01*
X0097401Y0100330D01*
X0097631Y0100415D01*
X0097863Y0100495D01*
X0098097Y0100569D01*
X0098333Y0100638D01*
X0098570Y0100700D01*
X0098809Y0100757D01*
X0099049Y0100808D01*
X0099290Y0100853D01*
X0099533Y0100892D01*
X0099776Y0100925D01*
X0100020Y0100952D01*
X0100264Y0100973D01*
X0100509Y0100988D01*
X0100755Y0100997D01*
X0101000Y0101000D01*
X0101245Y0100997D01*
X0101491Y0100988D01*
X0101736Y0100973D01*
X0101980Y0100952D01*
X0102224Y0100925D01*
X0102467Y0100892D01*
X0102710Y0100853D01*
X0102951Y0100808D01*
X0103191Y0100757D01*
X0103430Y0100700D01*
X0103667Y0100638D01*
X0103903Y0100569D01*
X0104137Y0100495D01*
X0104369Y0100415D01*
X0104599Y0100330D01*
X0104827Y0100239D01*
X0105052Y0100142D01*
X0105276Y0100040D01*
X0105496Y0099932D01*
X0105714Y0099819D01*
X0105929Y0099701D01*
X0106141Y0099577D01*
X0106350Y0099449D01*
X0106556Y0099315D01*
X0106758Y0099176D01*
X0106957Y0099032D01*
X0107152Y0098883D01*
X0107344Y0098730D01*
X0107532Y0098572D01*
X0107716Y0098410D01*
X0107895Y0098242D01*
X0108071Y0098071D01*
X0108242Y0097895D01*
X0108410Y0097716D01*
X0108572Y0097532D01*
X0108730Y0097344D01*
X0108883Y0097152D01*
X0109032Y0096957D01*
X0109176Y0096758D01*
X0109315Y0096556D01*
X0109449Y0096350D01*
X0109577Y0096141D01*
X0109701Y0095929D01*
X0109819Y0095714D01*
X0109932Y0095496D01*
X0110040Y0095276D01*
X0110142Y0095052D01*
X0110239Y0094827D01*
X0110330Y0094599D01*
X0110415Y0094369D01*
X0110495Y0094137D01*
X0110569Y0093903D01*
X0110638Y0093667D01*
X0110700Y0093430D01*
X0110757Y0093191D01*
X0110808Y0092951D01*
X0110853Y0092710D01*
X0110892Y0092467D01*
X0110925Y0092224D01*
X0110952Y0091980D01*
X0110973Y0091736D01*
X0110988Y0091491D01*
X0110997Y0091245D01*
X0111000Y0091000D01*
X0110997Y0090755D01*
X0110988Y0090509D01*
X0110973Y0090264D01*
X0110952Y0090020D01*
X0110925Y0089776D01*
X0110892Y0089533D01*
X0110853Y0089290D01*
X0110808Y0089049D01*
X0110757Y0088809D01*
X0110700Y0088570D01*
X0110638Y0088333D01*
X0110569Y0088097D01*
X0110495Y0087863D01*
X0110415Y0087631D01*
X0110330Y0087401D01*
X0110239Y0087173D01*
X0110142Y0086948D01*
X0110040Y0086724D01*
X0109932Y0086504D01*
X0109819Y0086286D01*
X0109701Y0086071D01*
X0109577Y0085859D01*
X0109449Y0085650D01*
X0109315Y0085444D01*
X0109176Y0085242D01*
X0109032Y0085043D01*
X0108883Y0084848D01*
X0108730Y0084656D01*
X0108572Y0084468D01*
X0108410Y0084284D01*
X0108242Y0084105D01*
X0108071Y0083929D01*
X0107895Y0083758D01*
X0107716Y0083590D01*
X0107532Y0083428D01*
X0107344Y0083270D01*
X0107152Y0083117D01*
X0106957Y0082968D01*
X0106758Y0082824D01*
X0106556Y0082685D01*
X0106350Y0082551D01*
X0106141Y0082423D01*
X0105929Y0082299D01*
X0105714Y0082181D01*
X0105496Y0082068D01*
X0105276Y0081960D01*
X0105052Y0081858D01*
X0104827Y0081761D01*
X0104599Y0081670D01*
X0104369Y0081585D01*
X0104137Y0081505D01*
X0103903Y0081431D01*
X0103667Y0081362D01*
X0103430Y0081300D01*
X0103191Y0081243D01*
X0102951Y0081192D01*
X0102710Y0081147D01*
X0102467Y0081108D01*
X0102224Y0081075D01*
X0101980Y0081048D01*
X0101736Y0081027D01*
X0101491Y0081012D01*
X0101245Y0081003D01*
X0101000Y0081000D01*
X0100755Y0081003D01*
X0100509Y0081012D01*
X0100264Y0081027D01*
X0100020Y0081048D01*
X0099776Y0081075D01*
X0099533Y0081108D01*
X0099290Y0081147D01*
X0099049Y0081192D01*
X0098809Y0081243D01*
X0098570Y0081300D01*
X0098333Y0081362D01*
X0098097Y0081431D01*
X0097863Y0081505D01*
X0097631Y0081585D01*
X0097401Y0081670D01*
X0097173Y0081761D01*
X0096948Y0081858D01*
X0096724Y0081960D01*
X0096504Y0082068D01*
X0096286Y0082181D01*
X0096071Y0082299D01*
X0095859Y0082423D01*
X0095650Y0082551D01*
X0095444Y0082685D01*
X0095242Y0082824D01*
X0095043Y0082968D01*
X0094848Y0083117D01*
X0094656Y0083270D01*
X0094468Y0083428D01*
X0094284Y0083590D01*
X0094105Y0083758D01*
X0093929Y0083929D01*
X0093758Y0084105D01*
X0093590Y0084284D01*
X0093428Y0084468D01*
X0093270Y0084656D01*
X0093117Y0084848D01*
X0092968Y0085043D01*
X0092824Y0085242D01*
X0092685Y0085444D01*
X0092551Y0085650D01*
X0092423Y0085859D01*
X0092299Y0086071D01*
X0092181Y0086286D01*
X0092068Y0086504D01*
X0091960Y0086724D01*
X0091858Y0086948D01*
X0091761Y0087173D01*
X0091670Y0087401D01*
X0091585Y0087631D01*
X0091505Y0087863D01*
X0091431Y0088097D01*
X0091362Y0088333D01*
X0091300Y0088570D01*
X0091243Y0088809D01*
X0091192Y0089049D01*
X0091147Y0089290D01*
X0091108Y0089533D01*
X0091075Y0089776D01*
X0091048Y0090020D01*
X0091027Y0090264D01*
X0091012Y0090509D01*
X0091003Y0090755D01*
X0091000Y0091000D01*
X0091000Y0131000D02*
X0091003Y0131245D01*
X0091012Y0131491D01*
X0091027Y0131736D01*
X0091048Y0131980D01*
X0091075Y0132224D01*
X0091108Y0132467D01*
X0091147Y0132710D01*
X0091192Y0132951D01*
X0091243Y0133191D01*
X0091300Y0133430D01*
X0091362Y0133667D01*
X0091431Y0133903D01*
X0091505Y0134137D01*
X0091585Y0134369D01*
X0091670Y0134599D01*
X0091761Y0134827D01*
X0091858Y0135052D01*
X0091960Y0135276D01*
X0092068Y0135496D01*
X0092181Y0135714D01*
X0092299Y0135929D01*
X0092423Y0136141D01*
X0092551Y0136350D01*
X0092685Y0136556D01*
X0092824Y0136758D01*
X0092968Y0136957D01*
X0093117Y0137152D01*
X0093270Y0137344D01*
X0093428Y0137532D01*
X0093590Y0137716D01*
X0093758Y0137895D01*
X0093929Y0138071D01*
X0094105Y0138242D01*
X0094284Y0138410D01*
X0094468Y0138572D01*
X0094656Y0138730D01*
X0094848Y0138883D01*
X0095043Y0139032D01*
X0095242Y0139176D01*
X0095444Y0139315D01*
X0095650Y0139449D01*
X0095859Y0139577D01*
X0096071Y0139701D01*
X0096286Y0139819D01*
X0096504Y0139932D01*
X0096724Y0140040D01*
X0096948Y0140142D01*
X0097173Y0140239D01*
X0097401Y0140330D01*
X0097631Y0140415D01*
X0097863Y0140495D01*
X0098097Y0140569D01*
X0098333Y0140638D01*
X0098570Y0140700D01*
X0098809Y0140757D01*
X0099049Y0140808D01*
X0099290Y0140853D01*
X0099533Y0140892D01*
X0099776Y0140925D01*
X0100020Y0140952D01*
X0100264Y0140973D01*
X0100509Y0140988D01*
X0100755Y0140997D01*
X0101000Y0141000D01*
X0101245Y0140997D01*
X0101491Y0140988D01*
X0101736Y0140973D01*
X0101980Y0140952D01*
X0102224Y0140925D01*
X0102467Y0140892D01*
X0102710Y0140853D01*
X0102951Y0140808D01*
X0103191Y0140757D01*
X0103430Y0140700D01*
X0103667Y0140638D01*
X0103903Y0140569D01*
X0104137Y0140495D01*
X0104369Y0140415D01*
X0104599Y0140330D01*
X0104827Y0140239D01*
X0105052Y0140142D01*
X0105276Y0140040D01*
X0105496Y0139932D01*
X0105714Y0139819D01*
X0105929Y0139701D01*
X0106141Y0139577D01*
X0106350Y0139449D01*
X0106556Y0139315D01*
X0106758Y0139176D01*
X0106957Y0139032D01*
X0107152Y0138883D01*
X0107344Y0138730D01*
X0107532Y0138572D01*
X0107716Y0138410D01*
X0107895Y0138242D01*
X0108071Y0138071D01*
X0108242Y0137895D01*
X0108410Y0137716D01*
X0108572Y0137532D01*
X0108730Y0137344D01*
X0108883Y0137152D01*
X0109032Y0136957D01*
X0109176Y0136758D01*
X0109315Y0136556D01*
X0109449Y0136350D01*
X0109577Y0136141D01*
X0109701Y0135929D01*
X0109819Y0135714D01*
X0109932Y0135496D01*
X0110040Y0135276D01*
X0110142Y0135052D01*
X0110239Y0134827D01*
X0110330Y0134599D01*
X0110415Y0134369D01*
X0110495Y0134137D01*
X0110569Y0133903D01*
X0110638Y0133667D01*
X0110700Y0133430D01*
X0110757Y0133191D01*
X0110808Y0132951D01*
X0110853Y0132710D01*
X0110892Y0132467D01*
X0110925Y0132224D01*
X0110952Y0131980D01*
X0110973Y0131736D01*
X0110988Y0131491D01*
X0110997Y0131245D01*
X0111000Y0131000D01*
X0110997Y0130755D01*
X0110988Y0130509D01*
X0110973Y0130264D01*
X0110952Y0130020D01*
X0110925Y0129776D01*
X0110892Y0129533D01*
X0110853Y0129290D01*
X0110808Y0129049D01*
X0110757Y0128809D01*
X0110700Y0128570D01*
X0110638Y0128333D01*
X0110569Y0128097D01*
X0110495Y0127863D01*
X0110415Y0127631D01*
X0110330Y0127401D01*
X0110239Y0127173D01*
X0110142Y0126948D01*
X0110040Y0126724D01*
X0109932Y0126504D01*
X0109819Y0126286D01*
X0109701Y0126071D01*
X0109577Y0125859D01*
X0109449Y0125650D01*
X0109315Y0125444D01*
X0109176Y0125242D01*
X0109032Y0125043D01*
X0108883Y0124848D01*
X0108730Y0124656D01*
X0108572Y0124468D01*
X0108410Y0124284D01*
X0108242Y0124105D01*
X0108071Y0123929D01*
X0107895Y0123758D01*
X0107716Y0123590D01*
X0107532Y0123428D01*
X0107344Y0123270D01*
X0107152Y0123117D01*
X0106957Y0122968D01*
X0106758Y0122824D01*
X0106556Y0122685D01*
X0106350Y0122551D01*
X0106141Y0122423D01*
X0105929Y0122299D01*
X0105714Y0122181D01*
X0105496Y0122068D01*
X0105276Y0121960D01*
X0105052Y0121858D01*
X0104827Y0121761D01*
X0104599Y0121670D01*
X0104369Y0121585D01*
X0104137Y0121505D01*
X0103903Y0121431D01*
X0103667Y0121362D01*
X0103430Y0121300D01*
X0103191Y0121243D01*
X0102951Y0121192D01*
X0102710Y0121147D01*
X0102467Y0121108D01*
X0102224Y0121075D01*
X0101980Y0121048D01*
X0101736Y0121027D01*
X0101491Y0121012D01*
X0101245Y0121003D01*
X0101000Y0121000D01*
X0100755Y0121003D01*
X0100509Y0121012D01*
X0100264Y0121027D01*
X0100020Y0121048D01*
X0099776Y0121075D01*
X0099533Y0121108D01*
X0099290Y0121147D01*
X0099049Y0121192D01*
X0098809Y0121243D01*
X0098570Y0121300D01*
X0098333Y0121362D01*
X0098097Y0121431D01*
X0097863Y0121505D01*
X0097631Y0121585D01*
X0097401Y0121670D01*
X0097173Y0121761D01*
X0096948Y0121858D01*
X0096724Y0121960D01*
X0096504Y0122068D01*
X0096286Y0122181D01*
X0096071Y0122299D01*
X0095859Y0122423D01*
X0095650Y0122551D01*
X0095444Y0122685D01*
X0095242Y0122824D01*
X0095043Y0122968D01*
X0094848Y0123117D01*
X0094656Y0123270D01*
X0094468Y0123428D01*
X0094284Y0123590D01*
X0094105Y0123758D01*
X0093929Y0123929D01*
X0093758Y0124105D01*
X0093590Y0124284D01*
X0093428Y0124468D01*
X0093270Y0124656D01*
X0093117Y0124848D01*
X0092968Y0125043D01*
X0092824Y0125242D01*
X0092685Y0125444D01*
X0092551Y0125650D01*
X0092423Y0125859D01*
X0092299Y0126071D01*
X0092181Y0126286D01*
X0092068Y0126504D01*
X0091960Y0126724D01*
X0091858Y0126948D01*
X0091761Y0127173D01*
X0091670Y0127401D01*
X0091585Y0127631D01*
X0091505Y0127863D01*
X0091431Y0128097D01*
X0091362Y0128333D01*
X0091300Y0128570D01*
X0091243Y0128809D01*
X0091192Y0129049D01*
X0091147Y0129290D01*
X0091108Y0129533D01*
X0091075Y0129776D01*
X0091048Y0130020D01*
X0091027Y0130264D01*
X0091012Y0130509D01*
X0091003Y0130755D01*
X0091000Y0131000D01*
X0126000Y0131000D02*
X0126003Y0131245D01*
X0126012Y0131491D01*
X0126027Y0131736D01*
X0126048Y0131980D01*
X0126075Y0132224D01*
X0126108Y0132467D01*
X0126147Y0132710D01*
X0126192Y0132951D01*
X0126243Y0133191D01*
X0126300Y0133430D01*
X0126362Y0133667D01*
X0126431Y0133903D01*
X0126505Y0134137D01*
X0126585Y0134369D01*
X0126670Y0134599D01*
X0126761Y0134827D01*
X0126858Y0135052D01*
X0126960Y0135276D01*
X0127068Y0135496D01*
X0127181Y0135714D01*
X0127299Y0135929D01*
X0127423Y0136141D01*
X0127551Y0136350D01*
X0127685Y0136556D01*
X0127824Y0136758D01*
X0127968Y0136957D01*
X0128117Y0137152D01*
X0128270Y0137344D01*
X0128428Y0137532D01*
X0128590Y0137716D01*
X0128758Y0137895D01*
X0128929Y0138071D01*
X0129105Y0138242D01*
X0129284Y0138410D01*
X0129468Y0138572D01*
X0129656Y0138730D01*
X0129848Y0138883D01*
X0130043Y0139032D01*
X0130242Y0139176D01*
X0130444Y0139315D01*
X0130650Y0139449D01*
X0130859Y0139577D01*
X0131071Y0139701D01*
X0131286Y0139819D01*
X0131504Y0139932D01*
X0131724Y0140040D01*
X0131948Y0140142D01*
X0132173Y0140239D01*
X0132401Y0140330D01*
X0132631Y0140415D01*
X0132863Y0140495D01*
X0133097Y0140569D01*
X0133333Y0140638D01*
X0133570Y0140700D01*
X0133809Y0140757D01*
X0134049Y0140808D01*
X0134290Y0140853D01*
X0134533Y0140892D01*
X0134776Y0140925D01*
X0135020Y0140952D01*
X0135264Y0140973D01*
X0135509Y0140988D01*
X0135755Y0140997D01*
X0136000Y0141000D01*
X0136245Y0140997D01*
X0136491Y0140988D01*
X0136736Y0140973D01*
X0136980Y0140952D01*
X0137224Y0140925D01*
X0137467Y0140892D01*
X0137710Y0140853D01*
X0137951Y0140808D01*
X0138191Y0140757D01*
X0138430Y0140700D01*
X0138667Y0140638D01*
X0138903Y0140569D01*
X0139137Y0140495D01*
X0139369Y0140415D01*
X0139599Y0140330D01*
X0139827Y0140239D01*
X0140052Y0140142D01*
X0140276Y0140040D01*
X0140496Y0139932D01*
X0140714Y0139819D01*
X0140929Y0139701D01*
X0141141Y0139577D01*
X0141350Y0139449D01*
X0141556Y0139315D01*
X0141758Y0139176D01*
X0141957Y0139032D01*
X0142152Y0138883D01*
X0142344Y0138730D01*
X0142532Y0138572D01*
X0142716Y0138410D01*
X0142895Y0138242D01*
X0143071Y0138071D01*
X0143242Y0137895D01*
X0143410Y0137716D01*
X0143572Y0137532D01*
X0143730Y0137344D01*
X0143883Y0137152D01*
X0144032Y0136957D01*
X0144176Y0136758D01*
X0144315Y0136556D01*
X0144449Y0136350D01*
X0144577Y0136141D01*
X0144701Y0135929D01*
X0144819Y0135714D01*
X0144932Y0135496D01*
X0145040Y0135276D01*
X0145142Y0135052D01*
X0145239Y0134827D01*
X0145330Y0134599D01*
X0145415Y0134369D01*
X0145495Y0134137D01*
X0145569Y0133903D01*
X0145638Y0133667D01*
X0145700Y0133430D01*
X0145757Y0133191D01*
X0145808Y0132951D01*
X0145853Y0132710D01*
X0145892Y0132467D01*
X0145925Y0132224D01*
X0145952Y0131980D01*
X0145973Y0131736D01*
X0145988Y0131491D01*
X0145997Y0131245D01*
X0146000Y0131000D01*
X0145997Y0130755D01*
X0145988Y0130509D01*
X0145973Y0130264D01*
X0145952Y0130020D01*
X0145925Y0129776D01*
X0145892Y0129533D01*
X0145853Y0129290D01*
X0145808Y0129049D01*
X0145757Y0128809D01*
X0145700Y0128570D01*
X0145638Y0128333D01*
X0145569Y0128097D01*
X0145495Y0127863D01*
X0145415Y0127631D01*
X0145330Y0127401D01*
X0145239Y0127173D01*
X0145142Y0126948D01*
X0145040Y0126724D01*
X0144932Y0126504D01*
X0144819Y0126286D01*
X0144701Y0126071D01*
X0144577Y0125859D01*
X0144449Y0125650D01*
X0144315Y0125444D01*
X0144176Y0125242D01*
X0144032Y0125043D01*
X0143883Y0124848D01*
X0143730Y0124656D01*
X0143572Y0124468D01*
X0143410Y0124284D01*
X0143242Y0124105D01*
X0143071Y0123929D01*
X0142895Y0123758D01*
X0142716Y0123590D01*
X0142532Y0123428D01*
X0142344Y0123270D01*
X0142152Y0123117D01*
X0141957Y0122968D01*
X0141758Y0122824D01*
X0141556Y0122685D01*
X0141350Y0122551D01*
X0141141Y0122423D01*
X0140929Y0122299D01*
X0140714Y0122181D01*
X0140496Y0122068D01*
X0140276Y0121960D01*
X0140052Y0121858D01*
X0139827Y0121761D01*
X0139599Y0121670D01*
X0139369Y0121585D01*
X0139137Y0121505D01*
X0138903Y0121431D01*
X0138667Y0121362D01*
X0138430Y0121300D01*
X0138191Y0121243D01*
X0137951Y0121192D01*
X0137710Y0121147D01*
X0137467Y0121108D01*
X0137224Y0121075D01*
X0136980Y0121048D01*
X0136736Y0121027D01*
X0136491Y0121012D01*
X0136245Y0121003D01*
X0136000Y0121000D01*
X0135755Y0121003D01*
X0135509Y0121012D01*
X0135264Y0121027D01*
X0135020Y0121048D01*
X0134776Y0121075D01*
X0134533Y0121108D01*
X0134290Y0121147D01*
X0134049Y0121192D01*
X0133809Y0121243D01*
X0133570Y0121300D01*
X0133333Y0121362D01*
X0133097Y0121431D01*
X0132863Y0121505D01*
X0132631Y0121585D01*
X0132401Y0121670D01*
X0132173Y0121761D01*
X0131948Y0121858D01*
X0131724Y0121960D01*
X0131504Y0122068D01*
X0131286Y0122181D01*
X0131071Y0122299D01*
X0130859Y0122423D01*
X0130650Y0122551D01*
X0130444Y0122685D01*
X0130242Y0122824D01*
X0130043Y0122968D01*
X0129848Y0123117D01*
X0129656Y0123270D01*
X0129468Y0123428D01*
X0129284Y0123590D01*
X0129105Y0123758D01*
X0128929Y0123929D01*
X0128758Y0124105D01*
X0128590Y0124284D01*
X0128428Y0124468D01*
X0128270Y0124656D01*
X0128117Y0124848D01*
X0127968Y0125043D01*
X0127824Y0125242D01*
X0127685Y0125444D01*
X0127551Y0125650D01*
X0127423Y0125859D01*
X0127299Y0126071D01*
X0127181Y0126286D01*
X0127068Y0126504D01*
X0126960Y0126724D01*
X0126858Y0126948D01*
X0126761Y0127173D01*
X0126670Y0127401D01*
X0126585Y0127631D01*
X0126505Y0127863D01*
X0126431Y0128097D01*
X0126362Y0128333D01*
X0126300Y0128570D01*
X0126243Y0128809D01*
X0126192Y0129049D01*
X0126147Y0129290D01*
X0126108Y0129533D01*
X0126075Y0129776D01*
X0126048Y0130020D01*
X0126027Y0130264D01*
X0126012Y0130509D01*
X0126003Y0130755D01*
X0126000Y0131000D01*
X0126000Y0091000D02*
X0126003Y0091245D01*
X0126012Y0091491D01*
X0126027Y0091736D01*
X0126048Y0091980D01*
X0126075Y0092224D01*
X0126108Y0092467D01*
X0126147Y0092710D01*
X0126192Y0092951D01*
X0126243Y0093191D01*
X0126300Y0093430D01*
X0126362Y0093667D01*
X0126431Y0093903D01*
X0126505Y0094137D01*
X0126585Y0094369D01*
X0126670Y0094599D01*
X0126761Y0094827D01*
X0126858Y0095052D01*
X0126960Y0095276D01*
X0127068Y0095496D01*
X0127181Y0095714D01*
X0127299Y0095929D01*
X0127423Y0096141D01*
X0127551Y0096350D01*
X0127685Y0096556D01*
X0127824Y0096758D01*
X0127968Y0096957D01*
X0128117Y0097152D01*
X0128270Y0097344D01*
X0128428Y0097532D01*
X0128590Y0097716D01*
X0128758Y0097895D01*
X0128929Y0098071D01*
X0129105Y0098242D01*
X0129284Y0098410D01*
X0129468Y0098572D01*
X0129656Y0098730D01*
X0129848Y0098883D01*
X0130043Y0099032D01*
X0130242Y0099176D01*
X0130444Y0099315D01*
X0130650Y0099449D01*
X0130859Y0099577D01*
X0131071Y0099701D01*
X0131286Y0099819D01*
X0131504Y0099932D01*
X0131724Y0100040D01*
X0131948Y0100142D01*
X0132173Y0100239D01*
X0132401Y0100330D01*
X0132631Y0100415D01*
X0132863Y0100495D01*
X0133097Y0100569D01*
X0133333Y0100638D01*
X0133570Y0100700D01*
X0133809Y0100757D01*
X0134049Y0100808D01*
X0134290Y0100853D01*
X0134533Y0100892D01*
X0134776Y0100925D01*
X0135020Y0100952D01*
X0135264Y0100973D01*
X0135509Y0100988D01*
X0135755Y0100997D01*
X0136000Y0101000D01*
X0136245Y0100997D01*
X0136491Y0100988D01*
X0136736Y0100973D01*
X0136980Y0100952D01*
X0137224Y0100925D01*
X0137467Y0100892D01*
X0137710Y0100853D01*
X0137951Y0100808D01*
X0138191Y0100757D01*
X0138430Y0100700D01*
X0138667Y0100638D01*
X0138903Y0100569D01*
X0139137Y0100495D01*
X0139369Y0100415D01*
X0139599Y0100330D01*
X0139827Y0100239D01*
X0140052Y0100142D01*
X0140276Y0100040D01*
X0140496Y0099932D01*
X0140714Y0099819D01*
X0140929Y0099701D01*
X0141141Y0099577D01*
X0141350Y0099449D01*
X0141556Y0099315D01*
X0141758Y0099176D01*
X0141957Y0099032D01*
X0142152Y0098883D01*
X0142344Y0098730D01*
X0142532Y0098572D01*
X0142716Y0098410D01*
X0142895Y0098242D01*
X0143071Y0098071D01*
X0143242Y0097895D01*
X0143410Y0097716D01*
X0143572Y0097532D01*
X0143730Y0097344D01*
X0143883Y0097152D01*
X0144032Y0096957D01*
X0144176Y0096758D01*
X0144315Y0096556D01*
X0144449Y0096350D01*
X0144577Y0096141D01*
X0144701Y0095929D01*
X0144819Y0095714D01*
X0144932Y0095496D01*
X0145040Y0095276D01*
X0145142Y0095052D01*
X0145239Y0094827D01*
X0145330Y0094599D01*
X0145415Y0094369D01*
X0145495Y0094137D01*
X0145569Y0093903D01*
X0145638Y0093667D01*
X0145700Y0093430D01*
X0145757Y0093191D01*
X0145808Y0092951D01*
X0145853Y0092710D01*
X0145892Y0092467D01*
X0145925Y0092224D01*
X0145952Y0091980D01*
X0145973Y0091736D01*
X0145988Y0091491D01*
X0145997Y0091245D01*
X0146000Y0091000D01*
X0145997Y0090755D01*
X0145988Y0090509D01*
X0145973Y0090264D01*
X0145952Y0090020D01*
X0145925Y0089776D01*
X0145892Y0089533D01*
X0145853Y0089290D01*
X0145808Y0089049D01*
X0145757Y0088809D01*
X0145700Y0088570D01*
X0145638Y0088333D01*
X0145569Y0088097D01*
X0145495Y0087863D01*
X0145415Y0087631D01*
X0145330Y0087401D01*
X0145239Y0087173D01*
X0145142Y0086948D01*
X0145040Y0086724D01*
X0144932Y0086504D01*
X0144819Y0086286D01*
X0144701Y0086071D01*
X0144577Y0085859D01*
X0144449Y0085650D01*
X0144315Y0085444D01*
X0144176Y0085242D01*
X0144032Y0085043D01*
X0143883Y0084848D01*
X0143730Y0084656D01*
X0143572Y0084468D01*
X0143410Y0084284D01*
X0143242Y0084105D01*
X0143071Y0083929D01*
X0142895Y0083758D01*
X0142716Y0083590D01*
X0142532Y0083428D01*
X0142344Y0083270D01*
X0142152Y0083117D01*
X0141957Y0082968D01*
X0141758Y0082824D01*
X0141556Y0082685D01*
X0141350Y0082551D01*
X0141141Y0082423D01*
X0140929Y0082299D01*
X0140714Y0082181D01*
X0140496Y0082068D01*
X0140276Y0081960D01*
X0140052Y0081858D01*
X0139827Y0081761D01*
X0139599Y0081670D01*
X0139369Y0081585D01*
X0139137Y0081505D01*
X0138903Y0081431D01*
X0138667Y0081362D01*
X0138430Y0081300D01*
X0138191Y0081243D01*
X0137951Y0081192D01*
X0137710Y0081147D01*
X0137467Y0081108D01*
X0137224Y0081075D01*
X0136980Y0081048D01*
X0136736Y0081027D01*
X0136491Y0081012D01*
X0136245Y0081003D01*
X0136000Y0081000D01*
X0135755Y0081003D01*
X0135509Y0081012D01*
X0135264Y0081027D01*
X0135020Y0081048D01*
X0134776Y0081075D01*
X0134533Y0081108D01*
X0134290Y0081147D01*
X0134049Y0081192D01*
X0133809Y0081243D01*
X0133570Y0081300D01*
X0133333Y0081362D01*
X0133097Y0081431D01*
X0132863Y0081505D01*
X0132631Y0081585D01*
X0132401Y0081670D01*
X0132173Y0081761D01*
X0131948Y0081858D01*
X0131724Y0081960D01*
X0131504Y0082068D01*
X0131286Y0082181D01*
X0131071Y0082299D01*
X0130859Y0082423D01*
X0130650Y0082551D01*
X0130444Y0082685D01*
X0130242Y0082824D01*
X0130043Y0082968D01*
X0129848Y0083117D01*
X0129656Y0083270D01*
X0129468Y0083428D01*
X0129284Y0083590D01*
X0129105Y0083758D01*
X0128929Y0083929D01*
X0128758Y0084105D01*
X0128590Y0084284D01*
X0128428Y0084468D01*
X0128270Y0084656D01*
X0128117Y0084848D01*
X0127968Y0085043D01*
X0127824Y0085242D01*
X0127685Y0085444D01*
X0127551Y0085650D01*
X0127423Y0085859D01*
X0127299Y0086071D01*
X0127181Y0086286D01*
X0127068Y0086504D01*
X0126960Y0086724D01*
X0126858Y0086948D01*
X0126761Y0087173D01*
X0126670Y0087401D01*
X0126585Y0087631D01*
X0126505Y0087863D01*
X0126431Y0088097D01*
X0126362Y0088333D01*
X0126300Y0088570D01*
X0126243Y0088809D01*
X0126192Y0089049D01*
X0126147Y0089290D01*
X0126108Y0089533D01*
X0126075Y0089776D01*
X0126048Y0090020D01*
X0126027Y0090264D01*
X0126012Y0090509D01*
X0126003Y0090755D01*
X0126000Y0091000D01*
D11*
X0111000Y0083500D02*
X0111000Y0098500D01*
X0111000Y0123500D02*
X0111000Y0138500D01*
X0146000Y0138500D02*
X0146000Y0123500D01*
X0146000Y0098500D02*
X0146000Y0083500D01*
X0146000Y0058500D02*
X0146000Y0043500D01*
X0111000Y0043500D02*
X0111000Y0058500D01*
X0071000Y0058500D02*
X0071000Y0043500D01*
X0071000Y0083500D02*
X0071000Y0098500D01*
X0071000Y0123500D02*
X0071000Y0138500D01*
X0026000Y0138500D02*
X0026000Y0123500D01*
X0026000Y0098500D02*
X0026000Y0083500D01*
X0026000Y0058500D02*
X0026000Y0043500D01*
D12*
X0025813Y0043257D01*
X0025621Y0043019D01*
X0025422Y0042786D01*
X0025218Y0042558D01*
X0025009Y0042335D01*
X0024794Y0042117D01*
X0024574Y0041904D01*
X0024349Y0041697D01*
X0024118Y0041495D01*
X0023883Y0041299D01*
X0023643Y0041109D01*
X0023399Y0040925D01*
X0023150Y0040747D01*
X0022896Y0040575D01*
X0022639Y0040409D01*
X0022378Y0040249D01*
X0022113Y0040096D01*
X0021844Y0039950D01*
X0021571Y0039810D01*
X0021296Y0039677D01*
X0021017Y0039551D01*
X0020735Y0039431D01*
X0020450Y0039319D01*
X0020163Y0039214D01*
X0019873Y0039115D01*
X0019581Y0039024D01*
X0019286Y0038940D01*
X0018990Y0038863D01*
X0018692Y0038793D01*
X0018392Y0038731D01*
X0018091Y0038676D01*
X0017789Y0038629D01*
X0017485Y0038589D01*
X0017181Y0038556D01*
X0016876Y0038531D01*
X0016570Y0038513D01*
X0016264Y0038503D01*
X0015958Y0038500D01*
X0015652Y0038505D01*
X0015346Y0038517D01*
X0015040Y0038537D01*
X0014736Y0038564D01*
X0014431Y0038599D01*
X0014128Y0038641D01*
X0013826Y0038690D01*
X0013525Y0038747D01*
X0013226Y0038812D01*
X0012928Y0038883D01*
X0012633Y0038962D01*
X0012339Y0039048D01*
X0012047Y0039141D01*
X0011758Y0039242D01*
X0011471Y0039349D01*
X0011187Y0039464D01*
X0010906Y0039585D01*
X0010628Y0039713D01*
X0010353Y0039848D01*
X0010082Y0039990D01*
X0009814Y0040138D01*
X0009550Y0040293D01*
X0009290Y0040454D01*
X0009034Y0040621D01*
X0008781Y0040795D01*
X0008534Y0040975D01*
X0008290Y0041161D01*
X0008052Y0041352D01*
X0007818Y0041550D01*
X0007589Y0041753D01*
X0007365Y0041962D01*
X0007146Y0042176D01*
X0006933Y0042396D01*
X0006725Y0042620D01*
X0006522Y0042850D01*
X0006326Y0043084D01*
X0006135Y0043324D01*
X0005950Y0043567D01*
X0005771Y0043816D01*
X0005598Y0044068D01*
X0005431Y0044325D01*
X0005271Y0044586D01*
X0005117Y0044851D01*
X0004970Y0045119D01*
X0004829Y0045391D01*
X0004695Y0045666D01*
X0004568Y0045945D01*
X0004447Y0046226D01*
X0004334Y0046511D01*
X0004228Y0046798D01*
X0004128Y0047087D01*
X0004036Y0047379D01*
X0003951Y0047673D01*
X0003873Y0047969D01*
X0003802Y0048267D01*
X0003739Y0048567D01*
X0003683Y0048868D01*
X0003635Y0049170D01*
X0003594Y0049473D01*
X0003560Y0049777D01*
X0003534Y0050082D01*
X0003515Y0050388D01*
X0003504Y0050694D01*
X0003500Y0051000D01*
X0003504Y0051306D01*
X0003515Y0051612D01*
X0003534Y0051918D01*
X0003560Y0052223D01*
X0003594Y0052527D01*
X0003635Y0052830D01*
X0003683Y0053132D01*
X0003739Y0053433D01*
X0003802Y0053733D01*
X0003873Y0054031D01*
X0003951Y0054327D01*
X0004036Y0054621D01*
X0004128Y0054913D01*
X0004228Y0055202D01*
X0004334Y0055489D01*
X0004447Y0055774D01*
X0004568Y0056055D01*
X0004695Y0056334D01*
X0004829Y0056609D01*
X0004970Y0056881D01*
X0005117Y0057149D01*
X0005271Y0057414D01*
X0005431Y0057675D01*
X0005598Y0057932D01*
X0005771Y0058184D01*
X0005950Y0058433D01*
X0006135Y0058676D01*
X0006326Y0058916D01*
X0006522Y0059150D01*
X0006725Y0059380D01*
X0006933Y0059604D01*
X0007146Y0059824D01*
X0007365Y0060038D01*
X0007589Y0060247D01*
X0007818Y0060450D01*
X0008052Y0060648D01*
X0008290Y0060839D01*
X0008534Y0061025D01*
X0008781Y0061205D01*
X0009034Y0061379D01*
X0009290Y0061546D01*
X0009550Y0061707D01*
X0009814Y0061862D01*
X0010082Y0062010D01*
X0010353Y0062152D01*
X0010628Y0062287D01*
X0010906Y0062415D01*
X0011187Y0062536D01*
X0011471Y0062651D01*
X0011758Y0062758D01*
X0012047Y0062859D01*
X0012339Y0062952D01*
X0012633Y0063038D01*
X0012928Y0063117D01*
X0013226Y0063188D01*
X0013525Y0063253D01*
X0013826Y0063310D01*
X0014128Y0063359D01*
X0014431Y0063401D01*
X0014736Y0063436D01*
X0015040Y0063463D01*
X0015346Y0063483D01*
X0015652Y0063495D01*
X0015958Y0063500D01*
X0016264Y0063497D01*
X0016570Y0063487D01*
X0016876Y0063469D01*
X0017181Y0063444D01*
X0017485Y0063411D01*
X0017789Y0063371D01*
X0018091Y0063324D01*
X0018392Y0063269D01*
X0018692Y0063207D01*
X0018990Y0063137D01*
X0019286Y0063060D01*
X0019581Y0062976D01*
X0019873Y0062885D01*
X0020163Y0062786D01*
X0020450Y0062681D01*
X0020735Y0062569D01*
X0021017Y0062449D01*
X0021296Y0062323D01*
X0021571Y0062190D01*
X0021844Y0062050D01*
X0022113Y0061904D01*
X0022378Y0061751D01*
X0022639Y0061591D01*
X0022896Y0061425D01*
X0023150Y0061253D01*
X0023399Y0061075D01*
X0023643Y0060891D01*
X0023883Y0060701D01*
X0024118Y0060505D01*
X0024349Y0060303D01*
X0024574Y0060096D01*
X0024794Y0059883D01*
X0025009Y0059665D01*
X0025218Y0059442D01*
X0025422Y0059214D01*
X0025621Y0058981D01*
X0025813Y0058743D01*
X0026000Y0058500D01*
X0026000Y0083500D02*
X0025813Y0083257D01*
X0025621Y0083019D01*
X0025422Y0082786D01*
X0025218Y0082558D01*
X0025009Y0082335D01*
X0024794Y0082117D01*
X0024574Y0081904D01*
X0024349Y0081697D01*
X0024118Y0081495D01*
X0023883Y0081299D01*
X0023643Y0081109D01*
X0023399Y0080925D01*
X0023150Y0080747D01*
X0022896Y0080575D01*
X0022639Y0080409D01*
X0022378Y0080249D01*
X0022113Y0080096D01*
X0021844Y0079950D01*
X0021571Y0079810D01*
X0021296Y0079677D01*
X0021017Y0079551D01*
X0020735Y0079431D01*
X0020450Y0079319D01*
X0020163Y0079214D01*
X0019873Y0079115D01*
X0019581Y0079024D01*
X0019286Y0078940D01*
X0018990Y0078863D01*
X0018692Y0078793D01*
X0018392Y0078731D01*
X0018091Y0078676D01*
X0017789Y0078629D01*
X0017485Y0078589D01*
X0017181Y0078556D01*
X0016876Y0078531D01*
X0016570Y0078513D01*
X0016264Y0078503D01*
X0015958Y0078500D01*
X0015652Y0078505D01*
X0015346Y0078517D01*
X0015040Y0078537D01*
X0014736Y0078564D01*
X0014431Y0078599D01*
X0014128Y0078641D01*
X0013826Y0078690D01*
X0013525Y0078747D01*
X0013226Y0078812D01*
X0012928Y0078883D01*
X0012633Y0078962D01*
X0012339Y0079048D01*
X0012047Y0079141D01*
X0011758Y0079242D01*
X0011471Y0079349D01*
X0011187Y0079464D01*
X0010906Y0079585D01*
X0010628Y0079713D01*
X0010353Y0079848D01*
X0010082Y0079990D01*
X0009814Y0080138D01*
X0009550Y0080293D01*
X0009290Y0080454D01*
X0009034Y0080621D01*
X0008781Y0080795D01*
X0008534Y0080975D01*
X0008290Y0081161D01*
X0008052Y0081352D01*
X0007818Y0081550D01*
X0007589Y0081753D01*
X0007365Y0081962D01*
X0007146Y0082176D01*
X0006933Y0082396D01*
X0006725Y0082620D01*
X0006522Y0082850D01*
X0006326Y0083084D01*
X0006135Y0083324D01*
X0005950Y0083567D01*
X0005771Y0083816D01*
X0005598Y0084068D01*
X0005431Y0084325D01*
X0005271Y0084586D01*
X0005117Y0084851D01*
X0004970Y0085119D01*
X0004829Y0085391D01*
X0004695Y0085666D01*
X0004568Y0085945D01*
X0004447Y0086226D01*
X0004334Y0086511D01*
X0004228Y0086798D01*
X0004128Y0087087D01*
X0004036Y0087379D01*
X0003951Y0087673D01*
X0003873Y0087969D01*
X0003802Y0088267D01*
X0003739Y0088567D01*
X0003683Y0088868D01*
X0003635Y0089170D01*
X0003594Y0089473D01*
X0003560Y0089777D01*
X0003534Y0090082D01*
X0003515Y0090388D01*
X0003504Y0090694D01*
X0003500Y0091000D01*
X0003504Y0091306D01*
X0003515Y0091612D01*
X0003534Y0091918D01*
X0003560Y0092223D01*
X0003594Y0092527D01*
X0003635Y0092830D01*
X0003683Y0093132D01*
X0003739Y0093433D01*
X0003802Y0093733D01*
X0003873Y0094031D01*
X0003951Y0094327D01*
X0004036Y0094621D01*
X0004128Y0094913D01*
X0004228Y0095202D01*
X0004334Y0095489D01*
X0004447Y0095774D01*
X0004568Y0096055D01*
X0004695Y0096334D01*
X0004829Y0096609D01*
X0004970Y0096881D01*
X0005117Y0097149D01*
X0005271Y0097414D01*
X0005431Y0097675D01*
X0005598Y0097932D01*
X0005771Y0098184D01*
X0005950Y0098433D01*
X0006135Y0098676D01*
X0006326Y0098916D01*
X0006522Y0099150D01*
X0006725Y0099380D01*
X0006933Y0099604D01*
X0007146Y0099824D01*
X0007365Y0100038D01*
X0007589Y0100247D01*
X0007818Y0100450D01*
X0008052Y0100648D01*
X0008290Y0100839D01*
X0008534Y0101025D01*
X0008781Y0101205D01*
X0009034Y0101379D01*
X0009290Y0101546D01*
X0009550Y0101707D01*
X0009814Y0101862D01*
X0010082Y0102010D01*
X0010353Y0102152D01*
X0010628Y0102287D01*
X0010906Y0102415D01*
X0011187Y0102536D01*
X0011471Y0102651D01*
X0011758Y0102758D01*
X0012047Y0102859D01*
X0012339Y0102952D01*
X0012633Y0103038D01*
X0012928Y0103117D01*
X0013226Y0103188D01*
X0013525Y0103253D01*
X0013826Y0103310D01*
X0014128Y0103359D01*
X0014431Y0103401D01*
X0014736Y0103436D01*
X0015040Y0103463D01*
X0015346Y0103483D01*
X0015652Y0103495D01*
X0015958Y0103500D01*
X0016264Y0103497D01*
X0016570Y0103487D01*
X0016876Y0103469D01*
X0017181Y0103444D01*
X0017485Y0103411D01*
X0017789Y0103371D01*
X0018091Y0103324D01*
X0018392Y0103269D01*
X0018692Y0103207D01*
X0018990Y0103137D01*
X0019286Y0103060D01*
X0019581Y0102976D01*
X0019873Y0102885D01*
X0020163Y0102786D01*
X0020450Y0102681D01*
X0020735Y0102569D01*
X0021017Y0102449D01*
X0021296Y0102323D01*
X0021571Y0102190D01*
X0021844Y0102050D01*
X0022113Y0101904D01*
X0022378Y0101751D01*
X0022639Y0101591D01*
X0022896Y0101425D01*
X0023150Y0101253D01*
X0023399Y0101075D01*
X0023643Y0100891D01*
X0023883Y0100701D01*
X0024118Y0100505D01*
X0024349Y0100303D01*
X0024574Y0100096D01*
X0024794Y0099883D01*
X0025009Y0099665D01*
X0025218Y0099442D01*
X0025422Y0099214D01*
X0025621Y0098981D01*
X0025813Y0098743D01*
X0026000Y0098500D01*
X0026000Y0123500D02*
X0025813Y0123257D01*
X0025621Y0123019D01*
X0025422Y0122786D01*
X0025218Y0122558D01*
X0025009Y0122335D01*
X0024794Y0122117D01*
X0024574Y0121904D01*
X0024349Y0121697D01*
X0024118Y0121495D01*
X0023883Y0121299D01*
X0023643Y0121109D01*
X0023399Y0120925D01*
X0023150Y0120747D01*
X0022896Y0120575D01*
X0022639Y0120409D01*
X0022378Y0120249D01*
X0022113Y0120096D01*
X0021844Y0119950D01*
X0021571Y0119810D01*
X0021296Y0119677D01*
X0021017Y0119551D01*
X0020735Y0119431D01*
X0020450Y0119319D01*
X0020163Y0119214D01*
X0019873Y0119115D01*
X0019581Y0119024D01*
X0019286Y0118940D01*
X0018990Y0118863D01*
X0018692Y0118793D01*
X0018392Y0118731D01*
X0018091Y0118676D01*
X0017789Y0118629D01*
X0017485Y0118589D01*
X0017181Y0118556D01*
X0016876Y0118531D01*
X0016570Y0118513D01*
X0016264Y0118503D01*
X0015958Y0118500D01*
X0015652Y0118505D01*
X0015346Y0118517D01*
X0015040Y0118537D01*
X0014736Y0118564D01*
X0014431Y0118599D01*
X0014128Y0118641D01*
X0013826Y0118690D01*
X0013525Y0118747D01*
X0013226Y0118812D01*
X0012928Y0118883D01*
X0012633Y0118962D01*
X0012339Y0119048D01*
X0012047Y0119141D01*
X0011758Y0119242D01*
X0011471Y0119349D01*
X0011187Y0119464D01*
X0010906Y0119585D01*
X0010628Y0119713D01*
X0010353Y0119848D01*
X0010082Y0119990D01*
X0009814Y0120138D01*
X0009550Y0120293D01*
X0009290Y0120454D01*
X0009034Y0120621D01*
X0008781Y0120795D01*
X0008534Y0120975D01*
X0008290Y0121161D01*
X0008052Y0121352D01*
X0007818Y0121550D01*
X0007589Y0121753D01*
X0007365Y0121962D01*
X0007146Y0122176D01*
X0006933Y0122396D01*
X0006725Y0122620D01*
X0006522Y0122850D01*
X0006326Y0123084D01*
X0006135Y0123324D01*
X0005950Y0123567D01*
X0005771Y0123816D01*
X0005598Y0124068D01*
X0005431Y0124325D01*
X0005271Y0124586D01*
X0005117Y0124851D01*
X0004970Y0125119D01*
X0004829Y0125391D01*
X0004695Y0125666D01*
X0004568Y0125945D01*
X0004447Y0126226D01*
X0004334Y0126511D01*
X0004228Y0126798D01*
X0004128Y0127087D01*
X0004036Y0127379D01*
X0003951Y0127673D01*
X0003873Y0127969D01*
X0003802Y0128267D01*
X0003739Y0128567D01*
X0003683Y0128868D01*
X0003635Y0129170D01*
X0003594Y0129473D01*
X0003560Y0129777D01*
X0003534Y0130082D01*
X0003515Y0130388D01*
X0003504Y0130694D01*
X0003500Y0131000D01*
X0003504Y0131306D01*
X0003515Y0131612D01*
X0003534Y0131918D01*
X0003560Y0132223D01*
X0003594Y0132527D01*
X0003635Y0132830D01*
X0003683Y0133132D01*
X0003739Y0133433D01*
X0003802Y0133733D01*
X0003873Y0134031D01*
X0003951Y0134327D01*
X0004036Y0134621D01*
X0004128Y0134913D01*
X0004228Y0135202D01*
X0004334Y0135489D01*
X0004447Y0135774D01*
X0004568Y0136055D01*
X0004695Y0136334D01*
X0004829Y0136609D01*
X0004970Y0136881D01*
X0005117Y0137149D01*
X0005271Y0137414D01*
X0005431Y0137675D01*
X0005598Y0137932D01*
X0005771Y0138184D01*
X0005950Y0138433D01*
X0006135Y0138676D01*
X0006326Y0138916D01*
X0006522Y0139150D01*
X0006725Y0139380D01*
X0006933Y0139604D01*
X0007146Y0139824D01*
X0007365Y0140038D01*
X0007589Y0140247D01*
X0007818Y0140450D01*
X0008052Y0140648D01*
X0008290Y0140839D01*
X0008534Y0141025D01*
X0008781Y0141205D01*
X0009034Y0141379D01*
X0009290Y0141546D01*
X0009550Y0141707D01*
X0009814Y0141862D01*
X0010082Y0142010D01*
X0010353Y0142152D01*
X0010628Y0142287D01*
X0010906Y0142415D01*
X0011187Y0142536D01*
X0011471Y0142651D01*
X0011758Y0142758D01*
X0012047Y0142859D01*
X0012339Y0142952D01*
X0012633Y0143038D01*
X0012928Y0143117D01*
X0013226Y0143188D01*
X0013525Y0143253D01*
X0013826Y0143310D01*
X0014128Y0143359D01*
X0014431Y0143401D01*
X0014736Y0143436D01*
X0015040Y0143463D01*
X0015346Y0143483D01*
X0015652Y0143495D01*
X0015958Y0143500D01*
X0016264Y0143497D01*
X0016570Y0143487D01*
X0016876Y0143469D01*
X0017181Y0143444D01*
X0017485Y0143411D01*
X0017789Y0143371D01*
X0018091Y0143324D01*
X0018392Y0143269D01*
X0018692Y0143207D01*
X0018990Y0143137D01*
X0019286Y0143060D01*
X0019581Y0142976D01*
X0019873Y0142885D01*
X0020163Y0142786D01*
X0020450Y0142681D01*
X0020735Y0142569D01*
X0021017Y0142449D01*
X0021296Y0142323D01*
X0021571Y0142190D01*
X0021844Y0142050D01*
X0022113Y0141904D01*
X0022378Y0141751D01*
X0022639Y0141591D01*
X0022896Y0141425D01*
X0023150Y0141253D01*
X0023399Y0141075D01*
X0023643Y0140891D01*
X0023883Y0140701D01*
X0024118Y0140505D01*
X0024349Y0140303D01*
X0024574Y0140096D01*
X0024794Y0139883D01*
X0025009Y0139665D01*
X0025218Y0139442D01*
X0025422Y0139214D01*
X0025621Y0138981D01*
X0025813Y0138743D01*
X0026000Y0138500D01*
X0071000Y0138500D02*
X0070813Y0138743D01*
X0070621Y0138981D01*
X0070422Y0139214D01*
X0070218Y0139442D01*
X0070009Y0139665D01*
X0069794Y0139883D01*
X0069574Y0140096D01*
X0069349Y0140303D01*
X0069118Y0140505D01*
X0068883Y0140701D01*
X0068643Y0140891D01*
X0068399Y0141075D01*
X0068150Y0141253D01*
X0067896Y0141425D01*
X0067639Y0141591D01*
X0067378Y0141751D01*
X0067113Y0141904D01*
X0066844Y0142050D01*
X0066571Y0142190D01*
X0066296Y0142323D01*
X0066017Y0142449D01*
X0065735Y0142569D01*
X0065450Y0142681D01*
X0065163Y0142786D01*
X0064873Y0142885D01*
X0064581Y0142976D01*
X0064286Y0143060D01*
X0063990Y0143137D01*
X0063692Y0143207D01*
X0063392Y0143269D01*
X0063091Y0143324D01*
X0062789Y0143371D01*
X0062485Y0143411D01*
X0062181Y0143444D01*
X0061876Y0143469D01*
X0061570Y0143487D01*
X0061264Y0143497D01*
X0060958Y0143500D01*
X0060652Y0143495D01*
X0060346Y0143483D01*
X0060040Y0143463D01*
X0059736Y0143436D01*
X0059431Y0143401D01*
X0059128Y0143359D01*
X0058826Y0143310D01*
X0058525Y0143253D01*
X0058226Y0143188D01*
X0057928Y0143117D01*
X0057633Y0143038D01*
X0057339Y0142952D01*
X0057047Y0142859D01*
X0056758Y0142758D01*
X0056471Y0142651D01*
X0056187Y0142536D01*
X0055906Y0142415D01*
X0055628Y0142287D01*
X0055353Y0142152D01*
X0055082Y0142010D01*
X0054814Y0141862D01*
X0054550Y0141707D01*
X0054290Y0141546D01*
X0054034Y0141379D01*
X0053781Y0141205D01*
X0053534Y0141025D01*
X0053290Y0140839D01*
X0053052Y0140648D01*
X0052818Y0140450D01*
X0052589Y0140247D01*
X0052365Y0140038D01*
X0052146Y0139824D01*
X0051933Y0139604D01*
X0051725Y0139380D01*
X0051522Y0139150D01*
X0051326Y0138916D01*
X0051135Y0138676D01*
X0050950Y0138433D01*
X0050771Y0138184D01*
X0050598Y0137932D01*
X0050431Y0137675D01*
X0050271Y0137414D01*
X0050117Y0137149D01*
X0049970Y0136881D01*
X0049829Y0136609D01*
X0049695Y0136334D01*
X0049568Y0136055D01*
X0049447Y0135774D01*
X0049334Y0135489D01*
X0049228Y0135202D01*
X0049128Y0134913D01*
X0049036Y0134621D01*
X0048951Y0134327D01*
X0048873Y0134031D01*
X0048802Y0133733D01*
X0048739Y0133433D01*
X0048683Y0133132D01*
X0048635Y0132830D01*
X0048594Y0132527D01*
X0048560Y0132223D01*
X0048534Y0131918D01*
X0048515Y0131612D01*
X0048504Y0131306D01*
X0048500Y0131000D01*
X0048504Y0130694D01*
X0048515Y0130388D01*
X0048534Y0130082D01*
X0048560Y0129777D01*
X0048594Y0129473D01*
X0048635Y0129170D01*
X0048683Y0128868D01*
X0048739Y0128567D01*
X0048802Y0128267D01*
X0048873Y0127969D01*
X0048951Y0127673D01*
X0049036Y0127379D01*
X0049128Y0127087D01*
X0049228Y0126798D01*
X0049334Y0126511D01*
X0049447Y0126226D01*
X0049568Y0125945D01*
X0049695Y0125666D01*
X0049829Y0125391D01*
X0049970Y0125119D01*
X0050117Y0124851D01*
X0050271Y0124586D01*
X0050431Y0124325D01*
X0050598Y0124068D01*
X0050771Y0123816D01*
X0050950Y0123567D01*
X0051135Y0123324D01*
X0051326Y0123084D01*
X0051522Y0122850D01*
X0051725Y0122620D01*
X0051933Y0122396D01*
X0052146Y0122176D01*
X0052365Y0121962D01*
X0052589Y0121753D01*
X0052818Y0121550D01*
X0053052Y0121352D01*
X0053290Y0121161D01*
X0053534Y0120975D01*
X0053781Y0120795D01*
X0054034Y0120621D01*
X0054290Y0120454D01*
X0054550Y0120293D01*
X0054814Y0120138D01*
X0055082Y0119990D01*
X0055353Y0119848D01*
X0055628Y0119713D01*
X0055906Y0119585D01*
X0056187Y0119464D01*
X0056471Y0119349D01*
X0056758Y0119242D01*
X0057047Y0119141D01*
X0057339Y0119048D01*
X0057633Y0118962D01*
X0057928Y0118883D01*
X0058226Y0118812D01*
X0058525Y0118747D01*
X0058826Y0118690D01*
X0059128Y0118641D01*
X0059431Y0118599D01*
X0059736Y0118564D01*
X0060040Y0118537D01*
X0060346Y0118517D01*
X0060652Y0118505D01*
X0060958Y0118500D01*
X0061264Y0118503D01*
X0061570Y0118513D01*
X0061876Y0118531D01*
X0062181Y0118556D01*
X0062485Y0118589D01*
X0062789Y0118629D01*
X0063091Y0118676D01*
X0063392Y0118731D01*
X0063692Y0118793D01*
X0063990Y0118863D01*
X0064286Y0118940D01*
X0064581Y0119024D01*
X0064873Y0119115D01*
X0065163Y0119214D01*
X0065450Y0119319D01*
X0065735Y0119431D01*
X0066017Y0119551D01*
X0066296Y0119677D01*
X0066571Y0119810D01*
X0066844Y0119950D01*
X0067113Y0120096D01*
X0067378Y0120249D01*
X0067639Y0120409D01*
X0067896Y0120575D01*
X0068150Y0120747D01*
X0068399Y0120925D01*
X0068643Y0121109D01*
X0068883Y0121299D01*
X0069118Y0121495D01*
X0069349Y0121697D01*
X0069574Y0121904D01*
X0069794Y0122117D01*
X0070009Y0122335D01*
X0070218Y0122558D01*
X0070422Y0122786D01*
X0070621Y0123019D01*
X0070813Y0123257D01*
X0071000Y0123500D01*
X0111000Y0123500D02*
X0110813Y0123257D01*
X0110621Y0123019D01*
X0110422Y0122786D01*
X0110218Y0122558D01*
X0110009Y0122335D01*
X0109794Y0122117D01*
X0109574Y0121904D01*
X0109349Y0121697D01*
X0109118Y0121495D01*
X0108883Y0121299D01*
X0108643Y0121109D01*
X0108399Y0120925D01*
X0108150Y0120747D01*
X0107896Y0120575D01*
X0107639Y0120409D01*
X0107378Y0120249D01*
X0107113Y0120096D01*
X0106844Y0119950D01*
X0106571Y0119810D01*
X0106296Y0119677D01*
X0106017Y0119551D01*
X0105735Y0119431D01*
X0105450Y0119319D01*
X0105163Y0119214D01*
X0104873Y0119115D01*
X0104581Y0119024D01*
X0104286Y0118940D01*
X0103990Y0118863D01*
X0103692Y0118793D01*
X0103392Y0118731D01*
X0103091Y0118676D01*
X0102789Y0118629D01*
X0102485Y0118589D01*
X0102181Y0118556D01*
X0101876Y0118531D01*
X0101570Y0118513D01*
X0101264Y0118503D01*
X0100958Y0118500D01*
X0100652Y0118505D01*
X0100346Y0118517D01*
X0100040Y0118537D01*
X0099736Y0118564D01*
X0099431Y0118599D01*
X0099128Y0118641D01*
X0098826Y0118690D01*
X0098525Y0118747D01*
X0098226Y0118812D01*
X0097928Y0118883D01*
X0097633Y0118962D01*
X0097339Y0119048D01*
X0097047Y0119141D01*
X0096758Y0119242D01*
X0096471Y0119349D01*
X0096187Y0119464D01*
X0095906Y0119585D01*
X0095628Y0119713D01*
X0095353Y0119848D01*
X0095082Y0119990D01*
X0094814Y0120138D01*
X0094550Y0120293D01*
X0094290Y0120454D01*
X0094034Y0120621D01*
X0093781Y0120795D01*
X0093534Y0120975D01*
X0093290Y0121161D01*
X0093052Y0121352D01*
X0092818Y0121550D01*
X0092589Y0121753D01*
X0092365Y0121962D01*
X0092146Y0122176D01*
X0091933Y0122396D01*
X0091725Y0122620D01*
X0091522Y0122850D01*
X0091326Y0123084D01*
X0091135Y0123324D01*
X0090950Y0123567D01*
X0090771Y0123816D01*
X0090598Y0124068D01*
X0090431Y0124325D01*
X0090271Y0124586D01*
X0090117Y0124851D01*
X0089970Y0125119D01*
X0089829Y0125391D01*
X0089695Y0125666D01*
X0089568Y0125945D01*
X0089447Y0126226D01*
X0089334Y0126511D01*
X0089228Y0126798D01*
X0089128Y0127087D01*
X0089036Y0127379D01*
X0088951Y0127673D01*
X0088873Y0127969D01*
X0088802Y0128267D01*
X0088739Y0128567D01*
X0088683Y0128868D01*
X0088635Y0129170D01*
X0088594Y0129473D01*
X0088560Y0129777D01*
X0088534Y0130082D01*
X0088515Y0130388D01*
X0088504Y0130694D01*
X0088500Y0131000D01*
X0088504Y0131306D01*
X0088515Y0131612D01*
X0088534Y0131918D01*
X0088560Y0132223D01*
X0088594Y0132527D01*
X0088635Y0132830D01*
X0088683Y0133132D01*
X0088739Y0133433D01*
X0088802Y0133733D01*
X0088873Y0134031D01*
X0088951Y0134327D01*
X0089036Y0134621D01*
X0089128Y0134913D01*
X0089228Y0135202D01*
X0089334Y0135489D01*
X0089447Y0135774D01*
X0089568Y0136055D01*
X0089695Y0136334D01*
X0089829Y0136609D01*
X0089970Y0136881D01*
X0090117Y0137149D01*
X0090271Y0137414D01*
X0090431Y0137675D01*
X0090598Y0137932D01*
X0090771Y0138184D01*
X0090950Y0138433D01*
X0091135Y0138676D01*
X0091326Y0138916D01*
X0091522Y0139150D01*
X0091725Y0139380D01*
X0091933Y0139604D01*
X0092146Y0139824D01*
X0092365Y0140038D01*
X0092589Y0140247D01*
X0092818Y0140450D01*
X0093052Y0140648D01*
X0093290Y0140839D01*
X0093534Y0141025D01*
X0093781Y0141205D01*
X0094034Y0141379D01*
X0094290Y0141546D01*
X0094550Y0141707D01*
X0094814Y0141862D01*
X0095082Y0142010D01*
X0095353Y0142152D01*
X0095628Y0142287D01*
X0095906Y0142415D01*
X0096187Y0142536D01*
X0096471Y0142651D01*
X0096758Y0142758D01*
X0097047Y0142859D01*
X0097339Y0142952D01*
X0097633Y0143038D01*
X0097928Y0143117D01*
X0098226Y0143188D01*
X0098525Y0143253D01*
X0098826Y0143310D01*
X0099128Y0143359D01*
X0099431Y0143401D01*
X0099736Y0143436D01*
X0100040Y0143463D01*
X0100346Y0143483D01*
X0100652Y0143495D01*
X0100958Y0143500D01*
X0101264Y0143497D01*
X0101570Y0143487D01*
X0101876Y0143469D01*
X0102181Y0143444D01*
X0102485Y0143411D01*
X0102789Y0143371D01*
X0103091Y0143324D01*
X0103392Y0143269D01*
X0103692Y0143207D01*
X0103990Y0143137D01*
X0104286Y0143060D01*
X0104581Y0142976D01*
X0104873Y0142885D01*
X0105163Y0142786D01*
X0105450Y0142681D01*
X0105735Y0142569D01*
X0106017Y0142449D01*
X0106296Y0142323D01*
X0106571Y0142190D01*
X0106844Y0142050D01*
X0107113Y0141904D01*
X0107378Y0141751D01*
X0107639Y0141591D01*
X0107896Y0141425D01*
X0108150Y0141253D01*
X0108399Y0141075D01*
X0108643Y0140891D01*
X0108883Y0140701D01*
X0109118Y0140505D01*
X0109349Y0140303D01*
X0109574Y0140096D01*
X0109794Y0139883D01*
X0110009Y0139665D01*
X0110218Y0139442D01*
X0110422Y0139214D01*
X0110621Y0138981D01*
X0110813Y0138743D01*
X0111000Y0138500D01*
X0146000Y0138500D02*
X0145813Y0138743D01*
X0145621Y0138981D01*
X0145422Y0139214D01*
X0145218Y0139442D01*
X0145009Y0139665D01*
X0144794Y0139883D01*
X0144574Y0140096D01*
X0144349Y0140303D01*
X0144118Y0140505D01*
X0143883Y0140701D01*
X0143643Y0140891D01*
X0143399Y0141075D01*
X0143150Y0141253D01*
X0142896Y0141425D01*
X0142639Y0141591D01*
X0142378Y0141751D01*
X0142113Y0141904D01*
X0141844Y0142050D01*
X0141571Y0142190D01*
X0141296Y0142323D01*
X0141017Y0142449D01*
X0140735Y0142569D01*
X0140450Y0142681D01*
X0140163Y0142786D01*
X0139873Y0142885D01*
X0139581Y0142976D01*
X0139286Y0143060D01*
X0138990Y0143137D01*
X0138692Y0143207D01*
X0138392Y0143269D01*
X0138091Y0143324D01*
X0137789Y0143371D01*
X0137485Y0143411D01*
X0137181Y0143444D01*
X0136876Y0143469D01*
X0136570Y0143487D01*
X0136264Y0143497D01*
X0135958Y0143500D01*
X0135652Y0143495D01*
X0135346Y0143483D01*
X0135040Y0143463D01*
X0134736Y0143436D01*
X0134431Y0143401D01*
X0134128Y0143359D01*
X0133826Y0143310D01*
X0133525Y0143253D01*
X0133226Y0143188D01*
X0132928Y0143117D01*
X0132633Y0143038D01*
X0132339Y0142952D01*
X0132047Y0142859D01*
X0131758Y0142758D01*
X0131471Y0142651D01*
X0131187Y0142536D01*
X0130906Y0142415D01*
X0130628Y0142287D01*
X0130353Y0142152D01*
X0130082Y0142010D01*
X0129814Y0141862D01*
X0129550Y0141707D01*
X0129290Y0141546D01*
X0129034Y0141379D01*
X0128781Y0141205D01*
X0128534Y0141025D01*
X0128290Y0140839D01*
X0128052Y0140648D01*
X0127818Y0140450D01*
X0127589Y0140247D01*
X0127365Y0140038D01*
X0127146Y0139824D01*
X0126933Y0139604D01*
X0126725Y0139380D01*
X0126522Y0139150D01*
X0126326Y0138916D01*
X0126135Y0138676D01*
X0125950Y0138433D01*
X0125771Y0138184D01*
X0125598Y0137932D01*
X0125431Y0137675D01*
X0125271Y0137414D01*
X0125117Y0137149D01*
X0124970Y0136881D01*
X0124829Y0136609D01*
X0124695Y0136334D01*
X0124568Y0136055D01*
X0124447Y0135774D01*
X0124334Y0135489D01*
X0124228Y0135202D01*
X0124128Y0134913D01*
X0124036Y0134621D01*
X0123951Y0134327D01*
X0123873Y0134031D01*
X0123802Y0133733D01*
X0123739Y0133433D01*
X0123683Y0133132D01*
X0123635Y0132830D01*
X0123594Y0132527D01*
X0123560Y0132223D01*
X0123534Y0131918D01*
X0123515Y0131612D01*
X0123504Y0131306D01*
X0123500Y0131000D01*
X0123504Y0130694D01*
X0123515Y0130388D01*
X0123534Y0130082D01*
X0123560Y0129777D01*
X0123594Y0129473D01*
X0123635Y0129170D01*
X0123683Y0128868D01*
X0123739Y0128567D01*
X0123802Y0128267D01*
X0123873Y0127969D01*
X0123951Y0127673D01*
X0124036Y0127379D01*
X0124128Y0127087D01*
X0124228Y0126798D01*
X0124334Y0126511D01*
X0124447Y0126226D01*
X0124568Y0125945D01*
X0124695Y0125666D01*
X0124829Y0125391D01*
X0124970Y0125119D01*
X0125117Y0124851D01*
X0125271Y0124586D01*
X0125431Y0124325D01*
X0125598Y0124068D01*
X0125771Y0123816D01*
X0125950Y0123567D01*
X0126135Y0123324D01*
X0126326Y0123084D01*
X0126522Y0122850D01*
X0126725Y0122620D01*
X0126933Y0122396D01*
X0127146Y0122176D01*
X0127365Y0121962D01*
X0127589Y0121753D01*
X0127818Y0121550D01*
X0128052Y0121352D01*
X0128290Y0121161D01*
X0128534Y0120975D01*
X0128781Y0120795D01*
X0129034Y0120621D01*
X0129290Y0120454D01*
X0129550Y0120293D01*
X0129814Y0120138D01*
X0130082Y0119990D01*
X0130353Y0119848D01*
X0130628Y0119713D01*
X0130906Y0119585D01*
X0131187Y0119464D01*
X0131471Y0119349D01*
X0131758Y0119242D01*
X0132047Y0119141D01*
X0132339Y0119048D01*
X0132633Y0118962D01*
X0132928Y0118883D01*
X0133226Y0118812D01*
X0133525Y0118747D01*
X0133826Y0118690D01*
X0134128Y0118641D01*
X0134431Y0118599D01*
X0134736Y0118564D01*
X0135040Y0118537D01*
X0135346Y0118517D01*
X0135652Y0118505D01*
X0135958Y0118500D01*
X0136264Y0118503D01*
X0136570Y0118513D01*
X0136876Y0118531D01*
X0137181Y0118556D01*
X0137485Y0118589D01*
X0137789Y0118629D01*
X0138091Y0118676D01*
X0138392Y0118731D01*
X0138692Y0118793D01*
X0138990Y0118863D01*
X0139286Y0118940D01*
X0139581Y0119024D01*
X0139873Y0119115D01*
X0140163Y0119214D01*
X0140450Y0119319D01*
X0140735Y0119431D01*
X0141017Y0119551D01*
X0141296Y0119677D01*
X0141571Y0119810D01*
X0141844Y0119950D01*
X0142113Y0120096D01*
X0142378Y0120249D01*
X0142639Y0120409D01*
X0142896Y0120575D01*
X0143150Y0120747D01*
X0143399Y0120925D01*
X0143643Y0121109D01*
X0143883Y0121299D01*
X0144118Y0121495D01*
X0144349Y0121697D01*
X0144574Y0121904D01*
X0144794Y0122117D01*
X0145009Y0122335D01*
X0145218Y0122558D01*
X0145422Y0122786D01*
X0145621Y0123019D01*
X0145813Y0123257D01*
X0146000Y0123500D01*
X0146000Y0098500D02*
X0145813Y0098743D01*
X0145621Y0098981D01*
X0145422Y0099214D01*
X0145218Y0099442D01*
X0145009Y0099665D01*
X0144794Y0099883D01*
X0144574Y0100096D01*
X0144349Y0100303D01*
X0144118Y0100505D01*
X0143883Y0100701D01*
X0143643Y0100891D01*
X0143399Y0101075D01*
X0143150Y0101253D01*
X0142896Y0101425D01*
X0142639Y0101591D01*
X0142378Y0101751D01*
X0142113Y0101904D01*
X0141844Y0102050D01*
X0141571Y0102190D01*
X0141296Y0102323D01*
X0141017Y0102449D01*
X0140735Y0102569D01*
X0140450Y0102681D01*
X0140163Y0102786D01*
X0139873Y0102885D01*
X0139581Y0102976D01*
X0139286Y0103060D01*
X0138990Y0103137D01*
X0138692Y0103207D01*
X0138392Y0103269D01*
X0138091Y0103324D01*
X0137789Y0103371D01*
X0137485Y0103411D01*
X0137181Y0103444D01*
X0136876Y0103469D01*
X0136570Y0103487D01*
X0136264Y0103497D01*
X0135958Y0103500D01*
X0135652Y0103495D01*
X0135346Y0103483D01*
X0135040Y0103463D01*
X0134736Y0103436D01*
X0134431Y0103401D01*
X0134128Y0103359D01*
X0133826Y0103310D01*
X0133525Y0103253D01*
X0133226Y0103188D01*
X0132928Y0103117D01*
X0132633Y0103038D01*
X0132339Y0102952D01*
X0132047Y0102859D01*
X0131758Y0102758D01*
X0131471Y0102651D01*
X0131187Y0102536D01*
X0130906Y0102415D01*
X0130628Y0102287D01*
X0130353Y0102152D01*
X0130082Y0102010D01*
X0129814Y0101862D01*
X0129550Y0101707D01*
X0129290Y0101546D01*
X0129034Y0101379D01*
X0128781Y0101205D01*
X0128534Y0101025D01*
X0128290Y0100839D01*
X0128052Y0100648D01*
X0127818Y0100450D01*
X0127589Y0100247D01*
X0127365Y0100038D01*
X0127146Y0099824D01*
X0126933Y0099604D01*
X0126725Y0099380D01*
X0126522Y0099150D01*
X0126326Y0098916D01*
X0126135Y0098676D01*
X0125950Y0098433D01*
X0125771Y0098184D01*
X0125598Y0097932D01*
X0125431Y0097675D01*
X0125271Y0097414D01*
X0125117Y0097149D01*
X0124970Y0096881D01*
X0124829Y0096609D01*
X0124695Y0096334D01*
X0124568Y0096055D01*
X0124447Y0095774D01*
X0124334Y0095489D01*
X0124228Y0095202D01*
X0124128Y0094913D01*
X0124036Y0094621D01*
X0123951Y0094327D01*
X0123873Y0094031D01*
X0123802Y0093733D01*
X0123739Y0093433D01*
X0123683Y0093132D01*
X0123635Y0092830D01*
X0123594Y0092527D01*
X0123560Y0092223D01*
X0123534Y0091918D01*
X0123515Y0091612D01*
X0123504Y0091306D01*
X0123500Y0091000D01*
X0123504Y0090694D01*
X0123515Y0090388D01*
X0123534Y0090082D01*
X0123560Y0089777D01*
X0123594Y0089473D01*
X0123635Y0089170D01*
X0123683Y0088868D01*
X0123739Y0088567D01*
X0123802Y0088267D01*
X0123873Y0087969D01*
X0123951Y0087673D01*
X0124036Y0087379D01*
X0124128Y0087087D01*
X0124228Y0086798D01*
X0124334Y0086511D01*
X0124447Y0086226D01*
X0124568Y0085945D01*
X0124695Y0085666D01*
X0124829Y0085391D01*
X0124970Y0085119D01*
X0125117Y0084851D01*
X0125271Y0084586D01*
X0125431Y0084325D01*
X0125598Y0084068D01*
X0125771Y0083816D01*
X0125950Y0083567D01*
X0126135Y0083324D01*
X0126326Y0083084D01*
X0126522Y0082850D01*
X0126725Y0082620D01*
X0126933Y0082396D01*
X0127146Y0082176D01*
X0127365Y0081962D01*
X0127589Y0081753D01*
X0127818Y0081550D01*
X0128052Y0081352D01*
X0128290Y0081161D01*
X0128534Y0080975D01*
X0128781Y0080795D01*
X0129034Y0080621D01*
X0129290Y0080454D01*
X0129550Y0080293D01*
X0129814Y0080138D01*
X0130082Y0079990D01*
X0130353Y0079848D01*
X0130628Y0079713D01*
X0130906Y0079585D01*
X0131187Y0079464D01*
X0131471Y0079349D01*
X0131758Y0079242D01*
X0132047Y0079141D01*
X0132339Y0079048D01*
X0132633Y0078962D01*
X0132928Y0078883D01*
X0133226Y0078812D01*
X0133525Y0078747D01*
X0133826Y0078690D01*
X0134128Y0078641D01*
X0134431Y0078599D01*
X0134736Y0078564D01*
X0135040Y0078537D01*
X0135346Y0078517D01*
X0135652Y0078505D01*
X0135958Y0078500D01*
X0136264Y0078503D01*
X0136570Y0078513D01*
X0136876Y0078531D01*
X0137181Y0078556D01*
X0137485Y0078589D01*
X0137789Y0078629D01*
X0138091Y0078676D01*
X0138392Y0078731D01*
X0138692Y0078793D01*
X0138990Y0078863D01*
X0139286Y0078940D01*
X0139581Y0079024D01*
X0139873Y0079115D01*
X0140163Y0079214D01*
X0140450Y0079319D01*
X0140735Y0079431D01*
X0141017Y0079551D01*
X0141296Y0079677D01*
X0141571Y0079810D01*
X0141844Y0079950D01*
X0142113Y0080096D01*
X0142378Y0080249D01*
X0142639Y0080409D01*
X0142896Y0080575D01*
X0143150Y0080747D01*
X0143399Y0080925D01*
X0143643Y0081109D01*
X0143883Y0081299D01*
X0144118Y0081495D01*
X0144349Y0081697D01*
X0144574Y0081904D01*
X0144794Y0082117D01*
X0145009Y0082335D01*
X0145218Y0082558D01*
X0145422Y0082786D01*
X0145621Y0083019D01*
X0145813Y0083257D01*
X0146000Y0083500D01*
X0146000Y0058500D02*
X0145813Y0058743D01*
X0145621Y0058981D01*
X0145422Y0059214D01*
X0145218Y0059442D01*
X0145009Y0059665D01*
X0144794Y0059883D01*
X0144574Y0060096D01*
X0144349Y0060303D01*
X0144118Y0060505D01*
X0143883Y0060701D01*
X0143643Y0060891D01*
X0143399Y0061075D01*
X0143150Y0061253D01*
X0142896Y0061425D01*
X0142639Y0061591D01*
X0142378Y0061751D01*
X0142113Y0061904D01*
X0141844Y0062050D01*
X0141571Y0062190D01*
X0141296Y0062323D01*
X0141017Y0062449D01*
X0140735Y0062569D01*
X0140450Y0062681D01*
X0140163Y0062786D01*
X0139873Y0062885D01*
X0139581Y0062976D01*
X0139286Y0063060D01*
X0138990Y0063137D01*
X0138692Y0063207D01*
X0138392Y0063269D01*
X0138091Y0063324D01*
X0137789Y0063371D01*
X0137485Y0063411D01*
X0137181Y0063444D01*
X0136876Y0063469D01*
X0136570Y0063487D01*
X0136264Y0063497D01*
X0135958Y0063500D01*
X0135652Y0063495D01*
X0135346Y0063483D01*
X0135040Y0063463D01*
X0134736Y0063436D01*
X0134431Y0063401D01*
X0134128Y0063359D01*
X0133826Y0063310D01*
X0133525Y0063253D01*
X0133226Y0063188D01*
X0132928Y0063117D01*
X0132633Y0063038D01*
X0132339Y0062952D01*
X0132047Y0062859D01*
X0131758Y0062758D01*
X0131471Y0062651D01*
X0131187Y0062536D01*
X0130906Y0062415D01*
X0130628Y0062287D01*
X0130353Y0062152D01*
X0130082Y0062010D01*
X0129814Y0061862D01*
X0129550Y0061707D01*
X0129290Y0061546D01*
X0129034Y0061379D01*
X0128781Y0061205D01*
X0128534Y0061025D01*
X0128290Y0060839D01*
X0128052Y0060648D01*
X0127818Y0060450D01*
X0127589Y0060247D01*
X0127365Y0060038D01*
X0127146Y0059824D01*
X0126933Y0059604D01*
X0126725Y0059380D01*
X0126522Y0059150D01*
X0126326Y0058916D01*
X0126135Y0058676D01*
X0125950Y0058433D01*
X0125771Y0058184D01*
X0125598Y0057932D01*
X0125431Y0057675D01*
X0125271Y0057414D01*
X0125117Y0057149D01*
X0124970Y0056881D01*
X0124829Y0056609D01*
X0124695Y0056334D01*
X0124568Y0056055D01*
X0124447Y0055774D01*
X0124334Y0055489D01*
X0124228Y0055202D01*
X0124128Y0054913D01*
X0124036Y0054621D01*
X0123951Y0054327D01*
X0123873Y0054031D01*
X0123802Y0053733D01*
X0123739Y0053433D01*
X0123683Y0053132D01*
X0123635Y0052830D01*
X0123594Y0052527D01*
X0123560Y0052223D01*
X0123534Y0051918D01*
X0123515Y0051612D01*
X0123504Y0051306D01*
X0123500Y0051000D01*
X0123504Y0050694D01*
X0123515Y0050388D01*
X0123534Y0050082D01*
X0123560Y0049777D01*
X0123594Y0049473D01*
X0123635Y0049170D01*
X0123683Y0048868D01*
X0123739Y0048567D01*
X0123802Y0048267D01*
X0123873Y0047969D01*
X0123951Y0047673D01*
X0124036Y0047379D01*
X0124128Y0047087D01*
X0124228Y0046798D01*
X0124334Y0046511D01*
X0124447Y0046226D01*
X0124568Y0045945D01*
X0124695Y0045666D01*
X0124829Y0045391D01*
X0124970Y0045119D01*
X0125117Y0044851D01*
X0125271Y0044586D01*
X0125431Y0044325D01*
X0125598Y0044068D01*
X0125771Y0043816D01*
X0125950Y0043567D01*
X0126135Y0043324D01*
X0126326Y0043084D01*
X0126522Y0042850D01*
X0126725Y0042620D01*
X0126933Y0042396D01*
X0127146Y0042176D01*
X0127365Y0041962D01*
X0127589Y0041753D01*
X0127818Y0041550D01*
X0128052Y0041352D01*
X0128290Y0041161D01*
X0128534Y0040975D01*
X0128781Y0040795D01*
X0129034Y0040621D01*
X0129290Y0040454D01*
X0129550Y0040293D01*
X0129814Y0040138D01*
X0130082Y0039990D01*
X0130353Y0039848D01*
X0130628Y0039713D01*
X0130906Y0039585D01*
X0131187Y0039464D01*
X0131471Y0039349D01*
X0131758Y0039242D01*
X0132047Y0039141D01*
X0132339Y0039048D01*
X0132633Y0038962D01*
X0132928Y0038883D01*
X0133226Y0038812D01*
X0133525Y0038747D01*
X0133826Y0038690D01*
X0134128Y0038641D01*
X0134431Y0038599D01*
X0134736Y0038564D01*
X0135040Y0038537D01*
X0135346Y0038517D01*
X0135652Y0038505D01*
X0135958Y0038500D01*
X0136264Y0038503D01*
X0136570Y0038513D01*
X0136876Y0038531D01*
X0137181Y0038556D01*
X0137485Y0038589D01*
X0137789Y0038629D01*
X0138091Y0038676D01*
X0138392Y0038731D01*
X0138692Y0038793D01*
X0138990Y0038863D01*
X0139286Y0038940D01*
X0139581Y0039024D01*
X0139873Y0039115D01*
X0140163Y0039214D01*
X0140450Y0039319D01*
X0140735Y0039431D01*
X0141017Y0039551D01*
X0141296Y0039677D01*
X0141571Y0039810D01*
X0141844Y0039950D01*
X0142113Y0040096D01*
X0142378Y0040249D01*
X0142639Y0040409D01*
X0142896Y0040575D01*
X0143150Y0040747D01*
X0143399Y0040925D01*
X0143643Y0041109D01*
X0143883Y0041299D01*
X0144118Y0041495D01*
X0144349Y0041697D01*
X0144574Y0041904D01*
X0144794Y0042117D01*
X0145009Y0042335D01*
X0145218Y0042558D01*
X0145422Y0042786D01*
X0145621Y0043019D01*
X0145813Y0043257D01*
X0146000Y0043500D01*
X0111000Y0043500D02*
X0110813Y0043257D01*
X0110621Y0043019D01*
X0110422Y0042786D01*
X0110218Y0042558D01*
X0110009Y0042335D01*
X0109794Y0042117D01*
X0109574Y0041904D01*
X0109349Y0041697D01*
X0109118Y0041495D01*
X0108883Y0041299D01*
X0108643Y0041109D01*
X0108399Y0040925D01*
X0108150Y0040747D01*
X0107896Y0040575D01*
X0107639Y0040409D01*
X0107378Y0040249D01*
X0107113Y0040096D01*
X0106844Y0039950D01*
X0106571Y0039810D01*
X0106296Y0039677D01*
X0106017Y0039551D01*
X0105735Y0039431D01*
X0105450Y0039319D01*
X0105163Y0039214D01*
X0104873Y0039115D01*
X0104581Y0039024D01*
X0104286Y0038940D01*
X0103990Y0038863D01*
X0103692Y0038793D01*
X0103392Y0038731D01*
X0103091Y0038676D01*
X0102789Y0038629D01*
X0102485Y0038589D01*
X0102181Y0038556D01*
X0101876Y0038531D01*
X0101570Y0038513D01*
X0101264Y0038503D01*
X0100958Y0038500D01*
X0100652Y0038505D01*
X0100346Y0038517D01*
X0100040Y0038537D01*
X0099736Y0038564D01*
X0099431Y0038599D01*
X0099128Y0038641D01*
X0098826Y0038690D01*
X0098525Y0038747D01*
X0098226Y0038812D01*
X0097928Y0038883D01*
X0097633Y0038962D01*
X0097339Y0039048D01*
X0097047Y0039141D01*
X0096758Y0039242D01*
X0096471Y0039349D01*
X0096187Y0039464D01*
X0095906Y0039585D01*
X0095628Y0039713D01*
X0095353Y0039848D01*
X0095082Y0039990D01*
X0094814Y0040138D01*
X0094550Y0040293D01*
X0094290Y0040454D01*
X0094034Y0040621D01*
X0093781Y0040795D01*
X0093534Y0040975D01*
X0093290Y0041161D01*
X0093052Y0041352D01*
X0092818Y0041550D01*
X0092589Y0041753D01*
X0092365Y0041962D01*
X0092146Y0042176D01*
X0091933Y0042396D01*
X0091725Y0042620D01*
X0091522Y0042850D01*
X0091326Y0043084D01*
X0091135Y0043324D01*
X0090950Y0043567D01*
X0090771Y0043816D01*
X0090598Y0044068D01*
X0090431Y0044325D01*
X0090271Y0044586D01*
X0090117Y0044851D01*
X0089970Y0045119D01*
X0089829Y0045391D01*
X0089695Y0045666D01*
X0089568Y0045945D01*
X0089447Y0046226D01*
X0089334Y0046511D01*
X0089228Y0046798D01*
X0089128Y0047087D01*
X0089036Y0047379D01*
X0088951Y0047673D01*
X0088873Y0047969D01*
X0088802Y0048267D01*
X0088739Y0048567D01*
X0088683Y0048868D01*
X0088635Y0049170D01*
X0088594Y0049473D01*
X0088560Y0049777D01*
X0088534Y0050082D01*
X0088515Y0050388D01*
X0088504Y0050694D01*
X0088500Y0051000D01*
X0088504Y0051306D01*
X0088515Y0051612D01*
X0088534Y0051918D01*
X0088560Y0052223D01*
X0088594Y0052527D01*
X0088635Y0052830D01*
X0088683Y0053132D01*
X0088739Y0053433D01*
X0088802Y0053733D01*
X0088873Y0054031D01*
X0088951Y0054327D01*
X0089036Y0054621D01*
X0089128Y0054913D01*
X0089228Y0055202D01*
X0089334Y0055489D01*
X0089447Y0055774D01*
X0089568Y0056055D01*
X0089695Y0056334D01*
X0089829Y0056609D01*
X0089970Y0056881D01*
X0090117Y0057149D01*
X0090271Y0057414D01*
X0090431Y0057675D01*
X0090598Y0057932D01*
X0090771Y0058184D01*
X0090950Y0058433D01*
X0091135Y0058676D01*
X0091326Y0058916D01*
X0091522Y0059150D01*
X0091725Y0059380D01*
X0091933Y0059604D01*
X0092146Y0059824D01*
X0092365Y0060038D01*
X0092589Y0060247D01*
X0092818Y0060450D01*
X0093052Y0060648D01*
X0093290Y0060839D01*
X0093534Y0061025D01*
X0093781Y0061205D01*
X0094034Y0061379D01*
X0094290Y0061546D01*
X0094550Y0061707D01*
X0094814Y0061862D01*
X0095082Y0062010D01*
X0095353Y0062152D01*
X0095628Y0062287D01*
X0095906Y0062415D01*
X0096187Y0062536D01*
X0096471Y0062651D01*
X0096758Y0062758D01*
X0097047Y0062859D01*
X0097339Y0062952D01*
X0097633Y0063038D01*
X0097928Y0063117D01*
X0098226Y0063188D01*
X0098525Y0063253D01*
X0098826Y0063310D01*
X0099128Y0063359D01*
X0099431Y0063401D01*
X0099736Y0063436D01*
X0100040Y0063463D01*
X0100346Y0063483D01*
X0100652Y0063495D01*
X0100958Y0063500D01*
X0101264Y0063497D01*
X0101570Y0063487D01*
X0101876Y0063469D01*
X0102181Y0063444D01*
X0102485Y0063411D01*
X0102789Y0063371D01*
X0103091Y0063324D01*
X0103392Y0063269D01*
X0103692Y0063207D01*
X0103990Y0063137D01*
X0104286Y0063060D01*
X0104581Y0062976D01*
X0104873Y0062885D01*
X0105163Y0062786D01*
X0105450Y0062681D01*
X0105735Y0062569D01*
X0106017Y0062449D01*
X0106296Y0062323D01*
X0106571Y0062190D01*
X0106844Y0062050D01*
X0107113Y0061904D01*
X0107378Y0061751D01*
X0107639Y0061591D01*
X0107896Y0061425D01*
X0108150Y0061253D01*
X0108399Y0061075D01*
X0108643Y0060891D01*
X0108883Y0060701D01*
X0109118Y0060505D01*
X0109349Y0060303D01*
X0109574Y0060096D01*
X0109794Y0059883D01*
X0110009Y0059665D01*
X0110218Y0059442D01*
X0110422Y0059214D01*
X0110621Y0058981D01*
X0110813Y0058743D01*
X0111000Y0058500D01*
X0111000Y0083500D02*
X0110813Y0083257D01*
X0110621Y0083019D01*
X0110422Y0082786D01*
X0110218Y0082558D01*
X0110009Y0082335D01*
X0109794Y0082117D01*
X0109574Y0081904D01*
X0109349Y0081697D01*
X0109118Y0081495D01*
X0108883Y0081299D01*
X0108643Y0081109D01*
X0108399Y0080925D01*
X0108150Y0080747D01*
X0107896Y0080575D01*
X0107639Y0080409D01*
X0107378Y0080249D01*
X0107113Y0080096D01*
X0106844Y0079950D01*
X0106571Y0079810D01*
X0106296Y0079677D01*
X0106017Y0079551D01*
X0105735Y0079431D01*
X0105450Y0079319D01*
X0105163Y0079214D01*
X0104873Y0079115D01*
X0104581Y0079024D01*
X0104286Y0078940D01*
X0103990Y0078863D01*
X0103692Y0078793D01*
X0103392Y0078731D01*
X0103091Y0078676D01*
X0102789Y0078629D01*
X0102485Y0078589D01*
X0102181Y0078556D01*
X0101876Y0078531D01*
X0101570Y0078513D01*
X0101264Y0078503D01*
X0100958Y0078500D01*
X0100652Y0078505D01*
X0100346Y0078517D01*
X0100040Y0078537D01*
X0099736Y0078564D01*
X0099431Y0078599D01*
X0099128Y0078641D01*
X0098826Y0078690D01*
X0098525Y0078747D01*
X0098226Y0078812D01*
X0097928Y0078883D01*
X0097633Y0078962D01*
X0097339Y0079048D01*
X0097047Y0079141D01*
X0096758Y0079242D01*
X0096471Y0079349D01*
X0096187Y0079464D01*
X0095906Y0079585D01*
X0095628Y0079713D01*
X0095353Y0079848D01*
X0095082Y0079990D01*
X0094814Y0080138D01*
X0094550Y0080293D01*
X0094290Y0080454D01*
X0094034Y0080621D01*
X0093781Y0080795D01*
X0093534Y0080975D01*
X0093290Y0081161D01*
X0093052Y0081352D01*
X0092818Y0081550D01*
X0092589Y0081753D01*
X0092365Y0081962D01*
X0092146Y0082176D01*
X0091933Y0082396D01*
X0091725Y0082620D01*
X0091522Y0082850D01*
X0091326Y0083084D01*
X0091135Y0083324D01*
X0090950Y0083567D01*
X0090771Y0083816D01*
X0090598Y0084068D01*
X0090431Y0084325D01*
X0090271Y0084586D01*
X0090117Y0084851D01*
X0089970Y0085119D01*
X0089829Y0085391D01*
X0089695Y0085666D01*
X0089568Y0085945D01*
X0089447Y0086226D01*
X0089334Y0086511D01*
X0089228Y0086798D01*
X0089128Y0087087D01*
X0089036Y0087379D01*
X0088951Y0087673D01*
X0088873Y0087969D01*
X0088802Y0088267D01*
X0088739Y0088567D01*
X0088683Y0088868D01*
X0088635Y0089170D01*
X0088594Y0089473D01*
X0088560Y0089777D01*
X0088534Y0090082D01*
X0088515Y0090388D01*
X0088504Y0090694D01*
X0088500Y0091000D01*
X0088504Y0091306D01*
X0088515Y0091612D01*
X0088534Y0091918D01*
X0088560Y0092223D01*
X0088594Y0092527D01*
X0088635Y0092830D01*
X0088683Y0093132D01*
X0088739Y0093433D01*
X0088802Y0093733D01*
X0088873Y0094031D01*
X0088951Y0094327D01*
X0089036Y0094621D01*
X0089128Y0094913D01*
X0089228Y0095202D01*
X0089334Y0095489D01*
X0089447Y0095774D01*
X0089568Y0096055D01*
X0089695Y0096334D01*
X0089829Y0096609D01*
X0089970Y0096881D01*
X0090117Y0097149D01*
X0090271Y0097414D01*
X0090431Y0097675D01*
X0090598Y0097932D01*
X0090771Y0098184D01*
X0090950Y0098433D01*
X0091135Y0098676D01*
X0091326Y0098916D01*
X0091522Y0099150D01*
X0091725Y0099380D01*
X0091933Y0099604D01*
X0092146Y0099824D01*
X0092365Y0100038D01*
X0092589Y0100247D01*
X0092818Y0100450D01*
X0093052Y0100648D01*
X0093290Y0100839D01*
X0093534Y0101025D01*
X0093781Y0101205D01*
X0094034Y0101379D01*
X0094290Y0101546D01*
X0094550Y0101707D01*
X0094814Y0101862D01*
X0095082Y0102010D01*
X0095353Y0102152D01*
X0095628Y0102287D01*
X0095906Y0102415D01*
X0096187Y0102536D01*
X0096471Y0102651D01*
X0096758Y0102758D01*
X0097047Y0102859D01*
X0097339Y0102952D01*
X0097633Y0103038D01*
X0097928Y0103117D01*
X0098226Y0103188D01*
X0098525Y0103253D01*
X0098826Y0103310D01*
X0099128Y0103359D01*
X0099431Y0103401D01*
X0099736Y0103436D01*
X0100040Y0103463D01*
X0100346Y0103483D01*
X0100652Y0103495D01*
X0100958Y0103500D01*
X0101264Y0103497D01*
X0101570Y0103487D01*
X0101876Y0103469D01*
X0102181Y0103444D01*
X0102485Y0103411D01*
X0102789Y0103371D01*
X0103091Y0103324D01*
X0103392Y0103269D01*
X0103692Y0103207D01*
X0103990Y0103137D01*
X0104286Y0103060D01*
X0104581Y0102976D01*
X0104873Y0102885D01*
X0105163Y0102786D01*
X0105450Y0102681D01*
X0105735Y0102569D01*
X0106017Y0102449D01*
X0106296Y0102323D01*
X0106571Y0102190D01*
X0106844Y0102050D01*
X0107113Y0101904D01*
X0107378Y0101751D01*
X0107639Y0101591D01*
X0107896Y0101425D01*
X0108150Y0101253D01*
X0108399Y0101075D01*
X0108643Y0100891D01*
X0108883Y0100701D01*
X0109118Y0100505D01*
X0109349Y0100303D01*
X0109574Y0100096D01*
X0109794Y0099883D01*
X0110009Y0099665D01*
X0110218Y0099442D01*
X0110422Y0099214D01*
X0110621Y0098981D01*
X0110813Y0098743D01*
X0111000Y0098500D01*
X0071000Y0098500D02*
X0070813Y0098743D01*
X0070621Y0098981D01*
X0070422Y0099214D01*
X0070218Y0099442D01*
X0070009Y0099665D01*
X0069794Y0099883D01*
X0069574Y0100096D01*
X0069349Y0100303D01*
X0069118Y0100505D01*
X0068883Y0100701D01*
X0068643Y0100891D01*
X0068399Y0101075D01*
X0068150Y0101253D01*
X0067896Y0101425D01*
X0067639Y0101591D01*
X0067378Y0101751D01*
X0067113Y0101904D01*
X0066844Y0102050D01*
X0066571Y0102190D01*
X0066296Y0102323D01*
X0066017Y0102449D01*
X0065735Y0102569D01*
X0065450Y0102681D01*
X0065163Y0102786D01*
X0064873Y0102885D01*
X0064581Y0102976D01*
X0064286Y0103060D01*
X0063990Y0103137D01*
X0063692Y0103207D01*
X0063392Y0103269D01*
X0063091Y0103324D01*
X0062789Y0103371D01*
X0062485Y0103411D01*
X0062181Y0103444D01*
X0061876Y0103469D01*
X0061570Y0103487D01*
X0061264Y0103497D01*
X0060958Y0103500D01*
X0060652Y0103495D01*
X0060346Y0103483D01*
X0060040Y0103463D01*
X0059736Y0103436D01*
X0059431Y0103401D01*
X0059128Y0103359D01*
X0058826Y0103310D01*
X0058525Y0103253D01*
X0058226Y0103188D01*
X0057928Y0103117D01*
X0057633Y0103038D01*
X0057339Y0102952D01*
X0057047Y0102859D01*
X0056758Y0102758D01*
X0056471Y0102651D01*
X0056187Y0102536D01*
X0055906Y0102415D01*
X0055628Y0102287D01*
X0055353Y0102152D01*
X0055082Y0102010D01*
X0054814Y0101862D01*
X0054550Y0101707D01*
X0054290Y0101546D01*
X0054034Y0101379D01*
X0053781Y0101205D01*
X0053534Y0101025D01*
X0053290Y0100839D01*
X0053052Y0100648D01*
X0052818Y0100450D01*
X0052589Y0100247D01*
X0052365Y0100038D01*
X0052146Y0099824D01*
X0051933Y0099604D01*
X0051725Y0099380D01*
X0051522Y0099150D01*
X0051326Y0098916D01*
X0051135Y0098676D01*
X0050950Y0098433D01*
X0050771Y0098184D01*
X0050598Y0097932D01*
X0050431Y0097675D01*
X0050271Y0097414D01*
X0050117Y0097149D01*
X0049970Y0096881D01*
X0049829Y0096609D01*
X0049695Y0096334D01*
X0049568Y0096055D01*
X0049447Y0095774D01*
X0049334Y0095489D01*
X0049228Y0095202D01*
X0049128Y0094913D01*
X0049036Y0094621D01*
X0048951Y0094327D01*
X0048873Y0094031D01*
X0048802Y0093733D01*
X0048739Y0093433D01*
X0048683Y0093132D01*
X0048635Y0092830D01*
X0048594Y0092527D01*
X0048560Y0092223D01*
X0048534Y0091918D01*
X0048515Y0091612D01*
X0048504Y0091306D01*
X0048500Y0091000D01*
X0048504Y0090694D01*
X0048515Y0090388D01*
X0048534Y0090082D01*
X0048560Y0089777D01*
X0048594Y0089473D01*
X0048635Y0089170D01*
X0048683Y0088868D01*
X0048739Y0088567D01*
X0048802Y0088267D01*
X0048873Y0087969D01*
X0048951Y0087673D01*
X0049036Y0087379D01*
X0049128Y0087087D01*
X0049228Y0086798D01*
X0049334Y0086511D01*
X0049447Y0086226D01*
X0049568Y0085945D01*
X0049695Y0085666D01*
X0049829Y0085391D01*
X0049970Y0085119D01*
X0050117Y0084851D01*
X0050271Y0084586D01*
X0050431Y0084325D01*
X0050598Y0084068D01*
X0050771Y0083816D01*
X0050950Y0083567D01*
X0051135Y0083324D01*
X0051326Y0083084D01*
X0051522Y0082850D01*
X0051725Y0082620D01*
X0051933Y0082396D01*
X0052146Y0082176D01*
X0052365Y0081962D01*
X0052589Y0081753D01*
X0052818Y0081550D01*
X0053052Y0081352D01*
X0053290Y0081161D01*
X0053534Y0080975D01*
X0053781Y0080795D01*
X0054034Y0080621D01*
X0054290Y0080454D01*
X0054550Y0080293D01*
X0054814Y0080138D01*
X0055082Y0079990D01*
X0055353Y0079848D01*
X0055628Y0079713D01*
X0055906Y0079585D01*
X0056187Y0079464D01*
X0056471Y0079349D01*
X0056758Y0079242D01*
X0057047Y0079141D01*
X0057339Y0079048D01*
X0057633Y0078962D01*
X0057928Y0078883D01*
X0058226Y0078812D01*
X0058525Y0078747D01*
X0058826Y0078690D01*
X0059128Y0078641D01*
X0059431Y0078599D01*
X0059736Y0078564D01*
X0060040Y0078537D01*
X0060346Y0078517D01*
X0060652Y0078505D01*
X0060958Y0078500D01*
X0061264Y0078503D01*
X0061570Y0078513D01*
X0061876Y0078531D01*
X0062181Y0078556D01*
X0062485Y0078589D01*
X0062789Y0078629D01*
X0063091Y0078676D01*
X0063392Y0078731D01*
X0063692Y0078793D01*
X0063990Y0078863D01*
X0064286Y0078940D01*
X0064581Y0079024D01*
X0064873Y0079115D01*
X0065163Y0079214D01*
X0065450Y0079319D01*
X0065735Y0079431D01*
X0066017Y0079551D01*
X0066296Y0079677D01*
X0066571Y0079810D01*
X0066844Y0079950D01*
X0067113Y0080096D01*
X0067378Y0080249D01*
X0067639Y0080409D01*
X0067896Y0080575D01*
X0068150Y0080747D01*
X0068399Y0080925D01*
X0068643Y0081109D01*
X0068883Y0081299D01*
X0069118Y0081495D01*
X0069349Y0081697D01*
X0069574Y0081904D01*
X0069794Y0082117D01*
X0070009Y0082335D01*
X0070218Y0082558D01*
X0070422Y0082786D01*
X0070621Y0083019D01*
X0070813Y0083257D01*
X0071000Y0083500D01*
X0071000Y0058500D02*
X0070813Y0058743D01*
X0070621Y0058981D01*
X0070422Y0059214D01*
X0070218Y0059442D01*
X0070009Y0059665D01*
X0069794Y0059883D01*
X0069574Y0060096D01*
X0069349Y0060303D01*
X0069118Y0060505D01*
X0068883Y0060701D01*
X0068643Y0060891D01*
X0068399Y0061075D01*
X0068150Y0061253D01*
X0067896Y0061425D01*
X0067639Y0061591D01*
X0067378Y0061751D01*
X0067113Y0061904D01*
X0066844Y0062050D01*
X0066571Y0062190D01*
X0066296Y0062323D01*
X0066017Y0062449D01*
X0065735Y0062569D01*
X0065450Y0062681D01*
X0065163Y0062786D01*
X0064873Y0062885D01*
X0064581Y0062976D01*
X0064286Y0063060D01*
X0063990Y0063137D01*
X0063692Y0063207D01*
X0063392Y0063269D01*
X0063091Y0063324D01*
X0062789Y0063371D01*
X0062485Y0063411D01*
X0062181Y0063444D01*
X0061876Y0063469D01*
X0061570Y0063487D01*
X0061264Y0063497D01*
X0060958Y0063500D01*
X0060652Y0063495D01*
X0060346Y0063483D01*
X0060040Y0063463D01*
X0059736Y0063436D01*
X0059431Y0063401D01*
X0059128Y0063359D01*
X0058826Y0063310D01*
X0058525Y0063253D01*
X0058226Y0063188D01*
X0057928Y0063117D01*
X0057633Y0063038D01*
X0057339Y0062952D01*
X0057047Y0062859D01*
X0056758Y0062758D01*
X0056471Y0062651D01*
X0056187Y0062536D01*
X0055906Y0062415D01*
X0055628Y0062287D01*
X0055353Y0062152D01*
X0055082Y0062010D01*
X0054814Y0061862D01*
X0054550Y0061707D01*
X0054290Y0061546D01*
X0054034Y0061379D01*
X0053781Y0061205D01*
X0053534Y0061025D01*
X0053290Y0060839D01*
X0053052Y0060648D01*
X0052818Y0060450D01*
X0052589Y0060247D01*
X0052365Y0060038D01*
X0052146Y0059824D01*
X0051933Y0059604D01*
X0051725Y0059380D01*
X0051522Y0059150D01*
X0051326Y0058916D01*
X0051135Y0058676D01*
X0050950Y0058433D01*
X0050771Y0058184D01*
X0050598Y0057932D01*
X0050431Y0057675D01*
X0050271Y0057414D01*
X0050117Y0057149D01*
X0049970Y0056881D01*
X0049829Y0056609D01*
X0049695Y0056334D01*
X0049568Y0056055D01*
X0049447Y0055774D01*
X0049334Y0055489D01*
X0049228Y0055202D01*
X0049128Y0054913D01*
X0049036Y0054621D01*
X0048951Y0054327D01*
X0048873Y0054031D01*
X0048802Y0053733D01*
X0048739Y0053433D01*
X0048683Y0053132D01*
X0048635Y0052830D01*
X0048594Y0052527D01*
X0048560Y0052223D01*
X0048534Y0051918D01*
X0048515Y0051612D01*
X0048504Y0051306D01*
X0048500Y0051000D01*
X0048504Y0050694D01*
X0048515Y0050388D01*
X0048534Y0050082D01*
X0048560Y0049777D01*
X0048594Y0049473D01*
X0048635Y0049170D01*
X0048683Y0048868D01*
X0048739Y0048567D01*
X0048802Y0048267D01*
X0048873Y0047969D01*
X0048951Y0047673D01*
X0049036Y0047379D01*
X0049128Y0047087D01*
X0049228Y0046798D01*
X0049334Y0046511D01*
X0049447Y0046226D01*
X0049568Y0045945D01*
X0049695Y0045666D01*
X0049829Y0045391D01*
X0049970Y0045119D01*
X0050117Y0044851D01*
X0050271Y0044586D01*
X0050431Y0044325D01*
X0050598Y0044068D01*
X0050771Y0043816D01*
X0050950Y0043567D01*
X0051135Y0043324D01*
X0051326Y0043084D01*
X0051522Y0042850D01*
X0051725Y0042620D01*
X0051933Y0042396D01*
X0052146Y0042176D01*
X0052365Y0041962D01*
X0052589Y0041753D01*
X0052818Y0041550D01*
X0053052Y0041352D01*
X0053290Y0041161D01*
X0053534Y0040975D01*
X0053781Y0040795D01*
X0054034Y0040621D01*
X0054290Y0040454D01*
X0054550Y0040293D01*
X0054814Y0040138D01*
X0055082Y0039990D01*
X0055353Y0039848D01*
X0055628Y0039713D01*
X0055906Y0039585D01*
X0056187Y0039464D01*
X0056471Y0039349D01*
X0056758Y0039242D01*
X0057047Y0039141D01*
X0057339Y0039048D01*
X0057633Y0038962D01*
X0057928Y0038883D01*
X0058226Y0038812D01*
X0058525Y0038747D01*
X0058826Y0038690D01*
X0059128Y0038641D01*
X0059431Y0038599D01*
X0059736Y0038564D01*
X0060040Y0038537D01*
X0060346Y0038517D01*
X0060652Y0038505D01*
X0060958Y0038500D01*
X0061264Y0038503D01*
X0061570Y0038513D01*
X0061876Y0038531D01*
X0062181Y0038556D01*
X0062485Y0038589D01*
X0062789Y0038629D01*
X0063091Y0038676D01*
X0063392Y0038731D01*
X0063692Y0038793D01*
X0063990Y0038863D01*
X0064286Y0038940D01*
X0064581Y0039024D01*
X0064873Y0039115D01*
X0065163Y0039214D01*
X0065450Y0039319D01*
X0065735Y0039431D01*
X0066017Y0039551D01*
X0066296Y0039677D01*
X0066571Y0039810D01*
X0066844Y0039950D01*
X0067113Y0040096D01*
X0067378Y0040249D01*
X0067639Y0040409D01*
X0067896Y0040575D01*
X0068150Y0040747D01*
X0068399Y0040925D01*
X0068643Y0041109D01*
X0068883Y0041299D01*
X0069118Y0041495D01*
X0069349Y0041697D01*
X0069574Y0041904D01*
X0069794Y0042117D01*
X0070009Y0042335D01*
X0070218Y0042558D01*
X0070422Y0042786D01*
X0070621Y0043019D01*
X0070813Y0043257D01*
X0071000Y0043500D01*
M02*
