G75*
%MOIN*%
%OFA0B0*%
%FSLAX25Y25*%
%IPPOS*%
%LPD*%
%AMOC8*
5,1,8,0,0,1.08239X$1,22.5*
%
%ADD10C,0.06000*%
%ADD11OC8,0.05200*%
%ADD12C,0.00600*%
%ADD13C,0.02978*%
D10*
X0021000Y0008000D02*
X0021000Y0014000D01*
X0031000Y0014000D02*
X0031000Y0008000D01*
X0041000Y0008000D02*
X0041000Y0014000D01*
X0051000Y0014000D02*
X0051000Y0008000D01*
X0061000Y0008000D02*
X0061000Y0014000D01*
X0071000Y0014000D02*
X0071000Y0008000D01*
X0081000Y0008000D02*
X0081000Y0014000D01*
X0091000Y0014000D02*
X0091000Y0008000D01*
X0101000Y0008000D02*
X0101000Y0014000D01*
X0111000Y0014000D02*
X0111000Y0008000D01*
X0121000Y0008000D02*
X0121000Y0014000D01*
X0131000Y0014000D02*
X0131000Y0008000D01*
X0141000Y0008000D02*
X0141000Y0014000D01*
D11*
X0141000Y0051000D03*
X0131000Y0051000D03*
X0106000Y0051000D03*
X0096000Y0051000D03*
X0066000Y0051000D03*
X0056000Y0051000D03*
X0021000Y0051000D03*
X0011000Y0051000D03*
X0011000Y0091000D03*
X0021000Y0091000D03*
X0056000Y0091000D03*
X0066000Y0091000D03*
X0096000Y0091000D03*
X0106000Y0091000D03*
X0131000Y0091000D03*
X0141000Y0091000D03*
X0141000Y0131000D03*
X0131000Y0131000D03*
X0106000Y0131000D03*
X0096000Y0131000D03*
X0066000Y0131000D03*
X0056000Y0131000D03*
X0021000Y0131000D03*
X0011000Y0131000D03*
D12*
X0017400Y0015000D02*
X0021000Y0011400D01*
X0021000Y0011000D01*
X0017400Y0015000D02*
X0017400Y0090000D01*
X0011400Y0096000D01*
X0011400Y0130800D01*
X0011000Y0131000D01*
X0055800Y0130800D02*
X0055800Y0096000D01*
X0031200Y0071400D01*
X0031200Y0011400D01*
X0031000Y0011000D01*
X0041000Y0011000D02*
X0041400Y0011400D01*
X0041400Y0043200D01*
X0096000Y0097800D01*
X0096000Y0131000D01*
X0131000Y0131000D02*
X0051000Y0051000D01*
X0051000Y0011000D01*
X0060000Y0047400D02*
X0062400Y0047400D01*
X0091800Y0018000D01*
X0094200Y0018000D01*
X0100800Y0011400D01*
X0101000Y0011000D01*
X0103200Y0019200D02*
X0111000Y0011400D01*
X0111000Y0011000D01*
X0103200Y0019200D02*
X0092400Y0019200D01*
X0060600Y0051000D01*
X0056000Y0051000D01*
X0106000Y0051000D02*
X0106200Y0051000D01*
X0106200Y0054600D01*
X0132600Y0054600D01*
X0136200Y0051000D01*
X0141000Y0051000D01*
X0106200Y0054600D02*
X0106200Y0087000D01*
X0132000Y0087000D01*
X0135600Y0090600D01*
X0141000Y0090600D01*
X0141000Y0091000D01*
X0106200Y0090600D02*
X0106200Y0087000D01*
X0106200Y0090600D02*
X0106000Y0091000D01*
X0056000Y0131000D02*
X0055800Y0130800D01*
D13*
X0060000Y0047400D03*
M02*
