%
M48
M72
T01C0.01378
T02C0.03200
T03C0.04000
%
T01
X60000Y47400
T02
X56000Y51000
X66000Y51000
X96000Y51000
X106000Y51000
X131000Y51000
X141000Y51000
X141000Y91000
X131000Y91000
X106000Y91000
X96000Y91000
X66000Y91000
X56000Y91000
X21000Y91000
X11000Y91000
X11000Y51000
X21000Y51000
X21000Y131000
X11000Y131000
X56000Y131000
X66000Y131000
X96000Y131000
X106000Y131000
X131000Y131000
X141000Y131000
T03
X21000Y11000
X31000Y11000
X41000Y11000
X51000Y11000
X61000Y11000
X71000Y11000
X81000Y11000
X91000Y11000
X101000Y11000
X111000Y11000
X121000Y11000
X131000Y11000
X141000Y11000
M30
