G75*
%MOIN*%
%OFA0B0*%
%FSLAX25Y25*%
%IPPOS*%
%LPD*%
%AMOC8*
5,1,8,0,0,1.08239X$1,22.5*
%
%ADD10C,0.06800*%
%ADD11OC8,0.06000*%
%ADD12C,0.03778*%
D10*
X0021000Y0008000D02*
X0021000Y0014000D01*
X0031000Y0014000D02*
X0031000Y0008000D01*
X0041000Y0008000D02*
X0041000Y0014000D01*
X0051000Y0014000D02*
X0051000Y0008000D01*
X0061000Y0008000D02*
X0061000Y0014000D01*
X0071000Y0014000D02*
X0071000Y0008000D01*
X0081000Y0008000D02*
X0081000Y0014000D01*
X0091000Y0014000D02*
X0091000Y0008000D01*
X0101000Y0008000D02*
X0101000Y0014000D01*
X0111000Y0014000D02*
X0111000Y0008000D01*
X0121000Y0008000D02*
X0121000Y0014000D01*
X0131000Y0014000D02*
X0131000Y0008000D01*
X0141000Y0008000D02*
X0141000Y0014000D01*
D11*
X0141000Y0051000D03*
X0131000Y0051000D03*
X0106000Y0051000D03*
X0096000Y0051000D03*
X0066000Y0051000D03*
X0056000Y0051000D03*
X0021000Y0051000D03*
X0011000Y0051000D03*
X0011000Y0091000D03*
X0021000Y0091000D03*
X0056000Y0091000D03*
X0066000Y0091000D03*
X0096000Y0091000D03*
X0106000Y0091000D03*
X0131000Y0091000D03*
X0141000Y0091000D03*
X0141000Y0131000D03*
X0131000Y0131000D03*
X0106000Y0131000D03*
X0096000Y0131000D03*
X0066000Y0131000D03*
X0056000Y0131000D03*
X0021000Y0131000D03*
X0011000Y0131000D03*
D12*
X0060000Y0047400D03*
M02*
