%
M48
M72
T01C0.04000
T02C0.05512
%
T01
X16000Y58669
X26000Y58669
X56000Y58669
X56000Y68669
X66000Y68669
X66000Y58669
X76000Y58669
X76000Y68669
X86000Y68669
X86000Y58669
X96000Y58669
X96000Y68669
X106000Y68669
X106000Y58669
X116000Y58669
X116000Y68669
X126000Y68669
X126000Y58669
T02
X16315Y21898
X36000Y21898
X55685Y21898
X81315Y21898
X101000Y21898
X120685Y21898
X157772Y18984
X157772Y38669
X157772Y58354
X157772Y78984
X157772Y98669
X157772Y118354
X157772Y138984
X157772Y158669
X157772Y178354
X157772Y198984
X157772Y218669
X157772Y238354
X107772Y168512
X107772Y148827
M30
