G75*
%MOIN*%
%OFA0B0*%
%FSLAX25Y25*%
%IPPOS*%
%LPD*%
%AMOC8*
5,1,8,0,0,1.08239X$1,22.5*
%
%ADD10C,0.00000*%
%ADD11C,0.09370*%
%ADD12OC8,0.06000*%
%ADD13C,0.06000*%
%ADD14C,0.00600*%
D10*
X0003669Y0003669D02*
X0003669Y0252370D01*
X0178591Y0252370D01*
X0178591Y0003669D01*
X0003669Y0003669D01*
D11*
X0017213Y0058827D02*
X0026583Y0058827D01*
X0026583Y0078512D02*
X0017213Y0078512D01*
X0017213Y0108827D02*
X0026583Y0108827D01*
X0026583Y0128512D02*
X0017213Y0128512D01*
X0083984Y0026583D02*
X0083984Y0017213D01*
X0103669Y0017213D02*
X0103669Y0026583D01*
X0123354Y0026583D02*
X0123354Y0017213D01*
X0155756Y0018984D02*
X0165126Y0018984D01*
X0165126Y0038669D02*
X0155756Y0038669D01*
X0155756Y0058354D02*
X0165126Y0058354D01*
X0165126Y0078984D02*
X0155756Y0078984D01*
X0155756Y0098669D02*
X0165126Y0098669D01*
X0165126Y0118354D02*
X0155756Y0118354D01*
X0155756Y0138984D02*
X0165126Y0138984D01*
X0165126Y0158669D02*
X0155756Y0158669D01*
X0155756Y0178354D02*
X0165126Y0178354D01*
X0165126Y0198984D02*
X0155756Y0198984D01*
X0155756Y0218669D02*
X0165126Y0218669D01*
X0165126Y0238354D02*
X0155756Y0238354D01*
X0115126Y0168512D02*
X0105756Y0168512D01*
X0105756Y0148827D02*
X0115126Y0148827D01*
D12*
X0118669Y0068669D03*
X0118669Y0058669D03*
X0128669Y0058669D03*
X0128669Y0068669D03*
X0108669Y0068669D03*
X0108669Y0058669D03*
X0098669Y0058669D03*
X0098669Y0068669D03*
X0088669Y0068669D03*
X0088669Y0058669D03*
X0078669Y0058669D03*
X0078669Y0068669D03*
X0068669Y0068669D03*
X0068669Y0058669D03*
X0058669Y0058669D03*
X0058669Y0068669D03*
D13*
X0038669Y0026669D02*
X0038669Y0020669D01*
X0028669Y0020669D02*
X0028669Y0026669D01*
X0018669Y0026669D02*
X0018669Y0020669D01*
D14*
X0018669Y0023469D02*
X0018669Y0023669D01*
X0018669Y0023469D02*
X0019869Y0023469D01*
X0027069Y0016269D01*
X0078069Y0016269D01*
X0083469Y0021669D01*
X0083984Y0021898D01*
X0088669Y0058669D02*
X0088269Y0058869D01*
X0078669Y0058869D01*
X0078669Y0058669D01*
X0078669Y0058869D02*
X0069069Y0058869D01*
X0068669Y0058669D01*
X0058669Y0058669D01*
X0058869Y0068469D02*
X0058669Y0068669D01*
X0058269Y0068469D01*
X0048669Y0058869D01*
X0032469Y0058869D01*
X0032469Y0081069D01*
X0022269Y0091269D01*
X0022269Y0108669D01*
X0021898Y0108827D01*
X0022269Y0058869D02*
X0021898Y0058827D01*
X0022269Y0058869D02*
X0032469Y0058869D01*
X0058869Y0068469D02*
X0068469Y0068469D01*
X0068669Y0068669D01*
X0069069Y0068469D01*
X0078669Y0068469D01*
X0078669Y0068669D01*
X0078669Y0068469D02*
X0088269Y0068469D01*
X0088669Y0068669D01*
X0088869Y0068469D01*
X0098469Y0068469D01*
X0098669Y0068669D01*
X0099069Y0068469D01*
X0108669Y0068469D01*
X0108669Y0068669D01*
X0108669Y0068469D02*
X0118269Y0068469D01*
X0118669Y0068669D01*
X0118869Y0068469D01*
X0128469Y0068469D01*
X0128669Y0068669D01*
X0128469Y0058869D02*
X0123669Y0058869D01*
X0123669Y0022269D01*
X0123354Y0021898D01*
X0123669Y0058869D02*
X0118869Y0058869D01*
X0118669Y0058669D01*
X0118269Y0058869D01*
X0108669Y0058869D01*
X0108669Y0058669D01*
X0108669Y0058869D02*
X0099069Y0058869D01*
X0098669Y0058669D01*
X0098469Y0058869D01*
X0088869Y0058869D01*
X0088669Y0058669D01*
X0128469Y0058869D02*
X0128669Y0058669D01*
X0160441Y0078984D02*
X0160869Y0079269D01*
X0160869Y0086469D01*
X0171069Y0096669D01*
X0171069Y0128469D01*
X0160869Y0138669D01*
X0160441Y0138984D01*
X0160269Y0139269D01*
X0151269Y0148269D01*
X0150069Y0148269D01*
X0150069Y0180669D01*
X0160269Y0190869D01*
X0160269Y0198669D01*
X0160441Y0198984D01*
X0171069Y0189069D02*
X0160869Y0178869D01*
X0160441Y0178354D01*
X0171069Y0189069D02*
X0171069Y0220869D01*
X0160869Y0231069D01*
X0160869Y0238269D01*
X0160441Y0238354D01*
X0150069Y0148269D02*
X0110469Y0148269D01*
X0110441Y0148827D01*
X0160441Y0078984D02*
X0160869Y0078669D01*
X0171069Y0068469D01*
X0171069Y0036669D01*
X0160869Y0026469D01*
X0160869Y0019269D01*
X0160441Y0018984D01*
M02*
