G75*
%MOIN*%
%OFA0B0*%
%FSLAX25Y25*%
%IPPOS*%
%LPD*%
%AMOC8*
5,1,8,0,0,1.08239X$1,22.5*
%
%ADD10C,0.09370*%
%ADD11OC8,0.06000*%
%ADD12C,0.06000*%
%ADD13C,0.00600*%
D10*
X0017213Y0058827D02*
X0026583Y0058827D01*
X0026583Y0078512D02*
X0017213Y0078512D01*
X0017213Y0108827D02*
X0026583Y0108827D01*
X0026583Y0128512D02*
X0017213Y0128512D01*
X0083984Y0026583D02*
X0083984Y0017213D01*
X0103669Y0017213D02*
X0103669Y0026583D01*
X0123354Y0026583D02*
X0123354Y0017213D01*
X0155756Y0018984D02*
X0165126Y0018984D01*
X0165126Y0038669D02*
X0155756Y0038669D01*
X0155756Y0058354D02*
X0165126Y0058354D01*
X0165126Y0078984D02*
X0155756Y0078984D01*
X0155756Y0098669D02*
X0165126Y0098669D01*
X0165126Y0118354D02*
X0155756Y0118354D01*
X0155756Y0138984D02*
X0165126Y0138984D01*
X0165126Y0158669D02*
X0155756Y0158669D01*
X0155756Y0178354D02*
X0165126Y0178354D01*
X0165126Y0198984D02*
X0155756Y0198984D01*
X0155756Y0218669D02*
X0165126Y0218669D01*
X0165126Y0238354D02*
X0155756Y0238354D01*
X0115126Y0168512D02*
X0105756Y0168512D01*
X0105756Y0148827D02*
X0115126Y0148827D01*
D11*
X0118669Y0068669D03*
X0118669Y0058669D03*
X0128669Y0058669D03*
X0128669Y0068669D03*
X0108669Y0068669D03*
X0108669Y0058669D03*
X0098669Y0058669D03*
X0098669Y0068669D03*
X0088669Y0068669D03*
X0088669Y0058669D03*
X0078669Y0058669D03*
X0078669Y0068669D03*
X0068669Y0068669D03*
X0068669Y0058669D03*
X0058669Y0058669D03*
X0058669Y0068669D03*
D12*
X0018669Y0026669D02*
X0018669Y0020669D01*
X0028669Y0020669D02*
X0028669Y0026669D01*
X0038669Y0026669D02*
X0038669Y0020669D01*
D13*
X0038669Y0023669D02*
X0038469Y0024069D01*
X0038469Y0112269D01*
X0022269Y0128469D01*
X0021898Y0128512D01*
X0021898Y0078512D02*
X0022269Y0078069D01*
X0032469Y0067869D01*
X0032469Y0056469D01*
X0028869Y0052869D01*
X0028869Y0024069D01*
X0028669Y0023669D01*
X0098669Y0068669D02*
X0099069Y0068469D01*
X0103269Y0064269D01*
X0103269Y0022269D01*
X0103669Y0021898D01*
X0160441Y0058354D02*
X0160869Y0058869D01*
X0160869Y0066669D01*
X0171069Y0076869D01*
X0171069Y0108069D01*
X0160869Y0118269D01*
X0160441Y0118354D01*
X0160269Y0118869D01*
X0160269Y0126069D01*
X0150069Y0136269D01*
X0150069Y0168669D01*
X0110469Y0168669D01*
X0110441Y0168512D01*
X0150069Y0168669D02*
X0150669Y0168669D01*
X0160269Y0178269D01*
X0160441Y0178354D01*
M02*
