%
M48
M72
T01C0.01378
T02C0.03150
T03C0.03200
T04C0.03937
T05C0.04000
T06C0.04724
T07C0.07874
T08C0.12598
%
T01
X122400Y144250
X187800Y229450
X214800Y245050
T02
X55000Y357352
X43189Y376250
T03
X35000Y341250
X35000Y316250
X50000Y291250
X50000Y266250
X70000Y266250
X80000Y266250
X80000Y291250
X70000Y291250
X55000Y316250
X55000Y341250
X100000Y291250
X100000Y266250
X115000Y266250
X115000Y291250
X135000Y291250
X135000Y266250
X150000Y266250
X150000Y291250
X170000Y291250
X170000Y266250
X130000Y231250
X130000Y206250
X100000Y206250
X100000Y231250
T04
X66811Y376250
T05
X15000Y271250
X15000Y261250
X15000Y251250
X15000Y241250
X15000Y231250
X15000Y221250
X15000Y201250
X15000Y191250
X15000Y181250
X15000Y171250
X15000Y161250
X15000Y151250
X15000Y141250
X15000Y131250
X15000Y111250
X15000Y101250
X15000Y91250
X15000Y81250
X15000Y71250
X15000Y61250
X15000Y51250
X15000Y41250
X35000Y31250
X35000Y21250
X45000Y21250
X45000Y31250
X55000Y31250
X55000Y21250
X65000Y21250
X65000Y31250
X75000Y31250
X75000Y21250
X85000Y21250
X85000Y31250
X95000Y31250
X95000Y21250
X105000Y21250
X105000Y31250
X115000Y31250
X115000Y21250
X125000Y21250
X125000Y31250
X135000Y31250
X135000Y21250
X145000Y21250
X145000Y31250
X155000Y31250
X155000Y21250
X165000Y21250
X165000Y31250
X175000Y31250
X175000Y21250
X185000Y21250
X185000Y31250
X195000Y31250
X195000Y21250
X205000Y21250
X205000Y31250
X205000Y61250
X205000Y71250
X205000Y81250
X205000Y91250
X205000Y101250
X205000Y111250
X205000Y121250
X205000Y131250
X205000Y151250
X205000Y161250
X205000Y171250
X205000Y181250
X205000Y191250
X205000Y201250
X205000Y211250
X205000Y221250
X205000Y236250
X205000Y246250
X205000Y256250
X205000Y266250
X205000Y276250
X205000Y286250
X205000Y296250
X205000Y306250
X180000Y326250
X170000Y326250
X170000Y356250
X180000Y356250
X165000Y226250
X155000Y226250
X145000Y226250
X145000Y191250
X155000Y191250
X165000Y191250
X165000Y156250
X155000Y156250
X145000Y156250
X130000Y136250
X130000Y126250
X120000Y126250
X120000Y136250
X110000Y136250
X110000Y126250
X100000Y126250
X100000Y136250
X80000Y156250
X70000Y156250
X60000Y156250
X50000Y156250
X50000Y186250
X60000Y186250
X70000Y186250
X80000Y186250
X80000Y216250
X70000Y216250
X60000Y216250
X50000Y216250
X50000Y246250
X60000Y246250
X70000Y246250
X80000Y246250
X100000Y186250
X100000Y176250
X110000Y176250
X110000Y186250
X120000Y186250
X120000Y176250
X130000Y176250
X130000Y186250
X150000Y116250
X160000Y116250
X160000Y81250
X150000Y81250
X130000Y61250
X120000Y61250
X110000Y61250
X100000Y61250
X80000Y81250
X70000Y81250
X60000Y81250
X60000Y111250
X70000Y111250
X80000Y111250
T06
X80000Y321250
X90000Y321250
X100000Y321250
X110000Y321250
X120000Y321250
X130000Y321250
X140000Y321250
X150000Y321250
X145000Y341250
X135000Y341250
X125000Y341250
X115000Y341250
X105000Y341250
X95000Y341250
X85000Y341250
T07
X115000Y109250
T08
X15000Y21250
X15000Y341250
X205000Y341250
X205000Y46250
M30
