G75*
%MOIN*%
%OFA0B0*%
%FSLAX25Y25*%
%IPPOS*%
%LPD*%
%AMOC8*
5,1,8,0,0,1.08239X$1,22.5*
%
%ADD10OC8,0.05200*%
%ADD11C,0.07087*%
%ADD12C,0.06000*%
%ADD13OC8,0.06000*%
%ADD14C,0.00000*%
%ADD15C,0.08600*%
%ADD16C,0.00600*%
%ADD17C,0.02978*%
D10*
X0100000Y0206250D03*
X0100000Y0231250D03*
X0100000Y0266250D03*
X0100000Y0291250D03*
X0115000Y0291250D03*
X0115000Y0266250D03*
X0135000Y0266250D03*
X0135000Y0291250D03*
X0150000Y0291250D03*
X0150000Y0266250D03*
X0170000Y0266250D03*
X0170000Y0291250D03*
X0130000Y0231250D03*
X0130000Y0206250D03*
X0080000Y0266250D03*
X0070000Y0266250D03*
X0070000Y0291250D03*
X0080000Y0291250D03*
X0055000Y0316250D03*
X0050000Y0291250D03*
X0050000Y0266250D03*
X0035000Y0316250D03*
X0035000Y0341250D03*
X0055000Y0341250D03*
D11*
X0080000Y0324793D02*
X0080000Y0317707D01*
X0090000Y0317707D02*
X0090000Y0324793D01*
X0085000Y0337707D02*
X0085000Y0344793D01*
X0095000Y0344793D02*
X0095000Y0337707D01*
X0105000Y0337707D02*
X0105000Y0344793D01*
X0115000Y0344793D02*
X0115000Y0337707D01*
X0125000Y0337707D02*
X0125000Y0344793D01*
X0135000Y0344793D02*
X0135000Y0337707D01*
X0145000Y0337707D02*
X0145000Y0344793D01*
X0140000Y0324793D02*
X0140000Y0317707D01*
X0130000Y0317707D02*
X0130000Y0324793D01*
X0120000Y0324793D02*
X0120000Y0317707D01*
X0110000Y0317707D02*
X0110000Y0324793D01*
X0100000Y0324793D02*
X0100000Y0317707D01*
X0150000Y0317707D02*
X0150000Y0324793D01*
D12*
X0170000Y0323250D02*
X0170000Y0329250D01*
X0180000Y0329250D02*
X0180000Y0323250D01*
X0180000Y0353250D02*
X0180000Y0359250D01*
X0170000Y0359250D02*
X0170000Y0353250D01*
X0202000Y0306250D02*
X0208000Y0306250D01*
X0208000Y0296250D02*
X0202000Y0296250D01*
X0202000Y0286250D02*
X0208000Y0286250D01*
X0208000Y0276250D02*
X0202000Y0276250D01*
X0202000Y0266250D02*
X0208000Y0266250D01*
X0208000Y0256250D02*
X0202000Y0256250D01*
X0202000Y0246250D02*
X0208000Y0246250D01*
X0208000Y0236250D02*
X0202000Y0236250D01*
X0202000Y0221250D02*
X0208000Y0221250D01*
X0208000Y0211250D02*
X0202000Y0211250D01*
X0202000Y0201250D02*
X0208000Y0201250D01*
X0208000Y0191250D02*
X0202000Y0191250D01*
X0202000Y0181250D02*
X0208000Y0181250D01*
X0208000Y0171250D02*
X0202000Y0171250D01*
X0202000Y0161250D02*
X0208000Y0161250D01*
X0208000Y0151250D02*
X0202000Y0151250D01*
X0202000Y0131250D02*
X0208000Y0131250D01*
X0208000Y0121250D02*
X0202000Y0121250D01*
X0202000Y0111250D02*
X0208000Y0111250D01*
X0208000Y0101250D02*
X0202000Y0101250D01*
X0202000Y0091250D02*
X0208000Y0091250D01*
X0208000Y0081250D02*
X0202000Y0081250D01*
X0202000Y0071250D02*
X0208000Y0071250D01*
X0208000Y0061250D02*
X0202000Y0061250D01*
X0160000Y0078250D02*
X0160000Y0084250D01*
X0150000Y0084250D02*
X0150000Y0078250D01*
X0150000Y0113250D02*
X0150000Y0119250D01*
X0160000Y0119250D02*
X0160000Y0113250D01*
X0155000Y0153250D02*
X0155000Y0159250D01*
X0145000Y0159250D02*
X0145000Y0153250D01*
X0145000Y0188250D02*
X0145000Y0194250D01*
X0155000Y0194250D02*
X0155000Y0188250D01*
X0165000Y0188250D02*
X0165000Y0194250D01*
X0165000Y0223250D02*
X0165000Y0229250D01*
X0155000Y0229250D02*
X0155000Y0223250D01*
X0145000Y0223250D02*
X0145000Y0229250D01*
X0165000Y0159250D02*
X0165000Y0153250D01*
X0130000Y0064250D02*
X0130000Y0058250D01*
X0120000Y0058250D02*
X0120000Y0064250D01*
X0110000Y0064250D02*
X0110000Y0058250D01*
X0100000Y0058250D02*
X0100000Y0064250D01*
X0080000Y0078250D02*
X0080000Y0084250D01*
X0070000Y0084250D02*
X0070000Y0078250D01*
X0060000Y0078250D02*
X0060000Y0084250D01*
X0060000Y0108250D02*
X0060000Y0114250D01*
X0070000Y0114250D02*
X0070000Y0108250D01*
X0080000Y0108250D02*
X0080000Y0114250D01*
X0080000Y0153250D02*
X0080000Y0159250D01*
X0070000Y0159250D02*
X0070000Y0153250D01*
X0060000Y0153250D02*
X0060000Y0159250D01*
X0050000Y0159250D02*
X0050000Y0153250D01*
X0050000Y0183250D02*
X0050000Y0189250D01*
X0060000Y0189250D02*
X0060000Y0183250D01*
X0070000Y0183250D02*
X0070000Y0189250D01*
X0080000Y0189250D02*
X0080000Y0183250D01*
X0080000Y0213250D02*
X0080000Y0219250D01*
X0070000Y0219250D02*
X0070000Y0213250D01*
X0060000Y0213250D02*
X0060000Y0219250D01*
X0050000Y0219250D02*
X0050000Y0213250D01*
X0050000Y0243250D02*
X0050000Y0249250D01*
X0060000Y0249250D02*
X0060000Y0243250D01*
X0070000Y0243250D02*
X0070000Y0249250D01*
X0080000Y0249250D02*
X0080000Y0243250D01*
X0018000Y0241250D02*
X0012000Y0241250D01*
X0012000Y0251250D02*
X0018000Y0251250D01*
X0018000Y0261250D02*
X0012000Y0261250D01*
X0012000Y0271250D02*
X0018000Y0271250D01*
X0018000Y0231250D02*
X0012000Y0231250D01*
X0012000Y0221250D02*
X0018000Y0221250D01*
X0018000Y0201250D02*
X0012000Y0201250D01*
X0012000Y0191250D02*
X0018000Y0191250D01*
X0018000Y0181250D02*
X0012000Y0181250D01*
X0012000Y0171250D02*
X0018000Y0171250D01*
X0018000Y0161250D02*
X0012000Y0161250D01*
X0012000Y0151250D02*
X0018000Y0151250D01*
X0018000Y0141250D02*
X0012000Y0141250D01*
X0012000Y0131250D02*
X0018000Y0131250D01*
X0018000Y0111250D02*
X0012000Y0111250D01*
X0012000Y0101250D02*
X0018000Y0101250D01*
X0018000Y0091250D02*
X0012000Y0091250D01*
X0012000Y0081250D02*
X0018000Y0081250D01*
X0018000Y0071250D02*
X0012000Y0071250D01*
X0012000Y0061250D02*
X0018000Y0061250D01*
X0018000Y0051250D02*
X0012000Y0051250D01*
X0012000Y0041250D02*
X0018000Y0041250D01*
D13*
X0035000Y0031250D03*
X0035000Y0021250D03*
X0045000Y0021250D03*
X0045000Y0031250D03*
X0055000Y0031250D03*
X0055000Y0021250D03*
X0065000Y0021250D03*
X0065000Y0031250D03*
X0075000Y0031250D03*
X0075000Y0021250D03*
X0085000Y0021250D03*
X0085000Y0031250D03*
X0095000Y0031250D03*
X0095000Y0021250D03*
X0105000Y0021250D03*
X0105000Y0031250D03*
X0115000Y0031250D03*
X0115000Y0021250D03*
X0125000Y0021250D03*
X0125000Y0031250D03*
X0135000Y0031250D03*
X0135000Y0021250D03*
X0145000Y0021250D03*
X0145000Y0031250D03*
X0155000Y0031250D03*
X0155000Y0021250D03*
X0165000Y0021250D03*
X0165000Y0031250D03*
X0175000Y0031250D03*
X0175000Y0021250D03*
X0185000Y0021250D03*
X0185000Y0031250D03*
X0195000Y0031250D03*
X0195000Y0021250D03*
X0205000Y0021250D03*
X0205000Y0031250D03*
X0130000Y0126250D03*
X0130000Y0136250D03*
X0120000Y0136250D03*
X0120000Y0126250D03*
X0110000Y0126250D03*
X0110000Y0136250D03*
X0100000Y0136250D03*
X0100000Y0126250D03*
X0100000Y0176250D03*
X0100000Y0186250D03*
X0110000Y0186250D03*
X0110000Y0176250D03*
X0120000Y0176250D03*
X0120000Y0186250D03*
X0130000Y0186250D03*
X0130000Y0176250D03*
D14*
X0008701Y0021250D02*
X0008703Y0021408D01*
X0008709Y0021566D01*
X0008719Y0021724D01*
X0008733Y0021882D01*
X0008751Y0022039D01*
X0008772Y0022196D01*
X0008798Y0022352D01*
X0008828Y0022508D01*
X0008861Y0022663D01*
X0008899Y0022816D01*
X0008940Y0022969D01*
X0008985Y0023121D01*
X0009034Y0023272D01*
X0009087Y0023421D01*
X0009143Y0023569D01*
X0009203Y0023715D01*
X0009267Y0023860D01*
X0009335Y0024003D01*
X0009406Y0024145D01*
X0009480Y0024285D01*
X0009558Y0024422D01*
X0009640Y0024558D01*
X0009724Y0024692D01*
X0009813Y0024823D01*
X0009904Y0024952D01*
X0009999Y0025079D01*
X0010096Y0025204D01*
X0010197Y0025326D01*
X0010301Y0025445D01*
X0010408Y0025562D01*
X0010518Y0025676D01*
X0010631Y0025787D01*
X0010746Y0025896D01*
X0010864Y0026001D01*
X0010985Y0026103D01*
X0011108Y0026203D01*
X0011234Y0026299D01*
X0011362Y0026392D01*
X0011492Y0026482D01*
X0011625Y0026568D01*
X0011760Y0026652D01*
X0011896Y0026731D01*
X0012035Y0026808D01*
X0012176Y0026880D01*
X0012318Y0026950D01*
X0012462Y0027015D01*
X0012608Y0027077D01*
X0012755Y0027135D01*
X0012904Y0027190D01*
X0013054Y0027241D01*
X0013205Y0027288D01*
X0013357Y0027331D01*
X0013510Y0027370D01*
X0013665Y0027406D01*
X0013820Y0027437D01*
X0013976Y0027465D01*
X0014132Y0027489D01*
X0014289Y0027509D01*
X0014447Y0027525D01*
X0014604Y0027537D01*
X0014763Y0027545D01*
X0014921Y0027549D01*
X0015079Y0027549D01*
X0015237Y0027545D01*
X0015396Y0027537D01*
X0015553Y0027525D01*
X0015711Y0027509D01*
X0015868Y0027489D01*
X0016024Y0027465D01*
X0016180Y0027437D01*
X0016335Y0027406D01*
X0016490Y0027370D01*
X0016643Y0027331D01*
X0016795Y0027288D01*
X0016946Y0027241D01*
X0017096Y0027190D01*
X0017245Y0027135D01*
X0017392Y0027077D01*
X0017538Y0027015D01*
X0017682Y0026950D01*
X0017824Y0026880D01*
X0017965Y0026808D01*
X0018104Y0026731D01*
X0018240Y0026652D01*
X0018375Y0026568D01*
X0018508Y0026482D01*
X0018638Y0026392D01*
X0018766Y0026299D01*
X0018892Y0026203D01*
X0019015Y0026103D01*
X0019136Y0026001D01*
X0019254Y0025896D01*
X0019369Y0025787D01*
X0019482Y0025676D01*
X0019592Y0025562D01*
X0019699Y0025445D01*
X0019803Y0025326D01*
X0019904Y0025204D01*
X0020001Y0025079D01*
X0020096Y0024952D01*
X0020187Y0024823D01*
X0020276Y0024692D01*
X0020360Y0024558D01*
X0020442Y0024422D01*
X0020520Y0024285D01*
X0020594Y0024145D01*
X0020665Y0024003D01*
X0020733Y0023860D01*
X0020797Y0023715D01*
X0020857Y0023569D01*
X0020913Y0023421D01*
X0020966Y0023272D01*
X0021015Y0023121D01*
X0021060Y0022969D01*
X0021101Y0022816D01*
X0021139Y0022663D01*
X0021172Y0022508D01*
X0021202Y0022352D01*
X0021228Y0022196D01*
X0021249Y0022039D01*
X0021267Y0021882D01*
X0021281Y0021724D01*
X0021291Y0021566D01*
X0021297Y0021408D01*
X0021299Y0021250D01*
X0021297Y0021092D01*
X0021291Y0020934D01*
X0021281Y0020776D01*
X0021267Y0020618D01*
X0021249Y0020461D01*
X0021228Y0020304D01*
X0021202Y0020148D01*
X0021172Y0019992D01*
X0021139Y0019837D01*
X0021101Y0019684D01*
X0021060Y0019531D01*
X0021015Y0019379D01*
X0020966Y0019228D01*
X0020913Y0019079D01*
X0020857Y0018931D01*
X0020797Y0018785D01*
X0020733Y0018640D01*
X0020665Y0018497D01*
X0020594Y0018355D01*
X0020520Y0018215D01*
X0020442Y0018078D01*
X0020360Y0017942D01*
X0020276Y0017808D01*
X0020187Y0017677D01*
X0020096Y0017548D01*
X0020001Y0017421D01*
X0019904Y0017296D01*
X0019803Y0017174D01*
X0019699Y0017055D01*
X0019592Y0016938D01*
X0019482Y0016824D01*
X0019369Y0016713D01*
X0019254Y0016604D01*
X0019136Y0016499D01*
X0019015Y0016397D01*
X0018892Y0016297D01*
X0018766Y0016201D01*
X0018638Y0016108D01*
X0018508Y0016018D01*
X0018375Y0015932D01*
X0018240Y0015848D01*
X0018104Y0015769D01*
X0017965Y0015692D01*
X0017824Y0015620D01*
X0017682Y0015550D01*
X0017538Y0015485D01*
X0017392Y0015423D01*
X0017245Y0015365D01*
X0017096Y0015310D01*
X0016946Y0015259D01*
X0016795Y0015212D01*
X0016643Y0015169D01*
X0016490Y0015130D01*
X0016335Y0015094D01*
X0016180Y0015063D01*
X0016024Y0015035D01*
X0015868Y0015011D01*
X0015711Y0014991D01*
X0015553Y0014975D01*
X0015396Y0014963D01*
X0015237Y0014955D01*
X0015079Y0014951D01*
X0014921Y0014951D01*
X0014763Y0014955D01*
X0014604Y0014963D01*
X0014447Y0014975D01*
X0014289Y0014991D01*
X0014132Y0015011D01*
X0013976Y0015035D01*
X0013820Y0015063D01*
X0013665Y0015094D01*
X0013510Y0015130D01*
X0013357Y0015169D01*
X0013205Y0015212D01*
X0013054Y0015259D01*
X0012904Y0015310D01*
X0012755Y0015365D01*
X0012608Y0015423D01*
X0012462Y0015485D01*
X0012318Y0015550D01*
X0012176Y0015620D01*
X0012035Y0015692D01*
X0011896Y0015769D01*
X0011760Y0015848D01*
X0011625Y0015932D01*
X0011492Y0016018D01*
X0011362Y0016108D01*
X0011234Y0016201D01*
X0011108Y0016297D01*
X0010985Y0016397D01*
X0010864Y0016499D01*
X0010746Y0016604D01*
X0010631Y0016713D01*
X0010518Y0016824D01*
X0010408Y0016938D01*
X0010301Y0017055D01*
X0010197Y0017174D01*
X0010096Y0017296D01*
X0009999Y0017421D01*
X0009904Y0017548D01*
X0009813Y0017677D01*
X0009724Y0017808D01*
X0009640Y0017942D01*
X0009558Y0018078D01*
X0009480Y0018215D01*
X0009406Y0018355D01*
X0009335Y0018497D01*
X0009267Y0018640D01*
X0009203Y0018785D01*
X0009143Y0018931D01*
X0009087Y0019079D01*
X0009034Y0019228D01*
X0008985Y0019379D01*
X0008940Y0019531D01*
X0008899Y0019684D01*
X0008861Y0019837D01*
X0008828Y0019992D01*
X0008798Y0020148D01*
X0008772Y0020304D01*
X0008751Y0020461D01*
X0008733Y0020618D01*
X0008719Y0020776D01*
X0008709Y0020934D01*
X0008703Y0021092D01*
X0008701Y0021250D01*
X0111063Y0109250D02*
X0111065Y0109375D01*
X0111071Y0109500D01*
X0111081Y0109624D01*
X0111095Y0109748D01*
X0111112Y0109872D01*
X0111134Y0109995D01*
X0111160Y0110117D01*
X0111189Y0110239D01*
X0111222Y0110359D01*
X0111260Y0110478D01*
X0111300Y0110597D01*
X0111345Y0110713D01*
X0111393Y0110828D01*
X0111445Y0110942D01*
X0111501Y0111054D01*
X0111560Y0111164D01*
X0111622Y0111272D01*
X0111688Y0111379D01*
X0111757Y0111483D01*
X0111830Y0111584D01*
X0111905Y0111684D01*
X0111984Y0111781D01*
X0112066Y0111875D01*
X0112151Y0111967D01*
X0112238Y0112056D01*
X0112329Y0112142D01*
X0112422Y0112225D01*
X0112518Y0112306D01*
X0112616Y0112383D01*
X0112716Y0112457D01*
X0112819Y0112528D01*
X0112924Y0112595D01*
X0113032Y0112660D01*
X0113141Y0112720D01*
X0113252Y0112778D01*
X0113365Y0112831D01*
X0113479Y0112881D01*
X0113595Y0112928D01*
X0113712Y0112970D01*
X0113831Y0113009D01*
X0113951Y0113045D01*
X0114072Y0113076D01*
X0114194Y0113104D01*
X0114316Y0113127D01*
X0114440Y0113147D01*
X0114564Y0113163D01*
X0114688Y0113175D01*
X0114813Y0113183D01*
X0114938Y0113187D01*
X0115062Y0113187D01*
X0115187Y0113183D01*
X0115312Y0113175D01*
X0115436Y0113163D01*
X0115560Y0113147D01*
X0115684Y0113127D01*
X0115806Y0113104D01*
X0115928Y0113076D01*
X0116049Y0113045D01*
X0116169Y0113009D01*
X0116288Y0112970D01*
X0116405Y0112928D01*
X0116521Y0112881D01*
X0116635Y0112831D01*
X0116748Y0112778D01*
X0116859Y0112720D01*
X0116969Y0112660D01*
X0117076Y0112595D01*
X0117181Y0112528D01*
X0117284Y0112457D01*
X0117384Y0112383D01*
X0117482Y0112306D01*
X0117578Y0112225D01*
X0117671Y0112142D01*
X0117762Y0112056D01*
X0117849Y0111967D01*
X0117934Y0111875D01*
X0118016Y0111781D01*
X0118095Y0111684D01*
X0118170Y0111584D01*
X0118243Y0111483D01*
X0118312Y0111379D01*
X0118378Y0111272D01*
X0118440Y0111164D01*
X0118499Y0111054D01*
X0118555Y0110942D01*
X0118607Y0110828D01*
X0118655Y0110713D01*
X0118700Y0110597D01*
X0118740Y0110478D01*
X0118778Y0110359D01*
X0118811Y0110239D01*
X0118840Y0110117D01*
X0118866Y0109995D01*
X0118888Y0109872D01*
X0118905Y0109748D01*
X0118919Y0109624D01*
X0118929Y0109500D01*
X0118935Y0109375D01*
X0118937Y0109250D01*
X0118935Y0109125D01*
X0118929Y0109000D01*
X0118919Y0108876D01*
X0118905Y0108752D01*
X0118888Y0108628D01*
X0118866Y0108505D01*
X0118840Y0108383D01*
X0118811Y0108261D01*
X0118778Y0108141D01*
X0118740Y0108022D01*
X0118700Y0107903D01*
X0118655Y0107787D01*
X0118607Y0107672D01*
X0118555Y0107558D01*
X0118499Y0107446D01*
X0118440Y0107336D01*
X0118378Y0107228D01*
X0118312Y0107121D01*
X0118243Y0107017D01*
X0118170Y0106916D01*
X0118095Y0106816D01*
X0118016Y0106719D01*
X0117934Y0106625D01*
X0117849Y0106533D01*
X0117762Y0106444D01*
X0117671Y0106358D01*
X0117578Y0106275D01*
X0117482Y0106194D01*
X0117384Y0106117D01*
X0117284Y0106043D01*
X0117181Y0105972D01*
X0117076Y0105905D01*
X0116968Y0105840D01*
X0116859Y0105780D01*
X0116748Y0105722D01*
X0116635Y0105669D01*
X0116521Y0105619D01*
X0116405Y0105572D01*
X0116288Y0105530D01*
X0116169Y0105491D01*
X0116049Y0105455D01*
X0115928Y0105424D01*
X0115806Y0105396D01*
X0115684Y0105373D01*
X0115560Y0105353D01*
X0115436Y0105337D01*
X0115312Y0105325D01*
X0115187Y0105317D01*
X0115062Y0105313D01*
X0114938Y0105313D01*
X0114813Y0105317D01*
X0114688Y0105325D01*
X0114564Y0105337D01*
X0114440Y0105353D01*
X0114316Y0105373D01*
X0114194Y0105396D01*
X0114072Y0105424D01*
X0113951Y0105455D01*
X0113831Y0105491D01*
X0113712Y0105530D01*
X0113595Y0105572D01*
X0113479Y0105619D01*
X0113365Y0105669D01*
X0113252Y0105722D01*
X0113141Y0105780D01*
X0113031Y0105840D01*
X0112924Y0105905D01*
X0112819Y0105972D01*
X0112716Y0106043D01*
X0112616Y0106117D01*
X0112518Y0106194D01*
X0112422Y0106275D01*
X0112329Y0106358D01*
X0112238Y0106444D01*
X0112151Y0106533D01*
X0112066Y0106625D01*
X0111984Y0106719D01*
X0111905Y0106816D01*
X0111830Y0106916D01*
X0111757Y0107017D01*
X0111688Y0107121D01*
X0111622Y0107228D01*
X0111560Y0107336D01*
X0111501Y0107446D01*
X0111445Y0107558D01*
X0111393Y0107672D01*
X0111345Y0107787D01*
X0111300Y0107903D01*
X0111260Y0108022D01*
X0111222Y0108141D01*
X0111189Y0108261D01*
X0111160Y0108383D01*
X0111134Y0108505D01*
X0111112Y0108628D01*
X0111095Y0108752D01*
X0111081Y0108876D01*
X0111071Y0109000D01*
X0111065Y0109125D01*
X0111063Y0109250D01*
X0198701Y0046250D02*
X0198703Y0046408D01*
X0198709Y0046566D01*
X0198719Y0046724D01*
X0198733Y0046882D01*
X0198751Y0047039D01*
X0198772Y0047196D01*
X0198798Y0047352D01*
X0198828Y0047508D01*
X0198861Y0047663D01*
X0198899Y0047816D01*
X0198940Y0047969D01*
X0198985Y0048121D01*
X0199034Y0048272D01*
X0199087Y0048421D01*
X0199143Y0048569D01*
X0199203Y0048715D01*
X0199267Y0048860D01*
X0199335Y0049003D01*
X0199406Y0049145D01*
X0199480Y0049285D01*
X0199558Y0049422D01*
X0199640Y0049558D01*
X0199724Y0049692D01*
X0199813Y0049823D01*
X0199904Y0049952D01*
X0199999Y0050079D01*
X0200096Y0050204D01*
X0200197Y0050326D01*
X0200301Y0050445D01*
X0200408Y0050562D01*
X0200518Y0050676D01*
X0200631Y0050787D01*
X0200746Y0050896D01*
X0200864Y0051001D01*
X0200985Y0051103D01*
X0201108Y0051203D01*
X0201234Y0051299D01*
X0201362Y0051392D01*
X0201492Y0051482D01*
X0201625Y0051568D01*
X0201760Y0051652D01*
X0201896Y0051731D01*
X0202035Y0051808D01*
X0202176Y0051880D01*
X0202318Y0051950D01*
X0202462Y0052015D01*
X0202608Y0052077D01*
X0202755Y0052135D01*
X0202904Y0052190D01*
X0203054Y0052241D01*
X0203205Y0052288D01*
X0203357Y0052331D01*
X0203510Y0052370D01*
X0203665Y0052406D01*
X0203820Y0052437D01*
X0203976Y0052465D01*
X0204132Y0052489D01*
X0204289Y0052509D01*
X0204447Y0052525D01*
X0204604Y0052537D01*
X0204763Y0052545D01*
X0204921Y0052549D01*
X0205079Y0052549D01*
X0205237Y0052545D01*
X0205396Y0052537D01*
X0205553Y0052525D01*
X0205711Y0052509D01*
X0205868Y0052489D01*
X0206024Y0052465D01*
X0206180Y0052437D01*
X0206335Y0052406D01*
X0206490Y0052370D01*
X0206643Y0052331D01*
X0206795Y0052288D01*
X0206946Y0052241D01*
X0207096Y0052190D01*
X0207245Y0052135D01*
X0207392Y0052077D01*
X0207538Y0052015D01*
X0207682Y0051950D01*
X0207824Y0051880D01*
X0207965Y0051808D01*
X0208104Y0051731D01*
X0208240Y0051652D01*
X0208375Y0051568D01*
X0208508Y0051482D01*
X0208638Y0051392D01*
X0208766Y0051299D01*
X0208892Y0051203D01*
X0209015Y0051103D01*
X0209136Y0051001D01*
X0209254Y0050896D01*
X0209369Y0050787D01*
X0209482Y0050676D01*
X0209592Y0050562D01*
X0209699Y0050445D01*
X0209803Y0050326D01*
X0209904Y0050204D01*
X0210001Y0050079D01*
X0210096Y0049952D01*
X0210187Y0049823D01*
X0210276Y0049692D01*
X0210360Y0049558D01*
X0210442Y0049422D01*
X0210520Y0049285D01*
X0210594Y0049145D01*
X0210665Y0049003D01*
X0210733Y0048860D01*
X0210797Y0048715D01*
X0210857Y0048569D01*
X0210913Y0048421D01*
X0210966Y0048272D01*
X0211015Y0048121D01*
X0211060Y0047969D01*
X0211101Y0047816D01*
X0211139Y0047663D01*
X0211172Y0047508D01*
X0211202Y0047352D01*
X0211228Y0047196D01*
X0211249Y0047039D01*
X0211267Y0046882D01*
X0211281Y0046724D01*
X0211291Y0046566D01*
X0211297Y0046408D01*
X0211299Y0046250D01*
X0211297Y0046092D01*
X0211291Y0045934D01*
X0211281Y0045776D01*
X0211267Y0045618D01*
X0211249Y0045461D01*
X0211228Y0045304D01*
X0211202Y0045148D01*
X0211172Y0044992D01*
X0211139Y0044837D01*
X0211101Y0044684D01*
X0211060Y0044531D01*
X0211015Y0044379D01*
X0210966Y0044228D01*
X0210913Y0044079D01*
X0210857Y0043931D01*
X0210797Y0043785D01*
X0210733Y0043640D01*
X0210665Y0043497D01*
X0210594Y0043355D01*
X0210520Y0043215D01*
X0210442Y0043078D01*
X0210360Y0042942D01*
X0210276Y0042808D01*
X0210187Y0042677D01*
X0210096Y0042548D01*
X0210001Y0042421D01*
X0209904Y0042296D01*
X0209803Y0042174D01*
X0209699Y0042055D01*
X0209592Y0041938D01*
X0209482Y0041824D01*
X0209369Y0041713D01*
X0209254Y0041604D01*
X0209136Y0041499D01*
X0209015Y0041397D01*
X0208892Y0041297D01*
X0208766Y0041201D01*
X0208638Y0041108D01*
X0208508Y0041018D01*
X0208375Y0040932D01*
X0208240Y0040848D01*
X0208104Y0040769D01*
X0207965Y0040692D01*
X0207824Y0040620D01*
X0207682Y0040550D01*
X0207538Y0040485D01*
X0207392Y0040423D01*
X0207245Y0040365D01*
X0207096Y0040310D01*
X0206946Y0040259D01*
X0206795Y0040212D01*
X0206643Y0040169D01*
X0206490Y0040130D01*
X0206335Y0040094D01*
X0206180Y0040063D01*
X0206024Y0040035D01*
X0205868Y0040011D01*
X0205711Y0039991D01*
X0205553Y0039975D01*
X0205396Y0039963D01*
X0205237Y0039955D01*
X0205079Y0039951D01*
X0204921Y0039951D01*
X0204763Y0039955D01*
X0204604Y0039963D01*
X0204447Y0039975D01*
X0204289Y0039991D01*
X0204132Y0040011D01*
X0203976Y0040035D01*
X0203820Y0040063D01*
X0203665Y0040094D01*
X0203510Y0040130D01*
X0203357Y0040169D01*
X0203205Y0040212D01*
X0203054Y0040259D01*
X0202904Y0040310D01*
X0202755Y0040365D01*
X0202608Y0040423D01*
X0202462Y0040485D01*
X0202318Y0040550D01*
X0202176Y0040620D01*
X0202035Y0040692D01*
X0201896Y0040769D01*
X0201760Y0040848D01*
X0201625Y0040932D01*
X0201492Y0041018D01*
X0201362Y0041108D01*
X0201234Y0041201D01*
X0201108Y0041297D01*
X0200985Y0041397D01*
X0200864Y0041499D01*
X0200746Y0041604D01*
X0200631Y0041713D01*
X0200518Y0041824D01*
X0200408Y0041938D01*
X0200301Y0042055D01*
X0200197Y0042174D01*
X0200096Y0042296D01*
X0199999Y0042421D01*
X0199904Y0042548D01*
X0199813Y0042677D01*
X0199724Y0042808D01*
X0199640Y0042942D01*
X0199558Y0043078D01*
X0199480Y0043215D01*
X0199406Y0043355D01*
X0199335Y0043497D01*
X0199267Y0043640D01*
X0199203Y0043785D01*
X0199143Y0043931D01*
X0199087Y0044079D01*
X0199034Y0044228D01*
X0198985Y0044379D01*
X0198940Y0044531D01*
X0198899Y0044684D01*
X0198861Y0044837D01*
X0198828Y0044992D01*
X0198798Y0045148D01*
X0198772Y0045304D01*
X0198751Y0045461D01*
X0198733Y0045618D01*
X0198719Y0045776D01*
X0198709Y0045934D01*
X0198703Y0046092D01*
X0198701Y0046250D01*
X0198701Y0341250D02*
X0198703Y0341408D01*
X0198709Y0341566D01*
X0198719Y0341724D01*
X0198733Y0341882D01*
X0198751Y0342039D01*
X0198772Y0342196D01*
X0198798Y0342352D01*
X0198828Y0342508D01*
X0198861Y0342663D01*
X0198899Y0342816D01*
X0198940Y0342969D01*
X0198985Y0343121D01*
X0199034Y0343272D01*
X0199087Y0343421D01*
X0199143Y0343569D01*
X0199203Y0343715D01*
X0199267Y0343860D01*
X0199335Y0344003D01*
X0199406Y0344145D01*
X0199480Y0344285D01*
X0199558Y0344422D01*
X0199640Y0344558D01*
X0199724Y0344692D01*
X0199813Y0344823D01*
X0199904Y0344952D01*
X0199999Y0345079D01*
X0200096Y0345204D01*
X0200197Y0345326D01*
X0200301Y0345445D01*
X0200408Y0345562D01*
X0200518Y0345676D01*
X0200631Y0345787D01*
X0200746Y0345896D01*
X0200864Y0346001D01*
X0200985Y0346103D01*
X0201108Y0346203D01*
X0201234Y0346299D01*
X0201362Y0346392D01*
X0201492Y0346482D01*
X0201625Y0346568D01*
X0201760Y0346652D01*
X0201896Y0346731D01*
X0202035Y0346808D01*
X0202176Y0346880D01*
X0202318Y0346950D01*
X0202462Y0347015D01*
X0202608Y0347077D01*
X0202755Y0347135D01*
X0202904Y0347190D01*
X0203054Y0347241D01*
X0203205Y0347288D01*
X0203357Y0347331D01*
X0203510Y0347370D01*
X0203665Y0347406D01*
X0203820Y0347437D01*
X0203976Y0347465D01*
X0204132Y0347489D01*
X0204289Y0347509D01*
X0204447Y0347525D01*
X0204604Y0347537D01*
X0204763Y0347545D01*
X0204921Y0347549D01*
X0205079Y0347549D01*
X0205237Y0347545D01*
X0205396Y0347537D01*
X0205553Y0347525D01*
X0205711Y0347509D01*
X0205868Y0347489D01*
X0206024Y0347465D01*
X0206180Y0347437D01*
X0206335Y0347406D01*
X0206490Y0347370D01*
X0206643Y0347331D01*
X0206795Y0347288D01*
X0206946Y0347241D01*
X0207096Y0347190D01*
X0207245Y0347135D01*
X0207392Y0347077D01*
X0207538Y0347015D01*
X0207682Y0346950D01*
X0207824Y0346880D01*
X0207965Y0346808D01*
X0208104Y0346731D01*
X0208240Y0346652D01*
X0208375Y0346568D01*
X0208508Y0346482D01*
X0208638Y0346392D01*
X0208766Y0346299D01*
X0208892Y0346203D01*
X0209015Y0346103D01*
X0209136Y0346001D01*
X0209254Y0345896D01*
X0209369Y0345787D01*
X0209482Y0345676D01*
X0209592Y0345562D01*
X0209699Y0345445D01*
X0209803Y0345326D01*
X0209904Y0345204D01*
X0210001Y0345079D01*
X0210096Y0344952D01*
X0210187Y0344823D01*
X0210276Y0344692D01*
X0210360Y0344558D01*
X0210442Y0344422D01*
X0210520Y0344285D01*
X0210594Y0344145D01*
X0210665Y0344003D01*
X0210733Y0343860D01*
X0210797Y0343715D01*
X0210857Y0343569D01*
X0210913Y0343421D01*
X0210966Y0343272D01*
X0211015Y0343121D01*
X0211060Y0342969D01*
X0211101Y0342816D01*
X0211139Y0342663D01*
X0211172Y0342508D01*
X0211202Y0342352D01*
X0211228Y0342196D01*
X0211249Y0342039D01*
X0211267Y0341882D01*
X0211281Y0341724D01*
X0211291Y0341566D01*
X0211297Y0341408D01*
X0211299Y0341250D01*
X0211297Y0341092D01*
X0211291Y0340934D01*
X0211281Y0340776D01*
X0211267Y0340618D01*
X0211249Y0340461D01*
X0211228Y0340304D01*
X0211202Y0340148D01*
X0211172Y0339992D01*
X0211139Y0339837D01*
X0211101Y0339684D01*
X0211060Y0339531D01*
X0211015Y0339379D01*
X0210966Y0339228D01*
X0210913Y0339079D01*
X0210857Y0338931D01*
X0210797Y0338785D01*
X0210733Y0338640D01*
X0210665Y0338497D01*
X0210594Y0338355D01*
X0210520Y0338215D01*
X0210442Y0338078D01*
X0210360Y0337942D01*
X0210276Y0337808D01*
X0210187Y0337677D01*
X0210096Y0337548D01*
X0210001Y0337421D01*
X0209904Y0337296D01*
X0209803Y0337174D01*
X0209699Y0337055D01*
X0209592Y0336938D01*
X0209482Y0336824D01*
X0209369Y0336713D01*
X0209254Y0336604D01*
X0209136Y0336499D01*
X0209015Y0336397D01*
X0208892Y0336297D01*
X0208766Y0336201D01*
X0208638Y0336108D01*
X0208508Y0336018D01*
X0208375Y0335932D01*
X0208240Y0335848D01*
X0208104Y0335769D01*
X0207965Y0335692D01*
X0207824Y0335620D01*
X0207682Y0335550D01*
X0207538Y0335485D01*
X0207392Y0335423D01*
X0207245Y0335365D01*
X0207096Y0335310D01*
X0206946Y0335259D01*
X0206795Y0335212D01*
X0206643Y0335169D01*
X0206490Y0335130D01*
X0206335Y0335094D01*
X0206180Y0335063D01*
X0206024Y0335035D01*
X0205868Y0335011D01*
X0205711Y0334991D01*
X0205553Y0334975D01*
X0205396Y0334963D01*
X0205237Y0334955D01*
X0205079Y0334951D01*
X0204921Y0334951D01*
X0204763Y0334955D01*
X0204604Y0334963D01*
X0204447Y0334975D01*
X0204289Y0334991D01*
X0204132Y0335011D01*
X0203976Y0335035D01*
X0203820Y0335063D01*
X0203665Y0335094D01*
X0203510Y0335130D01*
X0203357Y0335169D01*
X0203205Y0335212D01*
X0203054Y0335259D01*
X0202904Y0335310D01*
X0202755Y0335365D01*
X0202608Y0335423D01*
X0202462Y0335485D01*
X0202318Y0335550D01*
X0202176Y0335620D01*
X0202035Y0335692D01*
X0201896Y0335769D01*
X0201760Y0335848D01*
X0201625Y0335932D01*
X0201492Y0336018D01*
X0201362Y0336108D01*
X0201234Y0336201D01*
X0201108Y0336297D01*
X0200985Y0336397D01*
X0200864Y0336499D01*
X0200746Y0336604D01*
X0200631Y0336713D01*
X0200518Y0336824D01*
X0200408Y0336938D01*
X0200301Y0337055D01*
X0200197Y0337174D01*
X0200096Y0337296D01*
X0199999Y0337421D01*
X0199904Y0337548D01*
X0199813Y0337677D01*
X0199724Y0337808D01*
X0199640Y0337942D01*
X0199558Y0338078D01*
X0199480Y0338215D01*
X0199406Y0338355D01*
X0199335Y0338497D01*
X0199267Y0338640D01*
X0199203Y0338785D01*
X0199143Y0338931D01*
X0199087Y0339079D01*
X0199034Y0339228D01*
X0198985Y0339379D01*
X0198940Y0339531D01*
X0198899Y0339684D01*
X0198861Y0339837D01*
X0198828Y0339992D01*
X0198798Y0340148D01*
X0198772Y0340304D01*
X0198751Y0340461D01*
X0198733Y0340618D01*
X0198719Y0340776D01*
X0198709Y0340934D01*
X0198703Y0341092D01*
X0198701Y0341250D01*
X0008701Y0341250D02*
X0008703Y0341408D01*
X0008709Y0341566D01*
X0008719Y0341724D01*
X0008733Y0341882D01*
X0008751Y0342039D01*
X0008772Y0342196D01*
X0008798Y0342352D01*
X0008828Y0342508D01*
X0008861Y0342663D01*
X0008899Y0342816D01*
X0008940Y0342969D01*
X0008985Y0343121D01*
X0009034Y0343272D01*
X0009087Y0343421D01*
X0009143Y0343569D01*
X0009203Y0343715D01*
X0009267Y0343860D01*
X0009335Y0344003D01*
X0009406Y0344145D01*
X0009480Y0344285D01*
X0009558Y0344422D01*
X0009640Y0344558D01*
X0009724Y0344692D01*
X0009813Y0344823D01*
X0009904Y0344952D01*
X0009999Y0345079D01*
X0010096Y0345204D01*
X0010197Y0345326D01*
X0010301Y0345445D01*
X0010408Y0345562D01*
X0010518Y0345676D01*
X0010631Y0345787D01*
X0010746Y0345896D01*
X0010864Y0346001D01*
X0010985Y0346103D01*
X0011108Y0346203D01*
X0011234Y0346299D01*
X0011362Y0346392D01*
X0011492Y0346482D01*
X0011625Y0346568D01*
X0011760Y0346652D01*
X0011896Y0346731D01*
X0012035Y0346808D01*
X0012176Y0346880D01*
X0012318Y0346950D01*
X0012462Y0347015D01*
X0012608Y0347077D01*
X0012755Y0347135D01*
X0012904Y0347190D01*
X0013054Y0347241D01*
X0013205Y0347288D01*
X0013357Y0347331D01*
X0013510Y0347370D01*
X0013665Y0347406D01*
X0013820Y0347437D01*
X0013976Y0347465D01*
X0014132Y0347489D01*
X0014289Y0347509D01*
X0014447Y0347525D01*
X0014604Y0347537D01*
X0014763Y0347545D01*
X0014921Y0347549D01*
X0015079Y0347549D01*
X0015237Y0347545D01*
X0015396Y0347537D01*
X0015553Y0347525D01*
X0015711Y0347509D01*
X0015868Y0347489D01*
X0016024Y0347465D01*
X0016180Y0347437D01*
X0016335Y0347406D01*
X0016490Y0347370D01*
X0016643Y0347331D01*
X0016795Y0347288D01*
X0016946Y0347241D01*
X0017096Y0347190D01*
X0017245Y0347135D01*
X0017392Y0347077D01*
X0017538Y0347015D01*
X0017682Y0346950D01*
X0017824Y0346880D01*
X0017965Y0346808D01*
X0018104Y0346731D01*
X0018240Y0346652D01*
X0018375Y0346568D01*
X0018508Y0346482D01*
X0018638Y0346392D01*
X0018766Y0346299D01*
X0018892Y0346203D01*
X0019015Y0346103D01*
X0019136Y0346001D01*
X0019254Y0345896D01*
X0019369Y0345787D01*
X0019482Y0345676D01*
X0019592Y0345562D01*
X0019699Y0345445D01*
X0019803Y0345326D01*
X0019904Y0345204D01*
X0020001Y0345079D01*
X0020096Y0344952D01*
X0020187Y0344823D01*
X0020276Y0344692D01*
X0020360Y0344558D01*
X0020442Y0344422D01*
X0020520Y0344285D01*
X0020594Y0344145D01*
X0020665Y0344003D01*
X0020733Y0343860D01*
X0020797Y0343715D01*
X0020857Y0343569D01*
X0020913Y0343421D01*
X0020966Y0343272D01*
X0021015Y0343121D01*
X0021060Y0342969D01*
X0021101Y0342816D01*
X0021139Y0342663D01*
X0021172Y0342508D01*
X0021202Y0342352D01*
X0021228Y0342196D01*
X0021249Y0342039D01*
X0021267Y0341882D01*
X0021281Y0341724D01*
X0021291Y0341566D01*
X0021297Y0341408D01*
X0021299Y0341250D01*
X0021297Y0341092D01*
X0021291Y0340934D01*
X0021281Y0340776D01*
X0021267Y0340618D01*
X0021249Y0340461D01*
X0021228Y0340304D01*
X0021202Y0340148D01*
X0021172Y0339992D01*
X0021139Y0339837D01*
X0021101Y0339684D01*
X0021060Y0339531D01*
X0021015Y0339379D01*
X0020966Y0339228D01*
X0020913Y0339079D01*
X0020857Y0338931D01*
X0020797Y0338785D01*
X0020733Y0338640D01*
X0020665Y0338497D01*
X0020594Y0338355D01*
X0020520Y0338215D01*
X0020442Y0338078D01*
X0020360Y0337942D01*
X0020276Y0337808D01*
X0020187Y0337677D01*
X0020096Y0337548D01*
X0020001Y0337421D01*
X0019904Y0337296D01*
X0019803Y0337174D01*
X0019699Y0337055D01*
X0019592Y0336938D01*
X0019482Y0336824D01*
X0019369Y0336713D01*
X0019254Y0336604D01*
X0019136Y0336499D01*
X0019015Y0336397D01*
X0018892Y0336297D01*
X0018766Y0336201D01*
X0018638Y0336108D01*
X0018508Y0336018D01*
X0018375Y0335932D01*
X0018240Y0335848D01*
X0018104Y0335769D01*
X0017965Y0335692D01*
X0017824Y0335620D01*
X0017682Y0335550D01*
X0017538Y0335485D01*
X0017392Y0335423D01*
X0017245Y0335365D01*
X0017096Y0335310D01*
X0016946Y0335259D01*
X0016795Y0335212D01*
X0016643Y0335169D01*
X0016490Y0335130D01*
X0016335Y0335094D01*
X0016180Y0335063D01*
X0016024Y0335035D01*
X0015868Y0335011D01*
X0015711Y0334991D01*
X0015553Y0334975D01*
X0015396Y0334963D01*
X0015237Y0334955D01*
X0015079Y0334951D01*
X0014921Y0334951D01*
X0014763Y0334955D01*
X0014604Y0334963D01*
X0014447Y0334975D01*
X0014289Y0334991D01*
X0014132Y0335011D01*
X0013976Y0335035D01*
X0013820Y0335063D01*
X0013665Y0335094D01*
X0013510Y0335130D01*
X0013357Y0335169D01*
X0013205Y0335212D01*
X0013054Y0335259D01*
X0012904Y0335310D01*
X0012755Y0335365D01*
X0012608Y0335423D01*
X0012462Y0335485D01*
X0012318Y0335550D01*
X0012176Y0335620D01*
X0012035Y0335692D01*
X0011896Y0335769D01*
X0011760Y0335848D01*
X0011625Y0335932D01*
X0011492Y0336018D01*
X0011362Y0336108D01*
X0011234Y0336201D01*
X0011108Y0336297D01*
X0010985Y0336397D01*
X0010864Y0336499D01*
X0010746Y0336604D01*
X0010631Y0336713D01*
X0010518Y0336824D01*
X0010408Y0336938D01*
X0010301Y0337055D01*
X0010197Y0337174D01*
X0010096Y0337296D01*
X0009999Y0337421D01*
X0009904Y0337548D01*
X0009813Y0337677D01*
X0009724Y0337808D01*
X0009640Y0337942D01*
X0009558Y0338078D01*
X0009480Y0338215D01*
X0009406Y0338355D01*
X0009335Y0338497D01*
X0009267Y0338640D01*
X0009203Y0338785D01*
X0009143Y0338931D01*
X0009087Y0339079D01*
X0009034Y0339228D01*
X0008985Y0339379D01*
X0008940Y0339531D01*
X0008899Y0339684D01*
X0008861Y0339837D01*
X0008828Y0339992D01*
X0008798Y0340148D01*
X0008772Y0340304D01*
X0008751Y0340461D01*
X0008733Y0340618D01*
X0008719Y0340776D01*
X0008709Y0340934D01*
X0008703Y0341092D01*
X0008701Y0341250D01*
D15*
X0043189Y0371950D02*
X0043189Y0380550D01*
X0050700Y0357352D02*
X0059300Y0357352D01*
X0066811Y0371950D02*
X0066811Y0380550D01*
D16*
X0066811Y0376250D02*
X0067200Y0375850D01*
X0094800Y0348250D01*
X0094800Y0341650D01*
X0095000Y0341250D01*
X0090600Y0332050D02*
X0079800Y0321250D01*
X0080000Y0321250D01*
X0080400Y0321250D01*
X0080400Y0310450D01*
X0099600Y0291250D01*
X0100000Y0291250D01*
X0100200Y0291250D01*
X0100200Y0270250D01*
X0073800Y0270250D01*
X0070200Y0266650D01*
X0070000Y0266250D01*
X0069600Y0266050D01*
X0069600Y0255850D01*
X0060000Y0246250D01*
X0060000Y0231250D01*
X0015000Y0231250D01*
X0015000Y0241250D01*
X0015000Y0251050D02*
X0015000Y0251250D01*
X0015000Y0251050D02*
X0045000Y0251050D01*
X0049800Y0246250D01*
X0050000Y0246250D01*
X0060000Y0231250D02*
X0060000Y0216250D01*
X0060000Y0186250D01*
X0066000Y0183250D02*
X0061800Y0179050D01*
X0048600Y0179050D01*
X0042000Y0185650D01*
X0010800Y0185650D01*
X0007800Y0182650D01*
X0007800Y0179650D01*
X0015000Y0172450D01*
X0015000Y0171250D01*
X0015000Y0180850D02*
X0015000Y0181250D01*
X0015000Y0180850D02*
X0045000Y0180850D01*
X0048000Y0177850D01*
X0070200Y0177850D01*
X0074400Y0182050D01*
X0074400Y0212050D01*
X0070200Y0216250D01*
X0070000Y0216250D01*
X0075600Y0212050D02*
X0079800Y0216250D01*
X0080000Y0216250D01*
X0075600Y0212050D02*
X0075600Y0181450D01*
X0070800Y0176650D01*
X0061800Y0176650D01*
X0030600Y0145450D01*
X0030600Y0020050D01*
X0033600Y0017050D01*
X0056400Y0017050D01*
X0059400Y0020050D01*
X0059400Y0021250D01*
X0063600Y0025450D01*
X0165000Y0025450D01*
X0170400Y0030850D01*
X0174600Y0030850D01*
X0175000Y0031250D01*
X0165000Y0031250D02*
X0165000Y0031450D01*
X0160800Y0031450D01*
X0138000Y0054250D01*
X0118200Y0054250D01*
X0115800Y0056650D01*
X0115800Y0098050D01*
X0123600Y0105850D01*
X0123600Y0116650D01*
X0114000Y0126250D01*
X0114000Y0156250D01*
X0085200Y0185050D01*
X0085200Y0241450D01*
X0080400Y0246250D01*
X0080000Y0246250D01*
X0070000Y0246250D02*
X0069600Y0246250D01*
X0066000Y0242650D01*
X0066000Y0183250D01*
X0061800Y0163450D02*
X0057600Y0163450D01*
X0050400Y0156250D01*
X0050000Y0156250D01*
X0060000Y0156250D02*
X0060000Y0155650D01*
X0069600Y0146050D01*
X0069600Y0111250D01*
X0070000Y0111250D01*
X0070200Y0111250D01*
X0070200Y0081250D01*
X0070000Y0081250D01*
X0069600Y0081250D01*
X0035400Y0047050D01*
X0035400Y0031450D01*
X0035000Y0031250D01*
X0035400Y0030850D01*
X0035400Y0021250D01*
X0035000Y0021250D01*
X0055000Y0021250D02*
X0055200Y0021250D01*
X0055200Y0025450D01*
X0060600Y0030850D01*
X0060600Y0051250D01*
X0106200Y0096850D01*
X0106200Y0122650D01*
X0109800Y0126250D01*
X0110000Y0126250D01*
X0118200Y0132250D02*
X0115200Y0135250D01*
X0115200Y0171250D01*
X0120600Y0171250D01*
X0125400Y0176050D01*
X0129600Y0176050D01*
X0130000Y0176250D01*
X0130000Y0186250D02*
X0129600Y0186250D01*
X0109800Y0206050D01*
X0100200Y0206050D01*
X0100000Y0206250D01*
X0108600Y0190450D02*
X0115800Y0190450D01*
X0120000Y0186250D01*
X0110400Y0176050D02*
X0115200Y0171250D01*
X0110400Y0176050D02*
X0110000Y0176250D01*
X0104400Y0186250D02*
X0108600Y0190450D01*
X0104400Y0186250D02*
X0100000Y0186250D01*
X0120000Y0157450D02*
X0150600Y0188050D01*
X0150600Y0195850D01*
X0175800Y0221050D01*
X0204600Y0221050D01*
X0205000Y0221250D01*
X0210000Y0225250D02*
X0189000Y0225250D01*
X0186600Y0222850D01*
X0168000Y0222850D01*
X0165000Y0225850D01*
X0165000Y0226250D01*
X0166200Y0233650D02*
X0162600Y0233650D01*
X0155400Y0226450D01*
X0155000Y0226250D01*
X0145200Y0225850D02*
X0145000Y0226250D01*
X0144600Y0226450D01*
X0139800Y0231250D01*
X0130000Y0231250D01*
X0129600Y0231250D01*
X0129600Y0236650D01*
X0100000Y0266250D01*
X0100200Y0266650D01*
X0100200Y0270250D01*
X0115200Y0270250D02*
X0115200Y0266650D01*
X0115000Y0266250D01*
X0115200Y0270250D02*
X0136200Y0270250D01*
X0139800Y0266650D01*
X0150000Y0266650D01*
X0150000Y0266250D01*
X0150000Y0291250D02*
X0135000Y0291250D01*
X0120000Y0291250D01*
X0090000Y0321250D01*
X0099600Y0330850D01*
X0153600Y0330850D01*
X0178800Y0356050D01*
X0180000Y0356050D01*
X0180000Y0356250D01*
X0184200Y0360850D02*
X0181800Y0363250D01*
X0147000Y0363250D01*
X0125000Y0341250D01*
X0115000Y0341250D02*
X0114600Y0341050D01*
X0109800Y0336250D01*
X0109800Y0335650D01*
X0106200Y0332050D01*
X0090600Y0332050D01*
X0099600Y0321250D02*
X0100000Y0321250D01*
X0099600Y0321250D02*
X0109200Y0311650D01*
X0135000Y0311650D01*
X0153600Y0293050D01*
X0153600Y0291250D01*
X0187800Y0257050D01*
X0187800Y0229450D01*
X0188400Y0226450D02*
X0186000Y0224050D01*
X0175800Y0224050D01*
X0166200Y0233650D01*
X0145200Y0225850D02*
X0145200Y0191650D01*
X0145000Y0191250D01*
X0130000Y0206250D02*
X0129600Y0206650D01*
X0124800Y0206650D01*
X0100200Y0231250D01*
X0100000Y0231250D01*
X0115200Y0270250D02*
X0115200Y0291250D01*
X0115000Y0291250D01*
X0118200Y0312850D02*
X0109800Y0321250D01*
X0110000Y0321250D01*
X0118200Y0312850D02*
X0135600Y0312850D01*
X0202200Y0246250D01*
X0205000Y0246250D01*
X0207600Y0252250D02*
X0198600Y0252250D01*
X0129600Y0321250D01*
X0130000Y0321250D01*
X0139800Y0321250D02*
X0140000Y0321250D01*
X0139800Y0321250D02*
X0148200Y0329650D01*
X0151800Y0329650D01*
X0154800Y0326650D01*
X0169800Y0326650D01*
X0170000Y0326250D01*
X0150000Y0321250D02*
X0169800Y0301450D01*
X0169800Y0291250D01*
X0170000Y0291250D01*
X0199800Y0291250D01*
X0204600Y0296050D01*
X0205000Y0296250D01*
X0212400Y0318850D02*
X0184200Y0347050D01*
X0184200Y0360850D01*
X0212400Y0318850D02*
X0212400Y0264850D01*
X0205200Y0257650D01*
X0205200Y0256450D01*
X0205000Y0256250D01*
X0207600Y0252250D02*
X0214800Y0245050D01*
X0210600Y0226450D02*
X0188400Y0226450D01*
X0187800Y0198250D02*
X0204600Y0181450D01*
X0205000Y0181250D01*
X0187800Y0198250D02*
X0163200Y0198250D01*
X0160800Y0195850D01*
X0160800Y0188050D01*
X0122400Y0149650D01*
X0122400Y0144250D01*
X0120000Y0136250D02*
X0120000Y0157450D01*
X0130200Y0141850D02*
X0130200Y0136450D01*
X0130000Y0136250D01*
X0130200Y0135850D01*
X0140400Y0135850D01*
X0160000Y0116250D01*
X0160200Y0116050D01*
X0160200Y0081250D01*
X0160000Y0081250D01*
X0159600Y0081250D01*
X0152400Y0074050D01*
X0133800Y0074050D01*
X0121200Y0061450D01*
X0120000Y0061450D01*
X0120000Y0061250D01*
X0130000Y0061250D02*
X0130200Y0060850D01*
X0171000Y0060850D01*
X0200400Y0031450D01*
X0204600Y0031450D01*
X0205000Y0031250D01*
X0205200Y0030850D01*
X0205200Y0021250D01*
X0205000Y0021250D01*
X0205000Y0081250D02*
X0204600Y0081250D01*
X0155400Y0130450D01*
X0155400Y0156250D01*
X0155000Y0156250D01*
X0145000Y0156250D02*
X0144600Y0156250D01*
X0130200Y0141850D01*
X0120000Y0132250D02*
X0126000Y0126250D01*
X0130000Y0126250D01*
X0120000Y0132250D02*
X0118200Y0132250D01*
X0100000Y0136250D02*
X0096000Y0132250D01*
X0096000Y0088450D01*
X0055200Y0047650D01*
X0055200Y0031450D01*
X0055000Y0031250D01*
X0080000Y0081250D02*
X0080400Y0081250D01*
X0080400Y0111250D01*
X0080000Y0111250D01*
X0079800Y0111250D01*
X0079800Y0137650D01*
X0064200Y0153250D01*
X0064200Y0161050D01*
X0061800Y0163450D01*
X0050400Y0186250D02*
X0050000Y0186250D01*
X0050400Y0186250D02*
X0050400Y0216250D01*
X0050000Y0216250D01*
X0019800Y0257050D02*
X0049800Y0287050D01*
X0049800Y0291250D01*
X0050000Y0291250D01*
X0049800Y0291250D02*
X0049800Y0301450D01*
X0035000Y0316250D01*
X0055000Y0316250D02*
X0055200Y0316450D01*
X0055200Y0321250D01*
X0079800Y0321250D01*
X0080000Y0291250D02*
X0070000Y0291250D01*
X0055200Y0321250D02*
X0055200Y0341050D01*
X0055000Y0341250D01*
X0055200Y0341650D01*
X0055200Y0357250D01*
X0055000Y0357352D01*
X0054600Y0357850D01*
X0043200Y0369250D01*
X0043200Y0375850D01*
X0043189Y0376250D01*
X0019800Y0257050D02*
X0012000Y0257050D01*
X0007800Y0252850D01*
X0007800Y0228850D01*
X0015000Y0221650D01*
X0015000Y0221250D01*
X0165000Y0191250D02*
X0165000Y0165250D01*
X0198000Y0132250D01*
X0198000Y0117850D01*
X0204600Y0111250D01*
X0205000Y0111250D01*
X0205000Y0121250D02*
X0205200Y0121450D01*
X0205200Y0122650D01*
X0213600Y0131050D01*
X0213600Y0223450D01*
X0210600Y0226450D01*
X0210000Y0225250D02*
X0212400Y0222850D01*
X0212400Y0149650D01*
X0205200Y0142450D01*
X0205200Y0131650D01*
X0205000Y0131250D01*
X0204600Y0092650D02*
X0165000Y0132250D01*
X0165000Y0156250D01*
X0204600Y0092650D02*
X0204600Y0091450D01*
X0205000Y0091250D01*
D17*
X0187800Y0229450D03*
X0214800Y0245050D03*
X0122400Y0144250D03*
M02*
